<svg width="80" height="135" viewBox="0 0 80 135" fill="none" xmlns="http://www.w3.org/2000/svg">
<g clip-path="url(#clip0)">
<path d="M77.4403 14.2766C75.5203 16.1662 69.7603 22.0449 69.7603 22.0449C68.907 22.8847 67.627 23.7245 66.347 23.7245C65.067 23.7245 63.787 23.0946 62.507 22.0449C59.5203 19.5254 56.9603 17.006 54.4003 14.2766C51.2003 10.9173 51.2003 5.45855 54.6137 2.09929C57.387 -0.630102 61.6537 -0.630102 64.8537 2.09929C65.707 2.9391 66.5603 2.9391 67.4137 2.09929C70.187 -0.420149 74.4537 -0.630102 77.227 2.09929C81.067 5.45855 80.8537 10.9173 77.4403 14.2766Z" fill="#F37972"/>
<path d="M10.0267 135H32.64C38.1867 135 42.6667 130.591 42.6667 125.132V9.86781C42.6667 4.40902 38.1867 0 32.64 0H10.0267C4.48 0 0 4.40902 0 9.86781V125.132C0 130.591 4.48 135 10.0267 135Z" fill="#E8E6F3"/>
<path d="M31.3596 30.443C28.7996 30.443 26.2396 28.1335 26.4529 25.6141C26.6662 22.8847 28.5862 20.7852 31.3596 20.7852C33.9196 20.7852 36.4796 23.0946 36.2662 25.6141C36.2662 28.3435 34.1329 30.443 31.3596 30.443Z" fill="#8C9FD1"/>
<path d="M26.4536 43.2505C26.2403 42.6207 26.2403 41.7809 26.6669 41.151C27.0936 40.3112 27.7336 39.8913 28.5869 39.6813C30.0803 39.2614 31.5736 40.1012 32.2136 41.5709C33.0669 44.0904 34.7736 46.3998 36.9069 48.2894C37.9736 49.1292 39.0403 49.969 40.3203 50.5989C40.9603 51.0188 41.6003 51.2288 42.0269 51.4387C42.2403 51.4387 42.4536 51.6487 42.6669 51.6487V57.7373C35.4136 55.8477 29.2269 50.389 26.4536 43.2505Z" fill="#8C9FD1"/>
</g>
<defs>
<clipPath id="clip0">
<rect width="80" height="135" fill="white"/>
</clipPath>
</defs>
</svg>
