<svg width="367" height="496" viewBox="0 0 367 496" fill="none" xmlns="http://www.w3.org/2000/svg">
<path d="M62.351 312H311.501C318.851 312 324.851 306 324.851 298.65V75.6C325.001 33.9 291.101 0 249.401 0H124.601C82.901 0 49.001 33.9 49.001 75.6V298.5C49.001 306 55.001 312 62.351 312Z" fill="#E8E7F4"/>
<path d="M16.65 360H342.9C352.05 360 359.55 352.5 359.55 343.35V328.65C359.55 319.5 352.05 312 342.9 312H16.65C7.5 312 0 319.5 0 328.65V343.35C0 352.5 7.5 360 16.65 360Z" fill="#FCD3C1"/>
<path d="M24.1002 496H350.35C359.5 496 367 488.5 367 479.35V464.65C367 455.5 359.5 448 350.35 448H24.1002C14.9502 448 7.4502 455.5 7.4502 464.65V479.35C7.4502 488.5 14.9502 496 24.1002 496Z" fill="#FCD3C1"/>
<path d="M18.65 427H344.9C354.05 427 361.55 419.5 361.55 410.35V395.65C361.55 386.5 354.05 379 344.9 379H18.65C9.5 379 2 386.5 2 395.65V410.35C2 419.5 9.5 427 18.65 427Z" fill="#FCD3C1"/>
<path d="M71.65 141.75C71.65 141.6 71.65 141.45 71.5 141.3V141.15V141.3C71.65 141.45 71.65 141.6 71.65 141.75Z" fill="#205CAA"/>
<path d="M97.5991 144.15L97.4491 144.3C97.2991 144.3 97.2991 144.15 97.5991 144.15Z" fill="#205CAA"/>
<path d="M111.851 96.0002C111.851 96.0002 111.851 95.8502 111.851 95.7002V90.7502V90.6002V90.4502L112.001 90.3002L112.151 90.1502C112.301 90.0002 112.451 90.0002 112.451 89.8502C112.601 89.8502 112.751 89.7002 112.901 89.7002C113.051 89.7002 113.201 89.7002 113.351 89.8502C113.501 89.8502 113.501 90.0002 113.651 90.0002C113.651 90.0002 113.801 90.0002 113.801 90.1502C113.951 90.3002 113.951 90.3002 113.951 90.4502C113.951 90.6002 114.101 90.7502 114.101 90.9002V95.8502C114.101 96.0002 114.101 96.0002 114.101 96.1502C114.101 96.3002 114.101 96.3002 113.951 96.4502C113.951 96.4502 113.951 96.6002 113.801 96.6002L113.651 96.7502C113.651 96.7502 113.501 96.7502 113.501 96.9002C113.501 96.9002 113.351 96.9002 113.351 97.0502C113.201 97.0502 113.201 97.0502 113.051 97.0502C112.751 97.0502 112.451 96.9002 112.151 96.7502C112.151 96.3002 112.001 96.1502 111.851 96.0002Z" fill="#205CAA"/>
<path d="M120.25 123.9C120.25 124.05 120.25 124.2 120.25 124.2C120.25 124.5 120.25 124.65 120.1 124.95C119.95 125.25 119.95 125.55 119.95 126C118.3 125.85 116.65 125.55 115.3 124.95C113.5 124.2 111.85 123.15 110.5 121.8C108.85 120.15 107.65 118.2 106.9 115.8C106.75 115.2 107.05 114.6 107.65 114.45C108.25 114.3 108.85 114.6 109 115.2C110.2 118.95 112.9 121.8 116.35 123.15C117.4 123.45 118.9 123.75 120.25 123.9Z" fill="#205CAA"/>
<path d="M98.65 167.85L98.5 168C98.5 168 98.5 167.85 98.65 167.85Z" fill="#205CAA"/>
<path d="M113.35 179.7C112.9 179.7 112.6 179.7 112.15 179.7H76.45C73.75 179.7 71.2 178.95 69.25 177.45C70.9 175.95 72.1 173.7 72.25 171.3C72.25 171.15 72.25 171 72.25 170.85V147.3V171.3H94C101.5 171.45 108.4 174.6 113.35 179.7Z" fill="#205CAA"/>
<path d="M53.8016 119.55L53.3516 119.1C53.5016 119.4 53.6516 119.4 53.8016 119.55Z" fill="#205CAA"/>
<path d="M98.65 167.85L98.5 168C98.5 168 98.5 167.85 98.65 167.85Z" fill="#205CAA"/>
<path d="M98.65 167.85L98.5 168C98.5 168 98.5 167.85 98.65 167.85Z" fill="#FCD3C1"/>
<path d="M98.65 167.85L98.5 168C98.5 168 98.5 167.85 98.65 167.85Z" fill="#FCD3C1"/>
<path d="M53.8016 119.55L53.3516 119.1C53.5016 119.4 53.6516 119.4 53.8016 119.55Z" fill="#205CAA"/>
<path d="M74.9506 171.45C74.5006 173.25 73.4506 174.9 72.1006 176.25V147.3V171.3H74.9506V171.45Z" fill="#205CAA"/>
<path d="M53.8016 119.55L53.3516 119.1C53.5016 119.4 53.6516 119.4 53.8016 119.55Z" fill="#205CAA"/>
<path d="M97.6001 144.15L97.4501 144.3C97.3001 144.3 97.3001 144.15 97.6001 144.15Z" fill="#205CAA"/>
<path d="M114.101 90.3003C114.101 90.1503 113.951 90.0003 113.951 90.0003C113.951 90.0003 113.951 89.8503 113.801 89.8503C113.651 89.7003 113.651 89.7003 113.501 89.7003C113.351 89.7003 113.201 89.5503 113.051 89.5503C112.901 89.5503 112.751 89.5503 112.601 89.7003C112.451 89.7003 112.301 89.8503 112.301 90.0003L112.151 90.1503L112.001 90.3003V90.4503V90.6003V95.5503C112.001 95.7003 112.001 95.7003 112.001 95.8503C112.001 96.1503 112.151 96.3003 112.301 96.4503C112.451 96.6003 112.751 96.7503 113.201 96.7503C113.351 96.7503 113.351 96.7503 113.501 96.7503C113.651 96.7503 113.651 96.7503 113.651 96.6003C113.651 96.6003 113.801 96.6003 113.801 96.4503L113.951 96.3003C113.951 96.3003 113.951 96.1503 114.101 96.1503C114.101 96.0003 114.101 96.0003 114.251 95.8503C114.251 95.7003 114.251 95.7003 114.251 95.5503V90.6003C114.251 90.6003 114.251 90.4503 114.101 90.3003ZM97.451 144.15C97.301 144.15 97.301 144.3 97.451 144.15V144.15ZM116.051 123C112.601 121.65 109.901 118.8 108.701 115.05C108.551 114.45 107.951 114.15 107.351 114.3C106.751 114.45 106.451 115.05 106.601 115.65C107.351 118.05 108.551 120 110.201 121.65C111.551 123 113.201 124.05 115.001 124.8C116.501 125.4 118.001 125.7 119.651 125.85C119.651 125.55 119.801 125.1 119.801 124.8C119.801 124.65 119.951 124.35 119.951 124.05C119.951 123.9 119.951 123.75 119.951 123.75C118.901 123.75 117.401 123.45 116.051 123ZM112.301 96.6003C112.451 96.7503 112.751 96.9003 113.201 96.9003C113.351 96.9003 113.351 96.9003 113.501 96.9003C113.651 96.9003 113.651 96.9003 113.651 96.7503C113.651 96.7503 113.801 96.7503 113.801 96.6003L113.951 96.4503C113.951 96.4503 113.951 96.3003 114.101 96.3003C114.101 96.1503 114.101 96.1503 114.251 96.0003C114.251 95.8503 114.251 95.8503 114.251 95.7003V90.7503C114.251 90.6003 114.251 90.4503 114.101 90.3003C114.101 90.1503 113.951 90.0003 113.951 90.0003C113.951 90.0003 113.951 89.8503 113.801 89.8503C113.651 89.7003 113.651 89.7003 113.501 89.7003C113.351 89.7003 113.201 89.5503 113.051 89.5503C112.901 89.5503 112.751 89.5503 112.601 89.7003C112.451 89.7003 112.301 89.8503 112.301 90.0003L112.151 90.1503L112.001 90.3003V90.4503V90.6003V95.5503C112.001 95.7003 112.001 95.7003 112.001 95.8503C112.001 96.1503 112.151 96.3003 112.301 96.6003ZM72.101 147.3V147.45V147.3ZM71.501 141.3V141.15C71.501 141.15 71.501 141.3 71.501 141.3C71.501 141.45 71.501 141.6 71.501 141.75C71.651 141.6 71.651 141.45 71.501 141.3Z" fill="#FCD3C1"/>
<path d="M114.25 90.75V95.7C114.25 95.85 114.25 95.85 114.25 96C114.25 96.15 114.25 96.15 114.1 96.3C114.1 96.3 114.1 96.4501 113.95 96.4501L113.8 96.6C113.8 96.6 113.65 96.6 113.65 96.75C113.65 96.75 113.5 96.75 113.5 96.9C113.35 96.9 113.35 96.9 113.2 96.9C112.9 96.9 112.6 96.7501 112.3 96.6C112.15 96.45 112 96.3 112 96C112 96 112 95.85 112 95.7V90.75V90.6V90.45C112 90.3 112 90.3 112.15 90.15L112.3 90C112.45 89.85 112.6 89.85 112.6 89.7C112.75 89.7 112.9 89.55 113.05 89.55C113.2 89.55 113.35 89.55 113.5 89.7C113.65 89.7 113.65 89.85 113.8 89.85C113.8 89.85 113.95 89.85 113.95 90C114.1 90.15 114.1 90.15 114.1 90.3C114.25 90.45 114.25 90.6 114.25 90.75Z" fill="#205CAA"/>
<path d="M120.25 123.9C120.25 124.05 120.25 124.2 120.25 124.2C120.25 124.5 120.25 124.65 120.1 124.95C119.95 125.25 119.95 125.55 119.95 126C118.3 125.85 116.65 125.55 115.3 124.95C113.5 124.2 111.85 123.15 110.5 121.8C108.85 120.15 107.65 118.2 106.9 115.8C106.75 115.2 107.05 114.6 107.65 114.45C108.25 114.3 108.85 114.6 109 115.2C110.2 118.95 112.9 121.8 116.35 123.15C117.4 123.45 118.9 123.75 120.25 123.9Z" fill="#205CAA"/>
<path d="M72.2506 147.3V171.45H72.1006C72.1006 171.3 72.1006 171.15 72.1006 171L72.2506 147.3Z" fill="#FCD3C1"/>
<path d="M72.2502 171.45C72.1002 171.45 72.1002 171.45 72.2502 171.45C72.1002 171.3 72.1002 171.3 72.2502 171.45Z" fill="#205CAA"/>
<path d="M290.049 209.1H286.899V301.95H290.049V209.1Z" fill="#91BDE5"/>
<path d="M319.899 238.95H316.749V301.95H319.899V238.95Z" fill="#91BDE5"/>
<path d="M303.399 216.144C300.849 218.694 293.349 226.344 293.349 226.344C292.149 227.544 290.499 228.594 288.999 228.594C287.199 228.594 285.549 227.544 284.049 226.344C280.299 222.894 276.849 219.744 273.399 216.144C268.899 211.494 268.899 204.144 273.399 199.644C276.999 196.044 282.549 196.194 286.899 199.644C288.099 200.694 289.149 200.844 290.349 199.644C294.099 196.194 299.649 196.044 303.249 199.644C308.199 204.294 308.049 211.494 303.399 216.144Z" fill="#F37972"/>
<path d="M330.4 249.487C328.3 251.587 322.3 257.737 322.3 257.737C321.4 258.637 320.05 259.537 318.7 259.537C317.35 259.537 315.85 258.787 314.8 257.737C311.65 255.037 308.95 252.337 306.25 249.487C302.65 245.737 302.5 239.887 306.25 236.137C309.1 233.287 313.6 233.287 317.2 236.137C318.25 236.887 319 237.188 320.05 236.137C323.05 233.287 327.55 233.287 330.4 236.137C334.3 240.037 334.15 245.737 330.4 249.487Z" fill="#F37972"/>
<path d="M247 280.65H358.75V310.5C358.75 324.6 347.35 336 333.25 336H272.65C258.55 336 247.15 324.6 247.15 310.5V280.65H247Z" fill="#205CAA"/>
<path d="M139.049 344.744H135.899V437.594H139.049V344.744Z" fill="#91BDE5"/>
<path d="M168.899 374.594H165.749V437.594H168.899V374.594Z" fill="#91BDE5"/>
<path d="M152.399 358.144C149.849 360.694 142.349 368.344 142.349 368.344C141.149 369.544 139.499 370.594 137.999 370.594C136.199 370.594 134.549 369.544 133.049 368.344C129.299 364.894 125.849 361.744 122.399 358.144C117.899 353.494 117.899 346.144 122.399 341.644C125.999 338.044 131.549 338.194 135.899 341.644C137.099 342.694 138.149 342.844 139.349 341.644C143.099 338.194 148.649 338.044 152.249 341.644C157.199 346.294 157.049 353.494 152.399 358.144Z" fill="#F37972"/>
<path d="M179.4 386.487C177.3 388.587 171.3 394.737 171.3 394.737C170.4 395.637 169.05 396.537 167.7 396.537C166.35 396.537 164.85 395.787 163.8 394.737C160.65 392.037 157.95 389.337 155.25 386.487C151.65 382.737 151.5 376.887 155.25 373.137C158.1 370.287 162.6 370.287 166.2 373.137C167.25 373.887 168 374.188 169.05 373.137C172.05 370.287 176.55 370.287 179.4 373.137C183.3 377.037 183.15 382.737 179.4 386.487Z" fill="#F37972"/>
<path d="M96 416.294H207.75V446.144C207.75 460.244 196.35 471.644 182.25 471.644H121.65C107.55 471.644 96.15 460.244 96.15 446.144V416.294H96Z" fill="#205CAA"/>
<path d="M114.102 90.3C114.102 90.45 114.252 90.6 114.252 90.75V95.7C114.252 95.85 114.252 95.85 114.252 96C114.252 96.15 114.252 96.15 114.102 96.3C114.102 96.3 114.102 96.4501 113.952 96.4501L113.802 96.6C113.802 96.45 113.652 96.45 113.652 96.3C113.502 96.15 113.352 96 113.202 95.7C113.052 95.55 112.902 95.2501 112.752 95.1C112.452 94.8 112.152 94.35 111.852 94.05V90.6V90.45V90.3L112.002 90.15L112.152 90C112.302 89.85 112.452 89.85 112.452 89.7C112.602 89.7 112.752 89.55 112.902 89.55C113.052 89.55 113.202 89.55 113.352 89.7C113.502 89.7 113.502 89.85 113.652 89.85C113.652 89.85 113.802 89.85 113.802 90C113.952 90 114.102 90.15 114.102 90.3Z" fill="#205CAA"/>
<path d="M120.251 123.9C120.251 124.05 120.251 124.2 120.251 124.2C120.251 124.5 120.251 124.65 120.101 124.95C120.101 125.25 119.951 125.55 119.951 126C118.301 125.85 116.651 125.55 115.301 124.95C115.601 124.35 115.901 123.75 116.201 123C117.401 123.45 118.901 123.75 120.251 123.9Z" fill="#205CAA"/>
<path d="M132.7 99.6C132.25 67.2 106.75 40.8 74.5 39H71.95C71.2 39 70.6 39 70 39.15C69.4 39.15 68.65 39 68.05 39H65.5C32.95 40.8 7.45 67.2 7 99.6C7 100.05 7 100.5 7 100.95V160.95C7 166.95 10.15 172.35 14.95 175.8C15.7 176.4 16.6 176.85 17.5 177.3C18.1 177.6 18.7 177.9 19.3 178.05C21.85 179.1 24.7 179.7 27.7 179.7H63.55C65.8 179.7 67.75 178.8 69.25 177.45C70.9 175.95 72.1 173.7 72.25 171.3L67.6 165.9L58.15 154.65L52 147.3L46.15 140.25L55.6 130.8C55.9 130.5 56.05 130.35 56.35 130.05C56.65 129.75 56.95 129.45 57.1 129.15C57.4 128.85 57.55 128.55 57.85 128.25C58 128.1 58.15 127.8 58.3 127.65C58.45 127.35 58.6 127.05 58.9 126.9C59.05 126.6 59.2 126.45 59.2 126.15C59.35 125.85 59.5 125.55 59.65 125.4C59.65 125.4 59.65 125.4 59.65 125.25C59.8 124.95 59.95 124.65 59.95 124.5C59.95 124.35 60.1 124.2 60.1 123.9C60.1 123.75 60.25 123.6 60.25 123.6C60.4 123.3 60.4 123 60.55 122.7C60.7 122.4 60.7 122.1 60.85 121.8C61 121.5 61 121.2 61.15 120.9C61.15 120.6 61.3 120.3 61.3 120C61.3 119.7 61.45 119.4 61.45 119.1C61.45 118.8 61.45 118.35 61.6 118.05V117.6C61.6 117.45 61.6 117.3 61.6 117.15C61.6 116.85 61.6 116.55 61.6 116.1V110.25L61.45 99.6V99.45V99.3V98.1V96.75C61.45 94.35 63.4 92.4 65.8 92.4H67.9C68.05 92.4 68.05 92.4 68.2 92.4C68.35 92.4 68.35 92.4 68.5 92.4C68.65 92.4 68.8 92.4 69.1 92.55C69.25 92.55 69.4 92.55 69.55 92.7H69.7C70 92.85 70.3 93 70.6 93.15C70.75 93.15 70.75 93.3 70.9 93.45C71.05 93.45 71.05 93.6 71.2 93.6C71.35 93.75 71.35 93.75 71.5 93.9C71.5 94.05 71.65 94.05 71.65 94.2C71.95 94.65 72.25 95.1 72.25 95.7C72.4 96 72.4 96.3 72.4 96.6V101.55C72.4 101.7 72.4 101.85 72.4 101.85C72.4 102 72.4 102.15 72.4 102.15V102.3C72.4 102.45 72.4 102.45 72.55 102.6V102.75C72.55 102.75 72.55 102.75 72.55 102.9V103.05C72.55 103.05 72.55 103.2 72.7 103.2C72.7 103.35 72.85 103.5 72.85 103.65C72.85 103.8 73 103.8 73 103.95C73 103.95 73 103.95 73 104.1C73 104.25 73.15 104.4 73.3 104.4C73.6 104.7 73.9 105 74.35 105.3C74.5 105.3 74.65 105.45 74.65 105.45C74.8 105.45 74.8 105.6 74.95 105.6C75.55 105.9 76 105.9 76.6 105.9H78.7C79.6 105.9 80.5 105.6 81.25 105.15C81.7 104.85 82 104.55 82.3 104.1L106.45 79.95L120.55 65.85V90.15C120.55 90.15 120.55 90.15 120.7 90.3C120.7 90.45 120.85 90.6 121 90.75C121.15 90.9 121.15 91.2 121.3 91.35C121.45 91.65 121.6 92.1 121.9 92.55C122.05 92.7 122.05 93 122.2 93.15C122.2 93.3 122.35 93.45 122.35 93.6C122.5 93.9 122.65 94.2 122.8 94.5C124.15 96.9 125.65 99.9 126.7 101.55C128.8 105.3 127.15 109.8 122.95 109.8H120.55V119.25C120.55 120.15 120.55 121.05 120.4 121.95C120.4 122.4 120.25 122.85 120.25 123.3C120.25 123.45 120.25 123.6 120.25 123.6C120.25 123.75 120.25 123.9 120.25 123.9C120.25 124.2 120.25 124.35 120.1 124.65C120.1 124.95 119.95 125.25 119.95 125.7C117.7 135.45 110.35 143.25 100.75 146.1C99.25 146.55 97.6 146.85 95.95 147.15H74.95H74.8H74.65C74.65 147.15 74.65 147.15 74.5 147.15L72.1 147.3V171.15H94C101.65 171.15 108.55 174.3 113.35 179.55C124.15 178.95 132.7 170.85 132.7 160.8V100.35C132.7 100.2 132.7 99.9 132.7 99.6Z" fill="#205CAA"/>
<path d="M121 197.85V312H31.7629C18.1735 312 7 301.05 7 287.4V197.85C7 197.7 7 197.55 7 197.25C7 196.5 7 195.75 7.15099 195C7.30199 193.95 7.45298 193.05 7.60397 192C8.96291 186 12.2848 180.75 16.9656 177C17.5695 177.3 18.1735 177.6 18.7775 177.75C21.3444 178.8 24.2132 179.4 27.2331 179.4H63.3205C65.5854 179.4 67.5483 178.5 69.0583 177.15C70.7192 175.65 71.9272 173.4 72.0781 171H94.1232C101.824 171 108.77 174.15 113.601 179.4C118.131 184.2 121 190.65 121 197.85Z" fill="#8D9FD1"/>
<path d="M194.937 189.137L126.354 268.65L120.535 275.397C111.39 285.999 95.5332 287.169 84.9314 278.025L15.8588 218.447C11.843 214.983 9.24581 210.362 8.43269 205.458C7.1879 198.782 8.77433 191.746 13.4851 186.284C13.7622 185.963 13.9008 185.803 14.1779 185.481C14.97 186.024 15.9007 186.407 16.8314 186.79C17.4518 187.045 18.0723 187.3 18.6817 187.405C21.3021 188.264 24.1885 188.653 27.1804 188.432L41.6909 187.361L91.6701 230.75C96.1678 234.63 103.049 234.122 106.929 229.624L122.169 211.954L164.417 162.812L181.444 177.498L194.937 189.137Z" fill="#8D9FD1"/>
<path d="M242.248 184.141L241.832 184.622C239.892 186.871 236.452 187.125 234.053 185.197L200.642 156.378C198.393 154.438 198.139 150.997 200.067 148.599L200.345 148.278C207.037 149.288 213.563 152.115 219.024 156.826L241.352 176.085C243.923 178.301 244.177 181.742 242.248 184.141Z" fill="#91BDE5"/>
<path d="M215.348 206.882L181.936 178.064C179.688 176.124 179.434 172.683 181.362 170.285L181.778 169.803C183.718 167.554 187.158 167.3 189.557 169.229L222.969 198.048C225.218 199.987 225.471 203.428 223.543 205.826L223.127 206.308C221.038 208.568 217.597 208.822 215.348 206.882Z" fill="#91BDE5"/>
<path d="M212.289 255.088L187.23 233.474C181.608 228.624 180.989 220.247 185.839 214.625L219.784 175.27C224.633 169.648 233.011 169.029 238.633 173.879L263.692 195.493C269.314 200.342 269.932 208.719 265.083 214.342L231.137 253.697C226.277 259.169 217.75 259.799 212.289 255.088Z" fill="#91BDE5"/>
<path d="M212.163 251.337L211.71 245.204C211.39 240.866 214.715 237.011 219.053 236.69L281.733 232.064C286.071 231.744 289.926 235.07 290.247 239.408L290.699 245.541C291.019 249.879 287.694 253.734 283.356 254.055L220.676 258.681C216.189 259.012 212.483 255.676 212.163 251.337Z" fill="#91BDE5"/>
<path d="M220.077 158.854C220.121 159.452 219.877 160.222 219.461 160.704L213.642 167.451L194.938 189.137L164.578 162.95L166.24 161.023C175.108 150.742 188.179 146.468 200.505 148.416C207.198 149.426 213.724 152.254 219.185 156.965C219.678 157.53 220.022 158.106 220.077 158.854Z" fill="#FCD3C1"/>
<path d="M70.6288 263.585C70.6525 263.884 70.5385 264.344 70.2631 264.667C69.7124 265.312 68.8152 265.383 68.1697 264.833L28.9538 231.377C28.3082 230.826 28.2371 229.929 28.7879 229.283C29.3386 228.638 30.2358 228.567 30.8813 229.117L70.0972 262.573C70.42 262.849 70.5932 263.136 70.6288 263.585Z" fill="#91BDE5"/>
<path d="M126.849 101.7C125.799 99.8999 124.299 97.0498 122.949 94.6498C122.799 94.3498 122.649 94.0499 122.499 93.7499C122.499 93.5999 122.349 93.4499 122.349 93.2999C122.199 92.9999 122.199 92.8498 122.049 92.6999C121.899 92.2498 121.599 91.9499 121.449 91.4999C121.299 91.1999 121.149 91.0498 121.149 90.8998C120.999 90.7498 120.999 90.5998 120.849 90.4499C120.699 90.2999 120.699 90.2999 120.699 90.2999V65.8499L106.599 79.9499L82.2994 104.1C81.9994 104.55 81.6994 104.85 81.2494 105.15C80.4994 105.6 79.5994 105.9 78.6994 105.9H76.5994C75.9994 105.9 75.3994 105.75 74.9494 105.6C74.7994 105.6 74.7994 105.45 74.6494 105.45C74.4994 105.45 74.3494 105.3 74.3494 105.3C73.8994 105 73.5994 104.7 73.2994 104.4C73.1494 104.25 73.1494 104.25 72.9994 104.1C72.9994 104.1 72.9994 104.1 72.9994 103.95C72.9994 103.8 72.8494 103.8 72.8494 103.65C72.8494 103.5 72.6994 103.35 72.6994 103.2C72.6994 103.2 72.6994 103.05 72.5494 103.05C72.5494 103.05 72.5494 103.05 72.5494 102.9C72.5494 102.9 72.5494 102.9 72.5494 102.75C72.5494 102.75 72.5494 102.75 72.5494 102.6C72.5494 102.45 72.5494 102.45 72.3994 102.3V102.15C72.3994 102 72.3994 101.85 72.3994 101.85C72.3994 101.7 72.3994 101.55 72.3994 101.55V96.5999C72.3994 96.2999 72.3994 95.9998 72.2494 95.6999C72.0994 95.0998 71.9494 94.6499 71.6494 94.1999C71.6494 94.0499 71.4994 94.0498 71.4994 93.8998C71.3494 93.7498 71.3494 93.7499 71.1994 93.5999C71.1994 93.5999 71.0494 93.4499 70.8994 93.4499C70.7494 93.2999 70.7494 93.2998 70.5994 93.1498C70.2994 92.9998 69.9994 92.8498 69.6994 92.6999H69.5494C69.3994 92.6999 69.2494 92.5499 69.0994 92.5499C68.9494 92.5499 68.7994 92.5498 68.4994 92.3998C68.3494 92.3998 68.3494 92.3998 68.1994 92.3998C68.0494 92.3998 68.0494 92.3998 67.8994 92.3998H65.7994C63.3994 92.3998 61.4494 94.3499 61.4494 96.7499V98.0999V99.2998V99.4499V99.5999L61.5994 110.25V116.1C61.5994 116.4 61.5994 116.7 61.5994 117.15C61.5994 117.3 61.5994 117.45 61.5994 117.6V118.05C61.5994 118.35 61.5994 118.8 61.4494 119.1C61.4494 119.4 61.2994 119.7 61.2994 120C61.2994 120.3 61.1494 120.6 61.1494 120.9C60.9994 121.2 60.9994 121.5 60.8494 121.8C60.8494 122.1 60.6994 122.4 60.5494 122.7C60.3994 123 60.3994 123.3 60.2494 123.6C60.2494 123.75 60.0994 123.9 60.0994 123.9C60.0994 124.05 59.9494 124.2 59.9494 124.5C59.7994 124.8 59.7994 125.1 59.6494 125.25C59.6494 125.25 59.6494 125.25 59.6494 125.4C59.4994 125.7 59.3494 126 59.1994 126.15C59.0494 126.45 58.8994 126.6 58.8994 126.9C58.7494 127.2 58.5994 127.5 58.2994 127.65C58.1494 127.95 57.9994 128.1 57.8494 128.25C57.6994 128.55 57.3994 128.85 57.0994 129.15C56.9494 129.45 56.6494 129.75 56.3494 130.05C56.0494 130.35 55.8994 130.5 55.5994 130.8L46.1494 140.25L51.9994 147.3L58.1494 154.5L67.5994 165.75L72.2494 171.15C72.2494 171 72.2494 170.85 72.2494 170.7V147.3V147.45L88.7494 147.3H95.9494C97.5994 147.15 99.2494 146.7 100.749 146.25C110.199 143.4 117.549 135.6 119.949 125.85C118.299 125.7 116.649 125.4 115.299 124.8C113.499 124.05 111.849 123 110.499 121.65C108.849 120 107.649 118.05 106.899 115.65C106.749 115.05 107.049 114.45 107.499 114.3C108.099 114.15 108.699 114.45 108.849 115.05C110.049 118.8 112.749 121.65 116.199 123C117.549 123.45 118.899 123.75 120.399 123.9C120.399 123.75 120.399 123.6 120.399 123.6C120.399 123.15 120.549 122.7 120.549 122.25C120.549 121.35 120.699 120.45 120.699 119.55V110.1H123.099C127.299 109.95 128.949 105.45 126.849 101.7ZM114.249 95.6999C114.249 95.8498 114.249 95.8499 114.249 95.9999C114.249 96.1499 114.249 96.1498 114.099 96.2998C114.099 96.2998 114.099 96.4499 113.949 96.4499L113.799 96.5999C113.799 96.5999 113.649 96.5999 113.649 96.7499C113.649 96.7499 113.499 96.7498 113.499 96.8998C113.349 96.8998 113.349 96.8998 113.199 96.8998C112.899 96.8998 112.599 96.7499 112.449 96.5999C112.299 96.4499 112.149 96.2999 112.149 95.9999C112.149 95.9999 112.149 95.8498 112.149 95.6999V90.7499V90.5999V90.4499C112.149 90.4499 112.149 90.2999 112.299 90.2999C112.449 90.2999 112.449 90.1498 112.449 90.1498C112.599 89.9998 112.749 89.9999 112.749 89.8499C112.899 89.8499 113.049 89.6999 113.199 89.6999C113.349 89.6999 113.499 89.6999 113.649 89.8499C113.799 89.8499 113.799 89.9999 113.949 89.9999C113.949 89.9999 114.099 89.9998 114.099 90.1498C114.249 90.2998 114.249 90.2999 114.249 90.4499C114.249 90.5998 114.249 90.7498 114.249 90.8998V95.6999Z" fill="#FCD3C1"/>
</svg>
