<svg width="215" height="48" viewBox="0 0 215 48" fill="none" xmlns="http://www.w3.org/2000/svg">
<path d="M97.52 28.5057V10.1675H101.671V25.3005H112.284V28.5057H97.52Z" fill="#245DAA"/>
<path d="M116.173 19.3104C116.173 13.3203 120.166 9.85229 126.629 9.85229C133.039 9.85229 137.032 13.3203 137.032 19.3104C137.032 25.3006 133.039 28.7686 126.629 28.7686C120.166 28.8211 116.173 25.3531 116.173 19.3104ZM132.776 19.3104C132.776 14.8441 130.254 12.7948 126.629 12.7948C123.003 12.7948 120.481 14.8441 120.481 19.3104C120.481 23.7768 123.003 25.826 126.629 25.826C130.202 25.8786 132.776 23.7768 132.776 19.3104Z" fill="#245DAA"/>
<path d="M147.12 28.5057V13.3727H140.553V10.1675H157.787V13.3727H151.219V28.5057H147.12V28.5057Z" fill="#245DAA"/>
<path d="M162.936 21.5172V10.1675H167.087V21.4121C167.087 24.3547 168.926 25.7209 171.816 25.7209C174.653 25.7209 176.492 24.4072 176.492 21.4121V10.1675H180.643V21.5172C180.643 26.2988 177.438 28.821 171.816 28.821C166.194 28.821 162.936 26.2988 162.936 21.5172Z" fill="#245DAA"/>
<path d="M186.265 24.1446C186.265 23.8819 186.265 23.6191 186.265 23.3039H189.417C189.417 25.4057 191.834 25.9837 194.619 25.9837C197.509 25.9837 199.348 25.0904 199.348 23.3039C199.348 21.9902 198.507 21.2021 196.143 20.9393L191.729 20.519C188.156 20.1511 186.37 18.4172 186.37 15.6323C186.37 11.6914 189.89 9.85229 194.882 9.85229C198.98 9.85229 202.816 11.2185 202.816 14.6339C202.816 14.7915 202.816 15.2119 202.816 15.5797H199.506C199.506 13.583 197.299 12.6897 194.882 12.6897C191.939 12.6897 190.573 13.7406 190.573 15.2644C190.573 16.6832 191.519 17.2612 193.621 17.4713L197.667 17.8392C201.345 18.207 203.499 19.6257 203.499 22.8835C203.499 27.2973 199.558 28.8211 194.724 28.8211C190.048 28.8211 186.265 27.6126 186.265 24.1446Z" fill="#245DAA"/>
<path d="M97.52 38.2791H98.7284V42.2199H103.773V38.2791H104.981V47.6321H103.773V43.2708H98.781V47.6321H97.5725V38.2791H97.52Z" fill="#245DAA"/>
<path d="M112.284 42.9557C112.284 40.0131 114.386 37.9639 117.328 37.9639C120.271 37.9639 122.372 40.0657 122.372 42.9557C122.372 45.8982 120.271 48 117.328 48C114.386 48 112.284 45.9507 112.284 42.9557ZM121.217 42.9557C121.217 40.6437 119.64 39.0148 117.381 39.0148C115.122 39.0148 113.545 40.6437 113.545 42.9557C113.545 45.2676 115.174 46.8965 117.381 46.8965C119.588 46.8965 121.217 45.2676 121.217 42.9557Z" fill="#245DAA"/>
<path d="M129.151 44.6371H130.359C130.359 46.1084 131.41 46.9491 133.144 46.9491C134.668 46.9491 135.561 46.266 135.561 45.2151C135.561 43.9015 134.247 43.6913 132.829 43.4811C131.147 43.2184 129.256 42.798 129.256 40.7488C129.256 39.0673 130.569 37.9639 132.829 37.9639C135.141 37.9639 136.507 39.1724 136.559 41.1166H135.403C135.403 39.8029 134.458 39.0148 132.881 39.0148C131.358 39.0148 130.517 39.6453 130.517 40.6962C130.517 41.9573 131.778 42.1675 133.144 42.3777C134.825 42.6404 136.769 43.0082 136.769 45.1626C136.769 46.8965 135.403 48 133.144 48C130.675 48 129.151 46.7389 129.151 44.6371Z" fill="#245DAA"/>
<path d="M144.125 38.2791H147.856C149.905 38.2791 151.219 39.3825 151.219 41.169C151.219 42.9556 149.852 44.059 147.856 44.059H145.281V47.6846H144.073V38.2791H144.125ZM147.856 42.9556C149.222 42.9556 150.01 42.2725 150.01 41.169C150.01 40.0656 149.222 39.3825 147.856 39.3825H145.281V43.0081H147.856V42.9556Z" fill="#245DAA"/>
<path d="M158.365 38.2791H159.573V47.6321H158.365V38.2791Z" fill="#245DAA"/>
<path d="M169.398 39.3827H166.298V38.3318H173.707V39.3827H170.607V47.6848H169.398V39.3827V39.3827Z" fill="#245DAA"/>
<path d="M182.482 38.2791H184.111L187.631 47.6321H186.475L185.687 45.5303H180.906L180.117 47.6321H178.961L182.482 38.2791ZM185.319 44.5845L183.375 39.3825H183.27L181.273 44.5845H185.319Z" fill="#245DAA"/>
<path d="M194.619 38.2791H195.828V46.5812H200.557V47.6321H194.619V38.2791Z" fill="#245DAA"/>
<path d="M207.02 44.6371H208.228C208.228 46.1084 209.279 46.9491 211.013 46.9491C212.537 46.9491 213.43 46.266 213.43 45.2151C213.43 43.9015 212.116 43.6913 210.698 43.4811C209.016 43.2184 207.125 42.798 207.125 40.7488C207.125 39.0673 208.438 37.9639 210.698 37.9639C213.01 37.9639 214.376 39.1724 214.428 41.1166H213.272C213.272 39.8029 212.326 39.0148 210.75 39.0148C209.226 39.0148 208.386 39.6453 208.386 40.6962C208.386 41.9573 209.647 42.1675 211.013 42.3777C212.694 42.6404 214.638 43.0082 214.638 45.1626C214.638 46.8965 213.272 48 211.013 48C208.543 48 207.02 46.7389 207.02 44.6371Z" fill="#245DAA"/>
<path d="M48.6547 11.8489C47.0784 13.4253 42.4021 18.2594 42.4021 18.2594C41.6665 18.9951 40.6156 19.6782 39.6698 19.6782C38.5664 19.6782 37.5156 19.0476 36.6223 18.312C34.2579 16.2102 32.1562 14.1609 30.0019 11.954C27.2172 9.06404 27.1646 4.49261 30.0019 1.65517C32.2087 -0.551724 35.7291 -0.551724 38.4088 1.65517C39.1969 2.28571 39.7749 2.3908 40.5631 1.65517C42.8749 -0.499179 46.3428 -0.551724 48.6021 1.65517C51.5445 4.54516 51.492 9.0115 48.6547 11.8489Z" fill="#F37972"/>
<path d="M78.604 12.5846V45.0575C78.604 46.5288 77.4481 47.6848 75.9769 47.6848H70.4073C68.9361 47.6848 67.7802 46.5288 67.7802 45.0575V32.7094C60.5293 40.0657 50.441 44.5846 39.3019 44.5846C28.1629 44.5846 18.0746 40.0132 10.8237 32.6568V45.005C10.8237 46.4762 9.66777 47.6322 8.19657 47.6322H2.62702C1.15582 47.6322 -0.00012207 46.4237 -0.00012207 45.005V12.5846C-0.00012207 11.1133 1.15582 9.95733 2.62702 9.95733H8.19657C9.51014 9.95733 10.6135 10.9031 10.7712 12.2168C14.1865 24.7751 25.6408 34.0756 39.3019 34.0756C52.9631 34.0756 64.47 24.7751 67.7802 12.1642C67.9903 10.9031 69.0412 9.90479 70.3548 9.90479H75.9243C77.4481 9.95733 78.604 11.1133 78.604 12.5846Z" fill="#92BDE5"/>
</svg>
