<svg width="64" height="121" viewBox="0 0 64 121" fill="none" xmlns="http://www.w3.org/2000/svg">
<path d="M20.0494 28.0999H16.8994V120.95H20.0494V28.0999Z" fill="#91BDE5"/>
<path d="M49.899 57.95H46.749V120.95H49.899V57.95Z" fill="#91BDE5"/>
<path d="M33.3994 19.144C30.8494 21.694 23.3494 29.3441 23.3494 29.3441C22.1494 30.5441 20.4994 31.5941 18.9994 31.5941C17.1994 31.5941 15.5494 30.5441 14.0494 29.3441C10.2994 25.8941 6.84941 22.744 3.39941 19.144C-1.10059 14.494 -1.10059 7.14405 3.39941 2.64405C6.99941 -0.955951 12.5494 -0.805951 16.8994 2.64405C18.0994 3.69405 19.1494 3.84405 20.3494 2.64405C24.0994 -0.805951 29.6494 -0.955951 33.2494 2.64405C38.1994 7.29405 38.0494 14.494 33.3994 19.144Z" fill="#F37972"/>
<path d="M60.3997 54.4875C58.2997 56.5875 52.2997 62.7375 52.2997 62.7375C51.3997 63.6375 50.0497 64.5375 48.6997 64.5375C47.3497 64.5375 45.8497 63.7875 44.7997 62.7375C41.6497 60.0375 38.9497 57.3375 36.2497 54.4875C32.6497 50.7375 32.4997 44.8875 36.2497 41.1375C39.0997 38.2875 43.5997 38.2875 47.1997 41.1375C48.2497 41.8875 48.9997 42.1875 50.0497 41.1375C53.0497 38.2875 57.5497 38.2875 60.3997 41.1375C64.2997 45.0375 64.1497 50.7375 60.3997 54.4875Z" fill="#F37972"/>
</svg>
