<svg width="75" height="39" viewBox="0 0 75 39" fill="none" xmlns="http://www.w3.org/2000/svg">
<path d="M8.90974 30.1563C16.8572 38.0445 28.112 40.6658 38.2561 37.971C40.971 27.9026 38.3301 16.7317 30.3827 8.84353C22.4352 0.930841 11.1804 -1.66589 1.03633 1.02883C-1.67863 11.0973 0.962288 22.2681 8.90974 30.1563Z" fill="#91BDE5"/>
<path d="M47.1517 11.9339C39.8767 19.0146 37.4517 29.0646 39.9549 38.0868C49.2248 40.4851 59.5507 38.1629 66.8648 31.0822C74.1399 24.0015 76.5258 13.9515 74.0617 4.92939C64.7527 2.49303 54.4659 4.85325 47.1517 11.9339Z" fill="#91BDE5"/>
<path d="M47 33.5L63 16.5" stroke="#E8E7F4" stroke-width="2" stroke-linecap="round"/>
<path d="M26.2537 32.1656C26.6213 32.5778 27.2534 32.6139 27.6656 32.2463C28.0778 31.8787 28.1139 31.2466 27.7463 30.8344L26.2537 32.1656ZM11.2463 12.3344C10.8787 11.9222 10.2466 11.8861 9.83439 12.2537C9.42222 12.6213 9.3861 13.2534 9.7537 13.6656L11.2463 12.3344ZM27.7463 30.8344L11.2463 12.3344L9.7537 13.6656L26.2537 32.1656L27.7463 30.8344Z" fill="#E8E7F4"/>
</svg>
