<svg width="280" height="273" viewBox="0 0 280 273" fill="none" xmlns="http://www.w3.org/2000/svg">
<path d="M107.102 51.3C107.102 51.45 107.252 51.6 107.252 51.75V56.7C107.252 56.85 107.252 56.85 107.252 57C107.252 57.15 107.252 57.15 107.102 57.3C107.102 57.3 107.102 57.4501 106.952 57.4501L106.802 57.6C106.802 57.45 106.652 57.45 106.652 57.3C106.502 57.15 106.352 57 106.202 56.7C106.052 56.55 105.902 56.2501 105.752 56.1C105.452 55.8 105.152 55.35 104.852 55.05V51.6V51.45V51.3L105.002 51.15L105.152 51C105.302 50.85 105.452 50.85 105.452 50.7C105.602 50.7 105.752 50.55 105.902 50.55C106.052 50.55 106.202 50.55 106.352 50.7C106.502 50.7 106.502 50.85 106.652 50.85C106.652 50.85 106.802 50.85 106.802 51C106.952 51 107.102 51.15 107.102 51.3Z" fill="#205CAA"/>
<path d="M113.251 84.9002C113.251 85.0502 113.251 85.2002 113.251 85.2002C113.251 85.5002 113.251 85.6502 113.101 85.9502C113.101 86.2502 112.951 86.5502 112.951 87.0002C111.301 86.8502 109.651 86.5502 108.301 85.9502C108.601 85.3502 108.901 84.7502 109.201 84.0002C110.401 84.4502 111.901 84.7502 113.251 84.9002Z" fill="#205CAA"/>
<path d="M125.7 60.6C125.25 28.2 99.75 1.8 67.5 0H64.95C64.2 0 63.6 5.69969e-07 63 0.150001C62.4 0.150001 61.65 0 61.05 0H58.5C25.95 1.8 0.45 28.2 0 60.6C0 61.05 0 61.5 0 61.95V121.95C0 127.95 3.15 133.35 7.95 136.8C8.7 137.4 9.6 137.85 10.5 138.3C11.1 138.6 11.7 138.9 12.3 139.05C14.85 140.1 17.7 140.7 20.7 140.7H56.55C58.8 140.7 60.75 139.8 62.25 138.45C63.9 136.95 65.1 134.7 65.25 132.3L60.6 126.9L51.15 115.65L45 108.3L39.15 101.25L48.6 91.8C48.9 91.5 49.05 91.35 49.35 91.05C49.65 90.75 49.95 90.45 50.1 90.15C50.4 89.85 50.55 89.55 50.85 89.25C51 89.1 51.15 88.8 51.3 88.65C51.45 88.35 51.6 88.05 51.9 87.9C52.05 87.6 52.2 87.45 52.2 87.15C52.35 86.85 52.5 86.55 52.65 86.4C52.65 86.4 52.65 86.4 52.65 86.25C52.8 85.95 52.95 85.65 52.95 85.5C52.95 85.35 53.1 85.2 53.1 84.9C53.1 84.75 53.25 84.6 53.25 84.6C53.4 84.3 53.4 84 53.55 83.7C53.7 83.4 53.7 83.1 53.85 82.8C54 82.5 54 82.2 54.15 81.9C54.15 81.6 54.3 81.3 54.3 81C54.3 80.7 54.45 80.4 54.45 80.1C54.45 79.8 54.45 79.35 54.6 79.05V78.6C54.6 78.45 54.6 78.3 54.6 78.15C54.6 77.85 54.6 77.55 54.6 77.1V71.25L54.45 60.6V60.45V60.3V59.1V57.75C54.45 55.35 56.4 53.4 58.8 53.4H60.9C61.05 53.4 61.05 53.4 61.2 53.4C61.35 53.4 61.35 53.4 61.5 53.4C61.65 53.4 61.8 53.4 62.1 53.55C62.25 53.55 62.4 53.55 62.55 53.7H62.7C63 53.85 63.3 54 63.6 54.15C63.75 54.15 63.75 54.3 63.9 54.45C64.05 54.45 64.05 54.6 64.2 54.6C64.35 54.75 64.35 54.75 64.5 54.9C64.5 55.05 64.65 55.05 64.65 55.2C64.95 55.65 65.25 56.1 65.25 56.7C65.4 57 65.4 57.3 65.4 57.6V62.55C65.4 62.7 65.4 62.85 65.4 62.85C65.4 63 65.4 63.15 65.4 63.15V63.3C65.4 63.45 65.4 63.45 65.55 63.6V63.75C65.55 63.75 65.55 63.75 65.55 63.9V64.05C65.55 64.05 65.55 64.2 65.7 64.2C65.7 64.35 65.85 64.5 65.85 64.65C65.85 64.8 66 64.8 66 64.95C66 64.95 66 64.95 66 65.1C66 65.25 66.15 65.4 66.3 65.4C66.6 65.7 66.9 66 67.35 66.3C67.5 66.3 67.65 66.45 67.65 66.45C67.8 66.45 67.8 66.6 67.95 66.6C68.55 66.9 69 66.9 69.6 66.9H71.7C72.6 66.9 73.5 66.6 74.25 66.15C74.7 65.85 75 65.55 75.3 65.1L99.45 40.95L113.55 26.85V51.15C113.55 51.15 113.55 51.15 113.7 51.3C113.7 51.45 113.85 51.6 114 51.75C114.15 51.9 114.15 52.2 114.3 52.35C114.45 52.65 114.6 53.1 114.9 53.55C115.05 53.7 115.05 54 115.2 54.15C115.2 54.3 115.35 54.45 115.35 54.6C115.5 54.9 115.65 55.2 115.8 55.5C117.15 57.9 118.65 60.9 119.7 62.55C121.8 66.3 120.15 70.8 115.95 70.8H113.55V80.25C113.55 81.15 113.55 82.05 113.4 82.95C113.4 83.4 113.25 83.85 113.25 84.3C113.25 84.45 113.25 84.6 113.25 84.6C113.25 84.75 113.25 84.9 113.25 84.9C113.25 85.2 113.25 85.35 113.1 85.65C113.1 85.95 112.95 86.25 112.95 86.7C110.7 96.45 103.35 104.25 93.75 107.1C92.25 107.55 90.6 107.85 88.95 108.15H67.95H67.8H67.65C67.65 108.15 67.65 108.15 67.5 108.15L65.1 108.3V132.15H87C94.65 132.15 101.55 135.3 106.35 140.55C117.15 139.95 125.7 131.85 125.7 121.8V61.35C125.7 61.2 125.7 60.9 125.7 60.6Z" fill="#205CAA"/>
<path d="M114 158.85V273H24.7629C11.1735 273 0 262.05 0 248.4V158.85C0 158.7 0 158.55 0 158.25C0 157.5 -1.49012e-08 156.75 0.150993 156C0.301987 154.95 0.45298 154.05 0.603974 153C1.96291 147 5.28477 141.75 9.96556 138C10.5695 138.3 11.1735 138.6 11.7775 138.75C14.3444 139.8 17.2132 140.4 20.2331 140.4H56.3205C58.5854 140.4 60.5483 139.5 62.0583 138.15C63.7192 136.65 64.9272 134.4 65.0781 132H87.1232C94.8238 132 101.77 135.15 106.601 140.4C111.131 145.2 114 151.65 114 158.85Z" fill="#8D9FD1"/>
<path d="M187.95 153.6L113.7 227.85L107.4 234.15C97.5002 244.05 81.6002 244.05 71.7002 234.15L7.20023 169.65C3.45023 165.9 1.20023 161.1 0.750225 156.15C0.000225425 149.4 2.10023 142.5 7.20023 137.4C7.50023 137.1 7.65023 136.95 7.95023 136.65C8.70023 137.25 9.60023 137.7 10.5002 138.15C11.1002 138.45 11.7002 138.75 12.3002 138.9C14.8502 139.95 17.7002 140.55 20.7002 140.55H35.2502L81.9002 187.5C86.1002 191.7 93.0002 191.7 97.2002 187.5L113.7 171L159.45 125.1L175.35 141L187.95 153.6Z" fill="#8D9FD1"/>
<path d="M235.501 152.1L235.051 152.55C232.951 154.65 229.501 154.65 227.251 152.55L196.051 121.35C193.951 119.25 193.951 115.8 196.051 113.55L196.351 113.25C202.951 114.75 209.251 118.05 214.351 123.15L235.201 144C237.601 146.4 237.601 149.85 235.501 152.1Z" fill="#91BDE5"/>
<path d="M207 172.8L175.8 141.6C173.7 139.5 173.7 136.05 175.8 133.8L176.25 133.35C178.35 131.25 181.8 131.25 184.05 133.35L215.25 164.55C217.35 166.65 217.35 170.1 215.25 172.35L214.8 172.8C212.55 174.9 209.1 174.9 207 172.8Z" fill="#91BDE5"/>
<path d="M200.4 220.65L177 197.25C171.75 192 171.75 183.6 177 178.35L213.75 141.6C219 136.35 227.4 136.35 232.65 141.6L256.05 165C261.3 170.25 261.3 178.65 256.05 183.9L219.3 220.65C214.05 225.75 205.5 225.75 200.4 220.65Z" fill="#91BDE5"/>
<path d="M200.551 216.9V210.75C200.551 206.4 204.151 202.8 208.501 202.8H271.351C275.701 202.8 279.301 206.4 279.301 210.75V216.9C279.301 221.25 275.701 224.85 271.351 224.85H208.501C204.001 224.85 200.551 221.25 200.551 216.9Z" fill="#91BDE5"/>
<path d="M215.251 125.25C215.251 125.85 214.951 126.6 214.501 127.05L208.201 133.35L187.951 153.6L159.601 125.25L161.401 123.45C171.001 113.85 184.351 110.55 196.501 113.4C203.101 114.9 209.401 118.2 214.501 123.3C214.951 123.9 215.251 124.5 215.251 125.25Z" fill="#FCD3C1"/>
<path d="M62.2508 226.2C62.2508 226.5 62.1008 226.95 61.8008 227.25C61.2008 227.85 60.3008 227.85 59.7008 227.25L23.2508 190.8C22.6508 190.2 22.6508 189.3 23.2508 188.7C23.8508 188.1 24.7508 188.1 25.3508 188.7L61.8008 225.15C62.1008 225.45 62.2508 225.75 62.2508 226.2Z" fill="#91BDE5"/>
<path d="M119.849 62.6999C118.799 60.8999 117.299 58.0498 115.949 55.6498C115.799 55.3498 115.649 55.0499 115.499 54.7499C115.499 54.5999 115.349 54.4499 115.349 54.2999C115.199 53.9999 115.199 53.8498 115.049 53.6999C114.899 53.2498 114.599 52.9499 114.449 52.4999C114.299 52.1999 114.149 52.0498 114.149 51.8998C113.999 51.7498 113.999 51.5998 113.849 51.4499C113.699 51.2999 113.699 51.2999 113.699 51.2999V26.8499L99.5994 40.9499L75.2994 65.0999C74.9994 65.5499 74.6994 65.8498 74.2494 66.1498C73.4994 66.5998 72.5994 66.8998 71.6994 66.8998H69.5994C68.9994 66.8998 68.3994 66.7499 67.9494 66.5999C67.7994 66.5999 67.7994 66.4499 67.6494 66.4499C67.4994 66.4499 67.3494 66.2998 67.3494 66.2998C66.8994 65.9998 66.5994 65.6998 66.2994 65.3998C66.1494 65.2498 66.1494 65.2499 65.9994 65.0999C65.9994 65.0999 65.9994 65.0999 65.9994 64.9499C65.9994 64.7999 65.8494 64.7999 65.8494 64.6498C65.8494 64.4998 65.6994 64.3499 65.6994 64.1999C65.6994 64.1999 65.6994 64.0498 65.5494 64.0498C65.5494 64.0498 65.5494 64.0499 65.5494 63.8998C65.5494 63.8998 65.5494 63.8999 65.5494 63.7499C65.5494 63.7499 65.5494 63.7499 65.5494 63.5999C65.5494 63.4499 65.5494 63.4498 65.3994 63.2998V63.1498C65.3994 62.9998 65.3994 62.8499 65.3994 62.8499C65.3994 62.6999 65.3994 62.5498 65.3994 62.5498V57.5999C65.3994 57.2999 65.3994 56.9998 65.2494 56.6999C65.0994 56.0998 64.9494 55.6499 64.6494 55.1999C64.6494 55.0499 64.4994 55.0498 64.4994 54.8998C64.3494 54.7498 64.3494 54.7499 64.1994 54.5999C64.1994 54.5999 64.0494 54.4499 63.8994 54.4499C63.7494 54.2999 63.7494 54.2998 63.5994 54.1498C63.2994 53.9998 62.9994 53.8498 62.6994 53.6999H62.5494C62.3994 53.6999 62.2494 53.5499 62.0994 53.5499C61.9494 53.5499 61.7994 53.5498 61.4994 53.3998C61.3494 53.3998 61.3494 53.3998 61.1994 53.3998C61.0494 53.3998 61.0494 53.3998 60.8994 53.3998H58.7994C56.3994 53.3998 54.4494 55.3499 54.4494 57.7499V59.0999V60.2998V60.4499V60.5999L54.5994 71.2499V77.0999C54.5994 77.3999 54.5994 77.6998 54.5994 78.1498C54.5994 78.2999 54.5994 78.4499 54.5994 78.5999V79.0498C54.5994 79.3498 54.5994 79.7999 54.4494 80.0999C54.4494 80.3999 54.2994 80.6999 54.2994 80.9999C54.2994 81.2999 54.1494 81.5998 54.1494 81.8998C53.9994 82.1998 53.9994 82.4998 53.8494 82.7998C53.8494 83.0998 53.6994 83.3999 53.5494 83.6999C53.3994 83.9999 53.3994 84.2999 53.2494 84.5999C53.2494 84.7499 53.0994 84.8998 53.0994 84.8998C53.0994 85.0499 52.9494 85.1999 52.9494 85.4999C52.7994 85.7999 52.7994 86.0998 52.6494 86.2499C52.6494 86.2499 52.6494 86.2498 52.6494 86.3998C52.4994 86.6998 52.3494 86.9998 52.1994 87.1498C52.0494 87.4498 51.8994 87.5998 51.8994 87.8998C51.7494 88.1998 51.5994 88.4998 51.2994 88.6498C51.1494 88.9498 50.9994 89.0998 50.8494 89.2499C50.6994 89.5499 50.3994 89.8498 50.0994 90.1498C49.9494 90.4498 49.6494 90.7498 49.3494 91.0499C49.0494 91.3498 48.8994 91.4998 48.5994 91.7999L39.1494 101.25L44.9994 108.3L51.1494 115.5L60.5994 126.75L65.2494 132.15C65.2494 132 65.2494 131.85 65.2494 131.7V108.3V108.45L81.7494 108.3H88.9494C90.5994 108.15 92.2494 107.7 93.7494 107.25C103.199 104.4 110.549 96.5999 112.949 86.8499C111.299 86.6999 109.649 86.3998 108.299 85.7998C106.499 85.0498 104.849 83.9998 103.499 82.6498C101.849 80.9998 100.649 79.0499 99.8994 76.6498C99.7494 76.0499 100.049 75.4498 100.499 75.2998C101.099 75.1498 101.699 75.4498 101.849 76.0498C103.049 79.7998 105.749 82.6499 109.199 83.9999C110.549 84.4499 111.899 84.7498 113.399 84.8998C113.399 84.7498 113.399 84.5999 113.399 84.5999C113.399 84.1499 113.549 83.6999 113.549 83.2499C113.549 82.3498 113.699 81.4498 113.699 80.5498V71.0999H116.099C120.299 70.9499 121.949 66.4499 119.849 62.6999ZM107.249 56.6999C107.249 56.8498 107.249 56.8499 107.249 56.9999C107.249 57.1499 107.249 57.1498 107.099 57.2998C107.099 57.2998 107.099 57.4499 106.949 57.4499L106.799 57.5999C106.799 57.5999 106.649 57.5999 106.649 57.7499C106.649 57.7499 106.499 57.7498 106.499 57.8998C106.349 57.8998 106.349 57.8998 106.199 57.8998C105.899 57.8998 105.599 57.7499 105.449 57.5999C105.299 57.4499 105.149 57.2999 105.149 56.9999C105.149 56.9999 105.149 56.8498 105.149 56.6999V51.7499V51.5999V51.4499C105.149 51.4499 105.149 51.2999 105.299 51.2999C105.449 51.2999 105.449 51.1498 105.449 51.1498C105.599 50.9998 105.749 50.9999 105.749 50.8499C105.899 50.8499 106.049 50.6999 106.199 50.6999C106.349 50.6999 106.499 50.6999 106.649 50.8499C106.799 50.8499 106.799 50.9999 106.949 50.9999C106.949 50.9999 107.099 50.9998 107.099 51.1498C107.249 51.2998 107.249 51.2999 107.249 51.4499C107.249 51.5998 107.249 51.7498 107.249 51.8998V56.6999Z" fill="#FCD3C1"/>
</svg>
