<svg width="286" height="273" viewBox="0 0 286 273" fill="none" xmlns="http://www.w3.org/2000/svg">
<path d="M122.5 61.5L115.5 27.5L96.5 29.5L38.5 46.5L23 117L67 132.5L119.5 113L122.5 61.5Z" fill="#205CAA"/>
<path d="M65.65 102.75C65.65 102.6 65.65 102.45 65.5 102.3V102.15V102.3C65.65 102.45 65.65 102.6 65.65 102.75Z" fill="#205CAA"/>
<path d="M91.5991 105.15L91.4491 105.3C91.2991 105.3 91.2991 105.15 91.5991 105.15Z" fill="#205CAA"/>
<path d="M105.851 57.0002C105.851 57.0002 105.851 56.8502 105.851 56.7002V51.7502V51.6002V51.4502L106.001 51.3002L106.151 51.1502C106.301 51.0002 106.451 51.0002 106.451 50.8502C106.601 50.8502 106.751 50.7002 106.901 50.7002C107.051 50.7002 107.201 50.7002 107.351 50.8502C107.501 50.8502 107.501 51.0002 107.651 51.0002C107.651 51.0002 107.801 51.0002 107.801 51.1502C107.951 51.3002 107.951 51.3002 107.951 51.4502C107.951 51.6002 108.101 51.7502 108.101 51.9002V56.8502C108.101 57.0002 108.101 57.0002 108.101 57.1502C108.101 57.3002 108.101 57.3002 107.951 57.4502C107.951 57.4502 107.951 57.6002 107.801 57.6002L107.651 57.7502C107.651 57.7502 107.501 57.7502 107.501 57.9002C107.501 57.9002 107.351 57.9002 107.351 58.0502C107.201 58.0502 107.201 58.0502 107.051 58.0502C106.751 58.0502 106.451 57.9002 106.151 57.7502C106.151 57.3002 106.001 57.1502 105.851 57.0002Z" fill="#205CAA"/>
<path d="M114.25 84.9003C114.25 85.0503 114.25 85.2003 114.25 85.2003C114.25 85.5003 114.25 85.6503 114.1 85.9503C113.95 86.2503 113.95 86.5503 113.95 87.0003C112.3 86.8503 110.65 86.5503 109.3 85.9503C107.5 85.2003 105.85 84.1503 104.5 82.8003C102.85 81.1503 101.65 79.2003 100.9 76.8003C100.75 76.2003 101.05 75.6003 101.65 75.4503C102.25 75.3003 102.85 75.6003 103 76.2003C104.2 79.9503 106.9 82.8003 110.35 84.1503C111.4 84.4503 112.9 84.7503 114.25 84.9003Z" fill="#205CAA"/>
<path d="M92.65 128.85L92.5 129C92.5 129 92.5 128.85 92.65 128.85Z" fill="#205CAA"/>
<path d="M107.35 140.7C106.9 140.7 106.6 140.7 106.15 140.7H70.45C67.75 140.7 65.2 139.95 63.25 138.45C64.9 136.95 66.1 134.7 66.25 132.3C66.25 132.15 66.25 132 66.25 131.85V108.3V132.3H88C95.5 132.45 102.4 135.6 107.35 140.7Z" fill="#205CAA"/>
<path d="M47.8016 80.5498L47.3516 80.0999C47.5016 80.3999 47.6516 80.3998 47.8016 80.5498Z" fill="#205CAA"/>
<path d="M92.65 128.85L92.5 129C92.5 129 92.5 128.85 92.65 128.85Z" fill="#205CAA"/>
<path d="M92.65 128.85L92.5 129C92.5 129 92.5 128.85 92.65 128.85Z" fill="#FCD3C1"/>
<path d="M92.65 128.85L92.5 129C92.5 129 92.5 128.85 92.65 128.85Z" fill="#FCD3C1"/>
<path d="M47.8016 80.5498L47.3516 80.0999C47.5016 80.3999 47.6516 80.3998 47.8016 80.5498Z" fill="#205CAA"/>
<path d="M68.9506 132.45C68.5006 134.25 67.4506 135.9 66.1006 137.25V108.3V132.3H68.9506V132.45Z" fill="#205CAA"/>
<path d="M47.8016 80.5498L47.3516 80.0999C47.5016 80.3999 47.6516 80.3998 47.8016 80.5498Z" fill="#205CAA"/>
<path d="M91.6001 105.15L91.4501 105.3C91.3001 105.3 91.3001 105.15 91.6001 105.15Z" fill="#205CAA"/>
<path d="M108.101 51.3003C108.101 51.1503 107.951 51.0003 107.951 51.0003C107.951 51.0003 107.951 50.8503 107.801 50.8503C107.651 50.7003 107.651 50.7003 107.501 50.7003C107.351 50.7003 107.201 50.5503 107.051 50.5503C106.901 50.5503 106.751 50.5503 106.601 50.7003C106.451 50.7003 106.301 50.8503 106.301 51.0003L106.151 51.1503L106.001 51.3003V51.4503V51.6003V56.5503C106.001 56.7003 106.001 56.7003 106.001 56.8503C106.001 57.1503 106.151 57.3003 106.301 57.4503C106.451 57.6003 106.751 57.7503 107.201 57.7503C107.351 57.7503 107.351 57.7503 107.501 57.7503C107.651 57.7503 107.651 57.7503 107.651 57.6003C107.651 57.6003 107.801 57.6003 107.801 57.4503L107.951 57.3003C107.951 57.3003 107.951 57.1503 108.101 57.1503C108.101 57.0003 108.101 57.0003 108.251 56.8503C108.251 56.7003 108.251 56.7003 108.251 56.5503V51.6003C108.251 51.6003 108.251 51.4503 108.101 51.3003ZM91.451 105.15C91.301 105.15 91.301 105.3 91.451 105.15V105.15ZM110.051 84.0003C106.601 82.6503 103.901 79.8003 102.701 76.0503C102.551 75.4503 101.951 75.1503 101.351 75.3003C100.751 75.4503 100.451 76.0503 100.601 76.6503C101.351 79.0503 102.551 81.0003 104.201 82.6503C105.551 84.0003 107.201 85.0503 109.001 85.8003C110.501 86.4003 112.001 86.7003 113.651 86.8503C113.651 86.5503 113.801 86.1003 113.801 85.8003C113.801 85.6503 113.951 85.3503 113.951 85.0503C113.951 84.9003 113.951 84.7503 113.951 84.7503C112.901 84.7503 111.401 84.4503 110.051 84.0003ZM106.301 57.6003C106.451 57.7503 106.751 57.9003 107.201 57.9003C107.351 57.9003 107.351 57.9003 107.501 57.9003C107.651 57.9003 107.651 57.9003 107.651 57.7503C107.651 57.7503 107.801 57.7503 107.801 57.6003L107.951 57.4503C107.951 57.4503 107.951 57.3003 108.101 57.3003C108.101 57.1503 108.101 57.1503 108.251 57.0003C108.251 56.8503 108.251 56.8503 108.251 56.7003V51.7503C108.251 51.6003 108.251 51.4503 108.101 51.3003C108.101 51.1503 107.951 51.0003 107.951 51.0003C107.951 51.0003 107.951 50.8503 107.801 50.8503C107.651 50.7003 107.651 50.7003 107.501 50.7003C107.351 50.7003 107.201 50.5503 107.051 50.5503C106.901 50.5503 106.751 50.5503 106.601 50.7003C106.451 50.7003 106.301 50.8503 106.301 51.0003L106.151 51.1503L106.001 51.3003V51.4503V51.6003V56.5503C106.001 56.7003 106.001 56.7003 106.001 56.8503C106.001 57.1503 106.151 57.3003 106.301 57.6003ZM66.101 108.3V108.45V108.3ZM65.501 102.3V102.15C65.501 102.15 65.501 102.3 65.501 102.3C65.501 102.45 65.501 102.6 65.501 102.75C65.651 102.6 65.651 102.45 65.501 102.3Z" fill="#FCD3C1"/>
<path d="M108.25 51.75V56.7C108.25 56.85 108.25 56.85 108.25 57C108.25 57.15 108.25 57.15 108.1 57.3C108.1 57.3 108.1 57.4501 107.95 57.4501L107.8 57.6C107.8 57.6 107.65 57.6 107.65 57.75C107.65 57.75 107.5 57.75 107.5 57.9C107.35 57.9 107.35 57.9 107.2 57.9C106.9 57.9 106.6 57.7501 106.3 57.6C106.15 57.45 106 57.3 106 57C106 57 106 56.85 106 56.7V51.75V51.6V51.45C106 51.3 106 51.3 106.15 51.15L106.3 51C106.45 50.85 106.6 50.85 106.6 50.7C106.75 50.7 106.9 50.55 107.05 50.55C107.2 50.55 107.35 50.55 107.5 50.7C107.65 50.7 107.65 50.85 107.8 50.85C107.8 50.85 107.95 50.85 107.95 51C108.1 51.15 108.1 51.15 108.1 51.3C108.25 51.45 108.25 51.6 108.25 51.75Z" fill="#205CAA"/>
<path d="M114.25 84.8998C114.25 85.0498 114.25 85.1998 114.25 85.1998C114.25 85.4998 114.25 85.6498 114.1 85.9498C113.95 86.2498 113.95 86.5498 113.95 86.9998C112.3 86.8498 110.65 86.5498 109.3 85.9498C107.5 85.1998 105.85 84.1498 104.5 82.7998C102.85 81.1498 101.65 79.1998 100.9 76.7998C100.75 76.1998 101.05 75.5998 101.65 75.4498C102.25 75.2998 102.85 75.5998 103 76.1998C104.2 79.9498 106.9 82.7998 110.35 84.1498C111.4 84.4498 112.9 84.7498 114.25 84.8998Z" fill="#205CAA"/>
<path d="M66.2506 108.3V132.45H66.1006C66.1006 132.3 66.1006 132.15 66.1006 132L66.2506 108.3Z" fill="#FCD3C1"/>
<path d="M66.2502 132.45C66.1002 132.45 66.1002 132.45 66.2502 132.45C66.1002 132.3 66.1002 132.3 66.2502 132.45Z" fill="#205CAA"/>
<path d="M108.102 51.3C108.102 51.45 108.252 51.6 108.252 51.75V56.7C108.252 56.85 108.252 56.85 108.252 57C108.252 57.15 108.252 57.15 108.102 57.3C108.102 57.3 108.102 57.4501 107.952 57.4501L107.802 57.6C107.802 57.45 107.652 57.45 107.652 57.3C107.502 57.15 107.352 57 107.202 56.7C107.052 56.55 106.902 56.2501 106.752 56.1C106.452 55.8 106.152 55.35 105.852 55.05V51.6V51.45V51.3L106.002 51.15L106.152 51C106.302 50.85 106.452 50.85 106.452 50.7C106.602 50.7 106.752 50.55 106.902 50.55C107.052 50.55 107.202 50.55 107.352 50.7C107.502 50.7 107.502 50.85 107.652 50.85C107.652 50.85 107.802 50.85 107.802 51C107.952 51 108.102 51.15 108.102 51.3Z" fill="#205CAA"/>
<path d="M114.251 84.9002C114.251 85.0502 114.251 85.2002 114.251 85.2002C114.251 85.5002 114.251 85.6502 114.101 85.9502C114.101 86.2502 113.951 86.5502 113.951 87.0002C112.301 86.8502 110.651 86.5502 109.301 85.9502C109.601 85.3502 109.901 84.7502 110.201 84.0002C111.401 84.4502 112.901 84.7502 114.251 84.9002Z" fill="#205CAA"/>
<path d="M126.7 60.6C126.25 28.2 100.75 1.8 68.5 0H65.95C65.2 0 64.6 5.69969e-07 64 0.150001C63.4 0.150001 62.65 0 62.05 0H59.5C26.95 1.8 1.45 28.2 1 60.6C1 61.05 1 61.5 1 61.95V121.95C1 127.95 4.15 133.35 8.95 136.8C9.7 137.4 10.6 137.85 11.5 138.3C12.1 138.6 12.7 138.9 13.3 139.05C15.85 140.1 18.7 140.7 21.7 140.7H57.55C59.8 140.7 61.75 139.8 63.25 138.45C64.9 136.95 66.1 134.7 66.25 132.3L61.6 126.9L52.15 115.65L46 108.3L40.15 101.25L49.6 91.8C49.9 91.5 50.05 91.35 50.35 91.05C50.65 90.75 50.95 90.45 51.1 90.15C51.4 89.85 51.55 89.55 51.85 89.25C52 89.1 52.15 88.8 52.3 88.65C52.45 88.35 52.6 88.05 52.9 87.9C53.05 87.6 53.2 87.45 53.2 87.15C53.35 86.85 53.5 86.55 53.65 86.4C53.65 86.4 53.65 86.4 53.65 86.25C53.8 85.95 53.95 85.65 53.95 85.5C53.95 85.35 54.1 85.2 54.1 84.9C54.1 84.75 54.25 84.6 54.25 84.6C54.4 84.3 54.4 84 54.55 83.7C54.7 83.4 54.7 83.1 54.85 82.8C55 82.5 55 82.2 55.15 81.9C55.15 81.6 55.3 81.3 55.3 81C55.3 80.7 55.45 80.4 55.45 80.1C55.45 79.8 55.45 79.35 55.6 79.05V78.6C55.6 78.45 55.6 78.3 55.6 78.15C55.6 77.85 55.6 77.55 55.6 77.1V71.25L55.45 60.6V60.45V60.3V59.1V57.75C55.45 55.35 57.4 53.4 59.8 53.4H61.9C62.05 53.4 62.05 53.4 62.2 53.4C62.35 53.4 62.35 53.4 62.5 53.4C62.65 53.4 62.8 53.4 63.1 53.55C63.25 53.55 63.4 53.55 63.55 53.7H63.7C64 53.85 64.3 54 64.6 54.15C64.75 54.15 64.75 54.3 64.9 54.45C65.05 54.45 65.05 54.6 65.2 54.6C65.35 54.75 65.35 54.75 65.5 54.9C65.5 55.05 65.65 55.05 65.65 55.2C65.95 55.65 66.25 56.1 66.25 56.7C66.4 57 66.4 57.3 66.4 57.6V62.55C66.4 62.7 66.4 62.85 66.4 62.85C66.4 63 66.4 63.15 66.4 63.15V63.3C66.4 63.45 66.4 63.45 66.55 63.6V63.75C66.55 63.75 66.55 63.75 66.55 63.9V64.05C66.55 64.05 66.55 64.2 66.7 64.2C66.7 64.35 66.85 64.5 66.85 64.65C66.85 64.8 67 64.8 67 64.95C67 64.95 67 64.95 67 65.1C67 65.25 67.15 65.4 67.3 65.4C67.6 65.7 67.9 66 68.35 66.3C68.5 66.3 68.65 66.45 68.65 66.45C68.8 66.45 68.8 66.6 68.95 66.6C69.55 66.9 70 66.9 70.6 66.9H72.7C73.6 66.9 74.5 66.6 75.25 66.15C75.7 65.85 76 65.55 76.3 65.1L100.45 40.95L114.55 26.85V51.15C114.55 51.15 114.55 51.15 114.7 51.3C114.7 51.45 114.85 51.6 115 51.75C115.15 51.9 115.15 52.2 115.3 52.35C115.45 52.65 115.6 53.1 115.9 53.55C116.05 53.7 116.05 54 116.2 54.15C116.2 54.3 116.35 54.45 116.35 54.6C116.5 54.9 116.65 55.2 116.8 55.5C118.15 57.9 119.65 60.9 120.7 62.55C122.8 66.3 121.15 70.8 116.95 70.8H114.55V80.25C114.55 81.15 114.55 82.05 114.4 82.95C114.4 83.4 114.25 83.85 114.25 84.3C114.25 84.45 114.25 84.6 114.25 84.6C114.25 84.75 114.25 84.9 114.25 84.9C114.25 85.2 114.25 85.35 114.1 85.65C114.1 85.95 113.95 86.25 113.95 86.7C111.7 96.45 104.35 104.25 94.75 107.1C93.25 107.55 91.6 107.85 89.95 108.15H68.95H68.8H68.65C68.65 108.15 68.65 108.15 68.5 108.15L66.1 108.3V132.15H88C95.65 132.15 102.55 135.3 107.35 140.55C118.15 139.95 126.7 131.85 126.7 121.8V61.35C126.7 61.2 126.7 60.9 126.7 60.6Z" fill="#205CAA"/>
<path d="M115 158.85V273H25.7629C12.1735 273 1 262.05 1 248.4V158.85C1 158.7 1 158.55 1 158.25C1 157.5 1 156.75 1.15099 156C1.30199 154.95 1.45298 154.05 1.60397 153C2.96291 147 6.28477 141.75 10.9656 138C11.5695 138.3 12.1735 138.6 12.7775 138.75C15.3444 139.8 18.2132 140.4 21.2331 140.4H57.3205C59.5854 140.4 61.5483 139.5 63.0583 138.15C64.7192 136.65 65.9272 134.4 66.0781 132H88.1232C95.8238 132 102.77 135.15 107.601 140.4C112.131 145.2 115 151.65 115 158.85Z" fill="#8D9FD1"/>
<path d="M188.937 150.137L120.354 229.65L114.535 236.397C105.39 246.999 89.5332 248.169 78.9314 239.025L9.85885 179.447C5.84301 175.983 3.24581 171.362 2.43269 166.458C1.1879 159.782 2.77433 152.746 7.48512 147.284C7.76222 146.963 7.90078 146.803 8.17788 146.481C8.97001 147.024 9.90069 147.407 10.8314 147.79C11.4518 148.045 12.0723 148.3 12.6817 148.405C15.3021 149.264 18.1885 149.653 21.1804 149.432L35.6909 148.361L85.6701 191.75C90.1678 195.63 97.0491 195.122 100.929 190.624L116.169 172.954L158.417 123.812L175.444 138.498L188.937 150.137Z" fill="#8D9FD1"/>
<path d="M236.248 145.141L235.832 145.622C233.892 147.871 230.452 148.125 228.053 146.197L194.642 117.378C192.393 115.438 192.139 111.997 194.067 109.599L194.345 109.278C201.037 110.288 207.563 113.115 213.024 117.826L235.352 137.085C237.923 139.301 238.177 142.742 236.248 145.141Z" fill="#91BDE5"/>
<path d="M209.348 167.882L175.936 139.064C173.688 137.124 173.434 133.683 175.362 131.285L175.778 130.803C177.718 128.554 181.158 128.3 183.557 130.229L216.969 159.048C219.218 160.987 219.471 164.428 217.543 166.826L217.127 167.308C215.038 169.568 211.597 169.822 209.348 167.882Z" fill="#91BDE5"/>
<path d="M206.289 216.088L181.23 194.474C175.608 189.624 174.989 181.247 179.839 175.625L213.784 136.27C218.633 130.648 227.011 130.029 232.633 134.879L257.692 156.493C263.314 161.342 263.932 169.719 259.083 175.342L225.137 214.697C220.277 220.169 211.75 220.799 206.289 216.088Z" fill="#91BDE5"/>
<path d="M206.163 212.337L205.71 206.204C205.39 201.866 208.715 198.011 213.053 197.69L275.733 193.064C280.071 192.744 283.926 196.07 284.247 200.408L284.699 206.541C285.019 210.879 281.694 214.734 277.356 215.055L214.676 219.681C210.189 220.012 206.483 216.676 206.163 212.337Z" fill="#91BDE5"/>
<path d="M214.077 119.854C214.121 120.452 213.877 121.222 213.461 121.704L207.642 128.451L188.938 150.137L158.578 123.95L160.24 122.023C169.108 111.742 182.179 107.468 194.505 109.416C201.198 110.426 207.724 113.254 213.185 117.965C213.678 118.53 214.022 119.106 214.077 119.854Z" fill="#FCD3C1"/>
<path d="M64.6288 224.585C64.6525 224.884 64.5385 225.344 64.2631 225.667C63.7124 226.312 62.8152 226.383 62.1697 225.833L22.9538 192.377C22.3082 191.826 22.2371 190.929 22.7879 190.283C23.3386 189.638 24.2358 189.567 24.8813 190.117L64.0972 223.573C64.42 223.849 64.5932 224.136 64.6288 224.585Z" fill="#91BDE5"/>
<path d="M120.849 62.6999C119.799 60.8999 118.299 58.0498 116.949 55.6498C116.799 55.3498 116.649 55.0499 116.499 54.7499C116.499 54.5999 116.349 54.4499 116.349 54.2999C116.199 53.9999 116.199 53.8498 116.049 53.6999C115.899 53.2498 115.599 52.9499 115.449 52.4999C115.299 52.1999 115.149 52.0498 115.149 51.8998C114.999 51.7498 114.999 51.5998 114.849 51.4499C114.699 51.2999 114.699 51.2999 114.699 51.2999V26.8499L100.599 40.9499L76.2994 65.0999C75.9994 65.5499 75.6994 65.8498 75.2494 66.1498C74.4994 66.5998 73.5994 66.8998 72.6994 66.8998H70.5994C69.9994 66.8998 69.3994 66.7499 68.9494 66.5999C68.7994 66.5999 68.7994 66.4499 68.6494 66.4499C68.4994 66.4499 68.3494 66.2998 68.3494 66.2998C67.8994 65.9998 67.5994 65.6998 67.2994 65.3998C67.1494 65.2498 67.1494 65.2499 66.9994 65.0999C66.9994 65.0999 66.9994 65.0999 66.9994 64.9499C66.9994 64.7999 66.8494 64.7999 66.8494 64.6498C66.8494 64.4998 66.6994 64.3499 66.6994 64.1999C66.6994 64.1999 66.6994 64.0498 66.5494 64.0498C66.5494 64.0498 66.5494 64.0499 66.5494 63.8998C66.5494 63.8998 66.5494 63.8999 66.5494 63.7499C66.5494 63.7499 66.5494 63.7499 66.5494 63.5999C66.5494 63.4499 66.5494 63.4498 66.3994 63.2998V63.1498C66.3994 62.9998 66.3994 62.8499 66.3994 62.8499C66.3994 62.6999 66.3994 62.5498 66.3994 62.5498V57.5999C66.3994 57.2999 66.3994 56.9998 66.2494 56.6999C66.0994 56.0998 65.9494 55.6499 65.6494 55.1999C65.6494 55.0499 65.4994 55.0498 65.4994 54.8998C65.3494 54.7498 65.3494 54.7499 65.1994 54.5999C65.1994 54.5999 65.0494 54.4499 64.8994 54.4499C64.7494 54.2999 64.7494 54.2998 64.5994 54.1498C64.2994 53.9998 63.9994 53.8498 63.6994 53.6999H63.5494C63.3994 53.6999 63.2494 53.5499 63.0994 53.5499C62.9494 53.5499 62.7994 53.5498 62.4994 53.3998C62.3494 53.3998 62.3494 53.3998 62.1994 53.3998C62.0494 53.3998 62.0494 53.3998 61.8994 53.3998H59.7994C57.3994 53.3998 55.4494 55.3499 55.4494 57.7499V59.0999V60.2998V60.4499V60.5999L55.5994 71.2499V77.0999C55.5994 77.3999 55.5994 77.6998 55.5994 78.1498C55.5994 78.2999 55.5994 78.4499 55.5994 78.5999V79.0498C55.5994 79.3498 55.5994 79.7999 55.4494 80.0999C55.4494 80.3999 55.2994 80.6999 55.2994 80.9999C55.2994 81.2999 55.1494 81.5998 55.1494 81.8998C54.9994 82.1998 54.9994 82.4998 54.8494 82.7998C54.8494 83.0998 54.6994 83.3999 54.5494 83.6999C54.3994 83.9999 54.3994 84.2999 54.2494 84.5999C54.2494 84.7499 54.0994 84.8998 54.0994 84.8998C54.0994 85.0499 53.9494 85.1999 53.9494 85.4999C53.7994 85.7999 53.7994 86.0998 53.6494 86.2499C53.6494 86.2499 53.6494 86.2498 53.6494 86.3998C53.4994 86.6998 53.3494 86.9998 53.1994 87.1498C53.0494 87.4498 52.8994 87.5998 52.8994 87.8998C52.7494 88.1998 52.5994 88.4998 52.2994 88.6498C52.1494 88.9498 51.9994 89.0998 51.8494 89.2499C51.6994 89.5499 51.3994 89.8498 51.0994 90.1498C50.9494 90.4498 50.6494 90.7499 50.3494 91.0499C50.0494 91.3499 49.8994 91.4998 49.5994 91.7999L40.1494 101.25L45.9994 108.3L52.1494 115.5L61.5994 126.75L66.2494 132.15C66.2494 132 66.2494 131.85 66.2494 131.7V108.3V108.45L82.7494 108.3H89.9494C91.5994 108.15 93.2494 107.7 94.7494 107.25C104.199 104.4 111.549 96.5999 113.949 86.8499C112.299 86.6999 110.649 86.3998 109.299 85.7998C107.499 85.0498 105.849 83.9998 104.499 82.6498C102.849 80.9998 101.649 79.0499 100.899 76.6498C100.749 76.0499 101.049 75.4498 101.499 75.2998C102.099 75.1498 102.699 75.4498 102.849 76.0498C104.049 79.7998 106.749 82.6499 110.199 83.9999C111.549 84.4499 112.899 84.7498 114.399 84.8998C114.399 84.7498 114.399 84.5999 114.399 84.5999C114.399 84.1499 114.549 83.6999 114.549 83.2499C114.549 82.3498 114.699 81.4498 114.699 80.5498V71.0999H117.099C121.299 70.9499 122.949 66.4499 120.849 62.6999ZM108.249 56.6999C108.249 56.8498 108.249 56.8499 108.249 56.9999C108.249 57.1499 108.249 57.1498 108.099 57.2998C108.099 57.2998 108.099 57.4499 107.949 57.4499L107.799 57.5999C107.799 57.5999 107.649 57.5999 107.649 57.7499C107.649 57.7499 107.499 57.7498 107.499 57.8998C107.349 57.8998 107.349 57.8998 107.199 57.8998C106.899 57.8998 106.599 57.7499 106.449 57.5999C106.299 57.4499 106.149 57.2999 106.149 56.9999C106.149 56.9999 106.149 56.8498 106.149 56.6999V51.7499V51.5999V51.4499C106.149 51.4499 106.149 51.2999 106.299 51.2999C106.449 51.2999 106.449 51.1498 106.449 51.1498C106.599 50.9998 106.749 50.9999 106.749 50.8499C106.899 50.8499 107.049 50.6999 107.199 50.6999C107.349 50.6999 107.499 50.6999 107.649 50.8499C107.799 50.8499 107.799 50.9999 107.949 50.9999C107.949 50.9999 108.099 50.9998 108.099 51.1498C108.249 51.2998 108.249 51.2999 108.249 51.4499C108.249 51.5998 108.249 51.7498 108.249 51.8998V56.6999Z" fill="#FCD3C1"/>
</svg>
