<svg width="361" height="184" viewBox="0 0 361 184" fill="none" xmlns="http://www.w3.org/2000/svg">
<path d="M17.65 48H343.9C353.05 48 360.55 40.5 360.55 31.35V16.65C360.55 7.50001 353.05 0 343.9 0H17.65C8.5 0 1 7.50001 1 16.65V31.35C1 40.5 8.5 48 17.65 48Z" fill="#FCD3C1"/>
<path d="M17.1002 184H343.35C352.5 184 360 176.5 360 167.35V152.65C360 143.5 352.5 136 343.35 136H17.1002C7.95019 136 0.450195 143.5 0.450195 152.65V167.35C0.450195 176.5 7.95019 184 17.1002 184Z" fill="#FCD3C1"/>
<path d="M17.65 115H343.9C353.05 115 360.55 107.5 360.55 98.35V83.65C360.55 74.5 353.05 67 343.9 67H17.65C8.5 67 1 74.5 1 83.65V98.35C1 107.5 8.5 115 17.65 115Z" fill="#FCD3C1"/>
</svg>
