<svg width="68" height="87" viewBox="0 0 68 87" fill="none" xmlns="http://www.w3.org/2000/svg">
<path d="M31.2415 22.7228L18.1675 9.63992C16.9806 8.45221 16.9806 6.54467 18.1675 5.35696L22.0519 1.46989C23.2388 0.282173 25.1451 0.282173 26.332 1.46989L39.4239 14.5707C40.6108 15.7585 40.6108 17.666 39.4239 18.8537L35.5395 22.7408C34.3346 23.9105 32.4284 23.9105 31.2415 22.7228Z" fill="#FCD3C1"/>
<path d="M35.948 22.7228L49.0219 9.63992C50.2088 8.45221 50.2088 6.54467 49.0219 5.35696L45.1375 1.46989C43.9506 0.282173 42.0444 0.282173 40.8575 1.46989L27.7656 14.5707C26.5787 15.7585 26.5787 17.666 27.7656 18.8537L31.65 22.7408C32.8549 23.9105 34.7611 23.9105 35.948 22.7228Z" fill="#FCD3C1"/>
<path d="M67.8624 23.98H0V86.1792H67.7664V23.98H67.8624Z" fill="#8D9FD1"/>
<rect x="26.876" y="23.6157" width="14.398" height="62.3911" fill="#FCD3C1"/>
</svg>
