<svg width="375" height="506" viewBox="0 0 375 506" fill="none" xmlns="http://www.w3.org/2000/svg">
<path d="M296.253 479.658L260.781 348.332C258.265 338.942 263.885 329.187 273.258 326.676L288.315 322.641C297.688 320.13 307.433 325.768 309.949 335.158L345.422 466.483C347.938 475.873 342.317 485.628 332.945 488.14L317.887 492.175C308.514 494.686 298.769 489.048 296.253 479.658Z" fill="#91BDE5"/>
<rect width="68" height="31" rx="10" transform="matrix(-1 0 0 1 375 469)" fill="#FCFCFC"/>
<path d="M146.279 294.274L282.311 294C292.032 294 300 301.954 300 311.657L300 327.246C300 336.949 292.032 344.903 282.311 344.903L146.279 345.177C136.558 345.177 128.59 337.224 128.59 327.52L128.59 311.931C128.59 302.228 136.558 294.274 146.279 294.274Z" fill="#91BDE5"/>
<path d="M267.253 492.658L231.781 361.332C229.265 351.942 234.885 342.187 244.258 339.676L259.315 335.641C268.688 333.13 278.433 338.768 280.949 348.158L316.422 479.483C318.938 488.873 313.317 498.628 303.945 501.14L288.887 505.175C279.514 507.686 269.769 502.048 267.253 492.658Z" fill="#FCD3C1"/>
<path d="M35.8952 478.803L97.2531 257.609C99.7692 248.219 109.514 242.581 118.887 245.092L133.945 249.127C143.317 251.638 148.938 261.394 146.422 270.784L85.0637 491.978C82.5477 501.368 72.8027 507.006 63.43 504.495L48.3721 500.46C38.9993 497.948 33.3791 488.193 35.8952 478.803Z" fill="#FCD3C1"/>
<path d="M267.035 220.429C267.771 221.132 270.04 223.356 270.04 223.356C270.408 223.707 270.898 224 271.328 224C271.88 224 272.37 223.707 272.799 223.356C273.964 222.42 274.946 221.483 275.988 220.429C277.337 219.083 277.337 217.034 275.988 215.746C274.946 214.751 273.229 214.751 271.941 215.746C271.573 216.039 271.266 216.098 270.898 215.746C269.795 214.751 268.139 214.751 267.035 215.746C265.625 217.034 265.686 219.083 267.035 220.429Z" fill="#F37972"/>
<path d="M130.726 64.8111V179.932H173.272L174.013 183.483L175.051 188.07H257.326C265.035 188.07 271.409 181.856 271.409 174.013V64.8111C271.409 49.1262 265.628 33.8852 255.251 22.0476C249.024 15.093 241.612 9.47011 233.162 5.77085C224.861 2.07159 215.67 0 206.33 0H195.657C176.978 0 159.189 7.9904 146.884 22.0476C136.359 33.8852 130.726 49.1262 130.726 64.8111Z" fill="#205CAA"/>
<path d="M172.531 188.07H174.903L174.014 183.483L172.531 188.07Z" fill="#205CAA"/>
<path d="M95.8884 215.593V294.757C95.8884 296.089 95.8884 297.42 96.0366 298.604V298.752C96.3331 302.599 97.0744 306.299 98.1121 309.85C104.635 331.158 124.351 346.547 147.774 346.547H198.028V250.218L175.792 242.671L172.382 241.488L152.814 234.829L139.917 230.538L132.208 227.874L128.799 226.691L99.1498 216.629L95.8884 215.593Z" fill="#91BDE5"/>
<path d="M153.406 69.6945C151.478 71.6181 151.478 74.8735 153.406 76.7971L155.036 78.4248C156.963 80.3484 160.225 80.3484 162.152 78.4248L154.74 85.8233C152.813 87.7469 152.813 91.0023 154.74 92.9259L156.37 94.5536C158.298 96.4772 161.559 96.4772 163.486 94.5536L161.559 96.4772L169.268 104.172C181.868 116.749 202.178 116.749 214.63 104.172L222.339 96.4772L224.266 98.4008C227.676 101.804 232.716 99.4366 234.05 94.7015C235.236 90.2624 238.497 80.3484 238.497 80.3484L258.214 60.6683L235.829 38.3248C231.53 34.0337 224.414 34.0337 220.115 38.3248L199.065 59.3366C197.137 61.2602 193.876 61.2602 191.949 59.3366L190.318 57.7089C188.391 55.7853 188.391 52.53 190.318 50.6063L194.321 46.6111C196.248 44.6875 196.248 41.4322 194.321 39.5086L192.69 37.8809C190.763 35.9573 187.502 35.9573 185.574 37.8809L171.047 52.382C169.119 54.3056 165.858 54.3056 163.931 52.382L158.298 46.7591L153.406 69.6945Z" fill="#FCD3C1"/>
<path d="M95.888 166.319V170.758C96.0362 188.81 98.7046 205.235 98.7046 215.593C98.7046 250.662 148.366 241.488 148.366 241.488L200.993 160.548L201.438 159.956C201.438 159.956 201.289 159.808 200.993 159.66C200.4 159.216 199.066 158.476 197.435 157.292C190.023 152.113 174.161 139.98 168.083 126.071C166.304 121.927 165.414 117.784 165.711 113.493C167.045 96.4765 200.993 76.7964 200.993 76.7964C161.412 76.7964 128.205 89.8178 112.788 109.942C108.933 114.973 105.672 120.448 103.3 126.219C97.9634 138.944 96.1844 153.001 95.888 166.319Z" fill="#FCD3C1"/>
<path d="M198.177 346.546C158.059 346.546 125.538 314.084 125.538 274.041C125.538 233.997 158.059 201.535 198.177 201.535C238.295 201.535 270.816 233.997 270.816 274.041C270.816 314.084 238.295 346.546 198.177 346.546Z" fill="#91BDE5"/>
<path d="M204.551 209.674C217.448 195.025 215.966 172.829 201.29 159.956C186.614 147.083 164.377 148.562 151.48 163.211C138.583 177.861 140.065 200.056 154.741 212.929C156.372 214.409 158.151 215.593 159.93 216.777C161.857 217.369 163.784 218.256 165.563 219.44C179.053 224.323 194.619 220.92 204.551 209.674Z" fill="#91BDE5"/>
<path d="M226.788 79.7557C227.233 80.1996 228.123 80.1996 228.716 79.7557L232.718 75.7605C233.163 75.3165 233.163 74.4287 232.718 73.8368C232.273 73.3929 231.384 73.3929 230.791 73.8368L226.788 77.832C226.195 78.4239 226.195 79.3117 226.788 79.7557Z" fill="#205CAA"/>
<path d="M195.508 60.816H258.66L227.677 29.7422L195.508 60.816Z" fill="#205CAA"/>
<path d="M170.751 52.2331L130.725 94.4047L148.959 40.3955L170.751 52.2331Z" fill="#205CAA"/>
<path d="M95.8884 166.319V257.173H200.993V159.808C200.4 159.364 199.066 158.624 197.435 157.441C190.023 152.262 174.309 140.128 168.38 126.219H103.301C97.9638 138.944 96.1849 153.001 95.8884 166.319Z" fill="#91BDE5"/>
<path d="M130.725 94.405C130.725 94.405 170.751 95.1448 170.751 52.3813H135.469L130.725 94.405Z" fill="#205CAA"/>
<path d="M130.725 253.473C130.132 274.041 146.736 290.91 167.342 290.91H220.857C229.159 290.91 235.83 284.251 235.83 275.965C235.83 269.898 232.124 264.571 226.787 262.203H226.935C229.456 262.203 231.383 260.132 231.383 257.764C231.383 255.249 229.307 253.325 226.935 253.325L130.725 253.473Z" fill="#FCD3C1"/>
<path d="M209.74 88.1904C206.627 93.9613 207.665 101.36 212.557 106.243C217.449 111.126 224.861 112.014 230.643 109.054" stroke="#205CAA" stroke-width="2.9919" stroke-miterlimit="10" stroke-linecap="round"/>
<path d="M170.159 60.8158C170.159 60.8158 169.714 53.4173 185.28 37.8804C200.845 22.3435 174.162 37.8804 174.162 37.8804L165.119 50.6058L170.159 60.8158Z" fill="#205CAA"/>
<path d="M129.54 246.963C129.836 247.259 130.281 247.407 130.726 247.407C131.615 247.407 132.505 246.667 132.505 245.631V185.259C132.505 184.371 131.764 183.483 130.726 183.483C129.837 183.483 128.947 184.223 128.947 185.259V245.631C128.947 246.223 129.095 246.667 129.54 246.963Z" fill="#8D9FD1"/>
<path d="M172.975 246.963C173.271 247.259 173.716 247.407 174.161 247.407C175.05 247.407 175.939 246.667 175.939 245.631V205.679C175.939 204.791 175.198 203.903 174.161 203.903C173.271 203.903 172.382 204.643 172.382 205.679V245.631C172.53 246.223 172.678 246.667 172.975 246.963Z" fill="#8D9FD1"/>
<path d="M351.31 358H44.6896C34.9683 358 27 350.046 27 340.343V324.754C27 315.05 34.9683 307.097 44.6896 307.097H351.31C361.032 307.097 369 315.05 369 324.754V340.343C369 350.046 361.032 358 351.31 358Z" fill="#FCD3C1"/>
<path d="M59.0001 332.5L1.54061 110.261C-0.975452 100.871 4.6448 91.1159 14.0176 88.6044L29.0754 84.5697C38.4482 82.0583 48.1931 87.6964 50.7092 97.0865L108.169 319.325C110.685 328.715 105.064 338.47 95.6917 340.982L80.6338 345.017C71.2611 347.528 61.5161 341.89 59.0001 332.5Z" fill="#FCD3C1"/>
</svg>
