<svg width="416" height="532" viewBox="0 0 416 532" fill="none" xmlns="http://www.w3.org/2000/svg">
<g clip-path="url(#clip0)">
<path d="M323.253 505.658L287.781 374.332C285.265 364.942 290.885 355.187 300.258 352.676L315.315 348.641C324.688 346.13 334.433 351.768 336.949 361.158L372.422 492.483C374.938 501.873 369.317 511.628 359.945 514.14L344.887 518.175C335.514 520.686 325.769 515.048 323.253 505.658Z" fill="#91BDE5"/>
<rect width="68" height="31" rx="10" transform="matrix(-1 0 0 1 402 495)" fill="#FCFCFC"/>
<path d="M173.279 320.274L309.311 320C319.032 320 327 327.954 327 337.657L327 353.246C327 362.949 319.032 370.903 309.311 370.903L173.279 371.177C163.558 371.177 155.59 363.224 155.59 353.52L155.59 337.931C155.59 328.228 163.558 320.274 173.279 320.274Z" fill="#91BDE5"/>
<path d="M294.253 518.658L258.781 387.332C256.265 377.942 261.885 368.187 271.258 365.676L286.315 361.641C295.688 359.13 305.433 364.768 307.949 374.158L343.422 505.483C345.938 514.873 340.317 524.628 330.945 527.14L315.887 531.175C306.514 533.686 296.769 528.048 294.253 518.658Z" fill="#FCD3C1"/>
<path d="M62.8952 504.803L124.253 283.609C126.769 274.219 136.514 268.581 145.887 271.092L160.945 275.127C170.317 277.638 175.938 287.394 173.422 296.784L112.064 517.978C109.548 527.368 99.8027 533.006 90.43 530.495L75.3721 526.46C65.9993 523.948 60.3791 514.193 62.8952 504.803Z" fill="#FCD3C1"/>
<path d="M287.736 238.633C289.515 240.409 295 246.032 295 246.032C295.889 246.92 297.075 247.66 298.113 247.66C299.447 247.66 300.633 246.92 301.67 246.032C304.487 243.664 306.859 241.297 309.379 238.633C312.641 235.23 312.641 230.051 309.379 226.796C306.859 224.28 302.708 224.28 299.595 226.796C298.706 227.536 297.964 227.684 297.075 226.796C294.407 224.28 290.404 224.28 287.736 226.796C284.326 230.051 284.474 235.23 287.736 238.633Z" fill="#F37972"/>
<path d="M157.726 90.8111V205.932H200.272L201.013 209.483L202.051 214.07H284.326C292.035 214.07 298.409 207.856 298.409 200.013V90.8111C298.409 75.1262 292.628 59.8852 282.251 48.0476C276.024 41.093 268.612 35.4701 260.162 31.7708C251.861 28.0716 242.67 26 233.33 26H222.657C203.978 26 186.189 33.9904 173.884 48.0476C163.359 59.8852 157.726 75.1262 157.726 90.8111Z" fill="#205CAA"/>
<path d="M199.531 214.07H201.903L201.014 209.483L199.531 214.07Z" fill="#205CAA"/>
<path d="M122.888 241.593V320.757C122.888 322.089 122.888 323.42 123.037 324.604V324.752C123.333 328.599 124.074 332.299 125.112 335.85C131.635 357.158 151.351 372.547 174.774 372.547H225.028V276.218L202.792 268.671L199.382 267.488L179.814 260.829L166.917 256.538L159.208 253.874L155.799 252.691L126.15 242.629L122.888 241.593Z" fill="#91BDE5"/>
<path d="M180.406 95.6945C178.478 97.6181 178.478 100.874 180.406 102.797L182.036 104.425C183.963 106.348 187.225 106.348 189.152 104.425L181.74 111.823C179.813 113.747 179.813 117.002 181.74 118.926L183.37 120.554C185.298 122.477 188.559 122.477 190.486 120.554L188.559 122.477L196.268 130.172C208.868 142.749 229.178 142.749 241.63 130.172L249.339 122.477L251.266 124.401C254.676 127.804 259.716 125.437 261.05 120.702C262.236 116.262 265.497 106.348 265.497 106.348L285.214 86.6683L262.829 64.3248C258.53 60.0337 251.414 60.0337 247.115 64.3248L226.065 85.3366C224.137 87.2602 220.876 87.2602 218.949 85.3366L217.318 83.7089C215.391 81.7853 215.391 78.53 217.318 76.6063L221.321 72.6111C223.248 70.6875 223.248 67.4322 221.321 65.5086L219.69 63.8809C217.763 61.9573 214.502 61.9573 212.574 63.8809L198.047 78.382C196.119 80.3056 192.858 80.3056 190.931 78.382L185.298 72.7591L180.406 95.6945Z" fill="#FCD3C1"/>
<path d="M122.888 192.319V196.758C123.036 214.81 125.705 231.235 125.705 241.593C125.705 276.662 175.366 267.488 175.366 267.488L227.993 186.548L228.438 185.956C228.438 185.956 228.289 185.808 227.993 185.66C227.4 185.216 226.066 184.476 224.435 183.292C217.023 178.113 201.161 165.98 195.083 152.071C193.304 147.927 192.414 143.784 192.711 139.493C194.045 122.476 227.993 102.796 227.993 102.796C188.412 102.796 155.205 115.818 139.788 135.942C135.933 140.973 132.672 146.448 130.3 152.219C124.963 164.944 123.184 179.001 122.888 192.319Z" fill="#FCD3C1"/>
<path d="M225.177 372.546C185.059 372.546 152.538 340.084 152.538 300.041C152.538 259.997 185.059 227.535 225.177 227.535C265.295 227.535 297.816 259.997 297.816 300.041C297.816 340.084 265.295 372.546 225.177 372.546Z" fill="#91BDE5"/>
<path d="M231.551 235.674C244.448 221.025 242.966 198.829 228.29 185.956C213.614 173.083 191.377 174.562 178.48 189.211C165.583 203.861 167.065 226.056 181.741 238.929C183.372 240.409 185.151 241.593 186.93 242.777C188.857 243.369 190.784 244.256 192.563 245.44C206.053 250.323 221.619 246.92 231.551 235.674Z" fill="#91BDE5"/>
<path d="M253.788 105.756C254.233 106.2 255.123 106.2 255.716 105.756L259.718 101.76C260.163 101.317 260.163 100.429 259.718 99.8368C259.273 99.3929 258.384 99.3929 257.791 99.8368L253.788 103.832C253.195 104.424 253.195 105.312 253.788 105.756Z" fill="#205CAA"/>
<path d="M222.508 86.816H285.66L254.677 55.7422L222.508 86.816Z" fill="#205CAA"/>
<path d="M197.751 78.2331L157.725 120.405L175.959 66.3955L197.751 78.2331Z" fill="#205CAA"/>
<path d="M122.888 192.319V283.173H227.993V185.808C227.4 185.364 226.066 184.624 224.435 183.441C217.023 178.262 201.309 166.128 195.38 152.219H130.301C124.964 164.944 123.185 179.001 122.888 192.319Z" fill="#91BDE5"/>
<path d="M157.725 120.405C157.725 120.405 197.751 121.145 197.751 78.3813H162.469L157.725 120.405Z" fill="#205CAA"/>
<path d="M157.725 279.473C157.132 300.041 173.736 316.91 194.342 316.91H247.857C256.159 316.91 262.83 310.251 262.83 301.965C262.83 295.898 259.124 290.571 253.787 288.203H253.935C256.456 288.203 258.383 286.132 258.383 283.764C258.383 281.249 256.307 279.325 253.935 279.325L157.725 279.473Z" fill="#FCD3C1"/>
<path d="M236.74 114.19C233.627 119.961 234.665 127.36 239.557 132.243C244.449 137.126 251.861 138.014 257.643 135.054" stroke="#205CAA" stroke-width="2.9919" stroke-miterlimit="10" stroke-linecap="round"/>
<path d="M197.159 86.8158C197.159 86.8158 196.714 79.4173 212.28 63.8804C227.845 48.3435 201.162 63.8804 201.162 63.8804L192.119 76.6058L197.159 86.8158Z" fill="#205CAA"/>
<path d="M156.54 272.963C156.836 273.259 157.281 273.407 157.726 273.407C158.615 273.407 159.505 272.667 159.505 271.631V211.259C159.505 210.371 158.764 209.483 157.726 209.483C156.837 209.483 155.947 210.223 155.947 211.259V271.631C155.947 272.223 156.095 272.667 156.54 272.963Z" fill="#8D9FD1"/>
<path d="M199.975 272.963C200.271 273.259 200.716 273.407 201.161 273.407C202.05 273.407 202.939 272.667 202.939 271.631V231.679C202.939 230.791 202.198 229.903 201.161 229.903C200.271 229.903 199.382 230.643 199.382 231.679V271.631C199.53 272.223 199.678 272.667 199.975 272.963Z" fill="#8D9FD1"/>
<path d="M378.31 384H71.6896C61.9683 384 54 376.046 54 366.343V350.754C54 341.05 61.9683 333.097 71.6896 333.097H378.31C388.032 333.097 396 341.05 396 350.754V366.343C396 376.046 388.032 384 378.31 384Z" fill="#FCD3C1"/>
<path d="M86.0001 358.5L28.5406 136.261C26.0245 126.871 31.6448 117.116 41.0176 114.604L56.0754 110.57C65.4482 108.058 75.1931 113.696 77.7092 123.086L135.169 345.325C137.685 354.715 132.064 364.47 122.692 366.982L107.634 371.017C98.2611 373.528 88.5161 367.89 86.0001 358.5Z" fill="#FCD3C1"/>
<path d="M81.8317 463.272C99.5212 480.869 124.572 486.716 147.151 480.705C153.194 458.244 147.316 433.325 129.626 415.728C111.937 398.076 86.8858 392.284 64.307 398.295C58.264 420.756 64.1422 445.675 81.8317 463.272Z" fill="#8D9FD1"/>
<path d="M160.885 444.091C150.667 454.255 147.261 468.682 150.777 481.634C163.797 485.077 178.3 481.743 188.573 471.579C198.791 461.414 202.142 446.987 198.681 434.035C185.606 430.538 171.158 433.926 160.885 444.091Z" fill="#8D9FD1"/>
<path d="M134.5 476L89.5 423" stroke="#91BDE5" stroke-width="2" stroke-linecap="round"/>
<path d="M162 475L183.5 450.5" stroke="#91BDE5" stroke-width="2" stroke-linecap="round"/>
<path d="M198 477H86.25V506.85C86.25 520.95 97.65 532.35 111.75 532.35H172.35C186.45 532.35 197.85 520.95 197.85 506.85V477H198Z" fill="#FCFCFC"/>
</g>
<defs>
<clipPath id="clip0">
<rect width="416" height="532" fill="white" transform="matrix(-1 0 0 1 416 0)"/>
</clipPath>
</defs>
</svg>
