<svg width="138" height="136" viewBox="0 0 138 136" fill="none" xmlns="http://www.w3.org/2000/svg">
<path d="M19.8317 67.2718C37.5212 84.8686 62.5721 90.7159 85.151 84.7046C91.1939 62.2442 85.3158 37.3246 67.6263 19.7279C49.9368 2.07649 24.8858 -3.71622 2.307 2.29508C-3.73599 24.7555 2.14219 49.6751 19.8317 67.2718Z" fill="#8D9FD1"/>
<path d="M98.8849 48.0906C88.6668 58.2552 85.2607 72.6823 88.7767 85.634C101.797 89.0768 116.3 85.7433 126.573 75.5787C136.791 65.4141 140.142 50.987 136.681 38.0353C123.606 34.5379 109.158 37.926 98.8849 48.0906Z" fill="#8D9FD1"/>
<path d="M72.5 80L27.5 27" stroke="#91BDE5" stroke-width="2" stroke-linecap="round"/>
<path d="M100 79L121.5 54.5" stroke="#91BDE5" stroke-width="2" stroke-linecap="round"/>
<path d="M136 81H24.25V110.85C24.25 124.95 35.65 136.35 49.75 136.35H110.35C124.45 136.35 135.85 124.95 135.85 110.85V81H136Z" fill="#FCFCFC"/>
</svg>
