<svg width="211" height="200" viewBox="0 0 211 200" fill="none" xmlns="http://www.w3.org/2000/svg">
<g clip-path="url(#clip0)">
<path d="M76.8242 37.4116L47.7756 42.5336C45.1502 42.9965 42.6601 41.2549 42.1977 38.6324L40.6762 30.0035C40.2137 27.381 41.9581 24.8928 44.5834 24.4299L73.632 19.3078C76.2574 18.8449 78.7476 20.5865 79.21 23.209L80.7315 31.8379C81.1939 34.4604 79.4214 36.9536 76.8242 37.4116Z" fill="#91BDE5"/>
<path d="M79.2099 23.2092L88.1649 73.9956C88.6273 76.6181 86.883 79.1063 84.2576 79.5693L75.6193 81.0924C72.9939 81.5554 70.5037 79.8138 70.0413 77.1912L61.0863 26.4049C60.6239 23.7824 62.3682 21.2942 64.9936 20.8312L73.632 19.3081C76.2291 18.8501 78.7475 20.5867 79.2099 23.2092Z" fill="#91BDE5"/>
<path d="M144.992 122.737L76.1673 134.873C68.7993 136.172 61.7937 131.272 60.4959 123.913L55.9563 98.1668C54.6585 90.8069 59.5659 83.8066 66.9339 82.5075L135.758 70.3718C143.126 69.0727 150.132 73.9723 151.43 81.3323L155.969 107.078C157.262 114.41 152.36 121.438 144.992 122.737Z" fill="#FCD3C1"/>
<path d="M83.0843 125.57L58.8033 160.207C56.9194 162.894 53.1648 163.556 50.4755 161.675L44.0674 157.194C41.3781 155.313 40.7168 151.562 42.6006 148.875L66.8816 114.238C68.7655 111.551 72.5201 110.889 75.2095 112.77L81.6175 117.252C84.3118 119.161 84.9682 122.883 83.0843 125.57Z" fill="#FCD3C1"/>
<path d="M146.659 100.172L181.322 124.415C184.012 126.296 184.673 130.046 182.789 132.733L178.3 139.136C176.416 141.824 172.662 142.486 169.973 140.605L135.31 116.362C132.62 114.481 131.959 110.73 133.843 108.043L138.331 101.64C140.239 98.9196 143.965 98.2626 146.659 100.172Z" fill="#FCD3C1"/>
<path d="M71.1054 37.1697L80.851 92.4397C81.5869 96.6131 78.791 100.566 74.613 101.303L64.5914 103.07C60.4134 103.807 56.4291 101.02 55.6982 96.8748L45.9526 41.6048C45.8929 41.2664 45.8615 40.9231 45.83 40.5797L49.6775 35.1619C50.5613 33.9012 51.802 33.0137 53.1787 32.5674L62.2405 30.9696C66.3903 30.2379 70.3745 33.0244 71.1054 37.1697Z" fill="#FCD3C1"/>
<path d="M72.5184 45.1782C72.8267 46.9266 72.4575 48.7944 71.3643 50.3537L46.9853 85.0946C44.7709 88.2182 40.4517 88.9798 37.3307 86.797L27.0048 79.5752C23.8789 77.3642 23.1181 73.0497 25.3043 69.9311L45.8641 40.6029L49.6784 35.162C50.5622 33.9012 51.8028 33.0137 53.1795 32.5675C53.8139 32.3684 54.4914 32.2489 55.1838 32.214C56.6301 32.1626 58.0995 32.5722 59.3612 33.4546L69.6589 40.6814C71.2243 41.801 72.2101 43.4299 72.5184 45.1782Z" fill="#FCD3C1"/>
<path d="M160.652 90.0573L136.514 73.1754C134.323 71.6428 133.796 68.6537 135.331 66.4641L140.354 59.2979C141.889 57.1082 144.882 56.5806 147.073 58.1132L171.244 75.0183C173.436 76.5509 173.963 79.54 172.428 81.7297L167.404 88.8958C165.836 91.0623 162.844 91.5899 160.652 90.0573Z" fill="#91BDE5"/>
<path d="M188.518 103.316C184.904 103.953 181.911 106.458 180.628 109.912C170.721 136.925 147.061 158.077 116.685 163.433C86.2816 168.794 56.8417 157.005 38.2929 135.009C35.9343 132.198 32.2368 130.872 28.6234 131.51C20.7755 132.893 17.4166 142.237 22.5621 148.308C45.6987 175.689 82.3757 190.389 120.26 183.709C158.145 177.028 187.587 150.699 199.964 117.057C202.718 109.564 196.366 101.932 188.518 103.316Z" fill="#91BDE5"/>
<path d="M49.528 82.3492C49.3586 82.3791 49.151 82.3575 48.985 82.2414L27.304 67.0779C26.972 66.8457 26.8924 66.3945 27.13 66.091C27.3675 65.7874 27.8142 65.6796 28.118 65.9168L49.799 81.0802C50.1311 81.3125 50.2106 81.7636 49.9731 82.0672C49.885 82.2281 49.7256 82.3144 49.528 82.3492Z" fill="white"/>
<path d="M43.089 77.5241C42.9196 77.5539 42.7121 77.5324 42.5461 77.4163C42.214 77.184 42.1345 76.7329 42.372 76.4293L54.3032 59.4097C54.5358 59.0779 54.9875 58.9983 55.2913 59.2354C55.5951 59.4726 55.7028 59.9188 55.4653 60.2224L43.5623 77.2371C43.4461 77.4029 43.2584 77.4942 43.089 77.5241Z" fill="white"/>
<path d="M48.4324 55.5021C48.0654 55.5668 47.7002 55.3114 47.6356 54.9448L47.1135 51.9839C47.0488 51.6173 47.3047 51.2524 47.6717 51.1877C48.0386 51.123 48.4039 51.3784 48.4685 51.745L48.9906 54.7059C49.0602 55.1007 48.7994 55.4374 48.4324 55.5021Z" fill="#205CAA"/>
<path d="M106.143 74.5718L90.3621 63.5142C88.9295 62.5103 88.5844 60.5532 89.5872 59.1199L92.8694 54.4291C93.8723 52.9958 95.828 52.6509 97.2607 53.6548L113.063 64.7276C114.495 65.7315 114.841 67.6886 113.838 69.1219L110.556 73.8127C109.531 75.2308 107.575 75.5757 106.143 74.5718Z" fill="white"/>
<path d="M110.972 73.7205L122.019 57.9324C123.022 56.4991 122.677 54.542 121.244 53.5382L116.555 50.2528C115.123 49.2489 113.167 49.5938 112.164 51.0271L101.102 66.8369C100.099 68.2702 100.444 70.2273 101.877 71.2311L106.566 74.5165C108.013 75.4986 109.969 75.1538 110.972 73.7205Z" fill="white"/>
<rect x="100.84" y="76.4517" width="15" height="53" transform="rotate(-10 100.84 76.4517)" fill="white"/>
</g>
<defs>
<clipPath id="clip0">
<rect width="183" height="170" fill="white" transform="translate(0.629883 32.1802) rotate(-10)"/>
</clipPath>
</defs>
</svg>
