<svg width="81" height="148" viewBox="0 0 81 148" fill="none" xmlns="http://www.w3.org/2000/svg">
<g clip-path="url(#clip0)">
<path d="M46.7486 67.9005V12.8896C46.7486 5.75428 40.9629 0 33.7886 0H12.96C5.78571 0 0 5.75428 0 12.8896V107.72V135.11C0 142.246 5.78571 148 12.96 148H34.02C34.7143 148 35.64 148 36.3343 147.77C37.7229 148 39.1114 148 40.7314 148C63.18 148 81.2314 129.816 81.2314 107.72C81 87.6952 66.1886 70.8927 46.7486 67.9005Z" fill="#E8E6F3"/>
<path d="M55.3113 111.403C52.7656 113.935 45.3599 121.53 45.3599 121.53C44.2028 122.681 42.5828 123.832 40.9628 123.832C39.3428 123.832 37.4913 122.911 36.1028 121.761C32.3999 118.538 28.9285 115.316 25.6885 111.633C21.2913 107.03 21.2913 99.8943 25.6885 95.5211C29.1599 92.0685 34.7142 92.0685 39.1113 95.5211C40.2685 96.4417 41.1942 96.6719 42.5828 95.5211C46.2856 92.0685 51.8399 92.0685 55.3113 95.5211C59.9399 99.8943 59.7085 106.799 55.3113 111.403Z" fill="#F37972"/>
<path d="M28.9292 33.3745C26.152 33.3745 23.3749 30.8426 23.6063 28.0806C23.8377 25.0883 25.9206 22.7866 28.9292 22.7866C31.7063 22.7866 34.4835 25.3185 34.252 28.0806C34.0206 31.0728 31.9377 33.3745 28.9292 33.3745Z" fill="#8C9FD1"/>
<path d="M29.3913 47.4152C29.1598 46.7247 29.1598 45.804 29.6227 45.1135C30.0856 44.1928 30.7798 43.7325 31.7056 43.5023C33.3256 43.0419 34.9456 43.9626 35.6398 45.5738C36.5656 48.3359 38.417 50.8678 40.7313 52.9393C41.8884 53.86 43.0456 54.7807 44.4341 55.4712C45.1284 55.9315 45.8227 56.1617 46.2856 56.3919C46.517 56.3919 46.7484 56.622 46.9798 56.622V63.297C38.8798 61.2255 32.1684 55.241 29.3913 47.4152Z" fill="#8C9FD1"/>
</g>
<defs>
<clipPath id="clip0">
<rect width="81" height="148" fill="white"/>
</clipPath>
</defs>
</svg>
