<svg width="56" height="47" viewBox="0 0 56 47" fill="none" xmlns="http://www.w3.org/2000/svg">
<path d="M6.54653 41.0345C14.0644 48.5524 26.2632 48.5524 33.7811 41.0345L49.668 25.0058C55.3419 19.3319 55.3419 10.2537 49.668 4.72172C43.9941 -0.95216 34.9159 -0.95216 29.3839 4.72172L15.0573 19.0482C11.2275 22.8781 6.12099 24.864 1.0145 24.864C0.305261 30.5378 2.00743 36.6373 6.54653 41.0345Z" fill="#91BDE5"/>
<path d="M42.7173 12.3814C43.5007 12.3814 44.1358 11.7463 44.1358 10.9629C44.1358 10.1795 43.5007 9.54443 42.7173 9.54443C41.9339 9.54443 41.2988 10.1795 41.2988 10.9629C41.2988 11.7463 41.9339 12.3814 42.7173 12.3814Z" fill="white"/>
<path d="M49.668 4.72193L55.9092 4.0127L52.9304 9.54472L49.668 4.72193Z" fill="#205CAA"/>
<path d="M37.3271 34.7935V46.7086" stroke="#8D9FD1" stroke-miterlimit="10"/>
<path d="M29.8086 34.7935V46.7086" stroke="#8D9FD1" stroke-miterlimit="10"/>
</svg>
