<svg width="47" height="63" viewBox="0 0 47 63" fill="none" xmlns="http://www.w3.org/2000/svg">
<g clip-path="url(#clip0)">
<path d="M28.0064 63C19.1714 63 11.752 57.081 9.62871 49.0207C9.21381 47.5049 8.99415 45.8928 8.99415 44.2566L8.99416 16.3461C8.99416 15.119 9.21381 13.916 9.62871 12.8333L10.4097 11.1731C12.2401 8.09329 15.6326 6 19.5375 6C23.4425 6 26.8349 8.09329 28.6409 11.1731C29.5439 12.6889 30.0565 14.4694 30.0565 16.3461C30.0565 16.6349 30.0565 16.8995 30.0321 17.1642C30.0076 17.4048 30.0076 17.6454 30.0076 17.886C30.0076 21.8801 32.3018 25.3449 35.6454 27.0772C35.9383 27.2216 36.2312 27.366 36.524 27.4863C40.551 29.4833 43.7726 32.8278 45.5298 36.9422C46.506 39.1798 47.043 41.6581 47.043 44.2566C47.043 46.8552 46.506 49.3094 45.5298 51.5711C42.6255 58.3081 35.8895 63 28.0064 63Z" fill="#FCFCFC"/>
<path d="M14.4407 19.1241C14.0324 19.1241 13.624 18.7974 13.624 18.3074V14.8772C13.624 14.4689 13.9507 14.0605 14.4407 14.0605C14.9307 14.0605 15.2574 14.3872 15.2574 14.8772V18.3074C15.2574 18.7974 14.9307 19.1241 14.4407 19.1241Z" fill="#205CAA"/>
<rect x="4.41211" y="20.394" width="8.06061" height="3.45455" rx="1.72727" fill="#F37972"/>
</g>
<defs>
<clipPath id="clip0">
<rect width="63" height="47" fill="white" transform="translate(47) rotate(90)"/>
</clipPath>
</defs>
</svg>
