<svg width="347" height="348" viewBox="0 0 347 348" fill="none" xmlns="http://www.w3.org/2000/svg">
<path d="M16.041 347.244H330.359C339.174 347.244 346.4 340.019 346.4 331.203V317.041C346.4 308.226 339.174 301 330.359 301H16.041C7.2257 301 0 308.226 0 317.041V331.203C0 340.019 7.2257 347.244 16.041 347.244Z" fill="#FCD3C1"/>
<path d="M277.032 214.603L276.888 214.458L277.032 214.603C276.888 214.459 276.888 214.459 277.032 214.603Z" fill="#205CAA"/>
<path d="M277.032 214.603L276.888 214.458L277.032 214.603C276.888 214.459 276.888 214.459 277.032 214.603Z" fill="#FCD3C1"/>
<path d="M305.935 157.809V261.57C305.935 270.963 302.611 279.634 296.975 286.426C288.594 290.328 278.189 293.508 266.627 295.964C251.742 298.999 234.545 300.878 216.337 300.878H200.44C192.347 300.878 185.411 296.687 185.411 291.484C185.411 296.687 178.329 300.878 170.237 300.878H154.918V261.57H134.975V232.089C134.975 226.598 136.131 221.106 138.155 216.193C137.143 215.47 136.131 214.892 135.12 214.314C137.866 212.435 140.467 210.267 142.779 207.955C143.646 206.799 144.513 205.499 145.525 204.487L145.669 204.342C151.305 197.984 153.618 189.747 152.895 181.943C152.172 174.573 148.849 167.491 142.924 162.289C142.634 162.144 140.322 160.699 136.998 158.242C125.148 152.028 110.119 154.485 100.87 165.035C99.1358 166.913 97.8352 168.937 96.679 171.104H91.332C93.7888 156.219 102.026 142.779 114.31 132.23C118.645 128.473 123.559 125.149 128.761 122.259C131.796 120.524 134.975 119.079 138.299 117.634C141.045 116.478 143.935 115.466 146.825 114.599C147.548 114.31 148.271 114.166 148.993 113.877C149.282 113.732 149.571 113.732 149.86 113.588C150.149 113.443 150.438 113.443 150.727 113.299C150.872 113.299 150.872 113.299 151.016 113.299C153.039 112.721 155.207 112.287 157.23 111.854C159.109 111.42 161.132 111.131 163.155 110.842C164.89 110.553 166.768 110.408 168.647 110.119C172.115 109.83 175.584 109.686 179.197 109.686H245.528C252.899 109.686 259.835 110.697 266.338 112.576C289.461 119.368 305.935 136.999 305.935 157.809Z" fill="#205CAA"/>
<path d="M40.1748 159.544C40.1748 159.977 40.0303 160.556 40.0303 160.989C40.0303 161.278 40.0303 161.712 40.0303 162.001C40.0303 161.712 40.0303 161.278 40.0303 160.989C40.1748 160.556 40.1748 160.122 40.1748 159.544Z" fill="#91BDE5"/>
<path d="M41.33 152.029C41.0409 153.618 40.7519 155.208 40.4629 156.942C40.7519 155.352 41.0409 153.618 41.33 152.029Z" fill="#91BDE5"/>
<path d="M160.987 164.746C160.987 170.671 160.12 176.452 158.531 181.943C155.64 191.915 150.149 200.874 142.779 207.956C143.646 206.799 144.513 205.499 145.524 204.487L145.669 204.343C151.305 197.984 153.617 189.747 152.895 181.943C152.172 174.573 148.848 167.492 142.923 162.289C142.634 162.145 140.322 160.7 136.998 158.243C125.148 152.029 110.119 154.485 100.87 165.035C99.1355 166.914 97.8349 168.937 96.6788 171.105H83.0945V133.675H62.8625C61.9954 133.675 60.9838 133.675 60.1168 133.82C60.1168 133.675 60.1168 133.675 60.1168 133.675H48.4111C48.8447 132.953 49.2782 132.23 49.8563 131.508C50.2898 130.93 50.7234 130.207 51.1569 129.629C51.4459 129.34 51.5904 129.051 51.8795 128.762C52.1685 128.328 52.602 127.75 53.0356 127.317C53.3246 126.883 53.6136 126.594 53.9027 126.161C54.3362 125.583 54.7697 125.005 55.3478 124.571C55.7813 123.993 56.3594 123.559 56.7929 122.981C56.9375 122.837 57.082 122.692 57.2265 122.548C57.8045 121.97 58.2381 121.392 58.8161 120.958C58.9606 120.958 58.9607 120.814 59.1052 120.669C59.6832 120.091 60.2613 119.513 60.9838 119.08C61.1284 119.08 61.1284 118.935 61.2729 118.791C61.8509 118.357 62.429 117.779 63.007 117.345C64.1631 116.478 65.3193 115.611 66.4754 114.744C66.9089 114.455 67.1979 114.166 67.6315 114.022C70.9553 111.854 74.5682 109.975 78.3255 108.53C78.6145 108.386 79.0481 108.241 79.4816 108.096C79.9152 107.952 80.4932 107.807 80.9268 107.518C81.5048 107.229 82.2274 107.085 82.8054 106.94C82.95 106.94 82.95 106.94 83.0945 106.94C83.239 106.94 83.239 106.94 83.3835 106.796C83.817 106.651 84.2506 106.507 84.6841 106.507C85.9847 106.218 87.2854 105.784 88.586 105.64C90.7537 105.206 93.0659 104.917 95.3782 104.628C96.9678 104.484 98.702 104.484 100.436 104.484C101.159 104.484 101.881 104.484 102.604 104.484C109.251 104.773 115.61 106.073 121.535 108.241C127.749 110.553 133.385 113.733 138.443 117.779C140.033 118.791 141.623 120.236 143.068 121.681C154.195 132.664 160.987 147.838 160.987 164.746Z" fill="#91BDE5"/>
<path d="M88.7305 105.351V133.531H48.7002C49.1337 132.808 49.5673 132.086 50.1453 131.363C50.5789 130.785 51.0124 130.062 51.446 129.484C51.735 129.195 51.8795 128.906 52.1685 128.617C52.4576 128.184 52.8911 127.606 53.3246 127.172C53.6137 126.739 53.9027 126.45 54.1917 126.016C54.6253 125.438 55.0588 124.86 55.6369 124.426C56.0704 123.848 56.6485 123.415 57.082 122.837C57.2265 122.692 57.371 122.548 57.5155 122.403C58.0936 121.825 58.5271 121.247 59.1052 120.814C59.2497 120.814 59.2497 120.669 59.3942 120.525C59.9723 119.946 60.5503 119.368 61.2729 118.935C61.4174 118.935 61.4174 118.79 61.5619 118.646C62.14 118.212 62.718 117.634 63.2961 117.201C64.4522 116.334 65.6083 115.467 66.7644 114.599C67.198 114.31 67.487 114.021 67.9205 113.877C71.2444 111.709 74.8572 109.831 78.6146 108.385C78.9036 108.241 79.3371 108.096 79.7707 107.952C80.2042 107.807 80.7823 107.663 81.2158 107.374C81.7939 107.085 82.5164 106.94 83.0945 106.796C83.239 106.796 83.239 106.796 83.3835 106.796C83.528 106.796 83.528 106.796 83.6726 106.651C84.1061 106.507 84.5396 106.362 84.9732 106.362C86.1293 105.929 87.4299 105.64 88.7305 105.351Z" fill="#FCD3C1"/>
<path d="M174.861 181.799V274.287H154.774V261.57H134.976V232.089C134.976 226.598 136.132 221.106 138.155 216.193C137.143 215.47 136.132 214.892 135.12 214.314C137.866 212.436 140.467 210.268 142.779 207.956C143.646 206.799 144.513 205.499 145.525 204.487L145.67 204.343C151.306 197.984 153.618 189.747 152.895 181.943H174.861V181.799Z" fill="#205CAA"/>
<path d="M202.464 81.6504V186.134C202.464 186.712 202.031 187.146 201.597 187.146C201.308 187.146 200.875 187.001 200.73 186.712C197.84 181.076 192.059 177.03 185.267 177.03C180.498 177.03 176.163 178.908 173.128 182.088C169.949 185.267 168.07 189.602 168.07 194.371C168.07 200.007 170.816 205.065 175.007 208.245L175.151 208.389C175.007 209.256 175.007 210.268 175.007 211.279C175.007 212.002 175.007 212.869 175.007 213.736C175.007 214.892 175.007 215.904 174.862 216.915C174.14 223.13 171.249 226.02 167.058 226.742C159.255 228.187 147.404 222.118 138.445 216.626C137.433 215.904 136.421 215.326 135.41 214.748C138.156 212.869 140.757 210.701 143.069 208.389C143.936 207.233 144.803 205.932 145.815 204.921L145.959 204.776C151.595 198.418 153.908 190.18 153.185 182.377C152.462 175.006 149.139 167.925 143.214 162.723C142.924 162.578 140.612 161.133 137.288 158.676C125.438 152.462 110.409 154.919 101.16 165.468C99.4258 167.347 98.1252 169.37 96.9691 171.538H83.3848V81.6504C83.3848 68.3551 88.2982 55.4934 97.1136 45.3774C107.519 33.5272 122.693 26.5906 138.445 26.5906H147.404C155.353 26.5906 163.156 28.3247 170.093 31.504C177.174 34.6834 183.533 39.4523 188.735 45.3774C190.036 46.8225 191.192 48.2677 192.348 49.8573C198.418 58.3836 201.886 68.4996 202.32 78.9046C202.464 79.9162 202.464 80.6388 202.464 81.6504Z" fill="#205CAA"/>
<path d="M79.3394 300.878H75.7265C75.582 300.878 75.582 300.733 75.4375 300.733C76.7381 300.878 78.0388 300.878 79.3394 300.878Z" fill="#91BDE5"/>
<path d="M102.46 85.6969C100.726 87.4311 100.726 90.0323 102.46 91.7665L103.905 93.2116C105.639 94.9458 108.24 94.9458 109.975 93.2116L103.616 99.5702C101.882 101.304 101.882 103.906 103.616 105.64L105.061 107.085C106.795 108.819 109.396 108.819 111.131 107.085L109.541 108.675L116.044 115.178C126.594 125.727 143.791 125.727 154.485 115.178L160.988 108.675L162.578 110.264C165.468 113.155 169.803 111.131 170.815 107.229C171.826 103.472 174.572 95.0903 174.572 95.0903L191.336 78.3267L171.971 59.1064C168.214 55.349 162.289 55.349 158.676 59.1064L140.756 77.0261C139.022 78.7602 136.421 78.7602 134.686 77.0261L133.241 75.5809C131.507 73.8468 131.507 71.2455 133.241 69.5114L136.71 66.043C138.444 64.3089 138.444 61.7076 136.71 59.9734L135.264 58.5283C133.53 56.7941 130.929 56.7941 129.195 58.5283L117.056 70.9565C115.322 72.6907 112.72 72.6907 110.986 70.9565L106.217 66.1875L102.46 85.6969Z" fill="#FCD3C1"/>
<path d="M161.712 121.536C158.099 121.536 154.486 120.091 151.741 117.345C147.405 113.01 146.394 106.362 149.284 100.871C149.573 100.437 150.151 100.148 150.584 100.437C151.018 100.726 151.307 101.304 151.018 101.738C148.561 106.362 149.428 112.143 153.186 115.9C156.943 119.657 162.579 120.525 167.348 118.068C167.782 117.779 168.504 118.068 168.649 118.501C168.938 118.935 168.649 119.657 168.215 119.802C166.192 120.958 163.88 121.536 161.712 121.536Z" fill="#205CAA"/>
<path d="M137.144 158.098C125.294 151.884 110.265 154.341 101.016 164.89C99.2815 166.769 97.9808 168.792 96.8247 170.96H83.2404V133.531H63.0085C62.1414 133.531 61.1298 133.531 60.2627 133.675C60.2627 133.531 60.2627 133.531 60.2627 133.531C62.2859 128.762 65.0317 124.137 68.211 119.802C71.9683 115.033 76.8818 110.553 82.6624 106.796C82.8069 106.796 82.8069 106.651 82.9514 106.651C89.599 102.46 97.4028 99.1363 106.074 96.5351C106.796 96.246 107.663 96.1015 108.386 95.957C118.646 93.2112 130.207 91.7661 142.347 91.7661C142.347 91.7661 130.063 98.9918 121.248 107.952C119.08 110.264 117.057 112.576 115.612 115.033C114.022 117.634 112.866 120.235 112.721 122.837C112.432 126.016 113.01 129.051 114.166 132.085C114.311 132.519 114.455 132.953 114.744 133.531C119.513 143.936 130.352 153.185 137.144 158.098Z" fill="#FCD3C1"/>
<path d="M164.457 94.2232C164.891 94.6568 165.613 94.6568 166.047 94.2232L169.515 90.7549C169.949 90.3214 169.949 89.5988 169.515 89.1652C169.081 88.7317 168.359 88.7317 167.925 89.1652L164.457 92.6336C164.023 93.0671 164.023 93.7897 164.457 94.2232Z" fill="#205CAA"/>
<path d="M138.011 78.1819H191.481L165.179 51.8804L138.011 78.1819Z" fill="#205CAA"/>
<path d="M117.056 70.9566L83.2402 106.651L98.7032 60.8406L117.056 70.9566Z" fill="#205CAA"/>
<path d="M83.2402 106.651C83.2402 106.651 117.201 107.23 117.201 70.9565H87.2866L83.2402 106.651Z" fill="#205CAA"/>
<path d="M116.623 78.1823C116.623 78.1823 116.189 71.8237 129.34 58.6729C142.491 45.5221 119.946 58.6729 119.946 58.6729L112.287 69.3669L116.623 78.1823Z" fill="#205CAA"/>
<path d="M266.34 14.7404V94.5121C266.34 95.3792 266.195 96.1018 266.051 96.8243C265.617 98.5585 264.605 100.148 263.449 101.304H198.418C196.25 101.304 194.372 100.148 193.36 98.414C192.927 97.4024 192.638 96.3908 192.493 95.3792V95.2347C192.493 94.9456 192.493 94.8011 192.493 94.5121V30.3479C182.955 30.3479 175.296 22.8332 175.296 13.4398C175.296 7.94827 177.897 3.03479 182.088 0C185.267 3.17931 189.747 5.05799 194.661 5.05799H256.802C261.86 5.05799 266.34 9.3934 266.34 14.7404Z" fill="#005CB0"/>
<path d="M266.339 78.6156V101.449H198.417C196.249 101.449 194.371 100.293 193.359 98.5585C192.925 97.5469 192.636 96.5353 192.492 95.5237V95.3792V74.1356H186.278C182.087 74.1356 179.775 69.2222 182.52 65.8983L192.347 54.4817V30.4924H219.661C225.008 30.4924 229.343 34.8278 229.343 40.1749V59.6842C229.343 61.9965 231.222 64.0197 233.678 64.0197H235.702C238.158 64.0197 240.037 62.141 240.037 59.6842V47.9786C240.037 45.5219 241.916 43.6432 244.372 43.6432H246.396C248.852 43.6432 250.731 45.5219 250.731 47.9786V78.6156C250.731 80.9278 252.61 82.951 255.066 82.951H262.003C264.315 82.951 266.339 81.0723 266.339 78.6156Z" fill="#FCD3C1"/>
<path d="M201.597 58.8172C201.018 58.8172 200.44 58.2392 200.44 57.6611V52.7477C200.44 52.1696 201.018 51.5916 201.597 51.5916C202.175 51.5916 202.753 52.1696 202.753 52.7477V57.6611C202.753 58.2392 202.175 58.8172 201.597 58.8172Z" fill="#205CAA"/>
<path d="M192.35 86.275C191.771 86.275 191.338 85.8414 191.338 85.2634C191.338 84.6853 191.771 84.2518 192.35 84.2518C197.697 84.2518 202.321 80.7834 203.911 75.7255C204.055 75.1474 204.633 74.8584 205.211 75.0029C205.789 75.1474 206.078 75.7255 205.934 76.3035C203.911 82.3731 198.564 86.275 192.35 86.275Z" fill="#205CAA"/>
<path d="M226.743 119.08H266.34V101.449H210.269V102.461C210.269 111.565 217.639 119.08 226.743 119.08Z" fill="#FCD3C1"/>
<path d="M278.045 191.626L277.9 191.481L278.045 191.626C277.9 191.481 278.045 191.626 278.045 191.626Z" fill="#205CAA"/>
<path d="M154.93 261.57V300.878H79.3381C78.0374 300.878 76.7368 300.878 75.5807 300.733C64.8867 299.722 55.4933 294.375 48.9901 286.571C43.4986 279.779 40.0303 271.108 40.0303 261.715V164.89C40.0303 165.179 40.0303 165.324 40.0303 165.613V164.89C40.0303 164.023 40.0303 163.156 40.0303 162.289C40.0303 162 40.0303 161.566 40.0303 161.277C40.0303 160.844 40.0303 160.266 40.1748 159.832V159.688C40.1748 158.965 40.3193 158.098 40.4638 157.376V157.231C40.6083 155.497 40.8974 153.907 41.3309 152.318C41.6199 150.728 42.0535 149.138 42.6315 147.549C42.9206 146.826 43.0651 145.959 43.3541 145.236C44.7992 141.19 46.5334 137.433 48.7011 133.82H60.4067V133.964C61.2738 133.82 62.1409 133.82 63.1525 133.82H83.3844V171.249H96.8242C97.9804 169.081 99.281 167.058 101.015 165.179C110.264 154.63 125.293 152.173 137.144 158.387C140.467 160.844 142.78 162.289 143.069 162.434C144.514 163.734 145.814 165.179 147.115 166.624C150.583 171.249 152.607 176.596 153.185 182.087C153.907 189.313 151.884 196.828 147.115 203.042C146.682 203.62 146.248 204.054 145.814 204.632L145.67 204.776C144.658 205.932 143.791 207.088 142.924 208.244C140.612 210.557 138.011 212.724 135.265 214.603C136.277 215.181 137.288 215.904 138.3 216.482C136.132 221.54 135.12 226.887 135.12 232.378V261.57H154.93Z" fill="#91BDE5"/>
<path d="M143.069 162.146C142.78 162.001 140.467 160.556 137.144 158.099C139.167 159.255 141.19 160.556 143.069 162.146Z" fill="#91BDE5"/>
<path d="M142.926 207.956C141.047 210.557 139.458 213.303 138.301 216.338C137.29 215.615 136.278 215.037 135.267 214.459C137.868 212.436 140.469 210.268 142.926 207.956Z" fill="#91BDE5"/>
<path d="M195.094 252.455C193.388 254.161 188.458 259.186 188.458 259.186C187.7 259.944 186.562 260.703 185.519 260.703C184.382 260.703 183.244 260.039 182.296 259.281C179.737 257.005 177.556 254.92 175.281 252.55C172.342 249.516 172.247 244.681 175.281 241.742C177.651 239.372 181.348 239.467 184.192 241.742C185.045 242.406 185.614 242.501 186.467 241.742C188.932 239.467 192.63 239.372 194.905 241.742C198.128 244.681 198.033 249.421 195.094 252.455Z" fill="#F37972"/>
<path d="M185.5 291.355V291.5C185.5 296.702 178.187 300.878 170.094 300.878H161.423H154.92V261.57C155.064 261.57 155.064 261.57 155.209 261.57C158.822 262.004 161.568 264.027 161.568 266.484V268.507C161.568 270.674 162.724 272.842 164.891 274.432C165.18 274.721 165.469 274.865 165.903 275.154L180.499 284.548C182.956 286.282 185.355 288.754 185.5 291.355Z" fill="#FCD3C1"/>
<path d="M215.615 293.652V300.878H209.111H200.441C192.348 300.878 185.411 296.687 185.411 291.484V291.34C185.411 288.738 187.723 286.282 190.469 284.403L204.921 275.01C207.666 273.275 209.111 270.819 209.111 268.362V266.339C209.111 263.882 211.713 261.859 215.47 261.425C215.615 261.425 215.615 261.425 215.759 261.425L215.615 293.652Z" fill="#FCD3C1"/>
<path d="M296.976 261.57V286.426C289.75 295.242 278.767 300.878 266.628 300.878H215.614V261.57H296.976Z" fill="#205CAA"/>
<path d="M305.936 161.133V261.57C305.936 270.964 302.612 279.634 296.976 286.427C289.75 295.242 278.767 300.878 266.628 300.878V161.133H305.936Z" fill="#205CAA"/>
<path d="M146.971 166.48V202.753C146.537 203.331 146.104 203.765 145.67 204.343L145.525 204.487C144.514 205.643 143.647 206.8 142.78 207.956C140.901 210.557 139.311 213.303 138.155 216.337C135.988 221.395 134.976 226.742 134.976 232.234V244.662H40.0303V164.746C40.0303 165.035 40.0303 165.18 40.0303 165.469V164.746C40.0303 163.879 40.0303 163.012 40.0303 162.145C40.0303 161.856 40.0303 161.422 40.0303 161.133C40.0303 160.7 40.0303 160.122 40.1748 159.688V159.544C40.1748 158.821 40.3193 157.954 40.4638 157.231V157.087C40.6083 155.353 40.8974 153.763 41.3309 152.173C41.6199 150.584 42.0535 148.994 42.6315 147.404C42.9206 146.682 43.0651 145.815 43.3541 145.092C44.7992 141.046 46.5334 137.288 48.7011 133.676H115.033C119.513 144.081 130.351 153.329 137.144 158.387C139.167 159.399 141.19 160.844 143.069 162.434C144.514 163.445 145.814 164.891 146.971 166.48Z" fill="#91BDE5"/>
</svg>
