<svg width="86" height="86" viewBox="0 0 86 86" fill="none" xmlns="http://www.w3.org/2000/svg">
<g clip-path="url(#clip0)">
<path d="M12.359 42.3012C23.3829 53.2673 38.9943 56.9113 53.0652 53.1651C56.8311 39.168 53.1679 23.6384 42.144 12.6724C31.1201 1.67222 15.5087 -1.93773 1.43781 1.80844C-2.32812 15.8055 1.3351 31.3351 12.359 42.3012Z" fill="#8D9FD1"/>
<path d="M61.6246 30.3475C55.2567 36.682 53.1341 45.6728 55.3252 53.7441C63.439 55.8896 72.4773 53.8122 78.8793 47.4778C85.2472 41.1433 87.3355 32.1525 85.1787 24.0812C77.0306 21.9016 68.0266 24.0131 61.6246 30.3475Z" fill="#8D9FD1"/>
<path d="M45.1816 50.2333L17.1382 17.2043" stroke="#91BDE5" stroke-width="2" stroke-linecap="round"/>
<path d="M62.3192 49.6102L75.7178 34.342" stroke="#91BDE5" stroke-width="2" stroke-linecap="round"/>
</g>
<path d="M84.7539 50.8564H15.1126V69.4586C15.1126 78.2456 22.217 85.3499 31.0039 85.3499H68.7691C77.5561 85.3499 84.6604 78.2456 84.6604 69.4586V50.8564H84.7539Z" fill="#FCD3C1"/>
<defs>
<clipPath id="clip0">
<rect width="86" height="54.2174" fill="white" transform="matrix(-1 0 0 1 86 0.378174)"/>
</clipPath>
</defs>
</svg>
