<svg width="243" height="378" viewBox="0 0 243 378" fill="none" xmlns="http://www.w3.org/2000/svg">
<rect width="218" height="154" rx="8" fill="#E8E7F4"/>
<path d="M46.1203 39.96L46.4003 38.4L46.6803 39.96L50.6003 51.16H42.3203L46.1203 39.96ZM54.4003 62H59.7203L49.1203 33.48H43.6803L33.3203 62H38.6803L40.8403 55.6H52.1603L54.4003 62Z" fill="white"/>
<path d="M86.4963 62C90.1763 62 92.8962 61.2933 94.6562 59.88C96.4429 58.4666 97.3363 56.4666 97.3363 53.88C97.3363 52.12 96.9362 50.7333 96.1362 49.72C95.3629 48.68 94.2296 47.9066 92.7363 47.4C94.0696 46.8666 95.0696 46.0666 95.7363 45C96.4296 43.9333 96.7762 42.5466 96.7762 40.84C96.7762 38.4666 95.9229 36.6533 94.2163 35.4C92.5096 34.12 89.7762 33.48 86.0163 33.48H75.0962V62H86.4963ZM86.1763 37.72C88.0962 37.72 89.4829 38.0266 90.3363 38.64C91.1896 39.2266 91.6162 40.1466 91.6162 41.4C91.6162 42.76 91.1496 43.7466 90.2163 44.36C89.3096 44.9733 87.9763 45.28 86.2163 45.28H80.2163V37.72H86.1763ZM85.8963 49.52C87.9496 49.52 89.4696 49.8266 90.4562 50.44C91.4696 51.0533 91.9762 52.0533 91.9762 53.44C91.9762 54.7733 91.5096 55.7866 90.5763 56.48C89.6429 57.1733 88.0563 57.52 85.8162 57.52H80.2163V49.52H85.8963Z" fill="white"/>
<path d="M137.251 51.28H131.651C131.464 53.3066 130.864 54.8666 129.851 55.96C128.838 57.0533 127.264 57.6 125.131 57.6C122.811 57.6 121.038 56.84 119.811 55.32C118.611 53.8 118.011 51.6533 118.011 48.88V46.92C118.011 43.88 118.611 41.5866 119.811 40.04C121.011 38.4666 122.771 37.68 125.091 37.68C127.144 37.68 128.691 38.2 129.731 39.24C130.798 40.28 131.424 41.7733 131.611 43.72H137.091C136.718 40.1466 135.504 37.4666 133.451 35.68C131.424 33.8666 128.638 32.96 125.091 32.96C121.171 32.96 118.118 34.1466 115.931 36.52C113.744 38.8666 112.651 42.2266 112.651 46.6V49.16C112.651 53.5066 113.704 56.84 115.811 59.16C117.944 61.4533 120.971 62.6 124.891 62.6C127.611 62.6 129.838 62.1466 131.571 61.24C133.304 60.3333 134.624 59.04 135.531 57.36C135.984 56.5066 136.358 55.5733 136.651 54.56C136.944 53.5466 137.144 52.4533 137.251 51.28Z" fill="white"/>
<path d="M153.612 62H163.812C166.185 62 168.305 61.52 170.172 60.56C172.039 59.6 173.519 58.16 174.612 56.24C175.145 55.28 175.545 54.2 175.812 53C176.079 51.7733 176.212 50.4266 176.212 48.96V46.56C176.212 43.5733 175.639 41.12 174.492 39.2C173.372 37.28 171.852 35.84 169.932 34.88C168.972 34.4266 167.959 34.08 166.892 33.84C165.852 33.6 164.759 33.48 163.612 33.48H153.612V62ZM163.372 38C165.612 38 167.425 38.7466 168.812 40.24C170.225 41.7066 170.932 43.9466 170.932 46.96V48.48C170.932 51.4933 170.252 53.7333 168.892 55.2C167.532 56.6666 165.759 57.4 163.572 57.4H158.812V38H163.372Z" fill="white"/>
<path d="M56.0003 110.32H40.8403V102.88H53.1203V98.32H40.8403V91H55.3203V86.48H35.7603V115H56.0003V110.32Z" fill="white"/>
<path d="M145.449 348.396H175.054V362C175.054 370.837 167.89 378 159.054 378H153.449C149.031 378 145.449 374.418 145.449 370V348.396Z" fill="#91BDE5"/>
<path d="M109.266 348.396H138.87V362C138.87 370.837 131.707 378 122.87 378H117.266C112.847 378 109.266 374.418 109.266 370V348.396Z" fill="#91BDE5"/>
<path d="M113.192 357.852H134.865C137.064 357.852 138.87 355.961 138.87 353.658V288.61C138.87 273.808 127.327 261.802 113.27 261.802C111.072 261.802 109.266 263.693 109.266 265.996L109.344 351.273V353.576C109.187 355.961 110.993 357.852 113.192 357.852Z" fill="#FCD3C1"/>
<path d="M149.376 357.852H171.049C173.248 357.852 175.054 355.961 175.054 353.658V288.61C175.054 273.808 163.51 261.802 149.454 261.802H145.449L145.528 351.273V353.576C145.371 355.961 147.098 357.852 149.376 357.852Z" fill="#FCD3C1"/>
<path d="M76.1247 99.6348L54.168 121.592L103.098 170.521C113.542 180.965 130.564 180.965 141.09 170.521L144.051 167.561L80.7299 104.322L76.1247 99.6348Z" fill="#8D9FD1"/>
<path d="M124.704 230.341C132.711 220.03 148.289 220.03 156.296 230.341L198.148 284.233C208.351 297.372 198.987 316.5 182.351 316.5H98.6487C82.0126 316.5 72.6487 297.372 82.8524 284.233L124.704 230.341Z" fill="#205CAA"/>
<path d="M208.112 273.233L230.151 251.276L181.222 202.346C170.778 191.902 153.755 191.902 143.229 202.346L140.269 205.307L203.589 268.545L208.112 273.233Z" fill="#8D9FD1"/>
<path d="M124.192 266H157.519C171.023 266 182 256.291 182 244.261V203.035C182 191.005 171.023 181.296 157.519 181.296L99 154L99.6318 244.261C99.7108 256.291 110.688 266 124.192 266Z" fill="#8D9FD1"/>
<path d="M102.852 194.205L120.862 212.132C132.703 223.892 151.864 223.892 163.624 212.132L182.702 193.136C194.544 181.376 194.544 162.216 182.702 150.374L164.693 132.447C152.851 120.687 133.69 120.687 121.931 132.447L102.852 151.443C91.0102 163.285 91.0102 182.446 102.852 194.205Z" fill="#FCD3C1"/>
<path d="M141.09 176.278C141.666 176.854 142.406 176.854 142.981 176.278L147.011 172.248C147.586 171.673 147.586 170.933 147.011 170.357C146.435 169.781 145.695 169.781 145.119 170.357L141.09 174.387C140.514 174.962 140.514 175.702 141.09 176.278Z" fill="#205CAA"/>
<path d="M121.108 156.295C121.683 156.87 122.423 156.87 122.999 156.295L127.028 152.265C127.604 151.689 127.604 150.949 127.028 150.374C126.453 149.798 125.713 149.798 125.137 150.374L121.108 154.403C120.532 154.979 120.532 155.801 121.108 156.295Z" fill="#205CAA"/>
<path d="M115.597 182.281C118.969 185.652 123.081 187.626 127.686 188.284C132.127 188.942 136.814 188.119 140.843 185.981C141.501 185.57 141.748 184.748 141.419 184.254C141.008 183.596 140.186 183.35 139.692 183.679C136.238 185.57 132.209 186.228 128.179 185.652C124.15 185.077 120.367 183.267 117.571 180.307C114.611 177.346 112.884 173.728 112.226 169.699C111.65 165.834 112.39 161.64 114.199 158.186C114.611 157.528 114.364 156.706 113.624 156.459C112.966 156.048 112.143 156.294 111.897 157.034C109.759 161.064 108.936 165.587 109.594 170.192C110.088 174.797 112.226 178.991 115.597 182.281Z" fill="#205CAA"/>
<path d="M150.63 119.618C143.558 126.69 143.558 138.203 150.63 145.357L165.762 160.489C171.107 165.834 179.741 165.834 184.922 160.489C190.268 155.143 190.268 146.591 184.922 141.328L171.354 127.759C167.735 124.141 165.844 119.289 165.844 114.519C160.499 113.697 154.742 115.342 150.63 119.618Z" fill="#205CAA"/>
<path d="M153.179 195.274C154.824 196.919 157.455 196.919 159.1 195.274L165.514 188.859C167.159 187.215 167.159 184.583 165.514 182.939C164.939 182.363 164.199 182.363 163.623 182.939C163.047 183.514 163.047 184.254 163.623 184.83C164.281 185.488 164.281 186.475 163.623 186.968L157.209 193.382C156.551 194.04 155.564 194.04 155.071 193.382C154.495 192.807 153.755 192.807 153.179 193.382C152.604 193.958 152.768 194.78 153.179 195.274Z" fill="#205CAA"/>
<path d="M230.151 251.276L208.112 273.233L216.007 281.127C220.859 285.979 228.589 285.979 233.441 281.127C237.059 277.509 237.964 272.246 236.237 267.887C237.717 269.368 240.019 269.368 241.5 267.887C242.98 266.407 242.98 264.105 241.5 262.624L230.151 251.276Z" fill="#FCD3C1"/>
<path d="M34.4317 99.6347C45.9446 88.1218 64.612 88.1218 76.0426 99.6347L54.1681 121.591L34.4317 101.937C33.8561 101.362 33.8561 100.293 34.4317 99.6347Z" fill="#FCD3C1"/>
<path d="M58.1974 112.381C59.5132 113.697 59.5132 116 58.1974 117.48L51.6186 124.059C50.3028 125.374 48.0003 125.374 46.52 124.059C45.2043 122.743 45.2043 120.44 46.52 118.96L53.0988 112.381C54.579 111.066 56.7994 111.066 58.1974 112.381Z" fill="#FCD3C1"/>
<path d="M104 257H177.5L179 271H104V257Z" fill="#205CAA"/>
</svg>
