<svg width="243" height="369" viewBox="0 0 243 369" fill="none" xmlns="http://www.w3.org/2000/svg"><path d="M34.8372 64.8111V179.932H77.3832L78.1244 183.483L79.1621 188.07H161.437C169.146 188.07 175.521 181.856 175.521 174.013V64.8111C175.521 49.1262 169.739 33.8852 159.362 22.0476C153.136 15.093 145.724 9.47011 137.274 5.77085C128.972 2.07159 119.781 0 110.442 0H99.768C81.0893 0 63.3 7.9904 50.9958 22.0476C40.4705 33.8852 34.8372 49.1262 34.8372 64.8111Z" fill="#205CAA"/><path d="M76.6427 188.07H79.0146L78.1252 183.483L76.6427 188.07Z" fill="#205CAA"/><path d="M0.000709534 215.593V294.757C0.000709534 296.089 0.000694275 297.42 0.148941 298.604V298.752C0.445427 302.599 1.18666 306.299 2.22437 309.85C8.74709 331.158 28.4635 346.547 51.886 346.547H102.141V250.218L79.9041 242.671L76.4945 241.488L56.9263 234.829L44.0291 230.538L36.3204 227.874L32.9108 226.691L3.26206 216.629L0.000709534 215.593Z" fill="#91BDE5"/><path d="M57.5178 69.6945C55.5907 71.6181 55.5907 74.8735 57.5178 76.7971L59.1485 78.4248C61.0757 80.3484 64.3371 80.3484 66.2642 78.4248L58.852 85.8233C56.9249 87.7469 56.9249 91.0023 58.852 92.9259L60.4827 94.5536C62.4099 96.4772 65.6712 96.4772 67.5984 94.5536L65.6712 96.4772L73.3799 104.172C85.9806 116.749 106.29 116.749 118.742 104.172L126.451 96.4772L128.378 98.4008C131.788 101.804 136.828 99.4366 138.162 94.7015C139.348 90.2624 142.61 80.3484 142.61 80.3484L162.326 60.6683L139.941 38.3248C135.642 34.0337 128.527 34.0337 124.228 38.3248L103.177 59.3366C101.25 61.2602 97.9884 61.2602 96.0612 59.3366L94.4305 57.7089C92.5034 55.7853 92.5034 52.53 94.4305 50.6063L98.4331 46.6111C100.36 44.6875 100.36 41.4322 98.4331 39.5086L96.8024 37.8809C94.8753 35.9573 91.6139 35.9573 89.6867 37.8809L75.1588 52.382C73.2317 54.3056 69.9703 54.3056 68.0431 52.382L62.4099 46.7591L57.5178 69.6945Z" fill="#FCD3C1"/><path d="M0.000259399 166.319V170.758C0.148506 188.81 2.81688 205.235 2.81688 215.593C2.81688 250.662 52.4785 241.488 52.4785 241.488L105.105 160.548L105.55 159.956C105.55 159.956 105.402 159.808 105.105 159.66C104.512 159.216 103.178 158.476 101.547 157.292C94.135 152.113 78.273 139.98 72.195 126.071C70.416 121.927 69.5266 117.784 69.8231 113.493C71.1572 96.4765 105.105 76.7964 105.105 76.7964C65.524 76.7964 32.3174 89.8178 16.9 109.942C13.0457 114.973 9.78435 120.448 7.41245 126.219C2.07568 138.944 0.296745 153.001 0.000259399 166.319Z" fill="#FCD3C1"/><path d="M102.289 346.546C62.1716 346.546 29.6499 314.084 29.6499 274.041C29.6499 233.997 62.1716 201.535 102.289 201.535C142.407 201.535 174.929 233.997 174.929 274.041C174.929 314.084 142.407 346.546 102.289 346.546Z" fill="#91BDE5"/><path d="M108.663 209.674C121.56 195.025 120.077 172.829 105.401 159.956C90.725 147.083 68.4884 148.562 55.5912 163.211C42.694 177.861 44.1765 200.056 58.8526 212.929C60.4833 214.409 62.2622 215.593 64.0411 216.777C65.9683 217.369 67.8955 218.256 69.6744 219.44C83.1646 224.323 98.7302 220.92 108.663 209.674Z" fill="#91BDE5"/><path d="M130.9 79.7557C131.345 80.1996 132.234 80.1996 132.827 79.7557L136.83 75.7605C137.274 75.3165 137.274 74.4287 136.83 73.8368C136.385 73.3929 135.495 73.3929 134.902 73.8368L130.9 77.832C130.307 78.4239 130.307 79.3117 130.9 79.7557Z" fill="#205CAA"/><path d="M99.6197 60.816H162.771L131.789 29.7422L99.6197 60.816Z" fill="#205CAA"/><path d="M74.8623 52.2331L34.8365 94.4047L53.0705 40.3955L74.8623 52.2331Z" fill="#205CAA"/><path d="M0.000679016 166.319V257.173H105.105V159.808C104.512 159.364 103.178 158.624 101.548 157.441C94.1354 152.262 78.4216 140.128 72.4918 126.219H7.41286C2.07609 138.944 0.297165 153.001 0.000679016 166.319Z" fill="#91BDE5"/><rect x="100" y="186.014" width="143" height="182.425" rx="16" fill="#FCD3C1"/><rect x="110.023" y="196.706" width="122.953" height="157.033" fill="white"/><path d="M180.996 236.557C179.441 238.137 174.776 242.877 174.776 242.877C174.037 243.616 173.017 244.253 172.049 244.253C170.978 244.253 169.882 243.641 169.015 242.877C166.67 240.787 164.58 238.774 162.438 236.557C159.685 233.703 159.634 229.192 162.438 226.389L162.464 226.364C164.656 224.172 168.123 224.198 170.8 226.364C171.564 226.975 172.151 227.103 172.941 226.364C175.235 224.223 178.702 224.172 180.894 226.364C183.877 229.294 183.8 233.728 180.996 236.557Z" fill="#F37972"/><rect x="150.117" y="180" width="42.7664" height="23.3878" rx="11.6939" fill="#FCD3C1"/><path d="M180.889 329.014H140.762M202.238 298.048H140.762M202.238 314.047H140.762M202.238 281.532H140.762M202.238 265.533H140.762" stroke="#8D9FD1" stroke-width="3"/><rect x="177.438" y="330.227" width="11.3574" height="11.3574" rx="5.6787" transform="rotate(-90 177.438 330.227)" fill="#FCD3C1"/><rect x="176.404" y="322.323" width="42.8484" height="12.6473" rx="6.32367" transform="rotate(-45 176.404 322.323)" fill="#8D9FD1"/><path d="M34.8365 94.405C34.8365 94.405 74.8623 95.1448 74.8623 52.3813H39.5803L34.8365 94.405Z" fill="#205CAA"/><path d="M34.8366 253.473C34.2437 274.041 50.847 290.91 71.4528 290.91H124.969C133.27 290.91 139.941 284.251 139.941 275.965C139.941 269.898 136.235 264.571 130.899 262.203H131.047C133.567 262.203 135.494 260.132 135.494 257.764C135.494 255.249 133.419 253.325 131.047 253.325L34.8366 253.473Z" fill="#FCD3C1"/><path d="M113.852 88.1904C110.738 93.9613 111.776 101.36 116.668 106.243C121.56 111.126 128.972 112.014 134.754 109.054" stroke="#205CAA" stroke-width="2.9919" stroke-miterlimit="10" stroke-linecap="round"/><path d="M74.2704 60.8158C74.2704 60.8158 73.8256 53.4173 89.3912 37.8804C104.957 22.3435 78.273 37.8804 78.273 37.8804L69.2301 50.6058L74.2704 60.8158Z" fill="#205CAA"/><path d="M33.6523 246.963C33.9488 247.259 34.3935 247.407 34.8383 247.407C35.7277 247.407 36.6172 246.667 36.6172 245.631V185.259C36.6172 184.371 35.876 183.483 34.8383 183.483C33.9488 183.483 33.0593 184.223 33.0593 185.259V245.631C33.0593 246.223 33.2076 246.667 33.6523 246.963Z" fill="#8D9FD1"/><path d="M77.0869 246.963C77.3834 247.259 77.8281 247.407 78.2729 247.407C79.1623 247.407 80.0518 246.667 80.0518 245.631V205.679C80.0518 204.791 79.3105 203.903 78.2729 203.903C77.3834 203.903 76.4939 204.643 76.4939 205.679V245.631C76.6422 246.223 76.7904 246.667 77.0869 246.963Z" fill="#8D9FD1"/></svg>