<svg width="1028" height="355" viewBox="0 0 1028 355" fill="none" xmlns="http://www.w3.org/2000/svg">
<path d="M1028 355C891.141 271.045 285.309 235.019 0 228V355H1028Z" fill="#8D9FD1"/>
<path d="M157.173 146.538C197.585 146.538 230.346 113.734 230.346 73.269C230.346 32.8036 197.585 0 157.173 0C116.761 0 84 32.8036 84 73.269C84 113.734 116.761 146.538 157.173 146.538Z" fill="#91BDE5"/>
<path d="M255.961 222.292C287.463 222.292 313 196.722 313 165.178C313 133.635 287.463 108.064 255.961 108.064C224.459 108.064 198.922 133.635 198.922 165.178C198.922 196.722 224.459 222.292 255.961 222.292Z" fill="#91BDE5"/>
<path d="M257.103 164.781H254.77V272H257.103V164.781Z" fill="#8D9FD1"/>
<path d="M270.923 193.441L269.273 191.789L255.408 205.673L257.058 207.325L270.923 193.441Z" fill="#8D9FD1"/>
<path d="M243.082 170.702L241.433 172.354L255.298 186.238L256.948 184.586L243.082 170.702Z" fill="#8D9FD1"/>
<path d="M171.89 102.351L170.24 100.699L156.374 114.582L158.024 116.234L171.89 102.351Z" fill="#8D9FD1"/>
<path d="M144.1 79.6241L142.45 81.2761L156.315 95.1596L157.965 93.5076L144.1 79.6241Z" fill="#8D9FD1"/>
<path d="M158.315 73.269H155.981V272H158.315V73.269Z" fill="#8D9FD1"/>
</svg>
