<svg width="1176" height="433" viewBox="0 0 1176 433" fill="none" xmlns="http://www.w3.org/2000/svg">
<g clip-path="url(#clip0)">
<path d="M919.719 146.538C879.335 146.538 846.597 113.734 846.597 73.269C846.597 32.8037 879.335 0 919.719 0C960.103 0 992.841 32.8037 992.841 73.269C992.841 113.734 960.103 146.538 919.719 146.538Z" fill="#91BDE5"/>
<path d="M821 222.292C789.52 222.292 764 196.721 764 165.178C764 133.635 789.52 108.064 821 108.064C852.48 108.064 877.999 133.635 877.999 165.178C877.999 196.721 852.48 222.292 821 222.292Z" fill="#91BDE5"/>
<path d="M819.859 164.781H822.19V272H819.859V164.781Z" fill="#8D9FD1"/>
<path d="M806.047 193.442L807.696 191.79L821.552 205.673L819.903 207.325L806.047 193.442Z" fill="#8D9FD1"/>
<path d="M833.869 170.702L835.518 172.354L821.662 186.238L820.013 184.586L833.869 170.702Z" fill="#8D9FD1"/>
<path d="M905.012 102.351L906.661 100.699L920.517 114.583L918.868 116.234L905.012 102.351Z" fill="#8D9FD1"/>
<path d="M932.783 79.6242L934.431 81.2761L920.576 95.1597L918.927 93.5077L932.783 79.6242Z" fill="#8D9FD1"/>
<path d="M918.578 73.269H920.909V272H918.578V73.269Z" fill="#8D9FD1"/>
</g>
<path d="M1176 194.226C774.315 242.3 49.3843 385.612 0 432L1176 432.226V194.226Z" fill="#91BDE5"/>
<defs>
<clipPath id="clip0">
<rect width="266" height="272" fill="white" transform="matrix(-1 0 0 1 993 0)"/>
</clipPath>
</defs>
</svg>
