<svg width="1787" height="549" viewBox="0 0 1787 549" fill="none" xmlns="http://www.w3.org/2000/svg">
    <circle cx="831.5" cy="370.5" r="178.5" fill="white"/>
    <path d="M1028 432C891.141 348.045 285.309 312.019 0 305V432H1028Z" fill="#8D9FD1"/>
    <path
        d="M445.338 71.6382V99.7075H444.912C444.895 99.6734 444.895 99.6222 444.878 99.588C444.844 99.4173 444.793 99.2636 444.742 99.11C444.69 98.9221 444.622 98.7343 444.571 98.5465C444.503 98.3416 444.418 98.1197 444.332 97.9319C444.264 97.727 444.179 97.5392 444.094 97.3513C444.009 97.1635 443.923 96.9757 443.821 96.7879C443.719 96.6001 443.634 96.4123 443.531 96.2245C443.429 96.0367 443.327 95.8489 443.207 95.6952C443.088 95.5074 442.969 95.3366 442.866 95.1659C442.866 95.1488 442.849 95.1488 442.849 95.1488C442.73 94.9781 442.611 94.8073 442.491 94.6537C442.355 94.4829 442.202 94.2951 442.048 94.1244L441.861 93.9024C441.792 93.8341 441.741 93.7488 441.673 93.6975C441.52 93.5439 441.383 93.3731 441.213 93.2366L433.525 85.7241L433.491 85.6899L433.44 85.6558L432.843 85.0753L432.246 84.4777C431.121 83.3508 431.121 81.541 432.246 80.4312L433.184 79.4921C433.218 79.458 433.286 79.3897 433.337 79.3555C433.389 79.3043 433.44 79.2531 433.508 79.236C433.61 79.1677 433.695 79.0994 433.798 79.0311C433.866 78.997 433.951 78.9458 434.036 78.9116C434.07 78.8946 434.105 78.8775 434.139 78.8775C434.343 78.7921 434.565 78.7409 434.769 78.7067C434.855 78.6897 434.923 78.6897 435.008 78.6897C435.076 78.6726 435.144 78.6726 435.213 78.6726C435.315 78.6726 435.417 78.6726 435.519 78.6897C435.588 78.7067 435.673 78.7067 435.741 78.7238C435.997 78.6726 436.252 78.6555 436.508 78.6555C437.258 78.6726 438.008 78.9628 438.588 79.4921L441.111 81.7971C441.486 82.1386 441.929 82.3776 442.406 82.5142C442.474 82.4971 442.543 82.4801 442.611 82.4459C442.628 82.4459 442.628 82.4288 442.628 82.4288C442.969 82.2922 443.293 82.0874 443.582 81.8142L444.537 80.858C444.963 80.4312 445.236 79.8848 445.338 79.3214V71.7236V71.6382Z"
        fill="#205CAA"/>
    <path d="M462.385 117.07L462.503 116.952L462.418 116.986C462.418 117.003 462.401 117.036 462.385 117.07Z" fill="#205CAA"/>
    <path d="M462.385 117.07L462.503 116.952L462.418 116.986C462.418 117.003 462.401 117.036 462.385 117.07Z" fill="#FCD3C1"/>
    <path d="M462.418 116.986C462.401 117.02 462.401 117.036 462.385 117.07L462.503 116.952L462.418 116.986Z" fill="#FCD3C1"/>
    <path
        d="M442.389 82.4288C443.446 82.719 444.673 82.48 445.509 81.7117L446.549 80.7555C446.6 80.7214 446.651 80.6702 446.685 80.6189V44.32L445.321 42.9541V79.236C445.219 79.7994 444.946 80.3458 444.52 80.7726L443.565 81.7287C443.276 82.019 442.969 82.2239 442.611 82.3434C442.611 82.3434 442.611 82.3605 442.594 82.3605C442.526 82.3775 442.457 82.4117 442.389 82.4288Z"
        fill="#205CAA"/>
    <path
        d="M432.212 84.3922L432.809 84.9898L433.406 85.5703L433.457 85.6044L433.491 85.6386L441.179 93.151C441.332 93.3047 441.486 93.4584 441.639 93.612C441.707 93.6803 441.759 93.7486 441.827 93.8169L442.014 94.0389C442.168 94.2267 442.321 94.3974 442.457 94.5853C442.577 94.7389 442.696 94.9097 442.815 95.0804C442.832 95.0975 442.832 95.0975 442.832 95.0975C442.952 95.2682 443.071 95.4389 443.173 95.6268C443.293 95.7975 443.395 95.9853 443.497 96.1731C443.6 96.3609 443.702 96.5487 443.787 96.7366C443.889 96.9244 443.975 97.1122 444.06 97.3C444.145 97.4878 444.23 97.6756 444.298 97.8805C444.384 98.0854 444.452 98.2903 444.537 98.4952C444.605 98.683 444.656 98.8708 444.725 99.0586C444.776 99.2123 444.827 99.383 444.861 99.5367C444.912 99.7415 444.963 99.9464 444.997 100.151C445.031 100.322 445.066 100.493 445.1 100.664C445.134 100.903 445.168 101.159 445.202 101.415C445.236 101.654 445.253 101.91 445.27 102.166C445.287 102.405 445.287 102.627 445.287 102.849V122.381C446.6 121.101 447.401 119.376 447.401 117.464V102.849C447.384 99.1781 445.781 95.6609 442.918 93.0998L434.514 85.5873L434.48 85.5532L434.429 85.502C434.002 85.1264 433.559 84.7337 433.116 84.3239C432.536 83.7946 432.23 83.1116 432.212 82.4116C432.178 81.6433 432.485 80.8579 433.116 80.2774L434.156 79.3213C434.599 78.9115 435.144 78.6554 435.724 78.5529C435.656 78.5359 435.571 78.5188 435.502 78.5188C435.4 78.5017 435.298 78.5017 435.196 78.5017C435.127 78.5017 435.059 78.5188 434.991 78.5188C434.906 78.5188 434.838 78.5188 434.752 78.5359C434.548 78.57 434.326 78.6212 434.122 78.7066C434.088 78.7237 434.054 78.7407 434.019 78.7407C433.934 78.7749 433.849 78.8261 433.781 78.8603C433.678 78.9286 433.576 78.9798 433.491 79.0651C433.423 79.0993 433.372 79.1334 433.321 79.1847C433.269 79.2188 433.218 79.2871 433.167 79.3213L432.23 80.2603C431.104 81.4726 431.104 83.2824 432.212 84.3922Z"
        fill="#205CAA"/>
    <path
        d="M452.736 58.4572L455.037 60.7622C455.327 61.0524 455.805 61.0524 456.111 60.7622C456.401 60.4719 456.401 59.9938 456.111 59.7036L453.81 57.3986C453.52 57.1083 453.043 57.1083 452.736 57.3986C452.446 57.6889 452.446 58.1669 452.736 58.4572Z"
        fill="#205CAA"/>
    <path d="M445.304 78.2798V79.2359C445.355 78.9115 445.355 78.5871 445.304 78.2798Z" fill="#205CAA"/>
    <path
        d="M402.944 73.0552V89.0875C402.944 96.7366 409.131 102.934 416.768 102.934H426.928C426.928 102.934 426.383 102.49 425.99 101.739L425.973 101.722C425.956 101.705 425.956 101.688 425.939 101.671C425.939 101.654 425.922 101.654 425.922 101.654L425.786 101.534L416.155 91.8876C411.245 85.6386 410.973 76.931 415.353 70.4088V70.3917C415.439 70.2722 415.524 70.1526 415.609 70.0161C415.694 69.8965 415.797 69.7599 415.865 69.6404C416.052 69.4014 416.24 69.1624 416.427 68.9233C416.802 68.4965 417.177 68.0696 417.587 67.6599L421.933 63.306L420.842 62.2133C418.865 60.2328 420.229 57.3643 422.905 56.6643C424.184 56.3228 426.212 55.7082 427.934 55.1618C428.138 55.0935 428.36 55.0252 428.547 54.9569C428.65 54.9228 428.752 54.8886 428.854 54.8716C429.008 54.8203 429.161 54.7691 429.315 54.7179C429.604 54.6155 429.877 54.5472 430.116 54.4618C430.286 54.4106 430.44 54.3594 430.576 54.3081C430.712 54.2569 430.815 54.2228 430.9 54.2057C431.002 54.1715 431.053 54.1545 431.053 54.1545L440.889 44.3199L442.253 42.954V79.2359C442.355 79.7994 442.628 80.3457 443.054 80.7726L444.009 81.7287C444.298 82.019 444.605 82.2238 444.963 82.3434C444.963 82.3434 444.963 82.3604 444.98 82.3604C445.048 82.3946 445.117 82.4116 445.185 82.4287C445.679 82.2921 446.105 82.0531 446.48 81.7116L449.003 79.4067C449.583 78.8774 450.333 78.5871 451.083 78.57C451.356 78.553 451.594 78.5871 451.85 78.6383C451.918 78.6213 452.003 78.6042 452.072 78.6042C452.174 78.5871 452.276 78.5871 452.378 78.5871C452.447 78.5871 452.515 78.6042 452.583 78.6042C452.668 78.6042 452.736 78.6042 452.822 78.6213C453.026 78.6554 453.248 78.7066 453.452 78.792C453.486 78.8091 453.52 78.8261 453.555 78.8261C453.64 78.8603 453.725 78.9115 453.793 78.9457C453.896 79.014 453.998 79.0652 454.083 79.1505C454.151 79.1847 454.202 79.2188 454.253 79.2701C454.305 79.3042 454.356 79.3725 454.407 79.4067L455.344 80.3457C456.47 81.4726 456.47 83.2824 455.344 84.3922L454.748 84.9898L454.151 85.5703L454.1 85.6045L454.066 85.6386L446.378 93.1511C446.225 93.3047 446.071 93.4584 445.918 93.6121C445.85 93.6804 445.798 93.7487 445.73 93.817L445.543 94.0389C445.389 94.2097 445.236 94.3975 445.1 94.5682C444.963 94.7219 444.861 94.8926 444.742 95.0634C444.725 95.0804 444.725 95.0804 444.725 95.0804C444.605 95.2512 444.486 95.4219 444.384 95.6097C444.264 95.7805 444.162 95.9683 444.06 96.139C443.957 96.3097 443.855 96.5146 443.77 96.7024C443.668 96.8903 443.582 97.0781 443.497 97.2659C443.412 97.4537 443.327 97.6415 443.259 97.8464C443.173 98.0513 443.105 98.2562 443.02 98.461C442.952 98.6489 442.901 98.8367 442.849 99.0245C442.798 99.1781 442.747 99.3489 442.713 99.5025C442.696 99.5367 442.696 99.5708 442.679 99.6221C442.645 99.7928 442.611 99.9635 442.577 100.134C442.543 100.305 442.508 100.476 442.474 100.646C442.44 100.886 442.406 101.142 442.372 101.398C442.338 101.637 442.321 101.893 442.304 102.149C442.287 102.388 442.287 102.61 442.287 102.832V122.364C443.719 123.782 445.781 124.669 448.049 124.669H471.317C478.681 124.669 484.664 119.189 484.664 112.445V73.4991C484.664 72.2527 484.596 71.0063 484.477 69.7941C483.539 60.2327 478.988 51.5934 472.067 45.0883L471.198 44.2858L471.164 44.2517C468.385 41.7759 465.231 39.6246 461.805 37.9002C456.043 34.9806 449.48 33.222 442.491 33H442.474L440.77 33.0341H440.736C419.666 34.1952 402.944 51.6788 402.944 73.0552Z"
        fill="#205CAA"/>
    <path d="M461.822 101.517L471.436 91.8877L461.822 101.517Z" fill="#205CAA"/>
    <path d="M433.457 85.6216L433.508 85.6557L441.196 93.1682L433.508 85.6387L433.457 85.6216Z" fill="#205CAA"/>
    <path d="M432.809 84.9897L433.406 85.5703V85.5532C433.218 85.3824 433.014 85.1946 432.809 84.9897Z" fill="#205CAA"/>
    <path d="M461.686 101.653L461.821 101.534L461.719 101.568C461.703 101.585 461.703 101.619 461.686 101.653Z" fill="#205CAA"/>
    <path d="M427.644 124.772V125.233C427.644 125.25 427.644 125.25 427.644 125.25V125.404H466.135C462.163 121.63 456.777 119.308 450.861 119.308H445.321V124.789H427.644V124.772Z" fill="#FCD3C1"/>
    <path
        d="M452.737 57.3986C453.026 57.1083 453.504 57.1083 453.794 57.3986L456.095 59.7035C456.385 59.9938 456.385 60.4718 456.095 60.7621C455.805 61.0524 455.328 61.0524 455.021 60.7621L452.737 58.4571C452.447 58.1669 452.447 57.6888 452.737 57.3986ZM466.357 125.387H466.135C462.163 121.613 456.777 119.291 450.862 119.291H445.321V102.917C445.321 102.678 445.304 102.456 445.304 102.234C445.287 101.978 445.27 101.722 445.236 101.483C445.202 101.227 445.168 100.971 445.134 100.732C445.117 100.544 445.083 100.39 445.032 100.22C444.998 100.015 444.946 99.7929 444.895 99.6051C444.861 99.4343 444.81 99.2807 444.759 99.1099C444.708 98.9221 444.64 98.7343 444.588 98.5465C444.52 98.3416 444.435 98.1196 444.35 97.9318C444.282 97.7269 444.196 97.5391 444.111 97.3513C444.026 97.1635 443.924 96.9757 443.838 96.7879C443.736 96.6001 443.651 96.4123 443.549 96.2244C443.446 96.0537 443.344 95.8488 443.225 95.6781C443.105 95.4903 442.986 95.3195 442.884 95.1488C442.884 95.1317 442.867 95.1317 442.867 95.1317C442.747 94.961 442.628 94.7902 442.509 94.6366C442.372 94.4488 442.219 94.278 442.066 94.0902L441.878 93.8683C441.81 93.8 441.759 93.7146 441.691 93.6634C441.537 93.5097 441.401 93.339 441.23 93.2024L433.525 85.6899L433.491 85.6557L433.44 85.6216L432.843 85.0411L432.247 84.4435C431.122 83.3166 431.122 81.5068 432.247 80.397L433.184 79.4579C433.218 79.4238 433.287 79.3555 433.338 79.3214C433.389 79.2701 433.44 79.2189 433.508 79.2018C433.61 79.1335 433.696 79.0652 433.798 78.9969C433.866 78.9628 433.951 78.9116 434.037 78.8774C434.071 78.8604 434.105 78.8433 434.139 78.8433C434.343 78.7579 434.565 78.7067 434.77 78.6725C434.855 78.6555 434.923 78.6555 435.008 78.6555C435.076 78.6384 435.145 78.6384 435.213 78.6384C435.315 78.6384 435.417 78.6384 435.52 78.6555C435.588 78.6725 435.673 78.6725 435.741 78.6896C436.287 78.775 436.798 79.0311 437.241 79.475L439.543 81.78C439.594 81.8312 439.662 81.8995 439.73 81.9336C439.781 81.9849 439.849 82.0361 439.918 82.0702C439.952 82.1044 439.986 82.1215 440.02 82.1385C440.088 82.1727 440.139 82.2068 440.19 82.241C440.207 82.258 440.225 82.2751 440.259 82.2751C440.276 82.2922 440.293 82.2922 440.31 82.3093C440.327 82.3263 440.344 82.3263 440.378 82.3434C440.412 82.3605 440.48 82.3776 440.514 82.3946C440.6 82.4288 440.685 82.4629 440.77 82.4971C440.787 82.4971 440.787 82.4971 440.787 82.4971C440.855 82.5142 440.906 82.5312 440.975 82.5312C440.992 82.5483 441.026 82.5483 441.043 82.5483C441.128 82.5825 441.213 82.5825 441.298 82.5995H441.315C441.691 82.6337 442.083 82.5995 442.441 82.48C442.509 82.4629 442.577 82.4459 442.645 82.4117C442.662 82.4117 442.662 82.3946 442.662 82.3946C443.003 82.2751 443.327 82.0532 443.617 81.78L444.571 80.8238C444.998 80.397 445.27 79.8506 445.373 79.2872C445.424 78.9628 445.424 78.6555 445.373 78.3311V42.9541L446.736 44.32L456.572 54.1716C456.572 54.1716 456.623 54.1887 456.726 54.2058C456.794 54.2399 456.913 54.274 457.049 54.3082C457.169 54.3423 457.339 54.4106 457.51 54.4619C457.748 54.5302 458.021 54.6155 458.311 54.718C458.464 54.7692 458.601 54.8204 458.771 54.8716C458.873 54.9058 458.976 54.9399 459.078 54.9741C459.282 55.0424 459.487 55.1107 459.692 55.179C461.413 55.7253 463.425 56.34 464.72 56.6815C467.414 57.3815 468.76 60.267 466.783 62.2304L465.692 63.3232L470.039 67.677C470.448 68.0868 470.823 68.5136 471.198 68.9405C471.385 69.1795 471.573 69.4185 471.76 69.6576C471.846 69.7771 471.931 69.9137 472.016 70.0332C472.118 70.1527 472.204 70.2722 472.272 70.4088C472.289 70.4088 472.289 70.4259 472.289 70.4259C476.67 76.9481 476.397 85.6557 471.488 91.9048L461.856 101.551L461.754 101.586C461.737 101.62 461.737 101.654 461.72 101.688C461.72 101.705 461.703 101.705 461.703 101.705C461.686 101.722 461.686 101.739 461.669 101.756L461.652 101.773L460.595 102.969H460.561C458.584 105.342 457.407 108.398 457.407 111.727C457.407 116.218 459.572 120.196 462.913 122.689C463.271 122.962 463.646 123.201 464.038 123.44L466.357 125.387Z"
        fill="#FCD3C1"/>
    <path d="M461.686 101.653L461.821 101.534L461.72 101.568C461.703 101.585 461.703 101.619 461.686 101.653Z" fill="#FCD3C1"/>
    <path
        d="M452.736 58.4572L455.037 60.7622C455.327 61.0524 455.805 61.0524 456.111 60.7622C456.401 60.4719 456.401 59.9938 456.111 59.7036L453.81 57.3986C453.52 57.1083 453.043 57.1083 452.736 57.3986C452.446 57.6889 452.446 58.1669 452.736 58.4572Z"
        fill="#FCD3C1"/>
    <path
        d="M452.736 58.4572L455.037 60.7622C455.327 61.0524 455.805 61.0524 456.111 60.7622C456.401 60.4719 456.401 59.9938 456.111 59.7036L453.81 57.3986C453.52 57.1083 453.043 57.1083 452.736 57.3986C452.446 57.6889 452.446 58.1669 452.736 58.4572Z"
        fill="#205CAA"/>
    <path
        d="M466.305 73.4308C468.743 73.4308 471.146 72.4746 472.97 70.6477C475.919 67.694 476.584 63.2377 474.658 59.5497C474.488 59.2253 474.078 59.0887 473.738 59.2595C473.414 59.4302 473.277 59.84 473.448 60.1815C475.101 63.3401 474.522 67.1647 471.999 69.6916C469.476 72.2185 465.657 72.799 462.504 71.1429C462.18 70.9721 461.771 71.0916 461.583 71.4331C461.413 71.7575 461.532 72.1673 461.873 72.3551C463.288 73.0722 464.805 73.4308 466.305 73.4308Z"
        fill="#205CAA"/>
    <path d="M440.258 337.324H414.092V225.456C414.092 216.048 421.712 208.417 431.104 208.417H440.258V337.324Z" fill="#FCD3C1"/>
    <path d="M474.607 337.324H448.458V225.456C448.458 216.048 456.078 208.417 465.47 208.417H474.624V337.324H474.607Z" fill="#FCD3C1"/>
    <path
        d="M578.795 133.121L526.377 185.623C519.967 192.043 509.586 192.043 503.194 185.623L450.776 133.121L461.259 122.62C465.692 118.181 472.868 118.181 477.3 122.62L509.842 155.231C512.569 157.963 517.018 157.963 519.746 155.231L560.316 114.596L578.795 133.121Z"
        fill="#8D9FD1"/>
    <path d="M484.665 210.994H403.268V137.594C403.268 127.486 411.45 119.291 421.541 119.291H466.374C476.465 119.291 484.647 127.486 484.647 137.594V210.994H484.665Z" fill="#8D9FD1"/>
    <path d="M403.268 210.397H484.665V243.298C484.665 250.452 478.869 256.24 471.743 256.24H416.189C409.046 256.24 403.268 250.435 403.268 243.298V210.397Z" fill="#205CAA"/>
    <path d="M383.408 238.159L394.403 249.172L369.891 273.724C364.657 278.965 356.151 278.965 350.918 273.724L349.418 272.221L381.107 240.481L383.408 238.159Z" fill="#8D9FD1"/>
    <path d="M349.009 351H333.462V316.289C333.462 308.862 339.463 302.852 346.878 302.852H349.009V347.739V351Z" fill="#FCD3C1"/>
    <path d="M367.64 351H352.094V316.289C352.094 308.862 358.094 302.852 365.509 302.852H367.64V347.739V351Z" fill="#FCD3C1"/>
    <path d="M317.285 325.321L306.307 314.308L330.82 289.756C336.053 284.515 344.559 284.515 349.793 289.756L351.293 291.259L319.603 322.999L317.285 325.321Z" fill="#8D9FD1"/>
    <path
        d="M358.947 334.643H341.559C334.502 334.643 328.792 328.906 328.792 321.855V297.542C328.792 290.473 334.519 284.754 341.559 284.754L372.072 268.704L371.715 321.872C371.732 328.924 366.004 334.643 358.947 334.643Z"
        fill="#8D9FD1"/>
    <path
        d="M370.061 285.608L361.094 294.589C355.179 300.513 345.582 300.513 339.667 294.589L330.104 285.01C324.189 279.086 324.189 269.473 330.104 263.549L339.07 254.568C344.985 248.643 354.583 248.643 360.498 254.568L370.061 264.146C375.976 270.088 375.976 279.683 370.061 285.608Z"
        fill="#FCD3C1"/>
    <path
        d="M350.918 276.609C350.662 276.865 350.236 276.865 349.98 276.609L347.952 274.577C347.696 274.321 347.696 273.894 347.952 273.638C348.207 273.382 348.633 273.382 348.889 273.638L350.918 275.67C351.173 275.926 351.173 276.353 350.918 276.609Z"
        fill="#205CAA"/>
    <path
        d="M360.924 266.587C360.668 266.843 360.242 266.843 359.987 266.587L357.958 264.555C357.702 264.299 357.702 263.872 357.958 263.616C358.214 263.36 358.64 263.36 358.896 263.616L360.924 265.648C361.18 265.904 361.18 266.331 360.924 266.587Z"
        fill="#205CAA"/>
    <path
        d="M363.685 279.614C362.032 281.27 359.935 282.329 357.617 282.653C355.384 282.978 353.048 282.568 351.054 281.526C350.73 281.356 350.611 280.946 350.781 280.622C350.952 280.297 351.361 280.178 351.685 280.348C353.423 281.27 355.469 281.612 357.429 281.339C359.458 281.048 361.299 280.126 362.748 278.675C364.197 277.224 365.117 275.38 365.407 273.348C365.697 271.385 365.339 269.336 364.418 267.594C364.248 267.27 364.367 266.86 364.691 266.689C365.015 266.519 365.424 266.638 365.595 266.963C366.634 268.96 367.044 271.282 366.72 273.536C366.396 275.858 365.339 277.958 363.685 279.614Z"
        fill="#205CAA"/>
    <path
        d="M345.735 251.699C347.832 253.799 347.832 257.213 345.735 259.331L341.269 263.804C339.701 265.375 337.161 265.375 335.576 263.804C334.007 262.233 334.007 259.689 335.576 258.101L339.582 254.089C340.656 253.013 341.201 251.579 341.201 250.162C342.82 249.94 344.508 250.452 345.735 251.699Z"
        fill="#205CAA"/>
    <path
        d="M344.815 286.188C343.997 287.007 342.65 287.007 341.832 286.188L338.593 282.944C337.775 282.124 337.775 280.775 338.593 279.956C338.849 279.7 339.275 279.7 339.53 279.956C339.786 280.212 339.786 280.639 339.53 280.895C339.224 281.202 339.224 281.697 339.53 282.005L342.769 285.249C343.076 285.556 343.57 285.556 343.877 285.249C344.133 284.993 344.559 284.993 344.815 285.249C345.071 285.505 345.071 285.932 344.815 286.188Z"
        fill="#205CAA"/>
    <path
        d="M348.855 351H332.934C332.064 351 331.349 350.283 331.349 349.412V345.827C331.349 344.956 332.064 344.239 332.934 344.239H348.855C349.725 344.239 350.441 344.956 350.441 345.827V349.412C350.441 350.283 349.725 351 348.855 351Z"
        fill="#205CAA"/>
    <path
        d="M367.981 351H352.043C351.173 351 350.457 350.283 350.457 349.412V345.827C350.457 344.956 351.173 344.239 352.043 344.239H367.981C368.851 344.239 369.567 344.956 369.567 345.827V349.412C369.567 350.283 368.851 351 367.981 351Z"
        fill="#205CAA"/>
    <path
        d="M439.167 350.983H414.433C411.791 350.983 409.643 348.832 409.643 346.185V339.134C409.643 336.487 411.791 334.336 414.433 334.336H439.184C441.826 334.336 443.974 336.487 443.974 339.134V346.168C443.957 348.832 441.809 350.983 439.167 350.983Z"
        fill="#205CAA"/>
    <path d="M414.092 225.917H387.943V146.012C387.943 131.55 399.654 119.803 414.109 119.803V225.917H414.092Z" fill="#8D9FD1"/>
    <path d="M481.647 350.983H453.231C450.589 350.983 448.441 348.832 448.441 346.185V334.353H474.607C481.136 334.353 486.42 339.646 486.42 346.185C486.437 348.832 484.29 350.983 481.647 350.983Z" fill="#205CAA"/>
    <path d="M474.624 317.706H448.458V334.336H474.624V317.706Z" fill="#8D9FD1"/>
    <path d="M440.258 317.706H414.092V334.336H440.258V317.706Z" fill="#8D9FD1"/>
    <path
        d="M484.664 73.0552V89.0875C484.664 96.7366 478.477 102.934 470.84 102.934H460.68C460.68 102.934 461.225 102.49 461.618 101.739L461.635 101.722C461.652 101.705 461.652 101.688 461.669 101.671C461.669 101.654 461.686 101.654 461.686 101.654L461.822 101.534L471.453 91.8876C476.363 85.6386 476.635 76.931 472.255 70.4088V70.3917C472.169 70.2722 472.084 70.1526 471.999 70.0161C471.914 69.8965 471.811 69.7599 471.743 69.6404C471.556 69.4014 471.368 69.1624 471.181 68.9233C470.806 68.4965 470.431 68.0696 470.021 67.6599L465.675 63.306L466.766 62.2133C468.743 60.2328 467.379 57.3644 464.703 56.6643C463.424 56.3228 461.396 55.7082 459.674 55.1618C459.47 55.0935 459.248 55.0252 459.061 54.9569C458.958 54.9228 458.856 54.8886 458.754 54.8716C458.6 54.8204 458.447 54.7691 458.293 54.7179C458.004 54.6155 457.731 54.5472 457.492 54.4618C457.322 54.4106 457.168 54.3594 457.032 54.3081C456.896 54.2569 456.793 54.2228 456.708 54.2057C456.606 54.1715 456.555 54.1545 456.555 54.1545L446.719 44.3199L445.355 42.954V79.2359C445.253 79.7994 444.98 80.3457 444.554 80.7726L443.599 81.7287C443.31 82.019 443.003 82.2238 442.645 82.3434C442.645 82.3434 442.645 82.3604 442.628 82.3604C442.56 82.3946 442.491 82.4117 442.423 82.4287C441.929 82.2921 441.503 82.0531 441.128 81.7116L438.605 79.4067C438.025 78.8774 437.275 78.5871 436.525 78.57C436.252 78.553 436.014 78.5871 435.758 78.6383C435.69 78.6213 435.605 78.6042 435.536 78.6042C435.434 78.5871 435.332 78.5871 435.23 78.5871C435.161 78.5871 435.093 78.6042 435.025 78.6042C434.94 78.6042 434.872 78.6042 434.786 78.6213C434.582 78.6554 434.36 78.7066 434.156 78.792C434.122 78.8091 434.088 78.8261 434.053 78.8261C433.968 78.8603 433.883 78.9115 433.815 78.9457C433.712 79.014 433.61 79.0652 433.525 79.1506C433.457 79.1847 433.406 79.2188 433.355 79.2701C433.303 79.3042 433.252 79.3725 433.201 79.4067L432.264 80.3457C431.138 81.4726 431.138 83.2824 432.264 84.3922L432.86 84.9898L433.457 85.5703L433.508 85.6045L433.542 85.6386L441.23 93.1511C441.383 93.3048 441.537 93.4584 441.69 93.6121C441.758 93.6804 441.81 93.7487 441.878 93.817L442.065 94.0389C442.219 94.2097 442.372 94.3975 442.508 94.5682C442.645 94.7219 442.747 94.8926 442.866 95.0634C442.883 95.0804 442.883 95.0804 442.883 95.0804C443.003 95.2512 443.122 95.4219 443.224 95.6097C443.344 95.7805 443.446 95.9683 443.548 96.139C443.651 96.3097 443.753 96.5146 443.838 96.7024C443.94 96.8903 444.026 97.0781 444.111 97.2659C444.196 97.4537 444.281 97.6415 444.349 97.8464C444.435 98.0513 444.503 98.2562 444.588 98.4611C444.656 98.6489 444.707 98.8367 444.759 99.0245C444.81 99.1782 444.861 99.3489 444.895 99.5026C444.912 99.5367 444.912 99.5709 444.929 99.6221C444.963 99.7928 444.997 99.9635 445.031 100.134C445.065 100.305 445.1 100.476 445.134 100.646C445.168 100.886 445.202 101.142 445.236 101.398C445.27 101.637 445.287 101.893 445.304 102.149C445.321 102.388 445.321 102.61 445.321 102.832V118.881C445.321 122.057 442.781 124.652 439.628 124.686C439.611 124.686 439.576 124.686 439.559 124.686H416.291C408.927 124.686 402.944 119.206 402.944 112.462V73.4991C402.944 72.2527 403.012 71.0063 403.131 69.7941C404.069 60.2328 408.62 51.5934 415.541 45.0883L416.427 44.2687L416.461 44.2346C419.24 41.7589 422.394 39.6076 425.82 37.8831C431.565 34.9806 438.128 33.222 445.117 33H445.134L446.838 33.0341H446.872C467.942 34.1952 484.664 51.6788 484.664 73.0552Z"
        fill="#205CAA"/>
    <path
        d="M306.307 314.308L317.302 325.321L313.313 329.316C310.893 331.741 306.972 331.741 304.569 329.316C302.779 327.523 302.318 324.877 303.188 322.657L303.171 322.675C302.455 323.392 301.279 323.392 300.546 322.675C299.83 321.957 299.83 320.779 300.546 320.062L306.307 314.308Z"
        fill="#FCD3C1"/>
    <path
        d="M383.408 238.159L394.403 249.172L398.392 245.176C400.813 242.752 400.813 238.825 398.392 236.418C396.602 234.625 393.96 234.164 391.744 235.035L391.761 235.018C392.477 234.3 392.477 233.122 391.761 232.388C391.045 231.671 389.869 231.671 389.153 232.388L383.408 238.159Z"
        fill="#FCD3C1"/>
    <path
        d="M414.092 225.917V239.61C414.092 240.635 413.615 241.625 412.763 242.206C412.268 242.547 411.672 242.735 411.024 242.735C409.302 242.735 407.904 241.335 407.904 239.61V239.559C406.95 241.745 405.279 243.554 403.182 244.647C401.734 245.416 400.097 245.842 398.341 245.842C396.603 245.842 394.949 245.416 393.5 244.647C390.193 242.906 387.926 239.423 387.926 235.41V225.917H414.092Z"
        fill="#FCD3C1"/>
    <path
        d="M559.754 115.159L569.42 105.478C570.136 104.761 571.175 104.386 572.181 104.591C572.761 104.71 573.323 104.983 573.783 105.444C574.994 106.656 574.994 108.637 573.783 109.866L573.749 109.9C575.965 109.03 578.42 108.944 580.687 109.644C582.256 110.122 583.722 110.993 584.949 112.223C586.176 113.452 587.046 114.937 587.523 116.491C588.631 120.076 587.779 124.14 584.949 126.974L578.25 133.684L559.754 115.159Z"
        fill="#FCD3C1"/>
    <path d="M1787 194.226C1385.32 242.3 660.384 385.612 611 432L1787 432.226V194.226Z" fill="#91BDE5"/>
    <g clip-path="url(#clip0)">
        <circle cx="1200" cy="300" r="48" fill="#91BDE5"/>
        <path d="M1012.43 331.343L998.268 335.099V348.725H982.212C977.128 348.725 973.019 344.585 973.019 339.488V299.647C973.019 296.696 976.574 295.22 978.657 297.309L1012.43 331.343Z" fill="#E8E7F4"/>
        <path d="M1180.88 311.586H992.706V348.706H1180.88V311.586Z" fill="#8D9FD1"/>
        <path
            d="M1272.5 163.184V206.991C1272.5 214.561 1265.8 220.713 1257.54 220.713H1231.47C1228.91 220.713 1226.61 219.716 1225.01 218.125V196.202C1225.01 195.934 1225.03 195.685 1225.03 195.436C1225.05 195.148 1225.07 194.861 1225.1 194.593C1225.14 194.305 1225.18 194.018 1225.22 193.749C1225.24 193.539 1225.28 193.366 1225.33 193.175C1225.37 192.945 1225.43 192.696 1225.49 192.485C1225.52 192.293 1225.58 192.121 1225.64 191.948C1225.7 191.737 1225.77 191.527 1225.83 191.316C1225.91 191.086 1226 190.837 1226.1 190.607C1226.17 190.377 1226.27 190.166 1226.37 189.955C1226.46 189.744 1226.58 189.534 1226.67 189.323C1226.79 189.112 1226.88 188.901 1227 188.69C1227.11 188.48 1227.23 188.269 1227.36 188.077C1227.49 187.885 1227.63 187.675 1227.74 187.483C1227.74 187.464 1227.76 187.464 1227.76 187.464C1227.89 187.272 1228.03 187.081 1228.16 186.908C1228.31 186.697 1228.49 186.506 1228.66 186.295L1228.87 186.046C1228.95 185.969 1229 185.873 1229.08 185.816C1229.25 185.643 1229.4 185.452 1229.6 185.298L1233.93 181.063L1238.22 176.866L1238.25 176.828L1238.31 176.79L1238.98 176.138L1239.65 175.468C1240.91 174.203 1240.91 172.171 1239.65 170.907L1238.6 169.853C1238.56 169.814 1238.48 169.738 1238.43 169.699C1238.37 169.642 1238.31 169.584 1238.23 169.546C1238.12 169.469 1238.02 169.393 1237.91 169.316C1237.83 169.278 1237.74 169.22 1237.64 169.182C1237.6 169.163 1237.57 169.144 1237.53 169.144C1237.3 169.048 1237.05 168.99 1236.82 168.952C1236.72 168.933 1236.65 168.933 1236.55 168.933C1236.48 168.914 1236.4 168.914 1236.32 168.914C1236.21 168.914 1236.09 168.914 1235.98 168.933C1235.9 168.952 1235.81 168.952 1235.73 168.971C1235.44 168.914 1235.16 168.894 1234.87 168.894C1234.55 168.914 1234.22 168.952 1233.91 169.048C1233.42 169.201 1232.94 169.469 1232.54 169.833L1229.71 172.421C1229.29 172.804 1228.79 173.072 1228.26 173.225C1228.18 173.206 1228.1 173.187 1228.03 173.149C1228.01 173.149 1228.01 173.13 1228.01 173.13C1227.61 172.995 1227.26 172.746 1226.94 172.44L1225.87 171.367C1225.39 170.887 1225.08 170.274 1224.97 169.642V128.9L1223.44 130.433L1212.41 141.471C1212.41 141.471 1212.36 141.491 1212.24 141.529C1212.14 141.548 1212.03 141.586 1211.88 141.644C1211.74 141.682 1211.55 141.759 1211.38 141.816C1211.11 141.893 1210.81 141.989 1210.48 142.104C1210.31 142.161 1210.16 142.219 1209.97 142.276C1209.85 142.315 1209.74 142.353 1209.62 142.391C1209.39 142.468 1209.16 142.545 1208.91 142.621C1206.98 143.235 1204.73 143.924 1203.28 144.308C1200.26 145.093 1198.75 148.332 1200.96 150.536L1202.19 151.762L1197.29 156.649C1196.84 157.109 1196.41 157.588 1195.99 158.067C1195.78 158.335 1195.57 158.604 1195.36 158.872C1195.27 159.006 1195.15 159.159 1195.08 159.294C1194.96 159.447 1194.87 159.562 1194.77 159.715V159.734C1194.12 160.692 1193.59 161.689 1193.13 162.705H1180.86C1180.86 138.712 1199.61 119.089 1223.23 117.785H1223.27L1225.18 117.747H1225.2C1233.04 117.996 1240.39 119.97 1246.85 123.228C1250.7 125.163 1254.21 127.578 1257.35 130.357L1257.39 130.395L1258.36 131.296C1266.12 138.597 1271.22 148.294 1272.28 159.025C1272.43 160.386 1272.5 161.785 1272.5 163.184Z"
            fill="#205CAA"/>
        <path d="M1121.55 331.88L1102.45 351.024C1095.73 358.364 1091.62 357.444 1085.48 357.444H1050.24C1047.29 357.444 1045.82 353.88 1047.9 351.791L1081.83 317.91L1085.52 331.899L1106.45 326.323L1121.55 331.88Z"
              fill="#E8E7F4"/>
        <path d="M1301.86 310.015H1191.33V348.725H1301.86V310.015Z" fill="#205CAA"/>
        <path
            d="M1073.8 325.786L1113.5 285.983L1133.51 265.919C1137.34 262.087 1143.53 262.087 1147.35 265.919L1167.36 285.983L1200.14 318.849C1203.96 322.681 1203.96 328.89 1200.14 332.723L1187.05 345.85C1183.23 349.683 1177.03 349.683 1173.21 345.85L1147.35 319.922C1143.53 316.089 1137.34 316.089 1133.51 319.922L1100.73 352.787L1073.8 325.786Z"
            fill="#8D9FD1"/>
        <path
            d="M1225.01 196.202V218.125C1226.61 219.716 1228.93 220.712 1231.47 220.712H1233.95V239.991H1180.88V162.705H1225.01V169.623C1225.12 170.255 1225.43 170.868 1225.91 171.347L1226.98 172.42C1227.3 172.746 1227.65 172.976 1228.05 173.11C1228.05 173.11 1228.05 173.13 1228.07 173.13C1228.14 173.168 1228.22 173.187 1228.3 173.206C1228.83 173.053 1229.33 172.785 1229.75 172.401L1232.58 169.814C1232.98 169.45 1233.46 169.182 1233.95 169.029V181.025L1229.61 185.26C1229.44 185.432 1229.27 185.605 1229.1 185.777C1229.02 185.854 1228.96 185.931 1228.89 186.007L1228.68 186.257C1228.51 186.467 1228.33 186.659 1228.18 186.87C1228.05 187.042 1227.91 187.234 1227.78 187.425C1227.76 187.445 1227.76 187.445 1227.76 187.445C1227.63 187.636 1227.49 187.828 1227.38 188.039C1227.24 188.23 1227.13 188.441 1227.02 188.652C1226.9 188.844 1226.79 189.074 1226.69 189.284C1226.59 189.495 1226.48 189.706 1226.38 189.917C1226.29 190.128 1226.19 190.338 1226.12 190.568C1226.02 190.798 1225.94 191.028 1225.85 191.277C1225.77 191.488 1225.72 191.699 1225.66 191.91C1225.6 192.082 1225.54 192.274 1225.51 192.446C1225.45 192.676 1225.39 192.906 1225.35 193.136C1225.31 193.328 1225.28 193.519 1225.24 193.711C1225.2 193.979 1225.16 194.267 1225.12 194.554C1225.08 194.823 1225.07 195.11 1225.05 195.398C1225.03 195.704 1225.01 195.953 1225.01 196.202Z"
            fill="#205CAA"/>
        <path
            d="M1233.95 162.705V169.029C1233.46 169.182 1232.98 169.45 1232.58 169.814L1229.75 172.401C1229.33 172.785 1228.83 173.053 1228.3 173.206C1228.22 173.187 1228.14 173.168 1228.07 173.13C1228.05 173.13 1228.05 173.11 1228.05 173.11C1227.65 172.976 1227.3 172.727 1226.98 172.42L1225.91 171.347C1225.43 170.868 1225.12 170.255 1225.01 169.623V162.705H1233.95Z"
            fill="#205CAA"/>
        <path
            d="M1229.61 185.279L1233.95 181.044V220.732H1231.47C1228.91 220.732 1226.61 219.735 1225.01 218.145V196.203C1225.01 195.934 1225.03 195.685 1225.03 195.436C1225.05 195.149 1225.07 194.861 1225.1 194.593C1225.14 194.305 1225.18 194.018 1225.22 193.75C1225.24 193.539 1225.28 193.366 1225.33 193.175C1225.37 192.945 1225.43 192.696 1225.49 192.485C1225.52 192.293 1225.58 192.121 1225.64 191.948C1225.7 191.737 1225.77 191.527 1225.83 191.316C1225.91 191.086 1226 190.837 1226.1 190.607C1226.17 190.377 1226.27 190.166 1226.37 189.955C1226.46 189.744 1226.58 189.534 1226.67 189.323C1226.79 189.112 1226.88 188.901 1227 188.69C1227.11 188.48 1227.23 188.269 1227.36 188.077C1227.49 187.886 1227.63 187.675 1227.74 187.483C1227.74 187.464 1227.76 187.464 1227.76 187.464C1227.89 187.272 1228.03 187.081 1228.16 186.908C1228.31 186.697 1228.49 186.506 1228.66 186.295L1228.87 186.046C1228.95 185.969 1229 185.873 1229.08 185.816C1229.27 185.624 1229.44 185.452 1229.61 185.279Z"
            fill="#205CAA"/>
        <path d="M1248.75 178.764H1227V212.3H1248.75V178.764Z" fill="#205CAA"/>
        <path d="M1328.35 167.706H1285.98V219.486H1328.35V167.706Z" fill="#FCD3C1"/>
        <path
            d="M1280.42 145.783V149.52C1280.42 149.999 1280.04 150.382 1279.56 150.382C1279.08 150.382 1278.7 149.999 1278.7 149.52V145.783C1278.7 145.304 1279.08 144.921 1279.56 144.921C1280.04 144.921 1280.42 145.304 1280.42 145.783Z"
            fill="#005CB0"/>
        <path
            d="M1282.73 163.739C1281.35 168.205 1277.28 171.194 1272.64 171.213V177.959C1272.62 177.786 1272.62 177.595 1272.62 177.403V162.034H1272.64V169.699C1276.63 169.699 1280.11 167.131 1281.28 163.299C1281.41 162.896 1281.83 162.666 1282.23 162.8C1282.63 162.915 1282.86 163.337 1282.73 163.739Z"
            fill="#005CB0"/>
        <path
            d="M1328.35 117.115V165.388C1328.35 167.189 1326.9 168.665 1325.09 168.665H1319.91C1318.09 168.665 1316.64 167.189 1316.64 165.388V142.219C1316.64 140.398 1315.18 138.942 1313.37 138.942H1311.84C1310.02 138.942 1308.57 140.418 1308.57 142.219V151.111C1308.57 152.912 1307.1 154.388 1305.3 154.388H1303.77C1301.96 154.388 1300.51 152.912 1300.51 151.111V136.336C1300.51 132.331 1297.26 129.073 1293.24 129.073H1272.62V147.259L1272.6 147.278V128.9C1265.45 128.9 1259.62 123.17 1259.62 116.157C1259.62 112.017 1261.63 108.338 1264.74 106.019C1267.15 108.395 1270.5 109.871 1274.17 109.871H1320.96C1325.05 109.852 1328.35 113.09 1328.35 117.115Z"
            fill="#005CB0"/>
        <path
            d="M1328.35 182.366V165.388C1328.35 167.189 1326.9 168.665 1325.09 168.665H1319.91C1318.09 168.665 1316.64 167.189 1316.64 165.388V142.219C1316.64 140.398 1315.18 138.942 1313.37 138.942H1311.84C1310.02 138.942 1308.57 140.418 1308.57 142.219V151.111C1308.57 152.912 1307.1 154.388 1305.3 154.388H1303.77C1301.96 154.388 1300.51 152.912 1300.51 151.111V136.336C1300.51 132.331 1297.26 129.073 1293.24 129.073H1272.62V147.259L1272.6 147.278L1265.18 155.863C1263.08 158.278 1264.8 162.034 1267.99 162.034H1272.64V169.699C1276.63 169.699 1280.11 167.131 1281.28 163.299C1281.41 162.896 1281.83 162.666 1282.23 162.801C1282.63 162.935 1282.86 163.356 1282.73 163.759C1281.35 168.224 1277.28 171.213 1272.64 171.232V177.978C1272.66 178.016 1272.66 178.036 1272.66 178.074C1272.73 178.898 1272.94 179.684 1273.29 180.412C1274.07 181.734 1275.52 182.596 1277.15 182.596H1286.09V183.401C1286.09 190.319 1291.68 195.915 1298.58 195.915H1315.87C1322.77 195.915 1328.35 190.319 1328.35 183.401V182.366ZM1280.42 149.52C1280.42 149.999 1280.04 150.383 1279.56 150.383C1279.08 150.383 1278.7 149.999 1278.7 149.52V145.783C1278.7 145.304 1279.08 144.921 1279.56 144.921C1280.04 144.921 1280.42 145.304 1280.42 145.783V149.52Z"
            fill="#FCD3C1"/>
        <path
            d="M1280.42 145.783V149.52C1280.42 149.999 1280.04 150.382 1279.56 150.382C1279.08 150.382 1278.7 149.999 1278.7 149.52V145.783C1278.7 145.304 1279.08 144.921 1279.56 144.921C1280.04 144.921 1280.42 145.304 1280.42 145.783Z"
            fill="#FCD3C1"/>
        <path
            d="M1282.73 163.739C1281.35 168.205 1277.28 171.194 1272.64 171.213V169.68C1276.63 169.68 1280.11 167.112 1281.28 163.28C1281.41 162.877 1281.83 162.647 1282.23 162.781C1282.63 162.915 1282.86 163.337 1282.73 163.739Z"
            fill="#FCD3C1"/>
        <path
            d="M1280.42 145.783V149.52C1280.42 149.999 1280.04 150.382 1279.56 150.382C1279.08 150.382 1278.7 149.999 1278.7 149.52V145.783C1278.7 145.304 1279.08 144.921 1279.56 144.921C1280.04 144.921 1280.42 145.304 1280.42 145.783Z"
            fill="#205CAA"/>
        <path
            d="M1282.73 163.739C1281.35 168.205 1277.28 171.194 1272.64 171.213H1272.62V169.68H1272.64C1276.63 169.68 1280.11 167.112 1281.28 163.28C1281.41 162.877 1281.83 162.647 1282.23 162.781C1282.63 162.915 1282.86 163.337 1282.73 163.739Z"
            fill="#205CAA"/>
        <path d="M1205.86 212.089L1205.72 211.955L1205.82 211.993C1205.84 212.031 1205.84 212.051 1205.86 212.089Z" fill="#205CAA"/>
        <path d="M1205.86 212.089L1205.72 211.955L1205.82 211.993C1205.84 212.031 1205.84 212.051 1205.86 212.089Z" fill="#FCD3C1"/>
        <path d="M1205.82 211.993C1205.84 212.031 1205.84 212.051 1205.86 212.089L1205.72 211.955L1205.82 211.993Z" fill="#FCD3C1"/>
        <path
            d="M1228.28 173.206C1227.09 173.532 1225.72 173.264 1224.78 172.401L1223.61 171.328C1223.56 171.29 1223.5 171.232 1223.46 171.175V130.453L1224.99 128.919V169.623C1225.1 170.255 1225.41 170.868 1225.89 171.347L1226.96 172.421C1227.28 172.746 1227.63 172.976 1228.03 173.11C1228.03 173.11 1228.03 173.13 1228.05 173.13C1228.12 173.168 1228.2 173.187 1228.28 173.206Z"
            fill="#205CAA"/>
        <path
            d="M1239.69 175.429L1239.02 176.1L1238.35 176.752L1238.29 176.79L1238.25 176.828L1229.63 185.26C1229.46 185.433 1229.29 185.605 1229.12 185.778C1229.04 185.854 1228.98 185.931 1228.91 186.008L1228.7 186.257C1228.52 186.467 1228.35 186.659 1228.2 186.87C1228.07 187.042 1227.93 187.234 1227.8 187.426C1227.78 187.445 1227.78 187.445 1227.78 187.445C1227.65 187.636 1227.51 187.828 1227.4 188.039C1227.26 188.23 1227.15 188.441 1227.03 188.652C1226.92 188.863 1226.8 189.074 1226.71 189.284C1226.59 189.495 1226.5 189.706 1226.4 189.917C1226.31 190.128 1226.21 190.338 1226.14 190.568C1226.04 190.798 1225.96 191.028 1225.87 191.258C1225.79 191.469 1225.73 191.68 1225.66 191.891C1225.6 192.063 1225.54 192.255 1225.51 192.427C1225.45 192.657 1225.39 192.887 1225.35 193.117C1225.31 193.309 1225.28 193.5 1225.24 193.692C1225.2 193.96 1225.16 194.248 1225.12 194.535C1225.08 194.804 1225.07 195.091 1225.05 195.378C1225.03 195.647 1225.03 195.896 1225.03 196.145V218.068C1223.56 216.631 1222.66 214.695 1222.66 212.549V196.145C1222.68 192.025 1224.47 188.077 1227.68 185.203L1237.11 176.771L1237.15 176.732L1237.2 176.675C1237.68 176.253 1238.18 175.813 1238.67 175.353C1239.32 174.759 1239.67 173.992 1239.69 173.206C1239.73 172.344 1239.38 171.462 1238.67 170.811L1237.51 169.738C1237.01 169.278 1236.4 168.99 1235.75 168.875C1235.83 168.856 1235.92 168.837 1236 168.837C1236.11 168.818 1236.23 168.818 1236.34 168.818C1236.42 168.818 1236.5 168.837 1236.57 168.837C1236.67 168.837 1236.74 168.837 1236.84 168.856C1237.07 168.895 1237.32 168.952 1237.55 169.048C1237.58 169.067 1237.62 169.086 1237.66 169.086C1237.76 169.124 1237.85 169.182 1237.93 169.22C1238.04 169.297 1238.16 169.354 1238.25 169.45C1238.33 169.489 1238.39 169.527 1238.44 169.584C1238.5 169.623 1238.56 169.699 1238.62 169.738L1239.67 170.792C1240.95 172.133 1240.95 174.184 1239.69 175.429Z"
            fill="#205CAA"/>
        <path
            d="M1216.67 146.32L1214.09 148.907C1213.77 149.233 1213.23 149.233 1212.89 148.907C1212.57 148.581 1212.57 148.045 1212.89 147.719L1215.47 145.132C1215.8 144.806 1216.33 144.806 1216.67 145.132C1217 145.438 1217 145.975 1216.67 146.32Z"
            fill="#205CAA"/>
        <path d="M1225.01 168.55V169.623C1224.95 169.259 1224.95 168.914 1225.01 168.55Z" fill="#205CAA"/>
        <path d="M1206.51 194.65L1195.71 183.842H1195.73L1206.51 194.65Z" fill="#205CAA"/>
        <path d="M1238.29 200.418L1238.25 200.476L1229.61 208.908L1238.25 200.457L1238.29 200.418Z" fill="#205CAA"/>
        <path d="M1239.02 199.729L1238.35 200.38V200.361C1238.56 200.169 1238.79 199.939 1239.02 199.729Z" fill="#205CAA"/>
        <path d="M1206.66 194.804L1206.51 194.669L1206.62 194.708C1206.62 194.727 1206.62 194.765 1206.66 194.804Z" fill="#205CAA"/>
        <path d="M1225.01 220.732V214.58H1218.8C1212.16 214.58 1206.12 217.186 1201.67 221.421H1244.83V221.249C1244.83 221.249 1244.83 221.249 1244.83 221.23V220.712H1225.01V220.732Z" fill="#FCD3C1"/>
        <path
            d="M1216.67 146.32L1214.09 148.907C1213.77 149.233 1213.23 149.233 1212.89 148.907C1212.57 148.581 1212.57 148.044 1212.89 147.719L1215.47 145.132C1215.8 144.806 1216.33 144.806 1216.66 145.132C1217 145.438 1217 145.975 1216.67 146.32ZM1204.08 219.237C1204.52 218.969 1204.92 218.7 1205.34 218.394C1209.09 215.596 1211.51 211.131 1211.51 206.091C1211.51 202.354 1210.2 198.924 1207.98 196.26H1207.94L1206.75 194.918L1206.74 194.899C1206.72 194.88 1206.72 194.861 1206.7 194.842C1206.7 194.823 1206.68 194.823 1206.68 194.823C1206.66 194.784 1206.64 194.746 1206.64 194.708L1206.53 194.669L1195.73 183.842C1190.22 176.828 1189.92 167.055 1194.83 159.734C1194.83 159.734 1194.83 159.715 1194.85 159.715C1194.92 159.581 1195.02 159.428 1195.13 159.293C1195.23 159.159 1195.34 159.006 1195.42 158.872C1195.63 158.604 1195.84 158.335 1196.05 158.067C1196.47 157.588 1196.89 157.109 1197.35 156.649L1202.23 151.762L1201 150.536C1198.78 148.313 1200.31 145.093 1203.31 144.308C1204.75 143.924 1207.02 143.234 1208.95 142.621C1209.18 142.545 1209.43 142.468 1209.64 142.391C1209.76 142.353 1209.87 142.315 1209.99 142.276C1210.16 142.219 1210.33 142.161 1210.5 142.104C1210.83 141.989 1211.13 141.912 1211.4 141.816C1211.59 141.759 1211.76 141.701 1211.92 141.644C1212.07 141.606 1212.2 141.567 1212.28 141.529C1212.39 141.51 1212.45 141.491 1212.45 141.491L1223.48 130.433L1225.01 128.9V168.549C1224.95 168.914 1224.95 169.258 1225.01 169.623C1225.12 170.255 1225.43 170.868 1225.91 171.347L1226.98 172.42C1227.3 172.746 1227.65 172.976 1228.05 173.11C1228.05 173.11 1228.05 173.129 1228.07 173.129C1228.14 173.168 1228.22 173.187 1228.3 173.206C1228.72 173.34 1229.14 173.379 1229.56 173.34C1229.58 173.34 1229.58 173.34 1229.58 173.34C1229.67 173.321 1229.77 173.321 1229.86 173.283C1229.88 173.283 1229.92 173.283 1229.94 173.264C1230.02 173.244 1230.07 173.244 1230.15 173.225C1230.15 173.225 1230.15 173.225 1230.17 173.225C1230.26 173.187 1230.36 173.149 1230.46 173.11C1230.49 173.091 1230.57 173.072 1230.61 173.053C1230.63 173.034 1230.65 173.034 1230.68 173.015C1230.7 172.995 1230.72 172.995 1230.74 172.976C1230.76 172.976 1230.78 172.957 1230.82 172.938C1230.9 172.9 1230.95 172.861 1231.01 172.823C1231.05 172.804 1231.09 172.785 1231.12 172.746C1231.2 172.708 1231.26 172.65 1231.33 172.593C1231.41 172.555 1231.47 172.478 1231.54 172.42L1234.13 169.833C1234.6 169.354 1235.2 169.048 1235.81 168.952C1235.88 168.933 1235.98 168.914 1236.06 168.914C1236.17 168.894 1236.28 168.894 1236.4 168.894C1236.48 168.894 1236.55 168.914 1236.63 168.914C1236.72 168.914 1236.8 168.914 1236.9 168.933C1237.13 168.971 1237.37 169.029 1237.6 169.124C1237.64 169.143 1237.68 169.163 1237.72 169.163C1237.81 169.201 1237.91 169.258 1237.99 169.297C1238.1 169.373 1238.22 169.431 1238.31 169.527C1238.39 169.565 1238.44 169.603 1238.5 169.661C1238.56 169.699 1238.62 169.776 1238.67 169.814L1239.73 170.868C1240.99 172.133 1240.99 174.164 1239.73 175.41L1239.06 176.081L1238.39 176.732L1238.33 176.771L1238.29 176.809L1229.65 185.241C1229.48 185.413 1229.31 185.586 1229.14 185.758C1229.06 185.835 1229 185.912 1228.93 185.988L1228.72 186.237C1228.54 186.429 1228.37 186.64 1228.22 186.851C1228.09 187.023 1227.95 187.215 1227.82 187.406C1227.8 187.425 1227.8 187.425 1227.8 187.425C1227.66 187.617 1227.53 187.809 1227.42 188.02C1227.28 188.211 1227.17 188.422 1227.05 188.633C1226.94 188.844 1226.82 189.054 1226.73 189.265C1226.61 189.476 1226.52 189.687 1226.42 189.898C1226.33 190.108 1226.23 190.319 1226.15 190.549C1226.06 190.779 1225.98 191.009 1225.89 191.239C1225.81 191.45 1225.75 191.661 1225.7 191.871C1225.64 192.044 1225.58 192.236 1225.54 192.427C1225.49 192.657 1225.43 192.887 1225.39 193.117C1225.35 193.309 1225.31 193.5 1225.28 193.692C1225.24 193.96 1225.2 194.248 1225.16 194.535C1225.12 194.803 1225.1 195.091 1225.08 195.378C1225.07 195.647 1225.07 195.896 1225.07 196.145V214.523H1218.8C1212.16 214.523 1206.12 217.129 1201.67 221.364H1201.42L1204.08 219.237Z"
            fill="#FCD3C1"/>
        <path d="M1206.66 194.804L1206.51 194.669L1206.62 194.708C1206.62 194.727 1206.62 194.765 1206.66 194.804Z" fill="#FCD3C1"/>
        <path
            d="M1216.67 146.32L1214.09 148.907C1213.77 149.233 1213.23 149.233 1212.89 148.907C1212.57 148.581 1212.57 148.045 1212.89 147.719L1215.47 145.132C1215.8 144.806 1216.33 144.806 1216.67 145.132C1217 145.438 1217 145.975 1216.67 146.32Z"
            fill="#FCD3C1"/>
        <path
            d="M1216.67 146.32L1214.09 148.907C1213.77 149.233 1213.23 149.233 1212.89 148.907C1212.57 148.581 1212.57 148.045 1212.89 147.719L1215.47 145.132C1215.8 144.806 1216.33 144.806 1216.67 145.132C1217 145.438 1217 145.975 1216.67 146.32Z"
            fill="#205CAA"/>
        <path
            d="M1201.46 163.107C1198.73 163.107 1196.03 162.034 1193.99 159.983C1190.68 156.668 1189.94 151.666 1192.1 147.527C1192.29 147.163 1192.74 147.01 1193.13 147.201C1193.49 147.393 1193.64 147.853 1193.45 148.236C1191.6 151.781 1192.25 156.074 1195.08 158.91C1197.91 161.746 1202.19 162.398 1205.72 160.539C1206.09 160.348 1206.54 160.482 1206.76 160.865C1206.95 161.229 1206.81 161.689 1206.43 161.9C1204.84 162.705 1203.14 163.107 1201.46 163.107Z"
            fill="#205CAA"/>
        <path
            d="M1247.77 214.58V251.681C1238.04 263.85 1235.44 270.902 1220.23 279.295H1186.06V236.254C1186.78 230.678 1189.36 225.676 1193.13 221.881C1193.28 221.728 1193.45 221.556 1193.61 221.402C1198.06 217.167 1204.1 214.561 1210.73 214.561H1247.77V214.58Z"
            fill="#8D9FD1"/>
        <path
            d="M1272.5 194.803V221.594C1272.5 238.209 1265.8 251.7 1257.54 251.7H1231.47C1231.45 251.7 1231.41 251.7 1231.39 251.7C1227.82 251.642 1225.01 244.878 1225.01 237.021V197.889C1225.01 197.314 1225.03 196.777 1225.03 196.202C1225.05 195.742 1225.05 195.244 1225.08 194.803H1272.5Z"
            fill="#205CAA"/>
        <path d="M1261.4 348.725H1337.64C1352.19 348.725 1364 336.901 1364 322.298V217.167C1364 202.584 1352.21 190.741 1337.64 190.741H1287.74C1273.19 190.741 1261.38 202.565 1261.38 217.167V348.725H1261.4Z"
              fill="#205CAA"/>
        <path d="M1337.99 348.725H1239.76V311.605H1364V322.662C1364 337.035 1352.34 348.725 1337.99 348.725Z" fill="#E8E7F4"/>
        <path d="M1247.33 348.725H1180.89V222.629C1180.89 208.889 1192.02 197.736 1205.72 197.736H1247.33C1261.04 197.736 1272.16 208.889 1272.16 222.629V323.812C1272.14 337.572 1261.04 348.725 1247.33 348.725Z"
              fill="#91BDE5"/>
        <path d="M1181.97 220.483H1203.01V199.154C1203.01 196.662 1201 194.65 1198.52 194.65H1187.07C1181.64 194.65 1177.23 199.058 1177.23 204.519V215.749C1177.24 218.375 1179.37 220.483 1181.97 220.483Z"
              fill="#FCD3C1"/>
        <path d="M1247.58 348.725H1180.88V311.605H1272.14V324.1C1272.14 337.687 1261.15 348.725 1247.58 348.725Z" fill="#8D9FD1"/>
        <path d="M1210.21 246.947H1180.88V348.725H1210.21V246.947Z" fill="#91BDE5"/>
        <path
            d="M1303.18 213.737C1307 217.57 1307 223.779 1303.18 227.611L1270.4 260.477L1250.39 280.541C1246.57 284.374 1240.38 284.374 1236.55 280.541L1216.54 260.477L1183.76 227.611C1179.94 223.779 1179.94 217.57 1183.76 213.737L1196.85 200.61C1200.68 196.777 1206.87 196.777 1210.69 200.61L1236.55 226.538C1240.38 230.371 1246.57 230.371 1250.39 226.538L1276.27 200.591C1280.09 196.758 1286.29 196.758 1290.11 200.591L1303.18 213.737Z"
            fill="#205CAA"/>
        <path d="M1174.47 358H1200.96C1206.07 358 1210.21 353.841 1210.21 348.725H1183.72C1178.62 348.725 1174.47 352.864 1174.47 358Z" fill="#FCD3C1"/>
        <path
            d="M1271.49 261.128C1271.3 261.128 1271.11 261.052 1270.96 260.918C1270.67 260.63 1270.67 260.151 1270.96 259.864L1289.52 241.256C1289.8 240.968 1290.28 240.968 1290.57 241.256C1290.85 241.543 1290.85 242.022 1290.57 242.31L1272.01 260.918C1271.87 261.052 1271.68 261.128 1271.49 261.128Z"
            fill="#91BDE5"/>
        <path
            d="M1114.9 339.354C1114.71 339.354 1114.51 339.277 1114.36 339.143C1114.07 338.856 1114.07 338.376 1114.36 338.089L1132.92 319.481C1133.21 319.194 1133.69 319.194 1133.97 319.481C1134.26 319.769 1134.26 320.248 1133.97 320.535L1115.41 339.143C1115.28 339.277 1115.09 339.354 1114.9 339.354Z"
            fill="#91BDE5"/>
        <path
            d="M1156.22 329.35C1156.22 329.159 1156.3 328.967 1156.43 328.814C1156.72 328.526 1157.19 328.526 1157.48 328.814L1176.04 347.422C1176.33 347.709 1176.33 348.188 1176.04 348.476C1175.75 348.763 1175.28 348.763 1174.99 348.476L1156.43 329.868C1156.3 329.734 1156.22 329.542 1156.22 329.35Z"
            fill="#91BDE5"/>
        <path
            d="M1211.5 313.885C1211.36 314.02 1211.17 314.096 1210.96 314.096C1210.54 314.096 1210.21 313.77 1210.21 313.349V287.037C1210.21 286.616 1210.54 286.29 1210.96 286.29C1211.38 286.29 1211.71 286.616 1211.71 287.037V313.349C1211.71 313.56 1211.63 313.751 1211.5 313.885Z"
            fill="#8D9FD1"/>
        <path
            d="M1039.01 307.6C1044.31 312.9 1052.91 312.9 1058.21 307.6L1069.41 296.3C1073.41 292.3 1073.41 285.9 1069.41 282C1065.41 278 1059.01 278 1055.11 282L1045.01 292.1C1042.31 294.8 1038.71 296.2 1035.11 296.2C1034.61 300.2 1035.81 304.5 1039.01 307.6Z"
            fill="#91BDE5"/>
        <path d="M1064.51 287.4C1065.06 287.4 1065.51 286.952 1065.51 286.4C1065.51 285.848 1065.06 285.4 1064.51 285.4C1063.96 285.4 1063.51 285.848 1063.51 286.4C1063.51 286.952 1063.96 287.4 1064.51 287.4Z"
              fill="white"/>
        <path d="M1069.41 282L1073.81 281.5L1071.71 285.4L1069.41 282Z" fill="#205CAA"/>
        <path d="M1060.71 303.2V311.6" stroke="#8D9FD1" stroke-miterlimit="10"/>
        <path d="M1055.41 303.2V311.6" stroke="#8D9FD1" stroke-miterlimit="10"/>
    </g>
    <path
        d="M856.5 123.779C852.283 127.996 840.101 140.413 840.101 140.413C838.226 142.288 835.415 144.162 832.838 144.162C830.026 144.162 827.215 142.522 824.872 140.648C818.547 135.025 813.158 129.871 807.535 124.014C800.273 116.517 800.038 104.568 807.535 97.3054C813.392 91.4483 822.529 91.6826 829.558 97.3054C831.666 98.9454 833.072 99.1797 835.181 97.3054C841.272 91.6826 850.409 91.4483 856.032 97.3054C863.997 104.568 863.763 116.282 856.5 123.779Z"
        fill="#F37972"/>
    <g clip-path="url(#clip1)">
        <path d="M153.173 223.538C193.585 223.538 226.346 190.734 226.346 150.269C226.346 109.804 193.585 77 153.173 77C112.761 77 80 109.804 80 150.269C80 190.734 112.761 223.538 153.173 223.538Z" fill="#91BDE5"/>
        <path d="M251.961 299.292C283.463 299.292 309 273.721 309 242.178C309 210.635 283.463 185.064 251.961 185.064C220.459 185.064 194.922 210.635 194.922 242.178C194.922 273.721 220.459 299.292 251.961 299.292Z"
              fill="#91BDE5"/>
        <path d="M253.103 241.781H250.77V349H253.103V241.781Z" fill="#8D9FD1"/>
        <path d="M266.923 270.441L265.273 268.789L251.408 282.673L253.058 284.325L266.923 270.441Z" fill="#8D9FD1"/>
        <path d="M239.082 247.702L237.432 249.354L251.298 263.238L252.947 261.586L239.082 247.702Z" fill="#8D9FD1"/>
        <path d="M167.889 179.351L166.24 177.699L152.374 191.583L154.024 193.234L167.889 179.351Z" fill="#8D9FD1"/>
        <path d="M140.1 156.624L138.45 158.276L152.315 172.16L153.965 170.508L140.1 156.624Z" fill="#8D9FD1"/>
        <path d="M154.314 150.269H151.981V349H154.314V150.269Z" fill="#8D9FD1"/>
    </g>
    <path d="M1551.83 146.538C1511.44 146.538 1478.71 113.734 1478.71 73.269C1478.71 32.8037 1511.44 0 1551.83 0C1592.21 0 1624.95 32.8037 1624.95 73.269C1624.95 113.734 1592.21 146.538 1551.83 146.538Z" fill="#91BDE5"/>
    <path
        d="M1453.11 222.292C1421.63 222.292 1396.11 196.721 1396.11 165.178C1396.11 133.635 1421.63 108.064 1453.11 108.064C1484.59 108.064 1510.11 133.635 1510.11 165.178C1510.11 196.721 1484.59 222.292 1453.11 222.292Z"
        fill="#91BDE5"/>
    <path d="M1451.97 164.781H1454.3V272H1451.97V164.781Z" fill="#8D9FD1"/>
    <path d="M1438.16 193.442L1439.8 191.79L1453.66 205.673L1452.01 207.325L1438.16 193.442Z" fill="#8D9FD1"/>
    <path d="M1465.98 170.702L1467.63 172.354L1453.77 186.238L1452.12 184.586L1465.98 170.702Z" fill="#8D9FD1"/>
    <path d="M1537.12 102.351L1538.77 100.699L1552.63 114.583L1550.98 116.234L1537.12 102.351Z" fill="#8D9FD1"/>
    <path d="M1564.89 79.6242L1566.54 81.2761L1552.68 95.1597L1551.04 93.5077L1564.89 79.6242Z" fill="#8D9FD1"/>
    <path d="M1550.69 73.269H1553.02V272H1550.69V73.269Z" fill="#8D9FD1"/>
    <defs>
        <clipPath id="clip0">
            <rect width="391" height="252" fill="white" transform="translate(973 106)"/>
        </clipPath>
        <clipPath id="clip1">
            <rect width="229" height="272" fill="white" transform="translate(80 77)"/>
        </clipPath>
    </defs>
</svg>
