<svg width="75" height="42" viewBox="0 0 75 42" fill="none" xmlns="http://www.w3.org/2000/svg">
<g clip-path="url(#clip0)">
<path d="M33.2805 21.0198H4.9921C2.69416 21.0198 0.792419 19.1161 0.792419 16.7762V4.99717C0.792419 2.69688 2.69416 0.793201 4.9921 0.793201H33.2805C35.6181 0.793201 37.4802 2.69688 37.4802 4.99717V16.7762C37.4802 19.1161 35.6181 21.0198 33.2805 21.0198Z" stroke="#FCD3C1" stroke-width="2" stroke-miterlimit="10"/>
<path d="M70.0081 21.0198H41.7196C39.3821 21.0198 37.52 19.1161 37.52 16.8159V4.99717C37.4803 2.69688 39.3821 0.793201 41.7196 0.793201H70.0081C72.3456 0.793201 74.2078 2.69688 74.2078 4.99717V16.7762C74.2078 19.1161 72.306 21.0198 70.0081 21.0198Z" stroke="#FCD3C1" stroke-width="2" stroke-miterlimit="10"/>
<path d="M51.6245 41.2068H23.3756C21.0381 41.2068 19.176 39.3031 19.176 37.0028V25.2238C19.1363 22.8839 21.0381 21.0198 23.3756 21.0198H51.6641C54.0016 21.0198 55.8638 22.9235 55.8638 25.2238V37.0028C55.8638 39.3428 53.962 41.2068 51.6245 41.2068Z" stroke="#FCD3C1" stroke-width="2" stroke-miterlimit="10"/>
</g>
<defs>
<clipPath id="clip0">
<rect width="75" height="42" fill="white"/>
</clipPath>
</defs>
</svg>
