<svg width="24" height="24" viewBox="0 0 24 24" fill="none" xmlns="http://www.w3.org/2000/svg">
<path d="M21.9964 0.738281H1.97928C1.29387 0.738693 0.738235 1.2946 0.738373 1.98029V21.9974C0.738785 22.6828 1.29469 23.2384 1.98038 23.2383H12.7574V14.5371H9.83505V11.1313H12.7574V8.62495C12.7574 5.71838 14.5318 4.13635 17.1246 4.13635C18.3665 4.13635 19.4337 4.22891 19.7447 4.27025V7.30811H17.9568C16.5462 7.30811 16.273 7.97841 16.273 8.96223V11.1313H19.6458L19.2064 14.5371H16.273V23.2383H21.9964C22.6822 23.2384 23.2382 22.6826 23.2384 21.9968C23.2384 21.9967 23.2384 21.9966 23.2384 21.9963V1.97919C23.2381 1.29378 22.6821 0.738144 21.9964 0.738281Z" fill="#E8E7F4"/>
</svg>
