<svg width="391" height="252" viewBox="0 0 391 252" fill="none" xmlns="http://www.w3.org/2000/svg">
<g clip-path="url(#clip0)">
<circle cx="227" cy="194" r="48" fill="#91BDE5"/>
<path d="M39.4306 225.344L25.2677 229.1V242.725H9.21252C4.12839 242.725 0.019043 238.586 0.019043 233.488V193.647C0.019043 190.696 3.57411 189.22 5.65746 191.309L39.4306 225.344Z" fill="#E8E7F4"/>
<path d="M207.876 205.586H19.7056V242.706H207.876V205.586Z" fill="#8D9FD1"/>
<path d="M299.505 57.1839V100.992C299.505 108.561 292.796 114.713 284.539 114.713H258.468C255.907 114.713 253.614 113.716 252.008 112.126V90.2026C252.008 89.9343 252.027 89.6852 252.027 89.4361C252.046 89.1486 252.065 88.8612 252.104 88.5929C252.142 88.3054 252.18 88.018 252.218 87.7497C252.237 87.5389 252.276 87.3664 252.333 87.1748C252.371 86.9448 252.429 86.6957 252.486 86.4849C252.524 86.2933 252.582 86.1208 252.639 85.9483C252.696 85.7375 252.773 85.5267 252.83 85.3159C252.906 85.086 253.002 84.8368 253.098 84.6069C253.174 84.3769 253.27 84.1661 253.365 83.9553C253.461 83.7445 253.575 83.5337 253.671 83.3229C253.786 83.1121 253.881 82.9013 253.996 82.6905C254.111 82.4797 254.225 82.2689 254.359 82.0773C254.493 81.8857 254.627 81.6749 254.741 81.4832C254.741 81.4641 254.76 81.4641 254.76 81.4641C254.894 81.2724 255.028 81.0808 255.162 80.9083C255.315 80.6975 255.487 80.5059 255.659 80.2951L255.869 80.046C255.945 79.9693 256.003 79.8735 256.079 79.816C256.251 79.6435 256.404 79.4519 256.595 79.2986L260.934 75.0634L265.215 70.8666L265.254 70.8283L265.311 70.79L265.98 70.1384L266.649 69.4677C267.91 68.2029 267.91 66.1716 266.649 64.9068L265.598 63.8528C265.559 63.8145 265.483 63.7378 265.426 63.6995C265.368 63.642 265.311 63.5845 265.234 63.5462C265.12 63.4695 265.024 63.3929 264.91 63.3162C264.833 63.2779 264.738 63.2204 264.642 63.1821C264.604 63.1629 264.566 63.1438 264.527 63.1438C264.298 63.0479 264.049 62.9904 263.82 62.9521C263.725 62.933 263.648 62.933 263.553 62.933C263.476 62.9138 263.4 62.9138 263.323 62.9138C263.208 62.9138 263.094 62.9138 262.979 62.933C262.903 62.9521 262.807 62.9521 262.731 62.9713C262.444 62.9138 262.157 62.8946 261.871 62.8946C261.546 62.9138 261.221 62.9521 260.915 63.0479C260.418 63.2012 259.94 63.4695 259.539 63.8336L256.71 66.4207C256.289 66.804 255.793 67.0723 255.257 67.2256C255.181 67.2064 255.104 67.1873 255.028 67.1489C255.009 67.1489 255.009 67.1298 255.009 67.1298C254.607 66.9956 254.263 66.7465 253.939 66.4399L252.868 65.3667C252.39 64.8876 252.085 64.2744 251.97 63.642V22.9004L250.441 24.4335L239.412 35.4717C239.412 35.4717 239.355 35.4908 239.24 35.5292C239.145 35.5483 239.03 35.5866 238.877 35.6441C238.743 35.6825 238.552 35.7591 238.38 35.8166C238.113 35.8933 237.807 35.9891 237.482 36.1041C237.31 36.1615 237.157 36.219 236.966 36.2765C236.851 36.3149 236.737 36.3532 236.622 36.3915C236.393 36.4682 236.163 36.5448 235.915 36.6215C233.984 37.2347 231.729 37.9246 230.276 38.3079C227.256 39.0936 225.746 42.3322 227.964 44.536L229.187 45.7625L224.294 50.6492C223.835 51.1091 223.415 51.5882 222.994 52.0673C222.784 52.3355 222.574 52.6038 222.363 52.8721C222.268 53.0063 222.153 53.1596 222.077 53.2937C221.962 53.447 221.866 53.562 221.771 53.7153V53.7345C221.121 54.6926 220.586 55.6891 220.127 56.7048H207.856C207.856 32.7121 226.607 13.0887 250.231 11.7856H250.269L252.18 11.7473H252.199C260.036 11.9964 267.394 13.9702 273.855 17.228C277.696 19.1635 281.213 21.5781 284.348 24.3568L284.386 24.3952L285.361 25.2958C293.121 32.5971 298.224 42.2939 299.275 53.0254C299.428 54.386 299.505 55.785 299.505 57.1839Z" fill="#205CAA"/>
<path d="M148.548 225.88L129.454 245.025C122.726 252.364 118.617 251.444 112.482 251.444H77.2368C74.2934 251.444 72.8216 247.88 74.905 245.791L108.831 211.91L112.52 225.899L133.449 220.323L148.548 225.88Z" fill="#E8E7F4"/>
<path d="M328.863 204.015H218.331V242.725H328.863V204.015Z" fill="#205CAA"/>
<path d="M100.803 219.786L140.501 179.984L160.513 159.919C164.336 156.087 170.528 156.087 174.351 159.919L194.363 179.984L227.142 212.849C230.964 216.682 230.964 222.891 227.142 226.723L214.049 239.85C210.227 243.683 204.034 243.683 200.211 239.85L174.351 213.922C170.528 210.089 164.336 210.089 160.513 213.922L127.734 246.788L100.803 219.786Z" fill="#8D9FD1"/>
<path d="M252.009 90.2026V112.126C253.614 113.716 255.927 114.713 258.469 114.713H260.954V133.991H207.876V56.7048H252.009V63.6228C252.123 64.2552 252.429 64.8684 252.907 65.3475L253.977 66.4207C254.302 66.7464 254.646 66.9764 255.048 67.1106C255.048 67.1106 255.048 67.1297 255.067 67.1297C255.143 67.168 255.22 67.1872 255.296 67.2064C255.831 67.0531 256.328 66.7848 256.749 66.4015L259.577 63.8144C259.979 63.4503 260.457 63.182 260.954 63.0287V75.0251L256.615 79.2602C256.443 79.4327 256.271 79.6051 256.099 79.7776C256.022 79.8543 255.965 79.9309 255.889 80.0076L255.678 80.2567C255.506 80.4675 255.334 80.6591 255.181 80.8699C255.048 81.0424 254.914 81.234 254.78 81.4257C254.761 81.4448 254.761 81.4448 254.761 81.4448C254.627 81.6365 254.493 81.8281 254.379 82.0389C254.245 82.2305 254.13 82.4413 254.015 82.6521C253.901 82.8438 253.786 83.0737 253.69 83.2845C253.595 83.4953 253.48 83.7061 253.385 83.9169C253.289 84.1277 253.194 84.3385 253.117 84.5685C253.022 84.7985 252.945 85.0284 252.849 85.2775C252.773 85.4883 252.716 85.6991 252.658 85.9099C252.601 86.0824 252.544 86.274 252.505 86.4465C252.448 86.6765 252.391 86.9064 252.353 87.1364C252.314 87.328 252.276 87.5197 252.238 87.7113C252.2 87.9796 252.161 88.267 252.123 88.5545C252.085 88.8228 252.066 89.1102 252.047 89.3977C252.028 89.7043 252.009 89.9534 252.009 90.2026Z" fill="#205CAA"/>
<path d="M260.953 56.7048V63.0287C260.456 63.182 259.979 63.4503 259.577 63.8144L256.748 66.4015C256.328 66.7848 255.831 67.0531 255.296 67.2064C255.219 67.1872 255.143 67.1681 255.066 67.1297C255.047 67.1297 255.047 67.1106 255.047 67.1106C254.646 66.9764 254.302 66.7273 253.977 66.4207L252.907 65.3475C252.429 64.8684 252.123 64.2552 252.008 63.6228V56.7048H260.953Z" fill="#205CAA"/>
<path d="M256.615 79.2794L260.953 75.0443V114.732H258.469C255.907 114.732 253.614 113.735 252.008 112.145V90.2026C252.008 89.9343 252.027 89.6852 252.027 89.436C252.047 89.1486 252.066 88.8611 252.104 88.5928C252.142 88.3054 252.18 88.0179 252.219 87.7496C252.238 87.5388 252.276 87.3664 252.333 87.1747C252.371 86.9448 252.429 86.6957 252.486 86.4849C252.524 86.2932 252.582 86.1208 252.639 85.9483C252.696 85.7375 252.773 85.5267 252.83 85.3159C252.907 85.0859 253.002 84.8368 253.098 84.6068C253.174 84.3769 253.27 84.1661 253.365 83.9553C253.461 83.7445 253.576 83.5337 253.671 83.3229C253.786 83.1121 253.881 82.9013 253.996 82.6905C254.111 82.4797 254.225 82.2689 254.359 82.0773C254.493 81.8856 254.627 81.6748 254.741 81.4832C254.741 81.464 254.761 81.464 254.761 81.464C254.894 81.2724 255.028 81.0808 255.162 80.9083C255.315 80.6975 255.487 80.5058 255.659 80.295L255.869 80.0459C255.946 79.9693 256.003 79.8735 256.079 79.816C256.271 79.6243 256.443 79.4519 256.615 79.2794Z" fill="#205CAA"/>
<path d="M275.747 72.7638H253.996V106.3H275.747V72.7638Z" fill="#205CAA"/>
<path d="M355.354 61.7065H312.979V113.486H355.354V61.7065Z" fill="#FCD3C1"/>
<path d="M307.417 39.7834V43.5203C307.417 43.9994 307.035 44.3827 306.557 44.3827C306.08 44.3827 305.697 43.9994 305.697 43.5203V39.7834C305.697 39.3044 306.08 38.9211 306.557 38.9211C307.035 38.9211 307.417 39.3044 307.417 39.7834Z" fill="#005CB0"/>
<path d="M309.731 57.7396C308.354 62.2047 304.283 65.1942 299.639 65.2134V71.9589C299.62 71.7865 299.62 71.5948 299.62 71.4032V56.0341H299.639V63.6995C303.633 63.6995 307.112 61.1316 308.278 57.2989C308.412 56.8964 308.832 56.6665 309.234 56.8006C309.635 56.9156 309.864 57.3372 309.731 57.7396Z" fill="#005CB0"/>
<path d="M355.354 11.1148V59.3877C355.354 61.189 353.901 62.6646 352.085 62.6646H346.906C345.09 62.6646 343.637 61.189 343.637 59.3877V36.219C343.637 34.3985 342.185 32.9421 340.369 32.9421H338.84C337.024 32.9421 335.572 34.4176 335.572 36.219V45.1109C335.572 46.9122 334.1 48.3878 332.303 48.3878H330.774C328.958 48.3878 327.506 46.9122 327.506 45.1109V30.3358C327.506 26.3306 324.257 23.0729 320.243 23.0729H299.62V41.259L299.6 41.2782V22.9004C292.452 22.9004 286.623 17.1705 286.623 10.1567C286.623 6.01734 288.629 2.33795 291.745 0.019165C294.153 2.39544 297.498 3.87103 301.168 3.87103H347.957C352.047 3.85186 355.354 7.0905 355.354 11.1148Z" fill="#005CB0"/>
<path d="M355.354 76.3666V59.3877C355.354 61.1891 353.901 62.6647 352.085 62.6647H346.906C345.09 62.6647 343.637 61.1891 343.637 59.3877V36.219C343.637 34.3985 342.185 32.9421 340.369 32.9421H338.84C337.024 32.9421 335.572 34.4177 335.572 36.219V45.1109C335.572 46.9123 334.1 48.3879 332.303 48.3879H330.774C328.958 48.3879 327.506 46.9123 327.506 45.1109V30.3358C327.506 26.3307 324.256 23.0729 320.243 23.0729H299.619V41.259L299.6 41.2782L292.184 49.8635C290.082 52.2781 291.802 56.0341 294.994 56.0341H299.639V63.6995C303.633 63.6995 307.112 61.1316 308.278 57.2989C308.412 56.8965 308.832 56.6665 309.233 56.8006C309.635 56.9348 309.864 57.3564 309.73 57.7588C308.354 62.2239 304.283 65.2134 299.639 65.2326V71.9781C299.658 72.0165 299.658 72.0356 299.658 72.074C299.734 72.898 299.944 73.6837 300.288 74.4119C301.072 75.7342 302.525 76.5965 304.149 76.5965H313.094V77.4014C313.094 84.3194 318.675 89.9152 325.575 89.9152H342.873C349.773 89.9152 355.354 84.3194 355.354 77.4014V76.3666ZM307.418 43.5203C307.418 43.9994 307.035 44.3827 306.558 44.3827C306.08 44.3827 305.698 43.9994 305.698 43.5203V39.7835C305.698 39.3044 306.08 38.9211 306.558 38.9211C307.035 38.9211 307.418 39.3044 307.418 39.7835V43.5203Z" fill="#FCD3C1"/>
<path d="M307.417 39.7834V43.5203C307.417 43.9994 307.035 44.3827 306.557 44.3827C306.08 44.3827 305.697 43.9994 305.697 43.5203V39.7834C305.697 39.3044 306.08 38.9211 306.557 38.9211C307.035 38.9211 307.417 39.3044 307.417 39.7834Z" fill="#FCD3C1"/>
<path d="M309.731 57.7396C308.354 62.2047 304.283 65.1942 299.639 65.2134V63.6803C303.633 63.6803 307.112 61.1124 308.278 57.2797C308.412 56.8773 308.832 56.6473 309.234 56.7815C309.635 56.9156 309.864 57.3372 309.731 57.7396Z" fill="#FCD3C1"/>
<path d="M307.417 39.7834V43.5203C307.417 43.9994 307.035 44.3827 306.557 44.3827C306.08 44.3827 305.697 43.9994 305.697 43.5203V39.7834C305.697 39.3044 306.08 38.9211 306.557 38.9211C307.035 38.9211 307.417 39.3044 307.417 39.7834Z" fill="#205CAA"/>
<path d="M309.731 57.7396C308.354 62.2047 304.283 65.1942 299.639 65.2134H299.62V63.6803H299.639C303.633 63.6803 307.112 61.1124 308.278 57.2797C308.412 56.8773 308.832 56.6473 309.234 56.7815C309.635 56.9156 309.864 57.3372 309.731 57.7396Z" fill="#205CAA"/>
<path d="M232.857 106.089L232.723 105.955L232.819 105.993C232.838 106.032 232.838 106.051 232.857 106.089Z" fill="#205CAA"/>
<path d="M232.857 106.089L232.723 105.955L232.819 105.993C232.838 106.032 232.838 106.051 232.857 106.089Z" fill="#FCD3C1"/>
<path d="M232.819 105.993C232.838 106.032 232.838 106.051 232.857 106.089L232.723 105.955L232.819 105.993Z" fill="#FCD3C1"/>
<path d="M255.277 67.2064C254.092 67.5322 252.715 67.2639 251.779 66.4015L250.613 65.3284C250.556 65.29 250.498 65.2326 250.46 65.1751V24.4526L251.989 22.9196V63.6228C252.104 64.2552 252.41 64.8685 252.887 65.3475L253.958 66.4207C254.283 66.7465 254.627 66.9764 255.028 67.1106C255.028 67.1106 255.028 67.1297 255.047 67.1297C255.124 67.1681 255.2 67.1872 255.277 67.2064Z" fill="#205CAA"/>
<path d="M266.687 69.4293L266.018 70.1001L265.349 70.7516L265.292 70.7899L265.254 70.8283L256.634 79.2602C256.462 79.4327 256.29 79.6052 256.118 79.7776C256.041 79.8543 255.984 79.9309 255.907 80.0076L255.697 80.2567C255.525 80.4675 255.353 80.6592 255.2 80.8699C255.066 81.0424 254.933 81.2341 254.799 81.4257C254.78 81.4449 254.78 81.4449 254.78 81.4449C254.646 81.6365 254.512 81.8281 254.397 82.0389C254.264 82.2306 254.149 82.4414 254.034 82.6522C253.919 82.863 253.805 83.0738 253.709 83.2846C253.595 83.4953 253.499 83.7061 253.403 83.9169C253.308 84.1277 253.212 84.3385 253.136 84.5685C253.04 84.7985 252.964 85.0284 252.868 85.2584C252.792 85.4692 252.734 85.68 252.658 85.8908C252.601 86.0633 252.543 86.2549 252.505 86.4274C252.448 86.6573 252.39 86.8873 252.352 87.1173C252.314 87.3089 252.276 87.5005 252.238 87.6922C252.199 87.9604 252.161 88.2479 252.123 88.5353C252.085 88.8036 252.066 89.0911 252.046 89.3785C252.027 89.6468 252.027 89.896 252.027 90.1451V112.068C250.556 110.631 249.657 108.695 249.657 106.549V90.1451C249.676 86.0249 251.473 82.0772 254.684 79.2027L264.107 70.7708L264.145 70.7325L264.202 70.675C264.68 70.2534 265.177 69.8126 265.674 69.3527C266.324 68.7586 266.668 67.9921 266.687 67.2064C266.725 66.344 266.381 65.4625 265.674 64.8109L264.508 63.7378C264.011 63.2779 263.4 62.9904 262.75 62.8754C262.826 62.8563 262.922 62.8371 262.998 62.8371C263.113 62.8179 263.228 62.8179 263.342 62.8179C263.419 62.8179 263.495 62.8371 263.572 62.8371C263.667 62.8371 263.744 62.8371 263.839 62.8563C264.069 62.8946 264.317 62.9521 264.546 63.0479C264.585 63.0671 264.623 63.0862 264.661 63.0862C264.757 63.1246 264.852 63.182 264.929 63.2204C265.043 63.297 265.158 63.3545 265.254 63.4503C265.33 63.4887 265.387 63.527 265.445 63.5845C265.502 63.6228 265.559 63.6995 265.617 63.7378L266.668 64.7918C267.949 66.1332 267.949 68.1837 266.687 69.4293Z" fill="#205CAA"/>
<path d="M243.675 40.32L241.095 42.9071C240.77 43.2328 240.235 43.2328 239.891 42.9071C239.566 42.5813 239.566 42.0447 239.891 41.7189L242.471 39.1318C242.796 38.8061 243.331 38.8061 243.675 39.1318C244 39.4385 244 39.975 243.675 40.32Z" fill="#205CAA"/>
<path d="M252.008 62.5496V63.6228C251.951 63.2587 251.951 62.9137 252.008 62.5496Z" fill="#205CAA"/>
<path d="M233.507 88.6504L222.708 77.8422H222.727L233.507 88.6504Z" fill="#205CAA"/>
<path d="M265.292 94.4186L265.254 94.4761L256.615 102.908L265.254 94.4569L265.292 94.4186Z" fill="#205CAA"/>
<path d="M266.019 93.7286L265.35 94.3802V94.361C265.56 94.1694 265.789 93.9394 266.019 93.7286Z" fill="#205CAA"/>
<path d="M233.66 88.8036L233.507 88.6695L233.622 88.7078C233.622 88.727 233.622 88.7653 233.66 88.8036Z" fill="#205CAA"/>
<path d="M252.008 114.732V108.58H245.796C239.164 108.58 233.124 111.187 228.671 115.422H271.829V115.249C271.829 115.249 271.829 115.249 271.829 115.23V114.713H252.008V114.732Z" fill="#FCD3C1"/>
<path d="M243.675 40.32L241.095 42.9071C240.77 43.2329 240.235 43.2329 239.891 42.9071C239.566 42.5813 239.566 42.0447 239.891 41.7189L242.471 39.1319C242.796 38.8061 243.331 38.8061 243.656 39.1319C244 39.4385 244 39.9751 243.675 40.32ZM231.079 113.237C231.519 112.969 231.92 112.701 232.341 112.394C236.087 109.596 238.514 105.131 238.514 100.091C238.514 96.3541 237.196 92.9238 234.978 90.2601H234.94L233.755 88.9186L233.736 88.8995C233.717 88.8803 233.717 88.8612 233.698 88.842C233.698 88.8228 233.679 88.8228 233.679 88.8228C233.66 88.7845 233.641 88.7462 233.641 88.7078L233.526 88.6695L222.727 77.8421C217.222 70.8283 216.916 61.0549 221.829 53.7345C221.829 53.7345 221.829 53.7153 221.848 53.7153C221.924 53.5811 222.02 53.4278 222.134 53.2937C222.23 53.1596 222.345 53.0062 222.421 52.8721C222.631 52.6038 222.842 52.3355 223.052 52.0672C223.472 51.5882 223.893 51.1091 224.352 50.6491L229.225 45.7624L228.002 44.536C225.785 42.313 227.314 39.0935 230.315 38.3078C231.748 37.9246 234.023 37.2347 235.953 36.6215C236.183 36.5448 236.431 36.4681 236.641 36.3915C236.756 36.3532 236.871 36.3148 236.985 36.2765C237.157 36.219 237.329 36.1615 237.501 36.104C237.826 35.9891 238.132 35.9124 238.4 35.8166C238.591 35.7591 238.763 35.7016 238.916 35.6441C239.069 35.6058 239.203 35.5675 239.279 35.5291C239.394 35.51 239.451 35.4908 239.451 35.4908L250.479 24.4335L252.008 22.9004V62.5497C251.951 62.9138 251.951 63.2587 252.008 63.6228C252.123 64.2552 252.429 64.8685 252.907 65.3475L253.977 66.4207C254.302 66.7465 254.646 66.9764 255.047 67.1106C255.047 67.1106 255.047 67.1297 255.066 67.1297C255.143 67.1681 255.219 67.1872 255.296 67.2064C255.716 67.3405 256.137 67.3789 256.557 67.3405C256.576 67.3405 256.576 67.3405 256.576 67.3405C256.672 67.3214 256.768 67.3214 256.863 67.2831C256.882 67.2831 256.92 67.2831 256.94 67.2639C257.016 67.2447 257.073 67.2447 257.15 67.2256C257.15 67.2256 257.15 67.2256 257.169 67.2256C257.265 67.1872 257.36 67.1489 257.456 67.1106C257.494 67.0914 257.57 67.0723 257.609 67.0531C257.628 67.0339 257.647 67.0339 257.685 67.0148C257.704 66.9956 257.723 66.9956 257.742 66.9764C257.761 66.9764 257.781 66.9573 257.819 66.9381C257.895 66.8998 257.953 66.8615 258.01 66.8231C258.048 66.804 258.086 66.7848 258.125 66.7465C258.201 66.7081 258.258 66.6507 258.335 66.5932C258.411 66.5548 258.469 66.4782 258.545 66.4207L261.125 63.8336C261.603 63.3545 262.196 63.0479 262.807 62.9521C262.884 62.9329 262.979 62.9138 263.056 62.9138C263.171 62.8946 263.285 62.8946 263.4 62.8946C263.476 62.8946 263.553 62.9138 263.629 62.9138C263.725 62.9138 263.801 62.9138 263.897 62.9329C264.126 62.9713 264.375 63.0288 264.604 63.1246C264.642 63.1437 264.68 63.1629 264.719 63.1629C264.814 63.2012 264.91 63.2587 264.986 63.297C265.101 63.3737 265.216 63.4312 265.311 63.527C265.388 63.5653 265.445 63.6037 265.502 63.6612C265.56 63.6995 265.617 63.7761 265.674 63.8145L266.726 64.8685C267.987 66.1332 267.987 68.1646 266.726 69.4102L266.057 70.0809L265.388 70.7325L265.33 70.7708L265.292 70.8091L256.653 79.2411C256.481 79.4135 256.309 79.586 256.137 79.7585C256.06 79.8351 256.003 79.9118 255.927 79.9884L255.716 80.2376C255.544 80.4292 255.372 80.64 255.219 80.8508C255.086 81.0233 254.952 81.2149 254.818 81.4065C254.799 81.4257 254.799 81.4257 254.799 81.4257C254.665 81.6173 254.531 81.809 254.417 82.0198C254.283 82.2114 254.168 82.4222 254.053 82.633C253.939 82.8438 253.824 83.0546 253.729 83.2654C253.614 83.4762 253.518 83.687 253.423 83.8978C253.327 84.1086 253.232 84.3194 253.155 84.5494C253.06 84.7793 252.983 85.0093 252.888 85.2392C252.811 85.45 252.754 85.6609 252.696 85.8716C252.639 86.0441 252.582 86.2358 252.544 86.4274C252.486 86.6573 252.429 86.8873 252.391 87.1173C252.352 87.3089 252.314 87.5005 252.276 87.6922C252.238 87.9605 252.2 88.2479 252.161 88.5354C252.123 88.8037 252.104 89.0911 252.085 89.3786C252.066 89.6469 252.066 89.896 252.066 90.1451V108.523H245.797C239.164 108.523 233.124 111.129 228.671 115.364H228.423L231.079 113.237Z" fill="#FCD3C1"/>
<path d="M233.66 88.8036L233.507 88.6695L233.622 88.7078C233.622 88.727 233.622 88.7653 233.66 88.8036Z" fill="#FCD3C1"/>
<path d="M243.675 40.32L241.095 42.9071C240.77 43.2328 240.235 43.2328 239.891 42.9071C239.566 42.5813 239.566 42.0447 239.891 41.7189L242.471 39.1318C242.796 38.8061 243.331 38.8061 243.675 39.1318C244 39.4385 244 39.975 243.675 40.32Z" fill="#FCD3C1"/>
<path d="M243.675 40.32L241.095 42.9071C240.77 43.2328 240.235 43.2328 239.891 42.9071C239.566 42.5813 239.566 42.0447 239.891 41.7189L242.471 39.1318C242.796 38.8061 243.331 38.8061 243.675 39.1318C244 39.4385 244 39.975 243.675 40.32Z" fill="#205CAA"/>
<path d="M228.461 57.1072C225.727 57.1072 223.032 56.0341 220.987 53.9836C217.681 50.6683 216.935 45.6666 219.095 41.5273C219.286 41.1632 219.745 41.0099 220.127 41.2015C220.49 41.3932 220.643 41.8531 220.452 42.2363C218.598 45.7816 219.248 50.0742 222.077 52.9104C224.906 55.7466 229.187 56.3982 232.723 54.5393C233.086 54.3477 233.545 54.4818 233.755 54.8651C233.946 55.2292 233.812 55.6891 233.43 55.8999C231.844 56.7048 230.143 57.1072 228.461 57.1072Z" fill="#205CAA"/>
<path d="M274.772 108.58V145.681C265.043 157.85 262.444 164.902 247.23 173.296H213.055V130.254C213.781 124.678 216.362 119.676 220.127 115.882C220.28 115.728 220.452 115.556 220.605 115.403C225.058 111.168 231.098 108.561 237.73 108.561H274.772V108.58Z" fill="#8D9FD1"/>
<path d="M299.505 88.8036V115.594C299.505 132.209 292.796 145.7 284.539 145.7H258.469C258.449 145.7 258.411 145.7 258.392 145.7C254.818 145.643 252.008 138.878 252.008 131.021V91.889C252.008 91.3141 252.027 90.7775 252.027 90.2026C252.047 89.7427 252.047 89.2444 252.085 88.8036H299.505Z" fill="#205CAA"/>
<path d="M288.4 242.725H364.643C379.188 242.725 391 230.901 391 216.298V111.167C391 96.5841 379.207 84.741 364.643 84.741H314.738C300.193 84.741 288.381 96.5649 288.381 111.167V242.725H288.4Z" fill="#205CAA"/>
<path d="M364.987 242.725H266.764V205.605H391V216.662C391 231.035 379.341 242.725 364.987 242.725Z" fill="#E8E7F4"/>
<path d="M274.333 242.725H207.895V116.629C207.895 102.889 219.019 91.7357 232.723 91.7357H274.333C288.037 91.7357 299.161 102.889 299.161 116.629V217.812C299.142 231.572 288.037 242.725 274.333 242.725Z" fill="#91BDE5"/>
<path d="M208.965 114.483H230.009V93.1538C230.009 90.6625 228.002 88.6503 225.517 88.6503H214.068C208.64 88.6503 204.225 93.0579 204.225 98.5195V109.749C204.244 112.375 206.366 114.483 208.965 114.483Z" fill="#FCD3C1"/>
<path d="M274.581 242.725H207.876V205.605H299.142V218.1C299.142 231.687 288.152 242.725 274.581 242.725Z" fill="#8D9FD1"/>
<path d="M237.215 140.948H207.876V242.725H237.215V140.948Z" fill="#91BDE5"/>
<path d="M330.287 108.021C334.109 111.854 334.109 118.062 330.287 121.895L297.507 154.761L277.496 174.825C273.673 178.657 267.48 178.657 263.658 174.825L243.646 154.761L210.867 121.895C207.044 118.062 207.044 111.854 210.867 108.021L223.96 94.8938C227.782 91.0611 233.975 91.0611 237.798 94.8938L263.658 120.822C267.48 124.655 273.673 124.655 277.496 120.822L303.375 94.8746C307.198 91.0419 313.39 91.0419 317.213 94.8746L330.287 108.021Z" fill="#205CAA"/>
<path d="M201.473 252H227.964C233.067 252 237.214 247.842 237.214 242.725H210.723C205.62 242.725 201.473 246.864 201.473 252Z" fill="#FCD3C1"/>
<path d="M298.492 155.128C298.301 155.128 298.11 155.052 297.957 154.918C297.67 154.63 297.67 154.151 297.957 153.864L316.516 135.256C316.802 134.968 317.28 134.968 317.567 135.256C317.854 135.543 317.854 136.022 317.567 136.31L299.008 154.918C298.874 155.052 298.683 155.128 298.492 155.128Z" fill="#91BDE5"/>
<path d="M141.897 233.354C141.706 233.354 141.514 233.277 141.362 233.143C141.075 232.856 141.075 232.377 141.362 232.089L159.921 213.481C160.207 213.194 160.685 213.194 160.972 213.481C161.258 213.769 161.258 214.248 160.972 214.535L142.413 233.143C142.279 233.277 142.088 233.354 141.897 233.354Z" fill="#91BDE5"/>
<path d="M183.22 223.351C183.22 223.159 183.296 222.967 183.43 222.814C183.717 222.527 184.195 222.527 184.481 222.814L203.04 241.422C203.327 241.709 203.327 242.188 203.04 242.476C202.754 242.763 202.276 242.763 201.989 242.476L183.43 223.868C183.296 223.734 183.22 223.542 183.22 223.351Z" fill="#91BDE5"/>
<path d="M238.495 207.886C238.362 208.02 238.171 208.096 237.96 208.096C237.54 208.096 237.215 207.771 237.215 207.349V181.038C237.215 180.616 237.54 180.29 237.96 180.29C238.381 180.29 238.706 180.616 238.706 181.038V207.349C238.706 207.56 238.629 207.751 238.495 207.886Z" fill="#8D9FD1"/>
<path d="M66.0094 201.6C71.3094 206.9 79.9094 206.9 85.2094 201.6L96.4094 190.3C100.409 186.3 100.409 179.9 96.4094 176C92.4094 172 86.0094 172 82.1094 176L72.0094 186.1C69.3094 188.8 65.7094 190.2 62.1094 190.2C61.6094 194.2 62.8094 198.5 66.0094 201.6Z" fill="#91BDE5"/>
<path d="M91.5093 181.4C92.0616 181.4 92.5093 180.952 92.5093 180.4C92.5093 179.848 92.0616 179.4 91.5093 179.4C90.957 179.4 90.5093 179.848 90.5093 180.4C90.5093 180.952 90.957 181.4 91.5093 181.4Z" fill="white"/>
<path d="M96.4092 176L100.809 175.5L98.7092 179.4L96.4092 176Z" fill="#205CAA"/>
<path d="M87.7095 197.2V205.6" stroke="#8D9FD1" stroke-miterlimit="10"/>
<path d="M82.4092 197.2V205.6" stroke="#8D9FD1" stroke-miterlimit="10"/>
</g>
<defs>
<clipPath id="clip0">
<rect width="391" height="252" fill="white"/>
</clipPath>
</defs>
</svg>
