<svg width="288" height="318" viewBox="0 0 288 318" fill="none" xmlns="http://www.w3.org/2000/svg">
<g clip-path="url(#clip0)">
<path d="M145.338 38.6381V66.7074H144.912C144.895 66.6733 144.895 66.622 144.878 66.5879C144.844 66.4172 144.792 66.2635 144.741 66.1098C144.69 65.922 144.622 65.7342 144.571 65.5464C144.503 65.3415 144.417 65.1195 144.332 64.9317C144.264 64.7268 144.179 64.539 144.093 64.3512C144.008 64.1634 143.923 63.9756 143.821 63.7878C143.718 63.6 143.633 63.4122 143.531 63.2243C143.429 63.0365 143.326 62.8487 143.207 62.6951C143.088 62.5073 142.968 62.3365 142.866 62.1658C142.866 62.1487 142.849 62.1487 142.849 62.1487C142.73 61.978 142.61 61.8072 142.491 61.6536C142.355 61.4828 142.201 61.295 142.048 61.1243L141.86 60.9023C141.792 60.834 141.741 60.7486 141.673 60.6974C141.519 60.5438 141.383 60.373 141.213 60.2364L133.525 52.724L133.491 52.6898L133.439 52.6557L132.843 52.0752L132.246 51.4776C131.121 50.3507 131.121 48.5409 132.246 47.4311L133.184 46.492C133.218 46.4579 133.286 46.3896 133.337 46.3554C133.388 46.3042 133.439 46.253 133.508 46.2359C133.61 46.1676 133.695 46.0993 133.797 46.031C133.866 45.9969 133.951 45.9457 134.036 45.9115C134.07 45.8944 134.104 45.8774 134.138 45.8774C134.343 45.792 134.564 45.7408 134.769 45.7066C134.854 45.6895 134.922 45.6895 135.008 45.6895C135.076 45.6725 135.144 45.6725 135.212 45.6725C135.315 45.6725 135.417 45.6725 135.519 45.6895C135.587 45.7066 135.672 45.7066 135.741 45.7237C135.996 45.6725 136.252 45.6554 136.508 45.6554C137.258 45.6725 138.008 45.9627 138.587 46.492L141.11 48.797C141.485 49.1385 141.929 49.3775 142.406 49.5141C142.474 49.497 142.542 49.4799 142.61 49.4458C142.627 49.4458 142.627 49.4287 142.627 49.4287C142.968 49.2921 143.292 49.0872 143.582 48.8141L144.537 47.8579C144.963 47.4311 145.236 46.8847 145.338 46.3213V38.7234V38.6381Z" fill="#205CAA"/>
<path d="M162.385 84.0704L162.503 83.952L162.419 83.9859C162.419 84.0028 162.402 84.0366 162.385 84.0704Z" fill="#205CAA"/>
<path d="M162.385 84.0704L162.503 83.952L162.419 83.9859C162.419 84.0028 162.402 84.0366 162.385 84.0704Z" fill="#FCD3C1"/>
<path d="M162.419 83.9859C162.402 84.0197 162.402 84.0366 162.385 84.0704L162.503 83.952L162.419 83.9859Z" fill="#FCD3C1"/>
<path d="M142.389 49.4287C143.446 49.719 144.673 49.4799 145.509 48.7116L146.549 47.7555C146.6 47.7213 146.651 47.6701 146.685 47.6189V11.3199L145.321 9.95404V46.2359C145.219 46.7993 144.946 47.3457 144.52 47.7725L143.565 48.7287C143.276 49.0189 142.969 49.2238 142.611 49.3433C142.611 49.3433 142.611 49.3604 142.594 49.3604C142.526 49.3775 142.457 49.4116 142.389 49.4287Z" fill="#205CAA"/>
<path d="M132.213 51.3922L132.809 51.9898L133.406 52.5703L133.457 52.6045L133.491 52.6386L141.179 60.1511C141.333 60.3048 141.486 60.4584 141.639 60.6121C141.708 60.6804 141.759 60.7487 141.827 60.817L142.014 61.039C142.168 61.2268 142.321 61.3975 142.458 61.5853C142.577 61.739 142.696 61.9097 142.816 62.0805C142.833 62.0975 142.833 62.0975 142.833 62.0975C142.952 62.2683 143.071 62.439 143.174 62.6268C143.293 62.7976 143.395 62.9854 143.497 63.1732C143.6 63.361 143.702 63.5488 143.787 63.7366C143.89 63.9244 143.975 64.1122 144.06 64.3001C144.145 64.4879 144.23 64.6757 144.299 64.8806C144.384 65.0854 144.452 65.2903 144.537 65.4952C144.605 65.683 144.657 65.8708 144.725 66.0587C144.776 66.2123 144.827 66.3831 144.861 66.5367C144.912 66.7416 144.963 66.9465 144.998 67.1514C145.032 67.3221 145.066 67.4929 145.1 67.6636C145.134 67.9026 145.168 68.1587 145.202 68.4148C145.236 68.6539 145.253 68.91 145.27 69.1661C145.287 69.4051 145.287 69.6271 145.287 69.849V89.3815C146.6 88.101 147.401 86.3765 147.401 84.4642V69.849C147.384 66.1782 145.782 62.661 142.918 60.0999L134.514 52.5874L134.48 52.5533L134.429 52.502C134.003 52.1264 133.559 51.7337 133.116 51.3239C132.537 50.7947 132.23 50.1117 132.213 49.4117C132.179 48.6434 132.485 47.858 133.116 47.2774L134.156 46.3213C134.599 45.9115 135.145 45.6554 135.724 45.553C135.656 45.5359 135.571 45.5188 135.503 45.5188C135.4 45.5018 135.298 45.5018 135.196 45.5018C135.128 45.5018 135.059 45.5188 134.991 45.5188C134.906 45.5188 134.838 45.5188 134.753 45.5359C134.548 45.5701 134.326 45.6213 134.122 45.7067C134.088 45.7237 134.054 45.7408 134.02 45.7408C133.934 45.775 133.849 45.8262 133.781 45.8603C133.679 45.9286 133.576 45.9798 133.491 46.0652C133.423 46.0994 133.372 46.1335 133.321 46.1847C133.27 46.2189 133.218 46.2872 133.167 46.3213L132.23 47.2604C131.105 48.4726 131.105 50.2824 132.213 51.3922Z" fill="#205CAA"/>
<path d="M152.736 25.4571L155.038 27.762C155.327 28.0523 155.805 28.0523 156.112 27.762C156.401 27.4718 156.401 26.9937 156.112 26.7035L153.81 24.3985C153.52 24.1082 153.043 24.1082 152.736 24.3985C152.447 24.6887 152.447 25.1668 152.736 25.4571Z" fill="#205CAA"/>
<path d="M145.304 45.2798V46.2359C145.355 45.9115 145.355 45.5871 145.304 45.2798Z" fill="#205CAA"/>
<path d="M102.943 40.0552V56.0875C102.943 63.7366 109.131 69.9344 116.768 69.9344H126.928C126.928 69.9344 126.382 69.4905 125.99 68.7392L125.973 68.7221C125.956 68.7051 125.956 68.688 125.939 68.6709C125.939 68.6539 125.922 68.6539 125.922 68.6539L125.786 68.5343L116.154 58.8876C111.245 52.6386 110.972 43.931 115.353 37.4088V37.3917C115.438 37.2722 115.524 37.1526 115.609 37.0161C115.694 36.8965 115.796 36.7599 115.865 36.6404C116.052 36.4014 116.24 36.1624 116.427 35.9233C116.802 35.4965 117.177 35.0696 117.586 34.6599L121.933 30.306L120.842 29.2133C118.865 27.2328 120.228 24.3643 122.905 23.6643C124.183 23.3228 126.212 22.7082 127.933 22.1618C128.138 22.0935 128.36 22.0252 128.547 21.9569C128.649 21.9228 128.752 21.8886 128.854 21.8716C129.007 21.8203 129.161 21.7691 129.314 21.7179C129.604 21.6155 129.877 21.5472 130.115 21.4618C130.286 21.4106 130.439 21.3594 130.576 21.3081C130.712 21.2569 130.814 21.2228 130.9 21.2057C131.002 21.1715 131.053 21.1545 131.053 21.1545L140.889 11.3199L142.252 9.95404V46.2359C142.355 46.7994 142.628 47.3457 143.054 47.7726L144.008 48.7287C144.298 49.019 144.605 49.2238 144.963 49.3434C144.963 49.3434 144.963 49.3604 144.98 49.3604C145.048 49.3946 145.116 49.4116 145.184 49.4287C145.679 49.2921 146.105 49.0531 146.48 48.7116L149.003 46.4067C149.582 45.8774 150.333 45.5871 151.083 45.57C151.355 45.553 151.594 45.5871 151.85 45.6383C151.918 45.6213 152.003 45.6042 152.071 45.6042C152.174 45.5871 152.276 45.5871 152.378 45.5871C152.446 45.5871 152.514 45.6042 152.583 45.6042C152.668 45.6042 152.736 45.6042 152.821 45.6213C153.026 45.6554 153.247 45.7066 153.452 45.792C153.486 45.8091 153.52 45.8261 153.554 45.8261C153.64 45.8603 153.725 45.9115 153.793 45.9457C153.895 46.014 153.998 46.0652 154.083 46.1505C154.151 46.1847 154.202 46.2188 154.253 46.2701C154.304 46.3042 154.355 46.3725 154.407 46.4067L155.344 47.3457C156.469 48.4726 156.469 50.2824 155.344 51.3922L154.748 51.9898L154.151 52.5703L154.1 52.6045L154.066 52.6386L146.378 60.1511C146.224 60.3047 146.071 60.4584 145.917 60.6121C145.849 60.6804 145.798 60.7487 145.73 60.817L145.542 61.0389C145.389 61.2097 145.236 61.3975 145.099 61.5682C144.963 61.7219 144.861 61.8926 144.741 62.0634C144.724 62.0804 144.724 62.0804 144.724 62.0804C144.605 62.2512 144.486 62.4219 144.383 62.6097C144.264 62.7805 144.162 62.9683 144.059 63.139C143.957 63.3097 143.855 63.5146 143.77 63.7024C143.667 63.8903 143.582 64.0781 143.497 64.2659C143.412 64.4537 143.326 64.6415 143.258 64.8464C143.173 65.0513 143.105 65.2562 143.02 65.461C142.951 65.6489 142.9 65.8367 142.849 66.0245C142.798 66.1781 142.747 66.3489 142.713 66.5025C142.696 66.5367 142.696 66.5708 142.679 66.6221C142.645 66.7928 142.61 66.9635 142.576 67.1343C142.542 67.305 142.508 67.4758 142.474 67.6465C142.44 67.8855 142.406 68.1416 142.372 68.3977C142.338 68.6368 142.321 68.8929 142.304 69.149C142.287 69.388 142.287 69.61 142.287 69.8319V89.3644C143.718 90.7815 145.781 91.6694 148.048 91.6694H171.317C178.681 91.6694 184.664 86.1887 184.664 79.4445V40.4991C184.664 39.2527 184.596 38.0063 184.477 36.7941C183.539 27.2327 178.988 18.5934 172.067 12.0883L171.197 11.2858L171.163 11.2517C168.385 8.77595 165.231 6.62464 161.805 4.90019C156.043 1.98056 149.48 0.22196 142.491 0H142.474L140.769 0.0341477H140.735C119.666 1.19517 102.943 18.6788 102.943 40.0552Z" fill="#205CAA"/>
<path d="M161.822 68.5173L171.436 58.8876L161.822 68.5173Z" fill="#205CAA"/>
<path d="M133.457 52.6215L133.508 52.6557L141.196 60.1681L133.508 52.6386L133.457 52.6215Z" fill="#205CAA"/>
<path d="M132.809 51.9898L133.405 52.5703V52.5532C133.218 52.3825 133.013 52.1947 132.809 51.9898Z" fill="#205CAA"/>
<path d="M161.686 68.6527L161.82 68.5343L161.719 68.5681C161.702 68.585 161.702 68.6189 161.686 68.6527Z" fill="#205CAA"/>
<path d="M127.644 91.7718V92.2328C127.644 92.2498 127.644 92.2498 127.644 92.2498V92.4035H166.135C162.163 88.6302 156.777 86.3082 150.861 86.3082H145.321V91.7888H127.644V91.7718Z" fill="#FCD3C1"/>
<path d="M152.737 24.3985C153.026 24.1082 153.504 24.1082 153.793 24.3985L156.095 26.7035C156.384 26.9937 156.384 27.4718 156.095 27.762C155.805 28.0523 155.328 28.0523 155.021 27.762L152.737 25.4571C152.447 25.1668 152.447 24.6888 152.737 24.3985ZM166.357 92.3865H166.135C162.163 88.6132 156.777 86.2911 150.861 86.2911H145.321V69.9173C145.321 69.6783 145.304 69.4563 145.304 69.2344C145.287 68.9783 145.27 68.7222 145.236 68.4831C145.202 68.227 145.168 67.9709 145.134 67.7319C145.117 67.5441 145.083 67.3904 145.031 67.2197C144.997 67.0148 144.946 66.7928 144.895 66.605C144.861 66.4343 144.81 66.2806 144.759 66.1099C144.708 65.922 144.639 65.7342 144.588 65.5464C144.52 65.3415 144.435 65.1196 144.35 64.9318C144.281 64.7269 144.196 64.5391 144.111 64.3513C144.026 64.1634 143.923 63.9756 143.838 63.7878C143.736 63.6 143.651 63.4122 143.548 63.2244C143.446 63.0536 143.344 62.8488 143.225 62.678C143.105 62.4902 142.986 62.3195 142.884 62.1487C142.884 62.1317 142.867 62.1317 142.867 62.1317C142.747 61.9609 142.628 61.7902 142.509 61.6365C142.372 61.4487 142.219 61.278 142.065 61.0902L141.878 60.8682C141.81 60.7999 141.759 60.7145 141.69 60.6633C141.537 60.5096 141.401 60.3389 141.23 60.2023L133.525 52.6898L133.491 52.6557L133.44 52.6215L132.843 52.041L132.247 51.4434C131.122 50.3166 131.122 48.5067 132.247 47.3969L133.184 46.4579C133.218 46.4237 133.286 46.3554 133.338 46.3213C133.389 46.2701 133.44 46.2188 133.508 46.2018C133.61 46.1335 133.696 46.0652 133.798 45.9969C133.866 45.9627 133.951 45.9115 134.037 45.8774C134.071 45.8603 134.105 45.8432 134.139 45.8432C134.343 45.7579 134.565 45.7066 134.77 45.6725C134.855 45.6554 134.923 45.6554 135.008 45.6554C135.076 45.6383 135.145 45.6383 135.213 45.6383C135.315 45.6383 135.417 45.6383 135.52 45.6554C135.588 45.6725 135.673 45.6725 135.741 45.6896C136.287 45.7749 136.798 46.031 137.241 46.475L139.543 48.7799C139.594 48.8311 139.662 48.8994 139.73 48.9336C139.781 48.9848 139.849 49.036 139.918 49.0702C139.952 49.1043 139.986 49.1214 140.02 49.1385C140.088 49.1726 140.139 49.2068 140.19 49.2409C140.207 49.258 140.224 49.2751 140.258 49.2751C140.276 49.2921 140.293 49.2921 140.31 49.3092C140.327 49.3263 140.344 49.3263 140.378 49.3434C140.412 49.3604 140.48 49.3775 140.514 49.3946C140.599 49.4287 140.685 49.4629 140.77 49.497C140.787 49.497 140.787 49.497 140.787 49.497C140.855 49.5141 140.906 49.5312 140.974 49.5312C140.991 49.5482 141.026 49.5482 141.043 49.5482C141.128 49.5824 141.213 49.5824 141.298 49.5995H141.315C141.69 49.6336 142.082 49.5995 142.44 49.4799C142.509 49.4629 142.577 49.4458 142.645 49.4117C142.662 49.4117 142.662 49.3946 142.662 49.3946C143.003 49.2751 143.327 49.0531 143.617 48.7799L144.571 47.8238C144.997 47.3969 145.27 46.8506 145.372 46.2871C145.424 45.9627 145.424 45.6554 145.372 45.331V9.95404L146.736 11.3199L156.572 21.1715C156.572 21.1715 156.623 21.1886 156.725 21.2057C156.794 21.2398 156.913 21.274 157.049 21.3081C157.169 21.3423 157.339 21.4106 157.51 21.4618C157.748 21.5301 158.021 21.6155 158.311 21.7179C158.464 21.7691 158.6 21.8204 158.771 21.8716C158.873 21.9057 158.976 21.9399 159.078 21.974C159.282 22.0423 159.487 22.1106 159.691 22.1789C161.413 22.7253 163.425 23.3399 164.72 23.6814C167.414 24.3814 168.76 27.2669 166.783 29.2304L165.692 30.3231L170.039 34.6769C170.448 35.0867 170.823 35.5136 171.198 35.9404C171.385 36.1794 171.573 36.4185 171.76 36.6575C171.846 36.777 171.931 36.9136 172.016 37.0331C172.118 37.1526 172.204 37.2722 172.272 37.4088C172.289 37.4088 172.289 37.4258 172.289 37.4258C176.67 43.948 176.397 52.6557 171.488 58.9047L161.856 68.5514L161.754 68.5856C161.737 68.6197 161.737 68.6539 161.72 68.688C161.72 68.7051 161.703 68.7051 161.703 68.7051C161.686 68.7222 161.686 68.7392 161.669 68.7563L161.652 68.7734L160.595 69.9685H160.561C158.583 72.3418 157.407 75.398 157.407 78.7274C157.407 83.2178 159.572 87.196 162.913 89.6888C163.271 89.962 163.646 90.201 164.038 90.4401L166.357 92.3865Z" fill="#FCD3C1"/>
<path d="M161.686 68.6527L161.821 68.5343L161.72 68.5681C161.703 68.585 161.703 68.6189 161.686 68.6527Z" fill="#FCD3C1"/>
<path d="M152.736 25.4571L155.038 27.762C155.327 28.0523 155.805 28.0523 156.112 27.762C156.401 27.4718 156.401 26.9937 156.112 26.7035L153.81 24.3985C153.52 24.1082 153.043 24.1082 152.736 24.3985C152.447 24.6887 152.447 25.1668 152.736 25.4571Z" fill="#FCD3C1"/>
<path d="M152.736 25.4571L155.038 27.762C155.327 28.0523 155.805 28.0523 156.112 27.762C156.401 27.4718 156.401 26.9937 156.112 26.7035L153.81 24.3985C153.52 24.1082 153.043 24.1082 152.736 24.3985C152.447 24.6887 152.447 25.1668 152.736 25.4571Z" fill="#205CAA"/>
<path d="M166.305 40.4308C168.743 40.4308 171.146 39.4747 172.97 37.6478C175.92 34.694 176.584 30.2377 174.658 26.5498C174.488 26.2254 174.078 26.0888 173.738 26.2595C173.414 26.4303 173.277 26.8401 173.448 27.1815C175.101 30.3402 174.522 34.1647 171.999 36.6917C169.476 39.2186 165.657 39.7991 162.504 38.1429C162.18 37.9722 161.771 38.0917 161.583 38.4332C161.413 38.7576 161.532 39.1674 161.873 39.3552C163.288 40.0723 164.805 40.4308 166.305 40.4308Z" fill="#205CAA"/>
<path d="M140.258 304.324H114.092V192.456C114.092 183.048 121.712 175.417 131.104 175.417H140.258V304.324Z" fill="#FCD3C1"/>
<path d="M174.607 304.324H148.458V192.456C148.458 183.048 156.078 175.417 165.47 175.417H174.624V304.324H174.607Z" fill="#FCD3C1"/>
<path d="M278.795 100.121L226.377 152.623C219.967 159.043 209.586 159.043 203.194 152.623L150.776 100.121L161.259 89.6205C165.692 85.1813 172.868 85.1813 177.3 89.6205L209.842 122.232C212.569 124.963 217.018 124.963 219.746 122.232L260.316 81.5958L278.795 100.121Z" fill="#8D9FD1"/>
<path d="M184.664 177.995H103.268V104.594C103.268 94.4866 111.45 86.2911 121.541 86.2911H166.374C176.465 86.2911 184.647 94.4866 184.647 104.594V177.995H184.664Z" fill="#8D9FD1"/>
<path d="M103.268 177.397H184.664V210.298C184.664 217.452 178.869 223.24 171.743 223.24H116.189C109.046 223.24 103.268 217.435 103.268 210.298V177.397Z" fill="#205CAA"/>
<path d="M83.4086 205.159L94.4036 216.172L69.8908 240.724C64.6575 245.966 56.1513 245.966 50.9181 240.724L49.418 239.221L81.1074 207.481L83.4086 205.159Z" fill="#8D9FD1"/>
<path d="M49.0088 318H33.4624V283.289C33.4624 275.862 39.4628 269.852 46.878 269.852H49.0088V314.739V318Z" fill="#FCD3C1"/>
<path d="M67.6401 318H52.0938V283.289C52.0938 275.862 58.0941 269.852 65.5093 269.852H67.6401V314.739V318Z" fill="#FCD3C1"/>
<path d="M17.2851 292.321L6.30713 281.308L30.8199 256.756C36.0532 251.515 44.5594 251.515 49.7927 256.756L51.2927 258.259L19.6034 289.999L17.2851 292.321Z" fill="#8D9FD1"/>
<path d="M58.9467 301.643H41.5593C34.5021 301.643 28.7915 295.907 28.7915 288.855V264.542C28.7915 257.473 34.5191 251.754 41.5593 251.754L72.0724 235.704L71.7145 288.872C71.7315 295.924 66.0039 301.643 58.9467 301.643Z" fill="#8D9FD1"/>
<path d="M70.0607 252.608L61.0943 261.589C55.1792 267.513 45.582 267.513 39.6669 261.589L30.1038 252.01C24.1887 246.086 24.1887 236.473 30.1038 230.549L39.0703 221.568C44.9854 215.643 54.5825 215.643 60.4977 221.568L70.0607 231.146C75.9759 237.088 75.9759 246.683 70.0607 252.608Z" fill="#FCD3C1"/>
<path d="M50.9176 243.609C50.6619 243.865 50.2358 243.865 49.9801 243.609L47.9515 241.578C47.6958 241.321 47.6958 240.895 47.9515 240.638C48.2072 240.382 48.6334 240.382 48.8891 240.638L50.9176 242.67C51.1733 242.926 51.1733 243.353 50.9176 243.609Z" fill="#205CAA"/>
<path d="M60.924 233.587C60.6683 233.843 60.2421 233.843 59.9864 233.587L57.9579 231.555C57.7022 231.299 57.7022 230.872 57.9579 230.616C58.2136 230.36 58.6397 230.36 58.8954 230.616L60.924 232.648C61.1797 232.904 61.1797 233.331 60.924 233.587Z" fill="#205CAA"/>
<path d="M63.6853 246.614C62.0318 248.271 59.9351 249.329 57.6168 249.653C55.3837 249.978 53.0483 249.568 51.0539 248.527C50.73 248.356 50.6107 247.946 50.7811 247.622C50.9516 247.297 51.3607 247.178 51.6846 247.349C53.4233 248.271 55.4689 248.612 57.4293 248.339C59.4578 248.049 61.2988 247.127 62.7478 245.675C64.1967 244.224 65.1172 242.38 65.407 240.348C65.6968 238.385 65.3388 236.336 64.4183 234.594C64.2478 234.27 64.3672 233.86 64.691 233.689C65.0149 233.519 65.424 233.638 65.5945 233.963C66.6343 235.96 67.0435 238.282 66.7196 240.536C66.3957 242.858 65.3388 244.958 63.6853 246.614Z" fill="#205CAA"/>
<path d="M45.7353 218.699C47.832 220.799 47.832 224.213 45.7353 226.331L41.2692 230.804C39.7009 232.375 37.1609 232.375 35.5756 230.804C34.0073 229.233 34.0073 226.689 35.5756 225.101L39.5815 221.089C40.6555 220.013 41.201 218.579 41.201 217.162C42.8204 216.94 44.508 217.452 45.7353 218.699Z" fill="#205CAA"/>
<path d="M44.8146 253.188C43.9964 254.007 42.6497 254.007 41.8315 253.188L38.5927 249.944C37.7744 249.124 37.7744 247.775 38.5927 246.956C38.8484 246.7 39.2745 246.7 39.5302 246.956C39.7859 247.212 39.7859 247.639 39.5302 247.895C39.2234 248.202 39.2234 248.697 39.5302 249.005L42.769 252.249C43.0759 252.556 43.5702 252.556 43.8771 252.249C44.1327 251.993 44.5589 251.993 44.8146 252.249C45.0703 252.505 45.0703 252.932 44.8146 253.188Z" fill="#205CAA"/>
<path d="M48.8554 318H32.934C32.0646 318 31.3486 317.283 31.3486 316.412V312.827C31.3486 311.956 32.0646 311.239 32.934 311.239H48.8554C49.7247 311.239 50.4407 311.956 50.4407 312.827V316.412C50.4407 317.283 49.7247 318 48.8554 318Z" fill="#205CAA"/>
<path d="M67.9813 318H52.0428C51.1735 318 50.4575 317.283 50.4575 316.412V312.827C50.4575 311.956 51.1735 311.239 52.0428 311.239H67.9813C68.8507 311.239 69.5666 311.956 69.5666 312.827V316.412C69.5666 317.283 68.8507 318 67.9813 318Z" fill="#205CAA"/>
<path d="M139.167 317.983H114.433C111.79 317.983 109.643 315.832 109.643 313.185V306.134C109.643 303.487 111.79 301.336 114.433 301.336H139.184C141.826 301.336 143.974 303.487 143.974 306.134V313.168C143.957 315.832 141.809 317.983 139.167 317.983Z" fill="#205CAA"/>
<path d="M114.092 192.917H87.9429V113.012C87.9429 98.5501 99.6538 86.8033 114.109 86.8033V192.917H114.092Z" fill="#8D9FD1"/>
<path d="M181.647 317.983H153.23C150.588 317.983 148.44 315.832 148.44 313.185V301.353H174.607C181.136 301.353 186.42 306.646 186.42 313.185C186.437 315.832 184.289 317.983 181.647 317.983Z" fill="#205CAA"/>
<path d="M174.624 284.706H148.458V301.336H174.624V284.706Z" fill="#8D9FD1"/>
<path d="M140.258 284.706H114.092V301.336H140.258V284.706Z" fill="#8D9FD1"/>
<path d="M184.664 40.0552V56.0875C184.664 63.7366 178.476 69.9344 170.839 69.9344H160.68C160.68 69.9344 161.225 69.4905 161.617 68.7392L161.634 68.7222C161.651 68.7051 161.651 68.688 161.668 68.6709C161.668 68.6539 161.685 68.6539 161.685 68.6539L161.822 68.5343L171.453 58.8876C176.362 52.6386 176.635 43.931 172.254 37.4088V37.3917C172.169 37.2722 172.084 37.1526 171.999 37.0161C171.913 36.8965 171.811 36.7599 171.743 36.6404C171.555 36.4014 171.368 36.1624 171.18 35.9233C170.805 35.4965 170.43 35.0696 170.021 34.6599L165.674 30.306L166.765 29.2133C168.743 27.2328 167.379 24.3644 164.703 23.6643C163.424 23.3228 161.396 22.7082 159.674 22.1618C159.469 22.0935 159.248 22.0252 159.06 21.9569C158.958 21.9228 158.856 21.8886 158.753 21.8716C158.6 21.8204 158.447 21.7691 158.293 21.7179C158.003 21.6155 157.731 21.5472 157.492 21.4618C157.322 21.4106 157.168 21.3594 157.032 21.3081C156.895 21.2569 156.793 21.2228 156.708 21.2057C156.606 21.1715 156.554 21.1545 156.554 21.1545L146.719 11.3199L145.355 9.95404V46.2359C145.253 46.7994 144.98 47.3457 144.554 47.7726L143.599 48.7287C143.309 49.019 143.003 49.2238 142.645 49.3434C142.645 49.3434 142.645 49.3604 142.628 49.3604C142.559 49.3946 142.491 49.4117 142.423 49.4287C141.929 49.2921 141.502 49.0531 141.127 48.7116L138.605 46.4067C138.025 45.8774 137.275 45.5871 136.525 45.57C136.252 45.553 136.013 45.5871 135.758 45.6383C135.69 45.6213 135.604 45.6042 135.536 45.6042C135.434 45.5871 135.332 45.5871 135.229 45.5871C135.161 45.5871 135.093 45.6042 135.025 45.6042C134.94 45.6042 134.871 45.6042 134.786 45.6213C134.582 45.6554 134.36 45.7066 134.155 45.792C134.121 45.8091 134.087 45.8261 134.053 45.8261C133.968 45.8603 133.883 45.9115 133.814 45.9457C133.712 46.014 133.61 46.0652 133.525 46.1506C133.457 46.1847 133.405 46.2188 133.354 46.2701C133.303 46.3042 133.252 46.3725 133.201 46.4067L132.263 47.3457C131.138 48.4726 131.138 50.2824 132.263 51.3922L132.86 51.9898L133.457 52.5703L133.508 52.6045L133.542 52.6386L141.23 60.1511C141.383 60.3048 141.537 60.4584 141.69 60.6121C141.758 60.6804 141.809 60.7487 141.877 60.817L142.065 61.0389C142.218 61.2097 142.372 61.3975 142.508 61.5682C142.645 61.7219 142.747 61.8926 142.866 62.0634C142.883 62.0804 142.883 62.0804 142.883 62.0804C143.003 62.2512 143.122 62.4219 143.224 62.6097C143.343 62.7805 143.446 62.9683 143.548 63.139C143.65 63.3097 143.753 63.5146 143.838 63.7024C143.94 63.8903 144.025 64.0781 144.111 64.2659C144.196 64.4537 144.281 64.6415 144.349 64.8464C144.434 65.0513 144.503 65.2562 144.588 65.4611C144.656 65.6489 144.707 65.8367 144.758 66.0245C144.809 66.1782 144.861 66.3489 144.895 66.5026C144.912 66.5367 144.912 66.5709 144.929 66.6221C144.963 66.7928 144.997 66.9635 145.031 67.1343C145.065 67.305 145.099 67.4758 145.133 67.6465C145.167 67.8855 145.202 68.1416 145.236 68.3978C145.27 68.6368 145.287 68.8929 145.304 69.149C145.321 69.388 145.321 69.61 145.321 69.8319V85.8813C145.321 89.0571 142.781 91.6523 139.627 91.6864C139.61 91.6864 139.576 91.6864 139.559 91.6864H116.291C108.927 91.6864 102.943 86.2057 102.943 79.4616V40.4991C102.943 39.2527 103.012 38.0063 103.131 36.7941C104.068 27.2328 108.62 18.5934 115.541 12.0883L116.427 11.2687L116.461 11.2346C119.24 8.75887 122.393 6.60757 125.82 4.88311C131.564 1.98056 138.127 0.22196 145.116 0H145.133L146.838 0.0341477H146.872C167.942 1.19517 184.664 18.6788 184.664 40.0552Z" fill="#205CAA"/>
<path d="M6.30746 281.308L17.3024 292.321L13.3136 296.316C10.893 298.741 6.97227 298.741 4.56872 296.316C2.77884 294.523 2.31859 291.877 3.18796 289.657L3.17091 289.675C2.45496 290.392 1.27875 290.392 0.545753 289.675C-0.170199 288.957 -0.170199 287.779 0.545753 287.062L6.30746 281.308Z" fill="#FCD3C1"/>
<path d="M83.4082 205.159L94.4032 216.172L98.3921 212.176C100.813 209.752 100.813 205.825 98.3921 203.418C96.6022 201.625 93.96 201.164 91.7439 202.035L91.761 202.018C92.4769 201.3 92.4769 200.122 91.761 199.388C91.045 198.671 89.8688 198.671 89.1529 199.388L83.4082 205.159Z" fill="#FCD3C1"/>
<path d="M114.092 192.917V206.61C114.092 207.635 113.615 208.625 112.762 209.206C112.268 209.547 111.672 209.735 111.024 209.735C109.302 209.735 107.904 208.335 107.904 206.61V206.559C106.95 208.745 105.279 210.554 103.182 211.647C101.733 212.415 100.097 212.842 98.3412 212.842C96.6024 212.842 94.9489 212.415 93.5 211.647C90.193 209.906 87.9258 206.423 87.9258 202.41V192.917H114.092Z" fill="#FCD3C1"/>
<path d="M259.754 82.1592L269.419 72.4784C270.135 71.7613 271.175 71.3857 272.181 71.5905C272.76 71.7101 273.323 71.9832 273.783 72.4442C274.993 73.6565 274.993 75.637 273.783 76.8663L273.749 76.9005C275.965 76.0297 278.42 75.9444 280.687 76.6444C282.255 77.1225 283.721 77.9932 284.949 79.2225C286.176 80.4518 287.045 81.9373 287.523 83.491C288.631 87.0765 287.778 91.1401 284.949 93.9743L278.249 100.684L259.754 82.1592Z" fill="#FCD3C1"/>
</g>
<defs>
<clipPath id="clip0">
<rect width="288" height="318" fill="white"/>
</clipPath>
</defs>
</svg>
