<?xml version="1.0" encoding="utf-8"?>
<!-- Generator: Adobe Illustrator 25.0.0, SVG Export Plug-In . SVG Version: 6.00 Build 0)  -->
<svg version="1.1" id="Layer_1" xmlns="http://www.w3.org/2000/svg" xmlns:xlink="http://www.w3.org/1999/xlink" x="0px" y="0px"
	 viewBox="0 0 360 360" style="enable-background:new 0 0 360 360;" xml:space="preserve">
<style type="text/css">
	.st0{display:none;fill:#F37972;}
	.st1{fill:#92BDE5;}
	.st2{fill:#245DAA;}
	.st3{fill:#FFFFFF;}
	.st4{fill:#FCD3C2;}
	.st5{fill:none;stroke:#FFFFFF;stroke-width:1.0807;stroke-miterlimit:10;}
	.st6{display:none;fill:none;stroke:#245DAA;stroke-width:1.0327;stroke-miterlimit:10;}
	.st7{fill:none;}
	.st8{font-family:'SharpGroteskMedium22';}
	.st9{font-size:20.9924px;}
	.st10{font-size:20.2746px;}
	.st11{fill:#E8E6F3;}
	.st12{fill:#8C9FD1;}
	.st13{fill:#F37972;}
	.st14{fill:#3D3839;}
</style>
<rect class="st0" width="360" height="360"/>
<circle class="st6" cx="180" cy="136" r="110.5"/>
<g>
	<path class="st4" d="M111.96,325.26c-40.62-6.87-64.1-12.98-101.33-31.65l34.05-11.82l-11.27-33.59
		c32.67,16.4,51.32,20.93,86.97,26.97L111.96,325.26z"/>
	<path class="st4" d="M248.02,325.26c40.62-6.87,64.11-12.98,101.34-31.65l-34.06-11.82l11.27-33.59
		c-32.68,16.4-51.32,20.93-86.98,26.97L248.02,325.26z"/>
</g>
<g>
	<path class="st3" d="M118.57,285.98l1.83-10.82L72.35,275c-0.63,5.26,14.17,4.38,24.05,6.49
		C102.19,282.74,118.57,285.98,118.57,285.98z"/>
	<path class="st3" d="M241.42,285.98l-1.83-10.82c0,0,48.19-1.23,48.13-0.16c-0.29,5.83-14.27,4.38-24.12,6.49
		C257.8,282.74,241.42,285.98,241.42,285.98z"/>
</g>
<path class="st4" d="M302.67,323.56c-79.91,24.59-165.34,24.59-245.24,0c4.97-16.18,9.95-32.37,14.92-48.56
	c70.17,21.59,145.21,21.59,215.37,0C292.71,291.18,297.69,307.38,302.67,323.56z"/>
<g>
	<path class="st4" d="M252.88,46.03c6.65-6.33,4.38-13.9-0.37-19.66c-5.13-5.09-11.92-8.37-11.92-8.37
		C240.05,18.67,231.82,32.06,252.88,46.03z"/>
	<path class="st4" d="M269.05,37.36c-0.01,0-12.6,11.67,4.9,30.07C290.48,58.82,269.9,36.3,269.05,37.36z"/>
	<path class="st4" d="M297.51,76.65c-1.94-6.98-6.19-13.19-6.19-13.19c-0.73,0.29-14.61,7.9-3.22,30.46
		C297.02,91.72,298.78,83.98,297.51,76.65z"/>
	<path class="st4" d="M295.75,123c18.59,0.64,12.09-29.11,10.65-28.58C306.4,94.3,289.76,98.28,295.75,123z"/>
	<path class="st4" d="M312.83,128.15c-0.67-0.15-16.76-0.42-18,24.83c8.62,2.44,14.74-3.29,16.63-10.32
		C313.36,135.68,312.83,128.15,312.83,128.15z"/>
	<path class="st4" d="M301.08,162.93c-4.53,2.14-9.83,6.78-14.33,18.91c7.99,4.66,14.33,0.3,18.68-5.76
		c4.55-6.02,4.59-13.76,4.89-13.68C310.33,162.4,305.88,161.01,301.08,162.93z"/>
	<path class="st4" d="M271.85,207.95c12.86,13.58,28.6-12.52,27.78-12.89C299.63,195.06,284.65,185.98,271.85,207.95z"/>
	<path class="st4" d="M250.17,228.65c4.38,7.79,12.91,8.16,19.01,4.26c6.27-3.64,11.14-9.37,11.14-9.37
		C280,223.03,268.57,211.35,250.17,228.65z"/>
	<path class="st4" d="M247.56,240.18c-4.68-1.72-11.81-2.21-23.49,3.34c2.48,8.96,10.01,10.2,17.41,8.96
		c7.46-0.98,12.93-6.54,13.09-6.2C254.57,246.27,252.4,242.16,247.56,240.18z"/>
	<path class="st4" d="M195.2,251.63c0.05,9.35,6.88,12.15,14.32,12.45c7.34,0.17,14.63-1.69,14.47-2.05
		C224,262.03,219.69,244.73,195.2,251.63z"/>
	<path class="st4" d="M221.86,239.37c26.38-9.54,57.21-37.15,66.83-74.33c9.67-36.93-1.83-76.68-20.8-97.86
		c-8.74-11.26-18.5-18.05-24.95-23.14c-2.31-1.24-4.14-2.29-5.79-3.17c-4.37-8.11-11.83-12.19-18.17-12.19
		c-7.06-0.49-11.92,1.46-11.92,1.46s3.3,4.7,8.53,8.21c5.04,2.83,10.99,5.85,20.06,5.36c1.57,0.81,3.34,1.81,5.5,2.99
		c2.36,1.85,5.22,4.04,8.25,6.55c-17.7-13.65-24.73,4.25-24.43,3.59c0,0,4.15,2.7,9.42,3.32c4.87,1.32,11.16,1.32,16.12-6.05
		c4.78,4.02,9.99,8.76,14.93,15.16c0.56,0.61,1.04,1.43,1.63,2.09c-13.48-14.81-23.35-1.26-23.35-1.26
		c0.68-0.56,11.73,15.1,25.4,3.92c4.47,5.92,8.39,12.93,11.5,20.68c-8.7-17.7-22.58-6.63-22.05-7.03c0,0,2.27,4.4,6.56,7.62
		c3.54,3.39,8.93,6.56,16.87,2.69c2.03,5.54,3.54,11.4,4.72,17.47c-5.75-12.65-17.99-7.09-17.99-7.09
		c1.09-0.22,2.68,18.28,19.48,16.05c0.69,6.15,0.76,12.47,0.4,18.85c-1.61-14.66-16.12-12.3-15.63-12.3c0,0-0.31,4.93,1.71,9.82
		c1.96,4.81,4.43,10.01,13.32,10.75c-0.55,4.24-1.34,8.45-2.43,12.68c-0.53,1.94-1.31,3.74-1.91,5.62
		c0.98-6.02-1.2-10.06-4.17-12.34c-3.79-3.16-8.28-3.59-8.28-3.59c1.06,0.46-6.62,17.97,9.66,23.87c-2.58,6.07-5.81,11.7-9.39,17
		c6.25-14.19-7.35-18.97-7.29-18.97c0.4,0.37-11.19,15.17,2.89,25.35c-3.27,4.26-6.87,8.11-10.53,11.7
		c5.27-10.12-4.57-17.19-4.18-16.89c0,0-3.73,3.25-5.74,8.2c-1.74,4.79-3.55,9.89,1.46,16.29c-5.37,4.3-10.98,8.07-16.52,11.03
		c5.27-3.64,6.62-8.16,6.06-11.98c-0.43-4.95-3.34-8.36-3.34-8.36c0.49,1.01-17.29,8.09-9.96,23.68c-1.19,0.46-2.44,1.17-3.64,1.64
		c-5.23,2.92-10.76,3.43-15.62,4.63c14.32-5.9,8.09-18.52,8.09-18.47c0,0-18.68,2.92-15.76,20.04c-3.22,0.55-6.27,0.81-8.93,0.76
		c-8.01,0.22-12.57,0.31-12.57,0.31v-0.21c-1.17-0.05-2.27-0.05-3.68-0.1c-2.65,0.05-5.7-0.21-8.94-0.76
		c2.91-17.13-15.75-20.04-15.75-20.04c0-0.06-6.24,12.57,8.11,18.47c-4.85-1.2-10.38-1.7-15.63-4.63c-1.23-0.46-2.46-1.17-3.64-1.64
		c7.33-15.59-10.43-22.67-9.95-23.68c0,0-2.89,3.41-3.39,8.36c-0.5,3.82,0.84,8.35,6.1,11.98c-5.53-2.96-11.16-6.72-16.55-11.03
		c5.05-6.4,3.24-11.5,1.5-16.29c-2.01-4.95-5.74-8.2-5.74-8.2c0.38-0.3-9.45,6.77-4.18,16.89c-3.7-3.59-7.26-7.44-10.53-11.7
		c14.09-10.18,2.47-24.98,2.87-25.35c0.04,0-13.52,4.78-7.25,18.97c-3.57-5.3-6.84-10.93-9.45-17c16.29-5.89,8.64-23.41,9.7-23.87
		c0,0-4.47,0.43-8.29,3.59c-2.95,2.28-5.14,6.32-4.13,12.34c-0.62-1.88-1.44-3.68-1.94-5.62c-1.12-4.22-1.87-8.44-2.45-12.68
		c8.91-0.74,11.37-5.93,13.35-10.75c2.01-4.89,1.67-9.82,1.67-9.82c0.57,0-13.99-2.36-15.58,12.3c-0.38-6.39-0.3-12.71,0.4-18.85
		c16.78,2.24,18.35-16.27,19.45-16.05c0,0-12.25-5.56-18,7.09c1.17-6.06,2.73-11.93,4.75-17.47c7.92,3.87,13.31,0.7,16.9-2.69
		c4.24-3.23,6.5-7.62,6.5-7.62c0.58,0.39-13.31-10.68-22.04,7.03c3.15-7.75,7.05-14.76,11.54-20.68
		c13.64,11.18,24.69-4.48,25.39-3.92c0,0-9.86-13.55-23.37,1.26c0.59-0.66,1.08-1.47,1.64-2.09c4.94-6.4,10.14-11.14,14.92-15.16
		c4.99,7.37,11.27,7.37,16.12,6.05c5.26-0.62,9.39-3.32,9.39-3.32c0.34,0.67-6.71-17.24-24.41-3.59c3.06-2.5,5.91-4.7,8.25-6.55
		c2.16-1.19,3.98-2.18,5.51-2.99c9.08,0.49,15-2.53,20.04-5.36c5.28-3.51,8.57-8.21,8.57-8.21s-4.9-1.95-11.91-1.46
		c-6.37,0-13.85,4.09-18.19,12.19c-1.68,0.88-3.51,1.92-5.8,3.17c-6.48,5.09-16.22,11.88-24.97,23.14
		c-18.96,21.17-30.47,60.93-20.77,97.86c9.58,37.18,40.42,64.79,66.8,74.33c6.27,3.53,13.03,3.6,18.51,5.31
		c5.54,1.66,10.54,2.06,14.67,1.97c0.93,0.02,1.75,0.02,2.54,0.02c0.34,0.16,0.73,0.27,1.18,0.27c0,0,4.71-0.13,12.94-0.29
		c4.16,0.09,9.16-0.31,14.68-1.97C208.84,242.97,215.65,242.91,221.86,239.37z M230.82,231.95c-0.44,0.19-0.89,0.42-1.38,0.64
		C229.86,232.36,230.42,232.14,230.82,231.95z"/>
	<path class="st4" d="M120.12,18c0,0-6.82,3.28-11.92,8.37c-4.76,5.76-7.03,13.32-0.39,19.66C128.86,32.06,120.62,18.67,120.12,18z"
		/>
	<path class="st4" d="M86.75,67.44c17.52-18.41,4.91-30.07,4.89-30.07C90.8,36.3,70.19,58.82,86.75,67.44z"/>
	<path class="st4" d="M72.57,93.92c11.38-22.56-2.47-30.16-3.18-30.46c0,0-4.27,6.2-6.21,13.19C61.9,83.98,63.68,91.72,72.57,93.92z
		"/>
	<path class="st4" d="M64.96,123C70.93,98.28,54.3,94.3,54.3,94.42C52.86,93.89,46.36,123.64,64.96,123z"/>
	<path class="st4" d="M65.9,152.98c-1.24-25.25-17.4-24.97-18.04-24.83c0,0-0.55,7.52,1.36,14.5
		C51.13,149.69,57.22,155.42,65.9,152.98z"/>
	<path class="st4" d="M73.94,181.84c-4.49-12.13-9.79-16.77-14.31-18.91c-4.84-1.91-9.24-0.53-9.24-0.53
		c0.3-0.08,0.3,7.65,4.87,13.68C59.63,182.13,65.96,186.5,73.94,181.84z"/>
	<path class="st4" d="M61.07,195.06c-0.82,0.36,14.91,26.46,27.78,12.89C76.05,185.98,61.07,195.06,61.07,195.06z"/>
	<path class="st4" d="M110.53,228.65c-18.42-17.3-29.88-5.63-30.18-5.1c0,0,4.88,5.73,11.14,9.37
		C97.58,236.82,106.15,236.45,110.53,228.65z"/>
	<path class="st4" d="M113.13,240.18c-4.85,1.98-7,6.09-7,6.09c0.13-0.33,5.62,5.23,13.09,6.2c7.39,1.24,14.97,0,17.37-8.96
		C124.92,237.97,117.78,238.46,113.13,240.18z"/>
	<path class="st4" d="M136.69,262.04c-0.16,0.36,7.13,2.22,14.5,2.05c7.4-0.3,14.26-3.1,14.31-12.45
		C141,244.73,136.69,262.04,136.69,262.04z"/>
</g>
<path id="SVGID_x5F_1_x5F__2_" class="st7" d="M79.5,307.5c23.3,8.36,60.12,15.39,106,15c40.22-0.34,71.95-5.58,94-13"/>
<text><textPath  xlink:href="#SVGID_x5F_1_x5F__2_" startOffset="4.7363%">
<tspan  class="st13 st8" style="font-size:12px;">INDIA HEALTHCARE AWARDS</tspan></textPath>
</text>
<g>
	<g>
		<text transform="matrix(1 0 0 1 150.6626 121.3333)"><tspan x="0" y="0" class="st3 st8 st9">BEST</tspan><tspan x="-30.83" y="25.19" class="st3 st8 st9">PEDIATRIC</tspan><tspan x="-27.13" y="50.38" class="st3 st8 st9">HOSPITAL</tspan><tspan x="-15.82" y="75.57" class="st3 st8 st9">IN INDIA</tspan></text>
	</g>
	<g>
		<text transform="matrix(1 0 0 1 151.5762 85.3511)" class="st3 st8 st10">2016</text>
	</g>
</g>
</svg>
