<svg width="339" height="324" viewBox="0 0 339 324" fill="none" xmlns="http://www.w3.org/2000/svg">
<path d="M101.33 307.26C60.7 300.39 37.23 294.28 0 275.61L34.05 263.79L22.78 230.2C55.45 246.6 74.1 251.13 109.75 257.17L101.33 307.26Z" fill="#FCD3C2"/>
<path d="M237.39 307.26C278.01 300.39 301.5 294.28 338.73 275.61L304.67 263.79L315.94 230.2C283.26 246.6 264.62 251.13 228.96 257.17L237.39 307.26Z" fill="#FCD3C2"/>
<path d="M107.93 267.98L109.76 257.16L61.7202 257C61.0902 262.26 75.8901 261.38 85.7701 263.49C91.5501 264.74 107.93 267.98 107.93 267.98Z" fill="white"/>
<path d="M230.78 267.98L228.95 257.16C228.95 257.16 277.14 255.93 277.08 257C276.79 262.83 262.81 261.38 252.96 263.49C247.16 264.74 230.78 267.98 230.78 267.98Z" fill="white"/>
<path d="M292.03 305.56C212.12 330.15 126.69 330.15 46.79 305.56C51.76 289.38 56.74 273.19 61.71 257C131.88 278.59 206.92 278.59 277.08 257C282.07 273.18 287.06 289.38 292.03 305.56Z" fill="#FCD3C2"/>
<path d="M242.24 28.03C248.89 21.7 246.62 14.13 241.87 8.37C236.74 3.28 229.95 0 229.95 0C229.41 0.67 221.18 14.06 242.24 28.03Z" fill="#FCD3C2"/>
<path d="M258.41 19.36C258.4 19.36 245.81 31.03 263.31 49.43C279.84 40.82 259.26 18.3 258.41 19.36Z" fill="#FCD3C2"/>
<path d="M286.88 58.65C284.94 51.67 280.69 45.46 280.69 45.46C279.96 45.75 266.08 53.36 277.47 75.92C286.38 73.72 288.14 65.98 286.88 58.65Z" fill="#FCD3C2"/>
<path d="M285.11 105C303.7 105.64 297.2 75.89 295.76 76.42C295.76 76.3 279.13 80.28 285.11 105Z" fill="#FCD3C2"/>
<path d="M302.19 110.15C301.52 110 285.43 109.73 284.19 134.98C292.81 137.42 298.93 131.69 300.82 124.66C302.72 117.68 302.19 110.15 302.19 110.15Z" fill="#FCD3C2"/>
<path d="M290.44 144.93C285.91 147.07 280.61 151.71 276.11 163.84C284.1 168.5 290.44 164.14 294.79 158.08C299.34 152.06 299.38 144.32 299.68 144.4C299.69 144.4 295.25 143.01 290.44 144.93Z" fill="#FCD3C2"/>
<path d="M261.22 189.95C274.08 203.53 289.82 177.43 289 177.06C289 177.06 274.01 167.98 261.22 189.95Z" fill="#FCD3C2"/>
<path d="M239.53 210.65C243.91 218.44 252.44 218.81 258.54 214.91C264.81 211.27 269.68 205.54 269.68 205.54C269.37 205.03 257.94 193.35 239.53 210.65Z" fill="#FCD3C2"/>
<path d="M236.92 222.18C232.24 220.46 225.11 219.97 213.43 225.52C215.91 234.48 223.44 235.72 230.84 234.48C238.3 233.5 243.77 227.94 243.93 228.28C243.93 228.27 241.76 224.16 236.92 222.18Z" fill="#FCD3C2"/>
<path d="M184.57 233.63C184.62 242.98 191.45 245.78 198.89 246.08C206.23 246.25 213.52 244.39 213.36 244.03C213.36 244.03 209.05 226.73 184.57 233.63Z" fill="#FCD3C2"/>
<path d="M211.23 221.37C237.61 211.83 268.44 184.22 278.06 147.04C287.73 110.11 276.23 70.36 257.26 49.18C248.52 37.92 238.76 31.13 232.31 26.04C230 24.8 228.17 23.75 226.52 22.87C222.15 14.76 214.69 10.68 208.35 10.68C201.29 10.19 196.43 12.14 196.43 12.14C196.43 12.14 199.73 16.84 204.96 20.35C210 23.18 215.95 26.2 225.02 25.71C226.59 26.52 228.36 27.52 230.52 28.7C232.88 30.55 235.74 32.74 238.77 35.25C221.07 21.6 214.04 39.5 214.34 38.84C214.34 38.84 218.49 41.54 223.76 42.16C228.63 43.48 234.92 43.48 239.88 36.11C244.66 40.13 249.87 44.87 254.81 51.27C255.37 51.88 255.85 52.7 256.44 53.36C242.96 38.55 233.09 52.1 233.09 52.1C233.77 51.54 244.82 67.2 258.49 56.02C262.96 61.94 266.88 68.95 269.99 76.7C261.29 59 247.41 70.07 247.94 69.67C247.94 69.67 250.21 74.07 254.5 77.29C258.04 80.68 263.43 83.85 271.37 79.98C273.4 85.52 274.91 91.38 276.09 97.45C270.34 84.8 258.1 90.36 258.1 90.36C259.19 90.14 260.78 108.64 277.58 106.41C278.27 112.56 278.34 118.88 277.98 125.26C276.37 110.6 261.86 112.96 262.35 112.96C262.35 112.96 262.04 117.89 264.06 122.78C266.02 127.59 268.49 132.79 277.38 133.53C276.83 137.77 276.04 141.98 274.95 146.21C274.42 148.15 273.64 149.95 273.04 151.83C274.02 145.81 271.84 141.77 268.87 139.49C265.08 136.33 260.59 135.9 260.59 135.9C261.65 136.36 253.97 153.87 270.25 159.77C267.67 165.84 264.44 171.47 260.86 176.77C267.11 162.58 253.51 157.8 253.57 157.8C253.97 158.17 242.38 172.97 256.46 183.15C253.19 187.41 249.59 191.26 245.93 194.85C251.2 184.73 241.36 177.66 241.75 177.96C241.75 177.96 238.02 181.21 236.01 186.16C234.27 190.95 232.46 196.05 237.47 202.45C232.1 206.75 226.49 210.52 220.95 213.48C226.22 209.84 227.57 205.32 227.01 201.5C226.58 196.55 223.67 193.14 223.67 193.14C224.16 194.15 206.38 201.23 213.71 216.82C212.52 217.28 211.27 217.99 210.07 218.46C204.84 221.38 199.31 221.89 194.45 223.09C208.77 217.19 202.54 204.57 202.54 204.62C202.54 204.62 183.86 207.54 186.78 224.66C183.56 225.21 180.51 225.47 177.85 225.42C169.84 225.64 165.28 225.73 165.28 225.73V225.52C164.11 225.47 163.01 225.47 161.6 225.42C158.95 225.47 155.9 225.21 152.66 224.66C155.57 207.53 136.91 204.62 136.91 204.62C136.91 204.56 130.67 217.19 145.02 223.09C140.17 221.89 134.64 221.39 129.39 218.46C128.16 218 126.93 217.29 125.75 216.82C133.08 201.23 115.32 194.15 115.8 193.14C115.8 193.14 112.91 196.55 112.41 201.5C111.91 205.32 113.25 209.85 118.51 213.48C112.98 210.52 107.35 206.76 101.96 202.45C107.01 196.05 105.2 190.95 103.46 186.16C101.45 181.21 97.7201 177.96 97.7201 177.96C98.1001 177.66 88.2701 184.73 93.5401 194.85C89.8401 191.26 86.2801 187.41 83.0101 183.15C97.1001 172.97 85.4801 158.17 85.8801 157.8C85.9201 157.8 72.3601 162.58 78.6301 176.77C75.0601 171.47 71.7901 165.84 69.1801 159.77C85.4701 153.88 77.8201 136.36 78.8801 135.9C78.8801 135.9 74.4101 136.33 70.5901 139.49C67.6401 141.77 65.4501 145.81 66.4601 151.83C65.8401 149.95 65.0201 148.15 64.5201 146.21C63.4001 141.99 62.6501 137.77 62.0701 133.53C70.9801 132.79 73.4401 127.6 75.4201 122.78C77.4301 117.89 77.0901 112.96 77.0901 112.96C77.6601 112.96 63.1001 110.6 61.5101 125.26C61.1301 118.87 61.2101 112.55 61.9101 106.41C78.6901 108.65 80.2601 90.14 81.3601 90.36C81.3601 90.36 69.1101 84.8 63.3601 97.45C64.5301 91.39 66.0901 85.52 68.1101 79.98C76.0301 83.85 81.4201 80.68 85.0101 77.29C89.2501 74.06 91.5101 69.67 91.5101 69.67C92.0501 70.07 78.1601 59 69.4201 76.7C72.5701 68.95 76.4701 61.94 80.9601 56.02C94.6001 67.2 105.65 51.54 106.35 52.1C106.35 52.1 96.4902 38.55 82.9801 53.36C83.5701 52.7 84.0601 51.89 84.6201 51.27C89.5601 44.87 94.7601 40.13 99.5401 36.11C104.53 43.48 110.81 43.48 115.66 42.16C120.92 41.54 125.05 38.84 125.05 38.84C125.39 39.51 118.34 21.6 100.64 35.25C103.7 32.75 106.55 30.55 108.89 28.7C111.05 27.51 112.87 26.52 114.4 25.71C123.48 26.2 129.4 23.18 134.44 20.35C139.72 16.84 143.01 12.14 143.01 12.14C143.01 12.14 138.11 10.19 131.1 10.68C124.73 10.68 117.25 14.77 112.91 22.87C111.23 23.75 109.4 24.79 107.11 26.04C100.63 31.13 90.8901 37.92 82.1401 49.18C63.1801 70.35 51.6701 110.11 61.3701 147.04C70.9501 184.22 101.79 211.83 128.17 221.37C134.44 224.9 141.2 224.97 146.68 226.68C152.22 228.34 157.22 228.74 161.35 228.65C162.28 228.67 163.1 228.67 163.89 228.67C164.23 228.83 164.62 228.94 165.07 228.94C165.07 228.94 169.78 228.81 178.01 228.65C182.17 228.74 187.17 228.34 192.69 226.68C198.21 224.97 205.01 224.91 211.23 221.37ZM220.18 213.95C219.74 214.14 219.29 214.37 218.8 214.59C219.23 214.36 219.79 214.14 220.18 213.95Z" fill="#FCD3C2"/>
<path d="M109.48 0C109.48 0 102.66 3.28 97.5602 8.37C92.8002 14.13 90.5302 21.69 97.1702 28.03C118.22 14.06 109.99 0.67 109.48 0Z" fill="#FCD3C2"/>
<path d="M76.1099 49.44C93.6299 31.04 81.0199 19.37 80.9999 19.37C80.1599 18.3 59.5499 40.82 76.1099 49.44Z" fill="#FCD3C2"/>
<path d="M61.9399 75.92C73.3199 53.36 59.4699 45.76 58.7599 45.46C58.7599 45.46 54.4899 51.66 52.5499 58.65C51.2599 65.98 53.0399 73.72 61.9399 75.92Z" fill="#FCD3C2"/>
<path d="M54.3201 105C60.2901 80.28 43.6601 76.3 43.6601 76.42C42.2201 75.89 35.7301 105.64 54.3201 105Z" fill="#FCD3C2"/>
<path d="M55.2599 134.98C54.0199 109.73 37.8599 110.01 37.2199 110.15C37.2199 110.15 36.6699 117.67 38.5799 124.65C40.4999 131.69 46.5799 137.42 55.2599 134.98Z" fill="#FCD3C2"/>
<path d="M63.3098 163.84C58.8198 151.71 53.5198 147.07 48.9998 144.93C44.1598 143.02 39.7598 144.4 39.7598 144.4C40.0598 144.32 40.0598 152.05 44.6298 158.08C48.9998 164.13 55.3198 168.5 63.3098 163.84Z" fill="#FCD3C2"/>
<path d="M50.44 177.06C49.62 177.42 65.35 203.52 78.22 189.95C65.41 167.98 50.44 177.06 50.44 177.06Z" fill="#FCD3C2"/>
<path d="M99.8997 210.65C81.4797 193.35 70.0197 205.02 69.7197 205.55C69.7197 205.55 74.5997 211.28 80.8597 214.92C86.9397 218.82 95.5197 218.45 99.8997 210.65Z" fill="#FCD3C2"/>
<path d="M102.49 222.18C97.6397 224.16 95.4897 228.27 95.4897 228.27C95.6197 227.94 101.11 233.5 108.58 234.47C115.97 235.71 123.55 234.47 125.95 225.51C114.28 219.97 107.14 220.46 102.49 222.18Z" fill="#FCD3C2"/>
<path d="M126.05 244.04C125.89 244.4 133.18 246.26 140.55 246.09C147.95 245.79 154.81 242.99 154.86 233.64C130.37 226.73 126.05 244.04 126.05 244.04Z" fill="#FCD3C2"/>
<path d="M108 307.43L101.1 306.15L102.65 297.74L109.33 298.97L109.06 300.43L104.05 299.5L103.68 301.48L107.93 302.27L107.66 303.73L103.41 302.95L103.04 304.93L108.28 305.9L108 307.43Z" fill="#F37972"/>
<path d="M113.36 305L110.51 307.83L108.38 307.5L112.48 303.54L110.11 299.11L112.16 299.43L113.74 302.53L116.2 300.06L118.27 300.38L114.58 303.86L117.21 308.87L115.15 308.55L113.36 305Z" fill="#F37972"/>
<path d="M125.58 307.59C125.44 307.89 125.27 308.17 125.07 308.42C124.68 308.91 124.16 309.26 123.52 309.46C122.88 309.67 122.1 309.71 121.19 309.59C119.89 309.42 118.91 308.94 118.26 308.16C117.61 307.38 117.37 306.29 117.55 304.89L117.61 304.4C117.67 303.95 117.77 303.54 117.9 303.17C118.04 302.8 118.22 302.47 118.44 302.17C118.87 301.59 119.43 301.18 120.12 300.93C120.81 300.68 121.59 300.62 122.45 300.73C123.6 300.88 124.5 301.28 125.14 301.93C125.79 302.58 126.11 303.47 126.13 304.61L124.29 304.37C124.28 303.8 124.12 303.33 123.79 302.97C123.47 302.61 122.95 302.38 122.24 302.29C121.44 302.19 120.79 302.33 120.3 302.72C119.8 303.11 119.5 303.77 119.38 304.7L119.33 305.06C119.22 305.92 119.35 306.59 119.72 307.08C120.09 307.57 120.68 307.87 121.48 307.97C122.23 308.07 122.81 307.97 123.21 307.68C123.61 307.39 123.89 306.94 124.05 306.33L125.92 306.57C125.84 306.95 125.72 307.29 125.58 307.59Z" fill="#F37972"/>
<path d="M133.64 310.8L126.66 310.07L127.55 301.56L134.3 302.27L134.14 303.75L129.07 303.22L128.86 305.22L133.16 305.67L133 307.15L128.7 306.7L128.49 308.7L133.79 309.26L133.64 310.8Z" fill="#F37972"/>
<path d="M134.83 310.91L135.54 302.38L137.31 302.53L136.74 309.42L141.46 309.81L141.32 311.45L134.83 310.91Z" fill="#F37972"/>
<path d="M142.5 311.53L143.04 302.99L144.81 303.1L144.37 310L149.1 310.3L149 311.94L142.5 311.53Z" fill="#F37972"/>
<path d="M157.21 312.3L150.2 312L150.57 303.45L157.36 303.74L157.3 305.23L152.21 305.01L152.12 307.02L156.44 307.2L156.38 308.69L152.06 308.5L151.97 310.51L157.29 310.74L157.21 312.3Z" fill="#F37972"/>
<path d="M160.05 312.37L158.37 312.33L158.55 303.78L160.27 303.82L164.42 309.71L164.57 310.03L164.55 309.78L164.67 303.93L166.34 303.97L166.16 312.52L164.52 312.48L160.31 306.53L160.16 306.23L160.18 306.41L160.05 312.37Z" fill="#F37972"/>
<path d="M175.85 310.16C175.75 310.48 175.61 310.78 175.46 311.05C175.13 311.59 174.67 312 174.06 312.29C173.46 312.58 172.69 312.72 171.76 312.72C170.45 312.72 169.42 312.38 168.67 311.69C167.92 311 167.55 309.95 167.54 308.54V308.05C167.54 307.59 167.58 307.17 167.67 306.79C167.76 306.41 167.89 306.05 168.08 305.73C168.43 305.1 168.93 304.61 169.58 304.28C170.23 303.95 170.99 303.78 171.87 303.78C173.03 303.78 173.97 304.06 174.7 304.62C175.42 305.18 175.87 306.02 176.03 307.15H174.17C174.09 306.58 173.86 306.14 173.5 305.82C173.14 305.5 172.59 305.35 171.88 305.35C171.07 305.35 170.45 305.58 170.01 306.03C169.57 306.48 169.35 307.18 169.35 308.11V308.47C169.35 309.33 169.57 309.99 170 310.43C170.43 310.87 171.05 311.09 171.86 311.09C172.62 311.09 173.18 310.92 173.54 310.58C173.9 310.24 174.12 309.76 174.2 309.13H176.08C176.03 309.49 175.96 309.84 175.85 310.16Z" fill="#F37972"/>
<path d="M184.32 312.34L177.3 312.48L177.13 303.93L183.92 303.79L183.95 305.28L178.85 305.38L178.89 307.4L183.21 307.31L183.24 308.8L178.92 308.89L178.96 310.91L184.29 310.8L184.32 312.34Z" fill="#F37972"/>
<path d="M194.57 310.02L190.65 310.2L190 312.13L188.17 312.22L191.36 303.5L193.18 303.41L197.25 311.78L195.44 311.86L194.57 310.02ZM192.36 305.26L191.17 308.73L193.92 308.6L192.36 305.26Z" fill="#F37972"/>
<path d="M202.37 305.43L200.44 311.58L198.75 311.7L195.78 303.33L197.55 303.2L199.6 309.18L201.52 302.92L202.88 302.82L205.51 308.84L206.98 302.53L208.74 302.4L206.59 311.13L204.93 311.25L202.37 305.43Z" fill="#F37972"/>
<path d="M214.57 308.49L210.66 308.87L210.1 310.83L208.27 311.01L211.02 302.14L212.84 301.96L217.33 310.12L215.53 310.3L214.57 308.49ZM212.12 303.85L211.1 307.37L213.83 307.1L212.12 303.85Z" fill="#F37972"/>
<path d="M219.54 306.87L219.9 309.81L218.17 310.02L217.12 301.53L220.9 301.07C222.19 300.91 223.14 301.02 223.76 301.4C224.38 301.78 224.75 302.39 224.85 303.23C224.92 303.83 224.85 304.31 224.62 304.69C224.39 305.07 224.02 305.37 223.51 305.59C224.03 305.66 224.43 305.86 224.71 306.17C224.99 306.49 225.17 306.97 225.25 307.63L225.37 308.63C225.38 308.73 225.41 308.82 225.45 308.9C225.49 308.99 225.55 309.05 225.64 309.09L223.81 309.32C223.73 309.29 223.68 309.23 223.64 309.13C223.6 309.03 223.57 308.93 223.56 308.83L223.44 307.88C223.37 307.32 223.19 306.96 222.9 306.77C222.61 306.59 222.14 306.54 221.48 306.62L219.54 306.87ZM219.03 302.79L219.35 305.37L221.33 305.13C221.92 305.06 222.37 304.91 222.69 304.67C223.01 304.44 223.14 304.09 223.09 303.62L223.08 303.55C223.03 303.11 222.84 302.81 222.52 302.65C222.2 302.49 221.71 302.46 221.06 302.54L219.03 302.79Z" fill="#F37972"/>
<path d="M225.68 300.46L229.04 299.95C229.48 299.88 229.89 299.86 230.28 299.87C230.67 299.88 231.04 299.94 231.39 300.03C232.08 300.22 232.65 300.58 233.1 301.12C233.55 301.66 233.84 302.39 233.98 303.32L234.05 303.77C234.12 304.23 234.14 304.65 234.11 305.04C234.08 305.43 234 305.78 233.87 306.1C233.61 306.74 233.18 307.25 232.59 307.63C232 308.01 231.26 308.27 230.39 308.4L226.95 308.92L225.68 300.46ZM227.63 301.7L228.46 307.16L230.1 306.91C230.96 306.78 231.58 306.48 231.95 306C232.32 305.52 232.44 304.84 232.3 303.94L232.26 303.65C232.12 302.75 231.8 302.12 231.28 301.78C230.77 301.43 230.07 301.33 229.19 301.46L227.63 301.7Z" fill="#F37972"/>
<path d="M238.34 307.21C237.94 307.22 237.59 307.2 237.28 307.13C236.65 307 236.14 306.73 235.77 306.32C235.39 305.91 235.11 305.36 234.91 304.68L236.76 304.34C236.93 304.91 237.23 305.29 237.66 305.47C238.09 305.66 238.67 305.68 239.41 305.55C240.06 305.43 240.52 305.24 240.78 304.97C241.04 304.7 241.14 304.4 241.08 304.06C241.05 303.92 241.01 303.8 240.94 303.69C240.87 303.58 240.78 303.51 240.68 303.46C240.46 303.35 240.15 303.3 239.75 303.3C239.35 303.3 238.87 303.32 238.29 303.36C237.98 303.38 237.68 303.38 237.4 303.38C237.12 303.37 236.85 303.35 236.6 303.32C236.09 303.25 235.67 303.08 235.33 302.8C234.99 302.52 234.77 302.08 234.66 301.48C234.62 301.24 234.61 301.01 234.63 300.79C234.65 300.57 234.71 300.35 234.8 300.14C234.98 299.71 235.31 299.34 235.78 299.02C236.25 298.71 236.88 298.48 237.66 298.33C238.9 298.1 239.88 298.17 240.6 298.52C241.32 298.87 241.81 299.51 242.08 300.42L240.27 300.75C240.11 300.26 239.84 299.94 239.46 299.8C239.08 299.66 238.56 299.65 237.89 299.77C237.27 299.88 236.85 300.06 236.64 300.3C236.43 300.54 236.35 300.81 236.4 301.11C236.47 301.48 236.7 301.7 237.09 301.77C237.49 301.84 238.09 301.85 238.91 301.78C239.26 301.76 239.58 301.75 239.89 301.75C240.2 301.75 240.49 301.77 240.77 301.8C241.31 301.87 241.75 302.05 242.1 302.33C242.44 302.61 242.67 303.05 242.78 303.66C242.83 303.92 242.84 304.17 242.82 304.42C242.8 304.67 242.74 304.91 242.65 305.13C242.46 305.59 242.11 305.98 241.62 306.31C241.12 306.64 240.47 306.88 239.65 307.03C239.17 307.15 238.74 307.2 238.34 307.21Z" fill="#F37972"/>
<path d="M105.45 290.98L98.5601 289.65L100.19 281.25L106.86 282.54L106.58 284L101.57 283.03L101.19 285.01L105.43 285.83L105.15 287.29L100.91 286.47L100.53 288.45L105.76 289.46L105.45 290.98Z" fill="#F37972"/>
<path d="M110.85 288.6L107.98 291.41L105.85 291.06L109.99 287.13L107.66 282.68L109.71 283.02L111.27 286.13L113.75 283.68L115.82 284.02L112.1 287.47L114.69 292.51L112.63 292.17L110.85 288.6Z" fill="#F37972"/>
<path d="M117.5 290.19L117.14 292.84L115.43 292.61L116.59 284.13L120.24 284.63C121.56 284.81 122.49 285.2 123.02 285.79C123.55 286.38 123.75 287.14 123.63 288.07C123.51 288.98 123.1 289.65 122.42 290.08C121.74 290.51 120.79 290.64 119.56 290.46L117.5 290.19ZM118.1 285.84L117.71 288.72L119.71 288.99C120.39 289.08 120.91 289.04 121.26 288.85C121.61 288.66 121.82 288.32 121.89 287.83C121.96 287.32 121.84 286.93 121.54 286.66C121.24 286.39 120.74 286.2 120.05 286.11L118.1 285.84Z" fill="#F37972"/>
<path d="M126.09 291.01L125.76 293.96L124.03 293.77L124.98 285.27L128.76 285.69C130.05 285.83 130.95 286.16 131.47 286.67C131.99 287.18 132.2 287.86 132.11 288.7C132.04 289.3 131.86 289.75 131.55 290.07C131.24 290.39 130.81 290.59 130.26 290.69C130.75 290.88 131.09 291.16 131.29 291.54C131.49 291.91 131.55 292.43 131.48 293.09L131.37 294.09C131.36 294.19 131.36 294.28 131.38 294.38C131.4 294.47 131.44 294.55 131.52 294.61L129.68 294.41C129.61 294.36 129.57 294.29 129.55 294.18C129.53 294.07 129.53 293.97 129.54 293.87L129.65 292.92C129.71 292.36 129.62 291.96 129.39 291.72C129.16 291.48 128.7 291.32 128.04 291.24L126.09 291.01ZM126.55 286.93L126.26 289.52L128.24 289.74C128.83 289.81 129.31 289.76 129.67 289.61C130.03 289.46 130.25 289.15 130.3 288.68L130.31 288.61C130.36 288.16 130.25 287.83 129.97 287.61C129.69 287.39 129.23 287.24 128.58 287.16L126.55 286.93Z" fill="#F37972"/>
<path d="M139.83 295.34L132.84 294.73L133.59 286.21L140.36 286.8L140.23 288.28L135.15 287.83L134.97 289.84L139.27 290.22L139.14 291.7L134.84 291.32L134.66 293.33L139.97 293.8L139.83 295.34Z" fill="#F37972"/>
<path d="M143.29 295.69C142.9 295.6 142.57 295.49 142.28 295.35C141.7 295.07 141.27 294.69 141.01 294.2C140.75 293.71 140.6 293.11 140.58 292.4L142.46 292.52C142.48 293.11 142.68 293.56 143.06 293.84C143.44 294.12 143.99 294.29 144.73 294.34C145.39 294.38 145.88 294.31 146.2 294.11C146.52 293.91 146.69 293.64 146.71 293.3C146.72 293.16 146.7 293.03 146.66 292.91C146.62 292.79 146.55 292.7 146.46 292.62C146.27 292.46 145.98 292.34 145.6 292.24C145.22 292.14 144.74 292.04 144.17 291.94C143.86 291.88 143.57 291.81 143.3 291.74C143.03 291.67 142.77 291.58 142.54 291.49C142.06 291.3 141.7 291.03 141.44 290.67C141.18 290.32 141.07 289.84 141.11 289.23C141.13 288.99 141.17 288.77 141.25 288.55C141.33 288.34 141.44 288.14 141.58 287.96C141.86 287.59 142.27 287.3 142.8 287.11C143.33 286.92 144 286.85 144.79 286.9C146.05 286.98 146.99 287.28 147.6 287.81C148.21 288.34 148.53 289.07 148.57 290.01L146.74 289.89C146.7 289.37 146.52 289 146.18 288.77C145.85 288.54 145.34 288.4 144.66 288.36C144.03 288.32 143.58 288.39 143.32 288.57C143.06 288.75 142.91 289 142.89 289.3C142.86 289.68 143.04 289.95 143.4 290.11C143.76 290.27 144.35 290.43 145.16 290.57C145.5 290.63 145.82 290.7 146.12 290.78C146.42 290.86 146.7 290.95 146.96 291.05C147.47 291.25 147.85 291.53 148.12 291.88C148.39 292.23 148.5 292.72 148.46 293.33C148.44 293.59 148.39 293.84 148.31 294.08C148.23 294.32 148.12 294.53 147.97 294.73C147.67 295.13 147.24 295.43 146.68 295.62C146.12 295.81 145.42 295.89 144.59 295.84C144.11 295.83 143.67 295.77 143.29 295.69Z" fill="#F37972"/>
<path d="M151.99 296.19C151.6 296.11 151.26 296.01 150.97 295.88C150.38 295.61 149.95 295.24 149.67 294.75C149.4 294.27 149.24 293.67 149.2 292.96L151.08 293.04C151.12 293.63 151.33 294.07 151.71 294.35C152.09 294.63 152.65 294.78 153.4 294.81C154.06 294.84 154.55 294.75 154.86 294.55C155.17 294.35 155.34 294.07 155.35 293.73C155.36 293.59 155.34 293.46 155.3 293.34C155.26 293.23 155.19 293.13 155.1 293.05C154.91 292.9 154.62 292.78 154.23 292.69C153.84 292.6 153.37 292.51 152.79 292.42C152.48 292.37 152.19 292.31 151.91 292.24C151.64 292.17 151.38 292.09 151.15 292C150.67 291.82 150.3 291.55 150.03 291.21C149.77 290.86 149.65 290.38 149.67 289.78C149.68 289.54 149.72 289.31 149.8 289.1C149.88 288.89 149.98 288.69 150.11 288.5C150.38 288.12 150.78 287.83 151.31 287.63C151.84 287.43 152.5 287.35 153.29 287.38C154.55 287.43 155.5 287.72 156.12 288.22C156.74 288.72 157.08 289.46 157.14 290.4L155.31 290.32C155.26 289.81 155.07 289.44 154.73 289.21C154.39 288.99 153.88 288.86 153.2 288.83C152.57 288.8 152.12 288.88 151.86 289.07C151.6 289.26 151.46 289.51 151.45 289.81C151.43 290.19 151.61 290.45 151.98 290.61C152.35 290.77 152.94 290.91 153.75 291.03C154.09 291.08 154.41 291.15 154.71 291.22C155.01 291.29 155.29 291.38 155.55 291.47C156.06 291.66 156.45 291.93 156.73 292.28C157 292.63 157.13 293.11 157.1 293.73C157.09 293.99 157.05 294.24 156.97 294.48C156.89 294.72 156.79 294.94 156.64 295.14C156.35 295.54 155.93 295.85 155.37 296.06C154.81 296.27 154.12 296.36 153.29 296.32C152.81 296.32 152.38 296.27 151.99 296.19Z" fill="#F37972"/>
<path d="M167.6 293.06L163.41 293L163.36 296.44L161.61 296.42L161.73 287.87L163.48 287.89L163.43 291.33L167.62 291.39L167.67 287.95L169.4 287.97L169.28 296.53L167.55 296.51L167.6 293.06Z" fill="#F37972"/>
<path d="M178.04 296.48L171.02 296.52L170.97 287.96L177.76 287.92L177.77 289.41L172.67 289.44L172.68 291.46L177 291.44L177.01 292.93L172.69 292.95L172.7 294.97L178.03 294.94L178.04 296.48Z" fill="#F37972"/>
<path d="M185.13 294.41L181.21 294.51L180.52 296.42L178.68 296.47L182.06 287.82L183.88 287.77L187.77 296.23L185.96 296.28L185.13 294.41ZM183.01 289.6L181.74 293.04L184.49 292.97L183.01 289.6Z" fill="#F37972"/>
<path d="M188.61 296.19L188.23 287.64L190 287.56L190.31 294.47L195.05 294.26L195.12 295.9L188.61 296.19Z" fill="#F37972"/>
<path d="M198.35 288.66L198.77 295.68L197 295.79L196.58 288.77L193.94 288.93L193.85 287.41L201.01 286.98L201.1 288.5L198.35 288.66Z" fill="#F37972"/>
<path d="M208.35 291.53L204.18 291.87L204.46 295.3L202.71 295.44L202.02 286.91L203.77 286.77L204.05 290.2L208.22 289.86L207.94 286.43L209.66 286.29L210.35 294.82L208.63 294.96L208.35 291.53Z" fill="#F37972"/>
<path d="M219.71 291.48C219.64 291.81 219.54 292.12 219.41 292.4C219.14 292.97 218.72 293.43 218.15 293.78C217.58 294.13 216.83 294.35 215.91 294.45C214.61 294.59 213.54 294.35 212.73 293.74C211.92 293.13 211.43 292.13 211.28 290.73L211.23 290.24C211.18 289.79 211.18 289.36 211.23 288.97C211.28 288.58 211.37 288.21 211.52 287.88C211.8 287.21 212.25 286.68 212.86 286.28C213.47 285.88 214.21 285.64 215.08 285.54C216.23 285.42 217.2 285.6 217.98 286.08C218.76 286.56 219.29 287.35 219.57 288.46L217.72 288.66C217.58 288.1 217.31 287.69 216.91 287.41C216.51 287.13 215.96 287.03 215.25 287.11C214.45 287.19 213.85 287.49 213.46 287.98C213.07 288.47 212.92 289.19 213.02 290.12L213.06 290.48C213.15 291.34 213.44 291.96 213.91 292.36C214.39 292.75 215.03 292.91 215.83 292.82C216.59 292.74 217.12 292.51 217.45 292.14C217.78 291.77 217.94 291.26 217.95 290.63L219.82 290.43C219.82 290.8 219.78 291.15 219.71 291.48Z" fill="#F37972"/>
<path d="M226.48 291.06L222.59 291.58L222.1 293.56L220.28 293.8L222.72 284.84L224.53 284.6L229.29 292.6L227.49 292.84L226.48 291.06ZM223.87 286.5L222.97 290.06L225.69 289.7L223.87 286.5Z" fill="#F37972"/>
<path d="M231.35 289.26L231.82 292.19L230.1 292.47L228.73 284.02L232.48 283.41C233.76 283.2 234.72 283.28 235.35 283.63C235.99 283.99 236.37 284.58 236.51 285.42C236.61 286.01 236.55 286.5 236.33 286.89C236.12 287.28 235.76 287.59 235.25 287.84C235.77 287.89 236.18 288.07 236.47 288.38C236.76 288.69 236.96 289.17 237.07 289.82L237.23 290.82C237.25 290.91 237.27 291.01 237.32 291.09C237.37 291.17 237.43 291.24 237.51 291.27L235.69 291.56C235.61 291.53 235.55 291.47 235.51 291.38C235.47 291.29 235.44 291.19 235.42 291.09L235.27 290.14C235.18 289.59 234.99 289.23 234.69 289.06C234.4 288.89 233.92 288.86 233.26 288.96L231.35 289.26ZM230.7 285.21L231.12 287.78L233.09 287.46C233.67 287.37 234.12 287.2 234.44 286.95C234.75 286.7 234.87 286.35 234.8 285.88L234.79 285.81C234.72 285.37 234.52 285.08 234.19 284.93C233.86 284.79 233.38 284.77 232.73 284.88L230.7 285.21Z" fill="#F37972"/>
<path d="M245.75 289.69L238.86 291.02L237.24 282.62L243.91 281.33L244.19 282.79L239.18 283.76L239.56 285.74L243.8 284.92L244.08 286.38L239.84 287.2L240.22 289.18L245.45 288.17L245.75 289.69Z" fill="#F37972"/>
<path d="M141.79 103.65V88.68H148.55C150.72 88.68 152.32 88.99 153.35 89.62C154.38 90.25 154.89 91.23 154.89 92.56V92.62C154.89 93.53 154.69 94.25 154.29 94.78C153.89 95.31 153.28 95.7 152.45 95.96C153.36 96.18 154.05 96.56 154.52 97.08C154.99 97.6 155.22 98.35 155.22 99.32V99.34C155.22 100.82 154.68 101.91 153.6 102.6C152.52 103.29 150.91 103.64 148.75 103.64H141.79V103.65ZM144.77 91.12V94.77H148.76C149.74 94.77 150.51 94.64 151.06 94.38C151.61 94.12 151.89 93.64 151.89 92.94V92.9C151.89 92.23 151.64 91.76 151.14 91.5C150.64 91.24 149.83 91.11 148.69 91.11H144.77V91.12ZM144.77 97.18V101.06H148.38C148.86 101.06 149.28 101.04 149.66 101.01C150.04 100.98 150.36 100.92 150.63 100.85C151.18 100.72 151.56 100.51 151.77 100.22C151.99 99.93 152.1 99.56 152.1 99.11V99.1C152.1 98.37 151.83 97.87 151.28 97.6C150.73 97.33 149.81 97.19 148.51 97.19H144.77V97.18Z" fill="white"/>
<path d="M169.63 103.65H157.35V88.68H169.23V91.28H160.31V94.81H167.87V97.41H160.31V100.94H169.63V103.65Z" fill="white"/>
<path d="M175.73 103.85C175.04 103.75 174.44 103.59 173.92 103.38C172.87 102.96 172.09 102.34 171.57 101.51C171.05 100.68 170.73 99.66 170.6 98.42H173.9C174.01 99.46 174.41 100.2 175.1 100.66C175.79 101.12 176.78 101.34 178.08 101.34C179.24 101.34 180.09 101.15 180.62 100.77C181.15 100.39 181.42 99.9 181.42 99.3C181.42 99.05 181.38 98.82 181.3 98.63C181.22 98.43 181.09 98.27 180.92 98.15C180.57 97.9 180.06 97.71 179.38 97.58C178.7 97.45 177.86 97.34 176.85 97.22C176.3 97.15 175.79 97.07 175.31 96.97C174.83 96.87 174.38 96.75 173.96 96.61C173.11 96.33 172.43 95.9 171.94 95.31C171.45 94.72 171.21 93.9 171.21 92.83C171.21 92.41 171.27 92.01 171.38 91.63C171.49 91.25 171.66 90.9 171.88 90.56C172.33 89.87 173.01 89.34 173.92 88.94C174.83 88.55 175.98 88.35 177.36 88.35C179.57 88.35 181.24 88.77 182.37 89.61C183.5 90.45 184.14 91.7 184.31 93.35H181.1C180.97 92.45 180.61 91.82 180 91.46C179.39 91.1 178.49 90.91 177.3 90.91C176.19 90.91 175.42 91.08 174.98 91.43C174.54 91.78 174.32 92.22 174.32 92.75C174.32 93.41 174.65 93.86 175.31 94.1C175.97 94.35 177.01 94.54 178.44 94.7C179.04 94.77 179.61 94.86 180.14 94.96C180.67 95.06 181.17 95.19 181.63 95.33C182.54 95.62 183.25 96.06 183.75 96.65C184.25 97.24 184.51 98.07 184.51 99.15C184.51 99.61 184.45 100.05 184.34 100.47C184.23 100.89 184.05 101.28 183.82 101.65C183.34 102.38 182.63 102.95 181.67 103.36C180.71 103.77 179.5 103.98 178.05 103.98C177.18 104.01 176.42 103.95 175.73 103.85Z" fill="white"/>
<path d="M193.03 91.35V103.65H189.92V91.35H185.3V88.68H197.85V91.35H193.03Z" fill="white"/>
<path d="M85.4702 128.84V113.87H88.5602V128.84H85.4702Z" fill="white"/>
<path d="M94.6002 128.84H91.6602V113.87H94.6602L102.13 124.01L102.4 124.56L102.36 124.12V113.88H105.28V128.85H102.4L94.8202 118.61L94.5502 118.09L94.5901 118.4V128.84H94.6002Z" fill="white"/>
<path d="M112.23 129.04C111.54 128.94 110.94 128.78 110.42 128.57C109.37 128.15 108.59 127.53 108.07 126.7C107.55 125.87 107.23 124.85 107.1 123.61H110.4C110.51 124.65 110.91 125.39 111.6 125.85C112.29 126.31 113.28 126.53 114.58 126.53C115.74 126.53 116.59 126.34 117.12 125.96C117.65 125.58 117.92 125.09 117.92 124.49C117.92 124.24 117.88 124.01 117.8 123.82C117.72 123.62 117.59 123.46 117.42 123.34C117.07 123.09 116.56 122.9 115.88 122.77C115.2 122.64 114.36 122.53 113.35 122.41C112.8 122.34 112.29 122.26 111.81 122.16C111.33 122.06 110.88 121.94 110.46 121.8C109.61 121.52 108.93 121.09 108.44 120.5C107.95 119.91 107.71 119.09 107.71 118.02C107.71 117.6 107.77 117.2 107.88 116.82C107.99 116.44 108.16 116.09 108.38 115.75C108.83 115.06 109.51 114.53 110.42 114.13C111.33 113.74 112.48 113.54 113.86 113.54C116.07 113.54 117.74 113.96 118.87 114.8C120 115.64 120.64 116.89 120.81 118.54H117.6C117.47 117.64 117.11 117.01 116.5 116.65C115.89 116.29 114.99 116.1 113.8 116.1C112.69 116.1 111.92 116.27 111.48 116.62C111.04 116.97 110.82 117.41 110.82 117.94C110.82 118.6 111.15 119.05 111.81 119.29C112.47 119.54 113.51 119.73 114.94 119.89C115.54 119.96 116.11 120.05 116.64 120.15C117.17 120.25 117.67 120.38 118.13 120.52C119.04 120.81 119.75 121.25 120.25 121.84C120.75 122.43 121.01 123.26 121.01 124.34C121.01 124.8 120.95 125.24 120.84 125.66C120.73 126.08 120.55 126.47 120.32 126.84C119.84 127.57 119.13 128.14 118.17 128.55C117.21 128.96 116 129.17 114.55 129.17C113.68 129.2 112.92 129.15 112.23 129.04Z" fill="white"/>
<path d="M126.17 124.16V128.84H123.15V113.87H129.6C131.94 113.87 133.64 114.32 134.7 115.22C135.76 116.12 136.3 117.39 136.3 119.03C136.3 120.64 135.76 121.9 134.68 122.81C133.6 123.72 131.98 124.17 129.81 124.15H126.17V124.16ZM126.17 116.48V121.56H129.7C130.9 121.56 131.79 121.35 132.36 120.94C132.93 120.53 133.21 119.89 133.21 119.02C133.21 118.12 132.92 117.48 132.33 117.08C131.74 116.68 130.84 116.48 129.62 116.48H126.17Z" fill="white"/>
<path d="M138.51 128.84V113.87H141.6V128.84H138.51Z" fill="white"/>
<path d="M147.75 123.66V128.85H144.71V113.88H151.37C153.64 113.88 155.27 114.28 156.27 115.07C157.27 115.86 157.77 117 157.77 118.48C157.77 119.53 157.53 120.36 157.06 120.97C156.58 121.58 155.88 122.02 154.94 122.3C155.82 122.54 156.47 122.96 156.89 123.57C157.31 124.18 157.52 125.06 157.52 126.23V127.99C157.52 128.16 157.54 128.32 157.59 128.48C157.64 128.64 157.73 128.76 157.87 128.85H154.64C154.51 128.78 154.43 128.66 154.38 128.48C154.33 128.3 154.31 128.13 154.31 127.94V126.26C154.31 125.28 154.08 124.6 153.62 124.22C153.16 123.84 152.35 123.65 151.18 123.65H147.75V123.66ZM147.75 116.48V121.04H151.24C152.28 121.04 153.1 120.87 153.71 120.54C154.32 120.2 154.62 119.62 154.62 118.8V118.67C154.62 117.89 154.36 117.33 153.83 116.99C153.31 116.65 152.47 116.49 151.32 116.49H147.75V116.48Z" fill="white"/>
<path d="M170.23 125.52H163.37L162.07 128.84H158.86L165.16 113.87H168.35L174.77 128.84H171.6L170.23 125.52ZM166.75 117.02L164.38 122.98H169.19L166.75 117.02Z" fill="white"/>
<path d="M180.33 116.54V128.84H177.22V116.54H172.6V113.87H185.15V116.54H180.33Z" fill="white"/>
<path d="M187.34 128.84V113.87H190.43V128.84H187.34Z" fill="white"/>
<path d="M194.91 127.41C193.59 126.22 192.93 124.36 192.93 121.83V121.03C192.93 120.23 193.01 119.49 193.17 118.82C193.33 118.14 193.57 117.52 193.87 116.96C194.5 115.85 195.37 115.01 196.49 114.43C197.61 113.85 198.9 113.56 200.37 113.56C201.1 113.56 201.79 113.63 202.44 113.77C203.09 113.91 203.7 114.13 204.26 114.42C205.38 114.98 206.26 115.82 206.89 116.93C207.53 118.04 207.85 119.41 207.85 121.03V121.83C207.85 122.66 207.77 123.41 207.62 124.1C207.47 124.79 207.23 125.4 206.91 125.95C206.29 127.04 205.42 127.86 204.3 128.4C203.17 128.94 201.86 129.21 200.36 129.21C198.05 129.2 196.23 128.6 194.91 127.41ZM203.57 125.28C204.31 124.53 204.68 123.36 204.68 121.76V121.13C204.68 119.48 204.31 118.26 203.57 117.48C202.83 116.7 201.77 116.3 200.38 116.3C198.98 116.3 197.92 116.7 197.19 117.51C196.46 118.31 196.1 119.51 196.1 121.11V121.76C196.1 123.3 196.46 124.46 197.19 125.23C197.92 126.01 198.98 126.4 200.38 126.4C201.76 126.41 202.83 126.03 203.57 125.28Z" fill="white"/>
<path d="M213.25 128.84H210.31V113.87H213.31L220.78 124.01L221.05 124.56L221.01 124.12V113.88H223.93V128.85H221.05L213.47 118.61L213.2 118.09L213.24 118.4V128.84H213.25Z" fill="white"/>
<path d="M236.86 125.52H230L228.7 128.84H225.49L231.79 113.87H234.98L241.4 128.84H238.23L236.86 125.52ZM233.38 117.02L231.01 122.98H235.82L233.38 117.02Z" fill="white"/>
<path d="M242.93 128.84V113.87H246.04V125.96H254.33V128.84H242.93Z" fill="white"/>
<path d="M107.62 143.54L103.48 154.04H100.52L96.3804 139.07H99.4904L102.32 149.76L106.46 139.07H108.85L112.69 149.9L116.05 139.07H119.14L114.29 154.04H111.37L107.62 143.54Z" fill="white"/>
<path d="M121.74 152.6C120.42 151.41 119.76 149.55 119.76 147.02V146.22C119.76 145.42 119.84 144.68 120 144.01C120.16 143.33 120.4 142.71 120.7 142.15C121.33 141.04 122.2 140.2 123.32 139.62C124.44 139.04 125.73 138.75 127.2 138.75C127.93 138.75 128.62 138.82 129.27 138.96C129.92 139.1 130.53 139.32 131.09 139.61C132.21 140.17 133.09 141.01 133.72 142.12C134.36 143.23 134.68 144.6 134.68 146.22V147.02C134.68 147.85 134.6 148.6 134.45 149.29C134.3 149.98 134.06 150.59 133.74 151.14C133.12 152.23 132.25 153.05 131.13 153.59C130 154.13 128.69 154.4 127.19 154.4C124.88 154.39 123.06 153.79 121.74 152.6ZM130.4 150.47C131.14 149.72 131.51 148.55 131.51 146.95V146.32C131.51 144.67 131.14 143.45 130.4 142.67C129.66 141.89 128.6 141.49 127.21 141.49C125.81 141.49 124.75 141.89 124.02 142.7C123.29 143.5 122.93 144.7 122.93 146.3V146.95C122.93 148.49 123.29 149.65 124.02 150.42C124.75 151.2 125.81 151.59 127.21 151.59C128.6 151.6 129.66 151.22 130.4 150.47Z" fill="white"/>
<path d="M140.18 148.85V154.04H137.14V139.07H143.8C146.07 139.07 147.7 139.47 148.7 140.26C149.7 141.05 150.2 142.19 150.2 143.67C150.2 144.72 149.96 145.55 149.49 146.16C149.01 146.77 148.31 147.21 147.37 147.49C148.25 147.73 148.9 148.15 149.32 148.76C149.74 149.37 149.95 150.25 149.95 151.42V153.18C149.95 153.35 149.97 153.51 150.02 153.67C150.07 153.83 150.16 153.95 150.3 154.04H147.07C146.94 153.97 146.86 153.85 146.81 153.67C146.76 153.49 146.74 153.32 146.74 153.13V151.45C146.74 150.47 146.51 149.79 146.05 149.41C145.59 149.03 144.78 148.84 143.61 148.84H140.18V148.85ZM140.18 141.67V146.23H143.67C144.71 146.23 145.53 146.06 146.14 145.73C146.75 145.39 147.05 144.81 147.05 143.99V143.86C147.05 143.08 146.79 142.52 146.26 142.18C145.74 141.84 144.9 141.68 143.75 141.68H140.18V141.67Z" fill="white"/>
<path d="M158.87 146.43L155.78 149.47V154.03H152.71V139.06H155.78V146.07L162.73 139.06H166.66L161.08 144.62L167 154.02H163.45L158.87 146.43Z" fill="white"/>
<path d="M171.36 149.35V154.03H168.34V139.06H174.79C177.13 139.06 178.83 139.51 179.89 140.41C180.95 141.31 181.49 142.58 181.49 144.22C181.49 145.83 180.95 147.09 179.87 148C178.79 148.91 177.17 149.36 175 149.34H171.36V149.35ZM171.36 141.67V146.75H174.89C176.09 146.75 176.98 146.54 177.55 146.13C178.12 145.72 178.4 145.08 178.4 144.21C178.4 143.31 178.11 142.67 177.52 142.27C176.93 141.87 176.03 141.67 174.81 141.67H171.36Z" fill="white"/>
<path d="M183.66 154.03V139.06H186.77V151.15H195.06V154.03H183.66Z" fill="white"/>
<path d="M207.69 150.72H200.83L199.53 154.04H196.32L202.62 139.07H205.81L212.23 154.04H209.06L207.69 150.72ZM204.21 142.21L201.84 148.17H206.65L204.21 142.21Z" fill="white"/>
<path d="M227.05 149.92C226.87 150.48 226.64 151 226.36 151.47C225.79 152.41 224.97 153.13 223.91 153.63C222.85 154.13 221.51 154.39 219.89 154.39C217.6 154.39 215.79 153.78 214.48 152.57C213.17 151.36 212.52 149.52 212.52 147.06V146.2C212.52 145.4 212.6 144.67 212.75 144C212.9 143.33 213.14 142.71 213.46 142.15C214.08 141.04 214.95 140.2 216.09 139.62C217.23 139.04 218.56 138.75 220.09 138.75C222.12 138.75 223.77 139.24 225.03 140.22C226.3 141.2 227.07 142.68 227.35 144.65H224.1C223.96 143.66 223.57 142.88 222.92 142.33C222.27 141.78 221.33 141.5 220.09 141.5C218.68 141.5 217.59 141.9 216.82 142.69C216.05 143.48 215.66 144.69 215.66 146.33V146.96C215.66 148.47 216.04 149.61 216.79 150.38C217.55 151.15 218.63 151.53 220.04 151.53C221.37 151.53 222.35 151.23 222.98 150.64C223.61 150.05 223.99 149.2 224.14 148.11H227.44C227.36 148.76 227.23 149.36 227.05 149.92Z" fill="white"/>
<path d="M241.85 154.03H229.57V139.06H241.45V141.66H232.53V145.19H240.09V147.79H232.53V151.32H241.85V154.03Z" fill="white"/>
<path d="M125.82 179.22V164.25H128.91V179.22H125.82Z" fill="white"/>
<path d="M134.96 179.22H132.02V164.25H135.02L142.49 174.39L142.76 174.94L142.72 174.5V164.26H145.64V179.23H142.76L135.18 168.99L134.91 168.46L134.95 168.78V179.22H134.96Z" fill="white"/>
<path d="M154.77 179.22V164.25H157.86V179.22H154.77Z" fill="white"/>
<path d="M163.9 179.22H160.96V164.25H163.96L171.43 174.39L171.7 174.94L171.66 174.5V164.26H174.58V179.23H171.7L164.12 168.99L163.85 168.46L163.89 168.78V179.22H163.9Z" fill="white"/>
<path d="M177.65 164.26H183.59C184.36 164.26 185.08 164.32 185.76 164.45C186.44 164.58 187.06 164.77 187.64 165.02C188.79 165.52 189.68 166.3 190.32 167.35C190.96 168.4 191.28 169.74 191.28 171.38V172.18C191.28 172.99 191.2 173.73 191.05 174.39C190.9 175.06 190.66 175.65 190.36 176.16C189.74 177.2 188.87 177.97 187.75 178.47C186.63 178.97 185.29 179.23 183.75 179.23H177.66V164.26H177.65ZM180.7 166.9V176.56H183.6C185.12 176.56 186.27 176.2 187.04 175.48C187.81 174.76 188.19 173.6 188.19 172.01V171.51C188.19 169.91 187.79 168.75 186.99 168.01C186.19 167.27 185.02 166.91 183.46 166.91H180.7V166.9Z" fill="white"/>
<path d="M193.8 179.22V164.25H196.89V179.22H193.8Z" fill="white"/>
<path d="M209.85 175.91H202.99L201.69 179.23H198.48L204.78 164.26H207.97L214.39 179.23H211.22L209.85 175.91ZM206.37 167.4L204 173.36H208.81L206.37 167.4Z" fill="white"/>
<path d="M142.22 67.67V65.56C142.22 64.75 142.38 64.06 142.7 63.5C143.02 62.94 143.45 62.47 144.01 62.09C144.55 61.71 145.17 61.39 145.88 61.12C146.58 60.85 147.31 60.6 148.07 60.37C148.49 60.25 148.88 60.12 149.25 59.99C149.62 59.86 149.95 59.74 150.26 59.61C150.91 59.37 151.42 59.08 151.78 58.76C152.15 58.44 152.33 58.03 152.33 57.54C152.33 56.84 152.07 56.31 151.54 55.96C151.01 55.61 150.22 55.43 149.17 55.43C147.94 55.43 147.01 55.69 146.39 56.2C145.77 56.71 145.46 57.45 145.46 58.41V58.69H142.44V58.33C142.44 56.6 143.01 55.27 144.15 54.33C145.29 53.39 146.98 52.92 149.23 52.92C149.93 52.92 150.57 52.97 151.16 53.07C151.74 53.17 152.25 53.32 152.7 53.51C153.61 53.9 154.28 54.44 154.71 55.12C155.14 55.8 155.36 56.58 155.36 57.46C155.36 57.93 155.3 58.37 155.18 58.76C155.06 59.15 154.88 59.5 154.63 59.81C154.16 60.42 153.5 60.92 152.66 61.32C151.82 61.72 150.86 62.08 149.78 62.4C148.51 62.78 147.51 63.14 146.79 63.49C146.07 63.84 145.67 64.33 145.6 64.95H155.25V67.65H142.22V67.67Z" fill="white"/>
<path d="M158.86 66.26C157.6 65.09 156.97 63.3 156.97 60.9V60.15C156.97 59.37 157.04 58.65 157.19 57.99C157.34 57.33 157.55 56.74 157.84 56.2C158.42 55.13 159.24 54.32 160.3 53.76C161.36 53.2 162.6 52.92 164.02 52.92C164.72 52.92 165.38 52.99 165.99 53.12C166.6 53.26 167.17 53.46 167.71 53.75C168.78 54.29 169.61 55.1 170.21 56.17C170.81 57.24 171.11 58.57 171.11 60.13V60.9C171.11 61.7 171.03 62.42 170.89 63.08C170.74 63.74 170.52 64.33 170.22 64.85C169.63 65.9 168.8 66.7 167.74 67.22C166.68 67.75 165.45 68.01 164.04 68.01C161.85 68.01 160.12 67.43 158.86 66.26ZM167 64.24C167.7 63.52 168.04 62.38 168.04 60.81V60.22C168.04 58.65 167.7 57.49 167.01 56.72C166.32 55.95 165.33 55.57 164.05 55.57C162.72 55.57 161.73 55.96 161.06 56.73C160.39 57.5 160.06 58.66 160.06 60.22V60.83C160.06 62.32 160.39 63.44 161.05 64.19C161.71 64.94 162.71 65.31 164.03 65.31C165.32 65.32 166.31 64.96 167 64.24Z" fill="white"/>
<path d="M172.08 67.67V64.83H175.51V57.94H173.14V55.65C174.11 55.58 174.81 55.36 175.24 54.97C175.67 54.58 175.94 54 176.06 53.22H178.49V64.84H181.75V67.68H172.08V67.67Z" fill="white"/>
<path d="M196.4 64.49C196.27 64.91 196.08 65.3 195.82 65.67C195.31 66.4 194.56 66.97 193.58 67.39C192.6 67.81 191.41 68.02 190 68.02C187.61 68.02 185.81 67.43 184.61 66.25C183.41 65.07 182.81 63.3 182.81 60.95V60.24C182.81 57.81 183.46 55.98 184.76 54.76C186.06 53.54 187.86 52.93 190.17 52.93C191.94 52.93 193.38 53.31 194.49 54.07C195.6 54.83 196.26 55.93 196.48 57.37H193.3C193.15 56.79 192.84 56.33 192.36 56C191.88 55.67 191.13 55.5 190.12 55.5C188.65 55.5 187.56 55.9 186.87 56.69C186.17 57.48 185.83 58.66 185.83 60.23V60.8C186.29 60.17 186.96 59.62 187.85 59.18C188.74 58.73 189.8 58.51 191.04 58.51C192.78 58.51 194.15 58.91 195.14 59.72C196.13 60.53 196.62 61.68 196.62 63.18C196.59 63.62 196.53 64.07 196.4 64.49ZM192.65 64.73C193.22 64.32 193.51 63.77 193.51 63.07C193.51 62.29 193.22 61.73 192.64 61.41C192.06 61.09 191.23 60.92 190.15 60.92C189.18 60.92 188.33 61.12 187.61 61.51C186.89 61.9 186.37 62.4 186.06 63.01C186.3 63.83 186.74 64.43 187.38 64.79C188.02 65.15 188.89 65.34 190 65.34C191.19 65.34 192.08 65.13 192.65 64.73Z" fill="white"/>
</svg>
