<svg width="339" height="324" viewBox="0 0 339 324" fill="none" xmlns="http://www.w3.org/2000/svg">
<path d="M101.33 307.26C60.71 300.39 37.23 294.28 0 275.61L34.05 263.79L22.78 230.2C55.45 246.6 74.1 251.13 109.75 257.17L101.33 307.26Z" fill="#FCD3C2"/>
<path d="M237.39 307.26C278.01 300.39 301.5 294.28 338.73 275.61L304.67 263.79L315.94 230.2C283.26 246.6 264.62 251.13 228.96 257.17L237.39 307.26Z" fill="#FCD3C2"/>
<path d="M107.93 267.98L109.76 257.16L61.7199 257C61.0899 262.26 75.89 261.38 85.77 263.49C91.55 264.74 107.93 267.98 107.93 267.98Z" fill="white"/>
<path d="M230.78 267.98L228.95 257.16C228.95 257.16 277.14 255.93 277.08 257C276.79 262.83 262.81 261.38 252.96 263.49C247.16 264.74 230.78 267.98 230.78 267.98Z" fill="white"/>
<path d="M292.03 305.56C212.12 330.15 126.69 330.15 46.79 305.56C51.76 289.38 56.7401 273.19 61.7101 257C131.88 278.59 206.92 278.59 277.08 257C282.07 273.18 287.06 289.38 292.03 305.56Z" fill="#FCD3C2"/>
<path d="M242.24 28.03C248.89 21.7 246.62 14.13 241.87 8.37C236.74 3.28 229.95 0 229.95 0C229.41 0.67 221.18 14.06 242.24 28.03Z" fill="#FCD3C2"/>
<path d="M258.41 19.36C258.4 19.36 245.81 31.03 263.31 49.43C279.84 40.82 259.26 18.3 258.41 19.36Z" fill="#FCD3C2"/>
<path d="M286.88 58.65C284.94 51.67 280.69 45.46 280.69 45.46C279.96 45.75 266.08 53.36 277.47 75.92C286.38 73.72 288.14 65.98 286.88 58.65Z" fill="#FCD3C2"/>
<path d="M285.11 105C303.7 105.64 297.2 75.89 295.76 76.42C295.76 76.3 279.13 80.28 285.11 105Z" fill="#FCD3C2"/>
<path d="M302.19 110.15C301.52 110 285.43 109.73 284.19 134.98C292.81 137.42 298.93 131.69 300.82 124.66C302.72 117.68 302.19 110.15 302.19 110.15Z" fill="#FCD3C2"/>
<path d="M290.44 144.93C285.91 147.07 280.61 151.71 276.11 163.84C284.1 168.5 290.44 164.14 294.79 158.08C299.34 152.06 299.38 144.32 299.68 144.4C299.69 144.4 295.25 143.01 290.44 144.93Z" fill="#FCD3C2"/>
<path d="M261.22 189.95C274.08 203.53 289.82 177.43 289 177.06C289 177.06 274.01 167.98 261.22 189.95Z" fill="#FCD3C2"/>
<path d="M239.53 210.65C243.91 218.44 252.44 218.81 258.54 214.91C264.81 211.27 269.68 205.54 269.68 205.54C269.37 205.03 257.94 193.35 239.53 210.65Z" fill="#FCD3C2"/>
<path d="M236.92 222.18C232.24 220.46 225.11 219.97 213.43 225.52C215.91 234.48 223.44 235.72 230.84 234.48C238.3 233.5 243.77 227.94 243.93 228.28C243.93 228.27 241.76 224.16 236.92 222.18Z" fill="#FCD3C2"/>
<path d="M184.57 233.63C184.62 242.98 191.45 245.78 198.89 246.08C206.23 246.25 213.52 244.39 213.36 244.03C213.36 244.03 209.05 226.73 184.57 233.63Z" fill="#FCD3C2"/>
<path d="M211.23 221.37C237.61 211.83 268.44 184.22 278.06 147.04C287.73 110.11 276.23 70.36 257.26 49.18C248.52 37.92 238.76 31.13 232.31 26.04C230 24.8 228.17 23.75 226.52 22.87C222.15 14.76 214.69 10.68 208.35 10.68C201.29 10.19 196.43 12.14 196.43 12.14C196.43 12.14 199.73 16.84 204.96 20.35C210 23.18 215.95 26.2 225.02 25.71C226.59 26.52 228.36 27.52 230.52 28.7C232.88 30.55 235.74 32.74 238.77 35.25C221.07 21.6 214.04 39.5 214.34 38.84C214.34 38.84 218.49 41.54 223.76 42.16C228.63 43.48 234.92 43.48 239.88 36.11C244.66 40.13 249.87 44.87 254.81 51.27C255.37 51.88 255.85 52.7 256.44 53.36C242.96 38.55 233.09 52.1 233.09 52.1C233.77 51.54 244.82 67.2 258.49 56.02C262.96 61.94 266.88 68.95 269.99 76.7C261.29 59 247.41 70.07 247.94 69.67C247.94 69.67 250.21 74.07 254.5 77.29C258.04 80.68 263.43 83.85 271.37 79.98C273.4 85.52 274.91 91.38 276.09 97.45C270.34 84.8 258.1 90.36 258.1 90.36C259.19 90.14 260.78 108.64 277.58 106.41C278.27 112.56 278.34 118.88 277.98 125.26C276.37 110.6 261.86 112.96 262.35 112.96C262.35 112.96 262.04 117.89 264.06 122.78C266.02 127.59 268.49 132.79 277.38 133.53C276.83 137.77 276.04 141.98 274.95 146.21C274.42 148.15 273.64 149.95 273.04 151.83C274.02 145.81 271.84 141.77 268.87 139.49C265.08 136.33 260.59 135.9 260.59 135.9C261.65 136.36 253.97 153.87 270.25 159.77C267.67 165.84 264.44 171.47 260.86 176.77C267.11 162.58 253.51 157.8 253.57 157.8C253.97 158.17 242.38 172.97 256.46 183.15C253.19 187.41 249.59 191.26 245.93 194.85C251.2 184.73 241.36 177.66 241.75 177.96C241.75 177.96 238.02 181.21 236.01 186.16C234.27 190.95 232.46 196.05 237.47 202.45C232.1 206.75 226.49 210.52 220.95 213.48C226.22 209.84 227.57 205.32 227.01 201.5C226.58 196.55 223.67 193.14 223.67 193.14C224.16 194.15 206.38 201.23 213.71 216.82C212.52 217.28 211.27 217.99 210.07 218.46C204.84 221.38 199.31 221.89 194.45 223.09C208.77 217.19 202.54 204.57 202.54 204.62C202.54 204.62 183.86 207.54 186.78 224.66C183.56 225.21 180.51 225.47 177.85 225.42C169.84 225.64 165.28 225.73 165.28 225.73V225.52C164.11 225.47 163.01 225.47 161.6 225.42C158.95 225.47 155.9 225.21 152.66 224.66C155.57 207.53 136.91 204.62 136.91 204.62C136.91 204.56 130.67 217.19 145.02 223.09C140.18 221.89 134.64 221.39 129.39 218.46C128.16 218 126.93 217.29 125.75 216.82C133.08 201.23 115.32 194.15 115.8 193.14C115.8 193.14 112.91 196.55 112.41 201.5C111.91 205.32 113.25 209.85 118.51 213.48C112.98 210.52 107.35 206.76 101.96 202.45C107.01 196.05 105.2 190.95 103.46 186.16C101.45 181.21 97.7199 177.96 97.7199 177.96C98.0999 177.66 88.2699 184.73 93.5399 194.85C89.8399 191.26 86.28 187.41 83.01 183.15C97.1 172.97 85.48 158.17 85.88 157.8C85.92 157.8 72.36 162.58 78.63 176.77C75.06 171.47 71.79 165.84 69.18 159.77C85.47 153.88 77.82 136.36 78.88 135.9C78.88 135.9 74.41 136.33 70.59 139.49C67.64 141.77 65.45 145.81 66.46 151.83C65.84 149.95 65.02 148.15 64.52 146.21C63.4 141.99 62.65 137.77 62.07 133.53C70.98 132.79 73.4399 127.6 75.4199 122.78C77.4299 117.89 77.09 112.96 77.09 112.96C77.66 112.96 63.1 110.6 61.51 125.26C61.13 118.87 61.2099 112.55 61.9099 106.41C78.6899 108.65 80.2599 90.14 81.3599 90.36C81.3599 90.36 69.1099 84.8 63.3599 97.45C64.5299 91.39 66.0899 85.52 68.1099 79.98C76.0299 83.85 81.42 80.68 85.01 77.29C89.25 74.06 91.51 69.67 91.51 69.67C92.09 70.06 78.1999 58.99 69.4699 76.7C72.6199 68.95 76.52 61.94 81.01 56.02C94.65 67.2 105.7 51.54 106.4 52.1C106.4 52.1 96.54 38.55 83.03 53.36C83.62 52.7 84.1099 51.89 84.6699 51.27C89.6099 44.87 94.81 40.13 99.59 36.11C104.58 43.48 110.86 43.48 115.71 42.16C120.97 41.54 125.1 38.84 125.1 38.84C125.44 39.51 118.39 21.6 100.69 35.25C103.75 32.75 106.6 30.55 108.94 28.7C111.1 27.51 112.92 26.52 114.45 25.71C123.53 26.2 129.45 23.18 134.49 20.35C139.77 16.84 143.06 12.14 143.06 12.14C143.06 12.14 138.16 10.19 131.15 10.68C124.78 10.68 117.3 14.77 112.96 22.87C111.28 23.75 109.45 24.79 107.16 26.04C100.68 31.13 90.94 37.92 82.19 49.18C63.23 70.35 51.7199 110.11 61.4199 147.04C70.9999 184.22 101.84 211.83 128.22 221.37C134.49 224.9 141.25 224.97 146.73 226.68C152.27 228.34 157.27 228.74 161.4 228.65C162.33 228.67 163.15 228.67 163.94 228.67C164.28 228.83 164.67 228.94 165.12 228.94C165.12 228.94 169.83 228.81 178.06 228.65C182.22 228.74 187.22 228.34 192.74 226.68C198.21 224.97 205.01 224.91 211.23 221.37ZM220.18 213.95C219.74 214.14 219.29 214.37 218.8 214.59C219.23 214.36 219.79 214.14 220.18 213.95Z" fill="#FCD3C2"/>
<path d="M109.48 0C109.48 0 102.66 3.28 97.5599 8.37C92.7999 14.13 90.5299 21.69 97.1699 28.03C118.22 14.06 109.99 0.67 109.48 0Z" fill="#FCD3C2"/>
<path d="M76.1099 49.44C93.6299 31.03 81.02 19.37 81 19.37C80.16 18.3 59.5499 40.82 76.1099 49.44Z" fill="#FCD3C2"/>
<path d="M61.94 75.92C73.32 53.36 59.47 45.76 58.76 45.46C58.76 45.46 54.4899 51.66 52.5499 58.65C51.2599 65.98 53.04 73.72 61.94 75.92Z" fill="#FCD3C2"/>
<path d="M54.3201 105C60.2901 80.28 43.66 76.3 43.66 76.42C42.22 75.89 35.7301 105.64 54.3201 105Z" fill="#FCD3C2"/>
<path d="M55.26 134.98C54.02 109.73 37.8599 110.01 37.2199 110.15C37.2199 110.15 36.67 117.67 38.58 124.65C40.5 131.69 46.58 137.42 55.26 134.98Z" fill="#FCD3C2"/>
<path d="M63.31 163.84C58.82 151.71 53.52 147.07 49 144.93C44.16 143.02 39.76 144.4 39.76 144.4C40.06 144.32 40.06 152.05 44.63 158.08C49 164.13 55.32 168.5 63.31 163.84Z" fill="#FCD3C2"/>
<path d="M50.44 177.06C49.62 177.42 65.3499 203.52 78.2199 189.95C65.4099 167.98 50.44 177.06 50.44 177.06Z" fill="#FCD3C2"/>
<path d="M99.9 210.65C81.48 193.35 70.02 205.02 69.72 205.55C69.72 205.55 74.6 211.28 80.86 214.92C86.94 218.82 95.52 218.45 99.9 210.65Z" fill="#FCD3C2"/>
<path d="M102.49 222.18C97.64 224.16 95.49 228.27 95.49 228.27C95.62 227.94 101.11 233.5 108.58 234.47C115.97 235.71 123.55 234.47 125.95 225.51C114.28 219.97 107.14 220.46 102.49 222.18Z" fill="#FCD3C2"/>
<path d="M126.05 244.04C125.89 244.4 133.18 246.26 140.55 246.09C147.95 245.79 154.81 242.99 154.86 233.64C130.37 226.73 126.05 244.04 126.05 244.04Z" fill="#FCD3C2"/>
<path d="M82.1001 293.68L84.3501 285.43L86.0501 285.89L83.8001 294.14L82.1001 293.68Z" fill="#F37972"/>
<path d="M87.0902 295.01L85.4602 294.61L87.4902 286.3L89.1602 286.71L91.9402 293.35L92.0202 293.69L92.0602 293.44L93.4502 287.75L95.0702 288.14L93.0402 296.45L91.4402 296.06L88.6202 289.35L88.5402 289.02L88.5202 289.2L87.0902 295.01Z" fill="#F37972"/>
<path d="M96.3902 288.44L99.7202 289.13C100.15 289.22 100.55 289.34 100.91 289.49C101.28 289.64 101.6 289.82 101.9 290.03C102.48 290.45 102.89 290.98 103.13 291.64C103.36 292.3 103.39 293.09 103.2 294.01L103.11 294.46C103.02 294.91 102.89 295.32 102.72 295.67C102.55 296.02 102.36 296.33 102.13 296.58C101.67 297.09 101.09 297.42 100.4 297.57C99.7102 297.72 98.9402 297.71 98.0702 297.53L94.6602 296.83L96.3902 288.44ZM97.7902 290.27L96.6702 295.68L98.2902 296.01C99.1402 296.19 99.8302 296.12 100.34 295.8C100.85 295.49 101.2 294.88 101.39 293.99L101.45 293.71C101.63 292.82 101.55 292.12 101.18 291.62C100.82 291.12 100.2 290.77 99.3302 290.59L97.7902 290.27Z" fill="#F37972"/>
<path d="M103.68 298.63L105.23 290.21L106.97 290.53L105.42 298.95L103.68 298.63Z" fill="#F37972"/>
<path d="M112.99 298.31L109.12 297.68L108.08 299.43L106.27 299.14L111.2 291.27L113 291.56L115.25 300.6L113.46 300.31L112.99 298.31ZM111.81 293.19L109.92 296.34L112.63 296.78L111.81 293.19Z" fill="#F37972"/>
<path d="M125.8 298.5L121.64 297.98L121.22 301.4L119.48 301.18L120.53 292.69L122.27 292.9L121.85 296.32L126.01 296.84L126.43 293.42L128.14 293.63L127.09 302.12L125.38 301.91L125.8 298.5Z" fill="#F37972"/>
<path d="M135.79 303L128.8 302.31L129.64 293.8L136.4 294.47L136.25 295.95L131.17 295.45L130.97 297.46L135.27 297.88L135.12 299.36L130.82 298.93L130.62 300.94L135.92 301.47L135.79 303Z" fill="#F37972"/>
<path d="M143.03 301.66L139.12 301.37L138.24 303.2L136.41 303.06L140.64 294.8L142.46 294.94L145.48 303.75L143.67 303.61L143.03 301.66ZM141.41 296.66L139.8 299.96L142.54 300.17L141.41 296.66Z" fill="#F37972"/>
<path d="M146.31 303.78L146.77 295.24L148.54 295.33L148.17 302.23L152.9 302.48L152.81 304.12L146.31 303.78Z" fill="#F37972"/>
<path d="M156.71 297.23L156.45 304.26L154.68 304.19L154.94 297.16L152.3 297.06L152.36 295.54L159.53 295.81L159.47 297.33L156.71 297.23Z" fill="#F37972"/>
<path d="M166.41 301.05L162.22 300.98L162.16 304.42L160.41 304.39L160.55 295.84L162.3 295.87L162.24 299.31L166.43 299.38L166.49 295.94L168.22 295.97L168.08 304.53L166.35 304.5L166.41 301.05Z" fill="#F37972"/>
<path d="M177.73 302.13C177.63 302.45 177.5 302.75 177.34 303.02C177.01 303.56 176.55 303.97 175.95 304.26C175.35 304.55 174.58 304.7 173.65 304.7C172.34 304.71 171.31 304.37 170.55 303.68C169.79 302.99 169.42 301.94 169.41 300.54V300.05C169.41 299.59 169.45 299.17 169.53 298.79C169.62 298.41 169.75 298.05 169.93 297.73C170.28 297.1 170.78 296.61 171.43 296.28C172.08 295.95 172.84 295.77 173.71 295.77C174.87 295.76 175.81 296.04 176.54 296.59C177.27 297.15 177.71 297.99 177.88 299.12L176.02 299.13C175.94 298.56 175.71 298.12 175.34 297.81C174.97 297.5 174.43 297.34 173.72 297.34C172.91 297.34 172.29 297.57 171.85 298.03C171.41 298.49 171.2 299.18 171.2 300.12V300.48C171.2 301.34 171.42 301.99 171.86 302.43C172.29 302.87 172.92 303.08 173.72 303.08C174.48 303.08 175.04 302.9 175.4 302.56C175.76 302.22 175.98 301.73 176.05 301.11L177.93 301.1C177.9 301.47 177.83 301.81 177.73 302.13Z" fill="#F37972"/>
<path d="M184.56 302.43L180.64 302.53L179.94 304.44L178.1 304.48L181.49 295.84L183.31 295.8L187.19 304.26L185.38 304.3L184.56 302.43ZM182.45 297.62L181.18 301.06L183.93 300.99L182.45 297.62Z" fill="#F37972"/>
<path d="M189.66 301.18L189.79 304.14L188.05 304.22L187.67 295.67L191.47 295.5C192.76 295.44 193.71 295.63 194.3 296.05C194.89 296.48 195.21 297.11 195.24 297.96C195.27 298.56 195.15 299.04 194.9 299.4C194.64 299.76 194.25 300.03 193.72 300.22C194.23 300.33 194.61 300.56 194.87 300.9C195.12 301.24 195.27 301.74 195.3 302.4L195.34 303.41C195.34 303.51 195.36 303.6 195.39 303.69C195.42 303.78 195.48 303.85 195.56 303.89L193.71 303.97C193.64 303.93 193.58 303.87 193.55 303.77C193.52 303.67 193.5 303.57 193.49 303.47L193.45 302.51C193.42 301.95 193.28 301.57 193 301.36C192.72 301.15 192.26 301.07 191.59 301.1L189.66 301.18ZM189.48 297.08L189.6 299.68L191.59 299.59C192.18 299.56 192.65 299.45 192.99 299.24C193.33 299.03 193.49 298.69 193.47 298.22V298.15C193.45 297.7 193.29 297.39 192.98 297.21C192.67 297.03 192.19 296.96 191.53 296.99L189.48 297.08Z" fill="#F37972"/>
<path d="M203.9 303.35L196.89 303.81L196.34 295.27L203.12 294.83L203.22 296.31L198.13 296.64L198.26 298.65L202.57 298.37L202.67 299.85L198.36 300.13L198.49 302.14L203.81 301.8L203.9 303.35Z" fill="#F37972"/>
<path d="M214.05 300.54L210.14 300.92L209.58 302.88L207.75 303.06L210.51 294.2L212.33 294.03L216.8 302.2L215 302.37L214.05 300.54ZM211.6 295.9L210.58 299.42L213.32 299.16L211.6 295.9Z" fill="#F37972"/>
<path d="M221.6 295.55L220 301.8L218.32 302.01L214.91 293.81L216.67 293.59L219.04 299.45L220.63 293.1L221.99 292.93L224.94 298.8L226.07 292.42L227.82 292.2L226.13 301.03L224.48 301.24L221.6 295.55Z" fill="#F37972"/>
<path d="M233.9 297.94L230.02 298.55L229.58 300.54L227.77 300.82L230 291.81L231.8 291.53L236.75 299.41L234.96 299.69L233.9 297.94ZM231.17 293.45L230.36 297.03L233.07 296.6L231.17 293.45Z" fill="#F37972"/>
<path d="M238.7 296.02L239.25 298.93L237.54 299.25L235.95 290.84L239.69 290.13C240.96 289.89 241.92 289.94 242.57 290.28C243.22 290.62 243.62 291.2 243.78 292.04C243.89 292.63 243.85 293.12 243.64 293.51C243.44 293.9 243.09 294.23 242.59 294.48C243.11 294.52 243.52 294.69 243.82 294.99C244.12 295.29 244.33 295.76 244.46 296.41L244.65 297.4C244.67 297.49 244.7 297.58 244.74 297.67C244.78 297.75 244.85 297.81 244.94 297.85L243.12 298.19C243.04 298.16 242.98 298.11 242.93 298.01C242.88 297.92 242.85 297.82 242.83 297.72L242.65 296.78C242.55 296.23 242.34 295.87 242.04 295.71C241.74 295.55 241.26 295.53 240.61 295.65L238.7 296.02ZM237.94 291.99L238.42 294.55L240.38 294.18C240.96 294.07 241.41 293.89 241.71 293.64C242.02 293.39 242.13 293.03 242.04 292.56L242.03 292.49C241.95 292.05 241.74 291.76 241.41 291.63C241.08 291.5 240.59 291.49 239.95 291.61L237.94 291.99Z" fill="#F37972"/>
<path d="M244.34 289.25L247.65 288.5C248.08 288.4 248.49 288.35 248.89 288.33C249.29 288.31 249.66 288.34 250.01 288.41C250.71 288.55 251.31 288.87 251.8 289.37C252.29 289.87 252.63 290.58 252.84 291.5L252.94 291.95C253.04 292.4 253.09 292.82 253.09 293.21C253.09 293.6 253.03 293.96 252.93 294.29C252.72 294.95 252.33 295.48 251.76 295.91C251.19 296.33 250.48 296.64 249.63 296.84L246.24 297.61L244.34 289.25ZM246.37 290.34L247.59 295.72L249.21 295.35C250.06 295.16 250.65 294.81 250.99 294.31C251.33 293.81 251.4 293.12 251.2 292.23L251.14 291.95C250.94 291.06 250.57 290.46 250.03 290.15C249.49 289.84 248.79 289.78 247.93 289.98L246.37 290.34Z" fill="#F37972"/>
<path d="M257.49 295.02C257.1 295.06 256.74 295.07 256.42 295.03C255.78 294.95 255.25 294.73 254.84 294.35C254.43 293.97 254.1 293.45 253.85 292.79L255.67 292.3C255.89 292.85 256.22 293.21 256.66 293.35C257.11 293.5 257.69 293.48 258.41 293.28C259.05 293.11 259.49 292.88 259.73 292.59C259.97 292.3 260.04 291.99 259.95 291.66C259.91 291.52 259.86 291.4 259.78 291.31C259.7 291.22 259.61 291.14 259.5 291.1C259.27 291.01 258.96 290.99 258.56 291.02C258.17 291.05 257.68 291.11 257.11 291.2C256.8 291.24 256.5 291.27 256.22 291.29C255.94 291.31 255.67 291.31 255.42 291.29C254.91 291.26 254.47 291.12 254.11 290.87C253.75 290.62 253.49 290.2 253.33 289.61C253.27 289.38 253.24 289.15 253.24 288.93C253.25 288.7 253.28 288.48 253.36 288.26C253.5 287.81 253.8 287.42 254.24 287.06C254.68 286.71 255.29 286.43 256.05 286.22C257.27 285.89 258.25 285.87 259 286.17C259.75 286.47 260.29 287.06 260.63 287.94L258.86 288.42C258.66 287.94 258.36 287.65 257.97 287.54C257.58 287.43 257.06 287.46 256.4 287.64C255.79 287.81 255.39 288.02 255.2 288.28C255.01 288.54 254.95 288.82 255.03 289.11C255.13 289.47 255.38 289.67 255.78 289.71C256.18 289.75 256.78 289.7 257.6 289.57C257.94 289.52 258.27 289.48 258.58 289.46C258.89 289.44 259.18 289.43 259.46 289.44C260 289.47 260.46 289.6 260.83 289.85C261.2 290.1 261.46 290.52 261.62 291.12C261.69 291.37 261.72 291.63 261.73 291.87C261.73 292.12 261.69 292.36 261.62 292.6C261.47 293.07 261.16 293.49 260.69 293.87C260.22 294.24 259.59 294.54 258.78 294.75C258.31 294.89 257.88 294.97 257.49 295.02Z" fill="#F37972"/>
<path d="M141.79 103.33V88.37H148.55C150.72 88.37 152.32 88.68 153.35 89.31C154.38 89.94 154.89 90.92 154.89 92.25V92.31C154.89 93.22 154.69 93.94 154.29 94.47C153.89 95 153.28 95.39 152.45 95.65C153.36 95.87 154.05 96.25 154.52 96.77C154.99 97.29 155.22 98.04 155.22 99.01V99.03C155.22 100.51 154.68 101.6 153.6 102.29C152.52 102.98 150.9 103.33 148.75 103.33H141.79ZM144.77 90.8V94.45H148.76C149.74 94.45 150.51 94.32 151.06 94.06C151.61 93.8 151.89 93.32 151.89 92.62V92.58C151.89 91.91 151.64 91.44 151.15 91.18C150.65 90.92 149.84 90.79 148.7 90.79H144.77V90.8ZM144.77 96.87V100.75H148.38C148.86 100.75 149.28 100.73 149.66 100.7C150.04 100.67 150.36 100.61 150.62 100.54C151.17 100.41 151.55 100.2 151.76 99.91C151.97 99.62 152.09 99.25 152.09 98.8V98.78C152.09 98.05 151.82 97.55 151.27 97.28C150.72 97.01 149.8 96.87 148.5 96.87H144.77Z" fill="white"/>
<path d="M169.63 103.33H157.35V88.37H169.23V90.97H160.31V94.5H167.87V97.1H160.31V100.63H169.63V103.33Z" fill="white"/>
<path d="M175.73 103.53C175.04 103.43 174.44 103.27 173.93 103.06C172.88 102.64 172.1 102.02 171.58 101.19C171.06 100.36 170.74 99.34 170.62 98.1H173.91C174.02 99.14 174.42 99.88 175.11 100.34C175.8 100.8 176.79 101.02 178.09 101.02C179.25 101.02 180.1 100.83 180.63 100.45C181.16 100.07 181.43 99.58 181.43 98.98C181.43 98.73 181.39 98.5 181.31 98.31C181.23 98.11 181.1 97.95 180.93 97.83C180.58 97.58 180.07 97.39 179.39 97.26C178.71 97.13 177.87 97.02 176.86 96.9C176.31 96.83 175.8 96.75 175.32 96.65C174.84 96.55 174.39 96.43 173.97 96.29C173.12 96.01 172.44 95.58 171.95 94.99C171.46 94.4 171.22 93.58 171.22 92.51C171.22 92.09 171.27 91.69 171.39 91.31C171.5 90.93 171.67 90.58 171.89 90.24C172.34 89.55 173.01 89.02 173.93 88.62C174.84 88.23 175.99 88.03 177.37 88.03C179.58 88.03 181.25 88.45 182.38 89.29C183.51 90.13 184.15 91.38 184.32 93.03H181.11C180.99 92.13 180.62 91.5 180.01 91.14C179.4 90.78 178.5 90.59 177.31 90.59C176.2 90.59 175.43 90.76 174.99 91.11C174.55 91.46 174.33 91.9 174.33 92.43C174.33 93.09 174.66 93.54 175.32 93.78C175.98 94.03 177.02 94.22 178.45 94.38C179.05 94.45 179.62 94.54 180.15 94.64C180.68 94.74 181.18 94.87 181.64 95.01C182.55 95.3 183.26 95.74 183.76 96.33C184.26 96.92 184.52 97.75 184.52 98.83C184.52 99.29 184.46 99.73 184.35 100.15C184.24 100.57 184.06 100.96 183.83 101.33C183.35 102.06 182.64 102.63 181.68 103.04C180.72 103.45 179.51 103.66 178.06 103.66C177.18 103.69 176.42 103.64 175.73 103.53Z" fill="white"/>
<path d="M193.03 91.03V103.33H189.92V91.03H185.3V88.36H197.85V91.03H193.03Z" fill="white"/>
<path d="M115.3 123.84V128.52H112.28V113.55H118.73C121.07 113.55 122.77 114 123.83 114.9C124.89 115.8 125.43 117.07 125.43 118.71C125.43 120.32 124.89 121.58 123.81 122.49C122.73 123.4 121.11 123.85 118.94 123.83H115.3V123.84ZM115.3 116.16V121.24H118.83C120.03 121.24 120.92 121.03 121.48 120.62C122.05 120.21 122.33 119.57 122.33 118.7C122.33 117.8 122.04 117.16 121.45 116.76C120.86 116.36 119.96 116.16 118.74 116.16H115.3Z" fill="white"/>
<path d="M139.88 128.52H127.6V113.55H139.48V116.15H130.56V119.68H138.12V122.28H130.56V125.81H139.88V128.52Z" fill="white"/>
<path d="M142 113.56H147.94C148.71 113.56 149.43 113.62 150.11 113.75C150.79 113.88 151.41 114.06 151.99 114.32C153.14 114.82 154.03 115.6 154.67 116.65C155.31 117.7 155.63 119.04 155.63 120.68V121.48C155.63 122.29 155.55 123.03 155.4 123.69C155.25 124.36 155.01 124.95 154.71 125.46C154.09 126.5 153.22 127.27 152.1 127.77C150.98 128.27 149.64 128.53 148.1 128.53H142V113.56ZM145.04 116.2V125.86H147.94C149.47 125.86 150.61 125.5 151.38 124.78C152.15 124.06 152.53 122.9 152.53 121.31V120.81C152.53 119.21 152.13 118.05 151.33 117.31C150.53 116.58 149.36 116.21 147.8 116.21H145.04V116.2Z" fill="white"/>
<path d="M158.14 128.52V113.55H161.23V128.52H158.14Z" fill="white"/>
<path d="M174.2 125.21H167.33L166.03 128.53H162.82L169.12 113.56H172.31L178.73 128.53H175.56L174.2 125.21ZM170.72 116.71L168.35 122.67H173.16L170.72 116.71Z" fill="white"/>
<path d="M184.3 116.22V128.52H181.19V116.22H176.57V113.55H189.12V116.22H184.3Z" fill="white"/>
<path d="M194.31 123.34V128.53H191.27V113.56H197.93C200.2 113.56 201.83 113.96 202.83 114.75C203.83 115.54 204.33 116.68 204.33 118.16C204.33 119.21 204.09 120.04 203.62 120.65C203.15 121.26 202.44 121.7 201.5 121.98C202.38 122.22 203.03 122.64 203.45 123.25C203.87 123.86 204.08 124.74 204.08 125.91V127.67C204.08 127.84 204.1 128 204.15 128.16C204.2 128.32 204.29 128.44 204.43 128.53H201.2C201.08 128.46 200.99 128.34 200.94 128.16C200.89 127.98 200.87 127.81 200.87 127.62V125.94C200.87 124.96 200.64 124.28 200.18 123.9C199.72 123.52 198.9 123.33 197.74 123.33H194.31V123.34ZM194.31 116.16V120.72H197.79C198.83 120.72 199.65 120.55 200.26 120.22C200.87 119.89 201.17 119.3 201.17 118.48V118.35C201.17 117.57 200.91 117.01 200.38 116.67C199.86 116.33 199.02 116.17 197.87 116.17H194.31V116.16Z" fill="white"/>
<path d="M206.89 128.52V113.55H209.98V128.52H206.89Z" fill="white"/>
<path d="M227 124.41C226.82 124.97 226.59 125.49 226.31 125.96C225.74 126.9 224.92 127.62 223.86 128.12C222.8 128.62 221.46 128.88 219.84 128.88C217.55 128.88 215.74 128.27 214.44 127.06C213.14 125.85 212.48 124.01 212.48 121.55V120.69C212.48 119.89 212.56 119.16 212.71 118.49C212.86 117.82 213.1 117.2 213.42 116.64C214.04 115.53 214.91 114.69 216.05 114.11C217.19 113.53 218.52 113.24 220.05 113.24C222.08 113.24 223.73 113.73 224.99 114.71C226.26 115.69 227.03 117.17 227.31 119.14H224.06C223.92 118.15 223.53 117.37 222.88 116.82C222.24 116.27 221.29 115.99 220.05 115.99C218.64 115.99 217.54 116.39 216.77 117.18C216 117.97 215.62 119.18 215.62 120.82V121.45C215.62 122.96 216 124.1 216.75 124.87C217.51 125.64 218.59 126.02 220 126.02C221.33 126.02 222.31 125.72 222.94 125.13C223.57 124.54 223.95 123.69 224.09 122.6H227.39C227.31 123.25 227.18 123.85 227 124.41Z" fill="white"/>
<path d="M126.2 147.69H118.87V153.71H115.8V138.74H118.87V144.76H126.2V138.74H129.22V153.71H126.2V147.69Z" fill="white"/>
<path d="M133.66 152.29C132.34 151.1 131.68 149.24 131.68 146.71V145.91C131.68 145.11 131.76 144.37 131.92 143.7C132.08 143.02 132.32 142.4 132.62 141.84C133.25 140.73 134.12 139.89 135.24 139.31C136.36 138.73 137.65 138.44 139.12 138.44C139.85 138.44 140.54 138.51 141.19 138.65C141.84 138.79 142.45 139.01 143.01 139.3C144.13 139.86 145.01 140.7 145.64 141.81C146.27 142.92 146.6 144.29 146.6 145.91V146.71C146.6 147.54 146.52 148.29 146.37 148.98C146.22 149.67 145.98 150.28 145.66 150.83C145.04 151.92 144.17 152.74 143.05 153.28C141.92 153.82 140.61 154.09 139.11 154.09C136.8 154.07 134.99 153.48 133.66 152.29ZM142.32 150.16C143.06 149.41 143.43 148.24 143.43 146.64V146.01C143.43 144.36 143.06 143.14 142.32 142.36C141.58 141.58 140.52 141.18 139.13 141.18C137.73 141.18 136.67 141.58 135.94 142.39C135.21 143.19 134.85 144.39 134.85 145.99V146.64C134.85 148.18 135.21 149.34 135.94 150.11C136.67 150.89 137.73 151.28 139.13 151.28C140.52 151.28 141.58 150.91 142.32 150.16Z" fill="white"/>
<path d="M153.24 153.91C152.55 153.81 151.95 153.65 151.43 153.44C150.38 153.02 149.6 152.4 149.08 151.57C148.56 150.74 148.24 149.72 148.11 148.48H151.41C151.52 149.52 151.92 150.26 152.61 150.72C153.3 151.18 154.29 151.4 155.59 151.4C156.75 151.4 157.6 151.21 158.13 150.83C158.66 150.45 158.93 149.96 158.93 149.36C158.93 149.11 158.89 148.88 158.81 148.69C158.73 148.49 158.6 148.33 158.43 148.21C158.08 147.96 157.56 147.77 156.89 147.64C156.21 147.51 155.37 147.4 154.36 147.28C153.82 147.21 153.3 147.13 152.82 147.03C152.34 146.93 151.89 146.81 151.47 146.67C150.62 146.39 149.94 145.96 149.45 145.37C148.96 144.78 148.72 143.96 148.72 142.89C148.72 142.47 148.78 142.07 148.89 141.69C149 141.31 149.17 140.96 149.39 140.62C149.84 139.93 150.52 139.4 151.43 139C152.34 138.61 153.49 138.41 154.87 138.41C157.08 138.41 158.75 138.83 159.88 139.67C161 140.51 161.65 141.76 161.82 143.41H158.61C158.48 142.51 158.12 141.88 157.51 141.52C156.9 141.16 156 140.97 154.81 140.97C153.7 140.97 152.93 141.14 152.49 141.49C152.05 141.84 151.83 142.28 151.83 142.81C151.83 143.47 152.16 143.92 152.82 144.16C153.48 144.41 154.52 144.6 155.95 144.76C156.55 144.83 157.12 144.92 157.65 145.02C158.18 145.12 158.68 145.25 159.14 145.39C160.05 145.68 160.76 146.12 161.26 146.71C161.76 147.3 162.02 148.13 162.02 149.21C162.02 149.67 161.96 150.11 161.85 150.53C161.74 150.95 161.56 151.34 161.32 151.71C160.84 152.44 160.13 153.01 159.17 153.42C158.21 153.83 157 154.04 155.55 154.04C154.69 154.07 153.93 154.02 153.24 153.91Z" fill="white"/>
<path d="M167.18 149.03V153.71H164.16V138.74H170.61C172.95 138.74 174.65 139.19 175.71 140.09C176.77 140.99 177.31 142.26 177.31 143.9C177.31 145.51 176.77 146.77 175.69 147.68C174.61 148.59 172.99 149.04 170.82 149.02H167.18V149.03ZM167.18 141.35V146.43H170.71C171.91 146.43 172.8 146.22 173.37 145.81C173.94 145.4 174.22 144.76 174.22 143.89C174.22 142.99 173.93 142.35 173.34 141.95C172.75 141.55 171.85 141.35 170.63 141.35H167.18Z" fill="white"/>
<path d="M179.52 153.71V138.74H182.61V153.71H179.52Z" fill="white"/>
<path d="M192.54 141.41V153.71H189.43V141.41H184.81V138.74H197.36V141.41H192.54Z" fill="white"/>
<path d="M206.47 150.4H199.61L198.31 153.72H195.1L201.4 138.75H204.59L211.01 153.72H207.84L206.47 150.4ZM202.99 141.9L200.62 147.86H205.43L202.99 141.9Z" fill="white"/>
<path d="M212.54 153.71V138.74H215.65V150.83H223.94V153.71H212.54Z" fill="white"/>
<path d="M125.82 178.91V163.94H128.91V178.91H125.82Z" fill="white"/>
<path d="M134.96 178.91H132.02V163.94H135.02L142.49 174.08L142.76 174.63L142.72 174.19V163.95H145.64V178.92H142.76L135.18 168.68L134.91 168.15L134.95 168.47V178.91H134.96Z" fill="white"/>
<path d="M154.77 178.91V163.94H157.86V178.91H154.77Z" fill="white"/>
<path d="M163.9 178.91H160.96V163.94H163.96L171.43 174.08L171.7 174.63L171.66 174.19V163.95H174.58V178.92H171.7L164.12 168.68L163.85 168.15L163.89 168.47V178.91H163.9Z" fill="white"/>
<path d="M177.65 163.94H183.59C184.36 163.94 185.08 164 185.76 164.13C186.44 164.26 187.06 164.45 187.64 164.7C188.79 165.2 189.68 165.98 190.32 167.03C190.96 168.08 191.28 169.42 191.28 171.06V171.86C191.28 172.67 191.2 173.41 191.05 174.07C190.9 174.74 190.66 175.33 190.36 175.84C189.74 176.88 188.87 177.65 187.75 178.15C186.63 178.65 185.29 178.91 183.75 178.91H177.66V163.94H177.65ZM180.7 166.58V176.24H183.6C185.13 176.24 186.27 175.88 187.04 175.16C187.81 174.44 188.19 173.28 188.19 171.69V171.19C188.19 169.59 187.79 168.43 186.99 167.69C186.19 166.96 185.02 166.59 183.46 166.59H180.7V166.58Z" fill="white"/>
<path d="M193.8 178.91V163.94H196.89V178.91H193.8Z" fill="white"/>
<path d="M209.86 175.59H202.99L201.69 178.91H198.48L204.78 163.94H207.97L214.39 178.91H211.22L209.86 175.59ZM206.37 167.09L204 173.05H208.81L206.37 167.09Z" fill="white"/>
<path d="M142.22 67.35V65.24C142.22 64.43 142.38 63.74 142.7 63.18C143.02 62.62 143.45 62.15 144.01 61.77C144.55 61.39 145.17 61.07 145.88 60.8C146.58 60.53 147.31 60.28 148.07 60.05C148.49 59.93 148.88 59.8 149.25 59.67C149.62 59.54 149.95 59.42 150.26 59.29C150.91 59.05 151.42 58.76 151.78 58.44C152.15 58.12 152.33 57.71 152.33 57.22C152.33 56.52 152.07 55.99 151.54 55.64C151.01 55.29 150.22 55.11 149.17 55.11C147.94 55.11 147.01 55.37 146.39 55.88C145.77 56.39 145.46 57.13 145.46 58.09V58.37H142.44V58.01C142.44 56.28 143.01 54.95 144.15 54.01C145.29 53.07 146.98 52.6 149.23 52.6C149.93 52.6 150.57 52.65 151.16 52.75C151.74 52.85 152.25 53 152.7 53.19C153.61 53.58 154.28 54.12 154.71 54.8C155.14 55.48 155.36 56.26 155.36 57.14C155.36 57.61 155.3 58.05 155.18 58.44C155.06 58.83 154.88 59.18 154.63 59.49C154.16 60.1 153.5 60.6 152.66 61C151.82 61.4 150.86 61.76 149.78 62.08C148.51 62.46 147.51 62.82 146.79 63.17C146.07 63.52 145.67 64.01 145.6 64.63H155.25V67.33H142.22V67.35Z" fill="white"/>
<path d="M158.86 65.94C157.6 64.77 156.97 62.98 156.97 60.58V59.83C156.97 59.05 157.04 58.33 157.19 57.67C157.34 57.01 157.55 56.42 157.84 55.88C158.42 54.81 159.24 54 160.3 53.44C161.36 52.88 162.6 52.6 164.02 52.6C164.72 52.6 165.38 52.67 165.99 52.8C166.6 52.94 167.17 53.14 167.71 53.43C168.78 53.97 169.61 54.78 170.21 55.85C170.81 56.92 171.11 58.25 171.11 59.81V60.58C171.11 61.38 171.03 62.1 170.89 62.76C170.74 63.42 170.52 64.01 170.22 64.53C169.63 65.58 168.8 66.38 167.74 66.9C166.68 67.43 165.45 67.69 164.04 67.69C161.85 67.7 160.12 67.11 158.86 65.94ZM167 63.92C167.7 63.2 168.04 62.06 168.04 60.49V59.9C168.04 58.33 167.7 57.17 167.01 56.4C166.32 55.63 165.33 55.25 164.05 55.25C162.72 55.25 161.73 55.64 161.06 56.41C160.39 57.18 160.06 58.34 160.06 59.9V60.51C160.06 62 160.39 63.12 161.05 63.87C161.71 64.62 162.71 64.99 164.03 64.99C165.32 65 166.31 64.64 167 63.92Z" fill="white"/>
<path d="M172.08 67.35V64.51H175.51V57.62H173.14V55.33C174.11 55.26 174.81 55.04 175.24 54.65C175.67 54.26 175.94 53.68 176.06 52.9H178.49V64.52H181.75V67.36H172.08V67.35Z" fill="white"/>
<path d="M196.4 64.17C196.27 64.59 196.08 64.98 195.82 65.35C195.31 66.08 194.56 66.65 193.58 67.07C192.6 67.49 191.41 67.7 190 67.7C187.61 67.7 185.81 67.11 184.61 65.93C183.41 64.75 182.81 62.98 182.81 60.63V59.92C182.81 57.49 183.46 55.66 184.76 54.44C186.06 53.22 187.86 52.61 190.17 52.61C191.94 52.61 193.38 52.99 194.49 53.75C195.6 54.51 196.26 55.61 196.48 57.05H193.3C193.15 56.47 192.84 56.01 192.36 55.68C191.88 55.35 191.13 55.18 190.12 55.18C188.65 55.18 187.56 55.58 186.87 56.37C186.17 57.16 185.83 58.34 185.83 59.91V60.48C186.29 59.85 186.96 59.3 187.85 58.86C188.74 58.41 189.8 58.19 191.04 58.19C192.78 58.19 194.15 58.59 195.14 59.4C196.13 60.21 196.62 61.36 196.62 62.86C196.59 63.3 196.53 63.75 196.4 64.17ZM192.65 64.41C193.22 64 193.51 63.45 193.51 62.75C193.51 61.97 193.22 61.41 192.64 61.09C192.06 60.77 191.23 60.6 190.15 60.6C189.18 60.6 188.33 60.8 187.61 61.19C186.89 61.58 186.37 62.08 186.06 62.69C186.3 63.51 186.74 64.11 187.38 64.47C188.02 64.83 188.89 65.02 190 65.02C191.19 65.02 192.08 64.82 192.65 64.41Z" fill="white"/>
</svg>
