<svg width="339" height="324" viewBox="0 0 339 324" fill="none" xmlns="http://www.w3.org/2000/svg">
<path d="M101.33 307.26C60.7101 300.39 37.23 294.28 0 275.61L34.05 263.79L22.78 230.2C55.45 246.6 74.1 251.13 109.75 257.17L101.33 307.26Z" fill="#FCD3C2"/>
<path d="M237.39 307.26C278.01 300.39 301.5 294.28 338.73 275.61L304.67 263.79L315.94 230.2C283.26 246.6 264.62 251.13 228.96 257.17L237.39 307.26Z" fill="#FCD3C2"/>
<path d="M107.93 267.98L109.76 257.16L61.7202 257C61.0902 262.26 75.8902 261.38 85.7702 263.49C91.5502 264.74 107.93 267.98 107.93 267.98Z" fill="white"/>
<path d="M230.78 267.98L228.95 257.16C228.95 257.16 277.14 255.93 277.08 257C276.79 262.83 262.81 261.38 252.96 263.49C247.16 264.74 230.78 267.98 230.78 267.98Z" fill="white"/>
<path d="M292.03 305.56C212.12 330.15 126.69 330.15 46.79 305.56C51.76 289.38 56.74 273.19 61.71 257C131.88 278.59 206.92 278.59 277.08 257C282.07 273.18 287.06 289.38 292.03 305.56Z" fill="#FCD3C2"/>
<path d="M86 300.77L82.21 299.75L81 301.39L79.23 300.91L84.9399 293.59L86.7 294.06L88.02 303.28L86.27 302.81L86 300.77ZM85.35 295.56L83.15 298.5L85.8 299.22L85.35 295.56Z" fill="#F37972"/>
<path d="M96.75 302.87C96.58 303.16 96.3799 303.42 96.1599 303.65C95.7199 304.1 95.17 304.4 94.52 304.54C93.87 304.68 93.0899 304.65 92.1799 304.44C90.8999 304.15 89.9799 303.58 89.3999 302.73C88.8299 301.89 88.7 300.78 89.02 299.41L89.1299 298.93C89.2299 298.49 89.37 298.09 89.54 297.73C89.71 297.38 89.9199 297.06 90.1699 296.79C90.6599 296.25 91.25 295.9 91.96 295.72C92.67 295.54 93.4501 295.55 94.3001 295.75C95.4301 296.01 96.2801 296.5 96.8601 297.21C97.4401 297.92 97.6801 298.84 97.5801 299.98L95.77 299.56C95.82 298.99 95.6999 298.51 95.4099 298.12C95.1199 297.73 94.63 297.45 93.94 297.29C93.15 297.11 92.49 297.19 91.96 297.53C91.43 297.87 91.0601 298.5 90.8501 299.41L90.77 299.76C90.58 300.6 90.64 301.29 90.96 301.81C91.28 302.34 91.8401 302.69 92.6201 302.87C93.3601 303.04 93.9401 303 94.3701 302.75C94.8001 302.5 95.1201 302.08 95.3401 301.49L97.1699 301.91C97.0799 302.27 96.92 302.58 96.75 302.87Z" fill="#F37972"/>
<path d="M104.04 303.2L99.9299 302.4L99.27 305.78L97.55 305.44L99.1899 297.04L100.91 297.38L100.25 300.76L104.36 301.56L105.02 298.18L106.72 298.51L105.08 306.91L103.38 306.58L104.04 303.2Z" fill="#F37972"/>
<path d="M106.8 307.19L108.26 298.76L110 299.06L108.54 307.49L106.8 307.19Z" fill="#F37972"/>
<path d="M117.2 308.87L110.26 307.8L111.56 299.34L118.27 300.37L118.04 301.84L113 301.06L112.69 303.05L116.96 303.71L116.73 305.18L112.46 304.52L112.15 306.51L117.42 307.32L117.2 308.87Z" fill="#F37972"/>
<path d="M120.92 309.36L118.69 300.45L120.56 300.69L122.13 307.24L125.37 301.3L127.23 301.54L122.69 309.58L120.92 309.36Z" fill="#F37972"/>
<path d="M133.98 310.84L127 310.11L127.88 301.6L134.64 302.3L134.49 303.78L129.42 303.25L129.21 305.25L133.51 305.7L133.36 307.18L129.06 306.73L128.85 308.73L134.15 309.28L133.98 310.84Z" fill="#F37972"/>
<path d="M137.11 308.13L136.87 311.08L135.14 310.94L135.83 302.41L139.62 302.72C140.91 302.82 141.82 303.12 142.36 303.62C142.89 304.12 143.13 304.79 143.06 305.63C143.01 306.23 142.84 306.69 142.54 307.01C142.24 307.33 141.82 307.55 141.27 307.67C141.76 307.85 142.11 308.12 142.32 308.48C142.53 308.84 142.61 309.36 142.56 310.02L142.48 311.02C142.47 311.12 142.48 311.21 142.5 311.31C142.52 311.4 142.57 311.48 142.64 311.53L140.8 311.38C140.73 311.33 140.69 311.26 140.67 311.16C140.65 311.06 140.64 310.96 140.65 310.85L140.73 309.89C140.78 309.33 140.68 308.93 140.43 308.7C140.18 308.46 139.73 308.32 139.07 308.26L137.11 308.13ZM137.44 304.04L137.23 306.64L139.22 306.8C139.81 306.85 140.29 306.79 140.65 306.63C141.01 306.47 141.21 306.15 141.25 305.68L141.26 305.61C141.3 305.16 141.17 304.83 140.89 304.62C140.61 304.4 140.14 304.27 139.48 304.22L137.44 304.04Z" fill="#F37972"/>
<path d="M146.31 311.88C145.92 311.8 145.58 311.69 145.3 311.55C144.72 311.28 144.29 310.89 144.02 310.41C143.75 309.92 143.6 309.32 143.57 308.62L145.45 308.73C145.48 309.32 145.68 309.76 146.06 310.05C146.44 310.33 147 310.5 147.74 310.54C148.4 310.58 148.89 310.5 149.21 310.3C149.53 310.1 149.69 309.83 149.71 309.49C149.72 309.35 149.7 309.22 149.66 309.1C149.62 308.99 149.55 308.89 149.46 308.81C149.27 308.65 148.98 308.53 148.6 308.44C148.22 308.35 147.74 308.25 147.17 308.15C146.86 308.09 146.57 308.03 146.3 307.95C146.03 307.88 145.77 307.8 145.54 307.7C145.06 307.51 144.69 307.24 144.43 306.89C144.17 306.54 144.06 306.06 144.09 305.45C144.1 305.21 144.15 304.99 144.23 304.77C144.31 304.56 144.41 304.36 144.55 304.18C144.83 303.8 145.23 303.52 145.77 303.33C146.31 303.14 146.96 303.06 147.75 303.11C149.01 303.18 149.95 303.48 150.57 303.99C151.19 304.5 151.51 305.24 151.55 306.19L149.72 306.08C149.68 305.57 149.49 305.19 149.15 304.97C148.81 304.75 148.31 304.61 147.63 304.57C147 304.53 146.55 304.61 146.29 304.79C146.03 304.98 145.89 305.22 145.87 305.52C145.85 305.9 146.02 306.16 146.39 306.32C146.76 306.48 147.35 306.63 148.16 306.77C148.5 306.83 148.82 306.9 149.12 306.98C149.42 307.06 149.7 307.14 149.96 307.24C150.47 307.44 150.86 307.71 151.13 308.07C151.4 308.42 151.51 308.91 151.48 309.52C151.46 309.78 151.42 310.03 151.34 310.27C151.26 310.51 151.15 310.72 151 310.92C150.7 311.32 150.28 311.62 149.71 311.83C149.15 312.03 148.45 312.11 147.62 312.06C147.13 312.02 146.7 311.97 146.31 311.88Z" fill="#F37972"/>
<path d="M160.66 309.49L155.84 309.34L155.89 307.59L160.71 307.74L160.66 309.49Z" fill="#F37972"/>
<path d="M169.45 305.48L169.41 312.51L167.63 312.5L167.67 305.47L165.03 305.45L165.04 303.93L172.22 303.97L172.21 305.49L169.45 305.48Z" fill="#F37972"/>
<path d="M180.4 312.44L173.38 312.53L173.27 303.97L180.06 303.89L180.08 305.38L174.98 305.44L175 307.46L179.32 307.41L179.34 308.9L175.02 308.95L175.04 310.97L180.37 310.9L180.4 312.44Z" fill="#F37972"/>
<path d="M181.6 312.41L181.35 303.86L183.13 303.81L183.33 310.72L188.07 310.58L188.12 312.22L181.6 312.41Z" fill="#F37972"/>
<path d="M189.78 311.33C189.1 310.68 188.73 309.6 188.66 308.08L188.45 303.65L190.27 303.56L190.48 307.94C190.53 308.91 190.73 309.59 191.08 309.98C191.43 310.38 191.96 310.56 192.66 310.52C193.36 310.49 193.85 310.26 194.15 309.84C194.45 309.42 194.57 308.72 194.53 307.74L194.32 303.36L196.15 303.27L196.36 307.7C196.43 309.22 196.15 310.33 195.51 311.04C194.87 311.75 193.94 312.14 192.71 312.19C191.44 312.27 190.46 311.98 189.78 311.33Z" fill="#F37972"/>
<path d="M204.56 309.12C204.49 309.83 204.22 310.42 203.75 310.89C203.28 311.36 202.58 311.63 201.67 311.69C200.49 311.77 199.53 311.5 198.8 310.89C198.07 310.27 197.65 309.25 197.55 307.82L197.51 307.31C197.48 306.85 197.49 306.42 197.55 306.02C197.61 305.62 197.72 305.26 197.88 304.94C198.19 304.28 198.66 303.76 199.28 303.39C199.9 303.02 200.64 302.81 201.5 302.75C202.69 302.67 203.65 302.87 204.39 303.35C205.13 303.83 205.59 304.59 205.76 305.62L203.86 305.75C203.77 305.29 203.55 304.92 203.21 304.65C202.86 304.38 202.33 304.27 201.62 304.32C200.8 304.38 200.19 304.64 199.79 305.11C199.39 305.58 199.23 306.29 199.29 307.23L199.32 307.66C199.37 308.56 199.62 309.21 200.06 309.62C200.5 310.02 201.13 310.2 201.95 310.14C202.73 310.09 203.3 309.88 203.66 309.53C204.02 309.18 204.2 308.75 204.21 308.25L201.61 308.43L201.51 306.96L205.88 306.66L206.19 311.19L204.81 311.29L204.56 309.12Z" fill="#F37972"/>
<path d="M208.34 310.17C207.63 309.55 207.21 308.49 207.07 306.97L206.66 302.55L208.48 302.38L208.89 306.74C208.98 307.7 209.21 308.38 209.58 308.75C209.95 309.13 210.49 309.29 211.18 309.22C211.87 309.15 212.36 308.91 212.64 308.47C212.92 308.04 213.01 307.33 212.92 306.35L212.51 301.99L214.34 301.82L214.75 306.24C214.89 307.75 214.66 308.88 214.06 309.62C213.46 310.36 212.54 310.79 211.32 310.9C210.04 311.04 209.05 310.79 208.34 310.17Z" fill="#F37972"/>
<path d="M222.33 309.63C221.93 309.62 221.58 309.58 221.27 309.49C220.64 309.33 220.15 309.03 219.8 308.6C219.45 308.17 219.19 307.61 219.03 306.92L220.9 306.68C221.04 307.26 221.32 307.65 221.74 307.86C222.16 308.07 222.74 308.12 223.48 308.03C224.14 307.95 224.6 307.78 224.88 307.52C225.15 307.27 225.27 306.97 225.22 306.63C225.2 306.49 225.16 306.36 225.1 306.26C225.04 306.15 224.96 306.07 224.85 306.01C224.63 305.89 224.33 305.82 223.93 305.8C223.54 305.78 223.05 305.77 222.47 305.78C222.15 305.78 221.86 305.77 221.58 305.75C221.3 305.73 221.03 305.69 220.79 305.65C220.29 305.55 219.87 305.36 219.55 305.06C219.23 304.76 219.03 304.31 218.95 303.71C218.92 303.47 218.92 303.24 218.96 303.02C219 302.8 219.07 302.58 219.17 302.38C219.37 301.96 219.72 301.6 220.21 301.32C220.7 301.04 221.33 300.84 222.12 300.74C223.37 300.58 224.35 300.7 225.05 301.09C225.75 301.48 226.21 302.14 226.42 303.07L224.6 303.3C224.46 302.8 224.21 302.47 223.84 302.31C223.47 302.15 222.95 302.11 222.27 302.2C221.64 302.28 221.22 302.44 220.99 302.67C220.77 302.9 220.67 303.17 220.71 303.47C220.76 303.84 220.98 304.08 221.37 304.17C221.76 304.26 222.37 304.3 223.19 304.28C223.54 304.28 223.86 304.28 224.17 304.31C224.48 304.33 224.77 304.36 225.04 304.41C225.58 304.51 226.01 304.71 226.34 305.01C226.67 305.31 226.87 305.76 226.95 306.37C226.98 306.63 226.98 306.89 226.95 307.13C226.92 307.38 226.85 307.61 226.74 307.84C226.52 308.29 226.16 308.66 225.64 308.97C225.12 309.28 224.46 309.48 223.63 309.59C223.16 309.61 222.72 309.64 222.33 309.63Z" fill="#F37972"/>
<path d="M230.99 301.19L232.06 308.14L230.3 308.41L229.23 301.46L226.62 301.86L226.39 300.35L233.48 299.26L233.71 300.77L230.99 301.19Z" fill="#F37972"/>
<path d="M239.53 304.96L235.67 305.64L235.27 307.64L233.46 307.96L235.51 298.91L237.31 298.59L242.42 306.37L240.64 306.69L239.53 304.96ZM236.72 300.52L235.98 304.11L238.69 303.63L236.72 300.52Z" fill="#F37972"/>
<path d="M244.06 298.83L245.46 305.72L243.72 306.07L242.32 299.18L239.73 299.71L239.43 298.22L246.46 296.79L246.76 298.28L244.06 298.83Z" fill="#F37972"/>
<path d="M256.16 303.28L249.33 304.91L247.34 296.59L253.95 295.01L254.3 296.46L249.34 297.65L249.81 299.61L254.01 298.61L254.36 300.06L250.16 301.06L250.63 303.02L255.81 301.78L256.16 303.28Z" fill="#F37972"/>
<path d="M259.55 302.46C259.16 302.51 258.8 302.52 258.48 302.48C257.84 302.41 257.31 302.19 256.9 301.82C256.49 301.45 256.15 300.93 255.89 300.27L257.7 299.76C257.92 300.31 258.26 300.66 258.71 300.8C259.16 300.94 259.74 300.91 260.46 300.71C261.1 300.53 261.54 300.29 261.77 300C262 299.71 262.07 299.4 261.98 299.07C261.94 298.93 261.88 298.81 261.81 298.72C261.73 298.63 261.64 298.56 261.53 298.51C261.3 298.43 260.99 298.4 260.59 298.44C260.2 298.48 259.71 298.54 259.14 298.64C258.83 298.69 258.53 298.72 258.25 298.74C257.97 298.76 257.7 298.77 257.45 298.75C256.94 298.73 256.5 298.59 256.14 298.35C255.78 298.1 255.52 297.69 255.35 297.1C255.28 296.87 255.25 296.64 255.26 296.42C255.26 296.19 255.3 295.97 255.37 295.75C255.51 295.3 255.8 294.9 256.24 294.54C256.68 294.18 257.28 293.9 258.04 293.68C259.26 293.34 260.24 293.31 260.99 293.6C261.74 293.89 262.29 294.47 262.64 295.35L260.87 295.85C260.66 295.38 260.36 295.09 259.97 294.98C259.58 294.87 259.05 294.91 258.4 295.1C257.79 295.27 257.39 295.49 257.21 295.75C257.02 296.01 256.97 296.29 257.05 296.58C257.15 296.94 257.4 297.14 257.8 297.17C258.2 297.2 258.8 297.15 259.61 297.01C259.95 296.96 260.28 296.92 260.59 296.89C260.9 296.87 261.19 296.86 261.47 296.86C262.02 296.88 262.47 297.01 262.84 297.26C263.21 297.51 263.48 297.93 263.64 298.52C263.71 298.77 263.75 299.02 263.75 299.27C263.75 299.52 263.72 299.76 263.64 300C263.49 300.47 263.18 300.9 262.72 301.28C262.26 301.66 261.62 301.96 260.82 302.18C260.37 302.32 259.94 302.41 259.55 302.46Z" fill="#F37972"/>
<path d="M114.02 285.26L112.92 292.21L111.17 291.93L112.27 284.98L109.66 284.57L109.9 283.06L116.99 284.18L116.75 285.69L114.02 285.26Z" fill="#F37972"/>
<path d="M116.84 292.8L118.03 284.33L119.78 284.58L118.59 293.05L116.84 292.8Z" fill="#F37972"/>
<path d="M122.68 287.59L121.97 293.5L120.3 293.3L121.32 284.8L122.94 284.99L125.33 288.94L128.66 285.69L130.22 285.88L129.21 294.36L127.54 294.16L128.25 288.21L125.12 291.21L124.93 291.19L122.68 287.59Z" fill="#F37972"/>
<path d="M137.9 295.18L130.91 294.53L131.7 286.01L138.46 286.64L138.32 288.12L133.24 287.65L133.05 289.66L137.35 290.06L137.21 291.54L132.91 291.14L132.72 293.15L138.03 293.64L137.9 295.18Z" fill="#F37972"/>
<path d="M141.32 295.55C140.93 295.46 140.6 295.35 140.31 295.21C139.73 294.93 139.31 294.54 139.04 294.05C138.77 293.56 138.64 292.96 138.61 292.25L140.49 292.38C140.51 292.97 140.71 293.42 141.08 293.7C141.45 293.99 142.01 294.16 142.75 294.21C143.41 294.26 143.9 294.18 144.22 293.99C144.54 293.8 144.71 293.53 144.73 293.18C144.74 293.04 144.73 292.91 144.69 292.79C144.65 292.67 144.59 292.58 144.49 292.5C144.3 292.34 144.01 292.21 143.63 292.11C143.25 292.01 142.77 291.91 142.2 291.8C141.89 291.74 141.6 291.67 141.33 291.59C141.06 291.51 140.81 291.43 140.57 291.33C140.09 291.14 139.73 290.86 139.47 290.51C139.21 290.15 139.11 289.67 139.15 289.07C139.17 288.83 139.21 288.61 139.29 288.39C139.37 288.17 139.48 287.98 139.62 287.8C139.9 287.43 140.31 287.15 140.85 286.96C141.38 286.77 142.05 286.71 142.84 286.76C144.1 286.85 145.04 287.16 145.64 287.68C146.24 288.2 146.57 288.94 146.6 289.89L144.77 289.76C144.73 289.24 144.55 288.87 144.22 288.64C143.89 288.41 143.38 288.27 142.7 288.22C142.07 288.18 141.62 288.24 141.36 288.43C141.1 288.62 140.95 288.85 140.93 289.16C140.9 289.54 141.07 289.81 141.44 289.97C141.81 290.14 142.39 290.29 143.2 290.44C143.54 290.5 143.86 290.58 144.16 290.66C144.46 290.74 144.74 290.83 144.99 290.93C145.5 291.13 145.88 291.41 146.15 291.77C146.42 292.13 146.52 292.61 146.48 293.23C146.46 293.49 146.41 293.74 146.33 293.98C146.25 294.22 146.13 294.43 145.98 294.63C145.68 295.03 145.25 295.32 144.68 295.52C144.12 295.72 143.42 295.79 142.59 295.73C142.14 295.7 141.71 295.64 141.32 295.55Z" fill="#F37972"/>
<path d="M157 292.83L152.82 292.66L152.68 296.1L150.93 296.03L151.27 287.48L153.02 287.55L152.88 290.99L157.06 291.16L157.2 287.72L158.93 287.79L158.59 296.34L156.86 296.27L157 292.83Z" fill="#F37972"/>
<path d="M167.34 296.52L160.32 296.39L160.47 287.84L167.26 287.96L167.23 289.45L162.13 289.36L162.09 291.38L166.41 291.46L166.38 292.95L162.06 292.87L162.02 294.89L167.35 294.99L167.34 296.52Z" fill="#F37972"/>
<path d="M174.44 294.61L170.52 294.62L169.78 296.52L167.94 296.53L171.51 287.96H173.33L177.03 296.5H175.22L174.44 294.61ZM172.44 289.76L171.09 293.17L173.84 293.16L172.44 289.76Z" fill="#F37972"/>
<path d="M177.93 296.47L177.75 287.92L179.53 287.88L179.68 294.79L184.42 294.69L184.46 296.33L177.93 296.47Z" fill="#F37972"/>
<path d="M187.84 289.18L188.09 296.21L186.31 296.27L186.06 289.24L183.42 289.33L183.37 287.81L190.54 287.56L190.59 289.08L187.84 289.18Z" fill="#F37972"/>
<path d="M197.79 292.29L193.61 292.52L193.8 295.96L192.05 296.06L191.58 287.52L193.33 287.42L193.52 290.86L197.7 290.63L197.51 287.19L199.24 287.1L199.71 295.64L197.98 295.73L197.79 292.29Z" fill="#F37972"/>
<path d="M209.17 292.57C209.09 292.9 208.98 293.2 208.84 293.49C208.55 294.05 208.12 294.5 207.54 294.83C206.96 295.16 206.21 295.37 205.28 295.44C203.97 295.54 202.92 295.28 202.12 294.64C201.32 294.01 200.87 292.99 200.76 291.59L200.72 291.1C200.68 290.65 200.7 290.22 200.75 289.83C200.81 289.44 200.92 289.08 201.08 288.75C201.38 288.09 201.84 287.57 202.47 287.19C203.09 286.81 203.84 286.58 204.71 286.52C205.87 286.43 206.83 286.64 207.59 287.14C208.35 287.64 208.86 288.45 209.11 289.56L207.26 289.7C207.14 289.14 206.88 288.72 206.49 288.43C206.1 288.14 205.55 288.03 204.84 288.08C204.03 288.14 203.43 288.42 203.03 288.9C202.63 289.38 202.46 290.09 202.53 291.03L202.56 291.39C202.63 292.25 202.89 292.89 203.36 293.29C203.83 293.69 204.46 293.87 205.27 293.8C206.03 293.74 206.57 293.53 206.91 293.16C207.24 292.79 207.42 292.29 207.46 291.67L209.34 291.52C209.29 291.89 209.24 292.24 209.17 292.57Z" fill="#F37972"/>
<path d="M215.94 292.35L212.04 292.75L211.49 294.71L209.66 294.9L212.38 286.02L214.19 285.84L218.71 293.98L216.91 294.16L215.94 292.35ZM213.47 287.71L212.47 291.24L215.2 290.96L213.47 287.71Z" fill="#F37972"/>
<path d="M220.89 290.71L221.26 293.65L219.53 293.87L218.45 285.38L222.22 284.9C223.51 284.74 224.46 284.84 225.09 285.22C225.71 285.6 226.08 286.21 226.19 287.05C226.27 287.64 226.19 288.13 225.97 288.51C225.74 288.89 225.38 289.19 224.86 289.42C225.38 289.49 225.78 289.68 226.06 290C226.34 290.32 226.52 290.8 226.61 291.46L226.74 292.46C226.75 292.56 226.78 292.65 226.82 292.73C226.86 292.82 226.92 292.88 227.01 292.92L225.18 293.15C225.1 293.12 225.04 293.06 225 292.96C224.96 292.86 224.93 292.76 224.92 292.66L224.8 291.71C224.73 291.16 224.55 290.79 224.26 290.61C223.97 290.43 223.5 290.38 222.84 290.46L220.89 290.71ZM220.37 286.64L220.7 289.22L222.68 288.97C223.27 288.89 223.72 288.74 224.04 288.51C224.36 288.28 224.49 287.92 224.43 287.46L224.42 287.39C224.36 286.95 224.17 286.65 223.85 286.49C223.53 286.34 223.04 286.3 222.39 286.39L220.37 286.64Z" fill="#F37972"/>
<path d="M235.25 291.65L228.31 292.72L227 284.26L233.71 283.22L233.94 284.69L228.9 285.47L229.21 287.46L233.48 286.8L233.71 288.27L229.44 288.93L229.75 290.92L235.01 290.11L235.25 291.65Z" fill="#F37972"/>
<path d="M242.24 28.03C248.89 21.7 246.62 14.13 241.87 8.37C236.74 3.28 229.95 0 229.95 0C229.41 0.67 221.18 14.06 242.24 28.03Z" fill="#FCD3C2"/>
<path d="M258.41 19.36C258.4 19.36 245.81 31.03 263.31 49.43C279.84 40.82 259.26 18.3 258.41 19.36Z" fill="#FCD3C2"/>
<path d="M286.88 58.65C284.94 51.67 280.69 45.46 280.69 45.46C279.96 45.75 266.08 53.36 277.47 75.92C286.38 73.72 288.14 65.98 286.88 58.65Z" fill="#FCD3C2"/>
<path d="M285.11 105C303.7 105.64 297.2 75.89 295.76 76.42C295.76 76.3 279.13 80.28 285.11 105Z" fill="#FCD3C2"/>
<path d="M302.19 110.15C301.52 110 285.43 109.73 284.19 134.98C292.81 137.42 298.93 131.69 300.82 124.66C302.73 117.68 302.19 110.15 302.19 110.15Z" fill="#FCD3C2"/>
<path d="M290.44 144.93C285.91 147.07 280.61 151.71 276.11 163.84C284.1 168.5 290.44 164.14 294.79 158.08C299.34 152.06 299.38 144.32 299.68 144.4C299.69 144.4 295.25 143.01 290.44 144.93Z" fill="#FCD3C2"/>
<path d="M261.22 189.95C274.08 203.53 289.82 177.43 289 177.06C289 177.06 274.01 167.98 261.22 189.95Z" fill="#FCD3C2"/>
<path d="M239.53 210.65C243.91 218.44 252.44 218.81 258.54 214.91C264.81 211.27 269.68 205.54 269.68 205.54C269.37 205.03 257.94 193.35 239.53 210.65Z" fill="#FCD3C2"/>
<path d="M236.92 222.18C232.24 220.46 225.11 219.97 213.43 225.52C215.91 234.48 223.44 235.72 230.84 234.48C238.3 233.5 243.77 227.94 243.93 228.28C243.93 228.27 241.76 224.16 236.92 222.18Z" fill="#FCD3C2"/>
<path d="M184.57 233.63C184.62 242.98 191.45 245.78 198.89 246.08C206.23 246.25 213.52 244.39 213.36 244.03C213.36 244.03 209.05 226.73 184.57 233.63Z" fill="#FCD3C2"/>
<path d="M211.23 221.37C237.61 211.83 268.44 184.22 278.06 147.04C287.73 110.11 276.23 70.36 257.26 49.18C248.52 37.92 238.76 31.13 232.31 26.04C230 24.8 228.17 23.75 226.52 22.87C222.15 14.76 214.69 10.68 208.35 10.68C201.29 10.19 196.43 12.14 196.43 12.14C196.43 12.14 199.73 16.84 204.96 20.35C210 23.18 215.95 26.2 225.02 25.71C226.59 26.52 228.36 27.52 230.52 28.7C232.88 30.55 235.74 32.74 238.77 35.25C221.07 21.6 214.04 39.5 214.34 38.84C214.34 38.84 218.49 41.54 223.76 42.16C228.63 43.48 234.92 43.48 239.88 36.11C244.66 40.13 249.87 44.87 254.81 51.27C255.37 51.88 255.85 52.7 256.44 53.36C242.96 38.55 233.09 52.1 233.09 52.1C233.77 51.54 244.82 67.2 258.49 56.02C262.96 61.94 266.88 68.95 269.99 76.7C261.29 59 247.41 70.07 247.94 69.67C247.94 69.67 250.21 74.07 254.5 77.29C258.04 80.68 263.43 83.85 271.37 79.98C273.4 85.52 274.91 91.38 276.09 97.45C270.34 84.8 258.1 90.36 258.1 90.36C259.19 90.14 260.78 108.64 277.58 106.41C278.27 112.56 278.34 118.88 277.98 125.26C276.37 110.6 261.86 112.96 262.35 112.96C262.35 112.96 262.04 117.89 264.06 122.78C266.02 127.59 268.49 132.79 277.38 133.53C276.83 137.77 276.04 141.98 274.95 146.21C274.42 148.15 273.64 149.95 273.04 151.83C274.02 145.81 271.84 141.77 268.87 139.49C265.08 136.33 260.59 135.9 260.59 135.9C261.65 136.36 253.97 153.87 270.25 159.77C267.67 165.84 264.44 171.47 260.86 176.77C267.11 162.58 253.51 157.8 253.57 157.8C253.97 158.17 242.37 172.97 256.46 183.15C253.19 187.41 249.59 191.26 245.94 194.85C251.21 184.73 241.37 177.66 241.76 177.96C241.76 177.96 238.03 181.21 236.02 186.16C234.28 190.95 232.47 196.05 237.48 202.45C232.11 206.75 226.5 210.52 220.96 213.48C226.23 209.84 227.58 205.32 227.02 201.5C226.59 196.55 223.68 193.14 223.68 193.14C224.17 194.15 206.39 201.23 213.72 216.82C212.53 217.28 211.28 217.99 210.08 218.46C204.85 221.38 199.32 221.89 194.46 223.09C208.78 217.19 202.55 204.57 202.55 204.62C202.55 204.62 183.87 207.54 186.79 224.66C183.57 225.21 180.52 225.47 177.86 225.42C169.85 225.64 165.29 225.73 165.29 225.73V225.52C164.12 225.47 163.02 225.47 161.61 225.42C158.96 225.47 155.91 225.21 152.67 224.66C155.58 207.53 136.92 204.62 136.92 204.62C136.92 204.56 130.68 217.19 145.03 223.09C140.19 221.89 134.65 221.39 129.4 218.46C128.17 218 126.94 217.29 125.76 216.82C133.09 201.23 115.33 194.15 115.81 193.14C115.81 193.14 112.92 196.55 112.42 201.5C111.92 205.32 113.26 209.85 118.52 213.48C112.99 210.52 107.36 206.76 101.97 202.45C107.02 196.05 105.21 190.95 103.47 186.16C101.46 181.21 97.7301 177.96 97.7301 177.96C98.1101 177.66 88.2802 184.73 93.5502 194.85C89.8502 191.26 86.2902 187.41 83.0202 183.15C97.1102 172.97 85.4902 158.17 85.8902 157.8C85.9302 157.8 72.3702 162.58 78.6402 176.77C75.0702 171.47 71.8001 165.84 69.1901 159.77C85.4801 153.88 77.8302 136.36 78.8902 135.9C78.8902 135.9 74.4201 136.33 70.6001 139.49C67.6501 141.77 65.4601 145.81 66.4701 151.83C65.8501 149.95 65.0302 148.15 64.5302 146.21C63.4102 141.99 62.6601 137.77 62.0801 133.53C70.9901 132.79 73.4502 127.6 75.4302 122.78C77.4402 117.89 77.1001 112.96 77.1001 112.96C77.6701 112.96 63.1102 110.6 61.5202 125.26C61.1402 118.87 61.2202 112.55 61.9202 106.41C78.7002 108.65 80.2702 90.14 81.3702 90.36C81.3702 90.36 69.1202 84.8 63.3702 97.45C64.5402 91.39 66.1002 85.52 68.1202 79.98C76.0402 83.85 81.4302 80.68 85.0202 77.29C89.2602 74.06 91.5202 69.67 91.5202 69.67C92.1002 70.06 78.2101 58.99 69.4801 76.7C72.6301 68.95 76.5302 61.94 81.0202 56.02C94.6602 67.2 105.71 51.54 106.41 52.1C106.41 52.1 96.5502 38.55 83.0402 53.36C83.6302 52.7 84.1202 51.89 84.6802 51.27C89.6202 44.87 94.8203 40.13 99.6003 36.11C104.59 43.48 110.87 43.48 115.72 42.16C120.98 41.54 125.11 38.84 125.11 38.84C125.45 39.51 118.4 21.6 100.7 35.25C103.76 32.75 106.61 30.55 108.95 28.7C111.11 27.51 112.93 26.52 114.46 25.71C123.54 26.2 129.46 23.18 134.5 20.35C139.78 16.84 143.07 12.14 143.07 12.14C143.07 12.14 138.17 10.19 131.16 10.68C124.79 10.68 117.31 14.77 112.97 22.87C111.29 23.75 109.46 24.79 107.17 26.04C100.69 31.13 90.9501 37.92 82.2001 49.18C63.2401 70.35 51.7302 110.11 61.4302 147.04C71.0102 184.22 101.85 211.83 128.23 221.37C134.5 224.9 141.26 224.97 146.74 226.68C152.28 228.34 157.28 228.74 161.41 228.65C162.34 228.67 163.16 228.67 163.95 228.67C164.29 228.83 164.68 228.94 165.13 228.94C165.13 228.94 169.84 228.81 178.07 228.65C182.23 228.74 187.23 228.34 192.75 226.68C198.21 224.97 205.01 224.91 211.23 221.37ZM220.18 213.95C219.74 214.14 219.29 214.37 218.8 214.59C219.23 214.36 219.79 214.14 220.18 213.95Z" fill="#FCD3C2"/>
<path d="M109.48 0C109.48 0 102.66 3.28 97.56 8.37C92.8 14.13 90.5299 21.69 97.1699 28.03C118.22 14.06 109.99 0.67 109.48 0Z" fill="#FCD3C2"/>
<path d="M76.1099 49.44C93.6299 31.03 81.02 19.37 81 19.37C80.16 18.3 59.5499 40.82 76.1099 49.44Z" fill="#FCD3C2"/>
<path d="M61.9398 75.92C73.3198 53.36 59.4699 45.76 58.7599 45.46C58.7599 45.46 54.49 51.66 52.55 58.65C51.26 65.98 53.0398 73.72 61.9398 75.92Z" fill="#FCD3C2"/>
<path d="M54.32 105C60.29 80.28 43.6601 76.3 43.6601 76.42C42.2201 75.89 35.73 105.64 54.32 105Z" fill="#FCD3C2"/>
<path d="M55.26 134.98C54.02 109.73 37.8599 110.01 37.2199 110.15C37.2199 110.15 36.6699 117.67 38.5799 124.65C40.4999 131.69 46.58 137.42 55.26 134.98Z" fill="#FCD3C2"/>
<path d="M63.3101 163.84C58.8201 151.71 53.52 147.07 49 144.93C44.16 143.02 39.76 144.4 39.76 144.4C40.06 144.32 40.06 152.05 44.63 158.08C49 164.13 55.3201 168.5 63.3101 163.84Z" fill="#FCD3C2"/>
<path d="M50.44 177.06C49.62 177.42 65.35 203.52 78.22 189.95C65.41 167.98 50.44 177.06 50.44 177.06Z" fill="#FCD3C2"/>
<path d="M99.8999 210.65C81.4799 193.35 70.02 205.02 69.72 205.55C69.72 205.55 74.6 211.28 80.86 214.92C86.94 218.82 95.5199 218.45 99.8999 210.65Z" fill="#FCD3C2"/>
<path d="M102.49 222.18C97.64 224.16 95.49 228.27 95.49 228.27C95.62 227.94 101.11 233.5 108.58 234.47C115.97 235.71 123.55 234.47 125.95 225.51C114.28 219.97 107.14 220.46 102.49 222.18Z" fill="#FCD3C2"/>
<path d="M126.05 244.04C125.89 244.4 133.18 246.26 140.55 246.09C147.95 245.79 154.81 242.99 154.86 233.64C130.37 226.73 126.05 244.04 126.05 244.04Z" fill="#FCD3C2"/>
<path d="M155.32 75.44V87.74H152.21V75.44H147.59V72.77H160.14V75.44H155.32Z" fill="white"/>
<path d="M172.68 81.71H165.35V87.73H162.29V72.77H165.35V78.79H172.68V72.77H175.7V87.74H172.68V81.71Z" fill="white"/>
<path d="M191.05 87.74H178.77V72.77H190.65V75.37H181.73V78.9H189.29V81.5H181.73V85.03H191.05V87.74Z" fill="white"/>
<path d="M106.88 112.93V97.96H109.99V110.05H118.28V112.93H106.88Z" fill="white"/>
<path d="M132.72 112.93H120.44V97.96H132.32V100.56H123.4V104.09H130.96V106.69H123.4V110.22H132.72V112.93Z" fill="white"/>
<path d="M145.74 109.15C145.53 110.38 144.98 111.38 144.1 112.14C143.22 112.9 141.97 113.28 140.36 113.28C138.29 113.28 136.65 112.7 135.45 111.53C134.24 110.36 133.64 108.52 133.64 106.02V105.12C133.64 104.31 133.72 103.56 133.87 102.87C134.02 102.18 134.26 101.57 134.58 101.02C135.21 99.9 136.09 99.06 137.21 98.49C138.33 97.92 139.66 97.64 141.17 97.64C143.25 97.64 144.91 98.11 146.14 99.04C147.37 99.97 148.08 101.35 148.26 103.16H144.92C144.82 102.35 144.48 101.68 143.91 101.17C143.34 100.65 142.43 100.39 141.18 100.39C139.74 100.39 138.64 100.78 137.89 101.56C137.14 102.34 136.77 103.55 136.77 105.2V105.96C136.76 107.54 137.11 108.71 137.82 109.47C138.53 110.23 139.61 110.6 141.05 110.6C142.42 110.6 143.44 110.32 144.1 109.75C144.76 109.18 145.14 108.46 145.22 107.58H140.67V105H148.33V112.94H145.92L145.74 109.15Z" fill="white"/>
<path d="M163.41 112.93H151.13V97.96H163.01V100.56H154.09V104.09H161.65V106.69H154.09V110.22H163.41V112.93Z" fill="white"/>
<path d="M168.47 112.93H165.53V97.96H168.53L176 108.1L176.27 108.65L176.23 108.21V97.96H179.15V112.93H176.27L168.69 102.69L168.42 102.17L168.46 102.48V112.93H168.47Z" fill="white"/>
<path d="M182.22 97.96H188.16C188.93 97.96 189.65 98.02 190.33 98.15C191.01 98.28 191.63 98.46 192.21 98.72C193.36 99.22 194.25 100 194.89 101.05C195.53 102.1 195.85 103.44 195.85 105.08V105.88C195.85 106.69 195.77 107.43 195.62 108.09C195.47 108.76 195.24 109.35 194.93 109.86C194.31 110.9 193.44 111.67 192.32 112.17C191.2 112.67 189.86 112.93 188.32 112.93H182.23V97.96H182.22ZM185.26 100.61V110.27H188.16C189.68 110.27 190.83 109.91 191.6 109.19C192.37 108.47 192.75 107.31 192.75 105.72V105.22C192.75 103.62 192.35 102.46 191.55 101.72C190.75 100.99 189.58 100.62 188.02 100.62H185.26V100.61Z" fill="white"/>
<path d="M205.72 111.5C204.4 110.31 203.74 108.45 203.74 105.92V105.12C203.74 104.32 203.82 103.58 203.98 102.91C204.14 102.23 204.38 101.61 204.68 101.05C205.31 99.94 206.18 99.1 207.3 98.52C208.42 97.94 209.71 97.65 211.18 97.65C211.91 97.65 212.6 97.72 213.25 97.86C213.9 98 214.51 98.22 215.07 98.51C216.19 99.07 217.07 99.91 217.7 101.02C218.33 102.13 218.66 103.5 218.66 105.12V105.92C218.66 106.75 218.58 107.5 218.43 108.19C218.28 108.88 218.04 109.49 217.72 110.04C217.1 111.13 216.23 111.95 215.11 112.49C213.98 113.03 212.67 113.3 211.17 113.3C208.86 113.29 207.04 112.69 205.72 111.5ZM214.38 109.37C215.12 108.62 215.49 107.45 215.49 105.85V105.22C215.49 103.57 215.12 102.35 214.38 101.57C213.64 100.79 212.58 100.39 211.19 100.39C209.79 100.39 208.73 100.79 208 101.6C207.27 102.4 206.91 103.6 206.91 105.2V105.85C206.91 107.39 207.27 108.55 208 109.32C208.73 110.1 209.79 110.49 211.19 110.49C212.58 110.49 213.64 110.12 214.38 109.37Z" fill="white"/>
<path d="M224.12 107.26V112.93H221.12V97.96H232.62V100.67H224.12V104.51H232.24V107.26H224.12Z" fill="white"/>
<path d="M107.23 125.82V138.12H104.12V125.82H99.5V123.15H112.05V125.82H107.23Z" fill="white"/>
<path d="M124.59 132.09H117.26V138.11H114.19V123.14H117.26V129.16H124.59V123.14H127.61V138.11H124.59V132.09Z" fill="white"/>
<path d="M142.96 138.12H130.68V123.15H142.56V125.75H133.64V129.28H141.2V131.88H133.64V135.41H142.96V138.12Z" fill="white"/>
<path d="M155.36 138.12V132.1L149.67 123.16H153.22L157.02 129.42L161.05 123.16H164.6L158.55 132.14V138.12H155.36Z" fill="white"/>
<path d="M178.26 138.12H165.98V123.15H177.86V125.75H168.94V129.28H176.5V131.88H168.94V135.41H178.26V138.12Z" fill="white"/>
<path d="M190.8 134.8H183.93L182.63 138.12H179.42L185.72 123.15H188.91L195.33 138.12H192.16L190.8 134.8ZM187.31 126.3L184.94 132.26H189.75L187.31 126.3Z" fill="white"/>
<path d="M199.91 132.93V138.12H196.87V123.15H203.52C205.79 123.15 207.42 123.55 208.42 124.34C209.42 125.13 209.92 126.27 209.92 127.75C209.92 128.8 209.68 129.63 209.21 130.24C208.73 130.85 208.03 131.29 207.09 131.57C207.97 131.81 208.62 132.23 209.04 132.84C209.46 133.45 209.67 134.33 209.67 135.5V137.26C209.67 137.43 209.7 137.59 209.74 137.75C209.79 137.91 209.88 138.03 210.02 138.12H206.79C206.66 138.05 206.58 137.93 206.53 137.75C206.48 137.57 206.46 137.4 206.46 137.21V135.53C206.46 134.55 206.23 133.87 205.77 133.49C205.31 133.11 204.5 132.92 203.33 132.92H199.91V132.93ZM199.91 125.75V130.31H203.4C204.44 130.31 205.26 130.14 205.86 129.81C206.47 129.47 206.77 128.89 206.77 128.07V127.94C206.77 127.16 206.51 126.6 205.98 126.26C205.45 125.92 204.62 125.76 203.47 125.76H199.91V125.75Z" fill="white"/>
<path d="M218.51 138.12V123.15H221.6V138.12H218.51Z" fill="white"/>
<path d="M227.64 138.12H224.7V123.15H227.7L235.17 133.29L235.44 133.84L235.4 133.4V123.16H238.32V138.13H235.44L227.86 127.89L227.59 127.37L227.63 127.68V138.12H227.64Z" fill="white"/>
<path d="M107.65 158.63V163.31H104.63V148.34H111.08C113.42 148.34 115.12 148.79 116.18 149.69C117.24 150.59 117.78 151.86 117.78 153.5C117.78 155.11 117.24 156.37 116.16 157.28C115.08 158.19 113.46 158.64 111.29 158.62H107.65V158.63ZM107.65 150.95V156.03H111.18C112.38 156.03 113.27 155.82 113.84 155.41C114.41 155 114.69 154.36 114.69 153.49C114.69 152.59 114.4 151.95 113.81 151.55C113.22 151.15 112.32 150.95 111.1 150.95H107.65Z" fill="white"/>
<path d="M132.23 163.31H119.95V148.34H131.83V150.94H122.91V154.47H130.47V157.07H122.91V160.6H132.23V163.31Z" fill="white"/>
<path d="M134.35 148.34H140.29C141.06 148.34 141.78 148.4 142.46 148.53C143.14 148.66 143.76 148.84 144.34 149.1C145.49 149.6 146.38 150.38 147.02 151.43C147.66 152.48 147.98 153.82 147.98 155.46V156.26C147.98 157.07 147.9 157.81 147.75 158.47C147.6 159.14 147.37 159.73 147.06 160.24C146.44 161.28 145.57 162.05 144.45 162.55C143.33 163.05 141.99 163.31 140.45 163.31H134.36V148.34H134.35ZM137.39 150.99V160.65H140.29C141.81 160.65 142.96 160.29 143.73 159.57C144.5 158.85 144.88 157.69 144.88 156.1V155.6C144.88 154 144.48 152.84 143.68 152.1C142.88 151.37 141.71 151 140.15 151H137.39V150.99Z" fill="white"/>
<path d="M150.49 163.31V148.34H153.58V163.31H150.49Z" fill="white"/>
<path d="M166.55 159.99H159.69L158.39 163.31H155.18L161.48 148.34H164.67L171.09 163.31H167.92L166.55 159.99ZM163.06 151.49L160.69 157.45H165.5L163.06 151.49Z" fill="white"/>
<path d="M176.65 151.01V163.31H173.54V151.01H168.92V148.34H181.47V151.01H176.65Z" fill="white"/>
<path d="M186.66 158.13V163.32H183.62V148.35H190.27C192.54 148.35 194.17 148.75 195.17 149.54C196.17 150.33 196.67 151.47 196.67 152.95C196.67 154 196.43 154.83 195.96 155.44C195.48 156.05 194.78 156.49 193.84 156.77C194.72 157.01 195.37 157.43 195.79 158.04C196.21 158.65 196.42 159.53 196.42 160.7V162.46C196.42 162.63 196.45 162.79 196.49 162.95C196.54 163.11 196.63 163.23 196.77 163.32H193.54C193.41 163.25 193.33 163.13 193.28 162.95C193.23 162.77 193.21 162.6 193.21 162.41V160.73C193.21 159.75 192.98 159.07 192.52 158.69C192.06 158.31 191.25 158.12 190.08 158.12H186.66V158.13ZM186.66 150.95V155.51H190.15C191.19 155.51 192.01 155.34 192.61 155.01C193.22 154.67 193.52 154.09 193.52 153.27V153.14C193.52 152.36 193.26 151.8 192.73 151.46C192.2 151.12 191.37 150.96 190.22 150.96H186.66V150.95Z" fill="white"/>
<path d="M199.23 163.31V148.34H202.32V163.31H199.23Z" fill="white"/>
<path d="M219.35 159.2C219.17 159.76 218.94 160.28 218.66 160.75C218.09 161.69 217.27 162.41 216.21 162.91C215.15 163.41 213.81 163.67 212.19 163.67C209.9 163.67 208.09 163.06 206.78 161.85C205.47 160.64 204.82 158.8 204.82 156.34V155.48C204.82 154.68 204.9 153.95 205.05 153.28C205.2 152.61 205.44 151.99 205.76 151.43C206.38 150.32 207.25 149.48 208.39 148.9C209.53 148.32 210.86 148.03 212.39 148.03C214.42 148.03 216.07 148.52 217.33 149.5C218.6 150.48 219.37 151.96 219.65 153.93H216.4C216.26 152.94 215.87 152.16 215.22 151.61C214.58 151.06 213.63 150.78 212.39 150.78C210.98 150.78 209.89 151.18 209.12 151.97C208.35 152.76 207.96 153.97 207.96 155.61V156.24C207.96 157.75 208.34 158.89 209.09 159.66C209.85 160.43 210.93 160.81 212.34 160.81C213.67 160.81 214.65 160.51 215.28 159.92C215.91 159.33 216.3 158.48 216.44 157.39H219.73C219.66 158.03 219.53 158.64 219.35 159.2Z" fill="white"/>
<path d="M226.25 163.51C225.56 163.4 224.96 163.25 224.44 163.04C223.39 162.62 222.61 162 222.09 161.17C221.57 160.34 221.25 159.32 221.12 158.08H224.42C224.53 159.12 224.93 159.86 225.62 160.32C226.31 160.78 227.3 161 228.6 161C229.76 161 230.61 160.81 231.14 160.43C231.67 160.05 231.94 159.56 231.94 158.96C231.94 158.71 231.9 158.48 231.82 158.29C231.74 158.09 231.61 157.93 231.44 157.81C231.09 157.56 230.57 157.37 229.9 157.24C229.22 157.11 228.38 157 227.37 156.88C226.83 156.81 226.31 156.73 225.83 156.63C225.35 156.53 224.9 156.41 224.48 156.27C223.63 155.99 222.95 155.56 222.46 154.97C221.97 154.38 221.73 153.56 221.73 152.49C221.73 152.07 221.79 151.67 221.9 151.29C222.01 150.91 222.18 150.56 222.4 150.22C222.85 149.53 223.53 149 224.44 148.6C225.35 148.21 226.5 148.01 227.88 148.01C230.09 148.01 231.76 148.43 232.89 149.27C234.01 150.11 234.66 151.36 234.83 153.01H231.62C231.49 152.11 231.13 151.48 230.52 151.12C229.91 150.76 229.01 150.57 227.82 150.57C226.71 150.57 225.94 150.74 225.5 151.09C225.06 151.44 224.84 151.88 224.84 152.41C224.84 153.07 225.17 153.52 225.83 153.76C226.49 154.01 227.53 154.2 228.96 154.36C229.56 154.43 230.13 154.52 230.66 154.62C231.19 154.72 231.69 154.85 232.15 154.99C233.06 155.28 233.77 155.72 234.27 156.31C234.77 156.9 235.03 157.73 235.03 158.81C235.03 159.27 234.97 159.71 234.86 160.13C234.75 160.55 234.57 160.94 234.33 161.31C233.85 162.04 233.14 162.61 232.18 163.02C231.22 163.43 230.01 163.64 228.56 163.64C227.7 163.67 226.94 163.61 226.25 163.51Z" fill="white"/>
<path d="M143.47 51.76V49.65C143.47 48.84 143.63 48.15 143.95 47.59C144.27 47.03 144.7 46.56 145.26 46.18C145.8 45.8 146.42 45.48 147.13 45.21C147.83 44.94 148.56 44.69 149.32 44.46C149.74 44.34 150.13 44.21 150.5 44.08C150.87 43.95 151.2 43.83 151.51 43.7C152.16 43.46 152.67 43.17 153.03 42.85C153.4 42.53 153.58 42.12 153.58 41.63C153.58 40.93 153.32 40.4 152.79 40.05C152.26 39.7 151.47 39.52 150.42 39.52C149.19 39.52 148.26 39.78 147.64 40.29C147.02 40.8 146.71 41.54 146.71 42.5V42.78H143.69V42.42C143.69 40.69 144.26 39.36 145.4 38.42C146.54 37.48 148.23 37.01 150.48 37.01C151.18 37.01 151.82 37.06 152.41 37.16C152.99 37.26 153.5 37.41 153.95 37.6C154.86 37.99 155.53 38.53 155.96 39.21C156.39 39.89 156.61 40.67 156.61 41.55C156.61 42.02 156.55 42.46 156.43 42.85C156.31 43.24 156.13 43.59 155.88 43.9C155.41 44.51 154.75 45.01 153.91 45.41C153.07 45.81 152.11 46.17 151.03 46.49C149.76 46.87 148.76 47.23 148.04 47.58C147.32 47.93 146.92 48.42 146.85 49.04H156.5V51.74H143.47V51.76Z" fill="white"/>
<path d="M160.12 50.35C158.86 49.18 158.23 47.39 158.23 44.99V44.24C158.23 43.46 158.3 42.74 158.45 42.08C158.6 41.42 158.81 40.83 159.1 40.29C159.68 39.22 160.5 38.41 161.56 37.85C162.62 37.29 163.86 37.01 165.28 37.01C165.98 37.01 166.64 37.08 167.25 37.21C167.86 37.35 168.43 37.55 168.97 37.84C170.04 38.38 170.87 39.19 171.47 40.26C172.07 41.33 172.37 42.66 172.37 44.22V44.99C172.37 45.79 172.29 46.51 172.15 47.17C172 47.83 171.78 48.42 171.48 48.94C170.89 49.99 170.06 50.79 169 51.31C167.94 51.84 166.71 52.1 165.3 52.1C163.11 52.1 161.38 51.52 160.12 50.35ZM168.26 48.33C168.96 47.61 169.3 46.47 169.3 44.9V44.31C169.3 42.74 168.96 41.58 168.27 40.81C167.58 40.04 166.59 39.66 165.31 39.66C163.98 39.66 162.99 40.05 162.32 40.82C161.65 41.59 161.32 42.75 161.32 44.31V44.92C161.32 46.41 161.65 47.53 162.31 48.28C162.97 49.03 163.97 49.4 165.29 49.4C166.57 49.4 167.56 49.05 168.26 48.33Z" fill="white"/>
<path d="M173.34 51.76V48.92H176.77V42.03H174.4V39.74C175.37 39.67 176.07 39.45 176.5 39.06C176.93 38.67 177.2 38.09 177.32 37.31H179.75V48.93H183.01V51.77H173.34V51.76Z" fill="white"/>
<path d="M184.92 51.76C185.27 50.6 185.73 49.44 186.31 48.27C186.88 47.11 187.52 46 188.21 44.95C188.91 43.91 189.62 42.96 190.32 42.11C191.02 41.26 191.68 40.57 192.29 40.04H183.06V37.3H195.95V39.47C195.18 40.16 194.42 40.98 193.67 41.94C192.92 42.9 192.21 43.93 191.55 45.04C190.89 46.15 190.31 47.28 189.81 48.43C189.31 49.58 188.92 50.69 188.65 51.76H184.92Z" fill="white"/>
<path d="M109.95 175.61H113.35C113.79 175.61 114.2 175.65 114.59 175.72C114.98 175.79 115.34 175.9 115.66 176.04C116.32 176.33 116.83 176.77 117.19 177.37C117.55 177.97 117.74 178.74 117.74 179.67V180.13C117.74 180.59 117.7 181.02 117.61 181.4C117.52 181.78 117.39 182.12 117.21 182.41C116.86 183 116.36 183.44 115.72 183.73C115.08 184.02 114.31 184.16 113.43 184.16H109.95V175.61ZM111.69 177.13V182.65H113.35C114.22 182.65 114.88 182.44 115.32 182.03C115.76 181.62 115.98 180.96 115.98 180.04V179.75C115.98 178.84 115.75 178.17 115.3 177.75C114.85 177.33 114.17 177.12 113.28 177.12H111.69V177.13Z" fill="white"/>
<path d="M119.05 184.17V177.27H120.51L120.73 179C120.88 178.42 121.16 177.98 121.56 177.67C121.96 177.36 122.52 177.21 123.22 177.21H123.86V178.96H123.08C122.78 178.96 122.51 178.98 122.27 179.01C122.03 179.04 121.83 179.1 121.66 179.18C121.33 179.33 121.11 179.58 120.98 179.92C120.86 180.26 120.79 180.73 120.79 181.32V184.15H119.05V184.17Z" fill="white"/>
<path d="M124.16 184.07C123.98 183.9 123.89 183.61 123.89 183.19C123.89 182.77 123.99 182.47 124.19 182.31C124.39 182.15 124.68 182.06 125.07 182.06C125.46 182.06 125.75 182.14 125.95 182.31C126.15 182.48 126.25 182.77 126.25 183.19C126.25 183.59 126.15 183.88 125.96 184.05C125.77 184.23 125.47 184.31 125.07 184.31C124.64 184.33 124.34 184.24 124.16 184.07Z" fill="white"/>
<path d="M133.95 184.17L130.6 175.61H132.48L134.87 181.91L137.33 175.61H139.2L135.72 184.17H133.95Z" fill="white"/>
<path d="M138.93 184.07C138.75 183.9 138.66 183.61 138.66 183.19C138.66 182.77 138.76 182.47 138.96 182.31C139.16 182.15 139.45 182.06 139.84 182.06C140.23 182.06 140.52 182.14 140.72 182.31C140.92 182.48 141.02 182.77 141.02 183.19C141.02 183.59 140.92 183.88 140.73 184.05C140.54 184.23 140.24 184.31 139.84 184.31C139.42 184.33 139.11 184.24 138.93 184.07Z" fill="white"/>
<path d="M148.37 184.28C147.98 184.22 147.63 184.13 147.34 184.01C146.74 183.77 146.29 183.41 146 182.94C145.7 182.47 145.52 181.88 145.45 181.18H147.33C147.39 181.77 147.62 182.2 148.01 182.46C148.4 182.72 148.97 182.85 149.71 182.85C150.37 182.85 150.86 182.74 151.16 182.53C151.46 182.31 151.62 182.03 151.62 181.69C151.62 181.55 151.6 181.42 151.55 181.31C151.5 181.2 151.43 181.11 151.33 181.03C151.13 180.89 150.84 180.78 150.45 180.71C150.06 180.64 149.58 180.57 149 180.51C148.69 180.47 148.39 180.42 148.12 180.37C147.84 180.31 147.59 180.25 147.35 180.17C146.86 180.01 146.48 179.76 146.2 179.43C145.92 179.1 145.78 178.62 145.78 178.01C145.78 177.77 145.81 177.54 145.88 177.33C145.94 177.11 146.04 176.91 146.17 176.72C146.43 176.33 146.81 176.02 147.33 175.8C147.85 175.58 148.51 175.46 149.3 175.46C150.56 175.46 151.52 175.7 152.16 176.18C152.8 176.66 153.17 177.37 153.27 178.32H151.43C151.36 177.81 151.15 177.45 150.8 177.24C150.45 177.03 149.94 176.93 149.26 176.93C148.63 176.93 148.19 177.03 147.93 177.23C147.67 177.43 147.55 177.68 147.55 177.99C147.55 178.37 147.74 178.62 148.11 178.76C148.49 178.9 149.08 179.01 149.9 179.1C150.24 179.14 150.57 179.19 150.87 179.25C151.17 179.31 151.46 179.38 151.72 179.46C152.24 179.63 152.64 179.88 152.93 180.22C153.22 180.56 153.36 181.03 153.36 181.65C153.36 181.91 153.33 182.17 153.26 182.41C153.19 182.65 153.1 182.87 152.96 183.08C152.69 183.5 152.28 183.82 151.73 184.06C151.18 184.3 150.49 184.41 149.66 184.41C149.2 184.37 148.76 184.34 148.37 184.28Z" fill="white"/>
<path d="M154.94 184.07C154.76 183.9 154.67 183.61 154.67 183.19C154.67 182.77 154.77 182.47 154.97 182.31C155.17 182.15 155.46 182.06 155.85 182.06C156.24 182.06 156.53 182.14 156.73 182.31C156.93 182.48 157.03 182.77 157.03 183.19C157.03 183.59 156.93 183.88 156.74 184.05C156.55 184.23 156.25 184.31 155.85 184.31C155.42 184.33 155.12 184.24 154.94 184.07Z" fill="white"/>
<path d="M164.73 184.17L161.38 175.61H163.26L165.65 181.91L168.11 175.61H169.98L166.5 184.17H164.73Z" fill="white"/>
<path d="M169.71 184.07C169.53 183.9 169.44 183.61 169.44 183.19C169.44 182.77 169.54 182.47 169.74 182.31C169.94 182.15 170.23 182.06 170.62 182.06C171.01 182.06 171.3 182.14 171.5 182.31C171.7 182.48 171.8 182.77 171.8 183.19C171.8 183.59 171.7 183.88 171.51 184.05C171.32 184.23 171.02 184.31 170.62 184.31C170.19 184.33 169.89 184.24 169.71 184.07Z" fill="white"/>
<path d="M178.66 181.49V184.17H176.93V175.61H180.61C181.95 175.61 182.92 175.87 183.53 176.38C184.14 176.9 184.44 177.62 184.44 178.56C184.44 179.48 184.13 180.2 183.52 180.72C182.9 181.24 181.98 181.5 180.74 181.49H178.66ZM178.66 177.1V180H180.68C181.37 180 181.87 179.88 182.2 179.65C182.52 179.41 182.69 179.05 182.69 178.55C182.69 178.04 182.52 177.67 182.19 177.44C181.85 177.21 181.34 177.1 180.64 177.1H178.66Z" fill="white"/>
<path d="M187.43 181.21V184.17H185.69V175.61H189.49C190.79 175.61 191.72 175.84 192.29 176.29C192.86 176.74 193.15 177.39 193.15 178.24C193.15 178.84 193.01 179.31 192.74 179.66C192.47 180.01 192.06 180.26 191.53 180.42C192.03 180.56 192.41 180.8 192.65 181.15C192.89 181.5 193.01 182 193.01 182.67V183.68C193.01 183.78 193.02 183.87 193.05 183.96C193.08 184.05 193.13 184.12 193.21 184.17H191.36C191.29 184.13 191.24 184.06 191.21 183.96C191.18 183.86 191.17 183.76 191.17 183.65V182.69C191.17 182.13 191.04 181.74 190.77 181.53C190.51 181.31 190.04 181.21 189.38 181.21H187.43ZM187.43 177.1V179.7H189.42C190.01 179.7 190.48 179.6 190.83 179.41C191.18 179.22 191.35 178.89 191.35 178.41V178.34C191.35 177.89 191.2 177.57 190.9 177.38C190.6 177.19 190.12 177.09 189.47 177.09H187.43V177.1Z" fill="white"/>
<path d="M200.28 182.27H196.36L195.62 184.17H193.78L197.38 175.61H199.2L202.87 184.17H201.06L200.28 182.27ZM198.29 177.41L196.93 180.82H199.68L198.29 177.41Z" fill="white"/>
<path d="M206.02 184.28C205.63 184.22 205.28 184.13 204.99 184.01C204.39 183.77 203.94 183.41 203.65 182.94C203.35 182.47 203.17 181.88 203.1 181.18H204.98C205.04 181.77 205.27 182.2 205.66 182.46C206.05 182.72 206.62 182.85 207.36 182.85C208.02 182.85 208.51 182.74 208.81 182.53C209.11 182.31 209.27 182.03 209.27 181.69C209.27 181.55 209.25 181.42 209.2 181.31C209.15 181.2 209.08 181.11 208.98 181.03C208.78 180.89 208.49 180.78 208.1 180.71C207.71 180.64 207.23 180.57 206.65 180.51C206.34 180.47 206.04 180.42 205.77 180.37C205.49 180.31 205.24 180.25 205 180.17C204.51 180.01 204.13 179.76 203.85 179.43C203.57 179.1 203.43 178.62 203.43 178.01C203.43 177.77 203.46 177.54 203.53 177.33C203.59 177.11 203.69 176.91 203.82 176.72C204.08 176.33 204.46 176.02 204.98 175.8C205.5 175.58 206.16 175.46 206.95 175.46C208.21 175.46 209.17 175.7 209.81 176.18C210.45 176.66 210.82 177.37 210.92 178.32H209.08C209.01 177.81 208.8 177.45 208.45 177.24C208.1 177.03 207.59 176.93 206.91 176.93C206.28 176.93 205.84 177.03 205.58 177.23C205.32 177.43 205.2 177.68 205.2 177.99C205.2 178.37 205.39 178.62 205.76 178.76C206.14 178.9 206.73 179.01 207.55 179.1C207.89 179.14 208.22 179.19 208.52 179.25C208.82 179.31 209.11 179.38 209.37 179.46C209.89 179.63 210.29 179.88 210.58 180.22C210.87 180.56 211.01 181.03 211.01 181.65C211.01 181.91 210.98 182.17 210.91 182.41C210.84 182.65 210.75 182.87 210.61 183.08C210.34 183.5 209.93 183.82 209.38 184.06C208.83 184.3 208.14 184.41 207.31 184.41C206.85 184.37 206.41 184.34 206.02 184.28Z" fill="white"/>
<path d="M217.86 182.27H213.94L213.2 184.17H211.36L214.96 175.61H216.78L220.45 184.17H218.64L217.86 182.27ZM215.87 177.41L214.51 180.82H217.26L215.87 177.41Z" fill="white"/>
<path d="M221.33 175.61H224.73C225.17 175.61 225.58 175.65 225.97 175.72C226.36 175.79 226.72 175.9 227.04 176.04C227.7 176.33 228.21 176.77 228.57 177.37C228.93 177.97 229.12 178.74 229.12 179.67V180.13C229.12 180.59 229.08 181.02 228.99 181.4C228.9 181.78 228.77 182.12 228.59 182.41C228.24 183 227.74 183.44 227.1 183.73C226.46 184.02 225.69 184.16 224.81 184.16H221.33V175.61ZM223.07 177.13V182.65H224.73C225.6 182.65 226.26 182.44 226.7 182.03C227.14 181.62 227.36 180.96 227.36 180.04V179.75C227.36 178.84 227.13 178.17 226.68 177.75C226.23 177.33 225.55 177.12 224.66 177.12H223.07V177.13Z" fill="white"/>
</svg>
