<svg width="240" height="242" viewBox="0 0 240 242" fill="none" xmlns="http://www.w3.org/2000/svg">
<g clip-path="url(#clip0)">
<path d="M27.9995 51.7999V200.4C27.9995 200.9 27.9995 201.3 28.0995 201.7V201.8C28.7995 206.1 32.4995 209.3 36.8995 209.3H203.1C208 209.3 212 205.3 212 200.4V51.7999C212 23.9999 189.4 1.3999 161.6 1.3999H78.4996C50.5996 1.3999 27.9995 23.9999 27.9995 51.7999Z" fill="#E8E7F4"/>
<path d="M139.2 143.7C140.4 144.9 144.1 148.7 144.1 148.7C144.7 149.3 145.5 149.8 146.2 149.8C147.1 149.8 147.9 149.3 148.6 148.7C150.5 147.1 152.1 145.5 153.8 143.7C156 141.4 156 137.9 153.8 135.7C152.1 134 149.3 134 147.2 135.7C146.6 136.2 146.1 136.3 145.5 135.7C143.7 134 141 134 139.2 135.7C136.9 137.9 137 141.4 139.2 143.7Z" fill="#F37972"/>
<path d="M51.4997 43.8V121.6H80.1997L80.6997 124L81.3997 127.1H136.9C142.1 127.1 146.4 122.9 146.4 117.6V43.8C146.4 33.2 142.5 22.9 135.5 14.9C131.3 10.2 126.3 6.4 120.6 3.9C115 1.4 108.8 0 102.5 0H95.2997C82.6997 0 70.6997 5.4 62.3997 14.9C55.2997 22.9 51.4997 33.2 51.4997 43.8Z" fill="#205CAA"/>
<path d="M79.7004 127.1H81.3004L80.7004 124L79.7004 127.1Z" fill="#205CAA"/>
<path d="M27.9999 145.7V199.2C27.9999 200.1 27.9999 201 28.0999 201.8V201.9C28.2999 204.5 28.7999 207 29.4999 209.4C33.8999 223.8 47.1999 234.2 62.9999 234.2H96.8999V169.1L81.8999 164L79.5999 163.2L66.3999 158.7L57.6999 155.8L52.4999 154L50.1999 153.2L30.1999 146.4L27.9999 145.7Z" fill="#91BDE5"/>
<path d="M66.7996 47.1001C65.4996 48.4001 65.4996 50.6001 66.7996 51.9001L67.8996 53.0001C69.1996 54.3001 71.3996 54.3001 72.6996 53.0001L67.6996 58.0001C66.3996 59.3001 66.3996 61.5001 67.6996 62.8001L68.7996 63.9001C70.0996 65.2001 72.2996 65.2001 73.5996 63.9001L72.2996 65.2001L77.4996 70.4001C85.9996 78.9001 99.6996 78.9001 108.1 70.4001L113.3 65.2001L114.6 66.5001C116.9 68.8001 120.3 67.2001 121.2 64.0001C122 61.0001 124.2 54.3001 124.2 54.3001L137.5 41.0001L122.4 25.9001C119.5 23.0001 114.7 23.0001 111.8 25.9001L97.5996 40.1001C96.2996 41.4001 94.0996 41.4001 92.7996 40.1001L91.6996 39.0001C90.3996 37.7001 90.3996 35.5001 91.6996 34.2001L94.3996 31.5001C95.6996 30.2001 95.6996 28.0001 94.3996 26.7001L93.2996 25.6001C91.9996 24.3001 89.7996 24.3001 88.4996 25.6001L78.6996 35.4001C77.3996 36.7001 75.1996 36.7001 73.8996 35.4001L70.0996 31.6001L66.7996 47.1001Z" fill="#FCD3C1"/>
<path d="M28 112.4V115.4C28.1 127.6 29.9 138.7 29.9 145.7C29.9 169.4 63.4001 163.2 63.4001 163.2L98.9001 108.5L99.2001 108.1C99.2001 108.1 99.1001 108 98.9001 107.9C98.5001 107.6 97.6001 107.1 96.5001 106.3C91.5001 102.8 80.8001 94.5999 76.7001 85.1999C75.5001 82.3999 74.9001 79.5999 75.1001 76.6999C76.0001 65.1999 98.9001 51.8999 98.9001 51.8999C72.2001 51.8999 49.8001 60.6999 39.4001 74.2999C36.8 77.6999 34.6001 81.3999 33.0001 85.2999C29.4 93.8999 28.2001 103.4 28 112.4Z" fill="#FCD3C1"/>
<path d="M97.0006 234.2C69.9386 234.2 48.0005 212.262 48.0005 185.2C48.0005 158.138 69.9386 136.2 97.0006 136.2C124.063 136.2 146.001 158.138 146.001 185.2C146.001 212.262 124.063 234.2 97.0006 234.2Z" fill="#91BDE5"/>
<path d="M101.3 141.7C110 131.8 109 116.8 99.1002 108.1C89.2002 99.3999 74.2002 100.4 65.5002 110.3C56.8002 120.2 57.8002 135.2 67.7002 143.9C68.8002 144.9 70.0002 145.7 71.2002 146.5C72.5002 146.9 73.8002 147.5 75.0002 148.3C84.1002 151.6 94.6002 149.3 101.3 141.7Z" fill="#91BDE5"/>
<path d="M116.3 53.8998C116.6 54.1998 117.2 54.1998 117.6 53.8998L120.3 51.1998C120.6 50.8998 120.6 50.2998 120.3 49.8998C120 49.5998 119.4 49.5998 119 49.8998L116.3 52.5998C115.9 52.9998 115.9 53.5998 116.3 53.8998Z" fill="#205CAA"/>
<path d="M95.2002 41.1001H137.8L116.9 20.1001L95.2002 41.1001Z" fill="#205CAA"/>
<path d="M78.4996 35.2998L51.4996 63.7998L63.7996 27.2998L78.4996 35.2998Z" fill="#205CAA"/>
<path d="M28.0005 112.4V173.8H98.9005V108C98.5005 107.7 97.6005 107.2 96.5005 106.4C91.5005 102.9 80.9005 94.6998 76.9005 85.2998H33.0005C29.4005 93.8998 28.2005 103.4 28.0005 112.4Z" fill="#91BDE5"/>
<path d="M51.4996 63.7999C51.4996 63.7999 78.4996 64.2999 78.4996 35.3999H54.6996L51.4996 63.7999Z" fill="#205CAA"/>
<path d="M51.4998 171.3C51.0998 185.2 62.2998 196.6 76.1998 196.6H112.3C117.9 196.6 122.4 192.1 122.4 186.5C122.4 182.4 119.9 178.8 116.3 177.2H116.4C118.1 177.2 119.4 175.8 119.4 174.2C119.4 172.5 118 171.2 116.4 171.2L51.4998 171.3Z" fill="#FCD3C1"/>
<path d="M104.8 59.6001C102.7 63.5001 103.4 68.5001 106.7 71.8001C110 75.1001 115 75.7001 118.9 73.7001" stroke="#205CAA" stroke-width="2.9919" stroke-miterlimit="10" stroke-linecap="round"/>
<path d="M78.1004 41.0998C78.1004 41.0998 77.8004 36.0998 88.3004 25.5998C98.8004 15.0998 80.8004 25.5998 80.8004 25.5998L74.7004 34.1998L78.1004 41.0998Z" fill="#205CAA"/>
<path d="M50.7002 166.9C50.9002 167.1 51.2002 167.2 51.5002 167.2C52.1002 167.2 52.7002 166.7 52.7002 166V125.2C52.7002 124.6 52.2002 124 51.5002 124C50.9002 124 50.3002 124.5 50.3002 125.2V166C50.3002 166.4 50.4002 166.7 50.7002 166.9Z" fill="#8D9FD1"/>
<path d="M80.0001 166.9C80.2001 167.1 80.5001 167.2 80.8001 167.2C81.4001 167.2 82.0001 166.7 82.0001 166V139C82.0001 138.4 81.5001 137.8 80.8001 137.8C80.2001 137.8 79.6001 138.3 79.6001 139V166C79.7001 166.4 79.8001 166.7 80.0001 166.9Z" fill="#8D9FD1"/>
<path d="M228.6 241.4H11.1C5 241.4 0 236.4 0 230.3V220.5C0 214.4 5 209.4 11.1 209.4H228.6C234.7 209.4 239.7 214.4 239.7 220.5V230.3C239.7 236.4 234.7 241.4 228.6 241.4Z" fill="#FCD3C1"/>
<path d="M155.4 1.3999C155.4 1.3999 148.1 76.6999 212 76.6999" stroke="white" stroke-miterlimit="10"/>
<path d="M201 83.5001C199.785 83.5001 198.8 82.5151 198.8 81.3001C198.8 80.0851 199.785 79.1001 201 79.1001C202.215 79.1001 203.2 80.0851 203.2 81.3001C203.2 82.5151 202.215 83.5001 201 83.5001Z" fill="white"/>
<path d="M193.1 71.6998C191.885 71.6998 190.9 70.7148 190.9 69.4998C190.9 68.2848 191.885 67.2998 193.1 67.2998C194.315 67.2998 195.3 68.2848 195.3 69.4998C195.3 70.7148 194.315 71.6998 193.1 71.6998Z" fill="white"/>
<path d="M178.6 74.7999C177.385 74.7999 176.4 73.8149 176.4 72.5999C176.4 71.3849 177.385 70.3999 178.6 70.3999C179.815 70.3999 180.8 71.3849 180.8 72.5999C180.8 73.8149 179.815 74.7999 178.6 74.7999Z" fill="white"/>
<path d="M173.5 59.1998C172.285 59.1998 171.3 58.2148 171.3 56.9998C171.3 55.7848 172.285 54.7998 173.5 54.7998C174.715 54.7998 175.7 55.7848 175.7 56.9998C175.7 58.2148 174.715 59.1998 173.5 59.1998Z" fill="white"/>
<path d="M160.3 53.9C159.085 53.9 158.1 52.915 158.1 51.7C158.1 50.485 159.085 49.5 160.3 49.5C161.515 49.5 162.5 50.485 162.5 51.7C162.5 52.915 161.515 53.9 160.3 53.9Z" fill="white"/>
<path d="M162.701 37.6002C161.486 37.6002 160.501 36.6152 160.501 35.4002C160.501 34.1852 161.486 33.2002 162.701 33.2002C163.916 33.2002 164.901 34.1852 164.901 35.4002C164.901 36.6152 163.916 37.6002 162.701 37.6002Z" fill="white"/>
<path d="M152.2 26.6002C150.985 26.6002 150 25.6152 150 24.4002C150 23.1852 150.985 22.2002 152.2 22.2002C153.415 22.2002 154.4 23.1852 154.4 24.4002C154.4 25.6152 153.415 26.6002 152.2 26.6002Z" fill="white"/>
<path d="M159.4 12.4C158.185 12.4 157.2 11.415 157.2 10.2C157.2 8.98497 158.185 8 159.4 8C160.615 8 161.6 8.98497 161.6 10.2C161.6 11.415 160.615 12.4 159.4 12.4Z" fill="white"/>
<path d="M212 180.3H180.8V209.4" stroke="white" stroke-miterlimit="10"/>
<path d="M199.137 179.9L189.337 170.4C185.637 166.8 188.137 160.5 193.337 160.5C196.537 160.5 199.137 163.1 199.137 166.3V179.9Z" stroke="white" stroke-miterlimit="10" stroke-linecap="round" stroke-linejoin="round"/>
<path d="M199.137 180.3L208.937 170.8C212.637 167.2 210.137 160.9 204.937 160.9C201.737 160.9 199.137 163.5 199.137 166.7V180.3Z" stroke="white" stroke-miterlimit="10" stroke-linecap="round" stroke-linejoin="round"/>
<path d="M199.137 180.3V209.4" stroke="white" stroke-miterlimit="10" stroke-linecap="round" stroke-linejoin="round"/>
</g>
<defs>
<clipPath id="clip0">
<rect width="239.7" height="241.4" fill="white" transform="matrix(-1 0 0 1 239.7 0)"/>
</clipPath>
</defs>
</svg>
