<svg width="241" height="245" viewBox="0 0 241 245" fill="none" xmlns="http://www.w3.org/2000/svg">
<g clip-path="url(#clip0)">
<path d="M36.6 212.7H202.7C207.6 212.7 211.6 208.7 211.6 203.8V55.1C211.6 27.2 189 4.70001 161.2 4.70001H78.1C50.2 4.70001 27.7 27.3 27.7 55.1V203.7C27.7 208.7 31.7 212.7 36.6 212.7Z" fill="#E8E7F4"/>
<path d="M11.1 244.7H228.6C234.7 244.7 239.7 239.7 239.7 233.6V223.8C239.7 217.7 234.7 212.7 228.6 212.7H11.1C5 212.7 0 217.7 0 223.8V233.6C0 239.7 5 244.7 11.1 244.7Z" fill="#FCD3C1"/>
<path d="M189.3 12.6V80.7C189.3 85.2 185.6 88.9 181.1 88.9H135.5C131 88.9 127.3 85.2 127.3 80.7V25.9C119.3 25.9 112.9 19.4 112.9 11.5C112.9 6.8 115.1 2.7 118.6 0C121.3 2.7 125 4.4 129.1 4.4H181.1C185.6 4.4 189.3 8 189.3 12.6Z" fill="#205CAA"/>
<path d="M189.3 66.2V95.4C189.3 97.4 187.7 99 185.7 99H179.9C177.9 99 176.3 97.4 176.3 95.4V84C176.3 86 174.7 87.6 172.7 87.6H171C169 87.6 167.4 86 167.4 84V91.6C167.4 93.6 165.8 95.2 163.8 95.2H162.1C160.1 95.2 158.5 93.6 158.5 91.6V93.5H127.5V62.5H122.3C118.8 62.5 116.8 58.3 119.2 55.6L127.5 46V25.9H150.5C155 25.9 158.6 29.5 158.6 34V50.4C158.6 52.4 160.2 54 162.2 54H163.9C165.9 54 167.5 52.4 167.5 50.4V40.5C167.5 38.5 169.1 36.9 171.1 36.9H172.8C174.8 36.9 176.4 38.5 176.4 40.5V66.2C176.4 68.2 178 69.8 180 69.8H185.8C187.6 69.8 189.3 68.2 189.3 66.2Z" fill="#FCD3C1"/>
<path d="M240.4 124.4V174.8C240.4 195.7 223.5 212.6 202.6 212.6H121.6C102.6 212.6 87.3 197.2 87.3 178.3V144.4C87.3 125 96.1 107.6 110 96C120.9 86.9 135 81.4 150.3 81.4H197.5C221.1 81.5 240.4 100.7 240.4 124.4Z" fill="#205CAA"/>
<path d="M117.9 96.1V147.1H87.2V144.4C87.2 125 96 107.6 109.9 96H117.9V96.1Z" fill="#FCD3C1"/>
<path d="M155 159.7L139.1 175.6L144.8 181.3C148.3 184.8 153.9 184.8 157.4 181.3C160 178.7 160.7 174.9 159.4 171.7C160.4 172.7 162.1 172.7 163.2 171.7C164.2 170.7 164.2 169 163.2 167.9L155 159.7Z" fill="#FCD3C1"/>
<path d="M206.4 79.9C206.4 84.8 202.4 89 197.5 89H197.4C197.3 89 197.2 89 197.1 89C192.8 88.8 189.4 85.1 189.4 80.7V71.9H198.5C202.7 71.9 206.4 75.5 206.4 79.9Z" fill="#FCD3C1"/>
<path d="M117.2 172.5C117 172.5 116.7 172.4 116.5 172.2C116.1 171.8 116.1 171.2 116.5 170.8L125.5 161.8C125.9 161.4 126.5 161.4 126.9 161.8C127.3 162.2 127.3 162.8 126.9 163.2L117.9 172.2C117.7 172.5 117.5 172.5 117.2 172.5Z" fill="#8D9FD1"/>
<path d="M155 159.7L139.1 175.6L103.7 140.2C96.1 132.6 96.1 120.4 103.7 112.8L105.9 110.6L151.7 156.4L155 159.7Z" fill="#8D9FD1"/>
<path d="M145.3 125.7H127C114.9 125.7 105.1 115.9 105.1 103.8V84.3C105.1 72.2 114.9 62.4 127 62.4H145.3C157.4 62.4 167.2 72.2 167.2 84.3V103.8C167.2 115.9 157.4 125.7 145.3 125.7Z" fill="#FCD3C1"/>
<path d="M148.4 190.5L126.2 212.7H123.5L147.1 189.1C147.5 188.7 148.1 188.7 148.5 189.1C148.8 189.5 148.8 190.1 148.4 190.5Z" fill="#8D9FD1"/>
<path d="M134.9 97C134.4 97 133.9 96.6 133.9 96V91.8C133.9 91.3 134.3 90.8 134.9 90.8C135.5 90.8 135.9 91.2 135.9 91.8V96C135.9 96.6 135.5 97 134.9 97Z" fill="#205CAA"/>
<path d="M155.4 97C154.9 97 154.4 96.6 154.4 96V91.8C154.4 91.3 154.8 90.8 155.4 90.8C156 90.8 156.4 91.2 156.4 91.8V96C156.3 96.6 155.9 97 155.4 97Z" fill="#205CAA"/>
<path d="M134.9 49.5C134.4 49.5 133.9 49.1 133.9 48.5V44.3C133.9 43.8 134.3 43.3 134.9 43.3C135.5 43.3 135.9 43.7 135.9 44.3V48.5C135.9 49.1 135.5 49.5 134.9 49.5Z" fill="#205CAA"/>
<path d="M144.9 113.1C141.5 113.1 138.3 112 135.6 110C133 108 131 105.3 130.1 102.2C129.9 101.7 130.2 101.2 130.7 101C131.2 100.8 131.7 101.1 131.9 101.6C132.7 104.3 134.5 106.8 136.8 108.5C139.2 110.3 142 111.2 145 111.2C148 111.2 150.8 110.3 153.2 108.5C155.5 106.8 157.2 104.3 158.1 101.6C158.3 101.1 158.8 100.8 159.3 101C159.8 101.2 160.1 101.7 159.9 102.2C158.9 105.3 157 108.1 154.4 110C151.5 112 148.3 113.1 144.9 113.1Z" fill="#205CAA"/>
<path d="M206.7 151.3C205.4 152.6 201.5 156.6 201.5 156.6C200.9 157.2 200 157.8 199.2 157.8C198.3 157.8 197.4 157.3 196.6 156.6C194.6 154.8 192.8 153.1 191.1 151.3C188.8 148.9 188.7 145.1 191.1 142.7C193 140.8 195.9 140.9 198.1 142.7C198.7 143.2 199.2 143.3 199.9 142.7C201.8 140.9 204.8 140.8 206.6 142.7C209.2 145.2 209.1 148.9 206.7 151.3Z" fill="#F37972"/>
<path d="M155 66.3C155 70.6 151.5 74.1 147.2 74.1H138.1C134.9 74.1 132.3 71.5 132.3 68.3C132.3 65.1 134.9 62.5 138.1 62.5H146.3C148.5 62.5 150.5 61.6 151.9 60.2C153.8 61.6 155 63.8 155 66.3Z" fill="#205CAA"/>
<path d="M118.9 100.5C117.2 100.5 115.9 99.1 115.9 97.5V90.9C115.9 89.2 117.3 87.9 118.9 87.9C119.4 87.9 119.9 88.3 119.9 88.9C119.9 89.5 119.5 89.9 118.9 89.9C118.3 89.9 117.8 90.4 117.8 91V97.6C117.8 98.2 118.3 98.7 118.9 98.7C119.4 98.7 119.9 99.1 119.9 99.7C119.9 100.3 119.5 100.5 118.9 100.5Z" fill="#205CAA"/>
<path d="M16.6 208.7C21.9 214 30.5 214 35.8 208.7L47 197.4C51 193.4 51 187 47 183.1C43 179.1 36.6 179.1 32.7 183.1L22.6 193.2C19.9 195.9 16.3 197.3 12.7 197.3C12.2 201.3 13.4 205.6 16.6 208.7Z" fill="#91BDE5"/>
<path d="M42.1 188.5C42.6523 188.5 43.1 188.052 43.1 187.5C43.1 186.948 42.6523 186.5 42.1 186.5C41.5477 186.5 41.1 186.948 41.1 187.5C41.1 188.052 41.5477 188.5 42.1 188.5Z" fill="white"/>
<path d="M47 183.1L51.4 182.6L49.3 186.5L47 183.1Z" fill="#205CAA"/>
<path d="M38.3 204.3V212.7" stroke="#8D9FD1" stroke-miterlimit="10"/>
<path d="M33 204.3V212.7" stroke="#8D9FD1" stroke-miterlimit="10"/>
<path d="M58.9 44.6C58.9 44.6 57.8 54.5 51.3 54.5" stroke="white" stroke-miterlimit="10"/>
<path d="M58.9 44.6C58.9 44.6 60 54.5 66.5 54.5" stroke="white" stroke-miterlimit="10"/>
<path d="M58.9 64.4C58.9 64.4 60 54.5 66.5 54.5" stroke="white" stroke-miterlimit="10"/>
<path d="M58.9 64.4C58.9 64.4 57.8 54.5 51.3 54.5" stroke="white" stroke-miterlimit="10"/>
<path d="M74.5 70.2C74.5 70.2 73.7 77 69.3 77" stroke="white" stroke-miterlimit="10"/>
<path d="M74.5 70.2C74.5 70.2 75.3 77 79.7 77" stroke="white" stroke-miterlimit="10"/>
<path d="M74.5 83.8C74.5 83.8 75.3 77 79.7 77" stroke="white" stroke-miterlimit="10"/>
<path d="M74.5 83.8C74.5 83.8 73.7 77 69.3 77" stroke="white" stroke-miterlimit="10"/>
</g>
<defs>
<clipPath id="clip0">
<rect width="240.4" height="244.7" fill="white"/>
</clipPath>
</defs>
</svg>
