<svg width="31" height="24" viewBox="0 0 31 24" fill="none" xmlns="http://www.w3.org/2000/svg">
<path d="M29.4636 5.16691C29.1287 3.92855 28.1471 2.95237 26.9022 2.61892C24.628 2 15.5309 2 15.5309 2C15.5309 2 6.43414 2 4.15991 2.59545C2.93898 2.92855 1.93339 3.92873 1.59849 5.16691C1 7.42874 1 12.1195 1 12.1195C1 12.1195 1 16.8339 1.59849 19.072C1.93375 20.3102 2.91503 21.2864 4.16008 21.6199C6.45809 22.239 15.5312 22.239 15.5312 22.239C15.5312 22.239 24.628 22.239 26.9022 21.6435C28.1473 21.3102 29.1287 20.334 29.464 19.0959C30.0623 16.8339 30.0623 12.1433 30.0623 12.1433C30.0623 12.1433 30.0863 7.42874 29.4636 5.16691ZM12.6346 16.4529V7.78601L20.1993 12.1195L12.6346 16.4529Z" fill="#E8E7F4"/>
</svg>
