<svg width="56" height="56" viewBox="0 0 56 56" fill="none" xmlns="http://www.w3.org/2000/svg">
<path d="M0 8C0 3.58172 3.58172 0 8 0H48C52.4183 0 56 3.58172 56 8V48C56 52.4183 52.4183 56 48 56H8C3.58172 56 0 52.4183 0 48V8Z" fill="white" fill-opacity="0.8"/>
<path d="M21.3333 16H19C17.3431 16 16 17.3431 16 19V39.6667C16 41.3235 17.3431 42.6667 19 42.6667H37C38.6569 42.6667 40 41.3235 40 39.6667V19C40 17.3431 38.6569 16 37 16H34.6667" stroke="#8D9FD1" stroke-width="2"/>
<rect x="21.3334" y="13.3334" width="13.3333" height="6.66667" rx="2" stroke="#8D9FD1" stroke-width="2"/>
<path d="M32.8789 31.0503C32.0562 31.857 29.6015 34.2903 29.6015 34.2903C29.2106 34.6694 28.6742 35 28.1651 35C27.5923 35 27.0287 34.6914 26.5695 34.2947C25.324 33.2235 24.224 32.1876 23.1012 31.0591C21.6466 29.5956 21.6193 27.2857 23.1012 25.8486L23.1103 25.8398C24.274 24.7113 26.1013 24.7289 27.515 25.8398C27.9196 26.1572 28.2287 26.2233 28.6515 25.8398C29.8652 24.7377 31.688 24.7113 32.8471 25.8398C34.3972 27.3342 34.3608 29.5956 32.8789 31.0503Z" fill="#F37972"/>
</svg>
