<svg width="168" height="97" viewBox="0 0 168 97" fill="none" xmlns="http://www.w3.org/2000/svg">
<path d="M70.8001 31.8H0.100098V96.6001H70.7001V31.8H70.8001Z" fill="#91BDE5"/>
<path d="M35.4999 73.7C30.3999 73.7 26.0999 70.3 24.5999 65.7C24.4999 65.4 24.2998 65.2 23.9999 65.2H21.0999C20.6999 65.2 20.3998 65.6 20.4998 66C22.1998 72.7 28.1999 77.7 35.4999 77.7C42.6999 77.7 48.7998 72.7 50.4998 66C50.5998 65.6 50.2999 65.2 49.8999 65.2H46.9998C46.6999 65.2 46.4999 65.4 46.3999 65.7C44.8999 70.3 40.5998 73.7 35.4999 73.7Z" fill="white"/>
<path d="M49.3998 58.1C51.2998 58.1 53.1998 56.4 53.0998 54.4C52.9998 52.4 51.4998 50.7 49.3998 50.7C47.4998 50.7 45.5998 52.4 45.6998 54.4C45.8998 56.5 47.3998 58.1 49.3998 58.1Z" fill="white"/>
<path d="M21.4999 58.1C23.3999 58.1 25.2999 56.4 25.1999 54.4C25.0999 52.4 23.5999 50.7 21.4999 50.7C19.5999 50.7 17.6999 52.4 17.7999 54.4C17.8999 56.5 19.3999 58.1 21.4999 58.1Z" fill="white"/>
<path d="M167.1 50.3L117.2 0.400024L71.3 46.2L121.2 96.1L167.1 50.3Z" fill="#FCD3C1"/>
<path d="M119.048 66.5158L123.118 62.4465L109.262 48.5905C110.069 47.9627 111.011 47.6712 112.087 47.7161C113.185 47.7833 114.396 48.03 115.719 48.456C116.369 48.7026 117.042 48.9492 117.737 49.1958C118.454 49.4649 119.172 49.7339 119.889 50.003C121.257 50.5187 122.647 50.9895 124.059 51.4155C125.472 51.8415 126.884 52.1329 128.297 52.2899C129.709 52.402 131.077 52.245 132.4 51.8191C133.745 51.4155 135.012 50.6195 136.2 49.4313C137.613 48.0187 138.51 46.4269 138.891 44.6556C139.294 42.862 139.137 40.9787 138.42 39.0056C138.061 38.0191 137.534 37.0214 136.839 36.0125C136.167 35.026 135.337 34.0395 134.351 33.0529C131.257 29.9589 128.162 28.2773 125.068 28.0083C121.997 27.7617 119.104 28.9948 116.392 31.7077L115.416 32.683L119.923 37.1896L120.696 36.416C122.199 34.9139 123.779 34.1852 125.438 34.23C127.142 34.2749 128.824 35.1269 130.483 36.786C131.985 38.2882 132.815 39.7455 132.972 41.158C133.151 42.5481 132.624 43.8597 131.391 45.0928C130.561 45.9224 129.541 46.3372 128.331 46.3372C127.165 46.3372 125.864 46.0906 124.429 45.5973C123.69 45.3507 122.938 45.0929 122.176 44.8238C121.459 44.5548 120.696 44.2633 119.889 43.9494C118.499 43.4113 117.075 42.9068 115.618 42.436C114.161 41.9652 112.715 41.6625 111.28 41.528C109.822 41.371 108.421 41.4943 107.076 41.8979C105.731 42.3015 104.464 43.0974 103.275 44.2857L100.047 47.5143L119.048 66.5158Z" fill="white"/>
</svg>
