<svg width="71" height="69" viewBox="0 0 71 69" fill="none" xmlns="http://www.w3.org/2000/svg">
<path d="M70.7 4H0V68.8H70.6V4H70.7Z" fill="#8D9FD1"/>
<path d="M33.1033 41.5308C31.6764 41.5308 30.5984 41.2454 29.8691 40.6747C29.1715 40.1039 28.8227 39.2478 28.8227 38.1063C28.8227 37.5039 28.9495 36.9648 29.2032 36.4892C29.4886 36.0136 29.9008 35.6014 30.4398 35.2526C31.074 34.8404 31.8033 34.5233 32.6277 34.3014C33.4838 34.0477 34.7362 33.794 36.3851 33.5404C37.6217 33.3501 38.6997 33.1123 39.6193 32.8269C40.5705 32.5416 41.3315 32.1928 41.9022 31.7806V33.255C41.9022 34.555 41.5376 35.855 40.8083 37.1551C40.1107 38.4234 39.0961 39.4698 37.7643 40.2942C37.0985 40.7064 36.3692 41.0234 35.5765 41.2454C34.8155 41.4356 33.9911 41.5308 33.1033 41.5308ZM42.8059 45.6211H47.8475V27.1671C47.8475 25.2012 47.4511 23.5048 46.6584 22.078C45.8974 20.6511 44.6291 19.5572 42.8535 18.7962C41.9656 18.384 40.9351 18.0828 39.7619 17.8925C38.5888 17.7023 37.257 17.6071 35.7667 17.6071C31.8667 17.6071 28.8069 18.5584 26.5873 20.4608C24.3677 22.3316 23.147 24.8207 22.925 27.9281H29.3459C29.441 26.1841 30.0276 24.8365 31.1057 23.8853C32.1837 22.9341 33.8484 22.4584 36.0997 22.4584C38.2241 22.4584 39.7144 22.7914 40.5705 23.4572C41.4266 24.1231 41.8547 25.0268 41.8547 26.1683C41.8547 27.2781 41.3156 28.0708 40.2376 28.5464C39.1912 28.9903 37.4473 29.3708 35.0058 29.6879C33.2935 29.9415 31.8825 30.1793 30.7727 30.4013C29.663 30.6232 28.7117 30.8769 27.919 31.1623C27.5385 31.2891 27.1422 31.4476 26.73 31.6379C26.3495 31.8281 25.969 32.0501 25.5885 32.3038C24.4787 33.0013 23.6068 33.9209 22.9726 35.0624C22.3384 36.1721 22.0214 37.488 22.0214 39.01C22.0214 41.2295 22.7665 43.0052 24.2568 44.3369C25.7787 45.6687 28.0142 46.3345 30.963 46.3345C33.785 46.3345 36.1155 45.7479 37.9546 44.5747C39.8254 43.4015 41.2205 41.9271 42.14 40.1515L42.8059 45.6211Z" fill="white"/>
</svg>
