<svg width="391" height="440" viewBox="0 0 391 440" fill="none" xmlns="http://www.w3.org/2000/svg">
<g clip-path="url(#clip0)">
<path d="M227 313H263V333C263 341.837 255.837 349 247 349H235C230.582 349 227 345.418 227 341V313Z" fill="#91BDE5"/>
<path d="M183 313H219V333C219 341.837 211.837 349 203 349H191C186.582 349 183 345.418 183 341V313Z" fill="#91BDE5"/>
<path d="M187.775 324.5H214.13C216.804 324.5 219 322.2 219 319.4V240.3C219 222.3 204.963 207.7 187.87 207.7C185.196 207.7 183 210 183 212.8L183.095 316.5V319.3C182.905 322.2 185.101 324.5 187.775 324.5Z" fill="#205CAA"/>
<path d="M231.775 324.5H258.13C260.804 324.5 263 322.2 263 319.4V240.3C263 222.3 248.963 207.7 231.87 207.7H227L227.095 316.5V319.3C226.905 322.2 229.005 324.5 231.775 324.5Z" fill="#205CAA"/>
<path d="M142.7 10.5L116 37.2L175.5 96.7C188.2 109.4 208.9 109.4 221.7 96.7L225.3 93.1L148.3 16.2L142.7 10.5Z" fill="#8D9FD1"/>
<path d="M303.2 221.6L330 194.9L270.5 135.4C257.8 122.7 237.1 122.7 224.3 135.4L220.7 139L297.7 215.9L303.2 221.6Z" fill="#8D9FD1"/>
<path d="M202.1 243.8H244.3C261.4 243.8 275.3 230 275.3 212.9V154.3C275.3 137.2 261.4 123.4 244.3 123.4L170.2 84.6001L171 212.9C171.1 230 185 243.8 202.1 243.8Z" fill="#8D9FD1"/>
<path d="M175.2 125.5L197.1 147.3C211.5 161.6 234.8 161.6 249.1 147.3L272.3 124.2C286.7 109.9 286.7 86.6 272.3 72.2L250.4 50.4C236 36.1 212.7 36.1 198.4 50.4L175.2 73.5C160.8 87.9 160.8 111.2 175.2 125.5Z" fill="#FCD3C1"/>
<path d="M221.7 103.7C222.4 104.4 223.3 104.4 224 103.7L228.9 98.8001C229.6 98.1001 229.6 97.2001 228.9 96.5001C228.2 95.8001 227.3 95.8001 226.6 96.5001L221.7 101.4C221 102.1 221 103 221.7 103.7Z" fill="#205CAA"/>
<path d="M197.4 79.4001C198.1 80.1001 199 80.1001 199.7 79.4001L204.6 74.5001C205.3 73.8001 205.3 72.9 204.6 72.2C203.9 71.5 203 71.5 202.3 72.2L197.4 77.1001C196.7 77.8001 196.7 78.8001 197.4 79.4001Z" fill="#205CAA"/>
<path d="M190.7 111C194.8 115.1 199.8 117.5 205.4 118.3C210.8 119.1 216.5 118.1 221.4 115.5C222.2 115 222.5 114 222.1 113.4C221.6 112.6 220.6 112.3 220 112.7C215.8 115 210.9 115.8 206 115.1C201.1 114.4 196.5 112.2 193.1 108.6C189.5 105 187.4 100.6 186.6 95.7C185.9 91 186.8 85.9 189 81.7C189.5 80.9 189.2 79.9 188.3 79.6C187.5 79.1 186.5 79.4 186.2 80.3C183.6 85.2 182.6 90.7 183.4 96.3C184 101.9 186.6 107 190.7 111Z" fill="#205CAA"/>
<path d="M233.3 34.7999C224.7 43.3999 224.7 57.3999 233.3 66.0999L251.7 84.4999C258.2 90.9999 268.7 90.9999 275 84.4999C281.5 77.9999 281.5 67.5999 275 61.1999L258.5 44.6999C254.1 40.2999 251.8 34.3999 251.8 28.5999C245.3 27.5999 238.3 29.5999 233.3 34.7999Z" fill="#205CAA"/>
<path d="M236.4 126.8C238.4 128.8 241.6 128.8 243.6 126.8L251.4 119C253.4 117 253.4 113.8 251.4 111.8C250.7 111.1 249.8 111.1 249.1 111.8C248.4 112.5 248.4 113.4 249.1 114.1C249.9 114.9 249.9 116.1 249.1 116.7L241.3 124.5C240.5 125.3 239.3 125.3 238.7 124.5C238 123.8 237.1 123.8 236.4 124.5C235.7 125.2 235.9 126.2 236.4 126.8Z" fill="#205CAA"/>
<path d="M330 194.9L303.2 221.6L312.8 231.2C318.7 237.1 328.1 237.1 334 231.2C338.4 226.8 339.5 220.4 337.4 215.1C339.2 216.9 342 216.9 343.8 215.1C345.6 213.3 345.6 210.5 343.8 208.7L330 194.9Z" fill="#FCD3C1"/>
<path d="M92.0001 10.5C106 -3.5 128.7 -3.5 142.6 10.5L116 37.2L92.0001 13.3C91.3001 12.6 91.3001 11.3 92.0001 10.5Z" fill="#FCD3C1"/>
<path d="M120.9 26C122.5 27.6 122.5 30.4 120.9 32.2L112.9 40.2C111.3 41.8 108.5 41.8 106.7 40.2C105.1 38.6 105.1 35.8 106.7 34L114.7 26C116.5 24.4 119.2 24.4 120.9 26Z" fill="#FCD3C1"/>
<path d="M109.8 31.3L79 0.5L48.2 31.3L79 62L109.8 31.3Z" fill="#205CAA"/>
<path d="M82.6 158.6H39V202.1H82.6V158.6V158.6Z" fill="#91BDE5"/>
<path d="M90.6 71.8H20V115.3H90.6V71.8Z" fill="#91BDE5"/>
<path d="M96.6 200.1H26V243.6H96.6V200.1Z" fill="#205CAA"/>
<path d="M74.9 158.6H47.7C35.6 158.6 26 148.8 26 136.9C26 124.8 35.8 115.2 47.7 115.2H74.8C86.9 115.2 96.5 125 96.5 136.9C96.6 148.8 86.8 158.6 74.9 158.6Z" fill="#8D9FD1"/>
<path d="M88.8999 34.2C87.0999 36 81.7999 41.4 81.7999 41.4C80.9999 42.2 79.7999 43 78.6999 43C77.4999 43 76.2999 42.3 75.1999 41.4C72.4999 39 69.9999 36.6 67.6999 34.2C64.5999 30.9 64.3999 25.8 67.6999 22.5C70.2999 19.9 74.1999 20.1 77.1999 22.5C77.9999 23.2 78.6999 23.3 79.5999 22.5C82.1999 20.1 86.2999 19.9 88.6999 22.5C92.2999 25.9 92.0999 30.9 88.8999 34.2Z" fill="#F37972"/>
<path d="M18.1 295.9H372.9C382.8 295.9 391 287.8 391 277.8V261.8C391 251.9 382.8 243.7 372.9 243.7H18.1C8.2 243.8 0 252 0 261.9V277.9C0 287.8 8.2 295.9 18.1 295.9Z" fill="#FCD3C1"/>
<path d="M116.1 374.5H293.5C298.5 374.5 302.6 370.4 302.6 365.5V357.5C302.6 352.5 298.5 348.5 293.5 348.5H116.1C111.1 348.5 107 352.6 107 357.5V365.5C107.1 370.4 111.1 374.5 116.1 374.5Z" fill="#FCD3C1"/>
<path d="M43.2 252.9V430.3C43.2 435.3 47.3 439.4 52.2 439.4H60.2C65.2 439.4 69.1999 435.3 69.1999 430.3V252.9C69.1999 247.9 65.1 243.8 60.2 243.8H52.2C47.3 243.8 43.2 247.9 43.2 252.9Z" fill="#FCD3C1"/>
<path d="M332.2 252.9V430.3C332.2 435.3 336.3 439.4 341.2 439.4H349.2C354.2 439.4 358.2 435.3 358.2 430.3V252.9C358.2 247.9 354.1 243.8 349.2 243.8H341.2C336.2 243.8 332.2 247.9 332.2 252.9Z" fill="#FCD3C1"/>
<path d="M245.2 362.9V430.3C245.2 435.3 249.3 439.4 254.2 439.4H262.2C267.2 439.4 271.2 435.3 271.2 430.3V362.9C271.2 357.9 267.1 353.8 262.2 353.8H254.2C249.2 353.8 245.2 357.9 245.2 362.9Z" fill="#FCD3C1"/>
<path d="M148.8 362.9V430.3C148.8 435.3 152.9 439.4 157.8 439.4H165.8C170.8 439.4 174.8 435.3 174.8 430.3V362.9C174.8 357.9 170.7 353.8 165.8 353.8H157.8C152.9 353.8 148.8 357.9 148.8 362.9Z" fill="#FCD3C1"/>
</g>
<defs>
<clipPath id="clip0">
<rect width="391" height="439.3" fill="white"/>
</clipPath>
</defs>
</svg>
