<svg width="196" height="92" viewBox="0 0 196 92" fill="none" xmlns="http://www.w3.org/2000/svg">
<path d="M9.10001 26.5H186.5C191.5 26.5 195.6 22.4 195.6 17.5V9.5C195.6 4.5 191.5 0.5 186.5 0.5H9.10001C4.10001 0.5 0 4.6 0 9.5V17.5C0.1 22.4 4.10001 26.5 9.10001 26.5Z" fill="#FCD3C1"/>
<path d="M138.2 14.9001V82.3C138.2 87.3 142.3 91.4001 147.2 91.4001H155.2C160.2 91.4001 164.2 87.3 164.2 82.3V14.9001C164.2 9.90005 160.1 5.80005 155.2 5.80005H147.2C142.2 5.80005 138.2 9.90005 138.2 14.9001Z" fill="#FCD3C1"/>
<path d="M41.8 14.9001V82.3C41.8 87.3 45.9 91.4001 50.8 91.4001H58.8C63.8 91.4001 67.8 87.3 67.8 82.3V14.9001C67.8 9.90005 63.7 5.80005 58.8 5.80005H50.8C45.9 5.80005 41.8 9.90005 41.8 14.9001Z" fill="#FCD3C1"/>
</svg>
