<svg width="152" height="160" viewBox="0 0 152 160" fill="none" xmlns="http://www.w3.org/2000/svg">
<g clip-path="url(#clip0)">
<path d="M88.8747 86.3456C86.6342 88.5851 79.9126 95.5524 79.9126 95.5524C78.9168 96.5478 77.4231 97.5431 75.9294 97.5431C74.4357 97.5431 72.942 96.7966 71.4484 95.5524C67.9631 92.5664 64.9757 89.5804 61.9883 86.3456C58.0052 82.1154 58.0052 75.6457 61.9883 71.6644C65.2247 68.4296 70.2036 68.4296 73.9378 71.6644C74.9336 72.6597 75.9294 72.6597 76.9252 71.6644C80.1615 68.6784 85.1405 68.4296 88.3768 71.6644C93.1068 75.8946 92.8578 82.3643 88.8747 86.3456Z" fill="#F37972"/>
<path d="M39.3337 160H10.4558C4.73 160 0 155.272 0 149.549V43.2973C0 37.5742 4.73 32.8463 10.4558 32.8463H39.3337C45.0595 32.8463 49.7895 37.5742 49.7895 43.2973V149.549C49.7895 155.272 45.0595 160 39.3337 160Z" fill="#E8E6F3"/>
<path d="M139.411 160H113.023C106.55 160 101.322 154.774 101.322 148.305V11.6952C101.322 5.2255 106.55 0 113.023 0H139.411C145.884 0 151.112 5.2255 151.112 11.6952V148.305C151.112 154.774 145.884 160 139.411 160Z" fill="#E8E6F3"/>
<path d="M114.267 36.0808C117.254 36.0808 120.242 33.3436 119.993 30.3576C119.744 27.1227 117.503 24.6344 114.267 24.6344C111.28 24.6344 108.292 27.3716 108.541 30.3576C108.79 33.5924 111.031 36.0808 114.267 36.0808Z" fill="#8C9FD1"/>
<path d="M119.993 51.2599C120.242 50.5134 120.242 49.5181 119.744 48.7716C119.246 47.7762 118.499 47.2786 117.503 47.0297C115.761 46.5321 114.018 47.5274 113.271 49.2692C112.275 52.2552 110.284 54.9924 107.794 57.2319C106.55 58.2272 105.305 59.2226 103.811 59.9691C103.064 60.4667 102.317 60.7156 101.82 60.9644C101.571 60.9644 101.322 61.2132 101.073 61.2132V68.4294C109.786 66.1899 117.005 59.7202 119.993 51.2599Z" fill="#8C9FD1"/>
<path d="M36.5985 64.4476C33.6111 64.4476 30.6238 61.7104 30.8727 58.7244C31.1217 55.4896 33.3622 53.0012 36.5985 53.0012C39.5859 53.0012 42.5732 55.7384 42.3243 58.7244C42.3243 61.7104 39.8348 64.4476 36.5985 64.4476Z" fill="#8C9FD1"/>
<path d="M30.8698 79.3778C30.6209 78.6313 30.6209 77.636 31.1188 76.8895C31.6167 75.8941 32.3635 75.3965 33.3593 75.1476C35.1019 74.65 36.8446 75.6453 37.5914 77.3871C38.5872 80.3731 40.5788 83.1103 43.0682 85.3498C44.313 86.3452 45.5577 87.3405 47.0514 88.087C47.7982 88.5847 48.5451 88.8335 49.043 89.0823C49.2919 89.0823 49.5409 89.3312 49.7898 89.3312V96.5473C41.3256 94.3078 34.1061 87.8382 30.8698 79.3778Z" fill="#8C9FD1"/>
</g>
<defs>
<clipPath id="clip0">
<rect width="151.111" height="160" fill="white"/>
</clipPath>
</defs>
</svg>
