<svg width="76" height="99" viewBox="0 0 76 99" fill="none" xmlns="http://www.w3.org/2000/svg">
<g clip-path="url(#clip0)">
<path d="M42.9794 99C27.6345 99 14.7482 88.7197 11.0603 74.7201C10.3397 72.0874 9.95818 69.2875 9.95818 66.4458L9.95818 17.9696C9.95818 15.8383 10.3397 13.7488 11.0603 11.8683L12.4168 8.9848C15.596 3.63571 21.4881 -2.38467e-06 28.2703 -2.08821e-06C35.0526 -1.79175e-06 40.9447 3.63571 44.0815 8.9848C45.6499 11.6176 46.5401 14.71 46.5401 17.9696C46.5401 18.4711 46.5401 18.9308 46.4977 19.3905C46.4553 19.8084 46.4553 20.2263 46.4553 20.6442C46.4553 27.5813 50.4399 33.599 56.2472 36.6079C56.7559 36.8586 57.2645 37.1093 57.7732 37.3183C64.7674 40.7868 70.3628 46.5956 73.4148 53.7417C75.1104 57.6281 76.043 61.9325 76.043 66.4458C76.043 70.9591 75.1104 75.2216 73.4148 79.1498C68.3705 90.851 56.6711 99 42.9794 99Z" fill="#FCFCFC"/>
<path d="M19.4185 22.7945C18.7092 22.7945 18 22.2271 18 21.376V15.4185C18 14.7092 18.5674 14 19.4185 14C20.2696 14 20.8369 14.5674 20.8369 15.4185V21.376C20.8369 22.2271 20.2696 22.7945 19.4185 22.7945Z" fill="#205CAA"/>
<rect x="2" y="25" width="14" height="6" rx="3" fill="#F37972"/>
</g>
<defs>
<clipPath id="clip0">
<rect width="99" height="76" fill="white" transform="translate(76) rotate(90)"/>
</clipPath>
</defs>
</svg>
