<svg width="167" height="80" viewBox="0 0 167 80" fill="none" xmlns="http://www.w3.org/2000/svg">
<path d="M49 39.5253C49 57.8691 61.2533 73.2739 77.9396 77.6825C81.0777 78.5439 84.4149 79 87.802 79L145.582 79C148.122 79 150.612 78.5439 152.854 77.6825L156.291 76.0609C162.667 72.2604 167 65.2168 167 57.109C167 49.0013 162.667 41.9577 156.291 38.2078C153.153 36.3329 149.467 35.2688 145.582 35.2688C144.984 35.2688 144.436 35.2688 143.888 35.3194C143.39 35.3701 142.892 35.3701 142.394 35.3701C134.125 35.3701 126.953 30.6068 123.366 23.6645C123.068 23.0564 122.769 22.4484 122.52 21.8403C118.385 13.4792 111.462 6.79025 102.944 3.14176C98.3119 1.11482 93.1815 0 87.802 0C82.4225 0 77.3419 1.11482 72.6598 3.14176C58.713 9.1719 49 23.1578 49 39.5253Z" fill="#8D9FD1"/>
<path d="M99 46.0636C99 61.4085 88.7197 74.2948 74.7201 77.9827C72.0874 78.7033 69.2875 79.0848 66.4458 79.0848L17.9696 79.0848C15.8383 79.0848 13.7488 78.7033 11.8683 77.9827L8.9848 76.6262C3.63571 73.447 0 67.5549 0 60.7726C0 53.9904 3.63571 48.0983 8.9848 44.9615C11.6176 43.3931 14.71 42.5029 17.9696 42.5029C18.4711 42.5029 18.9308 42.5029 19.3905 42.5453C19.8084 42.5877 20.2263 42.5877 20.6442 42.5877C27.5813 42.5877 33.599 38.6031 36.6079 32.7958C36.8586 32.2871 37.1093 31.7784 37.3183 31.2697C40.7868 24.2755 46.5956 18.6802 53.7417 15.6281C57.6281 13.9326 61.9325 13 66.4458 13C70.9591 13 75.2216 13.9326 79.1498 15.6281C90.851 20.6724 99 32.3719 99 46.0636Z" fill="#91BDE5"/>
</svg>
