<svg width="268" height="459" viewBox="0 0 268 459" fill="none" xmlns="http://www.w3.org/2000/svg">
<rect x="23" y="267" width="69" height="175" rx="17" fill="#205CAA"/>
<rect x="100" y="267" width="69" height="175" rx="17" fill="#205CAA"/>
<path d="M195.518 17.8727V114.47C195.518 120.854 190.269 126.102 183.886 126.102H119.204C112.821 126.102 107.572 120.854 107.572 114.47L108.565 36.8802C97.2171 36.8802 87.1465 27.5183 87.1465 16.3124C87.1465 9.64559 90.2671 3.82987 95.2318 0C99.0616 3.82987 104.31 6.24126 110.126 6.24126H183.886C190.269 6.24126 195.518 11.3478 195.518 17.8727Z" fill="#205CAA"/>
<path d="M195.517 93.9026V135.322C195.517 138.159 193.248 140.428 190.411 140.428H182.184C179.347 140.428 177.077 138.159 177.077 135.322V119.151C177.077 121.988 174.808 124.258 171.971 124.258H169.559C166.722 124.258 164.453 121.988 164.453 119.151V129.932C164.453 132.769 162.183 135.038 159.346 135.038H156.935C154.098 135.038 151.829 132.769 151.829 129.932V132.627H107.856V88.6543H100.48C95.5153 88.6543 92.6784 82.6967 96.0827 78.8668L107.856 65.2495V36.7383H140.481C146.864 36.7383 151.97 41.8448 151.97 48.2279V71.4908C151.97 74.3277 154.24 76.5973 157.077 76.5973H159.488C162.325 76.5973 164.595 74.3277 164.595 71.4908V57.4479C164.595 54.611 166.864 52.3414 169.701 52.3414H172.113C174.95 52.3414 177.219 54.611 177.219 57.4479V93.9026C177.219 96.7395 179.489 99.0091 182.326 99.0091H190.553C193.106 99.0091 195.517 96.7395 195.517 93.9026Z" fill="#FCD3C1"/>
<path d="M268.001 176.458V247.948C268.001 277.594 244.029 301.567 214.382 301.567H99.4865C72.5356 301.567 50.833 279.722 50.833 252.913V204.827C50.833 177.309 63.3155 152.627 83.0323 136.173C98.4936 123.265 118.494 115.463 140.197 115.463H207.148C240.624 115.605 268.001 142.84 268.001 176.458Z" fill="#205CAA"/>
<path d="M94.2384 136.315V208.657H50.6914V204.827C50.6914 177.309 63.1739 152.628 82.8907 136.173H94.2384V136.315Z" fill="#FCD3C1"/>
<path d="M219.773 113.336C219.773 120.286 214.099 126.244 207.149 126.244H207.007C206.865 126.244 206.723 126.244 206.581 126.244C200.482 125.96 195.659 120.712 195.659 114.47V101.988H208.567C214.525 101.988 219.773 107.094 219.773 113.336Z" fill="#FCD3C1"/>
<path d="M133.104 178.301H107.147C89.983 178.301 76.082 164.4 76.082 147.237V119.577C76.082 102.413 89.983 88.5122 107.147 88.5122H133.104C150.268 88.5122 164.169 102.413 164.169 119.577V147.237C164.169 164.4 150.268 178.301 133.104 178.301Z" fill="#FCD3C1"/>
<path d="M137.502 270.219L106.012 301.709H102.182L135.658 268.233C136.225 267.665 137.076 267.665 137.643 268.233C138.069 268.8 138.069 269.651 137.502 270.219Z" fill="#8D9FD1"/>
<path d="M118.352 137.591C117.643 137.591 116.934 137.024 116.934 136.173V130.215C116.934 129.506 117.501 128.797 118.352 128.797C119.203 128.797 119.771 129.364 119.771 130.215V136.173C119.771 137.024 119.203 137.591 118.352 137.591Z" fill="#205CAA"/>
<path d="M147.431 137.591C146.722 137.591 146.013 137.024 146.013 136.173V130.215C146.013 129.506 146.58 128.797 147.431 128.797C148.282 128.797 148.85 129.364 148.85 130.215V136.173C148.708 137.024 148.14 137.591 147.431 137.591Z" fill="#205CAA"/>
<path d="M118.352 70.2144C117.643 70.2144 116.934 69.647 116.934 68.796V62.8384C116.934 62.1292 117.501 61.4199 118.352 61.4199C119.203 61.4199 119.771 61.9873 119.771 62.8384V68.796C119.771 69.647 119.203 70.2144 118.352 70.2144Z" fill="#205CAA"/>
<path d="M132.537 160.429C127.714 160.429 123.175 158.868 119.346 156.031C115.658 153.194 112.821 149.365 111.544 144.967C111.26 144.258 111.686 143.549 112.395 143.265C113.104 142.981 113.813 143.407 114.097 144.116C115.232 147.946 117.785 151.492 121.048 153.904C124.452 156.457 128.424 157.734 132.679 157.734C136.935 157.734 140.906 156.457 144.311 153.904C147.573 151.492 149.984 147.946 151.261 144.116C151.545 143.407 152.254 142.981 152.963 143.265C153.672 143.549 154.098 144.258 153.814 144.967C152.396 149.365 149.701 153.336 146.013 156.031C141.899 158.868 137.36 160.429 132.537 160.429Z" fill="#205CAA"/>
<path d="M220.199 214.614C218.355 216.458 212.823 222.132 212.823 222.132C211.972 222.983 210.695 223.834 209.56 223.834C208.284 223.834 207.007 223.125 205.872 222.132C203.035 219.579 200.482 217.167 198.071 214.614C194.808 211.21 194.666 205.82 198.071 202.415C200.766 199.72 204.879 199.862 208 202.415C208.851 203.124 209.56 203.266 210.553 202.415C213.248 199.862 217.504 199.72 220.057 202.415C223.745 205.961 223.603 211.21 220.199 214.614Z" fill="#F37972"/>
<path d="M146.863 94.0443C146.863 100.144 141.899 105.108 135.799 105.108H122.891C118.352 105.108 114.664 101.42 114.664 96.8812C114.664 92.3421 118.352 88.6541 122.891 88.6541H134.523C137.643 88.6541 140.48 87.3775 142.466 85.3916C145.161 87.3775 146.863 90.4981 146.863 94.0443Z" fill="#205CAA"/>
<path d="M95.6568 142.556C93.2454 142.556 91.4014 140.57 91.4014 138.3V128.939C91.4014 126.527 93.3872 124.683 95.6568 124.683C96.366 124.683 97.0752 125.25 97.0752 126.102C97.0752 126.953 96.5079 127.52 95.6568 127.52C94.8057 127.52 94.0965 128.229 94.0965 129.08V138.442C94.0965 139.293 94.8057 140.003 95.6568 140.003C96.366 140.003 97.0752 140.57 97.0752 141.421C97.0752 142.272 96.5079 142.556 95.6568 142.556Z" fill="#205CAA"/>
<path d="M0 440C0 431.163 7.16344 424 16 424H92V451C92 455.418 88.4183 459 84 459H8C3.58172 459 0 455.418 0 451V440Z" fill="#91BDE5"/>
<path d="M77 440C77 431.163 84.1634 424 93 424H169V451C169 455.418 165.418 459 161 459H85C80.5817 459 77 455.418 77 451V440Z" fill="#91BDE5"/>
</svg>
