<svg width="82" height="124" viewBox="0 0 82 124" fill="none" xmlns="http://www.w3.org/2000/svg">
<g clip-path="url(#clip0)">
<path d="M53.6339 16.4044C51.4886 18.5757 45.0525 25.3305 45.0525 25.3305C44.0991 26.2955 42.6688 27.2605 41.2386 27.2605C39.8084 27.2605 38.3781 26.5367 36.9479 25.3305C33.6107 22.4356 30.7502 19.5406 27.8898 16.4044C24.0758 12.3033 24.0758 6.03091 27.8898 2.17099C30.9886 -0.965199 35.756 -0.965199 39.3316 2.17099C40.2851 3.13597 41.2386 3.13597 42.1921 2.17099C45.2909 -0.723954 50.0584 -0.965199 53.1572 2.17099C57.6863 6.27215 57.6863 12.5445 53.6339 16.4044Z" fill="#F37972"/>
<path d="M41 124C63.6437 124 82 105.422 82 82.5059C82 59.5893 63.6437 41.0117 41 41.0117C18.3563 41.0117 0 59.5893 0 82.5059C0 105.422 18.3563 124 41 124Z" fill="#E8E6F3"/>
<path d="M26.4594 78.8868C29.3198 78.8868 32.1803 76.2331 31.9419 73.3382C31.7036 70.4432 29.5582 67.7896 26.4594 67.7896C23.5989 67.7896 20.7385 70.4432 20.9768 73.3382C21.2152 76.2331 23.5989 78.8868 26.4594 78.8868Z" fill="#8C9FD1"/>
<path d="M55.3022 78.8868C58.1626 78.8868 61.0231 76.2331 60.7847 73.3382C60.5463 70.4432 58.401 67.7896 55.3022 67.7896C52.4417 67.7896 49.5812 70.4432 49.8196 73.3382C50.058 76.2331 52.2033 78.8868 55.3022 78.8868Z" fill="#8C9FD1"/>
<path d="M26.4595 93.3615C30.5119 97.2214 35.9944 99.3926 41.477 99.1514C46.7212 98.9101 51.9653 97.4627 55.5409 93.3615C56.256 92.3965 56.4944 91.1903 55.5409 90.2253C54.8258 89.5016 53.1572 89.2604 52.4421 90.2253C49.5816 93.3615 45.5293 94.5677 41.477 94.809C37.1863 95.0502 32.8956 93.3615 29.5584 90.4666C27.413 88.0541 24.3142 91.1903 26.4595 93.3615Z" fill="#8C9FD1"/>
</g>
<defs>
<clipPath id="clip0">
<rect width="82" height="124" fill="white"/>
</clipPath>
</defs>
</svg>
