<svg width="354" height="459" viewBox="0 0 354 459" fill="none" xmlns="http://www.w3.org/2000/svg">
<rect x="104" y="267" width="69" height="175" rx="17" fill="#205CAA"/>
<rect x="181" y="267" width="69" height="175" rx="17" fill="#205CAA"/>
<rect x="180" y="284" width="46" height="34" fill="#205CAA"/>
<path d="M28.745 347.099H337.262C345.915 347.099 353.007 340.007 353.007 331.354V317.453C353.007 308.8 345.915 301.708 337.262 301.708H28.745C20.0923 301.708 13 308.8 13 317.453V331.354C13 340.007 20.0923 347.099 28.745 347.099Z" fill="#FCD3C1"/>
<path d="M276.518 17.8727V114.47C276.518 120.854 271.269 126.102 264.886 126.102H200.204C193.821 126.102 188.572 120.854 188.572 114.47L189.565 36.8802C178.217 36.8802 168.146 27.5183 168.146 16.3124C168.146 9.64559 171.267 3.82987 176.232 0C180.062 3.82987 185.31 6.24126 191.126 6.24126H264.886C271.269 6.24126 276.518 11.3478 276.518 17.8727Z" fill="#205CAA"/>
<path d="M276.517 93.9026V135.322C276.517 138.159 274.248 140.428 271.411 140.428H263.184C260.347 140.428 258.077 138.159 258.077 135.322V119.151C258.077 121.988 255.808 124.258 252.971 124.258H250.559C247.722 124.258 245.453 121.988 245.453 119.151V129.932C245.453 132.769 243.183 135.038 240.346 135.038H237.935C235.098 135.038 232.829 132.769 232.829 129.932V132.627H188.856V88.6543H181.48C176.515 88.6543 173.678 82.6967 177.083 78.8668L188.856 65.2495V36.7383H221.481C227.864 36.7383 232.97 41.8448 232.97 48.2279V71.4908C232.97 74.3277 235.24 76.5973 238.077 76.5973H240.488C243.325 76.5973 245.595 74.3277 245.595 71.4908V57.4479C245.595 54.611 247.864 52.3414 250.701 52.3414H253.113C255.95 52.3414 258.219 54.611 258.219 57.4479V93.9026C258.219 96.7395 260.489 99.0091 263.326 99.0091H271.553C274.106 99.0091 276.517 96.7395 276.517 93.9026Z" fill="#FCD3C1"/>
<path d="M349.001 176.458V247.948C349.001 277.594 325.029 301.567 295.382 301.567H180.486C153.536 301.567 131.833 279.722 131.833 252.913V204.827C131.833 177.309 144.316 152.627 164.032 136.173C179.494 123.265 199.494 115.463 221.197 115.463H288.148C321.624 115.605 349.001 142.84 349.001 176.458Z" fill="#205CAA"/>
<path d="M175.238 136.315V208.657H131.691V204.827C131.691 177.309 144.174 152.628 163.891 136.173H175.238V136.315Z" fill="#FCD3C1"/>
<path d="M224.256 232.213L198.109 250.479L204.656 259.852C208.677 265.608 216.498 266.996 222.254 262.976C226.53 259.989 228.449 254.855 227.427 250.064C228.576 251.708 230.95 252.13 232.734 251.006C234.379 249.857 234.8 247.483 233.676 245.698L224.256 232.213Z" fill="#FCD3C1"/>
<path d="M300.773 113.336C300.773 120.286 295.099 126.244 288.149 126.244H288.007C287.865 126.244 287.723 126.244 287.581 126.244C281.482 125.96 276.659 120.712 276.659 114.47V101.988H289.567C295.525 101.988 300.773 107.094 300.773 113.336Z" fill="#FCD3C1"/>
<path d="M174.246 244.686C173.962 244.686 173.536 244.544 173.253 244.261C172.685 243.693 172.685 242.842 173.253 242.275L186.019 229.509C186.586 228.941 187.437 228.941 188.005 229.509C188.572 230.076 188.572 230.927 188.005 231.494L175.239 244.261C174.955 244.686 174.671 244.686 174.246 244.686Z" fill="#8D9FD1"/>
<path d="M224.256 232.214L198.108 250.479L157.442 192.263C148.711 179.764 151.736 162.725 164.234 153.995L167.852 151.468L220.465 226.787L224.256 232.214Z" fill="#8D9FD1"/>
<path d="M214.104 178.301H188.147C170.983 178.301 157.082 164.4 157.082 147.237V119.577C157.082 102.413 170.983 88.5122 188.147 88.5122H214.104C231.268 88.5122 245.169 102.413 245.169 119.577V147.237C245.169 164.4 231.268 178.301 214.104 178.301Z" fill="#FCD3C1"/>
<path d="M218.502 270.219L187.012 301.709H183.182L216.658 268.233C217.225 267.665 218.076 267.665 218.643 268.233C219.069 268.8 219.069 269.651 218.502 270.219Z" fill="#8D9FD1"/>
<path d="M199.352 137.591C198.643 137.591 197.934 137.024 197.934 136.173V130.215C197.934 129.506 198.501 128.797 199.352 128.797C200.203 128.797 200.771 129.364 200.771 130.215V136.173C200.771 137.024 200.203 137.591 199.352 137.591Z" fill="#205CAA"/>
<path d="M228.431 137.591C227.722 137.591 227.013 137.024 227.013 136.173V130.215C227.013 129.506 227.58 128.797 228.431 128.797C229.282 128.797 229.85 129.364 229.85 130.215V136.173C229.708 137.024 229.14 137.591 228.431 137.591Z" fill="#205CAA"/>
<path d="M199.352 70.2144C198.643 70.2144 197.934 69.647 197.934 68.796V62.8384C197.934 62.1292 198.501 61.4199 199.352 61.4199C200.203 61.4199 200.771 61.9873 200.771 62.8384V68.796C200.771 69.647 200.203 70.2144 199.352 70.2144Z" fill="#205CAA"/>
<path d="M213.537 160.429C208.714 160.429 204.175 158.868 200.346 156.031C196.658 153.194 193.821 149.365 192.544 144.967C192.26 144.258 192.686 143.549 193.395 143.265C194.104 142.981 194.813 143.407 195.097 144.116C196.232 147.946 198.785 151.492 202.048 153.904C205.452 156.457 209.424 157.734 213.679 157.734C217.935 157.734 221.906 156.457 225.311 153.904C228.573 151.492 230.984 147.946 232.261 144.116C232.545 143.407 233.254 142.981 233.963 143.265C234.672 143.549 235.098 144.258 234.814 144.967C233.396 149.365 230.701 153.336 227.013 156.031C222.899 158.868 218.36 160.429 213.537 160.429Z" fill="#205CAA"/>
<path d="M301.199 214.614C299.355 216.458 293.823 222.132 293.823 222.132C292.972 222.983 291.695 223.834 290.56 223.834C289.284 223.834 288.007 223.125 286.872 222.132C284.035 219.579 281.482 217.167 279.071 214.614C275.808 211.21 275.666 205.82 279.071 202.415C281.766 199.72 285.879 199.862 289 202.415C289.851 203.124 290.56 203.266 291.553 202.415C294.248 199.862 298.504 199.72 301.057 202.415C304.745 205.961 304.603 211.21 301.199 214.614Z" fill="#F37972"/>
<path d="M227.863 94.0443C227.863 100.144 222.899 105.108 216.799 105.108H203.891C199.352 105.108 195.664 101.42 195.664 96.8812C195.664 92.3421 199.352 88.6541 203.891 88.6541H215.523C218.643 88.6541 221.48 87.3775 223.466 85.3916C226.161 87.3775 227.863 90.4981 227.863 94.0443Z" fill="#205CAA"/>
<path d="M176.657 142.556C174.245 142.556 172.401 140.57 172.401 138.3V128.939C172.401 126.527 174.387 124.683 176.657 124.683C177.366 124.683 178.075 125.25 178.075 126.102C178.075 126.953 177.508 127.52 176.657 127.52C175.806 127.52 175.096 128.229 175.096 129.08V138.442C175.096 139.293 175.806 140.003 176.657 140.003C177.366 140.003 178.075 140.57 178.075 141.421C178.075 142.272 177.508 142.556 176.657 142.556Z" fill="#205CAA"/>
<path d="M5.68715 296.568C13.205 304.086 25.4039 304.086 32.9218 296.568L48.8086 280.539C54.4825 274.866 54.4825 265.787 48.8086 260.255C43.1347 254.582 34.0565 254.582 28.5245 260.255L14.198 274.582C10.3681 278.412 5.26161 280.398 0.155121 280.398C-0.554114 286.072 1.14805 292.171 5.68715 296.568Z" fill="#91BDE5"/>
<path d="M41.8579 267.915C42.6413 267.915 43.2764 267.28 43.2764 266.497C43.2764 265.713 42.6413 265.078 41.8579 265.078C41.0745 265.078 40.4395 265.713 40.4395 266.497C40.4395 267.28 41.0745 267.915 41.8579 267.915Z" fill="white"/>
<path d="M48.8086 260.256L55.0499 259.546L52.0711 265.078L48.8086 260.256Z" fill="#205CAA"/>
<path d="M36.4678 290.327V302.242" stroke="#8D9FD1" stroke-miterlimit="10"/>
<path d="M28.9492 290.327V302.242" stroke="#8D9FD1" stroke-miterlimit="10"/>
<rect x="28" y="343" width="20" height="116" rx="4" fill="#FCD3C1"/>
<rect x="321" y="343" width="20" height="116" rx="4" fill="#FCD3C1"/>
<path d="M81 440C81 431.163 88.1634 424 97 424H173V451C173 455.418 169.418 459 165 459H89C84.5817 459 81 455.418 81 451V440Z" fill="#91BDE5"/>
<path d="M158 440C158 431.163 165.163 424 174 424H250V451C250 455.418 246.418 459 242 459H166C161.582 459 158 455.418 158 451V440Z" fill="#91BDE5"/>
</svg>
