<svg width="88" height="89" viewBox="0 0 88 89" fill="none" xmlns="http://www.w3.org/2000/svg">
<path d="M22.7357 67.2574C35.1938 79.0013 54.8134 78.4224 66.5573 65.9643C78.3012 53.5062 77.7222 33.8866 65.2641 22.1427C52.8061 10.3988 33.1865 10.9778 21.4426 23.4359C9.6987 35.894 10.2777 55.5135 22.7357 67.2574Z" fill="#205CAA"/>
<path d="M51.2438 55.2392C48.2752 55.3268 39.3737 55.731 39.3737 55.731C37.9601 55.7727 36.3241 55.4673 35.3781 54.5755C34.3594 53.6152 33.8167 52.0042 33.6252 50.312C33.286 46.0068 33.0278 42.0529 33.0524 38.0907C32.9666 32.7876 37.0781 28.2803 42.5184 28.049C46.7592 27.9239 50.1106 31.2205 50.6681 35.7315C50.847 36.9996 51.292 37.6939 52.7783 37.7208C56.9505 37.6684 60.5846 40.9567 60.5643 45.0604C60.808 50.9247 56.6155 55.0807 51.2438 55.2392Z" fill="#F37972"/>
</svg>
