<svg width="174" height="128" viewBox="0 0 174 128" fill="none" xmlns="http://www.w3.org/2000/svg">
<path d="M115.162 79.162C112.54 76.5397 112.54 72.2881 115.162 69.6658C117.785 67.0434 122.036 67.0434 124.658 69.6658L168.748 113.756C171.371 116.378 171.371 120.63 168.748 123.252C166.126 125.874 161.874 125.874 159.252 123.252L115.162 79.162Z" fill="#FCD3C1"/>
<path d="M17.3887 13.5338C18.604 5.74365 25.3131 0 33.1975 0H144.81C154.63 0 162.133 8.76376 160.619 18.4662L146.111 111.466C144.896 119.256 138.187 125 130.302 125H18.6895C8.86975 125 1.36715 116.236 2.88072 106.534L17.3887 13.5338Z" fill="#FCD3C1"/>
<path d="M27.6852 24.2456C29.0235 16.5878 35.6725 11 43.4464 11H129.961C139.899 11 147.433 19.9647 145.723 29.7544L133.315 100.754C131.977 108.412 125.328 114 117.554 114H31.0386C21.1006 114 13.5667 105.035 15.2775 95.2456L27.6852 24.2456Z" fill="white"/>
<rect x="89.8125" y="100.327" width="15.9737" height="34.7064" rx="7.98683" transform="rotate(-90 89.8125 100.327)" fill="#FCD3C1"/>
<rect x="52.834" y="97.8816" width="15.9737" height="34.7064" rx="7.98683" transform="rotate(-150 52.834 97.8816)" fill="#FCD3C1"/>
<rect x="52.0449" y="75.8826" width="37.6851" height="54.4417" rx="16" transform="rotate(-60 52.0449 75.8826)" fill="#8D9FD1"/>
<rect x="72.5361" y="107.733" width="15.9737" height="34.7064" rx="7.98683" transform="rotate(-150 72.5361 107.733)" fill="#FCD3C1"/>
<rect x="75.8672" y="101.963" width="15.9737" height="28.0436" transform="rotate(-150 75.8672 101.963)" fill="#8D9FD1"/>
<rect x="56.4629" y="91.593" width="15.9737" height="28.0436" transform="rotate(-150 56.4629 91.593)" fill="#8D9FD1"/>
<path d="M55.9505 71.602H68.1022C76.1195 71.602 82.5908 65.0968 82.5908 57.118V44.1794C82.5908 36.1646 76.0835 29.6953 68.1022 29.6953H55.9505C47.9333 29.6953 41.4619 36.2006 41.4619 44.1794V57.118C41.4619 65.0968 47.9692 71.602 55.9505 71.602Z" fill="#FCD3C1"/>
<path d="M62.8167 52.5535C63.1763 52.5535 63.4639 52.266 63.4639 51.9066V49.1391C63.4639 48.7797 63.1763 48.4922 62.8167 48.4922C62.4572 48.4922 62.1696 48.7797 62.1696 49.1391V51.9066C62.2055 52.266 62.4932 52.5535 62.8167 52.5535Z" fill="#205CAA"/>
<path d="M49.2982 52.5535C49.6577 52.5535 49.9453 52.266 49.9453 51.9066V49.1391C49.9453 48.7797 49.6577 48.4922 49.2982 48.4922C48.9387 48.4922 48.6511 48.7797 48.6511 49.1391V51.9066C48.6511 52.266 48.9387 52.5535 49.2982 52.5535Z" fill="#205CAA"/>
<path d="M56.2373 63.2278C58.4663 63.2278 60.6234 62.5089 62.421 61.1791C64.1467 59.8853 65.4409 58.0523 66.0881 55.9678C66.1959 55.6443 66.0162 55.2849 65.6566 55.1771C65.3331 55.0693 64.9736 55.2489 64.8657 55.6084C64.2905 57.4054 63.176 59.0227 61.63 60.1728C60.0481 61.3589 58.1787 61.9698 56.2373 61.9698C54.2959 61.9698 52.3904 61.3589 50.8445 60.1728C49.3345 59.0227 48.184 57.4054 47.6088 55.6084C47.501 55.2849 47.1414 55.0693 46.8179 55.1771C46.4943 55.2849 46.2786 55.6443 46.3865 55.9678C47.0336 58.0164 48.3279 59.8853 50.0535 61.1791C51.8511 62.5089 53.9723 63.2278 56.2373 63.2278Z" fill="#205CAA"/>
<path d="M49.479 32.211C49.479 35.0503 51.7799 37.3505 54.6201 37.3505H60.66C62.7811 37.3505 64.5068 35.6253 64.5068 33.5048C64.5068 31.3844 62.7811 29.6592 60.66 29.6592H55.2313C53.7572 29.6592 52.463 29.0482 51.4923 28.1138C50.3059 29.0842 49.479 30.5577 49.479 32.211Z" fill="#205CAA"/>
<path d="M73.4222 54.8896C74.5368 54.8896 75.4355 53.9911 75.4355 52.8769V48.4922C75.4355 47.378 74.5368 46.4795 73.4222 46.4795C73.0627 46.4795 72.7751 46.767 72.7751 47.1264C72.7751 47.4858 73.0627 47.7734 73.4222 47.7734C73.8177 47.7734 74.1772 48.0968 74.1772 48.5281V52.9129C74.1772 53.3082 73.8537 53.6676 73.4222 53.6676C73.0627 53.6676 72.7751 53.9552 72.7751 54.3146C72.7751 54.674 73.0627 54.8896 73.4222 54.8896Z" fill="#205CAA"/>
</svg>
