<svg width="139" height="148" viewBox="0 0 139 148" fill="none" xmlns="http://www.w3.org/2000/svg">
<path d="M81.8739 75.7261C79.7923 77.7977 73.5477 84.2424 73.5477 84.2424C72.6226 85.1631 71.2349 86.0838 69.8472 86.0838C68.4595 86.0838 67.0719 85.3933 65.6842 84.2424C62.4462 81.4804 59.6709 78.7183 56.8955 75.7261C53.195 71.8132 53.195 65.8288 56.8955 62.146C59.9021 59.1538 64.5278 59.1538 67.997 62.146C68.9221 63.0667 69.8472 63.0667 70.7724 62.146C73.779 59.384 78.4046 59.1538 81.4113 62.146C85.8056 66.0589 85.5744 71.8132 81.8739 75.7261Z" fill="#F37972"/>
<path d="M128.13 148H103.383C97.3696 148 92.5127 143.166 92.5127 137.182V10.818C92.5127 4.83359 97.3696 0 103.383 0H127.899C133.912 0 138.769 4.83359 138.769 10.818V137.182C139 143.166 134.143 148 128.13 148Z" fill="#E8E6F3"/>
<path d="M104.77 33.3747C107.546 33.3747 110.321 30.8429 110.09 28.0808C109.859 25.0886 107.777 22.7869 104.77 22.7869C101.995 22.7869 99.2197 25.3187 99.451 28.0808C99.6823 31.073 101.764 33.3747 104.77 33.3747Z" fill="#8C9FD1"/>
<path d="M110.09 47.4154C110.321 46.7249 110.321 45.8042 109.859 45.1137C109.396 44.193 108.702 43.7327 107.777 43.5025C106.158 43.0422 104.539 43.9629 103.845 45.5741C102.92 48.3361 101.07 50.868 98.7573 52.9395C97.6009 53.8602 96.4445 54.7809 95.0568 55.4714C94.3629 55.9318 93.6691 56.1619 93.2065 56.3921C92.9753 56.3921 92.744 56.6223 92.5127 56.6223V63.2972C100.608 61.2257 107.315 55.2413 110.09 47.4154Z" fill="#8C9FD1"/>
<path d="M10.8702 148H35.386C41.3993 148 46.2562 143.166 46.2562 137.182V10.818C46.2562 4.83359 41.3993 0 35.386 0H10.8702C4.8569 0 0 4.83359 0 10.818V137.182C0 143.166 4.8569 148 10.8702 148Z" fill="#E8E6F3"/>
<path d="M33.998 33.3747C31.2227 33.3747 28.4473 30.8429 28.6786 28.0808C28.9098 25.0886 30.9914 22.7869 33.998 22.7869C36.7734 22.7869 39.5488 25.3187 39.3175 28.0808C39.3175 31.073 37.0047 33.3747 33.998 33.3747Z" fill="#8C9FD1"/>
<path d="M28.6793 47.4154C28.448 46.7249 28.448 45.8042 28.9105 45.1137C29.3731 44.193 30.0669 43.7327 30.9921 43.5025C32.611 43.0422 34.23 43.9629 34.9239 45.5741C35.849 48.3361 37.6992 50.868 40.012 52.9395C41.1684 53.8602 42.3249 54.7809 43.7125 55.4714C44.4064 55.9318 45.1002 56.1619 45.5628 56.3921C45.7941 56.3921 46.0254 56.6223 46.2566 56.6223V63.2972C38.3931 61.2257 31.6859 55.2413 28.6793 47.4154Z" fill="#8C9FD1"/>
</svg>
