<svg width="99" height="67" viewBox="0 0 99 67" fill="none" xmlns="http://www.w3.org/2000/svg">
<path d="M99 33.0636C99 48.4085 88.7197 61.2948 74.7201 64.9827C72.0874 65.7033 69.2875 66.0848 66.4458 66.0848L17.9696 66.0848C15.8383 66.0848 13.7488 65.7033 11.8683 64.9827L8.9848 63.6262C3.63571 60.447 0 54.5549 0 47.7726C0 40.9904 3.63571 35.0983 8.9848 31.9615C11.6176 30.3931 14.71 29.5029 17.9696 29.5029C18.4711 29.5029 18.9308 29.5029 19.3905 29.5453C19.8084 29.5877 20.2263 29.5877 20.6442 29.5877C27.5813 29.5877 33.599 25.6031 36.6079 19.7958C36.8586 19.2871 37.1093 18.7784 37.3183 18.2697C40.7868 11.2755 46.5956 5.68015 53.7417 2.62813C57.6281 0.932563 61.9325 0 66.4458 0C70.9591 0 75.2216 0.932563 79.1498 2.62813C90.851 7.67245 99 19.3719 99 33.0636Z" fill="#91BDE5"/>
</svg>
