<svg width="118" height="79" viewBox="0 0 118 79" fill="none" xmlns="http://www.w3.org/2000/svg">
<path d="M0 39.5253C0 57.8691 12.2533 73.2739 28.9396 77.6825C32.0777 78.5439 35.4149 79 38.802 79L96.5817 79C99.122 79 101.612 78.5439 103.854 77.6825L107.291 76.0609C113.667 72.2604 118 65.2168 118 57.109C118 49.0013 113.667 41.9577 107.291 38.2078C104.153 36.3329 100.467 35.2688 96.5817 35.2688C95.984 35.2688 95.436 35.2688 94.8881 35.3194C94.39 35.3701 93.8919 35.3701 93.3938 35.3701C85.1254 35.3701 77.9527 30.6068 74.3664 23.6645C74.0675 23.0564 73.7687 22.4484 73.5196 21.8403C69.3854 13.4792 62.4618 6.79025 53.9443 3.14176C49.3119 1.11482 44.1815 0 38.802 0C33.4225 0 28.3419 1.11482 23.6598 3.14176C9.71296 9.1719 0 23.1578 0 39.5253Z" fill="#8D9FD1"/>
</svg>
