<svg width="138" height="137" viewBox="0 0 138 137" fill="none" xmlns="http://www.w3.org/2000/svg">
<path d="M118.168 67.2721C100.479 84.8688 75.4279 90.7162 52.849 84.7049C46.8061 62.2444 52.6842 37.3248 70.3737 19.7281C88.0632 2.07674 113.114 -3.71598 135.693 2.29533C141.736 24.7558 135.858 49.6754 118.168 67.2721Z" fill="#8D9FD1"/>
<path d="M39.1151 48.0904C49.3332 58.255 52.7393 72.6821 49.2233 85.6337C36.2034 89.0766 21.7003 85.743 11.4272 75.5784C1.20901 65.4139 -2.14211 50.9867 1.31888 38.0351C14.3937 34.5376 28.842 37.9258 39.1151 48.0904Z" fill="#8D9FD1"/>
<path d="M65.5 80L110.5 27" stroke="#91BDE5" stroke-width="2" stroke-linecap="round"/>
<path d="M38 79L16.5 54.5" stroke="#91BDE5" stroke-width="2" stroke-linecap="round"/>
<path d="M2 81H113.75V110.85C113.75 124.95 102.35 136.35 88.25 136.35H27.65C13.55 136.35 2.15001 124.95 2.15001 110.85V81H2Z" fill="#FCD3C1"/>
</svg>
