<svg width="302" height="197" viewBox="0 0 302 197" fill="none" xmlns="http://www.w3.org/2000/svg">
<rect x="226.332" y="180.477" width="34.6907" height="75.3735" rx="16" transform="rotate(-90 226.332 180.477)" fill="#FCD3C1"/>
<rect x="146.024" y="175.165" width="34.6907" height="75.3735" rx="16" transform="rotate(-150 146.024 175.165)" fill="#FCD3C1"/>
<rect x="144.312" y="127.389" width="81.8425" height="118.233" rx="16" transform="rotate(-60 144.312 127.389)" fill="#8D9FD1"/>
<rect x="188.813" y="196.559" width="34.6907" height="75.3735" rx="16" transform="rotate(-150 188.813 196.559)" fill="#FCD3C1"/>
<rect x="196.048" y="184.028" width="34.6907" height="60.9036" transform="rotate(-150 196.048 184.028)" fill="#8D9FD1"/>
<rect x="153.907" y="161.508" width="34.6907" height="60.9036" transform="rotate(-150 153.907 161.508)" fill="#8D9FD1"/>
<path d="M152.794 118.092H179.185C196.596 118.092 210.65 103.964 210.65 86.636V58.5367C210.65 41.1307 196.518 27.0811 179.185 27.0811H152.794C135.383 27.0811 121.329 41.2088 121.329 58.5367V86.636C121.329 103.964 135.461 118.092 152.794 118.092Z" fill="#FCD3C1"/>
<path d="M167.707 76.7232C168.488 76.7232 169.112 76.0988 169.112 75.3183V69.308C169.112 68.5275 168.488 67.9031 167.707 67.9031C166.926 67.9031 166.301 68.5275 166.301 69.308V75.3183C166.38 76.0988 167.004 76.7232 167.707 76.7232Z" fill="#205CAA"/>
<path d="M138.35 76.7232C139.131 76.7232 139.756 76.0988 139.756 75.3183V69.308C139.756 68.5275 139.131 67.9031 138.35 67.9031C137.57 67.9031 136.945 68.5275 136.945 69.308V75.3183C136.945 76.0988 137.57 76.7232 138.35 76.7232Z" fill="#205CAA"/>
<path d="M153.419 99.9053C158.26 99.9053 162.944 98.3442 166.848 95.4562C170.596 92.6463 173.407 88.6655 174.812 84.1384C175.047 83.4359 174.656 82.6554 173.875 82.4213C173.173 82.1871 172.392 82.5773 172.158 83.3579C170.908 87.2606 168.488 90.773 165.131 93.2707C161.695 95.8465 157.635 97.1734 153.419 97.1734C149.203 97.1734 145.065 95.8465 141.707 93.2707C138.428 90.773 135.929 87.2606 134.68 83.3579C134.446 82.6554 133.665 82.1871 132.962 82.4213C132.26 82.6554 131.791 83.4359 132.026 84.1384C133.431 88.5875 136.242 92.6463 139.99 95.4562C143.893 98.3442 148.5 99.9053 153.419 99.9053Z" fill="#205CAA"/>
<path d="M138.74 32.5449C138.74 38.7111 143.737 43.7065 149.905 43.7065H163.023C167.629 43.7065 171.377 39.9599 171.377 35.3548C171.377 30.7496 167.629 27.003 163.023 27.003H151.233C148.032 27.003 145.221 25.6761 143.113 23.6467C140.536 25.7542 138.74 28.9544 138.74 32.5449Z" fill="#205CAA"/>
<path d="M190.741 81.7966C193.161 81.7966 195.113 79.8452 195.113 77.4256V67.903C195.113 65.4833 193.161 63.532 190.741 63.532C189.96 63.532 189.336 64.1564 189.336 64.937C189.336 65.7175 189.96 66.3419 190.741 66.3419C191.6 66.3419 192.381 67.0444 192.381 67.9811V77.5036C192.381 78.3622 191.678 79.1428 190.741 79.1428C189.96 79.1428 189.336 79.7672 189.336 80.5477C189.336 81.3283 189.96 81.7966 190.741 81.7966Z" fill="#205CAA"/>
<rect x="3.37793" y="123.864" width="63.0578" height="63.0578" fill="#FCD3C1"/>
<rect x="23.6465" y="63.0579" width="63.0578" height="63.0578" fill="#E8E7F4"/>
<rect width="63.0578" height="63.0578" fill="#FCD3C1"/>
<path fill-rule="evenodd" clip-rule="evenodd" d="M43.2387 172.283H49.2292L37.2933 140.168H31.1676L19.502 172.283H25.5375L27.9697 165.076H40.7164L43.2387 172.283ZM33.9152 147.465L34.2304 145.709L34.5457 147.465L38.9598 160.077H29.6362L33.9152 147.465Z" fill="white"/>
<path d="M70.2192 101.658H63.9134C63.7033 103.94 63.0276 105.697 61.8866 106.928C60.7455 108.159 58.9739 108.775 56.5717 108.775C53.9593 108.775 51.9625 107.919 50.5812 106.207C49.23 104.496 48.5544 102.079 48.5544 98.9557V96.7487C48.5544 93.3256 49.23 90.7432 50.5812 89.0016C51.9325 87.23 53.9143 86.3442 56.5267 86.3442C58.8388 86.3442 60.5804 86.9297 61.7515 88.1008C62.9526 89.2718 63.6582 90.9534 63.8684 93.1454H70.0391C69.6187 89.1217 68.2524 86.1039 65.9403 84.0921C63.6582 82.0502 60.5203 81.0293 56.5267 81.0293C52.1126 81.0293 48.6745 82.3655 46.2122 85.038C43.75 87.6804 42.5188 91.4638 42.5188 96.3884V99.271C42.5188 104.165 43.7049 107.919 46.0771 110.531C48.4793 113.114 51.8874 114.405 56.3015 114.405C59.3643 114.405 61.8716 113.894 63.8234 112.873C65.7752 111.853 67.2615 110.396 68.2825 108.504C68.7929 107.544 69.2133 106.493 69.5436 105.352C69.8739 104.211 70.0991 102.979 70.2192 101.658Z" fill="white"/>
<path d="M29.4569 47.2934C33.6007 47.2934 36.6635 46.4977 38.6453 44.9062C40.6571 43.3147 41.6631 41.0627 41.6631 38.15C41.6631 36.1682 41.2126 34.6068 40.3118 33.4657C39.441 32.2946 38.1649 31.4238 36.4833 30.8533C37.9847 30.2528 39.1107 29.3519 39.8614 28.1508C40.6421 26.9497 41.0325 25.3883 41.0325 23.4665C41.0325 20.7941 40.0716 18.7522 38.1498 17.3409C36.2281 15.8996 33.1503 15.179 28.9164 15.179H16.6201V47.2934H29.4569ZM29.0965 19.9533C31.2585 19.9533 32.82 20.2986 33.7808 20.9893C34.7417 21.6499 35.2222 22.6858 35.2222 24.0971C35.2222 25.6285 34.6967 26.7395 33.6457 27.4302C32.6248 28.1208 31.1234 28.4661 29.1416 28.4661H22.3854V19.9533H29.0965ZM28.7813 33.2405C31.0934 33.2405 32.8049 33.5858 33.916 34.2765C35.057 34.9671 35.6275 36.0931 35.6275 37.6545C35.6275 39.1559 35.1021 40.297 34.0511 41.0777C33.0001 41.8584 31.2135 42.2488 28.6912 42.2488H22.3854V33.2405H28.7813Z" fill="white"/>
</svg>
