<svg width="258" height="292" viewBox="0 0 258 292" fill="none" xmlns="http://www.w3.org/2000/svg"><path d="M192.35 102.75C192.35 102.6 192.35 102.45 192.5 102.3V102.15V102.3C192.35 102.45 192.35 102.6 192.35 102.75Z" fill="#205CAA"/><path d="M166.401 105.15L166.551 105.3C166.701 105.3 166.701 105.15 166.401 105.15Z" fill="#205CAA"/><path d="M152.149 57.0002C152.149 57.0002 152.149 56.8502 152.149 56.7002V51.7502V51.6002V51.4502L151.999 51.3002L151.849 51.1502C151.699 51.0002 151.549 51.0002 151.549 50.8502C151.399 50.8502 151.249 50.7002 151.099 50.7002C150.949 50.7002 150.799 50.7002 150.649 50.8502C150.499 50.8502 150.499 51.0002 150.349 51.0002C150.349 51.0002 150.199 51.0002 150.199 51.1502C150.049 51.3002 150.049 51.3002 150.049 51.4502C150.049 51.6002 149.899 51.7502 149.899 51.9002V56.8502C149.899 57.0002 149.899 57.0002 149.899 57.1502C149.899 57.3002 149.899 57.3002 150.049 57.4502C150.049 57.4502 150.049 57.6002 150.199 57.6002L150.349 57.7502C150.349 57.7502 150.499 57.7502 150.499 57.9002C150.499 57.9002 150.649 57.9002 150.649 58.0502C150.799 58.0502 150.799 58.0502 150.949 58.0502C151.249 58.0502 151.549 57.9002 151.849 57.7502C151.849 57.3002 151.999 57.1502 152.149 57.0002Z" fill="#205CAA"/><path d="M143.75 84.9003C143.75 85.0503 143.75 85.2003 143.75 85.2003C143.75 85.5003 143.75 85.6503 143.9 85.9503C144.05 86.2503 144.05 86.5503 144.05 87.0003C145.7 86.8503 147.35 86.5503 148.7 85.9503C150.5 85.2003 152.15 84.1503 153.5 82.8003C155.15 81.1503 156.35 79.2003 157.1 76.8003C157.25 76.2003 156.95 75.6003 156.35 75.4503C155.75 75.3003 155.15 75.6003 155 76.2003C153.8 79.9503 151.1 82.8003 147.65 84.1503C146.6 84.4503 145.1 84.7503 143.75 84.9003Z" fill="#205CAA"/><path d="M165.35 128.85L165.5 129C165.5 129 165.5 128.85 165.35 128.85Z" fill="#205CAA"/><path d="M150.65 140.7C151.1 140.7 151.4 140.7 151.85 140.7H187.55C190.25 140.7 192.8 139.95 194.75 138.45C193.1 136.95 191.9 134.7 191.75 132.3C191.75 132.15 191.75 132 191.75 131.85V108.3V132.3H170C162.5 132.45 155.6 135.6 150.65 140.7Z" fill="#205CAA"/><path d="M210.198 80.5498L210.648 80.0999C210.498 80.3999 210.348 80.3998 210.198 80.5498Z" fill="#205CAA"/><path d="M165.35 128.85L165.5 129C165.5 129 165.5 128.85 165.35 128.85Z" fill="#205CAA"/><path d="M165.35 128.85L165.5 129C165.5 129 165.5 128.85 165.35 128.85Z" fill="#FCD3C1"/><path d="M165.35 128.85L165.5 129C165.5 129 165.5 128.85 165.35 128.85Z" fill="#FCD3C1"/><path d="M210.198 80.5498L210.648 80.0999C210.498 80.3999 210.348 80.3998 210.198 80.5498Z" fill="#205CAA"/><path d="M189.049 132.45C189.499 134.25 190.549 135.9 191.899 137.25V108.3V132.3H189.049V132.45Z" fill="#205CAA"/><path d="M210.198 80.5498L210.648 80.0999C210.498 80.3999 210.348 80.3998 210.198 80.5498Z" fill="#205CAA"/><path d="M166.4 105.15L166.55 105.3C166.7 105.3 166.7 105.15 166.4 105.15Z" fill="#205CAA"/><path d="M149.899 51.3003C149.899 51.1503 150.049 51.0003 150.049 51.0003C150.049 51.0003 150.049 50.8503 150.199 50.8503C150.349 50.7003 150.349 50.7003 150.499 50.7003C150.649 50.7003 150.799 50.5503 150.949 50.5503C151.099 50.5503 151.249 50.5503 151.399 50.7003C151.549 50.7003 151.699 50.8503 151.699 51.0003L151.849 51.1503L151.999 51.3003V51.4503V51.6003V56.5503C151.999 56.7003 151.999 56.7003 151.999 56.8503C151.999 57.1503 151.849 57.3003 151.699 57.4503C151.549 57.6003 151.249 57.7503 150.799 57.7503C150.649 57.7503 150.649 57.7503 150.499 57.7503C150.349 57.7503 150.349 57.7503 150.349 57.6003C150.349 57.6003 150.199 57.6003 150.199 57.4503L150.049 57.3003C150.049 57.3003 150.049 57.1503 149.899 57.1503C149.899 57.0003 149.899 57.0003 149.749 56.8503C149.749 56.7003 149.749 56.7003 149.749 56.5503V51.6003C149.749 51.6003 149.749 51.4503 149.899 51.3003ZM166.549 105.15C166.699 105.15 166.699 105.3 166.549 105.15V105.15ZM147.949 84.0003C151.399 82.6503 154.099 79.8003 155.299 76.0503C155.449 75.4503 156.049 75.1503 156.649 75.3003C157.249 75.4503 157.549 76.0503 157.399 76.6503C156.649 79.0503 155.449 81.0003 153.799 82.6503C152.449 84.0003 150.799 85.0503 148.999 85.8003C147.499 86.4003 145.999 86.7003 144.349 86.8503C144.349 86.5503 144.199 86.1003 144.199 85.8003C144.199 85.6503 144.049 85.3503 144.049 85.0503C144.049 84.9003 144.049 84.7503 144.049 84.7503C145.099 84.7503 146.599 84.4503 147.949 84.0003ZM151.699 57.6003C151.549 57.7503 151.249 57.9003 150.799 57.9003C150.649 57.9003 150.649 57.9003 150.499 57.9003C150.349 57.9003 150.349 57.9003 150.349 57.7503C150.349 57.7503 150.199 57.7503 150.199 57.6003L150.049 57.4503C150.049 57.4503 150.049 57.3003 149.899 57.3003C149.899 57.1503 149.899 57.1503 149.749 57.0003C149.749 56.8503 149.749 56.8503 149.749 56.7003V51.7503C149.749 51.6003 149.749 51.4503 149.899 51.3003C149.899 51.1503 150.049 51.0003 150.049 51.0003C150.049 51.0003 150.049 50.8503 150.199 50.8503C150.349 50.7003 150.349 50.7003 150.499 50.7003C150.649 50.7003 150.799 50.5503 150.949 50.5503C151.099 50.5503 151.249 50.5503 151.399 50.7003C151.549 50.7003 151.699 50.8503 151.699 51.0003L151.849 51.1503L151.999 51.3003V51.4503V51.6003V56.5503C151.999 56.7003 151.999 56.7003 151.999 56.8503C151.999 57.1503 151.849 57.3003 151.699 57.6003ZM191.899 108.3V108.45V108.3ZM192.499 102.3V102.15C192.499 102.15 192.499 102.3 192.499 102.3C192.499 102.45 192.499 102.6 192.499 102.75C192.349 102.6 192.349 102.45 192.499 102.3Z" fill="#FCD3C1"/><path d="M149.75 51.75V56.7C149.75 56.85 149.75 56.85 149.75 57C149.75 57.15 149.75 57.15 149.9 57.3C149.9 57.3 149.9 57.4501 150.05 57.4501L150.2 57.6C150.2 57.6 150.35 57.6 150.35 57.75C150.35 57.75 150.5 57.75 150.5 57.9C150.65 57.9 150.65 57.9 150.8 57.9C151.1 57.9 151.4 57.7501 151.7 57.6C151.85 57.45 152 57.3 152 57C152 57 152 56.85 152 56.7V51.75V51.6V51.45C152 51.3 152 51.3 151.85 51.15L151.7 51C151.55 50.85 151.4 50.85 151.4 50.7C151.25 50.7 151.1 50.55 150.95 50.55C150.8 50.55 150.65 50.55 150.5 50.7C150.35 50.7 150.35 50.85 150.2 50.85C150.2 50.85 150.05 50.85 150.05 51C149.9 51.15 149.9 51.15 149.9 51.3C149.75 51.45 149.75 51.6 149.75 51.75Z" fill="#205CAA"/><path d="M143.75 84.8998C143.75 85.0498 143.75 85.1998 143.75 85.1998C143.75 85.4998 143.75 85.6498 143.9 85.9498C144.05 86.2498 144.05 86.5498 144.05 86.9998C145.7 86.8498 147.35 86.5498 148.7 85.9498C150.5 85.1998 152.15 84.1498 153.5 82.7998C155.15 81.1498 156.35 79.1998 157.1 76.7998C157.25 76.1998 156.95 75.5998 156.35 75.4498C155.75 75.2998 155.15 75.5998 155 76.1998C153.8 79.9498 151.1 82.7998 147.65 84.1498C146.6 84.4498 145.1 84.7498 143.75 84.8998Z" fill="#205CAA"/><path d="M191.749 108.3V132.45H191.899C191.899 132.3 191.899 132.15 191.899 132L191.749 108.3Z" fill="#FCD3C1"/><path d="M191.75 132.45C191.9 132.45 191.9 132.45 191.75 132.45C191.9 132.3 191.9 132.3 191.75 132.45Z" fill="#205CAA"/><path d="M149.898 51.3C149.898 51.45 149.748 51.6 149.748 51.75V56.7C149.748 56.85 149.748 56.85 149.748 57C149.748 57.15 149.748 57.15 149.898 57.3C149.898 57.3 149.898 57.4501 150.048 57.4501L150.198 57.6C150.198 57.45 150.348 57.45 150.348 57.3C150.498 57.15 150.648 57 150.798 56.7C150.948 56.55 151.098 56.2501 151.248 56.1C151.548 55.8 151.848 55.35 152.148 55.05V51.6V51.45V51.3L151.998 51.15L151.848 51C151.698 50.85 151.548 50.85 151.548 50.7C151.398 50.7 151.248 50.55 151.098 50.55C150.948 50.55 150.798 50.55 150.648 50.7C150.498 50.7 150.498 50.85 150.348 50.85C150.348 50.85 150.198 50.85 150.198 51C150.048 51 149.898 51.15 149.898 51.3Z" fill="#205CAA"/><path d="M143.749 84.9002C143.749 85.0502 143.749 85.2002 143.749 85.2002C143.749 85.5002 143.749 85.6502 143.899 85.9502C143.899 86.2502 144.049 86.5502 144.049 87.0002C145.699 86.8502 147.349 86.5502 148.699 85.9502C148.399 85.3502 148.099 84.7502 147.799 84.0002C146.599 84.4502 145.099 84.7502 143.749 84.9002Z" fill="#205CAA"/><path d="M131.3 60.6C131.75 28.2 157.25 1.8 189.5 0H192.05C192.8 0 193.4 5.69969e-07 194 0.150001C194.6 0.150001 195.35 0 195.95 0H198.5C231.05 1.8 256.55 28.2 257 60.6C257 61.05 257 61.5 257 61.95V121.95C257 127.95 253.85 133.35 249.05 136.8C248.3 137.4 247.4 137.85 246.5 138.3C245.9 138.6 245.3 138.9 244.7 139.05C242.15 140.1 239.3 140.7 236.3 140.7H200.45C198.2 140.7 196.25 139.8 194.75 138.45C193.1 136.95 191.9 134.7 191.75 132.3L196.4 126.9L205.85 115.65L212 108.3L217.85 101.25L208.4 91.8C208.1 91.5 207.95 91.35 207.65 91.05C207.35 90.75 207.05 90.45 206.9 90.15C206.6 89.85 206.45 89.55 206.15 89.25C206 89.1 205.85 88.8 205.7 88.65C205.55 88.35 205.4 88.05 205.1 87.9C204.95 87.6 204.8 87.45 204.8 87.15C204.65 86.85 204.5 86.55 204.35 86.4C204.35 86.4 204.35 86.4 204.35 86.25C204.2 85.95 204.05 85.65 204.05 85.5C204.05 85.35 203.9 85.2 203.9 84.9C203.9 84.75 203.75 84.6 203.75 84.6C203.6 84.3 203.6 84 203.45 83.7C203.3 83.4 203.3 83.1 203.15 82.8C203 82.5 203 82.2 202.85 81.9C202.85 81.6 202.7 81.3 202.7 81C202.7 80.7 202.55 80.4 202.55 80.1C202.55 79.8 202.55 79.35 202.4 79.05V78.6C202.4 78.45 202.4 78.3 202.4 78.15C202.4 77.85 202.4 77.55 202.4 77.1V71.25L202.55 60.6V60.45V60.3V59.1V57.75C202.55 55.35 200.6 53.4 198.2 53.4H196.1C195.95 53.4 195.95 53.4 195.8 53.4C195.65 53.4 195.65 53.4 195.5 53.4C195.35 53.4 195.2 53.4 194.9 53.55C194.75 53.55 194.6 53.55 194.45 53.7H194.3C194 53.85 193.7 54 193.4 54.15C193.25 54.15 193.25 54.3 193.1 54.45C192.95 54.45 192.95 54.6 192.8 54.6C192.65 54.75 192.65 54.75 192.5 54.9C192.5 55.05 192.35 55.05 192.35 55.2C192.05 55.65 191.75 56.1 191.75 56.7C191.6 57 191.6 57.3 191.6 57.6V62.55C191.6 62.7 191.6 62.85 191.6 62.85C191.6 63 191.6 63.15 191.6 63.15V63.3C191.6 63.45 191.6 63.45 191.45 63.6V63.75C191.45 63.75 191.45 63.75 191.45 63.9V64.05C191.45 64.05 191.45 64.2 191.3 64.2C191.3 64.35 191.15 64.5 191.15 64.65C191.15 64.8 191 64.8 191 64.95C191 64.95 191 64.95 191 65.1C191 65.25 190.85 65.4 190.7 65.4C190.4 65.7 190.1 66 189.65 66.3C189.5 66.3 189.35 66.45 189.35 66.45C189.2 66.45 189.2 66.6 189.05 66.6C188.45 66.9 188 66.9 187.4 66.9H185.3C184.4 66.9 183.5 66.6 182.75 66.15C182.3 65.85 182 65.55 181.7 65.1L157.55 40.95L143.45 26.85V51.15C143.45 51.15 143.45 51.15 143.3 51.3C143.3 51.45 143.15 51.6 143 51.75C142.85 51.9 142.85 52.2 142.7 52.35C142.55 52.65 142.4 53.1 142.1 53.55C141.95 53.7 141.95 54 141.8 54.15C141.8 54.3 141.65 54.45 141.65 54.6C141.5 54.9 141.35 55.2 141.2 55.5C139.85 57.9 138.35 60.9 137.3 62.55C135.2 66.3 136.85 70.8 141.05 70.8H143.45V80.25C143.45 81.15 143.45 82.05 143.6 82.95C143.6 83.4 143.75 83.85 143.75 84.3C143.75 84.45 143.75 84.6 143.75 84.6C143.75 84.75 143.75 84.9 143.75 84.9C143.75 85.2 143.75 85.35 143.9 85.65C143.9 85.95 144.05 86.25 144.05 86.7C146.3 96.45 153.65 104.25 163.25 107.1C164.75 107.55 166.4 107.85 168.05 108.15H189.05H189.2H189.35C189.35 108.15 189.35 108.15 189.5 108.15L191.9 108.3V132.15H170C162.35 132.15 155.45 135.3 150.65 140.55C139.85 139.95 131.3 131.85 131.3 121.8V61.35C131.3 61.2 131.3 60.9 131.3 60.6Z" fill="#205CAA"/><path d="M143 158.85V273H232.237C245.826 273 257 262.05 257 248.4V158.85C257 158.7 257 158.55 257 158.25C257 157.5 257 156.75 256.849 156C256.698 154.95 256.547 154.05 256.396 153C255.037 147 251.715 141.75 247.034 138C246.43 138.3 245.826 138.6 245.223 138.75C242.656 139.8 239.787 140.4 236.767 140.4H200.679C198.415 140.4 196.452 139.5 194.942 138.15C193.281 136.65 192.073 134.4 191.922 132H169.877C162.176 132 155.23 135.15 150.399 140.4C145.869 145.2 143 151.65 143 158.85Z" fill="#8D9FD1"/><path d="M69.0628 150.137L137.646 229.65L143.465 236.397C152.61 246.999 168.467 248.169 179.069 239.025L248.141 179.447C252.157 175.983 254.754 171.362 255.567 166.458C256.812 159.782 255.226 152.746 250.515 147.284C250.238 146.963 250.099 146.803 249.822 146.481C249.03 147.024 248.099 147.407 247.169 147.79C246.548 148.045 245.928 148.3 245.318 148.405C242.698 149.264 239.812 149.653 236.82 149.432L222.309 148.361L172.33 191.75C167.832 195.63 160.951 195.122 157.071 190.624L141.831 172.954L99.5832 123.812L82.556 138.498L69.0628 150.137Z" fill="#8D9FD1"/><path d="M43.9232 119.854C43.879 120.452 44.123 121.222 44.5386 121.704L50.3578 128.451L69.0624 150.137L99.4222 123.95L97.7596 122.023C88.8922 111.742 75.8213 107.468 63.4945 109.416C56.802 110.426 50.2762 113.254 44.8147 117.965C44.3217 118.53 43.9784 119.106 43.9232 119.854Z" fill="#FCD3C1"/><path d="M193.371 224.585C193.348 224.884 193.462 225.344 193.737 225.667C194.288 226.313 195.185 226.384 195.83 225.833L235.046 192.377C235.692 191.826 235.763 190.929 235.212 190.283C234.661 189.638 233.764 189.567 233.119 190.117L193.903 223.574C193.58 223.849 193.407 224.136 193.371 224.585Z" fill="#91BDE5"/><path d="M137.151 62.6999C138.201 60.8999 139.701 58.0498 141.051 55.6498C141.201 55.3498 141.351 55.0499 141.501 54.7499C141.501 54.5999 141.651 54.4499 141.651 54.2999C141.801 53.9999 141.801 53.8498 141.951 53.6999C142.101 53.2498 142.401 52.9499 142.551 52.4999C142.701 52.1999 142.851 52.0498 142.851 51.8998C143.001 51.7498 143.001 51.5998 143.151 51.4499C143.301 51.2999 143.301 51.2999 143.301 51.2999V26.8499L157.401 40.9499L181.701 65.0999C182.001 65.5499 182.301 65.8498 182.751 66.1498C183.501 66.5998 184.401 66.8998 185.301 66.8998H187.401C188.001 66.8998 188.601 66.7499 189.051 66.5999C189.201 66.5999 189.201 66.4499 189.351 66.4499C189.501 66.4499 189.651 66.2998 189.651 66.2998C190.101 65.9998 190.401 65.6998 190.701 65.3998C190.851 65.2498 190.851 65.2499 191.001 65.0999C191.001 65.0999 191.001 65.0999 191.001 64.9499C191.001 64.7999 191.151 64.7999 191.151 64.6498C191.151 64.4998 191.301 64.3499 191.301 64.1999C191.301 64.1999 191.301 64.0498 191.451 64.0498C191.451 64.0498 191.451 64.0499 191.451 63.8998C191.451 63.8998 191.451 63.8999 191.451 63.7499C191.451 63.7499 191.451 63.7499 191.451 63.5999C191.451 63.4499 191.451 63.4498 191.601 63.2998V63.1498C191.601 62.9998 191.601 62.8499 191.601 62.8499C191.601 62.6999 191.601 62.5498 191.601 62.5498V57.5999C191.601 57.2999 191.601 56.9998 191.751 56.6999C191.901 56.0998 192.051 55.6499 192.351 55.1999C192.351 55.0499 192.501 55.0498 192.501 54.8998C192.651 54.7498 192.651 54.7499 192.801 54.5999C192.801 54.5999 192.951 54.4499 193.101 54.4499C193.251 54.2999 193.251 54.2998 193.401 54.1498C193.701 53.9998 194.001 53.8498 194.301 53.6999H194.451C194.601 53.6999 194.751 53.5499 194.901 53.5499C195.051 53.5499 195.201 53.5498 195.501 53.3998C195.651 53.3998 195.651 53.3998 195.801 53.3998C195.951 53.3998 195.951 53.3998 196.101 53.3998H198.201C200.601 53.3998 202.551 55.3499 202.551 57.7499V59.0999V60.2998V60.4499V60.5999L202.401 71.2499V77.0999C202.401 77.3999 202.401 77.6998 202.401 78.1498C202.401 78.2999 202.401 78.4499 202.401 78.5999V79.0498C202.401 79.3498 202.401 79.7999 202.551 80.0999C202.551 80.3999 202.701 80.6999 202.701 80.9999C202.701 81.2999 202.851 81.5998 202.851 81.8998C203.001 82.1998 203.001 82.4998 203.151 82.7998C203.151 83.0998 203.301 83.3999 203.451 83.6999C203.601 83.9999 203.601 84.2999 203.751 84.5999C203.751 84.7499 203.901 84.8998 203.901 84.8998C203.901 85.0499 204.051 85.1999 204.051 85.4999C204.201 85.7999 204.201 86.0998 204.351 86.2499C204.351 86.2499 204.351 86.2498 204.351 86.3998C204.501 86.6998 204.651 86.9998 204.801 87.1498C204.951 87.4498 205.101 87.5998 205.101 87.8998C205.251 88.1998 205.401 88.4998 205.701 88.6498C205.851 88.9498 206.001 89.0998 206.151 89.2499C206.301 89.5499 206.601 89.8498 206.901 90.1498C207.051 90.4498 207.351 90.7498 207.651 91.0499C207.951 91.3498 208.101 91.4998 208.401 91.7999L217.851 101.25L212.001 108.3L205.851 115.5L196.401 126.75L191.751 132.15C191.751 132 191.751 131.85 191.751 131.7V108.3V108.45L175.251 108.3H168.051C166.401 108.15 164.751 107.7 163.251 107.25C153.801 104.4 146.451 96.5999 144.051 86.8499C145.701 86.6999 147.351 86.3998 148.701 85.7998C150.501 85.0498 152.151 83.9998 153.501 82.6498C155.151 80.9998 156.351 79.0499 157.101 76.6498C157.251 76.0499 156.951 75.4498 156.501 75.2998C155.901 75.1498 155.301 75.4498 155.151 76.0498C153.951 79.7998 151.251 82.6499 147.801 83.9999C146.451 84.4499 145.101 84.7498 143.601 84.8998C143.601 84.7498 143.601 84.5999 143.601 84.5999C143.601 84.1499 143.451 83.6999 143.451 83.2499C143.451 82.3498 143.301 81.4498 143.301 80.5498V71.0999H140.901C136.701 70.9499 135.051 66.4499 137.151 62.6999ZM149.751 56.6999C149.751 56.8498 149.751 56.8499 149.751 56.9999C149.751 57.1499 149.751 57.1498 149.901 57.2998C149.901 57.2998 149.901 57.4499 150.051 57.4499L150.201 57.5999C150.201 57.5999 150.351 57.5999 150.351 57.7499C150.351 57.7499 150.501 57.7498 150.501 57.8998C150.651 57.8998 150.651 57.8998 150.801 57.8998C151.101 57.8998 151.401 57.7499 151.551 57.5999C151.701 57.4499 151.851 57.2999 151.851 56.9999C151.851 56.9999 151.851 56.8498 151.851 56.6999V51.7499V51.5999V51.4499C151.851 51.4499 151.851 51.2999 151.701 51.2999C151.551 51.2999 151.551 51.1498 151.551 51.1498C151.401 50.9998 151.251 50.9999 151.251 50.8499C151.101 50.8499 150.951 50.6999 150.801 50.6999C150.651 50.6999 150.501 50.6999 150.351 50.8499C150.201 50.8499 150.201 50.9999 150.051 50.9999C150.051 50.9999 149.901 50.9998 149.901 51.1498C149.751 51.2998 149.751 51.2999 149.751 51.4499C149.751 51.5998 149.751 51.7498 149.751 51.8998V56.6999Z" fill="#FCD3C1"/><rect y="109.014" width="143" height="182.425" rx="16" fill="#FCD3C1"/><rect x="10.0234" y="119.706" width="122.953" height="157.033" fill="white"/><path d="M80.9961 159.557C79.4411 161.137 74.7762 165.877 74.7762 165.877C74.037 166.616 73.0173 167.253 72.0486 167.253C70.978 167.253 69.8819 166.642 69.0152 165.877C66.67 163.787 64.5797 161.774 62.4384 159.557C59.6854 156.703 59.6344 152.193 62.4384 149.389L62.4639 149.364C64.6562 147.172 68.123 147.198 70.7996 149.364C71.5643 149.975 72.1506 150.103 72.9408 149.364C75.235 147.223 78.7019 147.172 80.8941 149.364C83.8766 152.294 83.8001 156.729 80.9961 159.557Z" fill="#F37972"/><rect x="50.1172" y="103" width="42.7664" height="23.3878" rx="11.6939" fill="#FCD3C1"/><path d="M80.8887 252.014H40.7617M102.238 221.048H40.7617M102.238 237.047H40.7617M102.238 204.532H40.7617M102.238 188.533H40.7617" stroke="#8D9FD1" stroke-width="3"/><rect x="77.4375" y="253.228" width="11.3574" height="11.3574" rx="5.6787" transform="rotate(-90 77.4375 253.228)" fill="#FCD3C1"/><rect x="76.4043" y="245.323" width="42.8484" height="12.6473" rx="6.32367" transform="rotate(-45 76.4043 245.323)" fill="#8D9FD1"/></svg>