<svg width="352" height="271" viewBox="0 0 352 271" fill="none" xmlns="http://www.w3.org/2000/svg"><rect x="219.35" y="1.00049" width="152.045" height="131.044" rx="16" transform="rotate(30 219.35 1.00049)" fill="#91BDE5"/><path d="M203.808 27.9172L335.483 103.94L293.501 176.654C289.083 184.307 279.297 186.929 271.644 182.511L167.682 122.488C160.03 118.07 157.408 108.284 161.826 100.632L203.808 27.9172Z" fill="#E8E7F4"/><rect x="263.394" y="85.5984" width="16.8006" height="16.8006" rx="8" transform="rotate(30 263.394 85.5984)" fill="white"/><rect x="285.218" y="98.1987" width="16.8006" height="16.8006" rx="8" transform="rotate(30 285.218 98.1987)" fill="white"/><rect x="248.272" y="111.787" width="16.8006" height="16.8006" rx="8" transform="rotate(30 248.272 111.787)" fill="white"/><rect x="270.099" y="124.388" width="16.8006" height="16.8006" rx="8" transform="rotate(30 270.099 124.388)" fill="white"/><rect x="241.568" y="72.998" width="16.8006" height="16.8006" rx="8" transform="rotate(30 241.568 72.998)" fill="white"/><rect x="219.21" y="60.0894" width="16.8006" height="16.8006" rx="8" transform="rotate(30 219.21 60.0894)" fill="white"/><rect x="226.447" y="99.1873" width="16.8006" height="16.8006" rx="8" transform="rotate(30 226.447 99.1873)" fill="white"/><rect x="204.089" y="86.2786" width="16.8006" height="16.8006" rx="8" transform="rotate(30 204.089 86.2786)" fill="white"/><rect x="71.4023" y="7.56006" width="179.766" height="229.328" rx="16" fill="#FCD3C1"/><rect x="84.0029" y="21.0007" width="154.565" height="197.407" fill="white"/><path d="M173.224 71.0981C171.269 73.0843 165.405 79.0428 165.405 79.0428C164.476 79.9718 163.194 80.7727 161.976 80.7727C160.63 80.7727 159.252 80.0038 158.163 79.0428C155.215 76.4159 152.587 73.8851 149.895 71.0981C146.434 67.5101 146.37 61.8399 149.895 58.316L149.927 58.284C152.683 55.529 157.041 55.561 160.406 58.284C161.367 59.0529 162.104 59.213 163.098 58.284C165.982 55.5931 170.34 55.529 173.096 58.284C176.845 61.9681 176.749 67.5422 173.224 71.0981Z" fill="#F37972"/><rect x="134.404" width="53.7618" height="29.401" rx="14.7005" fill="#FCD3C1"/><path d="M173.087 187.326H122.644M199.926 148.398H122.644M199.926 168.511H122.644M199.926 127.637H122.644M199.926 107.524H122.644" stroke="#8D9FD1" stroke-width="3"/><rect x="168.747" y="188.852" width="14.2775" height="14.2775" rx="7.13873" transform="rotate(-90 168.747 188.852)" fill="#FCD3C1"/><rect x="167.45" y="178.916" width="53.8649" height="15.899" rx="7.94952" transform="rotate(-45 167.45 178.916)" fill="#8D9FD1"/><path d="M51.2383 184.302V257.077C51.2383 263.29 56.2751 268.327 62.4884 268.327H138.778C144.991 268.327 150.028 263.29 150.028 257.077V219.811" stroke="#8D9FD1" stroke-width="4"/><path fill-rule="evenodd" clip-rule="evenodd" d="M12.7557 74.9653H11.7734C7.35516 74.9653 3.77344 78.5471 3.77344 82.9653L3.77344 130.247C3.77344 134.665 7.35516 138.247 11.7734 138.247H12.7557V135.247H11.7734C9.01201 135.247 6.77344 133.009 6.77344 130.247L6.77344 82.9653C6.77344 80.2039 9.01201 77.9653 11.7734 77.9653H12.7557V74.9653ZM89.6666 135.247H90.0876C92.849 135.247 95.0876 133.009 95.0876 130.247V82.9653C95.0876 80.2039 92.849 77.9653 90.0876 77.9653H89.6666V74.9653H90.0876C94.5059 74.9653 98.0876 78.5471 98.0876 82.9653V130.247C98.0876 134.665 94.5059 138.247 90.0876 138.247H89.6666V135.247Z" fill="#8D9FD1"/><path d="M94.9323 127.073C92.915 127.073 91.0554 128.419 90.031 130.616C82.0881 147.814 67.2583 159.372 50.3009 159.372C33.3277 159.372 18.5136 147.814 10.5708 130.616C9.56213 128.419 7.68673 127.073 5.66949 127.073C1.2883 127.073 -1.42236 133.031 0.783994 137.78C10.6968 159.194 29.1514 173.602 50.3009 173.602C71.4504 173.602 89.9049 159.214 99.8178 137.8C102.024 133.031 99.3135 127.073 94.9323 127.073Z" fill="#FCD3C1"/><rect x="43.5029" y="162.154" width="16.172" height="38.6722" rx="8" fill="#FCD3C1"/><rect x="11.3184" y="73" width="11.3177" height="8.80265" rx="4.40133" fill="#91BDE5"/><rect x="79.2246" y="73" width="11.3177" height="8.80265" rx="4.40133" fill="#91BDE5"/><rect x="139.833" y="208.56" width="21.0939" height="21.0939" rx="8" fill="#91BDE5"/></svg>