<svg width="373" height="388" viewBox="0 0 373 388" fill="none" xmlns="http://www.w3.org/2000/svg">
<g clip-path="url(#clip0)">
<path d="M270.978 245.246L270.77 245.038L270.908 245.107C270.908 245.107 270.908 245.176 270.978 245.246Z" fill="#205CAA"/>
<path d="M270.978 245.246L270.77 245.038L270.908 245.107C270.908 245.107 270.908 245.176 270.978 245.246Z" fill="#FCD3C1"/>
<path d="M270.908 245.037C270.908 245.107 270.908 245.107 270.978 245.176L270.77 244.968L270.908 245.037Z" fill="#FCD3C1"/>
<path d="M304.053 180.434V314.355C304.053 318.514 303.429 322.604 302.111 326.486C285.123 340.834 265.5 353.104 244.005 362.877C243.728 362.877 243.52 362.877 243.242 362.877H113.162C82.7219 362.877 58.0371 343.191 58.0371 318.791V206.081C58.0371 171.838 84.6634 142.586 122.315 130.802C123.424 130.456 124.603 130.109 125.782 129.762C126.128 129.693 126.475 129.555 126.822 129.485C137.014 126.713 147.901 125.257 159.203 125.257H235.06C273.127 125.257 304.053 149.934 304.053 180.434Z" fill="#205CAA"/>
<path d="M304.954 186.395C303.151 186.88 301.071 186.464 299.614 185.147L297.881 183.553C297.812 183.483 297.742 183.414 297.673 183.345V121.722L300.03 119.365V180.988C300.169 181.958 300.654 182.86 301.417 183.622L303.012 185.216C303.497 185.702 304.052 186.048 304.607 186.256C304.746 186.325 304.884 186.325 304.954 186.395Z" fill="#205CAA"/>
<path d="M322.288 189.722L321.248 190.692L320.277 191.663L320.208 191.732L320.139 191.802L307.034 204.556C306.756 204.833 306.479 205.11 306.271 205.318C306.132 205.457 306.063 205.526 305.924 205.665L305.578 206.012C305.3 206.289 305.023 206.635 304.815 206.913C304.607 207.19 304.399 207.467 304.191 207.745C304.191 207.745 304.121 207.745 304.121 207.814C303.913 208.091 303.705 208.438 303.497 208.715C303.289 208.992 303.151 209.339 302.943 209.616C302.735 209.893 302.596 210.24 302.457 210.587C302.319 210.933 302.111 211.21 301.972 211.557C301.833 211.904 301.695 212.181 301.556 212.527C301.417 212.874 301.279 213.221 301.14 213.567C301.001 213.914 300.932 214.191 300.863 214.538C300.793 214.815 300.724 215.092 300.655 215.369C300.585 215.716 300.516 216.063 300.446 216.409C300.377 216.687 300.308 216.964 300.308 217.31C300.238 217.726 300.169 218.142 300.1 218.558C300.03 218.974 300.03 219.39 299.961 219.806C299.961 220.222 299.892 220.568 299.892 220.984V254.187C297.673 251.969 296.286 249.058 296.286 245.869V221.053C296.286 214.815 299.06 208.854 303.913 204.487L318.197 191.732L318.267 191.663L318.336 191.594C319.099 190.97 319.792 190.277 320.555 189.583C321.526 188.682 322.08 187.504 322.08 186.325C322.15 185.008 321.595 183.691 320.555 182.721L318.821 181.127C318.059 180.433 317.157 180.018 316.186 179.81C316.325 179.74 316.464 179.74 316.533 179.74C316.741 179.74 316.88 179.74 317.088 179.74C317.227 179.74 317.296 179.74 317.435 179.81C317.573 179.81 317.712 179.81 317.851 179.81C318.197 179.879 318.544 179.948 318.96 180.087C319.029 180.087 319.099 180.156 319.099 180.156C319.237 180.225 319.376 180.295 319.515 180.364C319.723 180.503 319.861 180.572 320 180.711C320.139 180.78 320.208 180.849 320.277 180.919C320.347 180.988 320.485 181.057 320.555 181.127L322.15 182.721C324.23 184.731 324.23 187.85 322.288 189.722Z" fill="#205CAA"/>
<path d="M205.522 350.747H159.827V376.047H205.522V350.747Z" fill="#205CAA"/>
<path d="M138.401 188.197C138.401 200.536 135.211 212.042 129.526 222.024C126.267 227.777 122.245 233.045 117.53 237.62C117.461 237.69 117.461 237.69 117.391 237.759C114.687 240.324 111.844 242.75 108.793 244.899C104.564 247.879 99.9178 250.375 95.0641 252.385C94.232 252.732 93.4693 253.009 92.6372 253.286C86.8127 255.366 80.5722 256.752 74.1236 257.168C73.2222 257.237 72.2515 257.307 71.2807 257.307C70.8647 257.307 70.4486 257.307 69.9633 257.307C69.6859 257.307 69.4086 257.307 69.2005 257.307C66.7043 257.307 64.2081 257.168 61.7812 256.891C60.5331 256.752 59.2157 256.613 57.9676 256.336C57.2049 256.198 56.5115 256.059 55.7487 255.92C49.3002 254.673 43.2677 252.524 37.5819 249.612C37.5125 249.543 37.4432 249.543 37.3045 249.474C33.6989 247.602 30.2319 245.384 27.0423 242.958C24.13 240.74 21.4258 238.244 18.8603 235.61C17.7508 234.432 16.7108 233.253 15.6707 232.006C15.6707 231.936 15.6013 231.936 15.532 231.867C11.3716 226.807 7.90467 221.123 5.33912 215.023C1.9415 206.913 0 197.832 0 188.266C0 180.364 1.31745 172.739 3.81366 165.669C5.40846 161.094 7.4193 156.727 9.91551 152.637C18.6523 138.15 32.5894 127.128 49.0922 122.068C49.1615 121.999 49.3002 121.999 49.4389 121.999C49.5775 121.929 49.6469 121.929 49.7856 121.929C51.7271 121.375 53.7379 120.89 55.8181 120.474C58.3143 119.989 60.8798 119.642 63.5147 119.434C65.3869 119.295 67.3284 119.157 69.2699 119.157C70.102 119.157 70.934 119.157 71.7661 119.226C79.3934 119.503 86.6047 120.959 93.3999 123.524C100.403 126.158 106.921 129.832 112.676 134.476C114.479 135.932 116.282 137.526 117.946 139.19C130.496 151.528 138.401 168.996 138.401 188.197Z" fill="#91BDE5"/>
<path d="M37.5819 152.568V308.671C29.3998 308.671 21.9112 306.037 15.74 301.67C15.74 301.67 15.6707 301.67 15.6013 301.601C14.3532 300.699 13.1745 299.729 12.065 298.689L11.9957 298.62L8.32071 292.797L8.25137 292.659C7.55798 291.48 6.93393 290.232 6.30987 288.985C5.54714 287.46 4.85375 285.865 4.29904 284.202C3.67498 282.677 3.18961 281.152 2.70423 279.558C0.901413 273.527 -0.0693359 267.219 -0.0693359 260.911V188.266C-0.0693359 180.364 1.24811 172.739 3.74432 165.669C7.83534 158.806 14.9079 153.954 23.1593 152.845C24.1994 152.707 25.2395 152.637 26.2796 152.637C26.4183 152.637 26.5569 152.637 26.7649 152.637H37.5819V152.568Z" fill="#91BDE5"/>
<path d="M55.7483 120.335V152.568H9.91504C19.7612 136.14 36.3333 124.217 55.7483 120.335Z" fill="#FCD3C1"/>
<path d="M154.21 207.814H88.1992V313.593H154.21V207.814Z" fill="#205CAA"/>
<path d="M370.272 171.214V263.823C369.995 272.487 368.261 280.944 365.279 288.708C362.09 292.936 357.513 295.501 352.452 295.501H276.317C266.54 295.501 258.566 285.588 258.566 273.458V210.587V158.183C258.566 145.983 266.54 136.14 276.317 136.14H352.521C354.393 136.14 356.196 136.486 357.86 137.179C360.356 138.15 362.645 139.813 364.517 141.962L370.272 171.214Z" fill="#205CAA"/>
<path d="M49.3691 93.2321V204.833H90.5566L97.7679 237.066C97.7679 237.066 154.141 281.568 154.141 243.859C154.141 241.641 154.279 239.631 154.487 237.759C149.495 234.155 146.236 228.332 146.236 221.747C146.236 210.864 155.111 202.061 165.998 202.061C173.764 202.061 180.49 206.566 183.748 213.082C183.956 213.429 184.303 213.637 184.719 213.637C185.343 213.637 185.829 213.151 185.829 212.597V93.2321C185.829 77.9822 180.282 63.2869 170.227 51.8495C164.264 45.0564 156.914 39.6496 148.871 36.0451C140.758 32.3713 131.952 30.4304 122.869 30.4304H112.537C94.3703 30.4304 77.1742 38.194 65.1785 51.8495C54.9163 63.2869 49.3691 77.9822 49.3691 93.2321Z" fill="#205CAA"/>
<path d="M108.585 270.824V343.954H54.7782C40.0783 332.378 26.9732 318.861 15.8096 303.819V239.354L19.0685 240.463L33.9764 245.523L37.6514 246.771L70.9342 258.069L108.585 270.824Z" fill="#91BDE5"/>
<path d="M71.3504 97.8763C69.4782 99.7479 69.4782 102.867 71.3504 104.739L72.9452 106.333C74.8174 108.205 77.9376 108.205 79.8098 106.333L72.5985 113.542C70.7264 115.414 70.7264 118.533 72.5985 120.405L74.1933 121.999C76.0655 123.87 79.1857 123.87 81.0579 121.999L79.2551 123.801L86.6744 131.218C98.8087 143.349 118.501 143.349 130.635 131.218L138.055 123.801L139.927 125.673C143.255 129 148.178 126.712 149.357 122.137C150.536 117.77 153.587 108.274 153.587 108.274L172.655 89.2117L150.952 67.5153C146.722 63.2869 139.927 63.2869 135.697 67.5153L115.311 87.8946C113.439 89.7662 110.319 89.7662 108.447 87.8946L106.852 86.3003C104.98 84.4287 104.98 81.3095 106.852 79.4379L110.804 75.4868C112.677 73.6152 112.677 70.4959 110.804 68.6244L109.21 67.03C107.337 65.1585 104.217 65.1585 102.345 67.03L88.1998 81.1015C86.3277 82.9731 83.2074 82.9731 81.3353 81.1015L75.8575 75.6254L71.3504 97.8763Z" fill="#FCD3C1"/>
<path d="M139.094 138.912C134.934 138.912 130.843 137.318 127.723 134.199C122.73 129.208 121.552 121.652 124.88 115.344C125.157 114.79 125.851 114.582 126.405 114.859C126.96 115.136 127.168 115.83 126.891 116.384C124.048 121.722 125.019 128.237 129.318 132.535C133.617 136.833 140.065 137.803 145.474 134.961C146.028 134.684 146.722 134.892 146.999 135.446C147.276 136.001 147.068 136.694 146.514 136.971C144.226 138.288 141.66 138.912 139.094 138.912Z" fill="#205CAA"/>
<path d="M117.807 185.355L117.391 185.979L66.7734 264.308C66.7734 264.308 18.9986 273.25 18.9986 239.215C18.9986 221.192 10.6086 183.414 23.2977 152.499C25.5858 147.022 28.7061 141.685 32.4504 136.763C47.3584 117.285 79.3237 104.669 117.46 104.669C117.46 104.669 84.8709 123.732 83.5534 140.299C83.2067 144.458 84.1082 148.547 85.8416 152.429C92.9836 169.135 114.34 182.998 117.53 185.008C117.668 185.286 117.807 185.355 117.807 185.355Z" fill="#FCD3C1"/>
<path d="M117.461 185.147V279.558H2.77357C0.970749 273.527 0 267.219 0 260.911V188.266C0 180.364 1.31744 172.739 3.81366 165.669C5.40846 161.094 7.41929 156.727 9.91551 152.637H85.7726C85.9806 153.192 86.258 153.677 86.466 154.232C86.6047 154.509 86.7433 154.717 86.8127 154.994C86.9514 155.271 87.09 155.479 87.2287 155.756C87.5061 156.242 87.7834 156.796 88.0608 157.281C88.1995 157.489 88.3381 157.697 88.4768 157.905C88.8235 158.46 89.1702 158.945 89.5169 159.5C89.6556 159.777 89.8636 160.054 90.0716 160.262C91.1117 161.718 92.1518 163.104 93.3306 164.491C93.5386 164.698 93.6773 164.976 93.8853 165.184C94.0933 165.392 94.3013 165.669 94.44 165.877C99.1551 171.284 104.564 175.928 109.001 179.324C109.209 179.463 109.348 179.602 109.556 179.74C109.903 180.018 110.249 180.295 110.596 180.572C110.735 180.641 110.873 180.78 111.012 180.849C114.132 183.068 116.559 184.593 117.461 185.147Z" fill="#91BDE5"/>
<path d="M142.353 107.719C142.839 108.205 143.671 108.205 144.156 107.719L148.108 103.768C148.594 103.283 148.594 102.451 148.108 101.966C147.623 101.481 146.791 101.481 146.306 101.966L142.353 105.917C141.868 106.402 141.868 107.234 142.353 107.719Z" fill="#205CAA"/>
<path d="M112.122 89.3504H173.279L143.186 59.2666L112.122 89.3504Z" fill="#205CAA"/>
<path d="M88.1991 81.1014L49.3691 121.86L67.0506 69.5947L88.1991 81.1014Z" fill="#205CAA"/>
<path d="M49.3691 121.86C49.3691 121.86 88.1298 122.553 88.1298 81.1016H54.0149L49.3691 121.86Z" fill="#205CAA"/>
<path d="M87.5754 89.3503C87.5754 89.3503 87.0901 82.1413 102.137 67.0994C117.183 52.0574 91.3197 67.0994 91.3197 67.0994L82.6523 79.4379L87.5754 89.3503Z" fill="#205CAA"/>
<path d="M270.284 16.8442V108.066C270.284 108.967 270.146 109.868 269.938 110.7C269.452 112.71 268.343 114.513 266.887 115.899L194.427 109.383C191.931 109.383 191.654 107.512 190.405 105.501C189.92 104.392 189.435 106.056 189.296 104.808C194.358 99.7479 188.117 105.432 188.048 105.363C188.048 105.085 185.552 108.343 185.552 108.066V34.6588C174.665 34.6588 165.859 25.9941 165.859 15.3885C165.859 9.14993 168.91 3.53521 173.625 0.0693359C177.3 3.67385 182.362 5.89201 187.909 5.89201H258.913C265.292 5.82269 270.284 10.7442 270.284 16.8442Z" fill="#005CB0"/>
<path d="M270.284 89.8354V115.829H192.555C190.059 115.829 187.909 114.512 186.661 112.502C186.176 111.393 185.829 110.215 185.691 108.967C185.691 108.898 185.691 108.898 185.691 108.828V84.7059H178.618C173.764 84.7059 171.199 79.0219 174.388 75.3481L185.621 62.3857V34.6587L216.963 34.936C223.064 34.936 227.987 39.8575 227.987 45.9574V68.2777C227.987 70.9811 230.206 73.1992 232.911 73.1992H235.199C237.972 73.1992 240.191 70.9811 240.191 68.2777V54.8301C240.191 52.0574 242.41 49.8392 245.184 49.8392H247.472C250.245 49.8392 252.395 52.0574 252.395 54.8301V89.9047C252.395 92.6081 254.614 94.8263 257.387 94.8263H265.223C268.066 94.8263 270.284 92.6081 270.284 89.8354Z" fill="#FCD3C1"/>
<path d="M196.231 67.1687C195.537 67.1687 194.913 66.6142 194.913 65.8517V60.1676C194.913 59.4744 195.468 58.8506 196.231 58.8506C196.993 58.8506 197.548 59.4051 197.548 60.1676V65.8517C197.548 66.6142 196.993 67.1687 196.231 67.1687Z" fill="#205CAA"/>
<path d="M185.69 98.7082C185.066 98.7082 184.512 98.223 184.512 97.5298C184.512 96.8366 184.997 96.3514 185.69 96.3514C191.792 96.3514 197.062 92.4696 198.865 86.6469C199.073 86.0231 199.697 85.6765 200.321 85.8844C200.945 86.0924 201.292 86.7162 201.084 87.3401C199.004 94.1332 192.832 98.7082 185.69 98.7082Z" fill="#205CAA"/>
<path d="M225.075 136.07H251.355C261.825 136.07 270.284 127.614 270.284 117.147V115.899H206.146V117.147C206.146 127.544 214.605 136.07 225.075 136.07Z" fill="#FCD3C1"/>
<path d="M287.342 145.705L283.39 149.657C282.904 150.142 282.072 150.142 281.587 149.657C281.101 149.171 281.101 148.34 281.587 147.854L285.539 143.903C286.024 143.418 286.856 143.418 287.342 143.903C287.897 144.388 287.897 145.151 287.342 145.705Z" fill="#205CAA"/>
<path d="M300.032 179.324V180.919C299.962 180.434 299.962 179.879 300.032 179.324Z" fill="#205CAA"/>
<path d="M372.074 171.214V237.482C372.074 248.919 361.881 258.277 349.4 258.277H309.877C305.994 258.277 302.527 256.752 300.1 254.326V221.123C300.1 220.707 300.1 220.36 300.169 219.945C300.169 219.529 300.239 219.113 300.308 218.697C300.377 218.281 300.447 217.865 300.516 217.449C300.585 217.172 300.585 216.825 300.655 216.548C300.724 216.201 300.793 215.855 300.863 215.508C300.932 215.231 301.001 214.954 301.071 214.676C301.14 214.33 301.279 214.053 301.348 213.706C301.487 213.359 301.625 213.013 301.764 212.666C301.903 212.32 302.041 211.973 302.18 211.696C302.319 211.349 302.457 211.072 302.665 210.725C302.804 210.379 303.012 210.101 303.151 209.755C303.359 209.478 303.497 209.131 303.706 208.854C303.914 208.576 304.122 208.23 304.33 207.953C304.33 207.953 304.33 207.953 304.399 207.883C304.607 207.606 304.815 207.329 305.023 207.051C305.231 206.774 305.508 206.428 305.786 206.15L306.132 205.804C306.271 205.665 306.34 205.526 306.479 205.457C306.756 205.18 306.964 204.903 307.242 204.695L320.347 191.94L320.416 191.871L320.486 191.802L321.456 190.831L322.496 189.861C324.369 187.989 324.369 184.87 322.496 182.998L320.902 181.404C320.832 181.335 320.763 181.265 320.624 181.196C320.555 181.127 320.416 181.057 320.347 180.988C320.208 180.849 320 180.78 319.862 180.641C319.723 180.572 319.584 180.503 319.446 180.433C319.376 180.433 319.307 180.364 319.307 180.364C318.96 180.226 318.613 180.156 318.197 180.087C318.059 180.087 317.92 180.087 317.781 180.087C317.643 180.087 317.573 180.018 317.435 180.018C317.227 180.018 317.088 180.018 316.88 180.018C316.741 180.018 316.603 180.087 316.533 180.087C316.117 180.018 315.701 179.948 315.216 179.948C313.898 180.018 312.65 180.503 311.68 181.335L307.38 185.286C306.756 185.91 305.994 186.256 305.162 186.533C305.023 186.464 304.954 186.464 304.815 186.395C304.191 186.187 303.705 185.84 303.22 185.355L301.625 183.761C300.863 182.998 306.511 182.097 306.303 181.127L297.881 153.465L299.413 120.893L297.881 121.86L281.17 138.566C281.17 138.566 281.101 138.635 280.893 138.635C280.754 138.704 280.546 138.704 280.338 138.843C280.13 138.912 279.853 138.982 279.575 139.12C279.159 139.259 278.743 139.398 278.189 139.536C277.911 139.605 277.703 139.675 277.426 139.813C277.287 139.883 277.079 139.952 276.871 139.952C276.525 140.091 276.178 140.16 275.831 140.299C272.919 141.2 269.452 142.24 267.302 142.863C262.726 144.042 260.438 148.963 263.766 152.291L265.638 154.162L258.219 161.579C257.526 162.272 256.902 162.965 256.277 163.728C255.931 164.144 255.653 164.56 255.307 164.976C255.168 165.184 255.029 165.392 254.891 165.6C254.752 165.807 254.613 166.015 254.475 166.223C247.055 177.314 247.471 192.079 255.861 202.684L272.225 219.043L272.434 219.251C272.434 219.251 272.434 219.251 272.434 219.321C272.434 219.39 272.503 219.39 272.503 219.39L272.572 219.459C273.266 220.707 274.167 221.47 274.167 221.47H256.555C243.588 221.47 233.049 210.933 233.049 197.971V170.729C233.049 134.407 261.478 104.739 297.326 102.798H297.396L300.308 102.729C312.234 103.075 323.328 106.056 333.175 111.047C338.999 113.958 344.338 117.632 349.053 121.86L349.123 121.929L350.579 123.316C362.367 134.337 370.063 149.033 371.658 165.253C372.005 166.986 372.074 169.135 372.074 171.214Z" fill="#205CAA"/>
<path d="M271.948 218.835L255.584 202.477L271.948 218.835Z" fill="#205CAA"/>
<path d="M320.209 191.802L320.139 191.871L307.034 204.625L320.139 191.871L320.209 191.802Z" fill="#205CAA"/>
<path d="M321.248 190.762L320.277 191.732C320.624 191.386 320.901 191.108 321.248 190.762Z" fill="#205CAA"/>
<path d="M272.156 219.043L271.948 218.835L272.087 218.905C272.087 218.905 272.156 218.974 272.156 219.043Z" fill="#205CAA"/>
<path d="M300.031 258.277V248.989H290.601C280.547 248.989 271.394 252.94 264.599 259.317H330.055V259.04V258.277H300.031Z" fill="#FCD3C1"/>
<path d="M287.342 145.705L283.39 149.656C282.904 150.142 282.072 150.142 281.587 149.656C281.101 149.171 281.101 148.339 281.587 147.854L285.539 143.903C286.024 143.418 286.857 143.418 287.342 143.903C287.897 144.388 287.897 145.151 287.342 145.705ZM268.274 255.99C268.898 255.574 269.591 255.158 270.146 254.742C275.832 250.513 279.507 243.72 279.507 236.095C279.507 230.411 277.496 225.282 274.098 221.192H274.029L272.226 219.182L272.157 219.113L272.087 219.043C272.087 219.043 272.087 219.043 272.087 218.974C272.018 218.905 272.018 218.835 272.018 218.835L271.879 218.766L255.515 202.407C247.125 191.802 246.709 176.968 254.128 165.946C254.267 165.738 254.406 165.53 254.544 165.322C254.683 165.114 254.822 164.906 254.96 164.698C255.307 164.282 255.585 163.867 255.931 163.451C256.555 162.688 257.179 161.995 257.873 161.302L265.292 153.885L263.42 152.013C260.092 148.686 262.38 143.764 266.956 142.586C269.175 142.032 272.573 140.922 275.485 140.021C275.832 139.883 276.178 139.813 276.525 139.675C276.733 139.605 276.872 139.536 277.08 139.536C277.357 139.467 277.565 139.397 277.842 139.259C278.328 139.12 278.813 138.982 279.229 138.843C279.507 138.774 279.784 138.635 279.992 138.566C280.2 138.496 280.408 138.427 280.547 138.358C280.685 138.288 280.824 138.288 280.824 138.288L297.535 121.583L299.892 119.226V179.255C299.823 179.81 299.823 180.364 299.892 180.849C300.031 181.82 300.516 182.721 301.279 183.483L302.874 185.078C303.359 185.563 303.914 185.91 304.469 186.117C304.607 186.187 304.677 186.187 304.815 186.256C305.439 186.464 306.063 186.533 306.757 186.464H306.826C306.965 186.464 307.104 186.395 307.242 186.395C307.312 186.395 307.312 186.395 307.381 186.395C307.52 186.395 307.589 186.325 307.728 186.325C307.866 186.256 308.005 186.187 308.144 186.117C308.213 186.117 308.282 186.048 308.352 186.048C308.421 186.048 308.421 185.979 308.49 185.979C308.56 185.979 308.56 185.91 308.56 185.91C308.629 185.91 308.629 185.84 308.698 185.84C308.837 185.771 308.906 185.702 308.976 185.632C309.045 185.563 309.114 185.563 309.114 185.494C309.253 185.424 309.322 185.355 309.392 185.286C309.53 185.216 309.6 185.078 309.669 185.008L313.621 181.057C314.384 180.295 315.216 179.879 316.187 179.74C316.326 179.671 316.464 179.671 316.534 179.671C316.742 179.671 316.88 179.671 317.019 179.671C317.158 179.671 317.227 179.671 317.366 179.74C317.504 179.74 317.643 179.74 317.782 179.74C318.129 179.81 318.475 179.879 318.891 180.018C318.961 180.018 319.03 180.087 319.03 180.087C319.169 180.156 319.307 180.225 319.446 180.295C319.654 180.433 319.793 180.503 319.931 180.641C320.07 180.711 320.139 180.78 320.209 180.849C320.278 180.919 320.417 180.988 320.486 181.057L322.081 182.652C323.953 184.523 323.953 187.642 322.081 189.514L321.041 190.484L320.07 191.455L320.001 191.524L319.931 191.594L306.826 204.348C306.549 204.625 306.341 204.903 306.063 205.11C305.925 205.249 305.855 205.318 305.717 205.457L305.37 205.804C305.093 206.081 304.815 206.428 304.607 206.705C304.399 206.982 304.191 207.259 303.983 207.537C303.983 207.537 303.914 207.537 303.914 207.606C303.706 207.883 303.498 208.23 303.29 208.507C303.082 208.784 302.943 209.131 302.735 209.408C302.527 209.685 302.389 210.032 302.25 210.379C302.111 210.725 301.903 211.002 301.764 211.349C301.626 211.696 301.487 211.973 301.348 212.319C301.21 212.666 301.071 213.013 300.932 213.359C300.794 213.706 300.724 213.983 300.655 214.33C300.586 214.607 300.516 214.884 300.447 215.162C300.378 215.508 300.308 215.855 300.239 216.201C300.17 216.479 300.1 216.756 300.1 217.102C300.031 217.518 299.962 217.934 299.892 218.35C299.823 218.766 299.823 219.182 299.754 219.598C299.754 220.014 299.684 220.36 299.684 220.776V248.573H290.254C280.2 248.573 271.047 252.524 264.252 258.901H264.183L268.274 255.99Z" fill="#FCD3C1"/>
<path d="M272.156 219.043L271.948 218.835L272.087 218.905C272.087 218.905 272.156 218.974 272.156 219.043Z" fill="#FCD3C1"/>
<path d="M287.342 145.705L283.39 149.657C282.904 150.142 282.072 150.142 281.587 149.657C281.101 149.171 281.101 148.34 281.587 147.854L285.539 143.903C286.024 143.418 286.856 143.418 287.342 143.903C287.897 144.388 287.897 145.151 287.342 145.705Z" fill="#FCD3C1"/>
<path d="M287.342 145.705L283.39 149.657C282.904 150.142 282.072 150.142 281.587 149.657C281.101 149.171 281.101 148.34 281.587 147.854L285.539 143.903C286.024 143.418 286.856 143.418 287.342 143.903C287.897 144.388 287.897 145.151 287.342 145.705Z" fill="#205CAA"/>
<path d="M264.321 171.076C260.161 171.076 256.07 169.481 252.949 166.362C247.957 161.371 246.778 153.816 250.106 147.508C250.384 146.953 251.077 146.745 251.632 147.022C252.187 147.3 252.395 147.993 252.117 148.547C249.274 153.885 250.245 160.401 254.544 164.698C258.843 168.996 265.292 169.967 270.7 167.124C271.255 166.847 271.948 167.055 272.226 167.61C272.503 168.164 272.295 168.857 271.74 169.135C269.383 170.521 266.817 171.076 264.321 171.076Z" fill="#205CAA"/>
<path d="M347.02 248.05V304.784C332.008 323.415 327.991 334.201 304.523 347.019H251.809V281.179C252.936 272.634 256.883 265 262.732 259.186C263.014 258.906 263.225 258.696 263.507 258.486C270.414 252.042 279.716 248.05 289.935 248.05H347.02Z" fill="#8D9FD1"/>
<path d="M15.6709 303.611V217.726V195.406H64.9711C66.2192 192.98 67.814 190.623 69.6862 188.474C82.0979 174.334 103.662 172.947 117.808 185.355C131.953 197.763 133.34 219.39 120.928 233.531L120.789 233.669C113.023 242.403 108.516 253.633 108.516 265.348V270.824V303.542V343.954H54.7782C40.0783 332.378 26.9732 318.861 15.8096 303.819L15.6709 303.611Z" fill="#91BDE5"/>
<path d="M218.765 236.165C214.535 240.462 201.846 253.355 201.846 253.355C199.835 255.366 197.062 257.099 194.427 257.099C191.514 257.099 188.533 255.435 186.175 253.355C179.796 247.671 174.11 242.195 168.286 236.165C160.797 228.401 160.658 216.132 168.286 208.507L168.355 208.438C174.318 202.476 183.748 202.546 191.029 208.438C193.109 210.101 194.704 210.448 196.854 208.438C203.094 202.615 212.524 202.476 218.487 208.438C226.6 216.409 226.392 228.47 218.765 236.165Z" fill="#F37972"/>
<path d="M115.034 354.629H83.831C72.7368 354.629 63.7227 345.617 63.7227 334.526V303.334C63.7227 292.243 72.7368 283.231 83.831 283.231H115.034C126.128 283.231 135.142 292.243 135.142 303.334V334.526C135.142 345.617 126.128 354.629 115.034 354.629Z" fill="#8D9FD1"/>
<path d="M186.106 375.493V375.701C186.106 381.593 177.924 386.445 168.702 386.376H158.717H151.229V378.127V341.527C151.298 341.527 151.367 341.527 151.506 341.527C155.736 342.013 158.717 344.369 158.717 347.142V349.36C158.717 352.202 160.451 354.906 163.571 356.916L180.143 367.66C183.402 369.67 186.037 372.512 186.106 375.493Z" fill="#FCD3C1"/>
<path d="M151.229 341.389V386.307H149.495C114.132 380.137 81.8203 365.234 54.778 343.884C40.0781 332.308 26.973 318.791 15.8093 303.749C15.74 303.68 15.74 303.68 15.6707 303.611C14.4226 301.947 13.2438 300.284 12.065 298.62C11.857 298.343 11.7183 298.065 11.5103 297.857C10.3315 296.194 9.29145 294.461 8.25137 292.659C2.84291 282.954 0 272.002 0 260.911V223.41C0 214.815 10.6782 211.557 15.6707 217.796C16.0174 218.212 16.3641 218.697 16.5721 219.182C21.6338 228.401 27.4583 237.205 33.9069 245.453C35.0856 246.978 36.3337 248.503 37.5819 249.959C39.87 252.732 42.2276 255.366 44.6545 258C45.4172 259.386 46.3186 260.773 47.22 262.09C47.428 262.367 47.5667 262.644 47.7747 262.852C48.9535 264.516 50.1322 266.179 51.3804 267.843C51.3804 267.912 51.4497 267.912 51.519 267.982C62.6826 283.023 75.7878 296.54 90.4877 308.116C108.585 322.465 129.04 333.625 151.229 341.389Z" fill="#91BDE5"/>
<path d="M107.129 291.688H83.6927C68.2301 291.688 55.749 279.142 55.749 263.753V238.799C55.749 223.341 68.2994 210.864 83.6927 210.864H107.129C122.592 210.864 135.073 223.41 135.073 238.799V263.753C135.073 279.142 122.523 291.688 107.129 291.688Z" fill="#FCD3C1"/>
<path d="M93.8858 254.95C93.1924 254.95 92.6377 254.395 92.6377 253.702V248.365C92.6377 247.671 93.1924 247.117 93.8858 247.117C94.5792 247.117 95.1339 247.671 95.1339 248.365V253.702C95.0646 254.395 94.5099 254.95 93.8858 254.95Z" fill="#205CAA"/>
<path d="M119.957 254.95C119.264 254.95 118.709 254.395 118.709 253.702V248.365C118.709 247.671 119.264 247.117 119.957 247.117C120.65 247.117 121.205 247.671 121.205 248.365V253.702C121.205 254.395 120.65 254.95 119.957 254.95Z" fill="#205CAA"/>
<path d="M106.575 275.537C102.275 275.537 98.1151 274.151 94.6482 271.586C91.3199 269.091 88.8237 265.556 87.5756 261.535C87.3676 260.911 87.7143 260.218 88.4076 260.01C89.0317 259.802 89.7251 260.149 89.9331 260.842C91.0425 264.308 93.1921 267.427 96.1736 269.645C99.2246 271.933 102.83 273.111 106.575 273.111C110.319 273.111 113.994 271.933 116.975 269.645C119.888 267.427 122.107 264.308 123.216 260.842C123.424 260.218 124.117 259.802 124.741 260.01C125.365 260.218 125.781 260.911 125.573 261.535C124.325 265.486 121.829 269.091 118.501 271.586C115.034 274.151 110.943 275.537 106.575 275.537Z" fill="#205CAA"/>
<path d="M119.611 215.716C119.611 221.192 115.173 225.629 109.695 225.629H98.0462C93.9552 225.629 90.627 222.301 90.627 218.212C90.627 214.122 93.9552 210.795 98.0462 210.795H108.516C111.359 210.795 113.856 209.616 115.728 207.814C118.016 209.686 119.611 212.528 119.611 215.716Z" fill="#205CAA"/>
<path d="M73.4299 259.455C71.2804 259.455 69.5469 257.723 69.5469 255.574V247.117C69.5469 244.968 71.2804 243.235 73.4299 243.235C74.1233 243.235 74.678 243.79 74.678 244.483C74.678 245.176 74.1233 245.731 73.4299 245.731C72.6671 245.731 71.9737 246.354 71.9737 247.186V255.643C71.9737 256.405 72.5978 257.099 73.4299 257.099C74.1233 257.099 74.678 257.653 74.678 258.346C74.678 259.04 74.1233 259.455 73.4299 259.455Z" fill="#205CAA"/>
<path d="M186.106 376.741V376.949C186.106 382.841 194.219 387.693 203.372 387.624H213.357H220.845V379.375V342.775C220.776 342.775 220.707 342.775 220.568 342.775C216.338 343.26 213.357 345.617 213.357 348.39V350.608C213.357 353.45 211.623 356.153 208.503 358.164L191.931 368.908C188.672 370.918 186.176 373.76 186.106 376.741Z" fill="#FCD3C1"/>
<path d="M372.074 224.658V262.159C372.074 273.319 369.232 284.202 363.823 293.906C362.852 295.709 361.743 297.442 360.564 299.105C360.356 299.383 360.218 299.66 360.009 299.868C358.831 301.531 357.652 303.195 356.404 304.859C356.404 304.928 356.335 304.928 356.265 304.997C345.102 320.039 331.996 333.556 317.297 345.132C290.254 366.482 257.942 381.385 222.579 387.554H220.846V342.637C243.034 334.804 263.489 323.644 281.587 309.364C294.068 299.521 305.44 288.222 315.424 275.815C318.545 271.933 320.209 267.081 320.209 262.09V250.93C320.209 243.721 326.033 237.829 333.314 237.829H344.686C348.569 232.214 352.174 226.391 355.502 220.43C355.78 219.945 356.126 219.459 356.404 219.044C361.396 212.805 372.074 216.063 372.074 224.658Z" fill="#205CAA"/>
<path d="M372.075 219.043V237.482C372.075 248.919 361.882 258.277 349.401 258.277H309.877C309.808 258.277 309.808 258.277 309.739 258.277C304.33 258.208 300.031 253.564 300.031 248.157V221.192C300.031 220.776 300.031 220.43 300.101 220.014C300.101 219.667 300.17 219.321 300.17 219.043H372.075Z" fill="#205CAA"/>
</g>
<defs>
<clipPath id="clip0">
<rect width="372.074" height="387.624" fill="white"/>
</clipPath>
</defs>
</svg>
