<svg width="100" height="125" viewBox="0 0 100 125" fill="none" xmlns="http://www.w3.org/2000/svg">
<path d="M73.1871 32.827C75.2821 30.832 74.5681 28.449 73.0701 26.636C71.4551 25.032 69.3171 24 69.3171 24C69.1471 24.21 66.5541 28.428 73.1871 32.827Z" fill="white"/>
<path d="M78.2801 30.099C78.2761 30.099 74.3101 33.774 79.8241 39.571C85.0301 36.857 78.5481 29.763 78.2801 30.099Z" fill="white"/>
<path d="M87.2451 42.472C86.6351 40.272 85.2951 38.319 85.2951 38.319C85.0651 38.411 80.6931 40.808 84.2811 47.912C87.0901 47.219 87.6431 44.782 87.2451 42.472Z" fill="white"/>
<path d="M86.6901 57.07C92.5451 57.273 90.4971 47.901 90.0431 48.068C90.0431 48.032 84.8051 49.285 86.6901 57.07Z" fill="white"/>
<path d="M92.0701 58.694C91.8601 58.647 86.7911 58.561 86.4011 66.513C89.1151 67.283 91.0431 65.478 91.6391 63.262C92.2371 61.064 92.0701 58.694 92.0701 58.694Z" fill="white"/>
<path d="M88.3681 69.647C86.9411 70.321 85.2721 71.784 83.8551 75.603C86.3701 77.07 88.3681 75.696 89.7401 73.788C91.1741 71.891 91.1851 69.454 91.2811 69.48C91.2811 69.48 89.8821 69.044 88.3681 69.647Z" fill="white"/>
<path d="M79.1631 83.827C83.2121 88.103 88.1701 79.883 87.9131 79.768C87.9131 79.768 83.1931 76.908 79.1631 83.827Z" fill="white"/>
<path d="M72.3331 90.348C73.7111 92.803 76.4001 92.919 78.3221 91.691C80.2971 90.545 81.8321 88.741 81.8321 88.741C81.7301 88.576 78.1301 84.899 72.3331 90.348Z" fill="white"/>
<path d="M71.5121 93.978C70.0371 93.436 67.7931 93.283 64.1141 95.029C64.8941 97.851 67.2671 98.243 69.5961 97.851C71.9471 97.543 73.6701 95.791 73.7191 95.897C73.7191 95.897 73.0361 94.601 71.5121 93.978Z" fill="white"/>
<path d="M55.0221 97.586C55.0371 100.53 57.1901 101.414 59.5331 101.507C61.8451 101.561 64.1411 100.976 64.0911 100.862C64.0911 100.862 62.7341 95.412 55.0221 97.586Z" fill="white"/>
<path d="M63.4181 93.724C71.7261 90.72 81.4361 82.023 84.4681 70.314C87.5131 58.683 83.8921 46.163 77.9171 39.493C75.1651 35.946 72.0911 33.809 70.0581 32.205C69.3311 31.813 68.7551 31.484 68.2331 31.207C66.8581 28.654 64.5061 27.367 62.5101 27.367C60.2851 27.213 58.7551 27.826 58.7551 27.826C58.7551 27.826 59.7941 29.306 61.4411 30.411C63.0281 31.303 64.9031 32.253 67.7581 32.099C68.2521 32.353 68.8111 32.668 69.4911 33.042C70.2331 33.625 71.1351 34.316 72.0911 35.104C66.5161 30.806 64.3011 36.444 64.3961 36.234C64.3961 36.234 65.7031 37.084 67.3621 37.279C68.8961 37.696 70.8781 37.696 72.4401 35.375C73.9471 36.641 75.5851 38.135 77.1421 40.149C77.3191 40.341 77.4691 40.599 77.6561 40.806C73.4091 36.141 70.3011 40.41 70.3011 40.41C70.5151 40.235 73.9961 45.167 78.3011 41.646C79.7081 43.51 80.9451 45.717 81.9241 48.158C79.1831 42.582 74.8121 46.069 74.9801 45.945C74.9801 45.945 75.6941 47.33 77.0461 48.346C78.1611 49.413 79.8581 50.412 82.3581 49.193C82.9981 50.938 83.4721 52.785 83.8451 54.694C82.0351 50.71 78.1801 52.461 78.1801 52.461C78.5231 52.392 79.0231 58.219 84.3141 57.515C84.5321 59.452 84.5541 61.442 84.4391 63.453C83.9311 58.837 79.3621 59.58 79.5171 59.58C79.5171 59.58 79.4191 61.132 80.0571 62.672C80.6741 64.188 81.4531 65.824 84.2521 66.057C84.0781 67.393 83.8301 68.72 83.4861 70.05C83.3191 70.661 83.0721 71.229 82.8841 71.82C83.1931 69.924 82.5051 68.65 81.5721 67.932C80.3791 66.937 78.9651 66.802 78.9651 66.802C79.2991 66.946 76.8811 72.463 82.0071 74.32C81.1951 76.231 80.1781 78.004 79.0511 79.673C81.0181 75.204 76.7361 73.698 76.7551 73.698C76.8811 73.813 73.2291 78.475 77.6641 81.682C76.6331 83.023 75.5011 84.235 74.3491 85.366C76.0081 82.178 72.9111 79.952 73.0331 80.045C73.0331 80.045 71.8581 81.069 71.2241 82.629C70.6771 84.138 70.1051 85.743 71.6841 87.76C69.9931 89.115 68.2251 90.302 66.4801 91.234C68.1401 90.088 68.5641 88.664 68.3881 87.46C68.2521 85.901 67.3351 84.828 67.3351 84.828C67.4901 85.147 61.8901 87.377 64.1981 92.286C63.8221 92.432 63.4311 92.656 63.0501 92.801C61.4041 93.722 59.6601 93.88 58.1301 94.258C62.6401 92.4 60.6771 88.424 60.6771 88.442C60.6771 88.442 54.7951 89.362 55.7131 94.755C54.6991 94.927 53.7391 95.01 52.9011 94.993C50.3781 95.062 48.9411 95.092 48.9411 95.092V95.027C48.5741 95.01 48.2271 95.01 47.7831 94.994C46.9491 95.011 45.9881 94.928 44.9661 94.756C45.8821 89.362 40.0041 88.443 40.0041 88.443C40.0041 88.425 38.0391 92.401 42.5571 94.259C41.0311 93.881 39.2891 93.723 37.6341 92.802C37.2461 92.657 36.8601 92.434 36.4871 92.287C38.7961 87.378 33.2021 85.148 33.3521 84.829C33.3521 84.829 32.4421 85.902 32.2841 87.461C32.1261 88.665 32.5501 90.09 34.2041 91.235C32.4621 90.303 30.6891 89.117 28.9901 87.761C30.5821 85.744 30.0111 84.139 29.4611 82.63C28.8271 81.07 27.6531 80.046 27.6531 80.046C27.7731 79.953 24.6761 82.179 26.3381 85.367C25.1741 84.236 24.0511 83.024 23.0211 81.683C27.4581 78.476 23.7991 73.814 23.9261 73.699C23.9401 73.699 19.6671 75.205 21.6431 79.674C20.5191 78.005 19.4891 76.233 18.6681 74.321C23.7981 72.465 21.3881 66.947 21.7231 66.803C21.7231 66.803 20.3161 66.938 19.1111 67.933C18.1831 68.651 17.4931 69.925 17.8101 71.821C17.6151 71.23 17.3561 70.663 17.2001 70.051C16.8461 68.721 16.6101 67.394 16.4281 66.058C19.2331 65.826 20.0091 64.189 20.6331 62.673C21.2661 61.133 21.1601 59.581 21.1601 59.581C21.3381 59.581 16.7531 58.837 16.2531 63.454C16.1321 61.442 16.1591 59.452 16.3791 57.516C21.6641 58.22 22.1581 52.393 22.5041 52.462C22.5041 52.462 18.6461 50.711 16.8351 54.695C17.2051 52.786 17.6941 50.939 18.3301 49.194C20.8251 50.413 22.5231 49.414 23.6521 48.347C24.9891 47.331 25.6991 45.946 25.6991 45.946C25.8811 46.07 21.5061 42.583 18.7561 48.159C19.7471 45.718 20.9781 43.511 22.3921 41.647C26.6881 45.168 30.1671 40.236 30.3901 40.411C30.3901 40.411 27.2841 36.142 23.0301 40.807C23.2171 40.6 23.3711 40.343 23.5461 40.15C25.1021 38.135 26.7401 36.641 28.2461 35.376C29.8191 37.697 31.7961 37.697 33.3221 37.28C34.9791 37.085 36.2801 36.235 36.2801 36.235C36.3871 36.445 34.1671 30.806 28.5911 35.105C29.5561 34.317 30.4521 33.626 31.1911 33.043C31.8711 32.669 32.4451 32.355 32.9271 32.1C35.7881 32.254 37.6501 31.303 39.2391 30.412C40.9011 29.307 41.9371 27.827 41.9371 27.827C41.9371 27.827 40.3941 27.214 38.1871 27.368C36.1801 27.368 33.8251 28.655 32.4581 31.208C31.9291 31.484 31.3531 31.814 30.6301 32.206C28.5901 33.81 25.5221 35.947 22.7661 39.494C16.7941 46.163 13.1691 58.684 16.2251 70.315C19.2431 82.024 28.9551 90.721 37.2631 93.725C39.2381 94.838 41.3671 94.859 43.0941 95.398C44.8381 95.922 46.4141 96.047 47.7151 96.02C48.0071 96.025 48.2661 96.027 48.5151 96.027C48.6221 96.077 48.7451 96.112 48.8871 96.112C48.8871 96.112 50.3691 96.072 52.9641 96.02C54.2751 96.047 55.8481 95.922 57.5891 95.398C59.3181 94.858 61.4601 94.837 63.4181 93.724ZM66.2391 91.386C66.1001 91.446 65.9601 91.517 65.8031 91.587C65.9381 91.517 66.1151 91.446 66.2391 91.386Z" fill="white"/>
<path d="M31.3731 24C31.3731 24 29.2241 25.033 27.6191 26.636C26.1211 28.449 25.4041 30.832 27.4971 32.827C34.1251 28.428 31.5321 24.21 31.3731 24Z" fill="white"/>
<path d="M20.8631 39.572C26.3811 33.775 22.4081 30.1 22.4021 30.1C22.1381 29.763 15.6471 36.857 20.8631 39.572Z" fill="white"/>
<path d="M16.3981 47.911C19.9831 40.807 15.6201 38.411 15.3951 38.318C15.3951 38.318 14.0501 40.271 13.4401 42.471C13.0361 44.782 13.5961 47.219 16.3981 47.911Z" fill="white"/>
<path d="M14.0001 57.07C15.8811 49.285 10.6421 48.032 10.6421 48.068C10.1891 47.901 8.1421 57.273 14.0001 57.07Z" fill="white"/>
<path d="M14.2951 66.513C13.9031 58.561 8.8161 58.647 8.6141 58.694C8.6141 58.694 8.4421 61.064 9.0431 63.262C9.6451 65.478 11.5611 67.283 14.2951 66.513Z" fill="white"/>
<path d="M16.8291 75.603C15.4151 71.784 13.7451 70.321 12.3221 69.647C10.7981 69.044 9.4121 69.48 9.4121 69.48C9.5061 69.454 9.5061 71.89 10.9461 73.788C12.3221 75.696 14.3151 77.07 16.8291 75.603Z" fill="white"/>
<path d="M12.7761 79.768C12.5171 79.882 17.4711 88.103 21.5271 83.827C17.4921 76.908 12.7761 79.768 12.7761 79.768Z" fill="white"/>
<path d="M28.3541 90.348C22.5521 84.899 18.9441 88.576 18.8481 88.741C18.8481 88.741 20.3841 90.545 22.3561 91.691C24.2741 92.919 26.9741 92.803 28.3541 90.348Z" fill="white"/>
<path d="M29.1701 93.978C27.6421 94.601 26.9651 95.897 26.9651 95.897C27.0061 95.792 28.7341 97.543 31.0891 97.851C33.4171 98.243 35.8031 97.851 36.5601 95.029C32.8851 93.283 30.6361 93.436 29.1701 93.978Z" fill="white"/>
<path d="M36.5911 100.863C36.5411 100.976 38.8371 101.561 41.1571 101.508C43.4881 101.415 45.6491 100.531 45.6641 97.587C37.9511 95.412 36.5911 100.863 36.5911 100.863Z" fill="white"/>
</svg>
