<svg width="1879" height="433" viewBox="0 0 1879 433" fill="none" xmlns="http://www.w3.org/2000/svg">
<path d="M1028 432C891.141 348.045 285.309 312.019 0 305V432H1028Z" fill="#8D9FD1"/>
<path d="M157.173 223.538C197.585 223.538 230.346 190.734 230.346 150.269C230.346 109.804 197.585 77 157.173 77C116.761 77 84 109.804 84 150.269C84 190.734 116.761 223.538 157.173 223.538Z" fill="#91BDE5"/>
<path d="M255.961 299.292C287.463 299.292 313 273.722 313 242.178C313 210.635 287.463 185.064 255.961 185.064C224.459 185.064 198.922 210.635 198.922 242.178C198.922 273.722 224.459 299.292 255.961 299.292Z" fill="#91BDE5"/>
<path d="M257.103 241.781H254.77V349H257.103V241.781Z" fill="#8D9FD1"/>
<path d="M270.923 270.441L269.273 268.789L255.408 282.673L257.058 284.325L270.923 270.441Z" fill="#8D9FD1"/>
<path d="M243.082 247.702L241.433 249.354L255.298 263.238L256.948 261.586L243.082 247.702Z" fill="#8D9FD1"/>
<path d="M171.89 179.351L170.24 177.699L156.374 191.582L158.024 193.234L171.89 179.351Z" fill="#8D9FD1"/>
<path d="M144.1 156.624L142.45 158.276L156.315 172.16L157.965 170.508L144.1 156.624Z" fill="#8D9FD1"/>
<path d="M158.315 150.269H155.981V349H158.315V150.269Z" fill="#8D9FD1"/>
<g clip-path="url(#clip0)">
<path d="M1622.72 146.538C1582.33 146.538 1549.6 113.734 1549.6 73.269C1549.6 32.8037 1582.33 0 1622.72 0C1663.1 0 1695.84 32.8037 1695.84 73.269C1695.84 113.734 1663.1 146.538 1622.72 146.538Z" fill="#91BDE5"/>
<path d="M1524 222.292C1492.52 222.292 1467 196.721 1467 165.178C1467 133.635 1492.52 108.064 1524 108.064C1555.48 108.064 1581 133.635 1581 165.178C1581 196.721 1555.48 222.292 1524 222.292Z" fill="#91BDE5"/>
<path d="M1522.86 164.781H1525.19V272H1522.86V164.781Z" fill="#8D9FD1"/>
<path d="M1509.05 193.442L1510.7 191.79L1524.55 205.673L1522.9 207.325L1509.05 193.442Z" fill="#8D9FD1"/>
<path d="M1536.87 170.702L1538.52 172.354L1524.66 186.238L1523.01 184.586L1536.87 170.702Z" fill="#8D9FD1"/>
<path d="M1608.01 102.351L1609.66 100.699L1623.52 114.583L1621.87 116.234L1608.01 102.351Z" fill="#8D9FD1"/>
<path d="M1635.78 79.6242L1637.43 81.2761L1623.58 95.1597L1621.93 93.5077L1635.78 79.6242Z" fill="#8D9FD1"/>
<path d="M1621.58 73.269H1623.91V272H1621.58V73.269Z" fill="#8D9FD1"/>
</g>
<path d="M1879 194.226C1477.32 242.3 752.384 385.612 703 432L1879 432.226V194.226Z" fill="#91BDE5"/>
<defs>
<clipPath id="clip0">
<rect width="266" height="272" fill="white" transform="matrix(-1 0 0 1 1696 0)"/>
</clipPath>
</defs>
</svg>
