<svg width="1879" height="433" viewBox="0 0 1879 433" fill="none" xmlns="http://www.w3.org/2000/svg">
<path d="M1622.72 146.538C1582.33 146.538 1549.6 113.734 1549.6 73.269C1549.6 32.8037 1582.33 0 1622.72 0C1663.1 0 1695.84 32.8037 1695.84 73.269C1695.84 113.734 1663.1 146.538 1622.72 146.538Z" fill="#91BDE5"/>
<path d="M1524 222.292C1492.52 222.292 1467 196.721 1467 165.178C1467 133.635 1492.52 108.064 1524 108.064C1555.48 108.064 1581 133.635 1581 165.178C1581 196.721 1555.48 222.292 1524 222.292Z" fill="#91BDE5"/>
<path d="M1522.86 164.781H1525.19V272H1522.86V164.781Z" fill="#8D9FD1"/>
<path d="M1509.05 193.442L1510.7 191.79L1524.55 205.673L1522.9 207.325L1509.05 193.442Z" fill="#8D9FD1"/>
<path d="M1536.87 170.702L1538.52 172.354L1524.66 186.238L1523.01 184.586L1536.87 170.702Z" fill="#8D9FD1"/>
<path d="M1608.01 102.351L1609.66 100.699L1623.52 114.583L1621.87 116.234L1608.01 102.351Z" fill="#8D9FD1"/>
<path d="M1635.78 79.6242L1637.43 81.2761L1623.58 95.1597L1621.93 93.5077L1635.78 79.6242Z" fill="#8D9FD1"/>
<path d="M1621.58 73.269H1623.91V272H1621.58V73.269Z" fill="#8D9FD1"/>
<mask id="mask0" mask-type="alpha" maskUnits="userSpaceOnUse" x="624" y="213" width="460" height="218">
<rect x="624" y="213" width="460" height="218" fill="#C4C4C4"/>
</mask>
<g mask="url(#mask0)">
<circle cx="862.5" cy="395.5" r="178.5" fill="white"/>
</g>
<path d="M1028 432C891.141 348.045 285.309 312.019 0 305V432H1028Z" fill="#8D9FD1"/>
<path d="M448.338 71.6381V99.7074H447.912C447.895 99.6733 447.895 99.622 447.878 99.5879C447.844 99.4172 447.793 99.2635 447.741 99.1098C447.69 98.922 447.622 98.7342 447.571 98.5464C447.503 98.3415 447.418 98.1195 447.332 97.9317C447.264 97.7268 447.179 97.539 447.094 97.3512C447.008 97.1634 446.923 96.9756 446.821 96.7878C446.719 96.6 446.633 96.4122 446.531 96.2243C446.429 96.0365 446.327 95.8487 446.207 95.6951C446.088 95.5073 445.969 95.3365 445.866 95.1658C445.866 95.1487 445.849 95.1487 445.849 95.1487C445.73 94.978 445.611 94.8072 445.491 94.6536C445.355 94.4828 445.202 94.295 445.048 94.1243L444.861 93.9023C444.792 93.834 444.741 93.7486 444.673 93.6974C444.52 93.5438 444.383 93.373 444.213 93.2364L436.525 85.724L436.491 85.6898L436.44 85.6557L435.843 85.0752L435.246 84.4776C434.121 83.3507 434.121 81.5409 435.246 80.4311L436.184 79.492C436.218 79.4579 436.286 79.3896 436.337 79.3554C436.389 79.3042 436.44 79.253 436.508 79.2359C436.61 79.1676 436.695 79.0993 436.798 79.031C436.866 78.9969 436.951 78.9457 437.036 78.9115C437.07 78.8944 437.104 78.8774 437.139 78.8774C437.343 78.792 437.565 78.7408 437.769 78.7066C437.854 78.6895 437.923 78.6895 438.008 78.6895C438.076 78.6725 438.144 78.6725 438.212 78.6725C438.315 78.6725 438.417 78.6725 438.519 78.6895C438.588 78.7066 438.673 78.7066 438.741 78.7237C438.997 78.6725 439.252 78.6554 439.508 78.6554C440.258 78.6725 441.008 78.9627 441.588 79.492L444.111 81.797C444.486 82.1385 444.929 82.3775 445.406 82.5141C445.474 82.497 445.542 82.4799 445.611 82.4458C445.628 82.4458 445.628 82.4287 445.628 82.4287C445.969 82.2921 446.293 82.0872 446.582 81.8141L447.537 80.8579C447.963 80.4311 448.236 79.8847 448.338 79.3213V71.7234V71.6381Z" fill="#205CAA"/>
<path d="M465.385 117.07L465.503 116.952L465.418 116.986C465.418 117.003 465.401 117.037 465.385 117.07Z" fill="#205CAA"/>
<path d="M465.385 117.07L465.503 116.952L465.418 116.986C465.418 117.003 465.401 117.037 465.385 117.07Z" fill="#FCD3C1"/>
<path d="M465.418 116.986C465.401 117.02 465.401 117.037 465.385 117.07L465.503 116.952L465.418 116.986Z" fill="#FCD3C1"/>
<path d="M445.389 82.4287C446.446 82.719 447.673 82.4799 448.509 81.7116L449.549 80.7555C449.6 80.7213 449.651 80.6701 449.685 80.6189V44.3199L448.321 42.954V79.2359C448.219 79.7993 447.946 80.3457 447.52 80.7725L446.565 81.7287C446.276 82.0189 445.969 82.2238 445.611 82.3433C445.611 82.3433 445.611 82.3604 445.594 82.3604C445.526 82.3775 445.457 82.4116 445.389 82.4287Z" fill="#205CAA"/>
<path d="M435.212 84.3922L435.809 84.9898L436.406 85.5703L436.457 85.6045L436.491 85.6386L444.179 93.1511C444.332 93.3048 444.486 93.4584 444.639 93.6121C444.707 93.6804 444.758 93.7487 444.827 93.817L445.014 94.039C445.168 94.2268 445.321 94.3975 445.457 94.5853C445.577 94.739 445.696 94.9097 445.815 95.0805C445.832 95.0975 445.832 95.0975 445.832 95.0975C445.952 95.2683 446.071 95.439 446.173 95.6268C446.293 95.7976 446.395 95.9854 446.497 96.1732C446.599 96.361 446.702 96.5488 446.787 96.7366C446.889 96.9244 446.974 97.1122 447.06 97.3001C447.145 97.4879 447.23 97.6757 447.298 97.8806C447.384 98.0854 447.452 98.2903 447.537 98.4952C447.605 98.683 447.656 98.8708 447.725 99.0587C447.776 99.2123 447.827 99.3831 447.861 99.5367C447.912 99.7416 447.963 99.9465 447.997 100.151C448.031 100.322 448.065 100.493 448.1 100.664C448.134 100.903 448.168 101.159 448.202 101.415C448.236 101.654 448.253 101.91 448.27 102.166C448.287 102.405 448.287 102.627 448.287 102.849V122.382C449.6 121.101 450.401 119.377 450.401 117.464V102.849C450.384 99.1782 448.781 95.661 445.918 93.0999L437.514 85.5874L437.48 85.5533L437.428 85.502C437.002 85.1264 436.559 84.7337 436.116 84.3239C435.536 83.7947 435.229 83.1117 435.212 82.4117C435.178 81.6434 435.485 80.858 436.116 80.2774L437.156 79.3213C437.599 78.9115 438.144 78.6554 438.724 78.553C438.656 78.5359 438.571 78.5188 438.502 78.5188C438.4 78.5018 438.298 78.5018 438.196 78.5018C438.127 78.5018 438.059 78.5188 437.991 78.5188C437.906 78.5188 437.838 78.5188 437.752 78.5359C437.548 78.5701 437.326 78.6213 437.122 78.7067C437.088 78.7237 437.053 78.7408 437.019 78.7408C436.934 78.775 436.849 78.8262 436.781 78.8603C436.678 78.9286 436.576 78.9798 436.491 79.0652C436.423 79.0994 436.372 79.1335 436.32 79.1847C436.269 79.2189 436.218 79.2872 436.167 79.3213L435.229 80.2604C434.104 81.4726 434.104 83.2824 435.212 84.3922Z" fill="#205CAA"/>
<path d="M455.736 58.4571L458.038 60.762C458.327 61.0523 458.805 61.0523 459.112 60.762C459.401 60.4718 459.401 59.9937 459.112 59.7035L456.81 57.3985C456.52 57.1082 456.043 57.1082 455.736 57.3985C455.447 57.6887 455.447 58.1668 455.736 58.4571Z" fill="#205CAA"/>
<path d="M448.304 78.2798V79.2359C448.355 78.9115 448.355 78.5871 448.304 78.2798Z" fill="#205CAA"/>
<path d="M405.944 73.0552V89.0875C405.944 96.7366 412.131 102.934 419.768 102.934H429.928C429.928 102.934 429.382 102.49 428.99 101.739L428.973 101.722C428.956 101.705 428.956 101.688 428.939 101.671C428.939 101.654 428.922 101.654 428.922 101.654L428.786 101.534L419.155 91.8876C414.245 85.6386 413.972 76.931 418.353 70.4088V70.3917C418.439 70.2722 418.524 70.1526 418.609 70.0161C418.694 69.8965 418.797 69.7599 418.865 69.6404C419.052 69.4014 419.24 69.1624 419.427 68.9233C419.802 68.4965 420.177 68.0696 420.587 67.6599L424.933 63.306L423.842 62.2133C421.865 60.2328 423.229 57.3643 425.905 56.6643C427.183 56.3228 429.212 55.7082 430.934 55.1618C431.138 55.0935 431.36 55.0252 431.547 54.9569C431.65 54.9228 431.752 54.8886 431.854 54.8716C432.008 54.8203 432.161 54.7691 432.314 54.7179C432.604 54.6155 432.877 54.5472 433.116 54.4618C433.286 54.4106 433.44 54.3594 433.576 54.3081C433.712 54.2569 433.815 54.2228 433.9 54.2057C434.002 54.1715 434.053 54.1545 434.053 54.1545L443.889 44.3199L445.253 42.954V79.2359C445.355 79.7994 445.628 80.3457 446.054 80.7726L447.009 81.7287C447.298 82.019 447.605 82.2238 447.963 82.3434C447.963 82.3434 447.963 82.3604 447.98 82.3604C448.048 82.3946 448.117 82.4116 448.185 82.4287C448.679 82.2921 449.105 82.0531 449.48 81.7116L452.003 79.4067C452.583 78.8774 453.333 78.5871 454.083 78.57C454.356 78.553 454.594 78.5871 454.85 78.6383C454.918 78.6213 455.003 78.6042 455.071 78.6042C455.174 78.5871 455.276 78.5871 455.378 78.5871C455.447 78.5871 455.515 78.6042 455.583 78.6042C455.668 78.6042 455.736 78.6042 455.822 78.6213C456.026 78.6554 456.248 78.7066 456.452 78.792C456.486 78.8091 456.52 78.8261 456.555 78.8261C456.64 78.8603 456.725 78.9115 456.793 78.9457C456.895 79.014 456.998 79.0652 457.083 79.1505C457.151 79.1847 457.202 79.2188 457.253 79.2701C457.305 79.3042 457.356 79.3725 457.407 79.4067L458.344 80.3457C459.469 81.4726 459.469 83.2824 458.344 84.3922L457.748 84.9898L457.151 85.5703L457.1 85.6045L457.066 85.6386L449.378 93.1511C449.225 93.3047 449.071 93.4584 448.918 93.6121C448.85 93.6804 448.798 93.7487 448.73 93.817L448.543 94.0389C448.389 94.2097 448.236 94.3975 448.1 94.5682C447.963 94.7219 447.861 94.8926 447.742 95.0634C447.724 95.0804 447.724 95.0804 447.724 95.0804C447.605 95.2512 447.486 95.4219 447.384 95.6097C447.264 95.7805 447.162 95.9683 447.06 96.139C446.957 96.3097 446.855 96.5146 446.77 96.7024C446.668 96.8903 446.582 97.0781 446.497 97.2659C446.412 97.4537 446.327 97.6415 446.258 97.8464C446.173 98.0513 446.105 98.2562 446.02 98.461C445.952 98.6489 445.901 98.8367 445.849 99.0245C445.798 99.1781 445.747 99.3489 445.713 99.5025C445.696 99.5367 445.696 99.5708 445.679 99.6221C445.645 99.7928 445.611 99.9635 445.577 100.134C445.543 100.305 445.508 100.476 445.474 100.646C445.44 100.886 445.406 101.142 445.372 101.398C445.338 101.637 445.321 101.893 445.304 102.149C445.287 102.388 445.287 102.61 445.287 102.832V122.364C446.719 123.782 448.781 124.669 451.049 124.669H474.317C481.681 124.669 487.664 119.189 487.664 112.445V73.4991C487.664 72.2527 487.596 71.0063 487.477 69.7941C486.539 60.2327 481.988 51.5934 475.067 45.0883L474.198 44.2858L474.164 44.2517C471.385 41.7759 468.231 39.6246 464.805 37.9002C459.043 34.9806 452.48 33.222 445.491 33H445.474L443.77 33.0341H443.736C422.666 34.1952 405.944 51.6788 405.944 73.0552Z" fill="#205CAA"/>
<path d="M464.822 101.517L474.436 91.8876L464.822 101.517Z" fill="#205CAA"/>
<path d="M436.457 85.6215L436.508 85.6557L444.196 93.1681L436.508 85.6386L436.457 85.6215Z" fill="#205CAA"/>
<path d="M435.809 84.9898L436.405 85.5703V85.5532C436.218 85.3825 436.013 85.1947 435.809 84.9898Z" fill="#205CAA"/>
<path d="M464.686 101.653L464.82 101.534L464.719 101.568C464.702 101.585 464.702 101.619 464.686 101.653Z" fill="#205CAA"/>
<path d="M430.644 124.772V125.233C430.644 125.25 430.644 125.25 430.644 125.25V125.404H469.135C465.163 121.63 459.777 119.308 453.861 119.308H448.321V124.789H430.644V124.772Z" fill="#FCD3C1"/>
<path d="M455.737 57.3985C456.026 57.1082 456.504 57.1082 456.793 57.3985L459.095 59.7035C459.384 59.9937 459.384 60.4718 459.095 60.762C458.805 61.0523 458.328 61.0523 458.021 60.762L455.737 58.4571C455.447 58.1668 455.447 57.6888 455.737 57.3985ZM469.357 125.386H469.135C465.163 121.613 459.777 119.291 453.861 119.291H448.321V102.917C448.321 102.678 448.304 102.456 448.304 102.234C448.287 101.978 448.27 101.722 448.236 101.483C448.202 101.227 448.168 100.971 448.134 100.732C448.117 100.544 448.083 100.39 448.031 100.22C447.997 100.015 447.946 99.7928 447.895 99.605C447.861 99.4343 447.81 99.2806 447.759 99.1099C447.708 98.922 447.639 98.7342 447.588 98.5464C447.52 98.3415 447.435 98.1196 447.35 97.9318C447.281 97.7269 447.196 97.5391 447.111 97.3513C447.026 97.1634 446.923 96.9756 446.838 96.7878C446.736 96.6 446.651 96.4122 446.548 96.2244C446.446 96.0536 446.344 95.8488 446.225 95.678C446.105 95.4902 445.986 95.3195 445.884 95.1487C445.884 95.1317 445.867 95.1317 445.867 95.1317C445.747 94.9609 445.628 94.7902 445.509 94.6365C445.372 94.4487 445.219 94.278 445.065 94.0902L444.878 93.8682C444.81 93.7999 444.759 93.7145 444.69 93.6633C444.537 93.5096 444.401 93.3389 444.23 93.2023L436.525 85.6898L436.491 85.6557L436.44 85.6215L435.843 85.041L435.247 84.4434C434.122 83.3166 434.122 81.5067 435.247 80.3969L436.184 79.4579C436.218 79.4237 436.286 79.3554 436.338 79.3213C436.389 79.2701 436.44 79.2188 436.508 79.2018C436.61 79.1335 436.696 79.0652 436.798 78.9969C436.866 78.9627 436.951 78.9115 437.037 78.8774C437.071 78.8603 437.105 78.8432 437.139 78.8432C437.343 78.7579 437.565 78.7066 437.77 78.6725C437.855 78.6554 437.923 78.6554 438.008 78.6554C438.076 78.6383 438.145 78.6383 438.213 78.6383C438.315 78.6383 438.417 78.6383 438.52 78.6554C438.588 78.6725 438.673 78.6725 438.741 78.6896C439.287 78.7749 439.798 79.031 440.241 79.475L442.543 81.7799C442.594 81.8311 442.662 81.8994 442.73 81.9336C442.781 81.9848 442.849 82.036 442.918 82.0702C442.952 82.1043 442.986 82.1214 443.02 82.1385C443.088 82.1726 443.139 82.2068 443.19 82.2409C443.207 82.258 443.224 82.2751 443.258 82.2751C443.276 82.2921 443.293 82.2921 443.31 82.3092C443.327 82.3263 443.344 82.3263 443.378 82.3434C443.412 82.3604 443.48 82.3775 443.514 82.3946C443.599 82.4287 443.685 82.4629 443.77 82.497C443.787 82.497 443.787 82.497 443.787 82.497C443.855 82.5141 443.906 82.5312 443.974 82.5312C443.991 82.5482 444.026 82.5482 444.043 82.5482C444.128 82.5824 444.213 82.5824 444.298 82.5995H444.315C444.69 82.6336 445.082 82.5995 445.44 82.4799C445.509 82.4629 445.577 82.4458 445.645 82.4117C445.662 82.4117 445.662 82.3946 445.662 82.3946C446.003 82.2751 446.327 82.0531 446.617 81.7799L447.571 80.8238C447.997 80.3969 448.27 79.8506 448.372 79.2871C448.424 78.9627 448.424 78.6554 448.372 78.331V42.954L449.736 44.3199L459.572 54.1715C459.572 54.1715 459.623 54.1886 459.725 54.2057C459.794 54.2398 459.913 54.274 460.049 54.3081C460.169 54.3423 460.339 54.4106 460.51 54.4618C460.748 54.5301 461.021 54.6155 461.311 54.7179C461.464 54.7691 461.6 54.8204 461.771 54.8716C461.873 54.9057 461.976 54.9399 462.078 54.974C462.282 55.0423 462.487 55.1106 462.691 55.1789C464.413 55.7253 466.425 56.3399 467.72 56.6814C470.414 57.3814 471.76 60.2669 469.783 62.2304L468.692 63.3231L473.039 67.6769C473.448 68.0867 473.823 68.5136 474.198 68.9404C474.385 69.1794 474.573 69.4185 474.76 69.6575C474.846 69.777 474.931 69.9136 475.016 70.0331C475.118 70.1526 475.204 70.2722 475.272 70.4088C475.289 70.4088 475.289 70.4258 475.289 70.4258C479.67 76.948 479.397 85.6557 474.488 91.9047L464.856 101.551L464.754 101.586C464.737 101.62 464.737 101.654 464.72 101.688C464.72 101.705 464.703 101.705 464.703 101.705C464.686 101.722 464.686 101.739 464.669 101.756L464.652 101.773L463.595 102.969H463.561C461.583 105.342 460.407 108.398 460.407 111.727C460.407 116.218 462.572 120.196 465.913 122.689C466.271 122.962 466.646 123.201 467.038 123.44L469.357 125.386Z" fill="#FCD3C1"/>
<path d="M464.686 101.653L464.821 101.534L464.72 101.568C464.703 101.585 464.703 101.619 464.686 101.653Z" fill="#FCD3C1"/>
<path d="M455.736 58.4571L458.038 60.762C458.327 61.0523 458.805 61.0523 459.112 60.762C459.401 60.4718 459.401 59.9937 459.112 59.7035L456.81 57.3985C456.52 57.1082 456.043 57.1082 455.736 57.3985C455.447 57.6887 455.447 58.1668 455.736 58.4571Z" fill="#FCD3C1"/>
<path d="M455.736 58.4571L458.038 60.762C458.327 61.0523 458.805 61.0523 459.112 60.762C459.401 60.4718 459.401 59.9937 459.112 59.7035L456.81 57.3985C456.52 57.1082 456.043 57.1082 455.736 57.3985C455.447 57.6887 455.447 58.1668 455.736 58.4571Z" fill="#205CAA"/>
<path d="M469.305 73.4308C471.743 73.4308 474.146 72.4747 475.97 70.6478C478.92 67.694 479.584 63.2377 477.658 59.5498C477.488 59.2254 477.078 59.0888 476.738 59.2595C476.414 59.4303 476.277 59.8401 476.448 60.1815C478.101 63.3402 477.522 67.1647 474.999 69.6917C472.476 72.2186 468.657 72.7991 465.504 71.1429C465.18 70.9722 464.771 71.0917 464.583 71.4332C464.413 71.7576 464.532 72.1674 464.873 72.3552C466.288 73.0723 467.805 73.4308 469.305 73.4308Z" fill="#205CAA"/>
<path d="M443.258 337.324H417.092V225.456C417.092 216.048 424.712 208.417 434.104 208.417H443.258V337.324Z" fill="#FCD3C1"/>
<path d="M477.607 337.324H451.458V225.456C451.458 216.048 459.078 208.417 468.47 208.417H477.624V337.324H477.607Z" fill="#FCD3C1"/>
<path d="M581.795 133.121L529.377 185.623C522.967 192.043 512.586 192.043 506.194 185.623L453.776 133.121L464.259 122.621C468.692 118.181 475.868 118.181 480.3 122.621L512.842 155.232C515.569 157.963 520.018 157.963 522.746 155.232L563.316 114.596L581.795 133.121Z" fill="#8D9FD1"/>
<path d="M487.664 210.995H406.268V137.594C406.268 127.487 414.45 119.291 424.541 119.291H469.374C479.465 119.291 487.647 127.487 487.647 137.594V210.995H487.664Z" fill="#8D9FD1"/>
<path d="M406.268 210.397H487.664V243.298C487.664 250.452 481.869 256.24 474.743 256.24H419.189C412.046 256.24 406.268 250.435 406.268 243.298V210.397Z" fill="#205CAA"/>
<path d="M386.408 238.159L397.403 249.172L372.891 273.724C367.657 278.966 359.151 278.966 353.918 273.724L352.418 272.221L384.107 240.481L386.408 238.159Z" fill="#8D9FD1"/>
<path d="M352.009 351H336.462V316.289C336.462 308.862 342.463 302.852 349.878 302.852H352.009V347.739V351Z" fill="#FCD3C1"/>
<path d="M370.64 351H355.094V316.289C355.094 308.862 361.094 302.852 368.509 302.852H370.64V347.739V351Z" fill="#FCD3C1"/>
<path d="M320.285 325.321L309.307 314.308L333.82 289.756C339.053 284.515 347.559 284.515 352.793 289.756L354.293 291.259L322.603 322.999L320.285 325.321Z" fill="#8D9FD1"/>
<path d="M361.947 334.643H344.559C337.502 334.643 331.792 328.907 331.792 321.855V297.542C331.792 290.473 337.519 284.754 344.559 284.754L375.072 268.704L374.714 321.872C374.732 328.924 369.004 334.643 361.947 334.643Z" fill="#8D9FD1"/>
<path d="M373.061 285.608L364.094 294.589C358.179 300.513 348.582 300.513 342.667 294.589L333.104 285.01C327.189 279.086 327.189 269.473 333.104 263.549L342.07 254.568C347.985 248.643 357.583 248.643 363.498 254.568L373.061 264.146C378.976 270.088 378.976 279.683 373.061 285.608Z" fill="#FCD3C1"/>
<path d="M353.918 276.609C353.662 276.865 353.236 276.865 352.98 276.609L350.952 274.578C350.696 274.321 350.696 273.895 350.952 273.638C351.207 273.382 351.633 273.382 351.889 273.638L353.918 275.67C354.173 275.926 354.173 276.353 353.918 276.609Z" fill="#205CAA"/>
<path d="M363.924 266.587C363.668 266.843 363.242 266.843 362.986 266.587L360.958 264.555C360.702 264.299 360.702 263.872 360.958 263.616C361.214 263.36 361.64 263.36 361.895 263.616L363.924 265.648C364.18 265.904 364.18 266.331 363.924 266.587Z" fill="#205CAA"/>
<path d="M366.685 279.614C365.032 281.271 362.935 282.329 360.617 282.653C358.384 282.978 356.048 282.568 354.054 281.527C353.73 281.356 353.611 280.946 353.781 280.622C353.952 280.297 354.361 280.178 354.685 280.349C356.423 281.271 358.469 281.612 360.429 281.339C362.458 281.049 364.299 280.127 365.748 278.675C367.197 277.224 368.117 275.38 368.407 273.348C368.697 271.385 368.339 269.336 367.418 267.594C367.248 267.27 367.367 266.86 367.691 266.689C368.015 266.519 368.424 266.638 368.595 266.963C369.634 268.96 370.043 271.282 369.72 273.536C369.396 275.858 368.339 277.958 366.685 279.614Z" fill="#205CAA"/>
<path d="M348.735 251.699C350.832 253.799 350.832 257.213 348.735 259.331L344.269 263.804C342.701 265.375 340.161 265.375 338.576 263.804C337.007 262.233 337.007 259.689 338.576 258.101L342.582 254.089C343.655 253.013 344.201 251.579 344.201 250.162C345.82 249.94 347.508 250.452 348.735 251.699Z" fill="#205CAA"/>
<path d="M347.815 286.188C346.997 287.007 345.65 287.007 344.832 286.188L341.593 282.944C340.775 282.124 340.775 280.775 341.593 279.956C341.849 279.7 342.275 279.7 342.53 279.956C342.786 280.212 342.786 280.639 342.53 280.895C342.224 281.202 342.224 281.697 342.53 282.005L345.769 285.249C346.076 285.556 346.57 285.556 346.877 285.249C347.133 284.993 347.559 284.993 347.815 285.249C348.071 285.505 348.071 285.932 347.815 286.188Z" fill="#205CAA"/>
<path d="M351.855 351H335.934C335.065 351 334.349 350.283 334.349 349.412V345.827C334.349 344.956 335.065 344.239 335.934 344.239H351.855C352.725 344.239 353.441 344.956 353.441 345.827V349.412C353.441 350.283 352.725 351 351.855 351Z" fill="#205CAA"/>
<path d="M370.981 351H355.043C354.173 351 353.458 350.283 353.458 349.412V345.827C353.458 344.956 354.173 344.239 355.043 344.239H370.981C371.851 344.239 372.567 344.956 372.567 345.827V349.412C372.567 350.283 371.851 351 370.981 351Z" fill="#205CAA"/>
<path d="M442.167 350.983H417.433C414.791 350.983 412.643 348.832 412.643 346.185V339.134C412.643 336.487 414.791 334.336 417.433 334.336H442.184C444.827 334.336 446.974 336.487 446.974 339.134V346.168C446.957 348.832 444.809 350.983 442.167 350.983Z" fill="#205CAA"/>
<path d="M417.092 225.917H390.943V146.012C390.943 131.55 402.654 119.803 417.109 119.803V225.917H417.092Z" fill="#8D9FD1"/>
<path d="M484.647 350.983H456.231C453.589 350.983 451.441 348.832 451.441 346.185V334.353H477.607C484.136 334.353 489.42 339.646 489.42 346.185C489.437 348.832 487.289 350.983 484.647 350.983Z" fill="#205CAA"/>
<path d="M477.624 317.706H451.458V334.336H477.624V317.706Z" fill="#8D9FD1"/>
<path d="M443.258 317.706H417.092V334.336H443.258V317.706Z" fill="#8D9FD1"/>
<path d="M487.664 73.0552V89.0875C487.664 96.7366 481.476 102.934 473.84 102.934H463.68C463.68 102.934 464.225 102.49 464.618 101.739L464.635 101.722C464.652 101.705 464.652 101.688 464.669 101.671C464.669 101.654 464.686 101.654 464.686 101.654L464.822 101.534L474.453 91.8876C479.363 85.6386 479.635 76.931 475.255 70.4088V70.3917C475.169 70.2722 475.084 70.1526 474.999 70.0161C474.914 69.8965 474.811 69.7599 474.743 69.6404C474.556 69.4014 474.368 69.1624 474.181 68.9233C473.806 68.4965 473.431 68.0696 473.021 67.6599L468.675 63.306L469.766 62.2133C471.743 60.2328 470.379 57.3644 467.703 56.6643C466.424 56.3228 464.396 55.7082 462.674 55.1618C462.47 55.0935 462.248 55.0252 462.061 54.9569C461.958 54.9228 461.856 54.8886 461.754 54.8716C461.6 54.8204 461.447 54.7691 461.293 54.7179C461.004 54.6155 460.731 54.5472 460.492 54.4618C460.322 54.4106 460.168 54.3594 460.032 54.3081C459.896 54.2569 459.793 54.2228 459.708 54.2057C459.606 54.1715 459.555 54.1545 459.555 54.1545L449.719 44.3199L448.355 42.954V79.2359C448.253 79.7994 447.98 80.3457 447.554 80.7726L446.599 81.7287C446.31 82.019 446.003 82.2238 445.645 82.3434C445.645 82.3434 445.645 82.3604 445.628 82.3604C445.56 82.3946 445.491 82.4117 445.423 82.4287C444.929 82.2921 444.503 82.0531 444.128 81.7116L441.605 79.4067C441.025 78.8774 440.275 78.5871 439.525 78.57C439.252 78.553 439.014 78.5871 438.758 78.6383C438.69 78.6213 438.605 78.6042 438.536 78.6042C438.434 78.5871 438.332 78.5871 438.23 78.5871C438.161 78.5871 438.093 78.6042 438.025 78.6042C437.94 78.6042 437.872 78.6042 437.786 78.6213C437.582 78.6554 437.36 78.7066 437.156 78.792C437.122 78.8091 437.087 78.8261 437.053 78.8261C436.968 78.8603 436.883 78.9115 436.815 78.9457C436.712 79.014 436.61 79.0652 436.525 79.1506C436.457 79.1847 436.406 79.2188 436.354 79.2701C436.303 79.3042 436.252 79.3725 436.201 79.4067L435.264 80.3457C434.138 81.4726 434.138 83.2824 435.264 84.3922L435.86 84.9898L436.457 85.5703L436.508 85.6045L436.542 85.6386L444.23 93.1511C444.383 93.3048 444.537 93.4584 444.69 93.6121C444.758 93.6804 444.81 93.7487 444.878 93.817L445.065 94.0389C445.219 94.2097 445.372 94.3975 445.508 94.5682C445.645 94.7219 445.747 94.8926 445.866 95.0634C445.883 95.0804 445.883 95.0804 445.883 95.0804C446.003 95.2512 446.122 95.4219 446.224 95.6097C446.344 95.7805 446.446 95.9683 446.548 96.139C446.651 96.3097 446.753 96.5146 446.838 96.7024C446.94 96.8903 447.026 97.0781 447.111 97.2659C447.196 97.4537 447.281 97.6415 447.349 97.8464C447.435 98.0513 447.503 98.2562 447.588 98.4611C447.656 98.6489 447.707 98.8367 447.759 99.0245C447.81 99.1782 447.861 99.3489 447.895 99.5026C447.912 99.5367 447.912 99.5709 447.929 99.6221C447.963 99.7928 447.997 99.9635 448.031 100.134C448.065 100.305 448.1 100.476 448.134 100.646C448.168 100.886 448.202 101.142 448.236 101.398C448.27 101.637 448.287 101.893 448.304 102.149C448.321 102.388 448.321 102.61 448.321 102.832V118.881C448.321 122.057 445.781 124.652 442.628 124.686C442.611 124.686 442.576 124.686 442.559 124.686H419.291C411.927 124.686 405.944 119.206 405.944 112.462V73.4991C405.944 72.2527 406.012 71.0063 406.131 69.7941C407.069 60.2328 411.62 51.5934 418.541 45.0883L419.427 44.2687L419.461 44.2346C422.24 41.7589 425.394 39.6076 428.82 37.8831C434.565 34.9806 441.127 33.222 448.117 33H448.134L449.838 33.0341H449.872C470.942 34.1952 487.664 51.6788 487.664 73.0552Z" fill="#205CAA"/>
<path d="M309.307 314.308L320.302 325.321L316.314 329.316C313.893 331.741 309.972 331.741 307.569 329.316C305.779 327.523 305.319 324.877 306.188 322.657L306.171 322.675C305.455 323.392 304.279 323.392 303.546 322.675C302.83 321.957 302.83 320.779 303.546 320.062L309.307 314.308Z" fill="#FCD3C1"/>
<path d="M386.408 238.159L397.403 249.172L401.392 245.176C403.813 242.752 403.813 238.825 401.392 236.418C399.602 234.625 396.96 234.164 394.744 235.035L394.761 235.018C395.477 234.3 395.477 233.122 394.761 232.388C394.045 231.671 392.869 231.671 392.153 232.388L386.408 238.159Z" fill="#FCD3C1"/>
<path d="M417.092 225.917V239.61C417.092 240.635 416.615 241.625 415.762 242.206C415.268 242.547 414.672 242.735 414.024 242.735C412.302 242.735 410.904 241.335 410.904 239.61V239.559C409.95 241.745 408.279 243.554 406.182 244.647C404.733 245.415 403.097 245.842 401.341 245.842C399.602 245.842 397.949 245.415 396.5 244.647C393.193 242.906 390.926 239.423 390.926 235.41V225.917H417.092Z" fill="#FCD3C1"/>
<path d="M562.754 115.159L572.42 105.478C573.135 104.761 574.175 104.386 575.181 104.591C575.761 104.71 576.323 104.983 576.783 105.444C577.994 106.656 577.994 108.637 576.783 109.866L576.749 109.9C578.965 109.03 581.42 108.944 583.687 109.644C585.256 110.122 586.722 110.993 587.949 112.223C589.176 113.452 590.046 114.937 590.523 116.491C591.631 120.076 590.779 124.14 587.949 126.974L581.25 133.684L562.754 115.159Z" fill="#FCD3C1"/>
<path d="M1879 194.226C1477.32 242.3 752.384 385.612 703 432L1879 432.226V194.226Z" fill="#91BDE5"/>
<path d="M1105.43 331.344L1091.27 335.1V348.725H1075.21C1070.13 348.725 1066.02 344.586 1066.02 339.488V299.647C1066.02 296.696 1069.57 295.22 1071.66 297.309L1105.43 331.344Z" fill="#E8E7F4"/>
<path d="M1273.88 311.586H1085.71V348.706H1273.88V311.586Z" fill="#8D9FD1"/>
<path d="M1365.5 163.184V206.992C1365.5 214.561 1358.8 220.713 1350.54 220.713H1324.47C1321.91 220.713 1319.61 219.716 1318.01 218.126V196.203C1318.01 195.934 1318.03 195.685 1318.03 195.436C1318.05 195.149 1318.07 194.861 1318.1 194.593C1318.14 194.305 1318.18 194.018 1318.22 193.75C1318.24 193.539 1318.28 193.366 1318.33 193.175C1318.37 192.945 1318.43 192.696 1318.49 192.485C1318.52 192.293 1318.58 192.121 1318.64 191.948C1318.7 191.738 1318.77 191.527 1318.83 191.316C1318.91 191.086 1319 190.837 1319.1 190.607C1319.17 190.377 1319.27 190.166 1319.37 189.955C1319.46 189.745 1319.58 189.534 1319.67 189.323C1319.79 189.112 1319.88 188.901 1320 188.691C1320.11 188.48 1320.23 188.269 1320.36 188.077C1320.49 187.886 1320.63 187.675 1320.74 187.483C1320.74 187.464 1320.76 187.464 1320.76 187.464C1320.89 187.272 1321.03 187.081 1321.16 186.908C1321.31 186.698 1321.49 186.506 1321.66 186.295L1321.87 186.046C1321.95 185.969 1322 185.873 1322.08 185.816C1322.25 185.644 1322.4 185.452 1322.6 185.299L1326.93 181.063L1331.22 176.867L1331.25 176.828L1331.31 176.79L1331.98 176.138L1332.65 175.468C1333.91 174.203 1333.91 172.172 1332.65 170.907L1331.6 169.853C1331.56 169.814 1331.48 169.738 1331.43 169.699C1331.37 169.642 1331.31 169.585 1331.23 169.546C1331.12 169.47 1331.02 169.393 1330.91 169.316C1330.83 169.278 1330.74 169.22 1330.64 169.182C1330.6 169.163 1330.57 169.144 1330.53 169.144C1330.3 169.048 1330.05 168.99 1329.82 168.952C1329.72 168.933 1329.65 168.933 1329.55 168.933C1329.48 168.914 1329.4 168.914 1329.32 168.914C1329.21 168.914 1329.09 168.914 1328.98 168.933C1328.9 168.952 1328.81 168.952 1328.73 168.971C1328.44 168.914 1328.16 168.895 1327.87 168.895C1327.55 168.914 1327.22 168.952 1326.91 169.048C1326.42 169.201 1325.94 169.47 1325.54 169.834L1322.71 172.421C1322.29 172.804 1321.79 173.072 1321.26 173.226C1321.18 173.206 1321.1 173.187 1321.03 173.149C1321.01 173.149 1321.01 173.13 1321.01 173.13C1320.61 172.996 1320.26 172.746 1319.94 172.44L1318.87 171.367C1318.39 170.888 1318.08 170.274 1317.97 169.642V128.9L1316.44 130.433L1305.41 141.472C1305.41 141.472 1305.36 141.491 1305.24 141.529C1305.14 141.548 1305.03 141.587 1304.88 141.644C1304.74 141.682 1304.55 141.759 1304.38 141.817C1304.11 141.893 1303.81 141.989 1303.48 142.104C1303.31 142.162 1303.16 142.219 1302.97 142.277C1302.85 142.315 1302.74 142.353 1302.62 142.392C1302.39 142.468 1302.16 142.545 1301.91 142.621C1299.98 143.235 1297.73 143.925 1296.28 144.308C1293.26 145.094 1291.75 148.332 1293.96 150.536L1295.19 151.762L1290.29 156.649C1289.84 157.109 1289.41 157.588 1288.99 158.067C1288.78 158.336 1288.57 158.604 1288.36 158.872C1288.27 159.006 1288.15 159.16 1288.08 159.294C1287.96 159.447 1287.87 159.562 1287.77 159.715V159.734C1287.12 160.693 1286.59 161.689 1286.13 162.705H1273.86C1273.86 138.712 1292.61 119.089 1316.23 117.786H1316.27L1318.18 117.747H1318.2C1326.04 117.996 1333.39 119.97 1339.85 123.228C1343.7 125.164 1347.21 127.578 1350.35 130.357L1350.39 130.395L1351.36 131.296C1359.12 138.597 1364.22 148.294 1365.28 159.025C1365.43 160.386 1365.5 161.785 1365.5 163.184Z" fill="#205CAA"/>
<path d="M1214.55 331.88L1195.45 351.025C1188.73 358.364 1184.62 357.444 1178.48 357.444H1143.24C1140.29 357.444 1138.82 353.88 1140.9 351.791L1174.83 317.91L1178.52 331.899L1199.45 326.323L1214.55 331.88Z" fill="#E8E7F4"/>
<path d="M1394.86 310.015H1284.33V348.725H1394.86V310.015Z" fill="#205CAA"/>
<path d="M1166.8 325.786L1206.5 285.984L1226.51 265.919C1230.34 262.087 1236.53 262.087 1240.35 265.919L1260.36 285.984L1293.14 318.849C1296.96 322.682 1296.96 328.891 1293.14 332.723L1280.05 345.85C1276.23 349.683 1270.03 349.683 1266.21 345.85L1240.35 319.922C1236.53 316.089 1230.34 316.089 1226.51 319.922L1193.73 352.788L1166.8 325.786Z" fill="#8D9FD1"/>
<path d="M1318.01 196.203V218.126C1319.61 219.716 1321.93 220.713 1324.47 220.713H1326.95V239.991H1273.88V162.705H1318.01V169.623C1318.12 170.255 1318.43 170.868 1318.91 171.348L1319.98 172.421C1320.3 172.746 1320.65 172.976 1321.05 173.111C1321.05 173.111 1321.05 173.13 1321.07 173.13C1321.14 173.168 1321.22 173.187 1321.3 173.206C1321.83 173.053 1322.33 172.785 1322.75 172.402L1325.58 169.814C1325.98 169.45 1326.46 169.182 1326.95 169.029V181.025L1322.61 185.26C1322.44 185.433 1322.27 185.605 1322.1 185.778C1322.02 185.854 1321.96 185.931 1321.89 186.008L1321.68 186.257C1321.51 186.468 1321.33 186.659 1321.18 186.87C1321.05 187.042 1320.91 187.234 1320.78 187.426C1320.76 187.445 1320.76 187.445 1320.76 187.445C1320.63 187.636 1320.49 187.828 1320.38 188.039C1320.24 188.231 1320.13 188.441 1320.02 188.652C1319.9 188.844 1319.79 189.074 1319.69 189.285C1319.59 189.495 1319.48 189.706 1319.38 189.917C1319.29 190.128 1319.19 190.339 1319.12 190.568C1319.02 190.798 1318.94 191.028 1318.85 191.278C1318.77 191.488 1318.72 191.699 1318.66 191.91C1318.6 192.082 1318.54 192.274 1318.51 192.447C1318.45 192.676 1318.39 192.906 1318.35 193.136C1318.31 193.328 1318.28 193.52 1318.24 193.711C1318.2 193.98 1318.16 194.267 1318.12 194.555C1318.08 194.823 1318.07 195.11 1318.05 195.398C1318.03 195.704 1318.01 195.953 1318.01 196.203Z" fill="#205CAA"/>
<path d="M1326.95 162.705V169.029C1326.46 169.182 1325.98 169.45 1325.58 169.814L1322.75 172.402C1322.33 172.785 1321.83 173.053 1321.3 173.206C1321.22 173.187 1321.14 173.168 1321.07 173.13C1321.05 173.13 1321.05 173.111 1321.05 173.111C1320.65 172.976 1320.3 172.727 1319.98 172.421L1318.91 171.348C1318.43 170.868 1318.12 170.255 1318.01 169.623V162.705H1326.95Z" fill="#205CAA"/>
<path d="M1322.61 185.279L1326.95 181.044V220.732H1324.47C1321.91 220.732 1319.61 219.735 1318.01 218.145V196.203C1318.01 195.934 1318.03 195.685 1318.03 195.436C1318.05 195.149 1318.07 194.861 1318.1 194.593C1318.14 194.305 1318.18 194.018 1318.22 193.75C1318.24 193.539 1318.28 193.366 1318.33 193.175C1318.37 192.945 1318.43 192.696 1318.49 192.485C1318.52 192.293 1318.58 192.121 1318.64 191.948C1318.7 191.737 1318.77 191.527 1318.83 191.316C1318.91 191.086 1319 190.837 1319.1 190.607C1319.17 190.377 1319.27 190.166 1319.37 189.955C1319.46 189.744 1319.58 189.534 1319.67 189.323C1319.79 189.112 1319.88 188.901 1320 188.69C1320.11 188.48 1320.23 188.269 1320.36 188.077C1320.49 187.886 1320.63 187.675 1320.74 187.483C1320.74 187.464 1320.76 187.464 1320.76 187.464C1320.89 187.272 1321.03 187.081 1321.16 186.908C1321.32 186.697 1321.49 186.506 1321.66 186.295L1321.87 186.046C1321.95 185.969 1322 185.873 1322.08 185.816C1322.27 185.624 1322.44 185.452 1322.61 185.279Z" fill="#205CAA"/>
<path d="M1341.75 178.764H1320V212.3H1341.75V178.764Z" fill="#205CAA"/>
<path d="M1421.35 167.706H1378.98V219.486H1421.35V167.706Z" fill="#FCD3C1"/>
<path d="M1373.42 145.783V149.52C1373.42 149.999 1373.04 150.383 1372.56 150.383C1372.08 150.383 1371.7 149.999 1371.7 149.52V145.783C1371.7 145.304 1372.08 144.921 1372.56 144.921C1373.04 144.921 1373.42 145.304 1373.42 145.783Z" fill="#005CB0"/>
<path d="M1375.73 163.74C1374.35 168.205 1370.28 171.194 1365.64 171.213V177.959C1365.62 177.786 1365.62 177.595 1365.62 177.403V162.034H1365.64V169.699C1369.63 169.699 1373.11 167.132 1374.28 163.299C1374.41 162.896 1374.83 162.666 1375.23 162.801C1375.63 162.916 1375.86 163.337 1375.73 163.74Z" fill="#005CB0"/>
<path d="M1421.35 117.115V165.388C1421.35 167.189 1419.9 168.665 1418.09 168.665H1412.91C1411.09 168.665 1409.64 167.189 1409.64 165.388V142.219C1409.64 140.398 1408.18 138.942 1406.37 138.942H1404.84C1403.02 138.942 1401.57 140.418 1401.57 142.219V151.111C1401.57 152.912 1400.1 154.388 1398.3 154.388H1396.77C1394.96 154.388 1393.51 152.912 1393.51 151.111V136.336C1393.51 132.331 1390.26 129.073 1386.24 129.073H1365.62V147.259L1365.6 147.278V128.9C1358.45 128.9 1352.62 123.17 1352.62 116.157C1352.62 112.017 1354.63 108.338 1357.74 106.019C1360.15 108.395 1363.5 109.871 1367.17 109.871H1413.96C1418.05 109.852 1421.35 113.09 1421.35 117.115Z" fill="#005CB0"/>
<path d="M1421.35 182.367V165.388C1421.35 167.189 1419.9 168.665 1418.09 168.665H1412.91C1411.09 168.665 1409.64 167.189 1409.64 165.388V142.219C1409.64 140.399 1408.18 138.942 1406.37 138.942H1404.84C1403.02 138.942 1401.57 140.418 1401.57 142.219V151.111C1401.57 152.912 1400.1 154.388 1398.3 154.388H1396.77C1394.96 154.388 1393.51 152.912 1393.51 151.111V136.336C1393.51 132.331 1390.26 129.073 1386.24 129.073H1365.62V147.259L1365.6 147.278L1358.18 155.863C1356.08 158.278 1357.8 162.034 1360.99 162.034H1365.64V169.7C1369.63 169.7 1373.11 167.132 1374.28 163.299C1374.41 162.896 1374.83 162.666 1375.23 162.801C1375.63 162.935 1375.86 163.356 1375.73 163.759C1374.35 168.224 1370.28 171.213 1365.64 171.233V177.978C1365.66 178.016 1365.66 178.036 1365.66 178.074C1365.73 178.898 1365.94 179.684 1366.29 180.412C1367.07 181.734 1368.52 182.597 1370.15 182.597H1379.09V183.401C1379.09 190.319 1384.68 195.915 1391.58 195.915H1408.87C1415.77 195.915 1421.35 190.319 1421.35 183.401V182.367ZM1373.42 149.52C1373.42 149.999 1373.04 150.383 1372.56 150.383C1372.08 150.383 1371.7 149.999 1371.7 149.52V145.783C1371.7 145.304 1372.08 144.921 1372.56 144.921C1373.04 144.921 1373.42 145.304 1373.42 145.783V149.52Z" fill="#FCD3C1"/>
<path d="M1373.42 145.783V149.52C1373.42 149.999 1373.04 150.383 1372.56 150.383C1372.08 150.383 1371.7 149.999 1371.7 149.52V145.783C1371.7 145.304 1372.08 144.921 1372.56 144.921C1373.04 144.921 1373.42 145.304 1373.42 145.783Z" fill="#FCD3C1"/>
<path d="M1375.73 163.74C1374.35 168.205 1370.28 171.194 1365.64 171.213V169.68C1369.63 169.68 1373.11 167.112 1374.28 163.28C1374.41 162.877 1374.83 162.647 1375.23 162.781C1375.63 162.916 1375.86 163.337 1375.73 163.74Z" fill="#FCD3C1"/>
<path d="M1373.42 145.783V149.52C1373.42 149.999 1373.04 150.383 1372.56 150.383C1372.08 150.383 1371.7 149.999 1371.7 149.52V145.783C1371.7 145.304 1372.08 144.921 1372.56 144.921C1373.04 144.921 1373.42 145.304 1373.42 145.783Z" fill="#205CAA"/>
<path d="M1375.73 163.74C1374.35 168.205 1370.28 171.194 1365.64 171.213H1365.62V169.68H1365.64C1369.63 169.68 1373.11 167.112 1374.28 163.28C1374.41 162.877 1374.83 162.647 1375.23 162.781C1375.64 162.916 1375.86 163.337 1375.73 163.74Z" fill="#205CAA"/>
<path d="M1298.86 212.089L1298.72 211.955L1298.82 211.993C1298.84 212.032 1298.84 212.051 1298.86 212.089Z" fill="#205CAA"/>
<path d="M1298.86 212.089L1298.72 211.955L1298.82 211.993C1298.84 212.032 1298.84 212.051 1298.86 212.089Z" fill="#FCD3C1"/>
<path d="M1298.82 211.993C1298.84 212.032 1298.84 212.051 1298.86 212.089L1298.72 211.955L1298.82 211.993Z" fill="#FCD3C1"/>
<path d="M1321.28 173.206C1320.09 173.532 1318.72 173.264 1317.78 172.402L1316.61 171.328C1316.56 171.29 1316.5 171.233 1316.46 171.175V130.453L1317.99 128.92V169.623C1318.1 170.255 1318.41 170.868 1318.89 171.348L1319.96 172.421C1320.28 172.746 1320.63 172.976 1321.03 173.111C1321.03 173.111 1321.03 173.13 1321.05 173.13C1321.12 173.168 1321.2 173.187 1321.28 173.206Z" fill="#205CAA"/>
<path d="M1332.69 175.429L1332.02 176.1L1331.35 176.752L1331.29 176.79L1331.25 176.828L1322.63 185.26C1322.46 185.433 1322.29 185.605 1322.12 185.778C1322.04 185.854 1321.98 185.931 1321.91 186.008L1321.7 186.257C1321.53 186.468 1321.35 186.659 1321.2 186.87C1321.07 187.042 1320.93 187.234 1320.8 187.426C1320.78 187.445 1320.78 187.445 1320.78 187.445C1320.65 187.636 1320.51 187.828 1320.4 188.039C1320.26 188.231 1320.15 188.441 1320.03 188.652C1319.92 188.863 1319.8 189.074 1319.71 189.285C1319.59 189.495 1319.5 189.706 1319.4 189.917C1319.31 190.128 1319.21 190.339 1319.14 190.569C1319.04 190.798 1318.96 191.028 1318.87 191.258C1318.79 191.469 1318.73 191.68 1318.66 191.891C1318.6 192.063 1318.54 192.255 1318.51 192.427C1318.45 192.657 1318.39 192.887 1318.35 193.117C1318.31 193.309 1318.28 193.501 1318.24 193.692C1318.2 193.96 1318.16 194.248 1318.12 194.535C1318.08 194.804 1318.07 195.091 1318.05 195.379C1318.03 195.647 1318.03 195.896 1318.03 196.145V218.068C1316.56 216.631 1315.66 214.695 1315.66 212.549V196.145C1315.68 192.025 1317.47 188.077 1320.68 185.203L1330.11 176.771L1330.15 176.732L1330.2 176.675C1330.68 176.253 1331.18 175.813 1331.67 175.353C1332.32 174.759 1332.67 173.992 1332.69 173.206C1332.73 172.344 1332.38 171.462 1331.67 170.811L1330.51 169.738C1330.01 169.278 1329.4 168.99 1328.75 168.875C1328.83 168.856 1328.92 168.837 1329 168.837C1329.11 168.818 1329.23 168.818 1329.34 168.818C1329.42 168.818 1329.5 168.837 1329.57 168.837C1329.67 168.837 1329.74 168.837 1329.84 168.856C1330.07 168.895 1330.32 168.952 1330.55 169.048C1330.58 169.067 1330.62 169.086 1330.66 169.086C1330.76 169.125 1330.85 169.182 1330.93 169.22C1331.04 169.297 1331.16 169.355 1331.25 169.45C1331.33 169.489 1331.39 169.527 1331.44 169.584C1331.5 169.623 1331.56 169.699 1331.62 169.738L1332.67 170.792C1333.95 172.133 1333.95 174.184 1332.69 175.429Z" fill="#205CAA"/>
<path d="M1309.67 146.32L1307.09 148.907C1306.77 149.233 1306.23 149.233 1305.89 148.907C1305.57 148.581 1305.57 148.045 1305.89 147.719L1308.47 145.132C1308.8 144.806 1309.33 144.806 1309.67 145.132C1310 145.438 1310 145.975 1309.67 146.32Z" fill="#205CAA"/>
<path d="M1318.01 168.55V169.623C1317.95 169.259 1317.95 168.914 1318.01 168.55Z" fill="#205CAA"/>
<path d="M1299.51 194.65L1288.71 183.842H1288.73L1299.51 194.65Z" fill="#205CAA"/>
<path d="M1331.29 200.419L1331.25 200.476L1322.61 208.908L1331.25 200.457L1331.29 200.419Z" fill="#205CAA"/>
<path d="M1332.02 199.729L1331.35 200.38V200.361C1331.56 200.169 1331.79 199.939 1332.02 199.729Z" fill="#205CAA"/>
<path d="M1299.66 194.804L1299.51 194.669L1299.62 194.708C1299.62 194.727 1299.62 194.765 1299.66 194.804Z" fill="#205CAA"/>
<path d="M1318.01 220.732V214.58H1311.8C1305.16 214.58 1299.12 217.187 1294.67 221.422H1337.83V221.249C1337.83 221.249 1337.83 221.249 1337.83 221.23V220.713H1318.01V220.732Z" fill="#FCD3C1"/>
<path d="M1309.67 146.32L1307.09 148.907C1306.77 149.233 1306.23 149.233 1305.89 148.907C1305.57 148.581 1305.57 148.045 1305.89 147.719L1308.47 145.132C1308.8 144.806 1309.33 144.806 1309.66 145.132C1310 145.438 1310 145.975 1309.67 146.32ZM1297.08 219.237C1297.52 218.969 1297.92 218.701 1298.34 218.394C1302.09 215.596 1304.51 211.131 1304.51 206.091C1304.51 202.354 1303.2 198.924 1300.98 196.26H1300.94L1299.76 194.919L1299.74 194.899C1299.72 194.88 1299.72 194.861 1299.7 194.842C1299.7 194.823 1299.68 194.823 1299.68 194.823C1299.66 194.785 1299.64 194.746 1299.64 194.708L1299.53 194.67L1288.73 183.842C1283.22 176.828 1282.92 167.055 1287.83 159.734C1287.83 159.734 1287.83 159.715 1287.85 159.715C1287.92 159.581 1288.02 159.428 1288.13 159.294C1288.23 159.16 1288.34 159.006 1288.42 158.872C1288.63 158.604 1288.84 158.336 1289.05 158.067C1289.47 157.588 1289.89 157.109 1290.35 156.649L1295.23 151.762L1294 150.536C1291.78 148.313 1293.31 145.094 1296.31 144.308C1297.75 143.925 1300.02 143.235 1301.95 142.621C1302.18 142.545 1302.43 142.468 1302.64 142.391C1302.76 142.353 1302.87 142.315 1302.99 142.277C1303.16 142.219 1303.33 142.162 1303.5 142.104C1303.83 141.989 1304.13 141.912 1304.4 141.817C1304.59 141.759 1304.76 141.702 1304.92 141.644C1305.07 141.606 1305.2 141.567 1305.28 141.529C1305.39 141.51 1305.45 141.491 1305.45 141.491L1316.48 130.433L1318.01 128.9V168.55C1317.95 168.914 1317.95 169.259 1318.01 169.623C1318.12 170.255 1318.43 170.868 1318.91 171.348L1319.98 172.421C1320.3 172.746 1320.65 172.976 1321.05 173.111C1321.05 173.111 1321.05 173.13 1321.07 173.13C1321.14 173.168 1321.22 173.187 1321.3 173.206C1321.72 173.341 1322.14 173.379 1322.56 173.341C1322.58 173.341 1322.58 173.341 1322.58 173.341C1322.67 173.321 1322.77 173.321 1322.86 173.283C1322.88 173.283 1322.92 173.283 1322.94 173.264C1323.02 173.245 1323.07 173.245 1323.15 173.226C1323.15 173.226 1323.15 173.226 1323.17 173.226C1323.26 173.187 1323.36 173.149 1323.46 173.111C1323.49 173.091 1323.57 173.072 1323.61 173.053C1323.63 173.034 1323.65 173.034 1323.68 173.015C1323.7 172.996 1323.72 172.996 1323.74 172.976C1323.76 172.976 1323.78 172.957 1323.82 172.938C1323.9 172.9 1323.95 172.861 1324.01 172.823C1324.05 172.804 1324.09 172.785 1324.12 172.746C1324.2 172.708 1324.26 172.651 1324.33 172.593C1324.41 172.555 1324.47 172.478 1324.54 172.421L1327.13 169.834C1327.6 169.355 1328.2 169.048 1328.81 168.952C1328.88 168.933 1328.98 168.914 1329.06 168.914C1329.17 168.895 1329.29 168.895 1329.4 168.895C1329.48 168.895 1329.55 168.914 1329.63 168.914C1329.72 168.914 1329.8 168.914 1329.9 168.933C1330.13 168.971 1330.37 169.029 1330.6 169.125C1330.64 169.144 1330.68 169.163 1330.72 169.163C1330.81 169.201 1330.91 169.259 1330.99 169.297C1331.1 169.374 1331.22 169.431 1331.31 169.527C1331.39 169.565 1331.44 169.604 1331.5 169.661C1331.56 169.699 1331.62 169.776 1331.67 169.814L1332.73 170.868C1333.99 172.133 1333.99 174.165 1332.73 175.41L1332.06 176.081L1331.39 176.732L1331.33 176.771L1331.29 176.809L1322.65 185.241C1322.48 185.414 1322.31 185.586 1322.14 185.758C1322.06 185.835 1322 185.912 1321.93 185.988L1321.72 186.238C1321.54 186.429 1321.37 186.64 1321.22 186.851C1321.09 187.023 1320.95 187.215 1320.82 187.407C1320.8 187.426 1320.8 187.426 1320.8 187.426C1320.66 187.617 1320.53 187.809 1320.42 188.02C1320.28 188.211 1320.17 188.422 1320.05 188.633C1319.94 188.844 1319.82 189.055 1319.73 189.265C1319.61 189.476 1319.52 189.687 1319.42 189.898C1319.33 190.109 1319.23 190.319 1319.16 190.549C1319.06 190.779 1318.98 191.009 1318.89 191.239C1318.81 191.45 1318.75 191.661 1318.7 191.872C1318.64 192.044 1318.58 192.236 1318.54 192.427C1318.49 192.657 1318.43 192.887 1318.39 193.117C1318.35 193.309 1318.31 193.501 1318.28 193.692C1318.24 193.96 1318.2 194.248 1318.16 194.535C1318.12 194.804 1318.1 195.091 1318.08 195.379C1318.07 195.647 1318.07 195.896 1318.07 196.145V214.523H1311.8C1305.16 214.523 1299.12 217.129 1294.67 221.364H1294.42L1297.08 219.237Z" fill="#FCD3C1"/>
<path d="M1299.66 194.804L1299.51 194.669L1299.62 194.708C1299.62 194.727 1299.62 194.765 1299.66 194.804Z" fill="#FCD3C1"/>
<path d="M1309.67 146.32L1307.09 148.907C1306.77 149.233 1306.23 149.233 1305.89 148.907C1305.57 148.581 1305.57 148.045 1305.89 147.719L1308.47 145.132C1308.8 144.806 1309.33 144.806 1309.67 145.132C1310 145.438 1310 145.975 1309.67 146.32Z" fill="#FCD3C1"/>
<path d="M1309.67 146.32L1307.09 148.907C1306.77 149.233 1306.23 149.233 1305.89 148.907C1305.57 148.581 1305.57 148.045 1305.89 147.719L1308.47 145.132C1308.8 144.806 1309.33 144.806 1309.67 145.132C1310 145.438 1310 145.975 1309.67 146.32Z" fill="#205CAA"/>
<path d="M1294.46 163.107C1291.73 163.107 1289.03 162.034 1286.99 159.984C1283.68 156.668 1282.94 151.667 1285.1 147.527C1285.29 147.163 1285.75 147.01 1286.13 147.202C1286.49 147.393 1286.64 147.853 1286.45 148.236C1284.6 151.782 1285.25 156.074 1288.08 158.91C1290.91 161.747 1295.19 162.398 1298.72 160.539C1299.09 160.348 1299.54 160.482 1299.76 160.865C1299.95 161.229 1299.81 161.689 1299.43 161.9C1297.84 162.705 1296.14 163.107 1294.46 163.107Z" fill="#205CAA"/>
<path d="M1340.77 214.58V251.681C1331.04 263.85 1328.44 270.902 1313.23 279.296H1279.06V236.254C1279.78 230.678 1282.36 225.676 1286.13 221.882C1286.28 221.728 1286.45 221.556 1286.61 221.403C1291.06 217.168 1297.1 214.561 1303.73 214.561H1340.77V214.58Z" fill="#8D9FD1"/>
<path d="M1365.5 194.804V221.594C1365.5 238.209 1358.8 251.7 1350.54 251.7H1324.47C1324.45 251.7 1324.41 251.7 1324.39 251.7C1320.82 251.643 1318.01 244.878 1318.01 237.021V197.889C1318.01 197.314 1318.03 196.777 1318.03 196.203C1318.05 195.743 1318.05 195.244 1318.08 194.804H1365.5Z" fill="#205CAA"/>
<path d="M1354.4 348.725H1430.64C1445.19 348.725 1457 336.901 1457 322.298V217.167C1457 202.584 1445.21 190.741 1430.64 190.741H1380.74C1366.19 190.741 1354.38 202.565 1354.38 217.167V348.725H1354.4Z" fill="#205CAA"/>
<path d="M1430.99 348.725H1332.76V311.605H1457V322.662C1457 337.035 1445.34 348.725 1430.99 348.725Z" fill="#E8E7F4"/>
<path d="M1340.33 348.725H1273.89V222.629C1273.89 208.889 1285.02 197.736 1298.72 197.736H1340.33C1354.04 197.736 1365.16 208.889 1365.16 222.629V323.812C1365.14 337.572 1354.04 348.725 1340.33 348.725Z" fill="#91BDE5"/>
<path d="M1274.97 220.483H1296.01V199.154C1296.01 196.662 1294 194.65 1291.52 194.65H1280.07C1274.64 194.65 1270.23 199.058 1270.23 204.52V215.749C1270.24 218.375 1272.37 220.483 1274.97 220.483Z" fill="#FCD3C1"/>
<path d="M1340.58 348.725H1273.88V311.605H1365.14V324.1C1365.14 337.687 1354.15 348.725 1340.58 348.725Z" fill="#8D9FD1"/>
<path d="M1303.21 246.948H1273.88V348.725H1303.21V246.948Z" fill="#91BDE5"/>
<path d="M1396.29 214.021C1400.11 217.854 1400.11 224.062 1396.29 227.895L1363.51 260.761L1343.5 280.825C1339.67 284.657 1333.48 284.657 1329.66 280.825L1309.65 260.761L1276.87 227.895C1273.04 224.062 1273.04 217.854 1276.87 214.021L1289.96 200.894C1293.78 197.061 1299.97 197.061 1303.8 200.894L1329.66 226.822C1333.48 230.655 1339.67 230.655 1343.5 226.822L1369.38 200.875C1373.2 197.042 1379.39 197.042 1383.21 200.875L1396.29 214.021Z" fill="#205CAA"/>
<path d="M1267.47 358H1293.96C1299.07 358 1303.21 353.842 1303.21 348.725H1276.72C1271.62 348.725 1267.47 352.864 1267.47 358Z" fill="#FCD3C1"/>
<path d="M1364.49 261.128C1364.3 261.128 1364.11 261.052 1363.96 260.918C1363.67 260.63 1363.67 260.151 1363.96 259.864L1382.52 241.256C1382.8 240.968 1383.28 240.968 1383.57 241.256C1383.85 241.543 1383.85 242.022 1383.57 242.31L1365.01 260.918C1364.87 261.052 1364.68 261.128 1364.49 261.128Z" fill="#91BDE5"/>
<path d="M1207.9 339.354C1207.71 339.354 1207.51 339.277 1207.36 339.143C1207.07 338.856 1207.07 338.377 1207.36 338.089L1225.92 319.481C1226.21 319.194 1226.69 319.194 1226.97 319.481C1227.26 319.769 1227.26 320.248 1226.97 320.535L1208.41 339.143C1208.28 339.277 1208.09 339.354 1207.9 339.354Z" fill="#91BDE5"/>
<path d="M1249.22 329.351C1249.22 329.159 1249.3 328.967 1249.43 328.814C1249.72 328.527 1250.19 328.527 1250.48 328.814L1269.04 347.422C1269.33 347.709 1269.33 348.188 1269.04 348.476C1268.75 348.763 1268.28 348.763 1267.99 348.476L1249.43 329.868C1249.3 329.734 1249.22 329.542 1249.22 329.351Z" fill="#91BDE5"/>
<path d="M1304.5 313.886C1304.36 314.02 1304.17 314.096 1303.96 314.096C1303.54 314.096 1303.21 313.771 1303.21 313.349V287.038C1303.21 286.616 1303.54 286.29 1303.96 286.29C1304.38 286.29 1304.71 286.616 1304.71 287.038V313.349C1304.71 313.56 1304.63 313.751 1304.5 313.886Z" fill="#8D9FD1"/>
<path d="M889.5 147.779C885.283 151.996 873.101 164.413 873.101 164.413C871.226 166.288 868.415 168.162 865.838 168.162C863.026 168.162 860.215 166.522 857.872 164.648C851.547 159.025 846.158 153.871 840.535 148.014C833.273 140.517 833.038 128.568 840.535 121.305C846.392 115.448 855.529 115.683 862.558 121.305C864.666 122.945 866.072 123.18 868.181 121.305C874.272 115.683 883.409 115.448 889.032 121.305C896.997 128.568 896.763 140.282 889.5 147.779Z" fill="#F37972"/>
<path d="M157.173 223.538C197.585 223.538 230.346 190.734 230.346 150.269C230.346 109.804 197.585 77 157.173 77C116.761 77 84 109.804 84 150.269C84 190.734 116.761 223.538 157.173 223.538Z" fill="#91BDE5"/>
<path d="M255.961 299.292C287.463 299.292 313 273.722 313 242.178C313 210.635 287.463 185.064 255.961 185.064C224.459 185.064 198.922 210.635 198.922 242.178C198.922 273.722 224.459 299.292 255.961 299.292Z" fill="#91BDE5"/>
<path d="M257.103 241.781H254.77V349H257.103V241.781Z" fill="#8D9FD1"/>
<path d="M270.923 270.441L269.273 268.789L255.408 282.673L257.058 284.325L270.923 270.441Z" fill="#8D9FD1"/>
<path d="M243.082 247.702L241.432 249.354L255.298 263.238L256.947 261.586L243.082 247.702Z" fill="#8D9FD1"/>
<path d="M171.89 179.351L170.24 177.699L156.374 191.582L158.024 193.234L171.89 179.351Z" fill="#8D9FD1"/>
<path d="M144.1 156.624L142.45 158.276L156.315 172.16L157.965 170.508L144.1 156.624Z" fill="#8D9FD1"/>
<path d="M158.314 150.269H155.981V349H158.314V150.269Z" fill="#8D9FD1"/>
</svg>
