<svg width="288" height="168" viewBox="0 0 288 168" fill="none" xmlns="http://www.w3.org/2000/svg">
<path d="M16.2726 44.143C15.8422 44.143 15.4978 43.9715 15.1534 43.7144C14.809 43.3715 14.7229 43.0287 14.7229 42.6001V29.143L0.172197 2.57155C0.172197 2.48583 0.0860987 2.3144 0.0860987 2.22869C0 2.05726 0 1.97155 0 1.88583C0 1.54298 0.172197 1.28583 0.430493 0.942976C0.688789 0.685833 1.03318 0.514404 1.37758 0.514404H9.21256C9.81525 0.514404 10.3318 0.685833 10.6762 0.942976C11.0206 1.20012 11.2789 1.54298 11.365 1.80012L20.3193 17.8287L29.3596 1.88583C29.4457 1.62869 29.704 1.37155 30.0484 1.02869C30.3928 0.685833 30.9094 0.600119 31.5121 0.600119H39.3471C39.6915 0.600119 40.0359 0.771547 40.2942 1.02869C40.5525 1.28583 40.6386 1.62869 40.6386 1.97155C40.6386 2.05726 40.6386 2.22869 40.6386 2.3144C40.6386 2.40012 40.5525 2.57155 40.5525 2.65726L26.0018 29.143V42.5144C26.0018 42.943 25.8296 43.2858 25.5713 43.6287C25.2269 43.9715 24.8825 44.0573 24.452 44.0573H16.2726V44.143Z" fill="#E8E6F3"/>
<path d="M122.518 44.743C118.73 44.743 115.458 44.143 112.617 42.943C109.776 41.743 107.623 39.8573 106.074 37.2858C104.524 34.7144 103.749 31.4573 103.749 27.5144V2.05726C103.749 1.62869 103.921 1.20012 104.179 0.942976C104.438 0.685833 104.868 0.514404 105.299 0.514404H113.392C113.822 0.514404 114.253 0.685833 114.511 0.942976C114.856 1.20012 114.942 1.62869 114.942 2.05726V27.4287C114.942 30.0858 115.63 32.143 116.922 33.5144C118.213 34.8858 120.021 35.5715 122.432 35.5715C124.757 35.5715 126.565 34.8858 127.943 33.5144C129.234 32.143 129.923 30.1715 129.923 27.4287V2.05726C129.923 1.62869 130.095 1.20012 130.353 0.942976C130.698 0.685833 131.042 0.514404 131.473 0.514404H139.566C139.996 0.514404 140.341 0.685833 140.685 0.942976C141.03 1.20012 141.116 1.62869 141.116 2.05726V27.4287C141.116 31.3715 140.341 34.6287 138.791 37.2001C137.241 39.7715 135.089 41.6573 132.248 42.8573C129.578 44.143 126.307 44.743 122.518 44.743Z" fill="#E8E6F3"/>
<path d="M151.103 44.143C150.673 44.143 150.242 43.9715 149.984 43.7144C149.726 43.3715 149.553 43.0287 149.553 42.6001V2.05726C149.553 1.62869 149.726 1.20012 149.984 0.942976C150.242 0.685833 150.673 0.514404 151.103 0.514404H168.151C173.575 0.514404 177.794 1.7144 180.893 4.20012C183.993 6.68583 185.543 10.2001 185.543 14.6573C185.543 17.5715 184.854 20.0573 183.39 22.1144C182.013 24.1715 180.118 25.7144 177.794 26.743L186.317 42.0858C186.404 42.343 186.49 42.6001 186.49 42.7715C186.49 43.1144 186.317 43.3715 186.059 43.7144C185.801 43.9715 185.456 44.143 185.112 44.143H176.761C175.986 44.143 175.383 43.9715 175.039 43.543C174.694 43.1144 174.35 42.7715 174.264 42.4287L167.117 28.7144H160.746V42.5144C160.746 42.943 160.574 43.2858 160.316 43.6287C159.971 43.9715 159.627 44.0573 159.196 44.0573H151.103V44.143ZM160.746 19.8858H167.978C169.959 19.8858 171.422 19.3715 172.369 18.4287C173.317 17.4858 173.833 16.2001 173.833 14.5715C173.833 12.943 173.403 11.6573 172.456 10.6287C171.508 9.60012 170.045 9.17155 167.978 9.17155H160.746V19.8858Z" fill="#E8E6F3"/>
<path d="M1.6359 105.943C1.2054 105.943 0.77491 105.771 0.516614 105.514C0.258318 105.171 0.0861206 104.828 0.0861206 104.4V63.9428C0.0861206 63.5142 0.258318 63.0856 0.516614 62.8285C0.77491 62.5713 1.2054 62.3999 1.6359 62.3999H30.3928C30.8233 62.3999 31.2538 62.5713 31.5121 62.8285C31.7704 63.0856 31.9426 63.5142 31.9426 63.9428V70.2856C31.9426 70.7142 31.7704 71.1428 31.5121 71.3999C31.2538 71.657 30.8233 71.8285 30.3928 71.8285H11.0206V80.9999H29.1014C29.5319 80.9999 29.9624 81.1713 30.2206 81.4285C30.4789 81.7713 30.6511 82.1142 30.6511 82.5428V88.7999C30.6511 89.2285 30.4789 89.5713 30.2206 89.9142C29.9624 90.257 29.5319 90.3428 29.1014 90.3428H11.0206V104.4C11.0206 104.828 10.8485 105.171 10.5902 105.514C10.3319 105.857 9.90137 105.943 9.47087 105.943H1.6359Z" fill="#E8E6F3"/>
<path d="M33.7507 105.943C33.4063 105.943 33.148 105.771 32.8036 105.514C32.5453 105.257 32.3731 104.914 32.3731 104.571C32.3731 104.4 32.3731 104.143 32.4592 103.971L47.1821 64.0285C47.2682 63.5999 47.5265 63.1714 47.957 62.8285C48.3875 62.4856 48.904 62.3142 49.5928 62.3142H58.8054C59.4942 62.3142 60.0969 62.4856 60.4413 62.8285C60.8718 63.1714 61.1301 63.5999 61.2162 64.0285L75.8529 103.971C75.939 104.143 75.939 104.314 75.939 104.571C75.939 104.914 75.7668 105.171 75.5085 105.514C75.2502 105.771 74.9058 105.943 74.5614 105.943H66.8987C66.296 105.943 65.7794 105.771 65.5211 105.514C65.1767 105.171 65.0045 104.914 64.9184 104.657L62.5076 98.3142H45.8906L43.4798 104.657C43.3937 104.914 43.2215 105.171 42.8771 105.514C42.6188 105.857 42.1023 105.943 41.4135 105.943H33.7507ZM48.4736 89.3999H60.0969L54.2422 72.9428L48.4736 89.3999Z" fill="#E8E6F3"/>
<path d="M82.5686 105.943C82.1381 105.943 81.7937 105.771 81.4494 105.514C81.105 105.171 81.0189 104.828 81.0189 104.4V63.9428C81.0189 63.5142 81.1911 63.0856 81.4494 62.8285C81.7937 62.5713 82.1381 62.3999 82.5686 62.3999H89.2843C89.9731 62.3999 90.4897 62.5713 90.8341 62.9142C91.1785 63.257 91.3507 63.5142 91.4368 63.7713L102.457 83.3999L113.478 63.7713C113.564 63.5999 113.822 63.257 114.167 62.9142C114.511 62.5713 115.028 62.3999 115.717 62.3999H122.432C122.863 62.3999 123.293 62.5713 123.552 62.8285C123.896 63.0856 123.982 63.5142 123.982 63.9428V104.4C123.982 104.828 123.81 105.171 123.552 105.514C123.207 105.857 122.863 105.943 122.432 105.943H115.028C114.597 105.943 114.167 105.771 113.909 105.514C113.564 105.171 113.478 104.828 113.478 104.4V81.0856L106.504 94.1142C106.332 94.457 105.987 94.7999 105.729 95.1428C105.385 95.3999 104.954 95.5713 104.352 95.5713H101.08C100.477 95.5713 100.047 95.3999 99.7023 95.1428C99.3579 94.8856 99.0996 94.5428 98.9274 94.1142L91.8673 81.0856V104.4C91.8673 104.828 91.6951 105.171 91.4368 105.514C91.1785 105.857 90.748 105.943 90.3175 105.943H82.5686Z" fill="#E8E6F3"/>
<path d="M134.314 105.943C133.883 105.943 133.453 105.771 133.195 105.514C132.936 105.171 132.764 104.828 132.764 104.4V63.9428C132.764 63.5142 132.936 63.0856 133.195 62.8285C133.453 62.5713 133.883 62.3999 134.314 62.3999H142.666C143.096 62.3999 143.527 62.5713 143.785 62.8285C144.129 63.0856 144.215 63.5142 144.215 63.9428V104.4C144.215 104.828 144.043 105.171 143.785 105.514C143.44 105.857 143.096 105.943 142.666 105.943H134.314Z" fill="#E8E6F3"/>
<path d="M154.633 105.943C154.203 105.943 153.772 105.771 153.514 105.514C153.256 105.171 153.083 104.828 153.083 104.4V63.9428C153.083 63.5142 153.256 63.0856 153.514 62.8285C153.772 62.5713 154.203 62.3999 154.633 62.3999H162.899C163.329 62.3999 163.76 62.5713 164.018 62.8285C164.276 63.0856 164.448 63.5142 164.448 63.9428V96.5999H183.39C183.821 96.5999 184.251 96.7713 184.509 97.0285C184.768 97.3713 184.94 97.7142 184.94 98.1428V104.4C184.94 104.828 184.768 105.171 184.509 105.514C184.251 105.857 183.821 105.943 183.39 105.943H154.633Z" fill="#E8E6F3"/>
<path d="M196.908 105.943C196.477 105.943 196.133 105.771 195.788 105.514C195.444 105.171 195.358 104.828 195.358 104.4V91.0285L180.893 64.3714C180.893 64.2856 180.807 64.1142 180.807 64.0285C180.807 63.9428 180.721 63.7714 180.721 63.6856C180.721 63.3428 180.893 63.0856 181.152 62.7428C181.41 62.4856 181.754 62.3142 182.099 62.3142H189.934C190.536 62.3142 191.053 62.4856 191.397 62.7428C191.742 62.9999 192 63.3428 192.086 63.5999L201.04 79.6285L210.081 63.5999C210.167 63.3428 210.425 63.0856 210.77 62.7428C211.114 62.3999 211.631 62.3142 212.233 62.3142H220.068C220.413 62.3142 220.757 62.4856 221.015 62.7428C221.274 62.9999 221.36 63.3428 221.36 63.6856C221.36 63.7714 221.36 63.9428 221.36 64.0285C221.36 64.1142 221.274 64.2856 221.274 64.3714L206.809 91.0285V104.4C206.809 104.828 206.637 105.171 206.379 105.514C206.034 105.857 205.69 105.943 205.259 105.943H196.908Z" fill="#E8E6F3"/>
<path d="M1.63587 167.829C1.20538 167.829 0.774888 167.657 0.516592 167.4C0.172197 167.057 0 166.714 0 166.286V125.829C0 125.4 0.172197 124.971 0.430493 124.714C0.688789 124.457 1.11928 124.286 1.54978 124.286H17.8224C21.8691 124.286 25.3991 124.971 28.2404 126.257C31.0816 127.543 33.3202 129.514 34.87 132C36.4197 134.486 37.2807 137.571 37.3668 141.343C37.3668 143.143 37.4529 144.771 37.4529 146.143C37.4529 147.514 37.4529 149.057 37.3668 150.857C37.1946 154.714 36.3336 157.886 34.87 160.457C33.4063 163.028 31.2538 164.829 28.4126 166.114C25.5713 167.314 22.1274 167.914 18.0807 167.914H1.63587V167.829ZM11.2789 158.914H17.8224C19.6305 158.914 21.0942 158.657 22.2996 158.057C23.5049 157.457 24.3659 156.6 24.9686 155.4C25.5713 154.2 25.9157 152.657 25.9157 150.686C26.0018 149.486 26.0879 148.371 26.0879 147.429C26.0879 146.486 26.0879 145.543 26.0879 144.6C26.0879 143.657 26.0018 142.628 25.9157 141.429C25.8296 138.6 25.0547 136.543 23.6771 135.257C22.2996 133.971 20.2332 133.286 17.478 133.286H11.1928V158.914H11.2789Z" fill="#E8E6F3"/>
<path d="M90.9202 150C87.3902 153.6 76.8 164.314 76.8 164.314C75.0781 166.028 72.8395 167.486 70.6009 167.486C68.1902 167.486 65.6933 166.114 63.713 164.4C58.3749 159.686 53.6395 155.143 48.818 150.086C42.5328 143.657 42.4467 133.457 48.818 127.114C53.8117 122.143 61.6467 122.229 67.7597 127.114C69.4816 128.486 70.8592 128.829 72.6673 127.114C77.9193 122.229 85.7543 122.143 90.748 127.114C97.4637 133.629 97.2915 143.657 90.9202 150Z" fill="#E8E6F3"/>
<path d="M90.5757 26.6572C87.0457 30.2572 76.4556 40.9714 76.4556 40.9714C74.7336 42.6857 72.495 44.1429 70.2565 44.1429C67.8457 44.1429 65.3488 42.7715 63.3686 41.0572C58.1165 36.2572 53.3811 31.7143 48.5596 26.7429C42.2744 20.3143 42.1883 10.1143 48.5596 3.77145C53.5533 -1.19998 61.3883 -1.11426 67.5013 3.77145C69.2233 5.14288 70.6009 5.48573 72.4089 3.77145C77.6609 -1.11426 85.4959 -1.19998 90.4896 3.77145C97.1192 10.2857 96.947 20.3143 90.5757 26.6572Z" fill="#E8E6F3"/>
<path d="M122.777 168C118.816 168 115.458 167.314 112.617 166.029C109.776 164.743 107.623 162.857 105.987 160.371C104.438 157.886 103.577 154.8 103.405 151.114C103.405 149.4 103.318 147.6 103.318 145.629C103.318 143.657 103.318 141.771 103.405 140.057C103.577 136.457 104.438 133.371 105.987 130.886C107.537 128.314 109.776 126.429 112.617 125.143C115.458 123.857 118.816 123.171 122.691 123.171C125.446 123.171 127.943 123.514 130.353 124.2C132.678 124.886 134.744 125.914 136.466 127.2C138.188 128.486 139.566 130.114 140.599 131.914C141.546 133.8 142.063 135.857 142.149 138.171C142.149 138.514 142.063 138.857 141.804 139.114C141.546 139.371 141.202 139.457 140.857 139.457H132.42C131.903 139.457 131.473 139.371 131.128 139.114C130.87 138.857 130.612 138.429 130.353 137.829C129.751 135.6 128.804 134.143 127.512 133.286C126.221 132.514 124.585 132.086 122.691 132.086C120.366 132.086 118.558 132.686 117.266 133.971C115.975 135.257 115.2 137.314 115.114 140.314C115.028 143.743 115.028 147.171 115.114 150.771C115.2 153.686 115.975 155.829 117.266 157.114C118.558 158.4 120.452 159 122.691 159C124.585 159 126.221 158.571 127.598 157.714C128.89 156.857 129.837 155.4 130.439 153.257C130.612 152.657 130.87 152.229 131.128 151.971C131.473 151.714 131.903 151.629 132.42 151.629H140.857C141.202 151.629 141.546 151.714 141.804 151.971C142.063 152.229 142.149 152.571 142.149 152.914C142.149 155.229 141.632 157.286 140.599 159.171C139.652 161.057 138.274 162.6 136.466 163.886C134.744 165.171 132.678 166.2 130.353 166.886C128.115 167.657 125.532 168 122.777 168Z" fill="#E8E6F3"/>
<path d="M159.971 167.4C159.541 167.4 159.11 167.229 158.852 166.971C158.594 166.629 158.422 166.286 158.422 165.857V133.629H147.229C146.798 133.629 146.368 133.457 146.109 133.2C145.851 132.943 145.679 132.514 145.679 132.086V125.4C145.679 124.971 145.851 124.543 146.109 124.286C146.368 124.029 146.798 123.857 147.229 123.857H180.893C181.324 123.857 181.754 124.029 182.013 124.286C182.271 124.543 182.443 124.971 182.443 125.4V132.086C182.443 132.514 182.271 132.857 182.013 133.2C181.754 133.543 181.324 133.629 180.893 133.629H169.787V165.857C169.787 166.286 169.614 166.629 169.356 166.971C169.098 167.314 168.667 167.4 168.237 167.4H159.971Z" fill="#E8E6F3"/>
<path d="M237.116 150C233.586 153.6 222.996 164.314 222.996 164.314C221.274 166.028 219.035 167.486 216.796 167.486C214.386 167.486 211.889 166.114 209.909 164.4C204.57 159.686 199.835 155.143 195.013 150.086C188.728 143.657 188.642 133.457 195.013 127.114C200.007 122.143 207.842 122.229 213.955 127.114C215.677 128.486 217.055 128.829 218.863 127.114C224.115 122.229 231.95 122.143 236.944 127.114C243.659 133.629 243.487 143.657 237.116 150Z" fill="#E8E6F3"/>
<path d="M252.613 167.4C252.183 167.4 251.752 167.229 251.494 166.971C251.236 166.714 251.064 166.286 251.064 165.857V125.4C251.064 124.971 251.236 124.543 251.494 124.286C251.752 124.029 252.183 123.857 252.613 123.857H269.661C275.085 123.857 279.304 125.057 282.404 127.543C285.503 130.029 287.053 133.543 287.053 138C287.053 140.914 286.364 143.4 284.9 145.457C283.523 147.514 281.629 149.057 279.304 150.086L287.828 165.429C287.914 165.686 288 165.943 288 166.114C288 166.457 287.828 166.714 287.569 167.057C287.311 167.314 286.967 167.486 286.622 167.486H278.271C277.496 167.486 276.893 167.314 276.549 166.886C276.204 166.457 275.86 166.114 275.774 165.771L268.628 152.057H262.256V165.857C262.256 166.286 262.084 166.629 261.826 166.971C261.568 167.314 261.137 167.4 260.707 167.4H252.613ZM262.256 143.143H269.489C271.469 143.143 272.933 142.629 273.88 141.686C274.827 140.743 275.343 139.457 275.343 137.829C275.343 136.2 274.913 134.914 273.966 133.886C273.019 132.857 271.555 132.429 269.489 132.429H262.256V143.143Z" fill="#E8E6F3"/>
</svg>
