<svg width="240" height="240" viewBox="0 0 240 240" fill="none" xmlns="http://www.w3.org/2000/svg">
<g clip-path="url(#clip0)">
<path d="M11.1 240H228.6C234.7 240 239.7 235 239.7 228.9V219.1C239.7 213 234.7 208 228.6 208H11.1C5 208 0 213 0 219.1V228.9C0 235 5 240 11.1 240Z" fill="#FCD3C1"/>
<path d="M36.6 208H202.7C207.6 208 211.6 204 211.6 199.1V50.4C211.6 22.5 189 0 161.2 0H78.1C50.3 0 27.7 22.6 27.7 50.4V199C27.7 204 31.7 208 36.6 208Z" fill="#E8E7F4"/>
<path d="M191.7 164.3L191.6 164.2L191.7 164.3C191.6 164.2 191.6 164.2 191.7 164.3Z" fill="#205CAA"/>
<path d="M191.7 164.3L191.6 164.2L191.7 164.3C191.6 164.2 191.6 164.2 191.7 164.3Z" fill="#FCD3C1"/>
<path d="M211.7 125V196.8C211.7 203.3 209.4 209.3 205.5 214C199.7 216.7 192.5 218.9 184.5 220.6C174.2 222.7 162.3 224 149.7 224H138.7C133.1 224 128.3 221.1 128.3 217.5C128.3 221.1 123.4 224 117.8 224H107.2V196.8H93.4V176.4C93.4 172.6 94.2 168.8 95.6 165.4C94.9 164.9 94.2 164.5 93.5 164.1C95.4 162.8 97.2 161.3 98.8 159.7C99.4 158.9 100 158 100.7 157.3L100.8 157.2C104.7 152.8 106.3 147.1 105.8 141.7C105.3 136.6 103 131.7 98.9 128.1C98.7 128 97.1 127 94.8 125.3C86.6 121 76.2 122.7 69.8 130C68.6 131.3 67.7 132.7 66.9 134.2H63.2C64.9 123.9 70.6 114.6 79.1 107.3C82.1 104.7 85.5 102.4 89.1 100.4C91.2 99.2 93.4 98.2 95.7 97.2C97.6 96.4 99.6 95.7 101.6 95.1C102.1 94.9 102.6 94.8 103.1 94.6C103.3 94.5 103.5 94.5 103.7 94.4C103.9 94.3 104.1 94.3 104.3 94.2C104.4 94.2 104.4 94.2 104.5 94.2C105.9 93.8 107.4 93.5 108.8 93.2C110.1 92.9 111.5 92.7 112.9 92.5C114.1 92.3 115.4 92.2 116.7 92C119.1 91.8 121.5 91.7 124 91.7H169.9C175 91.7 179.8 92.4 184.3 93.7C200.3 98.4 211.7 110.6 211.7 125Z" fill="#205CAA"/>
<path d="M27.8 126.2C27.8 126.5 27.7 126.9 27.7 127.2C27.7 127.4 27.7 127.7 27.7 127.9C27.7 127.7 27.7 127.4 27.7 127.2C27.8 126.9 27.8 126.6 27.8 126.2Z" fill="#91BDE5"/>
<path d="M28.6 121C28.4 122.1 28.2 123.2 28 124.4C28.2 123.3 28.4 122.1 28.6 121Z" fill="#91BDE5"/>
<path d="M111.4 129.8C111.4 133.9 110.8 137.9 109.7 141.7C107.7 148.6 103.9 154.8 98.8 159.7C99.4 158.9 100 158 100.7 157.3L100.8 157.2C104.7 152.8 106.3 147.1 105.8 141.7C105.3 136.6 103 131.7 98.9 128.1C98.7 128 97.1 127 94.8 125.3C86.6 121 76.2 122.7 69.8 130C68.6 131.3 67.7 132.7 66.9 134.2H57.5V108.3H43.5C42.9 108.3 42.2 108.3 41.6 108.4C41.6 108.3 41.6 108.3 41.6 108.3H33.5C33.8 107.8 34.1 107.3 34.5 106.8C34.8 106.4 35.1 105.9 35.4 105.5C35.6 105.3 35.7 105.1 35.9 104.9C36.1 104.6 36.4 104.2 36.7 103.9C36.9 103.6 37.1 103.4 37.3 103.1C37.6 102.7 37.9 102.3 38.3 102C38.6 101.6 39 101.3 39.3 100.9C39.4 100.8 39.5 100.7 39.6 100.6C40 100.2 40.3 99.8 40.7 99.5C40.8 99.5 40.8 99.4 40.9 99.3C41.3 98.9 41.7 98.5 42.2 98.2C42.3 98.2 42.3 98.1 42.4 98C42.8 97.7 43.2 97.3 43.6 97C44.4 96.4 45.2 95.8 46 95.2C46.3 95 46.5 94.8 46.8 94.7C49.1 93.2 51.6 91.9 54.2 90.9C54.4 90.8 54.7 90.7 55 90.6C55.3 90.5 55.7 90.4 56 90.2C56.4 90 56.9 89.9 57.3 89.8C57.4 89.8 57.4 89.8 57.5 89.8C57.6 89.8 57.6 89.8 57.7 89.7C58 89.6 58.3 89.5 58.6 89.5C59.5 89.3 60.4 89 61.3 88.9C62.8 88.6 64.4 88.4 66 88.2C67.1 88.1 68.3 88.1 69.5 88.1C70 88.1 70.5 88.1 71 88.1C75.6 88.3 80 89.2 84.1 90.7C88.4 92.3 92.3 94.5 95.8 97.3C96.9 98 98 99 99 100C106.7 107.6 111.4 118.1 111.4 129.8Z" fill="#91BDE5"/>
<path d="M61.4 88.7V108.2H33.7C34 107.7 34.3 107.2 34.7 106.7C35 106.3 35.3 105.8 35.6 105.4C35.8 105.2 35.9 105 36.1 104.8C36.3 104.5 36.6 104.1 36.9 103.8C37.1 103.5 37.3 103.3 37.5 103C37.8 102.6 38.1 102.2 38.5 101.9C38.8 101.5 39.2 101.2 39.5 100.8C39.6 100.7 39.7 100.6 39.8 100.5C40.2 100.1 40.5 99.7 40.9 99.4C41 99.4 41 99.3 41.1 99.2C41.5 98.8 41.9 98.4 42.4 98.1C42.5 98.1 42.5 98 42.6 97.9C43 97.6 43.4 97.2 43.8 96.9C44.6 96.3 45.4 95.7 46.2 95.1C46.5 94.9 46.7 94.7 47 94.6C49.3 93.1 51.8 91.8 54.4 90.8C54.6 90.7 54.9 90.6 55.2 90.5C55.5 90.4 55.9 90.3 56.2 90.1C56.6 89.9 57.1 89.8 57.5 89.7C57.6 89.7 57.6 89.7 57.7 89.7C57.8 89.7 57.8 89.7 57.9 89.6C58.2 89.5 58.5 89.4 58.8 89.4C59.6 89.1 60.5 88.9 61.4 88.7Z" fill="#FCD3C1"/>
<path d="M121 141.6V205.6H107.1V196.8H93.4V176.4C93.4 172.6 94.2 168.8 95.6 165.4C94.9 164.9 94.2 164.5 93.5 164.1C95.4 162.8 97.2 161.3 98.8 159.7C99.4 158.9 100 158 100.7 157.3L100.8 157.2C104.7 152.8 106.3 147.1 105.8 141.7H121V141.6Z" fill="#205CAA"/>
<path d="M140.1 72.3V144.6C140.1 145 139.8 145.3 139.5 145.3C139.3 145.3 139 145.2 138.9 145C136.9 141.1 132.9 138.3 128.2 138.3C124.9 138.3 121.9 139.6 119.8 141.8C117.6 144 116.3 147 116.3 150.3C116.3 154.2 118.2 157.7 121.1 159.9L121.2 160C121.1 160.6 121.1 161.3 121.1 162C121.1 162.5 121.1 163.1 121.1 163.7C121.1 164.5 121.1 165.2 121 165.9C120.5 170.2 118.5 172.2 115.6 172.7C110.2 173.7 102 169.5 95.8 165.7C95.1 165.2 94.4 164.8 93.7 164.4C95.6 163.1 97.4 161.6 99 160C99.6 159.2 100.2 158.3 100.9 157.6L101 157.5C104.9 153.1 106.5 147.4 106 142C105.5 136.9 103.2 132 99.1 128.4C98.9 128.3 97.3 127.3 95 125.6C86.8 121.3 76.4 123 70 130.3C68.8 131.6 67.9 133 67.1 134.5H57.7V72.3C57.7 63.1 61.1 54.2 67.2 47.2C74.4 39 84.9 34.2 95.8 34.2H102C107.5 34.2 112.9 35.4 117.7 37.6C122.6 39.8 127 43.1 130.6 47.2C131.5 48.2 132.3 49.2 133.1 50.3C137.3 56.2 139.7 63.2 140 70.4C140.1 71.1 140.1 71.6 140.1 72.3Z" fill="#205CAA"/>
<path d="M54.9 224H52.4C52.3 224 52.3 223.9 52.2 223.9C53.1 224 54 224 54.9 224Z" fill="#91BDE5"/>
<path d="M70.9 75.1C69.7 76.3 69.7 78.1 70.9 79.3L71.9 80.3C73.1 81.5 74.9 81.5 76.1 80.3L71.7 84.7C70.5 85.9 70.5 87.7 71.7 88.9L72.7 89.9C73.9 91.1 75.7 91.1 76.9 89.9L75.8 91L80.3 95.5C87.6 102.8 99.5 102.8 106.9 95.5L111.4 91L112.5 92.1C114.5 94.1 117.5 92.7 118.2 90C118.9 87.4 120.8 81.6 120.8 81.6L132.4 70L119 56.7C116.4 54.1 112.3 54.1 109.8 56.7L97.4 69.1C96.2 70.3 94.4 70.3 93.2 69.1L92.2 68.1C91 66.9 91 65.1 92.2 63.9L94.6 61.5C95.8 60.3 95.8 58.5 94.6 57.3L93.6 56.3C92.4 55.1 90.6 55.1 89.4 56.3L81 64.9C79.8 66.1 78 66.1 76.8 64.9L73.5 61.6L70.9 75.1Z" fill="#FCD3C1"/>
<path d="M111.9 99.9C109.4 99.9 106.9 98.9 105 97C102 94 101.3 89.4 103.3 85.6C103.5 85.3 103.9 85.1 104.2 85.3C104.5 85.5 104.7 85.9 104.5 86.2C102.8 89.4 103.4 93.4 106 96C108.6 98.6 112.5 99.2 115.8 97.5C116.1 97.3 116.6 97.5 116.7 97.8C116.9 98.1 116.7 98.6 116.4 98.7C115 99.5 113.4 99.9 111.9 99.9Z" fill="#205CAA"/>
<path d="M94.9 125.2C86.7 120.9 76.3 122.6 69.9 129.9C68.7 131.2 67.8 132.6 67 134.1H57.6V108.2H43.6C43 108.2 42.3 108.2 41.7 108.3C41.7 108.2 41.7 108.2 41.7 108.2C43.1 104.9 45 101.7 47.2 98.7C49.8 95.4 53.2 92.3 57.2 89.7C57.3 89.7 57.3 89.6 57.4 89.6C62 86.7 67.4 84.4 73.4 82.6C73.9 82.4 74.5 82.3 75 82.2C82.1 80.3 90.1 79.3 98.5 79.3C98.5 79.3 90 84.3 83.9 90.5C82.4 92.1 81 93.7 80 95.4C78.9 97.2 78.1 99 78 100.8C77.8 103 78.2 105.1 79 107.2C79.1 107.5 79.2 107.8 79.4 108.2C82.7 115.4 90.2 121.8 94.9 125.2Z" fill="#FCD3C1"/>
<path d="M113.8 81C114.1 81.3 114.6 81.3 114.9 81L117.3 78.6C117.6 78.3 117.6 77.8 117.3 77.5C117 77.2 116.5 77.2 116.2 77.5L113.8 79.9C113.5 80.2 113.5 80.7 113.8 81Z" fill="#205CAA"/>
<path d="M95.5 69.9H132.5L114.3 51.7L95.5 69.9Z" fill="#205CAA"/>
<path d="M81 64.9L57.6 89.6L68.3 57.9L81 64.9Z" fill="#205CAA"/>
<path d="M57.6 89.6C57.6 89.6 81.1 90 81.1 64.9H60.4L57.6 89.6Z" fill="#205CAA"/>
<path d="M80.7 69.9C80.7 69.9 80.4 65.5 89.5 56.4C98.6 47.3 83 56.4 83 56.4L77.7 63.8L80.7 69.9Z" fill="#205CAA"/>
<path d="M184.3 26V81.2C184.3 81.8 184.2 82.3 184.1 82.8C183.8 84 183.1 85.1 182.3 85.9H137.3C135.8 85.9 134.5 85.1 133.8 83.9C133.5 83.2 133.3 82.5 133.2 81.8V81.7C133.2 81.5 133.2 81.4 133.2 81.2V36.8C126.6 36.8 121.3 31.6 121.3 25.1C121.3 21.3 123.1 17.9 126 15.8C128.2 18 131.3 19.3 134.7 19.3H177.7C181.2 19.3 184.3 22.3 184.3 26Z" fill="#005CB0"/>
<path d="M184.3 70.2V86H137.3C135.8 86 134.5 85.2 133.8 84C133.5 83.3 133.3 82.6 133.2 81.9V81.8V67.1H128.9C126 67.1 124.4 63.7 126.3 61.4L133.1 53.5V36.9H152C155.7 36.9 158.7 39.9 158.7 43.6V57.1C158.7 58.7 160 60.1 161.7 60.1H163.1C164.8 60.1 166.1 58.8 166.1 57.1V49C166.1 47.3 167.4 46 169.1 46H170.5C172.2 46 173.5 47.3 173.5 49V70.2C173.5 71.8 174.8 73.2 176.5 73.2H181.3C182.9 73.2 184.3 71.9 184.3 70.2Z" fill="#FCD3C1"/>
<path d="M139.5 56.5C139.1 56.5 138.7 56.1 138.7 55.7V52.3C138.7 51.9 139.1 51.5 139.5 51.5C139.9 51.5 140.3 51.9 140.3 52.3V55.7C140.3 56.1 139.9 56.5 139.5 56.5Z" fill="#205CAA"/>
<path d="M133.1 75.5C132.7 75.5 132.4 75.2 132.4 74.8C132.4 74.4 132.7 74.1 133.1 74.1C136.8 74.1 140 71.7 141.1 68.2C141.2 67.8 141.6 67.6 142 67.7C142.4 67.8 142.6 68.2 142.5 68.6C141.1 72.8 137.4 75.5 133.1 75.5Z" fill="#205CAA"/>
<path d="M156.9 98.2H184.3V86H145.5V86.7C145.5 93 150.6 98.2 156.9 98.2Z" fill="#FCD3C1"/>
<path d="M192.4 148.4L192.3 148.3L192.4 148.4C192.4 148.4 192.3 148.3 192.4 148.4Z" fill="#205CAA"/>
<path d="M107.1 196.8V224H54.9C54 224 53.1 224 52.3 223.9C44.9 223.2 38.4 219.5 33.9 214.1C30.1 209.4 27.7 203.4 27.7 196.9V129.9C27.7 130.1 27.7 130.2 27.7 130.4V129.9C27.7 129.3 27.7 128.7 27.7 128.1C27.7 127.9 27.7 127.6 27.7 127.4C27.7 127.1 27.7 126.7 27.8 126.4V126.3C27.8 125.8 27.9 125.2 28 124.7V124.6C28.1 123.4 28.3 122.3 28.6 121.2C28.8 120.1 29.1 119 29.5 117.9C29.7 117.4 29.8 116.8 30 116.3C31 113.5 32.2 110.9 33.7 108.4H41.8V108.5C42.4 108.4 43 108.4 43.7 108.4H57.7V134.3H67C67.8 132.8 68.7 131.4 69.9 130.1C76.3 122.8 86.7 121.1 94.9 125.4C97.2 127.1 98.8 128.1 99 128.2C100 129.1 100.9 130.1 101.8 131.1C104.2 134.3 105.6 138 106 141.8C106.5 146.8 105.1 152 101.8 156.3C101.5 156.7 101.2 157 100.9 157.4L100.8 157.5C100.1 158.3 99.5 159.1 98.9 159.9C97.3 161.5 95.5 163 93.6 164.3C94.3 164.7 95 165.2 95.7 165.6C94.2 169.1 93.5 172.8 93.5 176.6V197H107.1V196.8Z" fill="#91BDE5"/>
<path d="M99 128C98.8 127.9 97.2 126.9 94.9 125.2C96.3 126 97.7 126.9 99 128Z" fill="#91BDE5"/>
<path d="M98.9 159.7C97.6 161.5 96.5 163.4 95.7 165.5C95 165 94.3 164.6 93.6 164.2C95.4 162.8 97.2 161.3 98.9 159.7Z" fill="#91BDE5"/>
<path d="M138.6 178.8C136.8 180.6 131.6 185.9 131.6 185.9C130.8 186.7 129.6 187.5 128.5 187.5C127.3 187.5 126.1 186.8 125.1 186C122.4 183.6 120.1 181.4 117.7 178.9C114.6 175.7 114.5 170.6 117.7 167.5C120.2 165 124.1 165.1 127.1 167.5C128 168.2 128.6 168.3 129.5 167.5C132.1 165.1 136 165 138.4 167.5C141.8 170.6 141.7 175.6 138.6 178.8Z" fill="#F37972"/>
<path d="M128.2 217.4V217.5C128.2 221.1 123.3 224 117.7 224H111.7H107.2V196.8C107.3 196.8 107.3 196.8 107.4 196.8C109.9 197.1 111.8 198.5 111.8 200.2V201.6C111.8 203.1 112.6 204.6 114.1 205.7C114.3 205.9 114.5 206 114.8 206.2L124.9 212.7C126.6 213.9 128.1 215.6 128.2 217.4Z" fill="#FCD3C1"/>
<path d="M149.2 219V224H144.7H138.7C133.1 224 128.3 221.1 128.3 217.5V217.4C128.3 215.6 129.9 213.9 131.8 212.6L141.8 206.1C143.7 204.9 144.7 203.2 144.7 201.5V200.1C144.7 198.4 146.5 197 149.1 196.7C149.2 196.7 149.2 196.7 149.3 196.7L149.2 219Z" fill="#FCD3C1"/>
<path d="M205.5 196.8V214C200.5 220.1 192.9 224 184.5 224H149.2V196.8H205.5Z" fill="#205CAA"/>
<path d="M211.7 127.3V196.8C211.7 203.3 209.4 209.3 205.5 214C200.5 220.1 192.9 224 184.5 224V127.3H211.7Z" fill="#205CAA"/>
<path d="M101.7 131V156.1C101.4 156.5 101.1 156.8 100.8 157.2L100.7 157.3C100 158.1 99.4 158.9 98.8 159.7C97.5 161.5 96.4 163.4 95.6 165.5C94.1 169 93.4 172.7 93.4 176.5V185.1H27.7V129.8C27.7 130 27.7 130.1 27.7 130.3V129.8C27.7 129.2 27.7 128.6 27.7 128C27.7 127.8 27.7 127.5 27.7 127.3C27.7 127 27.7 126.6 27.8 126.3V126.2C27.8 125.7 27.9 125.1 28 124.6V124.5C28.1 123.3 28.3 122.2 28.6 121.1C28.8 120 29.1 118.9 29.5 117.8C29.7 117.3 29.8 116.7 30 116.2C31 113.4 32.2 110.8 33.7 108.3H79.6C82.7 115.5 90.2 121.9 94.9 125.4C96.3 126.1 97.7 127.1 99 128.2C100 128.9 100.9 129.9 101.7 131Z" fill="#91BDE5"/>
<path d="M229.282 223.938H216.734C214.045 223.938 211.755 221.745 211.755 218.954V200.81C211.755 198.119 213.946 195.826 216.734 195.826H229.282C231.971 195.826 234.261 198.019 234.261 200.81V218.954C234.162 221.745 231.971 223.938 229.282 223.938Z" fill="#8D9FD1"/>
<path d="M203.29 175.09C204.885 175.09 206.178 173.796 206.178 172.199C206.178 170.602 204.885 169.308 203.29 169.308C201.695 169.308 200.402 170.602 200.402 172.199C200.402 173.796 201.695 175.09 203.29 175.09Z" fill="#F37972"/>
<path d="M201.598 169.807L200.801 170.604C200.104 171.302 199.008 171.302 198.311 170.604L195.523 167.813C194.826 167.115 194.826 166.019 195.523 165.321L196.32 164.523C197.017 163.826 198.112 163.826 198.809 164.523L201.598 167.315C202.295 168.012 202.295 169.109 201.598 169.807Z" fill="white"/>
<path d="M210.958 179.178L210.161 179.975C209.464 180.673 208.369 180.673 207.672 179.975L204.883 177.184C204.186 176.486 204.186 175.389 204.883 174.691L205.68 173.894C206.377 173.196 207.472 173.196 208.169 173.894L210.958 176.685C211.655 177.283 211.655 178.48 210.958 179.178Z" fill="white"/>
<path d="M200.801 173.894L201.598 174.691C202.295 175.389 202.295 176.486 201.598 177.184L198.809 179.975C198.112 180.673 197.017 180.673 196.32 179.975L195.523 179.178C194.826 178.48 194.826 177.383 195.523 176.685L198.311 173.894C199.008 173.196 200.104 173.196 200.801 173.894Z" fill="white"/>
<path d="M210.161 164.523L210.958 165.321C211.655 166.019 211.655 167.115 210.958 167.813L208.169 170.604C207.472 171.302 206.377 171.302 205.68 170.604L204.883 169.807C204.186 169.109 204.186 168.012 204.883 167.315L207.672 164.523C208.369 163.826 209.464 163.826 210.161 164.523Z" fill="white"/>
<path d="M223.008 186.256C224.603 186.256 225.896 184.961 225.896 183.365C225.896 181.768 224.603 180.474 223.008 180.474C221.413 180.474 220.12 181.768 220.12 183.365C220.12 184.961 221.413 186.256 223.008 186.256Z" fill="#F37972"/>
<path d="M221.315 180.872L220.519 181.67C219.822 182.368 218.726 182.368 218.029 181.67L215.241 178.879C214.543 178.181 214.543 177.084 215.241 176.386L216.037 175.589C216.734 174.891 217.83 174.891 218.527 175.589L221.315 178.38C222.012 179.078 222.012 180.175 221.315 180.872Z" fill="white"/>
<path d="M230.676 190.243L229.879 191.04C229.182 191.738 228.086 191.738 227.389 191.04L224.601 188.249C223.904 187.551 223.904 186.455 224.601 185.757L225.398 184.959C226.095 184.262 227.19 184.262 227.887 184.959L230.676 187.751C231.373 188.449 231.373 189.545 230.676 190.243Z" fill="white"/>
<path d="M220.519 184.959L221.315 185.757C222.012 186.455 222.012 187.551 221.315 188.249L218.527 191.04C217.83 191.738 216.734 191.738 216.037 191.04L215.241 190.243C214.543 189.545 214.543 188.449 215.241 187.751L218.029 184.959C218.726 184.262 219.822 184.262 220.519 184.959Z" fill="white"/>
<path d="M229.879 175.688L230.676 176.486C231.373 177.184 231.373 178.28 230.676 178.978L227.887 181.769C227.19 182.467 226.095 182.467 225.398 181.769L224.601 180.972C223.904 180.274 223.904 179.178 224.601 178.48L227.389 175.688C228.086 174.991 229.182 174.991 229.879 175.688Z" fill="white"/>
</g>
<defs>
<clipPath id="clip0">
<rect width="239.7" height="240" fill="white"/>
</clipPath>
</defs>
</svg>
