<svg width="240" height="241" viewBox="0 0 240 241" fill="none" xmlns="http://www.w3.org/2000/svg">
<g clip-path="url(#clip0)">
<path d="M36.9 208.003H203C207.9 208.003 211.9 204.003 211.9 199.103V50.4034C212 22.6034 189.4 0.00341797 161.6 0.00341797H78.4C50.6 0.00341797 28 22.6034 28 50.4034V199.003C28 204.003 32 208.003 36.9 208.003Z" fill="#E8E7F4"/>
<path d="M11.4 240.003H228.9C235 240.003 240 235.003 240 228.903V219.103C240 213.003 235 208.003 228.9 208.003H11.4C5.29999 208.003 0.299988 213.003 0.299988 219.103V228.903C0.299988 235.003 5.29999 240.003 11.4 240.003Z" fill="#FCD3C1"/>
<path d="M194.2 139.403H192.1V201.303H194.2V139.403Z" fill="#91BDE5"/>
<path d="M214.1 159.303H212V201.303H214.1V159.303Z" fill="#91BDE5"/>
<path d="M43.1 94.5034C43.1 94.4034 43.1 94.3034 43 94.2034V94.1034V94.2034C43.1 94.3034 43.1 94.4034 43.1 94.5034Z" fill="#205CAA"/>
<path d="M60.4 96.1034L60.3 96.2034C60.2 96.2034 60.2 96.1034 60.4 96.1034Z" fill="#205CAA"/>
<path d="M69.9 64.0034C69.9 64.0034 69.9 63.9034 69.9 63.8034V60.5034V60.4034V60.3034L70 60.2034L70.1 60.1034C70.2 60.0034 70.3 60.0034 70.3 59.9034C70.4 59.9034 70.5 59.8034 70.6 59.8034C70.7 59.8034 70.8 59.8034 70.9 59.9034C71 59.9034 71 60.0034 71.1 60.0034C71.1 60.0034 71.2 60.0034 71.2 60.1034C71.3 60.2034 71.3 60.2034 71.3 60.3034C71.3 60.4034 71.4 60.5034 71.4 60.6034V63.9034C71.4 64.0034 71.4 64.0034 71.4 64.1034C71.4 64.2034 71.4 64.2034 71.3 64.3034C71.3 64.3034 71.3 64.4034 71.2 64.4034L71.1 64.5034C71.1 64.5034 71 64.5034 71 64.6034C71 64.6034 70.9 64.6034 70.9 64.7034C70.8 64.7034 70.8 64.7034 70.7 64.7034C70.5 64.7034 70.3 64.6034 70.1 64.5034C70.1 64.2034 70 64.1034 69.9 64.0034Z" fill="#205CAA"/>
<path d="M75.5 82.6034C75.5 82.7034 75.5 82.8034 75.5 82.8034C75.5 83.0034 75.5 83.1034 75.4 83.3034C75.3 83.5034 75.3 83.7034 75.3 84.0034C74.2 83.9034 73.1 83.7034 72.2 83.3034C71 82.8034 69.9 82.1034 69 81.2034C67.9 80.1034 67.1 78.8034 66.6 77.2034C66.5 76.8034 66.7 76.4034 67.1 76.3034C67.5 76.2034 67.9 76.4034 68 76.8034C68.8 79.3034 70.6 81.2034 72.9 82.1034C73.6 82.3034 74.6 82.5034 75.5 82.6034Z" fill="#205CAA"/>
<path d="M61.1 111.903L61 112.003C61 112.003 61 111.903 61.1 111.903Z" fill="#205CAA"/>
<path d="M70.9 119.803C70.6 119.803 70.4 119.803 70.1 119.803H46.3C44.5 119.803 42.8 119.303 41.5 118.303C42.6 117.303 43.4 115.803 43.5 114.203C43.5 114.103 43.5 114.003 43.5 113.903V98.2034V114.203H58C63 114.303 67.6 116.403 70.9 119.803Z" fill="#205CAA"/>
<path d="M31.2 79.7034L30.9 79.4034C31 79.6034 31.1 79.6034 31.2 79.7034Z" fill="#205CAA"/>
<path d="M61.1 111.903L61 112.003C61 112.003 61 111.903 61.1 111.903Z" fill="#205CAA"/>
<path d="M61.1 111.903L61 112.003C61 112.003 61 111.903 61.1 111.903Z" fill="#FCD3C1"/>
<path d="M61.1 111.903L61 112.003C61 112.003 61 111.903 61.1 111.903Z" fill="#FCD3C1"/>
<path d="M31.2 79.7034L30.9 79.4034C31 79.6034 31.1 79.6034 31.2 79.7034Z" fill="#205CAA"/>
<path d="M45.3 114.303C45 115.503 44.3 116.603 43.4 117.503V98.2034V114.203H45.3V114.303Z" fill="#205CAA"/>
<path d="M31.2 79.7034L30.9 79.4034C31 79.6034 31.1 79.6034 31.2 79.7034Z" fill="#205CAA"/>
<path d="M60.4 96.1034L60.3 96.2034C60.2 96.2034 60.2 96.1034 60.4 96.1034Z" fill="#205CAA"/>
<path d="M125.3 128.403L75.8 177.903L71.6 182.103C65 188.703 54.4 188.703 47.8 182.103L4.80001 139.103C2.30001 136.603 0.800008 133.403 0.500008 130.103C7.86781e-06 125.603 1.40001 121.003 4.80001 117.603C5.00001 117.403 5.10001 117.303 5.30001 117.103C5.80001 117.503 6.40001 117.803 7.00001 118.103C7.40001 118.303 7.80001 118.503 8.20001 118.603C9.90001 119.303 11.8 119.703 13.8 119.703H23.5L54.6 151.003C57.4 153.803 62 153.803 64.8 151.003L75.8 140.003L106.3 109.403L116.9 120.003L125.3 128.403Z" fill="#8D9FD1"/>
<path d="M71.4 60.2034C71.4 60.3034 71.5 60.4034 71.5 60.5034V63.8034C71.5 63.9034 71.5 63.9034 71.5 64.0034C71.5 64.1034 71.5 64.1034 71.4 64.2034C71.4 64.2034 71.4 64.3034 71.3 64.3034L71.2 64.4034C71.2 64.3034 71.1 64.3034 71.1 64.2034C71 64.1034 70.9 64.0034 70.8 63.8034C70.7 63.7034 70.6 63.5034 70.5 63.4034C70.3 63.2034 70.1 62.9034 69.9 62.7034V60.4034V60.3034V60.2034L70 60.1034L70.1 60.0034C70.2 59.9034 70.3 59.9034 70.3 59.8034C70.4 59.8034 70.5 59.7034 70.6 59.7034C70.7 59.7034 70.8 59.7034 70.9 59.8034C71 59.8034 71 59.9034 71.1 59.9034C71.1 59.9034 71.2 59.9034 71.2 60.0034C71.3 60.0034 71.4 60.1034 71.4 60.2034Z" fill="#205CAA"/>
<path d="M75.5 82.6034C75.5 82.7034 75.5 82.8034 75.5 82.8034C75.5 83.0034 75.5 83.1034 75.4 83.3034C75.4 83.5034 75.3 83.7034 75.3 84.0034C74.2 83.9034 73.1 83.7034 72.2 83.3034C72.4 82.9034 72.6 82.5034 72.8 82.0034C73.6 82.3034 74.6 82.5034 75.5 82.6034Z" fill="#205CAA"/>
<path d="M83.8 66.4034C83.5 44.8034 66.5 27.2034 45 26.0034H43.3C42.8 26.0034 42.4 26.0034 42 26.1034C41.6 26.1034 41.1 26.0034 40.7 26.0034H39C17.3 27.2034 0.3 44.8034 0 66.4034C0 66.7034 0 67.0034 0 67.3034V107.303C0 111.303 2.1 114.903 5.3 117.203C5.8 117.603 6.4 117.903 7 118.203C7.4 118.403 7.8 118.603 8.2 118.703C9.9 119.403 11.8 119.803 13.8 119.803H37.7C39.2 119.803 40.5 119.203 41.5 118.303C42.6 117.303 43.4 115.803 43.5 114.203L40.4 110.603L34.1 103.103L30 98.2034L26.1 93.5034L32.4 87.2034C32.6 87.0034 32.7 86.9034 32.9 86.7034C33.1 86.5034 33.3 86.3034 33.4 86.1034C33.6 85.9034 33.7 85.7034 33.9 85.5034C34 85.4034 34.1 85.2034 34.2 85.1034C34.3 84.9034 34.4 84.7034 34.6 84.6034C34.7 84.4034 34.8 84.3034 34.8 84.1034C34.9 83.9034 35 83.7034 35.1 83.6034C35.1 83.6034 35.1 83.6034 35.1 83.5034C35.2 83.3034 35.3 83.1034 35.3 83.0034C35.3 82.9034 35.4 82.8034 35.4 82.6034C35.4 82.5034 35.5 82.4034 35.5 82.4034C35.6 82.2034 35.6 82.0034 35.7 81.8034C35.8 81.6034 35.8 81.4034 35.9 81.2034C36 81.0034 36 80.8034 36.1 80.6034C36.1 80.4034 36.2 80.2034 36.2 80.0034C36.2 79.8034 36.3 79.6034 36.3 79.4034C36.3 79.2034 36.3 78.9034 36.4 78.7034V78.4034C36.4 78.3034 36.4 78.2034 36.4 78.1034C36.4 77.9034 36.4 77.7034 36.4 77.4034V73.5034L36.3 66.4034V66.3034V66.2034V65.4034V64.5034C36.3 62.9034 37.6 61.6034 39.2 61.6034H40.6C40.7 61.6034 40.7 61.6034 40.8 61.6034C40.9 61.6034 40.9 61.6034 41 61.6034C41.1 61.6034 41.2 61.6034 41.4 61.7034C41.5 61.7034 41.6 61.7034 41.7 61.8034H41.8C42 61.9034 42.2 62.0034 42.4 62.1034C42.5 62.1034 42.5 62.2034 42.6 62.3034C42.7 62.3034 42.7 62.4034 42.8 62.4034C42.9 62.5034 42.9 62.5034 43 62.6034C43 62.7034 43.1 62.7034 43.1 62.8034C43.3 63.1034 43.5 63.4034 43.5 63.8034C43.6 64.0034 43.6 64.2034 43.6 64.4034V67.7034C43.6 67.8034 43.6 67.9034 43.6 67.9034C43.6 68.0034 43.6 68.1034 43.6 68.1034V68.2034C43.6 68.3034 43.6 68.3034 43.7 68.4034V68.5034C43.7 68.5034 43.7 68.5034 43.7 68.6034V68.7034C43.7 68.7034 43.7 68.8034 43.8 68.8034C43.8 68.9034 43.9 69.0034 43.9 69.1034C43.9 69.2034 44 69.2034 44 69.3034C44 69.3034 44 69.3034 44 69.4034C44 69.5034 44.1 69.6034 44.2 69.6034C44.4 69.8034 44.6 70.0034 44.9 70.2034C45 70.2034 45.1 70.3034 45.1 70.3034C45.2 70.3034 45.2 70.4034 45.3 70.4034C45.7 70.6034 46 70.6034 46.4 70.6034H47.8C48.4 70.6034 49 70.4034 49.5 70.1034C49.8 69.9034 50 69.7034 50.2 69.4034L66.3 53.3034L75.7 43.9034V60.1034C75.7 60.1034 75.7 60.1034 75.8 60.2034C75.8 60.3034 75.9 60.4034 76 60.5034C76.1 60.6034 76.1 60.8034 76.2 60.9034C76.3 61.1034 76.4 61.4034 76.6 61.7034C76.7 61.8034 76.7 62.0034 76.8 62.1034C76.8 62.2034 76.9 62.3034 76.9 62.4034C77 62.6034 77.1 62.8034 77.2 63.0034C78.1 64.6034 79.1 66.6034 79.8 67.7034C81.2 70.2034 80.1 73.2034 77.3 73.2034H75.7V79.5034C75.7 80.1034 75.7 80.7034 75.6 81.3034C75.6 81.6034 75.5 81.9034 75.5 82.2034C75.5 82.3034 75.5 82.4034 75.5 82.4034C75.5 82.5034 75.5 82.6034 75.5 82.6034C75.5 82.8034 75.5 82.9034 75.4 83.1034C75.4 83.3034 75.3 83.5034 75.3 83.8034C73.8 90.3034 68.9 95.5034 62.5 97.4034C61.5 97.7034 60.4 97.9034 59.3 98.1034H45.3H45.2H45.1C45.1 98.1034 45.1 98.1034 45 98.1034L43.4 98.2034V114.103H58C63.1 114.103 67.7 116.203 70.9 119.703C78.1 119.303 83.8 113.903 83.8 107.203V66.9034C83.8 66.8034 83.8 66.6034 83.8 66.4034Z" fill="#205CAA"/>
<path d="M71.4 60.2034C71.4 60.1034 71.3 60.0034 71.3 60.0034C71.3 60.0034 71.3 59.9034 71.2 59.9034C71.1 59.8034 71.1 59.8034 71 59.8034C70.9 59.8034 70.8 59.7034 70.7 59.7034C70.6 59.7034 70.5 59.7034 70.4 59.8034C70.3 59.8034 70.2 59.9034 70.2 60.0034L70.1 60.1034L70 60.2034V60.3034V60.4034V63.7034C70 63.8034 70 63.8034 70 63.9034C70 64.1034 70.1 64.2034 70.2 64.3034C70.3 64.4034 70.5 64.5034 70.8 64.5034C70.9 64.5034 70.9 64.5034 71 64.5034C71.1 64.5034 71.1 64.5034 71.1 64.4034C71.1 64.4034 71.2 64.4034 71.2 64.3034L71.3 64.2034C71.3 64.2034 71.3 64.1034 71.4 64.1034C71.4 64.0034 71.4 64.0034 71.5 63.9034C71.5 63.8034 71.5 63.8034 71.5 63.7034V60.4034C71.5 60.4034 71.5 60.3034 71.4 60.2034ZM60.3 96.1034C60.2 96.1034 60.2 96.2034 60.3 96.1034V96.1034ZM72.7 82.0034C70.4 81.1034 68.6 79.2034 67.8 76.7034C67.7 76.3034 67.3 76.1034 66.9 76.2034C66.5 76.3034 66.3 76.7034 66.4 77.1034C66.9 78.7034 67.7 80.0034 68.8 81.1034C69.7 82.0034 70.8 82.7034 72 83.2034C73 83.6034 74 83.8034 75.1 83.9034C75.1 83.7034 75.2 83.4034 75.2 83.2034C75.2 83.1034 75.3 82.9034 75.3 82.7034C75.3 82.6034 75.3 82.5034 75.3 82.5034C74.6 82.5034 73.6 82.3034 72.7 82.0034ZM70.2 64.4034C70.3 64.5034 70.5 64.6034 70.8 64.6034C70.9 64.6034 70.9 64.6034 71 64.6034C71.1 64.6034 71.1 64.6034 71.1 64.5034C71.1 64.5034 71.2 64.5034 71.2 64.4034L71.3 64.3034C71.3 64.3034 71.3 64.2034 71.4 64.2034C71.4 64.1034 71.4 64.1034 71.5 64.0034C71.5 63.9034 71.5 63.9034 71.5 63.8034V60.5034C71.5 60.4034 71.5 60.3034 71.4 60.2034C71.4 60.1034 71.3 60.0034 71.3 60.0034C71.3 60.0034 71.3 59.9034 71.2 59.9034C71.1 59.8034 71.1 59.8034 71 59.8034C70.9 59.8034 70.8 59.7034 70.7 59.7034C70.6 59.7034 70.5 59.7034 70.4 59.8034C70.3 59.8034 70.2 59.9034 70.2 60.0034L70.1 60.1034L70 60.2034V60.3034V60.4034V63.7034C70 63.8034 70 63.8034 70 63.9034C70 64.1034 70.1 64.2034 70.2 64.4034ZM43.4 98.2034V98.3034V98.2034ZM43 94.2034V94.1034V94.2034C43 94.3034 43 94.4034 43 94.5034C43.1 94.4034 43.1 94.3034 43 94.2034Z" fill="#FCD3C1"/>
<path d="M71.5 60.5034V63.8034C71.5 63.9034 71.5 63.9034 71.5 64.0034C71.5 64.1034 71.5 64.1034 71.4 64.2034C71.4 64.2034 71.4 64.3034 71.3 64.3034L71.2 64.4034C71.2 64.4034 71.1 64.4034 71.1 64.5034C71.1 64.5034 71 64.5034 71 64.6034C70.9 64.6034 70.9 64.6034 70.8 64.6034C70.6 64.6034 70.4 64.5034 70.2 64.4034C70.1 64.3034 70 64.2034 70 64.0034C70 64.0034 70 63.9034 70 63.8034V60.5034V60.4034V60.3034C70 60.2034 70 60.2034 70.1 60.1034L70.2 60.0034C70.3 59.9034 70.4 59.9034 70.4 59.8034C70.5 59.8034 70.6 59.7034 70.7 59.7034C70.8 59.7034 70.9 59.7034 71 59.8034C71.1 59.8034 71.1 59.9034 71.2 59.9034C71.2 59.9034 71.3 59.9034 71.3 60.0034C71.4 60.1034 71.4 60.1034 71.4 60.2034C71.5 60.3034 71.5 60.4034 71.5 60.5034Z" fill="#205CAA"/>
<path d="M75.5 82.6034C75.5 82.7034 75.5 82.8034 75.5 82.8034C75.5 83.0034 75.5 83.1034 75.4 83.3034C75.3 83.5034 75.3 83.7034 75.3 84.0034C74.2 83.9034 73.1 83.7034 72.2 83.3034C71 82.8034 69.9 82.1034 69 81.2034C67.9 80.1034 67.1 78.8034 66.6 77.2034C66.5 76.8034 66.7 76.4034 67.1 76.3034C67.5 76.2034 67.9 76.4034 68 76.8034C68.8 79.3034 70.6 81.2034 72.9 82.1034C73.6 82.3034 74.6 82.5034 75.5 82.6034Z" fill="#205CAA"/>
<path d="M43.5 98.2034V114.303H43.4C43.4 114.203 43.4 114.103 43.4 114.003L43.5 98.2034Z" fill="#FCD3C1"/>
<path d="M43.5 114.303C43.4 114.303 43.4 114.303 43.5 114.303C43.4 114.203 43.4 114.203 43.5 114.303Z" fill="#205CAA"/>
<path d="M157 127.403L156.7 127.703C155.3 129.103 153 129.103 151.5 127.703L130.7 106.903C129.3 105.503 129.3 103.203 130.7 101.703L130.9 101.503C135.3 102.503 139.5 104.703 142.9 108.103L156.8 122.003C158.4 123.603 158.4 125.903 157 127.403Z" fill="#91BDE5"/>
<path d="M138 141.203L117.2 120.403C115.8 119.003 115.8 116.703 117.2 115.203L117.5 114.903C118.9 113.503 121.2 113.503 122.7 114.903L143.5 135.703C144.9 137.103 144.9 139.403 143.5 140.903L143.2 141.203C141.7 142.603 139.4 142.603 138 141.203Z" fill="#91BDE5"/>
<path d="M133.6 173.103L118 157.503C114.5 154.003 114.5 148.403 118 144.903L142.5 120.403C146 116.903 151.6 116.903 155.1 120.403L170.7 136.003C174.2 139.503 174.2 145.103 170.7 148.603L146.2 173.103C142.7 176.503 137 176.503 133.6 173.103Z" fill="#91BDE5"/>
<path d="M133.7 170.603V166.503C133.7 163.603 136.1 161.203 139 161.203H180.9C183.8 161.203 186.2 163.603 186.2 166.503V170.603C186.2 173.503 183.8 175.903 180.9 175.903H139C136 175.903 133.7 173.503 133.7 170.603Z" fill="#91BDE5"/>
<path d="M143.5 109.503C143.5 109.903 143.3 110.403 143 110.703L138.8 114.903L125.3 128.403L106.4 109.503L107.6 108.303C114 101.903 122.9 99.7034 131 101.603C135.4 102.603 139.6 104.803 143 108.203C143.3 108.603 143.5 109.003 143.5 109.503Z" fill="#FCD3C1"/>
<path d="M75.8 132.103V208.203H16.7C7.69999 208.203 0.299988 200.903 0.299988 191.803V132.103C0.299988 132.003 0.299988 131.903 0.299988 131.703C0.299988 131.203 0.299988 130.703 0.399988 130.203C0.499988 129.503 0.599988 128.903 0.699988 128.203C1.59999 124.203 3.79999 120.703 6.89999 118.203C7.29999 118.403 7.69999 118.603 8.09999 118.703C9.79999 119.403 11.7 119.803 13.7 119.803H37.6C39.1 119.803 40.4 119.203 41.4 118.303C42.5 117.303 43.3 115.803 43.4 114.203H58C63.1 114.203 67.7 116.303 70.9 119.803C73.9 123.003 75.8 127.303 75.8 132.103Z" fill="#8D9FD1"/>
<path d="M203.1 135.003C201.4 136.703 196.4 141.803 196.4 141.803C195.6 142.603 194.5 143.303 193.5 143.303C192.3 143.303 191.2 142.603 190.2 141.803C187.7 139.503 185.4 137.403 183.1 135.003C180.1 131.903 180.1 127.003 183.1 124.003C185.5 121.603 189.2 121.703 192.1 124.003C192.9 124.703 193.6 124.803 194.4 124.003C196.9 121.703 200.6 121.603 203 124.003C206.3 127.103 206.2 131.903 203.1 135.003Z" fill="#F37972"/>
<path d="M221.1 162.203C219.7 163.603 215.7 167.703 215.7 167.703C215.1 168.303 214.2 168.903 213.3 168.903C212.4 168.903 211.4 168.403 210.7 167.703C208.6 165.903 206.8 164.103 205 162.203C202.6 159.703 202.5 155.803 205 153.303C206.9 151.403 209.9 151.403 212.3 153.303C213 153.803 213.5 154.003 214.2 153.303C216.2 151.403 219.2 151.403 221.1 153.303C223.7 155.903 223.6 159.703 221.1 162.203Z" fill="#F37972"/>
<path d="M41.5 176.803C41.5 177.003 41.4 177.303 41.2 177.503C40.8 177.903 40.2 177.903 39.8 177.503L15.5 153.203C15.1 152.803 15.1 152.203 15.5 151.803C15.9 151.403 16.5 151.403 16.9 151.803L41.2 176.103C41.4 176.303 41.5 176.503 41.5 176.803Z" fill="#91BDE5"/>
<path d="M165.5 187.103H240V207.003C240 216.403 232.4 224.003 223 224.003H182.6C173.2 224.003 165.6 216.403 165.6 207.003V187.103H165.5Z" fill="#205CAA"/>
<path d="M154 33.6034H184.7V43.0034C184.7 50.2034 178.9 56.0034 171.7 56.0034H167C159.8 56.0034 154 50.2034 154 43.0034V33.6034Z" stroke="white" stroke-miterlimit="10"/>
<path d="M169.3 33.6034C169.3 33.6034 153.9 15.8034 149.8 22.2034C145.7 28.6034 169.3 33.6034 169.3 33.6034Z" stroke="white" stroke-miterlimit="10" stroke-linejoin="round"/>
<path d="M169.2 33.6034C169.2 33.6034 184.6 15.8034 188.7 22.2034C192.8 28.6034 169.2 33.6034 169.2 33.6034Z" stroke="white" stroke-miterlimit="10" stroke-linejoin="round"/>
<path d="M169.2 33.6034V0.303406" stroke="white" stroke-miterlimit="10" stroke-linejoin="round"/>
<path d="M109.2 25.0034H130.4V31.4034C130.4 36.4034 126.4 40.4034 121.4 40.4034H118.1C113.1 40.4034 109.1 36.4034 109.1 31.4034V25.0034H109.2Z" stroke="white" stroke-miterlimit="10"/>
<path d="M119.8 25.0034C119.8 25.0034 109.2 12.7034 106.3 17.2034C103.4 21.7034 119.8 25.0034 119.8 25.0034Z" stroke="white" stroke-miterlimit="10" stroke-linejoin="round"/>
<path d="M119.7 25.0034C119.7 25.0034 130.3 12.7034 133.2 17.2034C136 21.6034 119.7 25.0034 119.7 25.0034Z" stroke="white" stroke-miterlimit="10" stroke-linejoin="round"/>
<path d="M119.7 25.0034V0.303406" stroke="white" stroke-miterlimit="10" stroke-linejoin="round"/>
<path d="M79.9 67.8034C79.2 66.6034 78.2 64.7034 77.3 63.1034C77.2 62.9034 77.1 62.7034 77 62.5034C77 62.4034 76.9 62.3034 76.9 62.2034C76.8 62.0034 76.8 61.9034 76.7 61.8034C76.6 61.5034 76.4 61.3034 76.3 61.0034C76.2 60.8034 76.1 60.7034 76.1 60.6034C76 60.5034 76 60.4034 75.9 60.3034C75.8 60.2034 75.8 60.2034 75.8 60.2034V43.9034L66.4 53.3034L50.2 69.4034C50 69.7034 49.8 69.9034 49.5 70.1034C49 70.4034 48.4 70.6034 47.8 70.6034H46.4C46 70.6034 45.6 70.5034 45.3 70.4034C45.2 70.4034 45.2 70.3034 45.1 70.3034C45 70.3034 44.9 70.2034 44.9 70.2034C44.6 70.0034 44.4 69.8034 44.2 69.6034C44.1 69.5034 44.1 69.5034 44 69.4034C44 69.4034 44 69.4034 44 69.3034C44 69.2034 43.9 69.2034 43.9 69.1034C43.9 69.0034 43.8 68.9034 43.8 68.8034C43.8 68.8034 43.8 68.7034 43.7 68.7034C43.7 68.7034 43.7 68.7034 43.7 68.6034C43.7 68.6034 43.7 68.6034 43.7 68.5034C43.7 68.5034 43.7 68.5034 43.7 68.4034C43.7 68.3034 43.7 68.3034 43.6 68.2034V68.1034C43.6 68.0034 43.6 67.9034 43.6 67.9034C43.6 67.8034 43.6 67.7034 43.6 67.7034V64.4034C43.6 64.2034 43.6 64.0034 43.5 63.8034C43.4 63.4034 43.3 63.1034 43.1 62.8034C43.1 62.7034 43 62.7034 43 62.6034C42.9 62.5034 42.9 62.5034 42.8 62.4034C42.8 62.4034 42.7 62.3034 42.6 62.3034C42.5 62.2034 42.5 62.2034 42.4 62.1034C42.2 62.0034 42 61.9034 41.8 61.8034H41.7C41.6 61.8034 41.5 61.7034 41.4 61.7034C41.3 61.7034 41.2 61.7034 41 61.6034C40.9 61.6034 40.9 61.6034 40.8 61.6034C40.7 61.6034 40.7 61.6034 40.6 61.6034H39.2C37.6 61.6034 36.3 62.9034 36.3 64.5034V65.4034V66.2034V66.3034V66.4034L36.4 73.5034V77.4034C36.4 77.6034 36.4 77.8034 36.4 78.1034C36.4 78.2034 36.4 78.3034 36.4 78.4034V78.7034C36.4 78.9034 36.4 79.2034 36.3 79.4034C36.3 79.6034 36.2 79.8034 36.2 80.0034C36.2 80.2034 36.1 80.4034 36.1 80.6034C36 80.8034 36 81.0034 35.9 81.2034C35.9 81.4034 35.8 81.6034 35.7 81.8034C35.6 82.0034 35.6 82.2034 35.5 82.4034C35.5 82.5034 35.4 82.6034 35.4 82.6034C35.4 82.7034 35.3 82.8034 35.3 83.0034C35.2 83.2034 35.2 83.4034 35.1 83.5034C35.1 83.5034 35.1 83.5034 35.1 83.6034C35 83.8034 34.9 84.0034 34.8 84.1034C34.7 84.3034 34.6 84.4034 34.6 84.6034C34.5 84.8034 34.4 85.0034 34.2 85.1034C34.1 85.3034 34 85.4034 33.9 85.5034C33.8 85.7034 33.6 85.9034 33.4 86.1034C33.3 86.3034 33.1 86.5034 32.9 86.7034C32.7 86.9034 32.6 87.0034 32.4 87.2034L26.1 93.5034L30 98.2034L34.1 103.003L40.4 110.503L43.5 114.103C43.5 114.003 43.5 113.903 43.5 113.803V98.2034V98.3034L54.5 98.2034H59.3C60.4 98.1034 61.5 97.8034 62.5 97.5034C68.8 95.6034 73.7 90.4034 75.3 83.9034C74.2 83.8034 73.1 83.6034 72.2 83.2034C71 82.7034 69.9 82.0034 69 81.1034C67.9 80.0034 67.1 78.7034 66.6 77.1034C66.5 76.7034 66.7 76.3034 67 76.2034C67.4 76.1034 67.8 76.3034 67.9 76.7034C68.7 79.2034 70.5 81.1034 72.8 82.0034C73.7 82.3034 74.6 82.5034 75.6 82.6034C75.6 82.5034 75.6 82.4034 75.6 82.4034C75.6 82.1034 75.7 81.8034 75.7 81.5034C75.7 80.9034 75.8 80.3034 75.8 79.7034V73.4034H77.4C80.2 73.3034 81.3 70.3034 79.9 67.8034ZM71.5 63.8034C71.5 63.9034 71.5 63.9034 71.5 64.0034C71.5 64.1034 71.5 64.1034 71.4 64.2034C71.4 64.2034 71.4 64.3034 71.3 64.3034L71.2 64.4034C71.2 64.4034 71.1 64.4034 71.1 64.5034C71.1 64.5034 71 64.5034 71 64.6034C70.9 64.6034 70.9 64.6034 70.8 64.6034C70.6 64.6034 70.4 64.5034 70.3 64.4034C70.2 64.3034 70.1 64.2034 70.1 64.0034C70.1 64.0034 70.1 63.9034 70.1 63.8034V60.5034V60.4034V60.3034C70.1 60.3034 70.1 60.2034 70.2 60.2034C70.3 60.2034 70.3 60.1034 70.3 60.1034C70.4 60.0034 70.5 60.0034 70.5 59.9034C70.6 59.9034 70.7 59.8034 70.8 59.8034C70.9 59.8034 71 59.8034 71.1 59.9034C71.2 59.9034 71.2 60.0034 71.3 60.0034C71.3 60.0034 71.4 60.0034 71.4 60.1034C71.5 60.2034 71.5 60.2034 71.5 60.3034C71.5 60.4034 71.5 60.5034 71.5 60.6034V63.8034Z" fill="#FCD3C1"/>
</g>
<defs>
<clipPath id="clip0">
<rect width="240" height="240" fill="white" transform="translate(0 0.00341797)"/>
</clipPath>
</defs>
</svg>
