<svg width="339" height="324" viewBox="0 0 339 324" fill="none" xmlns="http://www.w3.org/2000/svg">
<path d="M101.33 307.26C60.71 300.39 37.23 294.28 0 275.61L34.05 263.79L22.78 230.2C55.45 246.6 74.1 251.13 109.75 257.17L101.33 307.26Z" fill="#FCD3C2"/>
<path d="M237.39 307.26C278.01 300.39 301.5 294.28 338.73 275.61L304.67 263.79L315.94 230.2C283.26 246.6 264.62 251.13 228.96 257.17L237.39 307.26Z" fill="#FCD3C2"/>
<path d="M107.93 267.98L109.76 257.16L61.7202 257C61.0902 262.26 75.8901 261.38 85.7701 263.49C91.5501 264.74 107.93 267.98 107.93 267.98Z" fill="white"/>
<path d="M230.78 267.98L228.95 257.16C228.95 257.16 277.14 255.93 277.08 257C276.79 262.83 262.81 261.38 252.96 263.49C247.16 264.74 230.78 267.98 230.78 267.98Z" fill="white"/>
<path d="M292.03 305.56C212.12 330.15 126.69 330.15 46.79 305.56C51.76 289.38 56.74 273.19 61.71 257C131.88 278.59 206.92 278.59 277.08 257C282.07 273.18 287.06 289.38 292.03 305.56Z" fill="#FCD3C2"/>
<path d="M242.24 28.03C248.89 21.7 246.62 14.13 241.87 8.37C236.74 3.28 229.95 0 229.95 0C229.41 0.67 221.18 14.06 242.24 28.03Z" fill="#FCD3C2"/>
<path d="M258.41 19.36C258.4 19.36 245.81 31.03 263.31 49.43C279.84 40.82 259.26 18.3 258.41 19.36Z" fill="#FCD3C2"/>
<path d="M286.88 58.65C284.94 51.67 280.69 45.46 280.69 45.46C279.96 45.75 266.08 53.36 277.47 75.92C286.38 73.72 288.14 65.98 286.88 58.65Z" fill="#FCD3C2"/>
<path d="M285.11 105C303.7 105.64 297.2 75.89 295.76 76.42C295.76 76.3 279.13 80.28 285.11 105Z" fill="#FCD3C2"/>
<path d="M302.19 110.15C301.52 110 285.43 109.73 284.19 134.98C292.81 137.42 298.93 131.69 300.82 124.66C302.72 117.68 302.19 110.15 302.19 110.15Z" fill="#FCD3C2"/>
<path d="M290.44 144.93C285.91 147.07 280.61 151.71 276.11 163.84C284.1 168.5 290.44 164.14 294.79 158.08C299.34 152.06 299.38 144.32 299.68 144.4C299.69 144.4 295.25 143.01 290.44 144.93Z" fill="#FCD3C2"/>
<path d="M261.22 189.95C274.08 203.53 289.82 177.43 289 177.06C289 177.06 274.01 167.98 261.22 189.95Z" fill="#FCD3C2"/>
<path d="M239.53 210.65C243.91 218.44 252.44 218.81 258.54 214.91C264.81 211.27 269.68 205.54 269.68 205.54C269.37 205.03 257.94 193.35 239.53 210.65Z" fill="#FCD3C2"/>
<path d="M236.92 222.18C232.24 220.46 225.11 219.97 213.43 225.52C215.91 234.48 223.44 235.72 230.84 234.48C238.3 233.5 243.77 227.94 243.93 228.28C243.93 228.27 241.76 224.16 236.92 222.18Z" fill="#FCD3C2"/>
<path d="M184.57 233.63C184.62 242.98 191.45 245.78 198.89 246.08C206.23 246.25 213.52 244.39 213.36 244.03C213.36 244.03 209.05 226.73 184.57 233.63Z" fill="#FCD3C2"/>
<path d="M211.23 221.37C237.61 211.83 268.44 184.22 278.06 147.04C287.73 110.11 276.23 70.36 257.26 49.18C248.52 37.92 238.76 31.13 232.31 26.04C230 24.8 228.17 23.75 226.52 22.87C222.15 14.76 214.69 10.68 208.35 10.68C201.29 10.19 196.43 12.14 196.43 12.14C196.43 12.14 199.73 16.84 204.96 20.35C210 23.18 215.95 26.2 225.02 25.71C226.59 26.52 228.36 27.52 230.52 28.7C232.88 30.55 235.74 32.74 238.77 35.25C221.07 21.6 214.04 39.5 214.34 38.84C214.34 38.84 218.49 41.54 223.76 42.16C228.63 43.48 234.92 43.48 239.88 36.11C244.66 40.13 249.87 44.87 254.81 51.27C255.37 51.88 255.85 52.7 256.44 53.36C242.96 38.55 233.09 52.1 233.09 52.1C233.77 51.54 244.82 67.2 258.49 56.02C262.96 61.94 266.88 68.95 269.99 76.7C261.29 59 247.41 70.07 247.94 69.67C247.94 69.67 250.21 74.07 254.5 77.29C258.04 80.68 263.43 83.85 271.37 79.98C273.4 85.52 274.91 91.38 276.09 97.45C270.34 84.8 258.1 90.36 258.1 90.36C259.19 90.14 260.78 108.64 277.58 106.41C278.27 112.56 278.34 118.88 277.98 125.26C276.37 110.6 261.86 112.96 262.35 112.96C262.35 112.96 262.04 117.89 264.06 122.78C266.02 127.59 268.49 132.79 277.38 133.53C276.83 137.77 276.04 141.98 274.95 146.21C274.42 148.15 273.64 149.95 273.04 151.83C274.02 145.81 271.84 141.77 268.87 139.49C265.08 136.33 260.59 135.9 260.59 135.9C261.65 136.36 253.97 153.87 270.25 159.77C267.67 165.84 264.44 171.47 260.86 176.77C267.11 162.58 253.51 157.8 253.57 157.8C253.97 158.17 242.38 172.97 256.46 183.15C253.19 187.41 249.59 191.26 245.93 194.85C251.2 184.73 241.36 177.66 241.75 177.96C241.75 177.96 238.02 181.21 236.01 186.16C234.27 190.95 232.46 196.05 237.47 202.45C232.1 206.75 226.49 210.52 220.95 213.48C226.22 209.84 227.57 205.32 227.01 201.5C226.58 196.55 223.67 193.14 223.67 193.14C224.16 194.15 206.38 201.23 213.71 216.82C212.52 217.28 211.27 217.99 210.07 218.46C204.84 221.38 199.31 221.89 194.45 223.09C208.77 217.19 202.54 204.57 202.54 204.62C202.54 204.62 183.86 207.54 186.78 224.66C183.56 225.21 180.51 225.47 177.85 225.42C169.84 225.64 165.28 225.73 165.28 225.73V225.52C164.11 225.47 163.01 225.47 161.6 225.42C158.95 225.47 155.9 225.21 152.66 224.66C155.57 207.53 136.91 204.62 136.91 204.62C136.91 204.56 130.67 217.19 145.02 223.09C140.18 221.89 134.64 221.39 129.39 218.46C128.16 218 126.93 217.29 125.75 216.82C133.08 201.23 115.32 194.15 115.8 193.14C115.8 193.14 112.91 196.55 112.41 201.5C111.91 205.32 113.25 209.85 118.51 213.48C112.98 210.52 107.35 206.76 101.96 202.45C107.01 196.05 105.2 190.95 103.46 186.16C101.45 181.21 97.7199 177.96 97.7199 177.96C98.0999 177.66 88.2699 184.73 93.5399 194.85C89.8399 191.26 86.2799 187.41 83.0099 183.15C97.0999 172.97 85.4799 158.17 85.8799 157.8C85.9199 157.8 72.3599 162.58 78.6299 176.77C75.0599 171.47 71.7899 165.84 69.1799 159.77C85.4699 153.88 77.8199 136.36 78.8799 135.9C78.8799 135.9 74.4099 136.33 70.5899 139.49C67.6399 141.77 65.4499 145.81 66.4599 151.83C65.8399 149.95 65.0199 148.15 64.5199 146.21C63.3999 141.99 62.6499 137.77 62.0699 133.53C70.9799 132.79 73.44 127.6 75.42 122.78C77.43 117.89 77.0899 112.96 77.0899 112.96C77.6599 112.96 63.0999 110.6 61.5099 125.26C61.1299 118.87 61.2099 112.55 61.9099 106.41C78.6899 108.65 80.2599 90.14 81.3599 90.36C81.3599 90.36 69.1099 84.8 63.3599 97.45C64.5299 91.39 66.0899 85.52 68.1099 79.98C76.0299 83.85 81.4199 80.68 85.0099 77.29C89.2499 74.06 91.5099 69.67 91.5099 69.67C92.0899 70.06 78.1999 58.99 69.4699 76.7C72.6199 68.95 76.5199 61.94 81.0099 56.02C94.6499 67.2 105.7 51.54 106.4 52.1C106.4 52.1 96.5399 38.55 83.0299 53.36C83.6199 52.7 84.11 51.89 84.67 51.27C89.61 44.87 94.8099 40.13 99.5899 36.11C104.58 43.48 110.86 43.48 115.71 42.16C120.97 41.54 125.1 38.84 125.1 38.84C125.44 39.51 118.39 21.6 100.69 35.25C103.75 32.75 106.6 30.55 108.94 28.7C111.1 27.51 112.92 26.52 114.45 25.71C123.53 26.2 129.45 23.18 134.49 20.35C139.77 16.84 143.06 12.14 143.06 12.14C143.06 12.14 138.16 10.19 131.15 10.68C124.78 10.68 117.3 14.77 112.96 22.87C111.28 23.75 109.45 24.79 107.16 26.04C100.68 31.13 90.9399 37.92 82.1899 49.18C63.2299 70.35 51.72 110.11 61.42 147.04C71 184.22 101.84 211.83 128.22 221.37C134.49 224.9 141.25 224.97 146.73 226.68C152.27 228.34 157.27 228.74 161.4 228.65C162.33 228.67 163.15 228.67 163.94 228.67C164.28 228.83 164.67 228.94 165.12 228.94C165.12 228.94 169.83 228.81 178.06 228.65C182.22 228.74 187.22 228.34 192.74 226.68C198.21 224.97 205.01 224.91 211.23 221.37ZM220.18 213.95C219.74 214.14 219.29 214.37 218.8 214.59C219.23 214.36 219.79 214.14 220.18 213.95Z" fill="#FCD3C2"/>
<path d="M109.48 0C109.48 0 102.66 3.28 97.5602 8.37C92.8002 14.13 90.5302 21.69 97.1702 28.03C118.22 14.06 109.99 0.67 109.48 0Z" fill="#FCD3C2"/>
<path d="M76.1099 49.44C93.6299 31.03 81.02 19.37 81 19.37C80.16 18.3 59.5499 40.82 76.1099 49.44Z" fill="#FCD3C2"/>
<path d="M61.94 75.92C73.32 53.36 59.47 45.76 58.76 45.46C58.76 45.46 54.4899 51.66 52.5499 58.65C51.2599 65.98 53.04 73.72 61.94 75.92Z" fill="#FCD3C2"/>
<path d="M54.3201 105C60.2901 80.28 43.6601 76.3 43.6601 76.42C42.2201 75.89 35.7301 105.64 54.3201 105Z" fill="#FCD3C2"/>
<path d="M55.26 134.98C54.02 109.73 37.8599 110.01 37.2199 110.15C37.2199 110.15 36.6699 117.67 38.5799 124.65C40.4999 131.69 46.58 137.42 55.26 134.98Z" fill="#FCD3C2"/>
<path d="M63.3098 163.84C58.8198 151.71 53.5198 147.07 48.9998 144.93C44.1598 143.02 39.7598 144.4 39.7598 144.4C40.0598 144.32 40.0598 152.05 44.6298 158.08C48.9998 164.13 55.3198 168.5 63.3098 163.84Z" fill="#FCD3C2"/>
<path d="M50.44 177.06C49.62 177.42 65.35 203.52 78.22 189.95C65.41 167.98 50.44 177.06 50.44 177.06Z" fill="#FCD3C2"/>
<path d="M99.8997 210.65C81.4797 193.35 70.0197 205.02 69.7197 205.55C69.7197 205.55 74.5997 211.28 80.8597 214.92C86.9397 218.82 95.5197 218.45 99.8997 210.65Z" fill="#FCD3C2"/>
<path d="M102.49 222.18C97.6397 224.16 95.4897 228.27 95.4897 228.27C95.6197 227.94 101.11 233.5 108.58 234.47C115.97 235.71 123.55 234.47 125.95 225.51C114.28 219.97 107.14 220.46 102.49 222.18Z" fill="#FCD3C2"/>
<path d="M126.05 244.04C125.89 244.4 133.18 246.26 140.55 246.09C147.95 245.79 154.81 242.99 154.86 233.64C130.37 226.73 126.05 244.04 126.05 244.04Z" fill="#FCD3C2"/>
<path d="M100.22 303.59C100.05 303.88 99.8598 304.14 99.6398 304.37C99.2098 304.82 98.6598 305.13 98.0098 305.28C97.3598 305.43 96.5798 305.41 95.6698 305.22C94.3898 304.94 93.4598 304.39 92.8698 303.55C92.2898 302.72 92.1398 301.61 92.4398 300.23L92.5398 299.75C92.6398 299.3 92.7698 298.9 92.9398 298.55C93.1098 298.19 93.3198 297.88 93.5598 297.6C94.0398 297.06 94.6298 296.69 95.3398 296.51C96.0498 296.32 96.8298 296.32 97.6798 296.51C98.8098 296.76 99.6698 297.23 100.26 297.93C100.85 298.63 101.1 299.55 101.02 300.69L99.1998 300.3C99.2398 299.73 99.1198 299.25 98.8198 298.86C98.5298 298.47 98.0298 298.2 97.3398 298.05C96.5498 297.88 95.8898 297.97 95.3698 298.32C94.8398 298.67 94.4798 299.3 94.2798 300.21L94.1998 300.56C94.0198 301.4 94.0898 302.09 94.4198 302.61C94.7498 303.13 95.3098 303.48 96.0998 303.65C96.8398 303.81 97.4298 303.76 97.8498 303.51C98.2698 303.26 98.5898 302.83 98.7998 302.24L100.64 302.64C100.54 302.98 100.39 303.3 100.22 303.59Z" fill="#F37972"/>
<path d="M102.1 305.51C101.48 304.71 101.3 303.59 101.56 302.17L101.64 301.72C101.72 301.27 101.84 300.86 102 300.5C102.16 300.14 102.36 299.81 102.59 299.53C103.06 298.97 103.63 298.59 104.32 298.38C105.01 298.17 105.77 298.14 106.59 298.29C107 298.36 107.38 298.47 107.73 298.62C108.08 298.77 108.4 298.95 108.68 299.17C109.25 299.6 109.66 300.16 109.9 300.85C110.14 301.54 110.18 302.34 110.02 303.26L109.94 303.71C109.86 304.17 109.73 304.59 109.58 304.96C109.43 305.33 109.23 305.65 108.99 305.93C108.53 306.48 107.96 306.85 107.27 307.04C106.58 307.23 105.82 307.24 104.97 307.09C103.68 306.84 102.72 306.32 102.1 305.51ZM107.19 305.2C107.68 304.85 108.01 304.23 108.18 303.34L108.24 302.99C108.41 302.06 108.33 301.34 107.99 300.82C107.65 300.3 107.09 299.97 106.32 299.83C105.53 299.69 104.89 299.8 104.4 300.18C103.91 300.56 103.58 301.2 103.42 302.09L103.35 302.46C103.19 303.33 103.28 304.01 103.61 304.53C103.94 305.04 104.5 305.37 105.28 305.51C106.06 305.65 106.7 305.55 107.19 305.2Z" fill="#F37972"/>
<path d="M112.23 308.11L110.57 307.86L111.85 299.4L113.55 299.66L116.91 306.03L117.02 306.36L117.03 306.11L117.9 300.32L119.55 300.57L118.27 309.03L116.65 308.78L113.24 302.34L113.13 302.02V302.2L112.23 308.11Z" fill="#F37972"/>
<path d="M126.73 307.9C126.52 308.58 126.15 309.11 125.59 309.48C125.04 309.85 124.3 309.98 123.39 309.87C122.22 309.73 121.33 309.28 120.72 308.54C120.12 307.79 119.9 306.71 120.08 305.29L120.14 304.78C120.2 304.32 120.29 303.9 120.43 303.52C120.56 303.14 120.74 302.81 120.96 302.52C121.39 301.93 121.95 301.51 122.63 301.27C123.31 301.03 124.08 300.96 124.93 301.06C126.11 301.2 127.02 301.58 127.66 302.2C128.29 302.81 128.6 303.64 128.58 304.69L126.69 304.46C126.69 303.99 126.55 303.59 126.26 303.26C125.97 302.93 125.47 302.72 124.77 302.63C123.95 302.53 123.3 302.67 122.82 303.06C122.34 303.45 122.04 304.11 121.93 305.05L121.88 305.48C121.76 306.38 121.88 307.06 122.23 307.54C122.58 308.02 123.17 308.31 123.99 308.41C124.77 308.5 125.37 308.41 125.78 308.14C126.2 307.86 126.46 307.48 126.57 306.98L123.99 306.66L124.17 305.2L128.52 305.73L127.97 310.23L126.6 310.06L126.73 307.9Z" fill="#F37972"/>
<path d="M131.5 307.6L131.22 310.55L129.49 310.38L130.31 301.86L134.1 302.22C135.39 302.34 136.3 302.66 136.82 303.16C137.35 303.66 137.57 304.34 137.49 305.18C137.43 305.78 137.25 306.24 136.95 306.56C136.65 306.88 136.22 307.09 135.67 307.2C136.16 307.38 136.51 307.66 136.71 308.03C136.92 308.4 136.99 308.91 136.92 309.58L136.82 310.58C136.81 310.68 136.82 310.77 136.84 310.87C136.86 310.96 136.91 311.04 136.98 311.09L135.14 310.91C135.07 310.86 135.03 310.79 135.01 310.69C134.99 310.59 134.99 310.48 135 310.38L135.09 309.42C135.14 308.86 135.05 308.46 134.81 308.22C134.57 307.98 134.12 307.83 133.46 307.76L131.5 307.6ZM131.89 303.52L131.64 306.11L133.62 306.3C134.21 306.36 134.69 306.31 135.05 306.15C135.42 305.99 135.62 305.68 135.67 305.21L135.68 305.14C135.72 304.69 135.6 304.36 135.32 304.14C135.04 303.92 134.57 303.78 133.92 303.72L131.89 303.52Z" fill="#F37972"/>
<path d="M145.32 311.73L138.32 311.22L138.94 302.69L145.71 303.19L145.6 304.67L140.51 304.3L140.36 306.31L144.67 306.63L144.56 308.11L140.25 307.79L140.1 309.8L145.41 310.19L145.32 311.73Z" fill="#F37972"/>
<path d="M148.75 312.03C148.36 311.95 148.02 311.84 147.73 311.71C147.14 311.44 146.71 311.06 146.44 310.57C146.17 310.08 146.02 309.49 145.98 308.78L147.86 308.88C147.89 309.47 148.1 309.91 148.48 310.19C148.86 310.47 149.42 310.63 150.16 310.67C150.82 310.7 151.31 310.62 151.63 310.42C151.95 310.22 152.11 309.95 152.13 309.6C152.14 309.46 152.12 309.33 152.08 309.21C152.04 309.09 151.97 309 151.88 308.92C151.69 308.77 151.4 308.64 151.02 308.55C150.64 308.46 150.16 308.37 149.59 308.27C149.28 308.21 148.99 308.15 148.72 308.08C148.45 308.01 148.19 307.93 147.96 307.84C147.48 307.66 147.11 307.39 146.85 307.04C146.59 306.69 146.47 306.21 146.5 305.6C146.51 305.36 146.56 305.13 146.63 304.92C146.7 304.71 146.81 304.51 146.95 304.32C147.23 303.94 147.63 303.65 148.16 303.46C148.69 303.26 149.35 303.18 150.14 303.23C151.4 303.3 152.34 303.59 152.96 304.1C153.58 304.61 153.91 305.34 153.96 306.29L152.13 306.19C152.09 305.68 151.89 305.31 151.56 305.08C151.22 304.85 150.72 304.72 150.04 304.69C149.41 304.66 148.96 304.73 148.7 304.92C148.44 305.11 148.3 305.35 148.28 305.66C148.26 306.04 148.44 306.3 148.8 306.46C149.16 306.62 149.76 306.76 150.57 306.89C150.91 306.95 151.23 307.01 151.53 307.09C151.83 307.17 152.11 307.25 152.37 307.34C152.88 307.53 153.27 307.81 153.54 308.16C153.81 308.51 153.93 308.99 153.9 309.61C153.89 309.87 153.84 310.12 153.77 310.36C153.69 310.6 153.58 310.82 153.44 311.02C153.15 311.42 152.72 311.73 152.16 311.93C151.6 312.13 150.91 312.22 150.08 312.18C149.57 312.16 149.14 312.11 148.75 312.03Z" fill="#F37972"/>
<path d="M157.47 312.41C157.08 312.34 156.74 312.24 156.45 312.11C155.86 311.85 155.42 311.48 155.14 311C154.86 310.52 154.69 309.93 154.64 309.22L156.52 309.28C156.57 309.87 156.78 310.31 157.16 310.58C157.54 310.85 158.11 311 158.85 311.02C159.51 311.04 160 310.95 160.31 310.74C160.62 310.53 160.78 310.26 160.79 309.91C160.79 309.77 160.77 309.64 160.73 309.52C160.69 309.41 160.62 309.31 160.52 309.24C160.32 309.09 160.03 308.97 159.65 308.89C159.26 308.81 158.78 308.72 158.21 308.64C157.9 308.59 157.61 308.53 157.33 308.47C157.05 308.41 156.8 308.33 156.56 308.24C156.08 308.07 155.7 307.81 155.43 307.46C155.16 307.12 155.03 306.64 155.05 306.03C155.06 305.79 155.1 305.56 155.17 305.35C155.24 305.14 155.34 304.93 155.48 304.75C155.75 304.37 156.14 304.07 156.67 303.86C157.2 303.65 157.86 303.56 158.65 303.58C159.91 303.62 160.86 303.89 161.49 304.39C162.12 304.89 162.47 305.61 162.54 306.56L160.7 306.51C160.64 306 160.45 305.63 160.1 305.41C159.75 305.19 159.25 305.07 158.57 305.05C157.94 305.03 157.49 305.12 157.24 305.31C156.99 305.5 156.85 305.75 156.84 306.05C156.83 306.43 157.01 306.69 157.38 306.84C157.75 306.99 158.34 307.12 159.16 307.24C159.5 307.29 159.83 307.35 160.13 307.42C160.43 307.49 160.71 307.57 160.97 307.66C161.48 307.84 161.88 308.11 162.16 308.45C162.44 308.79 162.57 309.27 162.55 309.89C162.54 310.15 162.5 310.4 162.43 310.64C162.36 310.88 162.25 311.1 162.11 311.3C161.83 311.71 161.41 312.02 160.85 312.24C160.3 312.46 159.6 312.56 158.77 312.53C158.29 312.52 157.86 312.48 157.47 312.41Z" fill="#F37972"/>
<path d="M172.78 310.62H168.86L168.11 312.52H166.27L169.88 303.97H171.7L175.37 312.53H173.56L172.78 310.62ZM170.8 305.76L169.44 309.17H172.19L170.8 305.76Z" fill="#F37972"/>
<path d="M177.93 312.47L176.25 312.5L176.08 303.95L177.79 303.92L182.17 309.63L182.33 309.94L182.3 309.69L182.19 303.83L183.86 303.8L184.03 312.35L182.39 312.38L177.94 306.61L177.78 306.31L177.81 306.49L177.93 312.47Z" fill="#F37972"/>
<path d="M185.43 303.75L188.82 303.61C189.26 303.59 189.67 303.61 190.07 303.67C190.47 303.73 190.82 303.82 191.16 303.95C191.83 304.21 192.35 304.63 192.74 305.22C193.13 305.81 193.34 306.57 193.38 307.5L193.4 307.96C193.42 308.42 193.39 308.85 193.32 309.23C193.25 309.61 193.13 309.96 192.96 310.26C192.63 310.87 192.15 311.33 191.52 311.64C190.89 311.95 190.13 312.13 189.25 312.16L185.77 312.3L185.43 303.75ZM187.22 305.19L187.44 310.71L189.1 310.64C189.97 310.61 190.62 310.37 191.04 309.94C191.46 309.51 191.66 308.84 191.62 307.93L191.61 307.64C191.57 306.73 191.32 306.07 190.85 305.67C190.38 305.27 189.7 305.09 188.81 305.12L187.22 305.19Z" fill="#F37972"/>
<path d="M203.87 309.44L199.95 309.71L199.34 311.65L197.51 311.78L200.51 302.99L202.33 302.86L206.59 311.14L204.78 311.27L203.87 309.44ZM201.55 304.73L200.43 308.22L203.17 308.03L201.55 304.73Z" fill="#F37972"/>
<path d="M211.59 304.66L209.81 310.86L208.13 311.02L204.96 302.73L206.73 302.56L208.93 308.48L210.7 302.17L212.06 302.04L214.84 307.99L216.16 301.64L217.92 301.47L215.98 310.25L214.32 310.41L211.59 304.66Z" fill="#F37972"/>
<path d="M223.82 307.42L219.93 307.9L219.43 309.87L217.61 310.1L220.13 301.17L221.94 300.95L226.64 308.99L224.84 309.21L223.82 307.42ZM221.24 302.84L220.32 306.39L223.05 306.05L221.24 302.84Z" fill="#F37972"/>
<path d="M228.72 305.66L229.17 308.59L227.45 308.85L226.16 300.39L229.92 299.82C231.2 299.62 232.16 299.71 232.79 300.07C233.42 300.43 233.8 301.03 233.93 301.87C234.02 302.46 233.96 302.95 233.74 303.34C233.52 303.72 233.16 304.04 232.66 304.28C233.18 304.34 233.58 304.52 233.87 304.83C234.16 305.14 234.35 305.62 234.45 306.28L234.6 307.28C234.61 307.37 234.64 307.47 234.68 307.55C234.72 307.64 234.79 307.7 234.87 307.73L233.04 308.01C232.96 307.98 232.9 307.92 232.86 307.83C232.82 307.74 232.79 307.64 232.77 307.53L232.63 306.58C232.55 306.03 232.36 305.66 232.06 305.49C231.76 305.32 231.29 305.28 230.64 305.38L228.72 305.66ZM228.1 301.6L228.49 304.17L230.46 303.87C231.05 303.78 231.5 303.62 231.81 303.37C232.13 303.13 232.25 302.77 232.18 302.31L232.17 302.24C232.1 301.8 231.91 301.5 231.58 301.36C231.25 301.22 230.77 301.19 230.12 301.29L228.1 301.6Z" fill="#F37972"/>
<path d="M234.65 299.08L237.99 298.46C238.42 298.38 238.84 298.34 239.23 298.34C239.62 298.34 240 298.38 240.34 298.46C241.04 298.62 241.62 298.97 242.09 299.49C242.56 300.01 242.88 300.74 243.05 301.66L243.13 302.11C243.21 302.57 243.25 302.99 243.23 303.38C243.21 303.77 243.14 304.13 243.02 304.45C242.78 305.1 242.37 305.62 241.79 306.02C241.21 306.42 240.49 306.7 239.62 306.86L236.2 307.49L234.65 299.08ZM236.63 300.25L237.63 305.68L239.26 305.38C240.12 305.22 240.73 304.9 241.08 304.42C241.44 303.93 241.53 303.24 241.37 302.35L241.32 302.07C241.15 301.17 240.81 300.56 240.28 300.23C239.76 299.9 239.06 299.82 238.18 299.98L236.63 300.25Z" fill="#F37972"/>
<path d="M247.53 305.4C247.13 305.43 246.78 305.41 246.46 305.36C245.82 305.26 245.31 305 244.92 304.61C244.53 304.21 244.22 303.68 244 303.01L245.84 302.6C246.03 303.16 246.34 303.53 246.78 303.7C247.22 303.87 247.8 303.87 248.53 303.71C249.18 303.57 249.63 303.36 249.88 303.08C250.13 302.8 250.22 302.5 250.14 302.16C250.11 302.02 250.06 301.9 249.99 301.8C249.92 301.7 249.83 301.63 249.72 301.58C249.49 301.48 249.18 301.44 248.79 301.45C248.4 301.46 247.91 301.5 247.33 301.56C247.02 301.59 246.72 301.6 246.44 301.61C246.16 301.61 245.89 301.6 245.64 301.58C245.13 301.53 244.7 301.37 244.35 301.1C244 300.83 243.77 300.4 243.63 299.81C243.58 299.58 243.56 299.35 243.58 299.12C243.6 298.9 243.65 298.68 243.73 298.46C243.9 298.02 244.21 297.64 244.67 297.31C245.13 296.98 245.75 296.73 246.52 296.56C247.75 296.29 248.74 296.32 249.47 296.65C250.2 296.98 250.72 297.6 251.01 298.5L249.22 298.9C249.04 298.42 248.76 298.11 248.37 297.98C247.98 297.85 247.46 297.86 246.8 298.01C246.18 298.15 245.77 298.34 245.57 298.59C245.37 298.84 245.3 299.11 245.36 299.41C245.44 299.78 245.68 299.99 246.08 300.04C246.48 300.1 247.08 300.08 247.9 299.99C248.24 299.96 248.57 299.93 248.88 299.93C249.19 299.92 249.48 299.93 249.76 299.95C250.3 300 250.75 300.16 251.11 300.43C251.46 300.7 251.71 301.13 251.84 301.73C251.9 301.99 251.92 302.24 251.91 302.49C251.9 302.74 251.85 302.98 251.76 303.21C251.58 303.67 251.25 304.08 250.77 304.43C250.29 304.78 249.64 305.04 248.83 305.22C248.35 305.31 247.92 305.38 247.53 305.4Z" fill="#F37972"/>
<path d="M85.2898 280.33L81.4498 285.51L79.8198 285.07L79.7598 276.19L81.4698 276.65L81.4498 282.97L85.3198 277.68L86.6398 278.04L87.1497 284.59L90.6097 279.11L92.3098 279.57L87.4098 287.11L85.7997 286.68L85.2898 280.33Z" fill="#F37972"/>
<path d="M91.65 287.29C91.06 286.46 90.92 285.34 91.23 283.93L91.33 283.48C91.43 283.03 91.57 282.63 91.74 282.27C91.91 281.91 92.12 281.59 92.36 281.32C92.85 280.78 93.44 280.42 94.14 280.23C94.84 280.04 95.6 280.04 96.42 280.22C96.83 280.31 97.2 280.43 97.55 280.59C97.9 280.75 98.21 280.94 98.48 281.18C99.04 281.63 99.42 282.21 99.64 282.91C99.86 283.61 99.87 284.41 99.67 285.32L99.57 285.77C99.47 286.23 99.33 286.64 99.16 287.01C98.99 287.37 98.78 287.69 98.53 287.95C98.05 288.48 97.46 288.83 96.77 288.99C96.07 289.15 95.31 289.14 94.47 288.95C93.18 288.67 92.24 288.11 91.65 287.29ZM96.75 287.17C97.26 286.84 97.61 286.24 97.81 285.35L97.89 285C98.09 284.08 98.04 283.35 97.72 282.82C97.4 282.29 96.86 281.94 96.08 281.77C95.3 281.6 94.66 281.69 94.15 282.05C93.64 282.41 93.29 283.03 93.1 283.92L93.02 284.28C92.83 285.14 92.89 285.83 93.2 286.35C93.51 286.87 94.06 287.22 94.84 287.39C95.6 287.57 96.24 287.49 96.75 287.17Z" fill="#F37972"/>
<path d="M102.27 287.35L101.72 290.26L100.01 289.94L101.59 281.53L105.33 282.23C106.6 282.47 107.48 282.86 107.96 283.41C108.44 283.96 108.6 284.65 108.44 285.49C108.33 286.08 108.11 286.52 107.78 286.81C107.45 287.1 107 287.28 106.45 287.34C106.92 287.57 107.24 287.87 107.41 288.26C107.58 288.65 107.61 289.17 107.48 289.82L107.29 290.81C107.27 290.9 107.27 291 107.28 291.09C107.29 291.19 107.33 291.26 107.4 291.33L105.58 290.99C105.52 290.94 105.48 290.86 105.47 290.76C105.46 290.66 105.47 290.55 105.48 290.45L105.66 289.51C105.76 288.96 105.7 288.55 105.49 288.29C105.27 288.03 104.83 287.84 104.18 287.72L102.27 287.35ZM103.03 283.31L102.55 285.87L104.51 286.24C105.09 286.35 105.57 286.34 105.95 286.22C106.33 286.1 106.56 285.8 106.65 285.34L106.66 285.27C106.74 284.83 106.65 284.49 106.39 284.24C106.13 284 105.68 283.81 105.03 283.69L103.03 283.31Z" fill="#F37972"/>
<path d="M108.73 291.54L110.08 283.09L111.83 283.37L110.74 290.2L115.42 290.95L115.16 292.57L108.73 291.54Z" fill="#F37972"/>
<path d="M117.47 284.26L120.84 284.71C121.28 284.77 121.68 284.86 122.06 284.98C122.44 285.1 122.77 285.26 123.08 285.44C123.69 285.81 124.14 286.32 124.42 286.96C124.7 287.6 124.78 288.39 124.66 289.32L124.6 289.77C124.54 290.23 124.44 290.64 124.3 291.01C124.16 291.38 123.99 291.69 123.77 291.96C123.34 292.5 122.79 292.87 122.11 293.07C121.43 293.27 120.66 293.31 119.79 293.19L116.34 292.73L117.47 284.26ZM119 285.99L118.27 291.46L119.91 291.68C120.77 291.8 121.45 291.68 121.94 291.33C122.43 290.98 122.74 290.35 122.86 289.45L122.9 289.16C123.02 288.26 122.88 287.57 122.49 287.09C122.09 286.61 121.46 286.32 120.58 286.2L119 285.99Z" fill="#F37972"/>
<path d="M135.07 291.47L130.9 291.06L130.57 294.49L128.83 294.32L129.66 285.8L131.4 285.97L131.07 289.4L135.24 289.81L135.57 286.38L137.29 286.55L136.46 295.07L134.74 294.9L135.07 291.47Z" fill="#F37972"/>
<path d="M145.14 295.71L138.14 295.19L138.77 286.66L145.54 287.16L145.43 288.64L140.34 288.26L140.19 290.27L144.5 290.59L144.39 292.07L140.08 291.75L139.93 293.76L145.24 294.15L145.14 295.71Z" fill="#F37972"/>
<path d="M152.34 294.2L148.42 294L147.58 295.86L145.75 295.77L149.78 287.41L151.6 287.5L154.83 296.23L153.02 296.14L152.34 294.2ZM150.6 289.24L149.07 292.57L151.81 292.71L150.6 289.24Z" fill="#F37972"/>
<path d="M155.67 296.24L155.93 287.69L157.71 287.74L157.5 294.65L162.24 294.79L162.19 296.43L155.67 296.24Z" fill="#F37972"/>
<path d="M165.96 289.45L165.86 296.48L164.08 296.45L164.18 289.42L161.54 289.38L161.56 287.86L168.73 287.96L168.71 289.48L165.96 289.45Z" fill="#F37972"/>
<path d="M175.71 293.05L171.52 293.07L171.54 296.51L169.79 296.52L169.74 287.96L171.49 287.95L171.51 291.39L175.7 291.37L175.68 287.93L177.41 287.92L177.46 296.48L175.73 296.49L175.71 293.05Z" fill="#F37972"/>
<path d="M189.28 296.14C188.85 296.04 188.42 295.85 187.99 295.6C187.53 295.87 187.05 296.09 186.57 296.24C186.08 296.4 185.6 296.48 185.11 296.5C184.8 296.51 184.5 296.5 184.23 296.46C183.96 296.42 183.69 296.37 183.45 296.3C182.97 296.14 182.6 295.89 182.32 295.56C182.04 295.23 181.9 294.79 181.88 294.27C181.85 293.53 182.08 292.94 182.55 292.51C183.02 292.08 183.67 291.73 184.51 291.47C184.43 291.25 184.37 291.03 184.32 290.82C184.27 290.61 184.25 290.41 184.24 290.22C184.23 289.94 184.25 289.68 184.3 289.45C184.35 289.22 184.43 289 184.54 288.79C184.76 288.4 185.07 288.09 185.47 287.87C185.87 287.65 186.33 287.53 186.84 287.52C187.08 287.51 187.3 287.53 187.51 287.57C187.72 287.61 187.91 287.67 188.08 287.75C188.43 287.93 188.7 288.17 188.9 288.48C189.1 288.79 189.2 289.14 189.21 289.52C189.23 290.13 189.03 290.64 188.61 291.05C188.19 291.46 187.48 291.84 186.49 292.17C186.58 292.3 186.68 292.44 186.79 292.57C186.9 292.71 187.02 292.84 187.14 292.97C187.31 293.16 187.47 293.32 187.63 293.48C187.79 293.63 187.95 293.77 188.11 293.9C188.68 293.43 189.16 292.88 189.57 292.23C189.97 291.58 190.26 290.93 190.44 290.27L192.07 290.21C191.82 291.09 191.45 291.91 190.97 292.66C190.48 293.41 189.93 294.07 189.31 294.63C189.55 294.73 189.77 294.79 189.99 294.83C190.21 294.87 190.42 294.88 190.64 294.87C191.01 294.86 191.3 294.79 191.5 294.68C191.7 294.57 191.9 294.42 192.07 294.25L192.12 295.77C191.97 295.92 191.78 296.04 191.54 296.12C191.3 296.2 191.01 296.25 190.67 296.26C190.17 296.29 189.71 296.24 189.28 296.14ZM186.04 294.98C186.31 294.91 186.58 294.82 186.84 294.71C186.7 294.58 186.56 294.44 186.41 294.29C186.26 294.14 186.12 293.98 185.97 293.81C185.8 293.63 185.64 293.44 185.49 293.24C185.34 293.04 185.2 292.83 185.07 292.62C184.52 292.8 184.12 292.99 183.88 293.2C183.64 293.41 183.52 293.68 183.52 294.01C183.53 294.41 183.69 294.7 183.98 294.87C184.27 295.04 184.68 295.12 185.19 295.1C185.49 295.09 185.77 295.05 186.04 294.98ZM185.72 290.55C185.76 290.71 185.81 290.88 185.87 291.05C186.12 290.98 186.33 290.91 186.53 290.84C186.72 290.77 186.89 290.7 187.02 290.63C187.3 290.48 187.5 290.33 187.61 290.16C187.72 289.99 187.77 289.79 187.76 289.56C187.75 289.31 187.66 289.11 187.49 288.97C187.32 288.82 187.09 288.76 186.81 288.76C186.46 288.77 186.17 288.9 185.96 289.13C185.75 289.36 185.64 289.68 185.66 290.07C185.67 290.23 185.69 290.39 185.72 290.55Z" fill="#F37972"/>
<path d="M201.91 289.46L199.97 295.61L198.28 295.73L195.32 287.36L197.09 287.24L199.13 293.22L201.06 286.96L202.43 286.86L205.06 292.88L206.54 286.57L208.3 286.45L206.14 295.18L204.48 295.3L201.91 289.46Z" fill="#F37972"/>
<path d="M216.86 294.17L209.87 294.86L209.03 286.35L215.79 285.68L215.94 287.16L210.86 287.66L211.06 289.67L215.36 289.25L215.51 290.73L211.21 291.15L211.41 293.16L216.71 292.64L216.86 294.17Z" fill="#F37972"/>
<path d="M218.01 294.04L216.98 285.55L218.74 285.34L219.57 292.2L224.28 291.63L224.48 293.26L218.01 294.04Z" fill="#F37972"/>
<path d="M225.65 293.09L224.42 284.62L226.18 284.37L227.17 291.21L231.86 290.53L232.1 292.16L225.65 293.09Z" fill="#F37972"/>
<path d="M234.92 291.69L233.27 291.98L231.8 283.55L233.49 283.26L238.69 288.24L238.9 288.52L238.83 288.28L237.83 282.51L239.47 282.22L240.94 290.65L239.32 290.93L234.05 285.9L233.84 285.63L233.89 285.8L234.92 291.69Z" fill="#F37972"/>
<path d="M249.47 288.88L242.6 290.31L240.85 281.93L247.5 280.54L247.8 282L242.81 283.04L243.22 285.01L247.45 284.13L247.75 285.59L243.52 286.47L243.93 288.44L249.15 287.35L249.47 288.88Z" fill="#F37972"/>
<path d="M252.82 288.19C252.43 288.23 252.07 288.22 251.75 288.17C251.11 288.08 250.59 287.84 250.19 287.45C249.79 287.06 249.47 286.53 249.23 285.87L251.06 285.42C251.26 285.98 251.59 286.34 252.03 286.5C252.47 286.66 253.06 286.65 253.78 286.47C254.42 286.31 254.87 286.09 255.11 285.81C255.35 285.53 255.43 285.22 255.35 284.89C255.32 284.75 255.26 284.63 255.19 284.53C255.12 284.43 255.02 284.36 254.91 284.31C254.68 284.22 254.37 284.18 253.98 284.21C253.59 284.23 253.1 284.28 252.53 284.36C252.22 284.4 251.92 284.42 251.64 284.43C251.36 284.44 251.09 284.44 250.84 284.42C250.33 284.38 249.9 284.23 249.54 283.97C249.19 283.71 248.94 283.29 248.79 282.7C248.73 282.47 248.71 282.24 248.72 282.01C248.73 281.78 248.78 281.56 248.85 281.35C249.01 280.91 249.31 280.52 249.76 280.17C250.21 279.83 250.82 279.56 251.59 279.37C252.82 279.07 253.8 279.07 254.54 279.39C255.28 279.71 255.81 280.31 256.13 281.2L254.35 281.64C254.16 281.16 253.87 280.86 253.48 280.74C253.09 280.62 252.57 280.64 251.91 280.81C251.3 280.96 250.89 281.16 250.69 281.42C250.49 281.67 250.43 281.95 250.5 282.24C250.59 282.61 250.83 282.81 251.23 282.86C251.63 282.91 252.23 282.87 253.05 282.77C253.39 282.73 253.72 282.7 254.03 282.68C254.34 282.67 254.63 282.67 254.91 282.68C255.45 282.72 255.91 282.87 256.27 283.12C256.63 283.38 256.88 283.81 257.03 284.4C257.09 284.66 257.12 284.91 257.12 285.16C257.12 285.41 257.07 285.65 256.99 285.88C256.82 286.35 256.5 286.76 256.03 287.12C255.55 287.48 254.91 287.76 254.1 287.96C253.65 288.08 253.22 288.16 252.82 288.19Z" fill="#F37972"/>
<path d="M261.39 285.95C261 286 260.64 286.01 260.32 285.98C259.68 285.92 259.15 285.7 258.73 285.33C258.31 284.96 257.97 284.45 257.7 283.79L259.51 283.26C259.74 283.81 260.08 284.15 260.53 284.29C260.98 284.43 261.56 284.39 262.28 284.19C262.92 284 263.35 283.76 263.58 283.47C263.81 283.18 263.88 282.87 263.78 282.54C263.74 282.4 263.68 282.29 263.6 282.19C263.52 282.1 263.43 282.03 263.31 281.99C263.08 281.91 262.77 281.89 262.37 281.93C261.97 281.97 261.5 282.04 260.92 282.14C260.61 282.19 260.31 282.23 260.03 282.25C259.75 282.27 259.48 282.28 259.23 282.27C258.72 282.25 258.28 282.12 257.91 281.88C257.55 281.64 257.28 281.22 257.11 280.64C257.04 280.41 257.01 280.18 257.01 279.96C257.01 279.74 257.05 279.51 257.11 279.29C257.24 278.84 257.53 278.44 257.97 278.08C258.41 277.72 259 277.43 259.76 277.2C260.97 276.84 261.96 276.81 262.71 277.08C263.46 277.36 264.02 277.94 264.38 278.82L262.62 279.34C262.41 278.87 262.1 278.58 261.71 278.48C261.32 278.38 260.79 278.42 260.14 278.61C259.53 278.79 259.14 279.01 258.95 279.27C258.76 279.53 258.71 279.81 258.8 280.1C258.91 280.46 259.16 280.66 259.56 280.68C259.96 280.7 260.56 280.65 261.37 280.51C261.71 280.45 262.04 280.41 262.35 280.38C262.66 280.35 262.95 280.34 263.23 280.34C263.78 280.36 264.23 280.48 264.61 280.72C264.99 280.96 265.25 281.38 265.43 281.97C265.5 282.22 265.54 282.47 265.55 282.72C265.56 282.97 265.52 283.21 265.45 283.45C265.31 283.93 265 284.35 264.54 284.73C264.08 285.11 263.45 285.42 262.65 285.65C262.21 285.8 261.78 285.89 261.39 285.95Z" fill="#F37972"/>
<path d="M113.09 78.65V75.71H116.64V68.57H114.18V66.2C115.19 66.13 115.91 65.9 116.35 65.5C116.79 65.1 117.07 64.5 117.2 63.68H119.72V75.71H123.1V78.65H113.09Z" fill="white"/>
<path d="M125.86 77.19C124.56 75.98 123.91 74.13 123.91 71.64V70.86C123.91 70.05 123.99 69.3 124.14 68.62C124.29 67.94 124.52 67.32 124.81 66.76C125.41 65.65 126.26 64.81 127.36 64.23C128.46 63.65 129.74 63.36 131.21 63.36C131.94 63.36 132.62 63.43 133.25 63.57C133.88 63.71 134.47 63.93 135.03 64.22C136.14 64.78 137 65.62 137.62 66.73C138.24 67.84 138.55 69.21 138.55 70.83V71.63C138.55 72.46 138.47 73.21 138.32 73.89C138.17 74.57 137.94 75.18 137.63 75.73C137.01 76.82 136.16 77.64 135.06 78.19C133.96 78.74 132.68 79.01 131.23 79.01C128.95 79.01 127.16 78.4 125.86 77.19ZM134.29 75.1C135.01 74.36 135.37 73.18 135.37 71.55V70.94C135.37 69.32 135.01 68.11 134.3 67.32C133.59 66.53 132.57 66.13 131.24 66.13C129.87 66.13 128.84 66.53 128.14 67.33C127.45 68.13 127.1 69.33 127.1 70.94V71.57C127.1 73.11 127.44 74.27 128.13 75.04C128.82 75.81 129.84 76.21 131.22 76.21C132.54 76.22 133.56 75.84 134.29 75.1Z" fill="white"/>
<path d="M142.71 77.19C141.41 75.98 140.76 74.13 140.76 71.64V70.86C140.76 70.05 140.84 69.3 140.99 68.62C141.14 67.94 141.37 67.32 141.66 66.76C142.26 65.65 143.11 64.81 144.21 64.23C145.31 63.65 146.59 63.36 148.06 63.36C148.79 63.36 149.47 63.43 150.1 63.57C150.73 63.71 151.32 63.93 151.88 64.22C152.99 64.78 153.85 65.62 154.47 66.73C155.09 67.84 155.4 69.21 155.4 70.83V71.63C155.4 72.46 155.32 73.21 155.17 73.89C155.02 74.57 154.79 75.18 154.48 75.73C153.86 76.82 153.01 77.64 151.91 78.19C150.81 78.74 149.53 79.01 148.08 79.01C145.81 79.01 144.02 78.4 142.71 77.19ZM151.14 75.1C151.86 74.36 152.22 73.18 152.22 71.55V70.94C152.22 69.32 151.86 68.11 151.15 67.32C150.44 66.53 149.42 66.13 148.09 66.13C146.72 66.13 145.69 66.53 144.99 67.33C144.3 68.13 143.95 69.33 143.95 70.94V71.57C143.95 73.11 144.29 74.27 144.98 75.04C145.67 75.81 146.69 76.21 148.07 76.21C149.4 76.22 150.42 75.84 151.14 75.1Z" fill="white"/>
<path d="M166.86 68.24V78.65H163.92V63.68H166.78L171.75 70.04L176.85 63.7H179.6V78.65H176.66V68.18L171.85 74.04H171.51L166.86 68.24Z" fill="white"/>
<path d="M184.04 77.22C182.72 76.03 182.06 74.17 182.06 71.64V70.84C182.06 70.04 182.14 69.3 182.3 68.63C182.46 67.95 182.69 67.33 183 66.77C183.63 65.66 184.5 64.82 185.62 64.24C186.74 63.66 188.03 63.37 189.5 63.37C190.23 63.37 190.92 63.44 191.57 63.58C192.22 63.72 192.83 63.94 193.39 64.23C194.51 64.79 195.39 65.63 196.02 66.74C196.66 67.85 196.98 69.22 196.98 70.84V71.64C196.98 72.47 196.9 73.22 196.75 73.91C196.6 74.6 196.36 75.21 196.04 75.76C195.42 76.85 194.55 77.67 193.43 78.21C192.31 78.75 190.99 79.02 189.49 79.02C187.18 79.01 185.36 78.41 184.04 77.22ZM192.7 75.09C193.44 74.34 193.81 73.17 193.81 71.57V70.94C193.81 69.29 193.44 68.07 192.7 67.29C191.96 66.51 190.9 66.11 189.51 66.11C188.11 66.11 187.05 66.51 186.32 67.32C185.59 68.13 185.23 69.32 185.23 70.92V71.57C185.23 73.11 185.59 74.27 186.32 75.04C187.05 75.81 188.11 76.21 189.51 76.21C190.89 76.22 191.96 75.84 192.7 75.09Z" fill="white"/>
<path d="M203.61 78.85C202.92 78.75 202.32 78.59 201.8 78.38C200.75 77.96 199.97 77.34 199.45 76.51C198.93 75.68 198.61 74.66 198.48 73.42H201.78C201.89 74.46 202.29 75.2 202.98 75.66C203.67 76.12 204.66 76.34 205.96 76.34C207.12 76.34 207.97 76.15 208.5 75.77C209.03 75.39 209.3 74.9 209.3 74.3C209.3 74.05 209.26 73.82 209.18 73.63C209.1 73.43 208.97 73.27 208.8 73.15C208.45 72.9 207.93 72.71 207.26 72.58C206.58 72.45 205.74 72.34 204.73 72.22C204.19 72.15 203.67 72.07 203.19 71.97C202.71 71.87 202.26 71.75 201.84 71.61C200.99 71.33 200.31 70.9 199.82 70.31C199.33 69.72 199.09 68.9 199.09 67.83C199.09 67.41 199.15 67.01 199.26 66.63C199.37 66.25 199.54 65.9 199.76 65.56C200.21 64.87 200.89 64.34 201.8 63.94C202.71 63.55 203.86 63.35 205.24 63.35C207.45 63.35 209.12 63.77 210.25 64.61C211.37 65.45 212.02 66.7 212.19 68.35H208.98C208.85 67.45 208.49 66.82 207.88 66.46C207.27 66.1 206.37 65.91 205.18 65.91C204.07 65.91 203.3 66.08 202.86 66.43C202.42 66.78 202.2 67.22 202.2 67.75C202.2 68.41 202.53 68.86 203.19 69.1C203.85 69.35 204.89 69.54 206.32 69.7C206.92 69.77 207.49 69.86 208.02 69.96C208.55 70.06 209.05 70.19 209.51 70.33C210.42 70.62 211.13 71.06 211.63 71.65C212.13 72.24 212.39 73.07 212.39 74.15C212.39 74.61 212.33 75.05 212.22 75.47C212.11 75.89 211.93 76.28 211.69 76.65C211.21 77.38 210.5 77.95 209.54 78.36C208.58 78.77 207.37 78.98 205.92 78.98C205.06 79.01 204.3 78.95 203.61 78.85Z" fill="white"/>
<path d="M220.91 66.35V78.65H217.8V66.35H213.18V63.68H225.73V66.35H220.91Z" fill="white"/>
<path d="M107.33 103.84V88.87H110.42V103.84H107.33Z" fill="white"/>
<path d="M116.46 93.43V103.84H113.52V88.87H116.38L121.35 95.23L126.45 88.89H129.2V103.84H126.26V93.37L121.45 99.23H121.11L116.46 93.43Z" fill="white"/>
<path d="M135.29 99.16V103.84H132.27V88.87H138.72C141.06 88.87 142.76 89.32 143.82 90.22C144.88 91.12 145.42 92.39 145.42 94.03C145.42 95.64 144.88 96.9 143.8 97.81C142.72 98.72 141.1 99.17 138.93 99.15H135.29V99.16ZM135.29 91.48V96.56H138.82C140.02 96.56 140.91 96.35 141.48 95.94C142.05 95.53 142.33 94.89 142.33 94.02C142.33 93.12 142.04 92.48 141.45 92.08C140.86 91.68 139.96 91.48 138.74 91.48H135.29Z" fill="white"/>
<path d="M155.93 100.52H149.06L147.76 103.84H144.55L150.85 88.87H154.04L160.46 103.84H157.29L155.93 100.52ZM152.44 92.02L150.07 97.98H154.88L152.44 92.02Z" fill="white"/>
<path d="M175.28 99.73C175.1 100.29 174.87 100.81 174.59 101.28C174.02 102.22 173.2 102.94 172.14 103.44C171.08 103.94 169.74 104.2 168.12 104.2C165.83 104.2 164.02 103.59 162.71 102.38C161.4 101.17 160.75 99.33 160.75 96.87V96.01C160.75 95.21 160.83 94.48 160.98 93.81C161.13 93.14 161.37 92.52 161.69 91.96C162.31 90.85 163.18 90.01 164.32 89.43C165.46 88.85 166.79 88.56 168.32 88.56C170.35 88.56 172 89.05 173.26 90.03C174.53 91.01 175.3 92.49 175.58 94.46H172.33C172.19 93.47 171.8 92.69 171.15 92.14C170.51 91.59 169.56 91.31 168.32 91.31C166.91 91.31 165.82 91.71 165.05 92.5C164.28 93.29 163.89 94.5 163.89 96.14V96.77C163.89 98.28 164.27 99.42 165.02 100.19C165.78 100.96 166.86 101.34 168.27 101.34C169.6 101.34 170.58 101.04 171.21 100.45C171.84 99.86 172.23 99.01 172.37 97.92H175.66C175.6 98.57 175.47 99.17 175.28 99.73Z" fill="white"/>
<path d="M184.1 91.54V103.84H180.99V91.54H176.37V88.87H188.92V91.54H184.1Z" fill="white"/>
<path d="M194.07 98.17V103.84H191.07V88.87H202.57V91.58H194.07V95.42H202.19V98.17H194.07Z" fill="white"/>
<path d="M206.45 102.41C205.32 101.22 204.76 99.3 204.76 96.64V88.87H207.95V96.53C207.95 98.22 208.24 99.43 208.83 100.15C209.42 100.87 210.32 101.23 211.54 101.23C212.76 101.23 213.64 100.88 214.19 100.17C214.74 99.46 215.02 98.25 215.02 96.53V88.87H218.23V96.64C218.23 99.3 217.65 101.22 216.48 102.41C215.31 103.6 213.65 104.19 211.49 104.19C209.26 104.2 207.57 103.6 206.45 102.41Z" fill="white"/>
<path d="M221.07 103.84V88.87H224.18V100.96H232.47V103.84H221.07Z" fill="white"/>
<path d="M105.91 123.01H98.58V129.03H95.52V114.06H98.58V120.08H105.91V114.06H108.93V129.03H105.91V123.01Z" fill="white"/>
<path d="M124.28 129.03H112V114.06H123.88V116.66H114.96V120.19H122.52V122.79H114.96V126.32H124.28V129.03Z" fill="white"/>
<path d="M136.81 125.72H129.94L128.64 129.04H125.43L131.73 114.07H134.92L141.34 129.04H138.17L136.81 125.72ZM133.33 117.21L130.96 123.17H135.77L133.33 117.21Z" fill="white"/>
<path d="M142.88 129.03V114.06H145.99V126.15H154.28V129.03H142.88Z" fill="white"/>
<path d="M160.7 116.73V129.03H157.59V116.73H152.97V114.06H165.52V116.73H160.7Z" fill="white"/>
<path d="M178.06 123.01H170.73V129.03H167.67V114.06H170.73V120.08H178.06V114.06H181.08V129.03H178.06V123.01Z" fill="white"/>
<path d="M198.07 124.92C197.89 125.48 197.66 126 197.38 126.47C196.81 127.41 195.99 128.13 194.93 128.63C193.87 129.13 192.53 129.39 190.91 129.39C188.62 129.39 186.81 128.78 185.5 127.57C184.19 126.36 183.54 124.52 183.54 122.06V121.2C183.54 120.4 183.62 119.67 183.77 119C183.92 118.33 184.16 117.71 184.48 117.15C185.1 116.04 185.97 115.2 187.11 114.62C188.25 114.04 189.58 113.75 191.11 113.75C193.14 113.75 194.79 114.24 196.05 115.22C197.32 116.2 198.09 117.68 198.37 119.65H195.12C194.98 118.66 194.59 117.88 193.94 117.33C193.3 116.78 192.35 116.5 191.11 116.5C189.7 116.5 188.61 116.9 187.84 117.69C187.07 118.48 186.68 119.69 186.68 121.33V121.96C186.68 123.47 187.06 124.61 187.81 125.38C188.57 126.15 189.65 126.53 191.06 126.53C192.39 126.53 193.37 126.23 194 125.64C194.63 125.05 195.02 124.2 195.16 123.11H198.45C198.39 123.76 198.25 124.36 198.07 124.92Z" fill="white"/>
<path d="M210.1 125.72H203.24L201.94 129.04H198.73L205.03 114.07H208.22L214.64 129.04H211.47L210.1 125.72ZM206.61 117.21L204.24 123.17H209.05L206.61 117.21Z" fill="white"/>
<path d="M219.21 123.85V129.04H216.17V114.07H222.82C225.09 114.07 226.72 114.47 227.72 115.26C228.72 116.05 229.22 117.19 229.22 118.67C229.22 119.72 228.98 120.55 228.51 121.16C228.03 121.77 227.33 122.21 226.39 122.49C227.27 122.73 227.92 123.15 228.34 123.76C228.76 124.37 228.97 125.25 228.97 126.42V128.18C228.97 128.35 229 128.51 229.04 128.67C229.09 128.83 229.18 128.95 229.32 129.04H226.09C225.96 128.97 225.88 128.85 225.83 128.67C225.78 128.49 225.76 128.32 225.76 128.13V126.45C225.76 125.47 225.53 124.79 225.07 124.41C224.61 124.03 223.8 123.84 222.63 123.84H219.21V123.85ZM219.21 116.67V121.23H222.7C223.74 121.23 224.56 121.06 225.16 120.73C225.77 120.39 226.07 119.81 226.07 118.99V118.86C226.07 118.08 225.81 117.52 225.28 117.18C224.75 116.84 223.92 116.68 222.77 116.68H219.21V116.67Z" fill="white"/>
<path d="M244.02 129.03H231.74V114.06H243.62V116.66H234.7V120.19H242.26V122.79H234.7V126.32H244.02V129.03Z" fill="white"/>
<path d="M118.13 154.22V139.25H121.24V151.34H129.53V154.22H118.13Z" fill="white"/>
<path d="M143.97 154.22H131.69V139.25H143.57V141.85H134.65V145.38H142.21V147.98H134.65V151.51H143.97V154.22Z" fill="white"/>
<path d="M156.51 150.91H149.64L148.34 154.23H145.13L151.43 139.26H154.62L161.04 154.23H157.87L156.51 150.91ZM153.02 142.4L150.65 148.36H155.46L153.02 142.4Z" fill="white"/>
<path d="M162.57 139.26H168.51C169.28 139.26 170 139.32 170.68 139.45C171.36 139.58 171.98 139.76 172.56 140.02C173.71 140.52 174.6 141.3 175.24 142.35C175.88 143.4 176.2 144.74 176.2 146.38V147.18C176.2 147.99 176.12 148.73 175.97 149.39C175.82 150.06 175.58 150.65 175.28 151.16C174.66 152.2 173.79 152.97 172.67 153.47C171.55 153.97 170.21 154.23 168.67 154.23H162.58V139.26H162.57ZM165.62 141.9V151.56H168.52C170.05 151.56 171.19 151.2 171.96 150.48C172.73 149.76 173.11 148.6 173.11 147.01V146.51C173.11 144.91 172.71 143.75 171.91 143.01C171.11 142.28 169.94 141.91 168.38 141.91H165.62V141.9Z" fill="white"/>
<path d="M190.96 154.22H178.68V139.25H190.56V141.85H181.64V145.38H189.2V147.98H181.64V151.51H190.96V154.22Z" fill="white"/>
<path d="M196.12 149.04V154.23H193.08V139.26H199.74C202.01 139.26 203.64 139.66 204.64 140.45C205.64 141.24 206.14 142.38 206.14 143.86C206.14 144.91 205.9 145.74 205.43 146.35C204.96 146.96 204.25 147.4 203.31 147.68C204.19 147.92 204.84 148.34 205.26 148.95C205.68 149.56 205.89 150.44 205.89 151.61V153.37C205.89 153.54 205.91 153.7 205.96 153.86C206.01 154.02 206.1 154.14 206.24 154.23H203C202.88 154.16 202.79 154.04 202.74 153.86C202.69 153.68 202.67 153.51 202.67 153.32V151.64C202.67 150.66 202.44 149.98 201.98 149.6C201.52 149.22 200.7 149.03 199.54 149.03H196.12V149.04ZM196.12 141.86V146.42H199.6C200.64 146.42 201.46 146.25 202.07 145.92C202.68 145.59 202.98 145 202.98 144.18V144.05C202.98 143.27 202.72 142.71 202.19 142.37C201.67 142.03 200.83 141.87 199.68 141.87H196.12V141.86Z" fill="white"/>
<path d="M212.74 154.42C212.05 154.32 211.45 154.16 210.94 153.95C209.89 153.53 209.11 152.91 208.59 152.08C208.07 151.25 207.75 150.23 207.63 148.99H210.92C211.03 150.03 211.43 150.77 212.12 151.23C212.81 151.69 213.8 151.91 215.1 151.91C216.26 151.91 217.11 151.72 217.64 151.34C218.17 150.96 218.44 150.47 218.44 149.87C218.44 149.62 218.4 149.39 218.32 149.2C218.24 149 218.11 148.84 217.94 148.72C217.59 148.47 217.08 148.28 216.4 148.15C215.72 148.02 214.88 147.91 213.87 147.79C213.32 147.72 212.81 147.64 212.33 147.54C211.85 147.44 211.4 147.32 210.98 147.18C210.13 146.9 209.45 146.47 208.96 145.88C208.47 145.29 208.23 144.47 208.23 143.4C208.23 142.98 208.28 142.58 208.4 142.2C208.51 141.82 208.68 141.47 208.9 141.13C209.35 140.44 210.02 139.91 210.94 139.51C211.85 139.12 213 138.92 214.38 138.92C216.59 138.92 218.26 139.34 219.39 140.18C220.52 141.02 221.16 142.27 221.33 143.92H218.12C218 143.02 217.63 142.39 217.02 142.03C216.41 141.67 215.51 141.48 214.32 141.48C213.21 141.48 212.44 141.65 212 142C211.56 142.35 211.34 142.79 211.34 143.32C211.34 143.98 211.67 144.43 212.33 144.67C212.99 144.92 214.03 145.11 215.46 145.27C216.06 145.34 216.63 145.43 217.16 145.53C217.69 145.63 218.19 145.76 218.65 145.9C219.56 146.19 220.27 146.63 220.77 147.22C221.27 147.81 221.53 148.64 221.53 149.72C221.53 150.18 221.47 150.62 221.36 151.04C221.25 151.46 221.07 151.85 220.84 152.22C220.36 152.95 219.65 153.52 218.69 153.93C217.73 154.34 216.52 154.55 215.07 154.55C214.19 154.58 213.43 154.53 212.74 154.42Z" fill="white"/>
<path d="M143.47 42.67V40.56C143.47 39.75 143.63 39.06 143.95 38.5C144.27 37.94 144.7 37.47 145.26 37.09C145.8 36.71 146.42 36.39 147.13 36.12C147.83 35.85 148.56 35.6 149.32 35.37C149.74 35.25 150.13 35.12 150.5 34.99C150.87 34.86 151.2 34.74 151.51 34.61C152.16 34.37 152.67 34.08 153.03 33.76C153.4 33.44 153.58 33.03 153.58 32.54C153.58 31.84 153.32 31.31 152.79 30.96C152.26 30.61 151.47 30.43 150.42 30.43C149.19 30.43 148.26 30.69 147.64 31.2C147.02 31.71 146.71 32.45 146.71 33.41V33.69H143.69V33.33C143.69 31.6 144.26 30.27 145.4 29.33C146.54 28.39 148.23 27.92 150.48 27.92C151.18 27.92 151.82 27.97 152.41 28.07C152.99 28.17 153.5 28.32 153.95 28.51C154.86 28.9 155.53 29.44 155.96 30.12C156.39 30.8 156.61 31.58 156.61 32.46C156.61 32.93 156.55 33.37 156.43 33.76C156.31 34.15 156.13 34.5 155.88 34.81C155.41 35.42 154.75 35.92 153.91 36.32C153.07 36.72 152.11 37.08 151.03 37.4C149.76 37.78 148.76 38.14 148.04 38.49C147.32 38.84 146.92 39.33 146.85 39.95H156.5V42.65H143.47V42.67Z" fill="white"/>
<path d="M160.12 41.26C158.86 40.09 158.23 38.3 158.23 35.9V35.15C158.23 34.37 158.3 33.65 158.45 32.99C158.6 32.33 158.81 31.74 159.1 31.2C159.68 30.13 160.5 29.32 161.56 28.76C162.62 28.2 163.86 27.92 165.28 27.92C165.98 27.92 166.64 27.99 167.25 28.12C167.86 28.26 168.43 28.46 168.97 28.75C170.04 29.29 170.87 30.1 171.47 31.17C172.07 32.24 172.37 33.57 172.37 35.13V35.9C172.37 36.7 172.29 37.42 172.15 38.08C172 38.74 171.78 39.33 171.48 39.85C170.89 40.9 170.06 41.7 169 42.22C167.94 42.75 166.71 43.01 165.3 43.01C163.11 43.01 161.38 42.43 160.12 41.26ZM168.26 39.24C168.96 38.52 169.3 37.38 169.3 35.81V35.22C169.3 33.65 168.96 32.49 168.27 31.72C167.58 30.95 166.59 30.57 165.31 30.57C163.98 30.57 162.99 30.96 162.32 31.73C161.65 32.5 161.32 33.66 161.32 35.22V35.83C161.32 37.32 161.65 38.44 162.31 39.19C162.97 39.94 163.97 40.31 165.29 40.31C166.57 40.32 167.56 39.96 168.26 39.24Z" fill="white"/>
<path d="M173.34 42.67V39.83H176.77V32.94H174.4V30.65C175.37 30.58 176.07 30.36 176.5 29.97C176.93 29.58 177.2 29 177.32 28.22H179.75V39.84H183.01V42.68H173.34V42.67Z" fill="white"/>
<path d="M184.92 42.67C185.27 41.51 185.73 40.35 186.31 39.18C186.88 38.02 187.52 36.91 188.21 35.86C188.91 34.82 189.62 33.87 190.32 33.02C191.02 32.17 191.68 31.48 192.29 30.95H183.06V28.21H195.95V30.38C195.18 31.07 194.42 31.89 193.67 32.85C192.92 33.81 192.21 34.84 191.55 35.95C190.89 37.06 190.31 38.19 189.81 39.34C189.31 40.49 188.92 41.6 188.65 42.67H184.92Z" fill="white"/>
<path d="M109.95 175.61H113.35C113.79 175.61 114.2 175.65 114.59 175.72C114.98 175.79 115.34 175.9 115.66 176.04C116.32 176.33 116.83 176.77 117.19 177.37C117.55 177.97 117.74 178.74 117.74 179.67V180.13C117.74 180.59 117.7 181.02 117.61 181.4C117.52 181.78 117.39 182.12 117.21 182.41C116.86 183 116.36 183.44 115.72 183.73C115.08 184.02 114.31 184.16 113.43 184.16H109.95V175.61ZM111.69 177.13V182.65H113.35C114.22 182.65 114.88 182.44 115.32 182.03C115.76 181.62 115.98 180.96 115.98 180.04V179.75C115.98 178.84 115.75 178.17 115.3 177.75C114.85 177.33 114.17 177.12 113.28 177.12H111.69V177.13Z" fill="white"/>
<path d="M119.05 184.17V177.27H120.51L120.73 179C120.88 178.42 121.16 177.98 121.56 177.67C121.96 177.36 122.52 177.21 123.22 177.21H123.86V178.96H123.08C122.78 178.96 122.51 178.98 122.27 179.01C122.03 179.04 121.83 179.1 121.66 179.18C121.33 179.33 121.11 179.58 120.98 179.92C120.86 180.26 120.79 180.73 120.79 181.32V184.15H119.05V184.17Z" fill="white"/>
<path d="M124.16 184.07C123.98 183.9 123.89 183.61 123.89 183.19C123.89 182.77 123.99 182.47 124.19 182.31C124.39 182.15 124.68 182.06 125.07 182.06C125.46 182.06 125.75 182.14 125.95 182.31C126.15 182.48 126.25 182.77 126.25 183.19C126.25 183.59 126.15 183.88 125.96 184.05C125.77 184.23 125.47 184.31 125.07 184.31C124.64 184.33 124.34 184.24 124.16 184.07Z" fill="white"/>
<path d="M133.95 184.17L130.6 175.61H132.48L134.87 181.91L137.33 175.61H139.2L135.72 184.17H133.95Z" fill="white"/>
<path d="M138.93 184.07C138.75 183.9 138.66 183.61 138.66 183.19C138.66 182.77 138.76 182.47 138.96 182.31C139.16 182.15 139.45 182.06 139.84 182.06C140.23 182.06 140.52 182.14 140.72 182.31C140.92 182.48 141.02 182.77 141.02 183.19C141.02 183.59 140.92 183.88 140.73 184.05C140.54 184.23 140.24 184.31 139.84 184.31C139.42 184.33 139.11 184.24 138.93 184.07Z" fill="white"/>
<path d="M148.37 184.28C147.98 184.22 147.63 184.13 147.34 184.01C146.74 183.77 146.29 183.41 146 182.94C145.7 182.47 145.52 181.88 145.45 181.18H147.33C147.39 181.77 147.62 182.2 148.01 182.46C148.4 182.72 148.97 182.85 149.71 182.85C150.37 182.85 150.86 182.74 151.16 182.53C151.46 182.31 151.62 182.03 151.62 181.69C151.62 181.55 151.6 181.42 151.55 181.31C151.5 181.2 151.43 181.11 151.33 181.03C151.13 180.89 150.84 180.78 150.45 180.71C150.06 180.64 149.58 180.57 149 180.51C148.69 180.47 148.39 180.42 148.12 180.37C147.84 180.31 147.59 180.25 147.35 180.17C146.86 180.01 146.48 179.76 146.2 179.43C145.92 179.1 145.78 178.62 145.78 178.01C145.78 177.77 145.81 177.54 145.88 177.33C145.94 177.11 146.04 176.91 146.17 176.72C146.43 176.33 146.81 176.02 147.33 175.8C147.85 175.58 148.51 175.46 149.3 175.46C150.56 175.46 151.52 175.7 152.16 176.18C152.8 176.66 153.17 177.37 153.27 178.32H151.43C151.36 177.81 151.15 177.45 150.8 177.24C150.45 177.03 149.94 176.93 149.26 176.93C148.63 176.93 148.19 177.03 147.93 177.23C147.67 177.43 147.55 177.68 147.55 177.99C147.55 178.37 147.74 178.62 148.11 178.76C148.49 178.9 149.08 179.01 149.9 179.1C150.24 179.14 150.57 179.19 150.87 179.25C151.17 179.31 151.46 179.38 151.72 179.46C152.24 179.63 152.64 179.88 152.93 180.22C153.22 180.56 153.36 181.03 153.36 181.65C153.36 181.91 153.33 182.17 153.26 182.41C153.19 182.65 153.1 182.87 152.96 183.08C152.69 183.5 152.28 183.82 151.73 184.06C151.18 184.3 150.49 184.41 149.66 184.41C149.2 184.37 148.76 184.34 148.37 184.28Z" fill="white"/>
<path d="M154.94 184.07C154.76 183.9 154.67 183.61 154.67 183.19C154.67 182.77 154.77 182.47 154.97 182.31C155.17 182.15 155.46 182.06 155.85 182.06C156.24 182.06 156.53 182.14 156.73 182.31C156.93 182.48 157.03 182.77 157.03 183.19C157.03 183.59 156.93 183.88 156.74 184.05C156.55 184.23 156.25 184.31 155.85 184.31C155.42 184.33 155.12 184.24 154.94 184.07Z" fill="white"/>
<path d="M164.73 184.17L161.38 175.61H163.26L165.65 181.91L168.11 175.61H169.98L166.5 184.17H164.73Z" fill="white"/>
<path d="M169.71 184.07C169.53 183.9 169.44 183.61 169.44 183.19C169.44 182.77 169.54 182.47 169.74 182.31C169.94 182.15 170.23 182.06 170.62 182.06C171.01 182.06 171.3 182.14 171.5 182.31C171.7 182.48 171.8 182.77 171.8 183.19C171.8 183.59 171.7 183.88 171.51 184.05C171.32 184.23 171.02 184.31 170.62 184.31C170.19 184.33 169.89 184.24 169.71 184.07Z" fill="white"/>
<path d="M178.66 181.49V184.17H176.93V175.61H180.61C181.95 175.61 182.92 175.87 183.53 176.38C184.14 176.9 184.44 177.62 184.44 178.56C184.44 179.48 184.13 180.2 183.52 180.72C182.9 181.24 181.98 181.5 180.74 181.49H178.66ZM178.66 177.1V180H180.68C181.37 180 181.87 179.88 182.2 179.65C182.52 179.41 182.69 179.05 182.69 178.55C182.69 178.04 182.52 177.67 182.19 177.44C181.85 177.21 181.34 177.1 180.64 177.1H178.66Z" fill="white"/>
<path d="M187.43 181.21V184.17H185.69V175.61H189.49C190.79 175.61 191.72 175.84 192.29 176.29C192.86 176.74 193.15 177.39 193.15 178.24C193.15 178.84 193.01 179.31 192.74 179.66C192.47 180.01 192.06 180.26 191.53 180.42C192.03 180.56 192.41 180.8 192.65 181.15C192.89 181.5 193.01 182 193.01 182.67V183.68C193.01 183.78 193.02 183.87 193.05 183.96C193.08 184.05 193.13 184.12 193.21 184.17H191.36C191.29 184.13 191.24 184.06 191.21 183.96C191.18 183.86 191.17 183.76 191.17 183.65V182.69C191.17 182.13 191.04 181.74 190.77 181.53C190.51 181.31 190.04 181.21 189.38 181.21H187.43ZM187.43 177.1V179.7H189.42C190.01 179.7 190.48 179.6 190.83 179.41C191.18 179.22 191.35 178.89 191.35 178.41V178.34C191.35 177.89 191.2 177.57 190.9 177.38C190.6 177.19 190.12 177.09 189.47 177.09H187.43V177.1Z" fill="white"/>
<path d="M200.28 182.27H196.36L195.62 184.17H193.78L197.38 175.61H199.2L202.87 184.17H201.06L200.28 182.27ZM198.29 177.41L196.93 180.82H199.68L198.29 177.41Z" fill="white"/>
<path d="M206.02 184.28C205.63 184.22 205.28 184.13 204.99 184.01C204.39 183.77 203.94 183.41 203.65 182.94C203.35 182.47 203.17 181.88 203.1 181.18H204.98C205.04 181.77 205.27 182.2 205.66 182.46C206.05 182.72 206.62 182.85 207.36 182.85C208.02 182.85 208.51 182.74 208.81 182.53C209.11 182.31 209.27 182.03 209.27 181.69C209.27 181.55 209.25 181.42 209.2 181.31C209.15 181.2 209.08 181.11 208.98 181.03C208.78 180.89 208.49 180.78 208.1 180.71C207.71 180.64 207.23 180.57 206.65 180.51C206.34 180.47 206.04 180.42 205.77 180.37C205.49 180.31 205.24 180.25 205 180.17C204.51 180.01 204.13 179.76 203.85 179.43C203.57 179.1 203.43 178.62 203.43 178.01C203.43 177.77 203.46 177.54 203.53 177.33C203.59 177.11 203.69 176.91 203.82 176.72C204.08 176.33 204.46 176.02 204.98 175.8C205.5 175.58 206.16 175.46 206.95 175.46C208.21 175.46 209.17 175.7 209.81 176.18C210.45 176.66 210.82 177.37 210.92 178.32H209.08C209.01 177.81 208.8 177.45 208.45 177.24C208.1 177.03 207.59 176.93 206.91 176.93C206.28 176.93 205.84 177.03 205.58 177.23C205.32 177.43 205.2 177.68 205.2 177.99C205.2 178.37 205.39 178.62 205.76 178.76C206.14 178.9 206.73 179.01 207.55 179.1C207.89 179.14 208.22 179.19 208.52 179.25C208.82 179.31 209.11 179.38 209.37 179.46C209.89 179.63 210.29 179.88 210.58 180.22C210.87 180.56 211.01 181.03 211.01 181.65C211.01 181.91 210.98 182.17 210.91 182.41C210.84 182.65 210.75 182.87 210.61 183.08C210.34 183.5 209.93 183.82 209.38 184.06C208.83 184.3 208.14 184.41 207.31 184.41C206.85 184.37 206.41 184.34 206.02 184.28Z" fill="white"/>
<path d="M217.86 182.27H213.94L213.2 184.17H211.36L214.96 175.61H216.78L220.45 184.17H218.64L217.86 182.27ZM215.87 177.41L214.51 180.82H217.26L215.87 177.41Z" fill="white"/>
<path d="M221.33 175.61H224.73C225.17 175.61 225.58 175.65 225.97 175.72C226.36 175.79 226.72 175.9 227.04 176.04C227.7 176.33 228.21 176.77 228.57 177.37C228.93 177.97 229.12 178.74 229.12 179.67V180.13C229.12 180.59 229.08 181.02 228.99 181.4C228.9 181.78 228.77 182.12 228.59 182.41C228.24 183 227.74 183.44 227.1 183.73C226.46 184.02 225.69 184.16 224.81 184.16H221.33V175.61ZM223.07 177.13V182.65H224.73C225.6 182.65 226.26 182.44 226.7 182.03C227.14 181.62 227.36 180.96 227.36 180.04V179.75C227.36 178.84 227.13 178.17 226.68 177.75C226.23 177.33 225.55 177.12 224.66 177.12H223.07V177.13Z" fill="white"/>
</svg>
