<svg width="339" height="324" viewBox="0 0 339 324" fill="none" xmlns="http://www.w3.org/2000/svg">
<path d="M101.33 307.26C60.71 300.39 37.23 294.28 0 275.61L34.05 263.79L22.78 230.2C55.45 246.6 74.1 251.13 109.75 257.17L101.33 307.26Z" fill="#FCD3C2"/>
<path d="M237.39 307.26C278.01 300.39 301.5 294.28 338.73 275.61L304.67 263.79L315.94 230.2C283.26 246.6 264.62 251.13 228.96 257.17L237.39 307.26Z" fill="#FCD3C2"/>
<path d="M107.93 267.98L109.76 257.16L61.7202 257C61.0902 262.26 75.8902 261.38 85.7702 263.49C91.5502 264.74 107.93 267.98 107.93 267.98Z" fill="white"/>
<path d="M230.78 267.98L228.95 257.16C228.95 257.16 277.14 255.93 277.08 257C276.79 262.83 262.81 261.38 252.96 263.49C247.16 264.74 230.78 267.98 230.78 267.98Z" fill="white"/>
<path d="M292.03 305.56C212.12 330.15 126.69 330.15 46.79 305.56C51.76 289.38 56.74 273.19 61.71 257C131.88 278.59 206.92 278.59 277.08 257C282.07 273.18 287.06 289.38 292.03 305.56Z" fill="#FCD3C2"/>
<path d="M150.59 310.11L146.67 309.89L145.82 311.74L143.99 311.64L148.06 303.3L149.88 303.4L153.07 312.15L151.26 312.05L150.59 310.11ZM148.87 305.15L147.33 308.48L150.07 308.63L148.87 305.15Z" fill="#F37972"/>
<path d="M158.82 306.33L156.28 312.26L154.59 312.21L152.48 303.59L154.25 303.64L155.69 309.79L158.23 303.76L159.6 303.8L161.61 310.05L163.71 303.92L165.47 303.97L162.44 312.44L160.77 312.39L158.82 306.33Z" fill="#F37972"/>
<path d="M170.64 310.62L166.72 310.6L165.96 312.49L164.12 312.48L167.77 303.95L169.59 303.96L173.21 312.54L171.4 312.53L170.64 310.62ZM168.68 305.75L167.3 309.15L170.05 309.17L168.68 305.75Z" fill="#F37972"/>
<path d="M175.8 309.53L175.84 312.49L174.1 312.52L173.98 303.97L177.78 303.92C179.08 303.9 180.01 304.11 180.59 304.56C181.17 305 181.46 305.65 181.48 306.5C181.49 307.1 181.36 307.58 181.09 307.93C180.82 308.28 180.42 308.54 179.89 308.71C180.4 308.84 180.77 309.08 181.02 309.42C181.27 309.76 181.39 310.27 181.4 310.93L181.41 311.94C181.41 312.04 181.43 312.13 181.46 312.22C181.49 312.31 181.54 312.38 181.63 312.43L179.78 312.46C179.71 312.42 179.66 312.35 179.63 312.25C179.6 312.15 179.59 312.05 179.58 311.94L179.57 310.98C179.56 310.42 179.42 310.03 179.16 309.82C178.89 309.61 178.43 309.51 177.76 309.52L175.8 309.53ZM175.74 305.43L175.78 308.03L177.77 308C178.36 307.99 178.83 307.89 179.18 307.69C179.52 307.49 179.69 307.16 179.69 306.69V306.62C179.68 306.17 179.53 305.85 179.23 305.67C178.93 305.49 178.45 305.39 177.79 305.4L175.74 305.43Z" fill="#F37972"/>
<path d="M182.7 303.83L186.09 303.72C186.53 303.71 186.94 303.73 187.33 303.79C187.72 303.85 188.08 303.94 188.41 304.08C189.08 304.35 189.6 304.77 189.98 305.36C190.36 305.95 190.57 306.71 190.6 307.64L190.62 308.1C190.64 308.56 190.61 308.99 190.53 309.37C190.45 309.75 190.33 310.09 190.17 310.4C189.84 311 189.36 311.46 188.72 311.77C188.09 312.08 187.33 312.25 186.45 312.28L182.97 312.4L182.7 303.83ZM184.49 305.28L184.68 310.8L186.33 310.74C187.2 310.71 187.85 310.48 188.28 310.06C188.71 309.63 188.9 308.96 188.87 308.05L188.86 307.76C188.83 306.85 188.58 306.19 188.11 305.79C187.64 305.39 186.96 305.2 186.07 305.23L184.49 305.28Z" fill="#F37972"/>
<path d="M194.53 312.03C194.14 311.99 193.79 311.92 193.49 311.82C192.88 311.61 192.41 311.28 192.09 310.83C191.77 310.37 191.55 309.8 191.44 309.1L193.32 309C193.42 309.59 193.67 310 194.07 310.24C194.47 310.48 195.05 310.58 195.79 310.54C196.45 310.5 196.93 310.37 197.22 310.14C197.51 309.91 197.65 309.62 197.63 309.28C197.62 309.14 197.59 309.01 197.54 308.9C197.49 308.79 197.41 308.7 197.31 308.64C197.1 308.51 196.8 308.42 196.41 308.36C196.02 308.31 195.53 308.27 194.95 308.24C194.64 308.22 194.34 308.18 194.06 308.14C193.78 308.1 193.52 308.05 193.28 307.98C192.78 307.85 192.39 307.62 192.09 307.3C191.79 306.98 191.63 306.52 191.59 305.91C191.58 305.67 191.6 305.44 191.65 305.22C191.7 305 191.79 304.79 191.9 304.59C192.13 304.18 192.51 303.86 193.01 303.6C193.52 303.35 194.17 303.2 194.96 303.16C196.22 303.09 197.19 303.28 197.86 303.72C198.53 304.16 198.94 304.86 199.08 305.79L197.25 305.89C197.15 305.38 196.92 305.03 196.56 304.85C196.2 304.66 195.68 304.58 195 304.62C194.37 304.65 193.93 304.78 193.69 304.99C193.45 305.2 193.34 305.46 193.35 305.77C193.37 306.15 193.57 306.39 193.96 306.51C194.34 306.63 194.94 306.71 195.76 306.76C196.11 306.78 196.43 306.81 196.74 306.86C197.05 306.9 197.33 306.96 197.6 307.02C198.13 307.16 198.55 307.39 198.85 307.71C199.15 308.03 199.33 308.5 199.36 309.11C199.37 309.37 199.36 309.63 199.31 309.87C199.26 310.11 199.17 310.34 199.05 310.56C198.8 310.99 198.41 311.34 197.87 311.6C197.34 311.87 196.65 312.02 195.82 312.07C195.37 312.08 194.93 312.07 194.53 312.03Z" fill="#F37972"/>
<path d="M89.3 280.3L87.5601 287.11L85.84 286.67L87.58 279.86L85.02 279.21L85.4 277.73L92.35 279.5L91.97 280.98L89.3 280.3Z" fill="#F37972"/>
<path d="M97.8999 285.98L93.8099 285.08L93.0698 288.44L91.3599 288.06L93.1898 279.7L94.8999 280.08L94.1599 283.44L98.2499 284.34L98.9899 280.98L100.68 281.35L98.8499 289.71L97.1599 289.34L97.8999 285.98Z" fill="#F37972"/>
<path d="M107.41 291.32L100.51 290.03L102.08 281.62L108.76 282.87L108.49 284.33L103.48 283.39L103.11 285.37L107.36 286.16L107.09 287.62L102.84 286.83L102.47 288.81L107.71 289.79L107.41 291.32Z" fill="#F37972"/>
<path d="M118.83 290.9C118.61 291.58 118.22 292.1 117.66 292.46C117.1 292.82 116.36 292.93 115.45 292.8C114.28 292.63 113.4 292.16 112.82 291.4C112.24 290.64 112.05 289.55 112.25 288.13L112.33 287.62C112.4 287.16 112.5 286.74 112.65 286.37C112.79 285.99 112.98 285.67 113.21 285.38C113.66 284.8 114.22 284.39 114.91 284.17C115.59 283.94 116.36 283.89 117.22 284.02C118.4 284.19 119.3 284.59 119.92 285.22C120.54 285.85 120.83 286.68 120.78 287.73L118.89 287.45C118.9 286.98 118.77 286.58 118.49 286.24C118.21 285.9 117.71 285.68 117.01 285.57C116.19 285.45 115.54 285.58 115.06 285.96C114.57 286.34 114.26 286.99 114.12 287.93L114.06 288.36C113.92 289.25 114.02 289.94 114.36 290.43C114.7 290.92 115.28 291.22 116.1 291.34C116.88 291.45 117.48 291.38 117.9 291.11C118.32 290.84 118.59 290.47 118.71 289.97L116.13 289.59L116.34 288.13L120.67 288.76L120.01 293.25L118.64 293.05L118.83 290.9Z" fill="#F37972"/>
<path d="M122.33 292.73C121.66 291.97 121.41 290.86 121.58 289.43L121.63 288.98C121.68 288.53 121.78 288.11 121.92 287.74C122.06 287.36 122.23 287.03 122.44 286.73C122.87 286.15 123.42 285.72 124.1 285.47C124.77 285.22 125.53 285.14 126.36 285.24C126.77 285.29 127.16 285.37 127.52 285.5C127.88 285.62 128.21 285.79 128.51 285.99C129.11 286.38 129.55 286.92 129.84 287.59C130.13 288.26 130.22 289.06 130.11 289.98L130.06 290.43C130.01 290.9 129.91 291.32 129.78 291.7C129.65 292.08 129.47 292.41 129.25 292.7C128.83 293.28 128.28 293.68 127.6 293.91C126.92 294.14 126.16 294.21 125.31 294.11C123.99 293.95 123 293.49 122.33 292.73ZM127.39 292.1C127.86 291.72 128.15 291.08 128.26 290.18L128.3 289.82C128.41 288.88 128.28 288.17 127.91 287.67C127.54 287.18 126.96 286.88 126.18 286.79C125.39 286.7 124.75 286.85 124.29 287.26C123.83 287.67 123.54 288.32 123.43 289.23L123.39 289.6C123.29 290.47 123.42 291.16 123.78 291.65C124.14 292.14 124.72 292.43 125.51 292.53C126.29 292.61 126.91 292.47 127.39 292.1Z" fill="#F37972"/>
<path d="M130.96 294.53L131.76 286.01L133.53 286.18L132.88 293.06L137.6 293.5L137.45 295.14L130.96 294.53Z" fill="#F37972"/>
<path d="M139.23 286.71L142.62 286.95C143.06 286.98 143.47 287.05 143.85 287.15C144.23 287.25 144.58 287.38 144.9 287.55C145.53 287.88 146.01 288.36 146.33 288.99C146.65 289.61 146.78 290.39 146.71 291.33L146.68 291.79C146.65 292.25 146.57 292.67 146.46 293.04C146.34 293.41 146.19 293.74 145.99 294.02C145.6 294.59 145.07 294.99 144.41 295.23C143.75 295.47 142.98 295.56 142.1 295.5L138.63 295.25L139.23 286.71ZM140.86 288.34L140.47 293.85L142.12 293.97C142.99 294.03 143.66 293.87 144.13 293.49C144.6 293.11 144.87 292.47 144.93 291.56L144.95 291.27C145.01 290.36 144.83 289.68 144.41 289.23C143.99 288.78 143.33 288.52 142.44 288.46L140.86 288.34Z" fill="#F37972"/>
<path d="M154.77 296.21L147.76 295.87L148.18 287.32L154.96 287.65L154.89 289.14L149.8 288.89L149.7 290.9L154.02 291.11L153.95 292.6L149.64 292.39L149.54 294.4L154.86 294.66L154.77 296.21Z" fill="#F37972"/>
<path d="M157.64 296.3L155.96 296.25L156.19 287.7L157.91 287.75L162.02 293.66L162.17 293.98L162.15 293.73L162.31 287.88L163.98 287.92L163.75 296.47L162.11 296.43L157.94 290.46L157.79 290.16L157.81 290.34L157.64 296.3Z" fill="#F37972"/>
<path d="M175.43 294.34C175.31 295.05 175 295.62 174.5 296.05C174 296.49 173.29 296.71 172.37 296.71C171.19 296.71 170.25 296.38 169.56 295.72C168.87 295.06 168.52 294.01 168.52 292.57V292.05C168.52 291.59 168.56 291.16 168.65 290.77C168.74 290.38 168.87 290.02 169.05 289.71C169.41 289.07 169.91 288.58 170.55 288.26C171.19 287.93 171.95 287.77 172.81 287.77C174 287.77 174.95 288.03 175.66 288.56C176.37 289.09 176.77 289.87 176.88 290.91L174.97 290.92C174.91 290.46 174.72 290.08 174.39 289.78C174.06 289.49 173.54 289.34 172.83 289.34C172.01 289.34 171.38 289.57 170.95 290.01C170.52 290.46 170.31 291.15 170.32 292.09V292.52C170.32 293.42 170.52 294.09 170.93 294.52C171.34 294.95 171.96 295.16 172.78 295.16C173.56 295.16 174.15 294.99 174.52 294.67C174.89 294.35 175.11 293.93 175.16 293.43L172.56 293.44V291.96L176.94 291.94L176.96 296.48H175.58L175.43 294.34Z" fill="#F37972"/>
<path d="M178.54 296.46L178.35 287.91L180.13 287.87L180.28 294.78L185.02 294.67L185.06 296.31L178.54 296.46Z" fill="#F37972"/>
<path d="M186.75 295.44C185.97 294.79 185.55 293.74 185.49 292.3L185.47 291.84C185.45 291.38 185.48 290.96 185.56 290.57C185.64 290.18 185.76 289.82 185.92 289.49C186.25 288.84 186.73 288.34 187.36 287.98C187.99 287.62 188.72 287.43 189.56 287.39C189.98 287.37 190.37 287.4 190.75 287.46C191.13 287.52 191.48 287.63 191.8 287.79C192.45 288.08 192.97 288.54 193.36 289.16C193.75 289.78 193.96 290.55 194 291.48L194.02 291.94C194.04 292.41 194.01 292.85 193.94 293.24C193.87 293.63 193.75 293.99 193.58 294.31C193.25 294.95 192.78 295.43 192.14 295.77C191.5 296.11 190.77 296.29 189.91 296.32C188.58 296.39 187.53 296.09 186.75 295.44ZM191.64 294.02C192.05 293.58 192.23 292.9 192.19 291.99L192.18 291.63C192.14 290.69 191.9 290 191.46 289.57C191.02 289.14 190.4 288.94 189.61 288.97C188.81 289 188.21 289.26 187.82 289.73C187.42 290.21 187.24 290.9 187.28 291.81L187.29 292.18C187.33 293.06 187.56 293.71 188 294.14C188.43 294.57 189.05 294.76 189.85 294.73C190.64 294.71 191.24 294.47 191.64 294.02Z" fill="#F37972"/>
<path d="M195.53 295.88L195 287.34L198.86 287.1C200.1 287.02 201.02 287.15 201.63 287.47C202.24 287.79 202.57 288.33 202.62 289.09V289.13C202.65 289.65 202.56 290.07 202.36 290.38C202.15 290.7 201.82 290.94 201.35 291.12C201.88 291.22 202.28 291.41 202.57 291.69C202.86 291.97 203.02 292.39 203.05 292.94V292.95C203.1 293.8 202.83 294.44 202.24 294.87C201.65 295.3 200.74 295.56 199.51 295.64L195.53 295.88ZM196.78 288.63L196.91 290.71L199.19 290.57C199.75 290.53 200.18 290.43 200.49 290.27C200.8 290.1 200.94 289.82 200.91 289.42V289.4C200.89 289.02 200.73 288.76 200.44 288.63C200.15 288.5 199.68 288.46 199.03 288.5L196.78 288.63ZM197 292.09L197.14 294.31L199.2 294.18C199.47 294.16 199.71 294.14 199.93 294.1C200.14 294.07 200.33 294.02 200.48 293.98C200.79 293.89 201 293.76 201.11 293.58C201.22 293.4 201.27 293.19 201.26 292.93V292.92C201.23 292.5 201.06 292.23 200.74 292.09C200.42 291.95 199.89 291.91 199.14 291.95L197 292.09Z" fill="#F37972"/>
<path d="M211.37 294.72L204.37 295.31L203.66 286.78L210.43 286.21L210.55 287.69L205.47 288.12L205.64 290.13L209.94 289.77L210.06 291.25L205.76 291.61L205.93 293.62L211.24 293.17L211.37 294.72Z" fill="#F37972"/>
<path d="M219.09 286.82L219.89 293.81L218.13 294.01L217.32 287.02L214.7 287.32L214.53 285.81L221.66 284.99L221.83 286.5L219.09 286.82Z" fill="#F37972"/>
<path d="M223.84 293.32L222.72 284.84L224.47 284.61L225.59 293.09L223.84 293.32Z" fill="#F37972"/>
<path d="M233.47 289.74C233.46 290.45 233.24 291.07 232.8 291.57C232.37 292.08 231.7 292.4 230.79 292.54C229.62 292.72 228.64 292.53 227.86 291.98C227.08 291.43 226.58 290.44 226.36 289.02L226.28 288.51C226.21 288.05 226.19 287.62 226.22 287.22C226.25 286.82 226.33 286.45 226.46 286.11C226.72 285.42 227.14 284.87 227.73 284.45C228.32 284.03 229.04 283.76 229.89 283.63C231.07 283.45 232.05 283.57 232.82 283.99C233.6 284.41 234.11 285.12 234.38 286.14L232.49 286.43C232.37 285.98 232.12 285.63 231.75 285.39C231.38 285.15 230.84 285.08 230.14 285.19C229.33 285.31 228.74 285.63 228.39 286.13C228.04 286.63 227.93 287.35 228.07 288.29L228.14 288.72C228.27 289.61 228.57 290.24 229.04 290.61C229.51 290.98 230.15 291.1 230.96 290.97C231.74 290.85 232.29 290.6 232.61 290.22C232.93 289.84 233.09 289.4 233.06 288.89L230.49 289.29L230.27 287.83L234.6 287.17L235.29 291.65L233.93 291.86L233.47 289.74Z" fill="#F37972"/>
<path d="M243.68 290.11L236.78 291.39L235.22 282.98L241.9 281.74L242.17 283.2L237.16 284.13L237.53 286.11L241.78 285.32L242.05 286.78L237.8 287.57L238.17 289.55L243.41 288.58L243.68 290.11Z" fill="#F37972"/>
<path d="M245.88 286.61L246.51 289.51L244.81 289.88L242.98 281.52L246.7 280.7C247.97 280.42 248.93 280.44 249.58 280.76C250.24 281.08 250.66 281.65 250.84 282.48C250.97 283.07 250.94 283.56 250.75 283.96C250.56 284.36 250.22 284.69 249.73 284.96C250.25 284.98 250.67 285.14 250.98 285.43C251.29 285.72 251.51 286.19 251.66 286.84L251.88 287.82C251.9 287.91 251.93 288 251.98 288.09C252.03 288.17 252.1 288.23 252.18 288.26L250.38 288.66C250.3 288.64 250.24 288.58 250.19 288.49C250.14 288.4 250.11 288.3 250.08 288.2L249.87 287.26C249.75 286.71 249.54 286.36 249.23 286.21C248.93 286.06 248.45 286.05 247.8 286.19L245.88 286.61ZM245 282.6L245.56 285.14L247.51 284.71C248.09 284.58 248.53 284.39 248.83 284.13C249.13 283.87 249.23 283.51 249.13 283.05L249.11 282.98C249.01 282.54 248.8 282.26 248.46 282.14C248.13 282.02 247.64 282.03 247 282.17L245 282.6Z" fill="#F37972"/>
<path d="M255.72 287.48C255.33 287.52 254.97 287.52 254.65 287.48C254.01 287.4 253.48 287.17 253.08 286.79C252.68 286.41 252.35 285.89 252.1 285.22L253.92 284.74C254.13 285.3 254.46 285.65 254.9 285.8C255.35 285.95 255.93 285.93 256.65 285.75C257.29 285.58 257.73 285.36 257.97 285.07C258.21 284.78 258.29 284.48 258.2 284.14C258.16 284 258.11 283.88 258.03 283.79C257.96 283.69 257.86 283.62 257.75 283.58C257.52 283.49 257.21 283.46 256.81 283.49C256.41 283.52 255.93 283.57 255.36 283.66C255.05 283.7 254.75 283.73 254.47 283.74C254.19 283.76 253.92 283.76 253.67 283.74C253.16 283.71 252.72 283.57 252.37 283.31C252.01 283.06 251.76 282.63 251.61 282.05C251.55 281.82 251.52 281.59 251.53 281.36C251.54 281.13 251.58 280.91 251.65 280.69C251.8 280.25 252.1 279.85 252.54 279.5C252.99 279.15 253.59 278.88 254.36 278.68C255.58 278.36 256.57 278.35 257.31 278.65C258.05 278.95 258.59 279.55 258.92 280.44L257.14 280.9C256.94 280.42 256.65 280.13 256.26 280.01C255.87 279.9 255.35 279.93 254.69 280.1C254.08 280.26 253.68 280.47 253.48 280.72C253.28 280.97 253.23 281.25 253.31 281.55C253.4 281.91 253.65 282.12 254.05 282.16C254.45 282.2 255.05 282.16 255.87 282.04C256.21 281.99 256.54 281.96 256.85 281.94C257.16 281.92 257.45 281.92 257.73 281.93C258.28 281.96 258.73 282.1 259.09 282.36C259.45 282.61 259.71 283.04 259.87 283.63C259.94 283.89 259.97 284.14 259.97 284.39C259.97 284.64 259.93 284.88 259.85 285.12C259.69 285.59 259.38 286.01 258.91 286.38C258.44 286.75 257.8 287.04 257 287.25C256.55 287.36 256.12 287.44 255.72 287.48Z" fill="#F37972"/>
<path d="M242.24 28.03C248.89 21.7 246.62 14.13 241.87 8.37C236.74 3.28 229.95 0 229.95 0C229.41 0.67 221.18 14.06 242.24 28.03Z" fill="#FCD3C2"/>
<path d="M258.41 19.36C258.4 19.36 245.81 31.03 263.31 49.43C279.84 40.82 259.26 18.3 258.41 19.36Z" fill="#FCD3C2"/>
<path d="M286.88 58.65C284.94 51.67 280.69 45.46 280.69 45.46C279.96 45.75 266.08 53.36 277.47 75.92C286.38 73.72 288.14 65.98 286.88 58.65Z" fill="#FCD3C2"/>
<path d="M285.11 105C303.7 105.64 297.2 75.89 295.76 76.42C295.76 76.3 279.13 80.28 285.11 105Z" fill="#FCD3C2"/>
<path d="M302.19 110.15C301.52 110 285.43 109.73 284.19 134.98C292.81 137.42 298.93 131.69 300.82 124.66C302.72 117.68 302.19 110.15 302.19 110.15Z" fill="#FCD3C2"/>
<path d="M290.44 144.93C285.91 147.07 280.61 151.71 276.11 163.84C284.1 168.5 290.44 164.14 294.79 158.08C299.34 152.06 299.38 144.32 299.68 144.4C299.69 144.4 295.25 143.01 290.44 144.93Z" fill="#FCD3C2"/>
<path d="M261.22 189.95C274.08 203.53 289.82 177.43 289 177.06C289 177.06 274.01 167.98 261.22 189.95Z" fill="#FCD3C2"/>
<path d="M239.53 210.65C243.91 218.44 252.44 218.81 258.54 214.91C264.81 211.27 269.68 205.54 269.68 205.54C269.37 205.03 257.94 193.35 239.53 210.65Z" fill="#FCD3C2"/>
<path d="M236.92 222.18C232.24 220.46 225.11 219.97 213.43 225.52C215.91 234.48 223.44 235.72 230.84 234.48C238.3 233.5 243.77 227.94 243.93 228.28C243.93 228.27 241.76 224.16 236.92 222.18Z" fill="#FCD3C2"/>
<path d="M184.57 233.63C184.62 242.98 191.45 245.78 198.89 246.08C206.23 246.25 213.52 244.39 213.36 244.03C213.36 244.03 209.05 226.73 184.57 233.63Z" fill="#FCD3C2"/>
<path d="M211.23 221.37C237.61 211.83 268.44 184.22 278.06 147.04C287.73 110.11 276.23 70.36 257.26 49.18C248.52 37.92 238.76 31.13 232.31 26.04C230 24.8 228.17 23.75 226.52 22.87C222.15 14.76 214.69 10.68 208.35 10.68C201.29 10.19 196.43 12.14 196.43 12.14C196.43 12.14 199.73 16.84 204.96 20.35C210 23.18 215.95 26.2 225.02 25.71C226.59 26.52 228.36 27.52 230.52 28.7C232.88 30.55 235.74 32.74 238.77 35.25C221.07 21.6 214.04 39.5 214.34 38.84C214.34 38.84 218.49 41.54 223.76 42.16C228.63 43.48 234.92 43.48 239.88 36.11C244.66 40.13 249.87 44.87 254.81 51.27C255.37 51.88 255.85 52.7 256.44 53.36C242.96 38.55 233.09 52.1 233.09 52.1C233.77 51.54 244.82 67.2 258.49 56.02C262.96 61.94 266.88 68.95 269.99 76.7C261.29 59 247.41 70.07 247.94 69.67C247.94 69.67 250.21 74.07 254.5 77.29C258.04 80.68 263.43 83.85 271.37 79.98C273.4 85.52 274.91 91.38 276.09 97.45C270.34 84.8 258.1 90.36 258.1 90.36C259.19 90.14 260.78 108.64 277.58 106.41C278.27 112.56 278.34 118.88 277.98 125.26C276.37 110.6 261.86 112.96 262.35 112.96C262.35 112.96 262.04 117.89 264.06 122.78C266.02 127.59 268.49 132.79 277.38 133.53C276.83 137.77 276.04 141.98 274.95 146.21C274.42 148.15 273.64 149.95 273.04 151.83C274.02 145.81 271.84 141.77 268.87 139.49C265.08 136.33 260.59 135.9 260.59 135.9C261.65 136.36 253.97 153.87 270.25 159.77C267.67 165.84 264.44 171.47 260.86 176.77C267.11 162.58 253.51 157.8 253.57 157.8C253.97 158.17 242.38 172.97 256.46 183.15C253.19 187.41 249.59 191.26 245.93 194.85C251.2 184.73 241.36 177.66 241.75 177.96C241.75 177.96 238.02 181.21 236.01 186.16C234.27 190.95 232.46 196.05 237.47 202.45C232.1 206.75 226.49 210.52 220.95 213.48C226.22 209.84 227.57 205.32 227.01 201.5C226.58 196.55 223.67 193.14 223.67 193.14C224.16 194.15 206.38 201.23 213.71 216.82C212.52 217.28 211.27 217.99 210.07 218.46C204.84 221.38 199.31 221.89 194.45 223.09C208.77 217.19 202.54 204.57 202.54 204.62C202.54 204.62 183.86 207.54 186.78 224.66C183.56 225.21 180.51 225.47 177.85 225.42C169.84 225.64 165.28 225.73 165.28 225.73V225.52C164.11 225.47 163.01 225.47 161.6 225.42C158.95 225.47 155.9 225.21 152.66 224.66C155.57 207.53 136.91 204.62 136.91 204.62C136.91 204.56 130.67 217.19 145.02 223.09C140.17 221.89 134.64 221.39 129.39 218.46C128.16 218 126.93 217.29 125.75 216.82C133.08 201.23 115.32 194.15 115.8 193.14C115.8 193.14 112.91 196.55 112.41 201.5C111.91 205.32 113.25 209.85 118.51 213.48C112.98 210.52 107.35 206.76 101.96 202.45C107.01 196.05 105.2 190.95 103.46 186.16C101.45 181.21 97.7199 177.96 97.7199 177.96C98.0999 177.66 88.27 184.73 93.54 194.85C89.84 191.26 86.2799 187.41 83.0099 183.15C97.0999 172.97 85.4799 158.17 85.8799 157.8C85.9199 157.8 72.3599 162.58 78.6299 176.77C75.0599 171.47 71.79 165.84 69.18 159.77C85.47 153.88 77.8199 136.36 78.8799 135.9C78.8799 135.9 74.4099 136.33 70.5899 139.49C67.6399 141.77 65.4499 145.81 66.4599 151.83C65.8399 149.95 65.0199 148.15 64.5199 146.21C63.3999 141.99 62.6499 137.77 62.0699 133.53C70.9799 132.79 73.44 127.6 75.42 122.78C77.43 117.89 77.0899 112.96 77.0899 112.96C77.6599 112.96 63.0999 110.6 61.5099 125.26C61.1299 118.87 61.21 112.55 61.91 106.41C78.69 108.65 80.2599 90.14 81.3599 90.36C81.3599 90.36 69.1099 84.8 63.3599 97.45C64.5299 91.39 66.0899 85.52 68.1099 79.98C76.0299 83.85 81.4199 80.68 85.0099 77.29C89.2499 74.06 91.5099 69.67 91.5099 69.67C92.0899 70.06 78.1999 58.99 69.4699 76.7C72.6199 68.95 76.5199 61.94 81.0099 56.02C94.6499 67.2 105.7 51.54 106.4 52.1C106.4 52.1 96.5399 38.55 83.0299 53.36C83.6199 52.7 84.11 51.89 84.67 51.27C89.61 44.87 94.8099 40.13 99.5899 36.11C104.58 43.48 110.86 43.48 115.71 42.16C120.97 41.54 125.1 38.84 125.1 38.84C125.44 39.51 118.39 21.6 100.69 35.25C103.75 32.75 106.6 30.55 108.94 28.7C111.1 27.51 112.92 26.52 114.45 25.71C123.53 26.2 129.45 23.18 134.49 20.35C139.77 16.84 143.06 12.14 143.06 12.14C143.06 12.14 138.16 10.19 131.15 10.68C124.78 10.68 117.3 14.77 112.96 22.87C111.28 23.75 109.45 24.79 107.16 26.04C100.68 31.13 90.9399 37.92 82.1899 49.18C63.2299 70.35 51.72 110.11 61.42 147.04C71 184.22 101.84 211.83 128.22 221.37C134.49 224.9 141.25 224.97 146.73 226.68C152.27 228.34 157.27 228.74 161.4 228.65C162.33 228.67 163.15 228.67 163.94 228.67C164.28 228.83 164.67 228.94 165.12 228.94C165.12 228.94 169.83 228.81 178.06 228.65C182.22 228.74 187.22 228.34 192.74 226.68C198.21 224.97 205.01 224.91 211.23 221.37ZM220.18 213.95C219.74 214.14 219.29 214.37 218.8 214.59C219.23 214.36 219.79 214.14 220.18 213.95Z" fill="#FCD3C2"/>
<path d="M109.48 0C109.48 0 102.66 3.28 97.5602 8.37C92.8002 14.13 90.5302 21.69 97.1702 28.03C118.22 14.06 109.99 0.67 109.48 0Z" fill="#FCD3C2"/>
<path d="M76.1099 49.44C93.6299 31.03 81.02 19.37 81 19.37C80.16 18.3 59.5499 40.82 76.1099 49.44Z" fill="#FCD3C2"/>
<path d="M61.9398 75.92C73.3198 53.36 59.4699 45.76 58.7599 45.46C58.7599 45.46 54.49 51.66 52.55 58.65C51.26 65.98 53.0398 73.72 61.9398 75.92Z" fill="#FCD3C2"/>
<path d="M54.32 105C60.29 80.28 43.6601 76.3 43.6601 76.42C42.2201 75.89 35.73 105.64 54.32 105Z" fill="#FCD3C2"/>
<path d="M55.26 134.98C54.02 109.73 37.8599 110.01 37.2199 110.15C37.2199 110.15 36.6699 117.67 38.5799 124.65C40.4999 131.69 46.58 137.42 55.26 134.98Z" fill="#FCD3C2"/>
<path d="M63.3101 163.84C58.8201 151.71 53.52 147.07 49 144.93C44.16 143.02 39.76 144.4 39.76 144.4C40.06 144.32 40.06 152.05 44.63 158.08C49 164.13 55.3201 168.5 63.3101 163.84Z" fill="#FCD3C2"/>
<path d="M50.44 177.06C49.62 177.42 65.35 203.52 78.22 189.95C65.41 167.98 50.44 177.06 50.44 177.06Z" fill="#FCD3C2"/>
<path d="M99.9 210.65C81.48 193.35 70.02 205.02 69.72 205.55C69.72 205.55 74.6 211.28 80.86 214.92C86.94 218.82 95.52 218.45 99.9 210.65Z" fill="#FCD3C2"/>
<path d="M102.49 222.18C97.64 224.16 95.49 228.27 95.49 228.27C95.62 227.94 101.11 233.5 108.58 234.47C115.97 235.71 123.55 234.47 125.95 225.51C114.28 219.97 107.14 220.46 102.49 222.18Z" fill="#FCD3C2"/>
<path d="M126.05 244.04C125.89 244.4 133.18 246.26 140.55 246.09C147.95 245.79 154.81 242.99 154.86 233.64C130.37 226.73 126.05 244.04 126.05 244.04Z" fill="#FCD3C2"/>
<path d="M141.79 87.74V72.77H148.55C150.72 72.77 152.32 73.08 153.35 73.71C154.38 74.34 154.89 75.32 154.89 76.65V76.71C154.89 77.62 154.69 78.34 154.29 78.87C153.89 79.4 153.28 79.79 152.45 80.05C153.36 80.27 154.05 80.65 154.52 81.17C154.99 81.69 155.22 82.44 155.22 83.41V83.43C155.22 84.91 154.68 86 153.6 86.69C152.52 87.38 150.9 87.73 148.75 87.73H141.79V87.74ZM144.77 75.21V78.86H148.76C149.74 78.86 150.51 78.73 151.06 78.47C151.61 78.21 151.89 77.73 151.89 77.03V76.99C151.89 76.32 151.64 75.85 151.15 75.59C150.65 75.33 149.84 75.2 148.7 75.2H144.77V75.21ZM144.77 81.27V85.15H148.38C148.86 85.15 149.28 85.13 149.66 85.1C150.04 85.07 150.36 85.01 150.62 84.94C151.17 84.81 151.55 84.6 151.76 84.31C151.97 84.02 152.09 83.65 152.09 83.2V83.18C152.09 82.45 151.82 81.95 151.27 81.68C150.72 81.41 149.8 81.27 148.5 81.27H144.77Z" fill="white"/>
<path d="M169.63 87.74H157.35V72.77H169.23V75.37H160.31V78.9H167.87V81.5H160.31V85.03H169.63V87.74Z" fill="white"/>
<path d="M175.73 87.94C175.04 87.84 174.44 87.68 173.93 87.47C172.88 87.05 172.1 86.43 171.58 85.6C171.06 84.77 170.74 83.75 170.62 82.51H173.91C174.02 83.55 174.42 84.29 175.11 84.75C175.8 85.21 176.79 85.43 178.09 85.43C179.25 85.43 180.1 85.24 180.63 84.86C181.16 84.48 181.43 83.99 181.43 83.39C181.43 83.14 181.39 82.91 181.31 82.72C181.23 82.52 181.1 82.36 180.93 82.24C180.58 81.99 180.07 81.8 179.39 81.67C178.71 81.54 177.87 81.43 176.86 81.31C176.31 81.24 175.8 81.16 175.32 81.06C174.84 80.96 174.39 80.84 173.97 80.7C173.12 80.42 172.44 79.99 171.95 79.4C171.46 78.81 171.22 77.99 171.22 76.92C171.22 76.5 171.27 76.1 171.39 75.72C171.5 75.34 171.67 74.99 171.89 74.65C172.34 73.96 173.01 73.43 173.93 73.03C174.84 72.64 175.99 72.44 177.37 72.44C179.58 72.44 181.25 72.86 182.38 73.7C183.51 74.54 184.15 75.79 184.32 77.44H181.11C180.99 76.54 180.62 75.91 180.01 75.55C179.4 75.19 178.5 75 177.31 75C176.2 75 175.43 75.17 174.99 75.52C174.55 75.87 174.33 76.31 174.33 76.84C174.33 77.5 174.66 77.95 175.32 78.19C175.98 78.44 177.02 78.63 178.45 78.79C179.05 78.86 179.62 78.95 180.15 79.05C180.68 79.15 181.18 79.28 181.64 79.42C182.55 79.71 183.26 80.15 183.76 80.74C184.26 81.33 184.52 82.16 184.52 83.24C184.52 83.7 184.46 84.14 184.35 84.56C184.24 84.98 184.06 85.37 183.83 85.74C183.35 86.47 182.64 87.04 181.68 87.45C180.72 87.86 179.51 88.07 178.06 88.07C177.18 88.09 176.42 88.04 175.73 87.94Z" fill="white"/>
<path d="M193.03 75.44V87.74H189.92V75.44H185.3V72.77H197.85V75.44H193.03Z" fill="white"/>
<path d="M100.12 106.9H92.79V112.92H89.72V97.96H92.79V103.98H100.12V97.96H103.14V112.93H100.12V106.9Z" fill="white"/>
<path d="M107.58 111.5C106.26 110.31 105.6 108.45 105.6 105.92V105.12C105.6 104.32 105.68 103.58 105.84 102.91C106 102.23 106.24 101.61 106.54 101.05C107.17 99.94 108.04 99.1 109.16 98.52C110.28 97.94 111.57 97.65 113.04 97.65C113.77 97.65 114.46 97.72 115.11 97.86C115.76 98 116.37 98.22 116.93 98.51C118.05 99.07 118.93 99.91 119.56 101.02C120.19 102.13 120.52 103.5 120.52 105.12V105.92C120.52 106.75 120.44 107.5 120.29 108.19C120.14 108.88 119.9 109.49 119.58 110.04C118.96 111.13 118.09 111.95 116.97 112.49C115.84 113.03 114.53 113.3 113.03 113.3C110.72 113.29 108.9 112.69 107.58 111.5ZM116.24 109.37C116.98 108.62 117.35 107.45 117.35 105.85V105.22C117.35 103.57 116.98 102.35 116.24 101.57C115.5 100.79 114.44 100.39 113.05 100.39C111.65 100.39 110.59 100.79 109.86 101.6C109.13 102.4 108.77 103.6 108.77 105.2V105.85C108.77 107.39 109.13 108.55 109.86 109.32C110.59 110.1 111.65 110.49 113.05 110.49C114.44 110.49 115.5 110.12 116.24 109.37Z" fill="white"/>
<path d="M127.16 113.13C126.47 113.03 125.87 112.87 125.35 112.66C124.3 112.24 123.52 111.62 123 110.79C122.48 109.96 122.16 108.94 122.03 107.7H125.33C125.44 108.74 125.84 109.48 126.53 109.94C127.22 110.4 128.21 110.62 129.51 110.62C130.67 110.62 131.52 110.43 132.05 110.05C132.58 109.67 132.85 109.18 132.85 108.58C132.85 108.33 132.81 108.1 132.73 107.91C132.65 107.71 132.52 107.55 132.35 107.43C132 107.18 131.48 106.99 130.81 106.86C130.13 106.73 129.29 106.62 128.28 106.5C127.74 106.43 127.22 106.35 126.74 106.25C126.26 106.15 125.81 106.03 125.39 105.89C124.54 105.61 123.86 105.18 123.37 104.59C122.88 104 122.64 103.18 122.64 102.11C122.64 101.69 122.7 101.29 122.81 100.91C122.92 100.53 123.09 100.18 123.31 99.84C123.76 99.15 124.44 98.62 125.35 98.22C126.26 97.83 127.41 97.63 128.79 97.63C131 97.63 132.67 98.05 133.8 98.89C134.92 99.73 135.57 100.98 135.74 102.63H132.53C132.4 101.73 132.04 101.1 131.43 100.74C130.82 100.38 129.92 100.19 128.73 100.19C127.62 100.19 126.85 100.36 126.41 100.71C125.97 101.06 125.75 101.5 125.75 102.03C125.75 102.69 126.08 103.14 126.74 103.38C127.4 103.63 128.44 103.82 129.87 103.98C130.47 104.05 131.04 104.14 131.57 104.24C132.1 104.34 132.6 104.47 133.06 104.61C133.97 104.9 134.68 105.34 135.18 105.93C135.68 106.52 135.94 107.35 135.94 108.43C135.94 108.89 135.88 109.33 135.77 109.75C135.66 110.17 135.48 110.56 135.24 110.93C134.76 111.66 134.05 112.23 133.09 112.64C132.13 113.05 130.92 113.26 129.47 113.26C128.61 113.29 127.84 113.23 127.16 113.13Z" fill="white"/>
<path d="M141.1 108.25V112.93H138.08V97.96H144.53C146.87 97.96 148.57 98.41 149.63 99.31C150.69 100.21 151.23 101.48 151.23 103.12C151.23 104.73 150.69 105.99 149.61 106.9C148.53 107.81 146.91 108.26 144.74 108.24H141.1V108.25ZM141.1 100.56V105.64H144.63C145.83 105.64 146.72 105.43 147.29 105.02C147.86 104.61 148.14 103.97 148.14 103.1C148.14 102.2 147.85 101.56 147.26 101.16C146.67 100.76 145.77 100.56 144.55 100.56H141.1Z" fill="white"/>
<path d="M153.44 112.93V97.96H156.53V112.93H153.44Z" fill="white"/>
<path d="M166.46 100.63V112.93H163.35V100.63H158.73V97.96H171.28V100.63H166.46Z" fill="white"/>
<path d="M180.39 109.61H173.53L172.23 112.93H169.02L175.32 97.96H178.51L184.93 112.93H181.76L180.39 109.61ZM176.91 101.11L174.54 107.07H179.35L176.91 101.11Z" fill="white"/>
<path d="M186.46 112.93V97.96H189.57V110.05H197.86V112.93H186.46Z" fill="white"/>
<path d="M208.92 107.26V112.93H205.92V97.96H217.42V100.67H208.92V104.51H217.04V107.26H208.92Z" fill="white"/>
<path d="M221.09 111.5C219.77 110.31 219.11 108.45 219.11 105.92V105.12C219.11 104.32 219.19 103.58 219.35 102.91C219.51 102.23 219.74 101.61 220.05 101.05C220.68 99.94 221.55 99.1 222.67 98.52C223.79 97.94 225.08 97.65 226.55 97.65C227.28 97.65 227.97 97.72 228.62 97.86C229.27 98 229.88 98.22 230.44 98.51C231.56 99.07 232.44 99.91 233.07 101.02C233.71 102.13 234.03 103.5 234.03 105.12V105.92C234.03 106.75 233.95 107.5 233.8 108.19C233.65 108.88 233.41 109.49 233.09 110.04C232.47 111.13 231.6 111.95 230.48 112.49C229.36 113.03 228.04 113.3 226.54 113.3C224.23 113.29 222.41 112.69 221.09 111.5ZM229.75 109.37C230.49 108.62 230.86 107.45 230.86 105.85V105.22C230.86 103.57 230.49 102.35 229.75 101.57C229.01 100.79 227.95 100.39 226.56 100.39C225.16 100.39 224.1 100.79 223.37 101.6C222.64 102.41 222.28 103.6 222.28 105.2V105.85C222.28 107.39 222.64 108.55 223.37 109.32C224.1 110.09 225.16 110.49 226.56 110.49C227.94 110.49 229.01 110.12 229.75 109.37Z" fill="white"/>
<path d="M239.53 107.74V112.93H236.49V97.96H243.15C245.42 97.96 247.05 98.36 248.05 99.15C249.05 99.94 249.55 101.08 249.55 102.56C249.55 103.61 249.31 104.44 248.84 105.05C248.37 105.66 247.66 106.1 246.72 106.38C247.6 106.62 248.25 107.04 248.67 107.65C249.09 108.26 249.3 109.14 249.3 110.31V112.07C249.3 112.24 249.32 112.4 249.37 112.56C249.42 112.72 249.51 112.84 249.65 112.93H246.42C246.3 112.86 246.21 112.74 246.16 112.56C246.11 112.38 246.09 112.21 246.09 112.02V110.34C246.09 109.36 245.86 108.68 245.4 108.3C244.94 107.92 244.12 107.73 242.96 107.73H239.53V107.74ZM239.53 100.56V105.12H243.01C244.05 105.12 244.87 104.95 245.48 104.62C246.09 104.29 246.39 103.7 246.39 102.88V102.75C246.39 101.97 246.13 101.41 245.6 101.07C245.08 100.73 244.24 100.57 243.09 100.57H239.53V100.56Z" fill="white"/>
<path d="M95.3199 133.44V138.12H92.3V123.15H98.75C101.09 123.15 102.79 123.6 103.85 124.5C104.91 125.4 105.45 126.67 105.45 128.31C105.45 129.92 104.91 131.18 103.83 132.09C102.75 133 101.13 133.45 98.96 133.43H95.3199V133.44ZM95.3199 125.75V130.83H98.85C100.05 130.83 100.94 130.62 101.51 130.21C102.08 129.8 102.36 129.16 102.36 128.29C102.36 127.39 102.07 126.75 101.48 126.35C100.89 125.95 99.99 125.75 98.77 125.75H95.3199Z" fill="white"/>
<path d="M119.9 138.12H107.62V123.15H119.5V125.75H110.58V129.28H118.14V131.88H110.58V135.41H119.9V138.12Z" fill="white"/>
<path d="M122.03 123.15H127.97C128.74 123.15 129.46 123.21 130.14 123.34C130.82 123.47 131.44 123.65 132.02 123.91C133.17 124.41 134.06 125.19 134.7 126.24C135.34 127.29 135.66 128.63 135.66 130.27V131.07C135.66 131.88 135.58 132.62 135.43 133.28C135.28 133.95 135.05 134.54 134.74 135.05C134.12 136.09 133.25 136.86 132.13 137.36C131.01 137.86 129.67 138.12 128.13 138.12H122.04V123.15H122.03ZM125.07 125.8V135.46H127.97C129.49 135.46 130.64 135.1 131.41 134.38C132.18 133.66 132.56 132.5 132.56 130.91V130.41C132.56 128.81 132.16 127.65 131.36 126.91C130.56 126.18 129.39 125.81 127.83 125.81H125.07V125.8Z" fill="white"/>
<path d="M138.17 138.12V123.15H141.26V138.12H138.17Z" fill="white"/>
<path d="M154.23 134.8H147.37L146.07 138.12H142.86L149.16 123.15H152.35L158.77 138.12H155.6L154.23 134.8ZM150.74 126.3L148.37 132.26H153.18L150.74 126.3Z" fill="white"/>
<path d="M164.32 125.82V138.12H161.21V125.82H156.59V123.15H169.14V125.82H164.32Z" fill="white"/>
<path d="M174.34 132.93V138.12H171.3V123.15H177.95C180.22 123.15 181.85 123.55 182.85 124.34C183.85 125.13 184.35 126.27 184.35 127.75C184.35 128.8 184.11 129.63 183.64 130.24C183.16 130.85 182.46 131.29 181.52 131.57C182.4 131.81 183.05 132.23 183.47 132.84C183.89 133.45 184.1 134.33 184.1 135.5V137.26C184.1 137.43 184.13 137.59 184.17 137.75C184.22 137.91 184.31 138.03 184.45 138.12H181.22C181.09 138.05 181.01 137.93 180.96 137.75C180.91 137.57 180.89 137.4 180.89 137.21V135.53C180.89 134.55 180.66 133.87 180.2 133.49C179.74 133.11 178.93 132.92 177.76 132.92H174.34V132.93ZM174.34 125.75V130.31H177.83C178.87 130.31 179.69 130.14 180.29 129.81C180.9 129.47 181.2 128.89 181.2 128.07V127.94C181.2 127.16 180.94 126.6 180.41 126.26C179.88 125.92 179.05 125.76 177.9 125.76H174.34V125.75Z" fill="white"/>
<path d="M186.91 138.12V123.15H190V138.12H186.91Z" fill="white"/>
<path d="M207.02 134C206.84 134.56 206.61 135.08 206.33 135.55C205.76 136.49 204.94 137.21 203.88 137.71C202.82 138.21 201.48 138.47 199.86 138.47C197.57 138.47 195.76 137.86 194.45 136.65C193.14 135.44 192.49 133.6 192.49 131.14V130.28C192.49 129.48 192.57 128.75 192.72 128.08C192.87 127.41 193.11 126.79 193.43 126.23C194.05 125.12 194.92 124.28 196.06 123.7C197.2 123.12 198.53 122.83 200.06 122.83C202.09 122.83 203.74 123.32 205 124.3C206.27 125.28 207.04 126.76 207.32 128.73H204.07C203.93 127.74 203.54 126.96 202.89 126.41C202.25 125.86 201.3 125.58 200.06 125.58C198.65 125.58 197.56 125.98 196.79 126.77C196.02 127.56 195.63 128.77 195.63 130.41V131.04C195.63 132.55 196.01 133.69 196.76 134.46C197.52 135.23 198.6 135.61 200.01 135.61C201.34 135.61 202.32 135.31 202.95 134.72C203.58 134.13 203.97 133.28 204.11 132.19H207.4C207.34 132.84 207.21 133.45 207.02 134Z" fill="white"/>
<path d="M213.93 138.32C213.24 138.22 212.64 138.06 212.12 137.85C211.07 137.43 210.29 136.81 209.77 135.98C209.25 135.15 208.93 134.13 208.8 132.89H212.1C212.21 133.93 212.61 134.67 213.3 135.13C213.99 135.59 214.98 135.81 216.28 135.81C217.44 135.81 218.29 135.62 218.82 135.24C219.35 134.86 219.62 134.37 219.62 133.77C219.62 133.52 219.58 133.29 219.5 133.1C219.42 132.9 219.29 132.74 219.12 132.62C218.77 132.37 218.25 132.18 217.58 132.05C216.9 131.92 216.06 131.81 215.05 131.69C214.51 131.62 213.99 131.54 213.51 131.44C213.03 131.34 212.58 131.22 212.16 131.08C211.31 130.8 210.63 130.37 210.14 129.78C209.65 129.19 209.41 128.37 209.41 127.3C209.41 126.88 209.47 126.48 209.58 126.1C209.69 125.72 209.86 125.37 210.08 125.03C210.53 124.34 211.21 123.81 212.12 123.41C213.03 123.02 214.18 122.82 215.56 122.82C217.77 122.82 219.44 123.24 220.57 124.08C221.69 124.92 222.34 126.17 222.51 127.82H219.3C219.17 126.92 218.81 126.29 218.2 125.93C217.59 125.57 216.69 125.38 215.5 125.38C214.39 125.38 213.62 125.55 213.18 125.9C212.74 126.25 212.52 126.69 212.52 127.22C212.52 127.88 212.85 128.33 213.51 128.57C214.17 128.82 215.21 129.01 216.64 129.17C217.24 129.24 217.81 129.33 218.34 129.43C218.87 129.53 219.37 129.66 219.83 129.8C220.74 130.09 221.45 130.53 221.95 131.12C222.45 131.71 222.71 132.54 222.71 133.62C222.71 134.08 222.65 134.52 222.54 134.94C222.43 135.36 222.25 135.75 222.01 136.12C221.53 136.85 220.82 137.42 219.86 137.83C218.9 138.24 217.69 138.45 216.24 138.45C215.38 138.48 214.62 138.42 213.93 138.32Z" fill="white"/>
<path d="M242.5 138.08C241.76 137.87 241.02 137.53 240.28 137.05C239.45 137.5 238.61 137.84 237.75 138.09C236.89 138.33 236.03 138.46 235.18 138.46C234.63 138.46 234.12 138.42 233.64 138.34C233.16 138.26 232.7 138.15 232.28 138.01C231.46 137.7 230.81 137.25 230.35 136.65C229.89 136.05 229.66 135.29 229.66 134.36C229.66 133.06 230.08 132.04 230.93 131.32C231.78 130.59 232.94 130.03 234.43 129.62C234.3 129.23 234.21 128.85 234.14 128.48C234.07 128.11 234.04 127.76 234.04 127.42C234.04 126.93 234.09 126.48 234.2 126.08C234.31 125.67 234.46 125.3 234.65 124.95C235.06 124.28 235.62 123.76 236.33 123.41C237.04 123.05 237.85 122.87 238.74 122.87C239.16 122.87 239.55 122.91 239.92 123C240.28 123.08 240.61 123.2 240.91 123.36C241.51 123.7 241.97 124.14 242.3 124.69C242.62 125.24 242.78 125.86 242.78 126.53C242.78 127.59 242.4 128.47 241.64 129.16C240.88 129.85 239.62 130.47 237.87 131C238.02 131.24 238.19 131.48 238.37 131.72C238.55 131.97 238.75 132.21 238.96 132.44C239.24 132.78 239.51 133.08 239.79 133.35C240.07 133.62 240.33 133.88 240.6 134.12C241.62 133.34 242.5 132.39 243.24 131.29C243.98 130.19 244.53 129.06 244.88 127.91H247.73C247.24 129.44 246.55 130.84 245.65 132.12C244.76 133.4 243.75 134.52 242.63 135.47C243.03 135.65 243.43 135.78 243.8 135.86C244.18 135.94 244.56 135.98 244.93 135.98C245.57 135.98 246.08 135.89 246.45 135.7C246.82 135.51 247.16 135.27 247.47 134.98V137.65C247.2 137.9 246.86 138.09 246.43 138.23C246 138.36 245.5 138.43 244.91 138.43C244.04 138.39 243.24 138.29 242.5 138.08ZM236.9 135.86C237.38 135.76 237.86 135.61 238.32 135.43C238.08 135.19 237.84 134.94 237.6 134.67C237.36 134.4 237.11 134.12 236.86 133.81C236.58 133.49 236.31 133.15 236.06 132.78C235.81 132.42 235.58 132.05 235.37 131.67C234.39 131.95 233.69 132.27 233.26 132.61C232.83 132.96 232.61 133.42 232.58 134C232.58 134.7 232.83 135.21 233.34 135.53C233.84 135.85 234.54 136.01 235.44 136.01C235.93 136.02 236.42 135.97 236.9 135.86ZM236.62 128.1C236.68 128.39 236.75 128.68 236.85 128.99C237.28 128.88 237.67 128.77 238.01 128.65C238.35 128.54 238.64 128.43 238.88 128.31C239.38 128.07 239.74 127.81 239.94 127.52C240.14 127.23 240.24 126.89 240.24 126.48C240.24 126.05 240.09 125.7 239.8 125.43C239.51 125.16 239.11 125.03 238.62 125.03C238 125.03 237.5 125.23 237.11 125.63C236.72 126.03 236.52 126.57 236.52 127.26C236.54 127.53 236.57 127.81 236.62 128.1Z" fill="white"/>
<path d="M104.82 159.53C104.61 160.76 104.06 161.76 103.18 162.52C102.3 163.28 101.05 163.66 99.4399 163.66C97.3699 163.66 95.73 163.08 94.53 161.91C93.32 160.74 92.72 158.9 92.72 156.4V155.5C92.72 154.69 92.8 153.94 92.95 153.25C93.1 152.56 93.34 151.95 93.66 151.4C94.29 150.28 95.17 149.44 96.29 148.87C97.41 148.3 98.74 148.02 100.25 148.02C102.33 148.02 103.99 148.49 105.22 149.42C106.45 150.35 107.16 151.73 107.34 153.54H104C103.9 152.73 103.56 152.06 102.99 151.55C102.42 151.03 101.51 150.77 100.26 150.77C98.82 150.77 97.72 151.16 96.97 151.94C96.22 152.72 95.85 153.93 95.85 155.58V156.34C95.84 157.92 96.19 159.09 96.9 159.85C97.61 160.61 98.69 160.98 100.13 160.98C101.5 160.98 102.52 160.7 103.18 160.13C103.84 159.56 104.22 158.84 104.3 157.96H99.75V155.38H107.41V163.32H105L104.82 159.53Z" fill="white"/>
<path d="M113.16 163.31V157.29L107.47 148.35H111.02L114.82 154.61L118.85 148.35H122.4L116.36 157.33V163.31H113.16Z" fill="white"/>
<path d="M126.72 163.31H123.78V148.34H126.78L134.25 158.48L134.52 159.03L134.48 158.59V148.35H137.4V163.32H134.52L126.94 153.08L126.67 152.56L126.71 152.87V163.31H126.72Z" fill="white"/>
<path d="M152.75 163.31H140.47V148.34H152.35V150.94H143.43V154.47H150.99V157.07H143.43V160.6H152.75V163.31Z" fill="white"/>
<path d="M168.2 159.2C168.02 159.76 167.79 160.28 167.51 160.75C166.94 161.69 166.12 162.41 165.06 162.91C164 163.41 162.66 163.67 161.04 163.67C158.75 163.67 156.94 163.06 155.64 161.85C154.33 160.64 153.68 158.8 153.68 156.34V155.48C153.68 154.68 153.76 153.95 153.91 153.28C154.06 152.61 154.3 151.99 154.62 151.43C155.24 150.32 156.11 149.48 157.25 148.9C158.39 148.32 159.72 148.03 161.25 148.03C163.28 148.03 164.93 148.52 166.19 149.5C167.46 150.48 168.23 151.96 168.51 153.93H165.26C165.12 152.94 164.73 152.16 164.08 151.61C163.44 151.06 162.49 150.78 161.25 150.78C159.84 150.78 158.74 151.18 157.97 151.97C157.2 152.76 156.82 153.97 156.82 155.61V156.24C156.82 157.75 157.2 158.89 157.95 159.66C158.71 160.43 159.79 160.81 161.2 160.81C162.53 160.81 163.51 160.51 164.14 159.92C164.77 159.33 165.15 158.48 165.29 157.39H168.59C168.51 158.03 168.38 158.64 168.2 159.2Z" fill="white"/>
<path d="M172.3 161.88C170.98 160.69 170.32 158.83 170.32 156.3V155.5C170.32 154.7 170.4 153.96 170.56 153.29C170.72 152.61 170.96 151.99 171.26 151.43C171.89 150.32 172.76 149.48 173.88 148.9C175 148.32 176.29 148.03 177.76 148.03C178.49 148.03 179.18 148.1 179.83 148.24C180.48 148.38 181.09 148.6 181.65 148.89C182.77 149.45 183.65 150.29 184.28 151.4C184.91 152.51 185.24 153.88 185.24 155.5V156.3C185.24 157.13 185.16 157.88 185.01 158.57C184.86 159.26 184.62 159.87 184.3 160.42C183.68 161.51 182.81 162.33 181.69 162.87C180.56 163.41 179.25 163.68 177.75 163.68C175.44 163.67 173.62 163.07 172.3 161.88ZM180.96 159.75C181.7 159 182.07 157.83 182.07 156.23V155.6C182.07 153.95 181.7 152.73 180.96 151.95C180.22 151.17 179.16 150.77 177.77 150.77C176.37 150.77 175.31 151.17 174.58 151.98C173.85 152.78 173.49 153.98 173.49 155.58V156.23C173.49 157.77 173.85 158.93 174.58 159.7C175.31 160.48 176.37 160.87 177.77 160.87C179.16 160.88 180.22 160.5 180.96 159.75Z" fill="white"/>
<path d="M187.7 163.31V148.34H190.81V160.43H199.1V163.31H187.7Z" fill="white"/>
<path d="M202.19 161.88C200.87 160.69 200.21 158.83 200.21 156.3V155.5C200.21 154.7 200.29 153.96 200.45 153.29C200.61 152.61 200.85 151.99 201.15 151.43C201.78 150.32 202.65 149.48 203.77 148.9C204.89 148.32 206.18 148.03 207.65 148.03C208.38 148.03 209.07 148.1 209.72 148.24C210.37 148.38 210.98 148.6 211.54 148.89C212.66 149.45 213.54 150.29 214.17 151.4C214.8 152.51 215.13 153.88 215.13 155.5V156.3C215.13 157.13 215.05 157.88 214.9 158.57C214.75 159.26 214.51 159.87 214.19 160.42C213.57 161.51 212.7 162.33 211.58 162.87C210.45 163.41 209.14 163.68 207.64 163.68C205.33 163.67 203.52 163.07 202.19 161.88ZM210.85 159.75C211.59 159 211.96 157.83 211.96 156.23V155.6C211.96 153.95 211.59 152.73 210.85 151.95C210.11 151.17 209.05 150.77 207.66 150.77C206.26 150.77 205.2 151.17 204.47 151.98C203.74 152.78 203.38 153.98 203.38 155.58V156.23C203.38 157.77 203.74 158.93 204.47 159.7C205.2 160.48 206.26 160.87 207.66 160.87C209.05 160.88 210.11 160.5 210.85 159.75Z" fill="white"/>
<path d="M229.39 159.53C229.18 160.76 228.63 161.76 227.75 162.52C226.87 163.28 225.62 163.66 224.01 163.66C221.94 163.66 220.3 163.08 219.1 161.91C217.9 160.74 217.3 158.9 217.3 156.4V155.5C217.3 154.69 217.38 153.94 217.53 153.25C217.68 152.56 217.92 151.95 218.24 151.4C218.87 150.28 219.75 149.44 220.87 148.87C221.99 148.3 223.32 148.02 224.83 148.02C226.92 148.02 228.57 148.49 229.81 149.42C231.04 150.35 231.75 151.73 231.93 153.54H228.59C228.49 152.73 228.16 152.06 227.58 151.55C227.01 151.03 226.1 150.77 224.85 150.77C223.41 150.77 222.31 151.16 221.56 151.94C220.81 152.72 220.44 153.93 220.44 155.58V156.34C220.43 157.92 220.78 159.09 221.49 159.85C222.2 160.61 223.28 160.98 224.72 160.98C226.09 160.98 227.11 160.7 227.77 160.13C228.44 159.56 228.81 158.84 228.89 157.96H224.34V155.38H232V163.32H229.59L229.39 159.53Z" fill="white"/>
<path d="M237.72 163.31V157.29L232.03 148.35H235.58L239.38 154.61L243.41 148.35H246.96L240.91 157.33V163.31H237.72Z" fill="white"/>
<path d="M129.89 188.5V173.53H132.98V188.5H129.89Z" fill="white"/>
<path d="M139.02 188.5H136.08V173.53H139.08L146.55 183.67L146.82 184.22L146.78 183.78V173.54H149.7V188.51H146.82L139.24 178.27L138.97 177.74L139.01 178.06V188.5H139.02Z" fill="white"/>
<path d="M168.74 185.18H161.88L160.58 188.5H157.37L163.67 173.53H166.86L173.28 188.5H170.11L168.74 185.18ZM165.26 176.68L162.89 182.64H167.7L165.26 176.68Z" fill="white"/>
<path d="M178.78 188.7C178.09 188.6 177.49 188.44 176.98 188.23C175.93 187.81 175.15 187.19 174.63 186.36C174.11 185.53 173.79 184.51 173.67 183.27H176.96C177.07 184.31 177.47 185.05 178.16 185.51C178.85 185.97 179.84 186.19 181.14 186.19C182.3 186.19 183.15 186 183.68 185.62C184.21 185.24 184.48 184.75 184.48 184.15C184.48 183.9 184.44 183.67 184.36 183.48C184.28 183.28 184.15 183.12 183.98 183C183.63 182.75 183.12 182.56 182.44 182.43C181.76 182.3 180.92 182.18 179.91 182.07C179.36 182 178.85 181.92 178.37 181.82C177.89 181.72 177.44 181.6 177.02 181.46C176.17 181.18 175.49 180.75 175 180.16C174.51 179.57 174.27 178.75 174.27 177.68C174.27 177.26 174.32 176.86 174.44 176.48C174.55 176.1 174.72 175.75 174.94 175.41C175.39 174.72 176.06 174.19 176.98 173.79C177.9 173.39 179.04 173.2 180.42 173.2C182.63 173.2 184.3 173.62 185.43 174.46C186.56 175.3 187.2 176.54 187.37 178.2H184.16C184.04 177.3 183.67 176.67 183.06 176.31C182.45 175.95 181.55 175.76 180.36 175.76C179.25 175.76 178.48 175.94 178.04 176.29C177.6 176.64 177.38 177.08 177.38 177.61C177.38 178.27 177.71 178.72 178.37 178.96C179.03 179.21 180.07 179.41 181.5 179.56C182.1 179.63 182.67 179.72 183.2 179.82C183.73 179.92 184.23 180.05 184.69 180.19C185.6 180.48 186.31 180.92 186.81 181.51C187.31 182.1 187.57 182.93 187.57 184.01C187.57 184.47 187.51 184.91 187.4 185.33C187.29 185.75 187.11 186.14 186.88 186.5C186.4 187.23 185.69 187.8 184.73 188.21C183.77 188.62 182.56 188.83 181.11 188.83C180.23 188.86 179.46 188.81 178.78 188.7Z" fill="white"/>
<path d="M189.74 188.5V173.53H192.83V188.5H189.74Z" fill="white"/>
<path d="M205.8 185.18H198.93L197.63 188.5H194.42L200.72 173.53H203.91L210.33 188.5H207.16L205.8 185.18ZM202.31 176.68L199.94 182.64H204.75L202.31 176.68Z" fill="white"/>
<path d="M143.47 51.76V49.65C143.47 48.84 143.63 48.15 143.95 47.59C144.27 47.03 144.7 46.56 145.26 46.18C145.8 45.8 146.42 45.48 147.13 45.21C147.83 44.94 148.56 44.69 149.32 44.46C149.74 44.34 150.13 44.21 150.5 44.08C150.87 43.95 151.2 43.83 151.51 43.7C152.16 43.46 152.67 43.17 153.03 42.85C153.4 42.53 153.58 42.12 153.58 41.63C153.58 40.93 153.32 40.4 152.79 40.05C152.26 39.7 151.47 39.52 150.42 39.52C149.19 39.52 148.26 39.78 147.64 40.29C147.02 40.8 146.71 41.54 146.71 42.5V42.78H143.69V42.42C143.69 40.69 144.26 39.36 145.4 38.42C146.54 37.48 148.23 37.01 150.48 37.01C151.18 37.01 151.82 37.06 152.41 37.16C152.99 37.26 153.5 37.41 153.95 37.6C154.86 37.99 155.53 38.53 155.96 39.21C156.39 39.89 156.61 40.67 156.61 41.55C156.61 42.02 156.55 42.46 156.43 42.85C156.31 43.24 156.13 43.59 155.88 43.9C155.41 44.51 154.75 45.01 153.91 45.41C153.07 45.81 152.11 46.17 151.03 46.49C149.76 46.87 148.76 47.23 148.04 47.58C147.32 47.93 146.92 48.42 146.85 49.04H156.5V51.74H143.47V51.76Z" fill="white"/>
<path d="M160.12 50.35C158.86 49.18 158.23 47.39 158.23 44.99V44.24C158.23 43.46 158.3 42.74 158.45 42.08C158.6 41.42 158.81 40.83 159.1 40.29C159.68 39.22 160.5 38.41 161.56 37.85C162.62 37.29 163.86 37.01 165.28 37.01C165.98 37.01 166.64 37.08 167.25 37.21C167.86 37.35 168.43 37.55 168.97 37.84C170.04 38.38 170.87 39.19 171.47 40.26C172.07 41.33 172.37 42.66 172.37 44.22V44.99C172.37 45.79 172.29 46.51 172.15 47.17C172 47.83 171.78 48.42 171.48 48.94C170.89 49.99 170.06 50.79 169 51.31C167.94 51.84 166.71 52.1 165.3 52.1C163.11 52.1 161.38 51.52 160.12 50.35ZM168.26 48.33C168.96 47.61 169.3 46.47 169.3 44.9V44.31C169.3 42.74 168.96 41.58 168.27 40.81C167.58 40.04 166.59 39.66 165.31 39.66C163.98 39.66 162.99 40.05 162.32 40.82C161.65 41.59 161.32 42.75 161.32 44.31V44.92C161.32 46.41 161.65 47.53 162.31 48.28C162.97 49.03 163.97 49.4 165.29 49.4C166.57 49.4 167.56 49.05 168.26 48.33Z" fill="white"/>
<path d="M173.34 51.76V48.92H176.77V42.03H174.4V39.74C175.37 39.67 176.07 39.45 176.5 39.06C176.93 38.67 177.2 38.09 177.32 37.31H179.75V48.93H183.01V51.77H173.34V51.76Z" fill="white"/>
<path d="M184.92 51.76C185.27 50.6 185.73 49.44 186.31 48.27C186.88 47.11 187.52 46 188.21 44.95C188.91 43.91 189.62 42.96 190.32 42.11C191.02 41.26 191.68 40.57 192.29 40.04H183.06V37.3H195.95V39.47C195.18 40.16 194.42 40.98 193.67 41.94C192.92 42.9 192.21 43.93 191.55 45.04C190.89 46.15 190.31 47.28 189.81 48.43C189.31 49.58 188.92 50.69 188.65 51.76H184.92Z" fill="white"/>
</svg>
