<svg width="240" height="242" viewBox="0 0 240 242" fill="none" xmlns="http://www.w3.org/2000/svg">
<g clip-path="url(#clip0)">
<path d="M211.701 51.7999V200.4C211.701 200.9 211.701 201.3 211.601 201.7V201.8C210.901 206.1 207.201 209.3 202.801 209.3H36.6005C31.7005 209.3 27.7005 205.3 27.7005 200.4V51.7999C27.7005 23.9999 50.3005 1.3999 78.1005 1.3999H161.201C189.101 1.3999 211.701 23.9999 211.701 51.7999Z" fill="#E8E7F4"/>
<path d="M100.5 143.7C99.3001 144.9 95.6001 148.7 95.6001 148.7C95.0001 149.3 94.2001 149.8 93.5001 149.8C92.6001 149.8 91.8001 149.3 91.1001 148.7C89.2001 147.1 87.6001 145.5 85.9001 143.7C83.7001 141.4 83.7001 137.9 85.9001 135.7C87.6001 134 90.4001 134 92.5001 135.7C93.1001 136.2 93.6001 136.3 94.2001 135.7C96.0001 134 98.7001 134 100.5 135.7C102.8 137.9 102.7 141.4 100.5 143.7Z" fill="#F37972"/>
<path d="M188.2 43.8V121.6H159.5L159 124L158.3 127.1H102.8C97.6004 127.1 93.3004 122.9 93.3004 117.6V43.8C93.3004 33.2 97.2004 22.9 104.2 14.9C108.4 10.2 113.4 6.4 119.1 3.9C124.7 1.4 130.9 0 137.2 0H144.4C157 0 169 5.4 177.3 14.9C184.4 22.9 188.2 33.2 188.2 43.8Z" fill="#205CAA"/>
<path d="M160 127.1H158.4L159 124L160 127.1Z" fill="#205CAA"/>
<path d="M211.7 145.7V199.2C211.7 200.1 211.7 201 211.6 201.8V201.9C211.4 204.5 210.9 207 210.2 209.4C205.8 223.8 192.5 234.2 176.7 234.2H142.8V169.1L157.8 164L160.1 163.2L173.3 158.7L182 155.8L187.2 154L189.5 153.2L209.5 146.4L211.7 145.7Z" fill="#91BDE5"/>
<path d="M172.901 47.1001C174.201 48.4001 174.201 50.6001 172.901 51.9001L171.801 53.0001C170.501 54.3001 168.301 54.3001 167.001 53.0001L172.001 58.0001C173.301 59.3001 173.301 61.5001 172.001 62.8001L170.901 63.9001C169.601 65.2001 167.401 65.2001 166.101 63.9001L167.401 65.2001L162.201 70.4001C153.701 78.9001 140.001 78.9001 131.601 70.4001L126.401 65.2001L125.101 66.5001C122.801 68.8001 119.401 67.2001 118.501 64.0001C117.701 61.0001 115.501 54.3001 115.501 54.3001L102.201 41.0001L117.301 25.9001C120.201 23.0001 125.001 23.0001 127.901 25.9001L142.101 40.1001C143.401 41.4001 145.601 41.4001 146.901 40.1001L148.001 39.0001C149.301 37.7001 149.301 35.5001 148.001 34.2001L145.301 31.5001C144.001 30.2001 144.001 28.0001 145.301 26.7001L146.401 25.6001C147.701 24.3001 149.901 24.3001 151.201 25.6001L161.001 35.4001C162.301 36.7001 164.501 36.7001 165.801 35.4001L169.601 31.6001L172.901 47.1001Z" fill="#FCD3C1"/>
<path d="M211.7 112.4V115.4C211.6 127.6 209.8 138.7 209.8 145.7C209.8 169.4 176.3 163.2 176.3 163.2L140.8 108.5L140.5 108.1C140.5 108.1 140.6 108 140.8 107.9C141.2 107.6 142.1 107.1 143.2 106.3C148.2 102.8 158.9 94.5999 163 85.1999C164.2 82.3999 164.8 79.5999 164.6 76.6999C163.7 65.1999 140.8 51.8999 140.8 51.8999C167.5 51.8999 189.9 60.6999 200.3 74.2999C202.9 77.6999 205.1 81.3999 206.7 85.2999C210.3 93.8999 211.5 103.4 211.7 112.4Z" fill="#FCD3C1"/>
<path d="M142.7 234.2C169.762 234.2 191.7 212.262 191.7 185.2C191.7 158.138 169.762 136.2 142.7 136.2C115.638 136.2 93.6996 158.138 93.6996 185.2C93.6996 212.262 115.638 234.2 142.7 234.2Z" fill="#91BDE5"/>
<path d="M138.4 141.7C129.7 131.8 130.7 116.8 140.6 108.1C150.5 99.3999 165.5 100.4 174.2 110.3C182.9 120.2 181.9 135.2 172 143.9C170.9 144.9 169.7 145.7 168.5 146.5C167.2 146.9 165.9 147.5 164.7 148.3C155.6 151.6 145.1 149.3 138.4 141.7Z" fill="#91BDE5"/>
<path d="M123.4 53.8998C123.1 54.1998 122.5 54.1998 122.1 53.8998L119.4 51.1998C119.1 50.8998 119.1 50.2998 119.4 49.8998C119.7 49.5998 120.3 49.5998 120.7 49.8998L123.4 52.5998C123.8 52.9998 123.8 53.5998 123.4 53.8998Z" fill="#205CAA"/>
<path d="M144.5 41.1001H101.9L122.8 20.1001L144.5 41.1001Z" fill="#205CAA"/>
<path d="M161.201 35.2998L188.201 63.7998L175.901 27.2998L161.201 35.2998Z" fill="#205CAA"/>
<path d="M211.7 112.4V173.8H140.8V108C141.2 107.7 142.1 107.2 143.2 106.4C148.2 102.9 158.8 94.6998 162.8 85.2998H206.7C210.3 93.8998 211.5 103.4 211.7 112.4Z" fill="#91BDE5"/>
<path d="M188.201 63.7999C188.201 63.7999 161.201 64.2999 161.201 35.3999H185.001L188.201 63.7999Z" fill="#205CAA"/>
<path d="M188.2 171.3C188.6 185.2 177.4 196.6 163.5 196.6H127.4C121.8 196.6 117.3 192.1 117.3 186.5C117.3 182.4 119.8 178.8 123.4 177.2H123.3C121.6 177.2 120.3 175.8 120.3 174.2C120.3 172.5 121.7 171.2 123.3 171.2L188.2 171.3Z" fill="#FCD3C1"/>
<path d="M134.9 59.6001C137 63.5001 136.3 68.5001 133 71.8001C129.7 75.1001 124.7 75.7001 120.8 73.7001" stroke="#205CAA" stroke-width="2.9919" stroke-miterlimit="10" stroke-linecap="round"/>
<path d="M161.6 41.0998C161.6 41.0998 161.9 36.0998 151.4 25.5998C140.9 15.0998 158.9 25.5998 158.9 25.5998L165 34.1998L161.6 41.0998Z" fill="#205CAA"/>
<path d="M189 166.9C188.8 167.1 188.5 167.2 188.2 167.2C187.6 167.2 187 166.7 187 166V125.2C187 124.6 187.5 124 188.2 124C188.8 124 189.4 124.5 189.4 125.2V166C189.4 166.4 189.3 166.7 189 166.9Z" fill="#8D9FD1"/>
<path d="M159.7 166.9C159.5 167.1 159.2 167.2 158.9 167.2C158.3 167.2 157.7 166.7 157.7 166V139C157.7 138.4 158.2 137.8 158.9 137.8C159.5 137.8 160.1 138.3 160.1 139V166C160 166.4 159.9 166.7 159.7 166.9Z" fill="#8D9FD1"/>
<path d="M11.1 241.4H228.6C234.7 241.4 239.7 236.4 239.7 230.3V220.5C239.7 214.4 234.7 209.4 228.6 209.4H11.1C5 209.4 0 214.4 0 220.5V230.3C0 236.4 5 241.4 11.1 241.4Z" fill="#FCD3C1"/>
<path d="M84.3005 1.3999C84.3005 1.3999 91.6005 76.6999 27.7005 76.6999" stroke="white" stroke-miterlimit="10"/>
<path d="M38.7 83.5001C39.9151 83.5001 40.9001 82.5151 40.9001 81.3001C40.9001 80.0851 39.9151 79.1001 38.7 79.1001C37.485 79.1001 36.5 80.0851 36.5 81.3001C36.5 82.5151 37.485 83.5001 38.7 83.5001Z" fill="white"/>
<path d="M46.5998 71.6998C47.8149 71.6998 48.7998 70.7148 48.7998 69.4998C48.7998 68.2848 47.8149 67.2998 46.5998 67.2998C45.3848 67.2998 44.3998 68.2848 44.3998 69.4998C44.3998 70.7148 45.3848 71.6998 46.5998 71.6998Z" fill="white"/>
<path d="M61.1005 74.7999C62.3155 74.7999 63.3005 73.8149 63.3005 72.5999C63.3005 71.3849 62.3155 70.3999 61.1005 70.3999C59.8855 70.3999 58.9005 71.3849 58.9005 72.5999C58.9005 73.8149 59.8855 74.7999 61.1005 74.7999Z" fill="white"/>
<path d="M66.2005 59.1998C67.4155 59.1998 68.4005 58.2148 68.4005 56.9998C68.4005 55.7848 67.4155 54.7998 66.2005 54.7998C64.9855 54.7998 64.0005 55.7848 64.0005 56.9998C64.0005 58.2148 64.9855 59.1998 66.2005 59.1998Z" fill="white"/>
<path d="M79.4003 53.9C80.6153 53.9 81.6003 52.915 81.6003 51.7C81.6003 50.485 80.6153 49.5 79.4003 49.5C78.1853 49.5 77.2003 50.485 77.2003 51.7C77.2003 52.915 78.1853 53.9 79.4003 53.9Z" fill="white"/>
<path d="M76.9996 37.6002C78.2147 37.6002 79.1996 36.6152 79.1996 35.4002C79.1996 34.1852 78.2147 33.2002 76.9996 33.2002C75.7846 33.2002 74.7996 34.1852 74.7996 35.4002C74.7996 36.6152 75.7846 37.6002 76.9996 37.6002Z" fill="white"/>
<path d="M87.5001 26.6002C88.7152 26.6002 89.7001 25.6152 89.7001 24.4002C89.7001 23.1852 88.7152 22.2002 87.5001 22.2002C86.2851 22.2002 85.3001 23.1852 85.3001 24.4002C85.3001 25.6152 86.2851 26.6002 87.5001 26.6002Z" fill="white"/>
<path d="M80.3001 12.4C81.5151 12.4 82.5001 11.415 82.5001 10.2C82.5001 8.98497 81.5151 8 80.3001 8C79.085 8 78.1001 8.98497 78.1001 10.2C78.1001 11.415 79.085 12.4 80.3001 12.4Z" fill="white"/>
<path d="M27.7005 180.3H58.9005V209.4" stroke="white" stroke-miterlimit="10"/>
<path d="M40.5635 179.9L50.3635 170.4C54.0635 166.8 51.5635 160.5 46.3635 160.5C43.1635 160.5 40.5635 163.1 40.5635 166.3V179.9Z" stroke="white" stroke-miterlimit="10" stroke-linecap="round" stroke-linejoin="round"/>
<path d="M40.5633 180.3L30.7633 170.8C27.0633 167.2 29.5633 160.9 34.7633 160.9C37.9633 160.9 40.5633 163.5 40.5633 166.7V180.3Z" stroke="white" stroke-miterlimit="10" stroke-linecap="round" stroke-linejoin="round"/>
<path d="M40.5635 180.3V209.4" stroke="white" stroke-miterlimit="10" stroke-linecap="round" stroke-linejoin="round"/>
</g>
<defs>
<clipPath id="clip0">
<rect width="239.7" height="241.4" fill="white"/>
</clipPath>
</defs>
</svg>
