<svg width="240" height="241" viewBox="0 0 240 241" fill="none" xmlns="http://www.w3.org/2000/svg">
<g clip-path="url(#clip0)">
<path d="M36.6 208.003H202.7C207.6 208.003 211.6 204.003 211.6 199.103V50.4034C211.6 22.5034 189 0.00341797 161.2 0.00341797H78.1C50.3 0.00341797 27.7 22.6034 27.7 50.4034V199.003C27.7 204.003 31.7 208.003 36.6 208.003Z" fill="#E8E7F4"/>
<path d="M168.9 152.703H104.9V219.003H168.9V152.703Z" fill="#8D9FD1"/>
<path d="M11.1 240.003H228.6C234.7 240.003 239.7 235.003 239.7 228.903V219.103C239.7 213.003 234.7 208.003 228.6 208.003H11.1C5 208.003 0 213.003 0 219.103V228.903C0 235.003 5 240.003 11.1 240.003Z" fill="#FCD3C1"/>
<path d="M87.5 64.8034L71.1 81.2034L107.6 117.703C115.4 125.503 128.1 125.503 135.9 117.703L138.1 115.503L90.9 68.3034L87.5 64.8034Z" fill="#8D9FD1"/>
<path d="M185.9 194.403L202.3 178.003L165.8 141.503C158 133.703 145.3 133.703 137.5 141.503L135.3 143.703L182.5 190.903L185.9 194.403Z" fill="#8D9FD1"/>
<path d="M123.9 208.303H149.8C160.3 208.303 168.8 199.803 168.8 189.303V153.203C168.8 142.703 160.3 134.203 149.8 134.203L104.4 110.303L104.9 189.303C104.9 199.803 113.4 208.303 123.9 208.303Z" fill="#8D9FD1"/>
<path d="M107.4 135.403L120.8 148.803C129.6 157.603 143.9 157.603 152.7 148.803L166.9 134.603C175.7 125.803 175.7 111.503 166.9 102.703L153.5 89.3034C144.7 80.5034 130.4 80.5034 121.6 89.3034L107.4 103.503C98.6 112.303 98.6 126.603 107.4 135.403Z" fill="#FCD3C1"/>
<path d="M135.9 122.003C136.3 122.403 136.9 122.403 137.3 122.003L140.3 119.003C140.7 118.603 140.7 118.003 140.3 117.603C139.9 117.203 139.3 117.203 138.9 117.603L135.9 120.603C135.5 121.003 135.5 121.603 135.9 122.003Z" fill="#205CAA"/>
<path d="M121 107.103C121.4 107.503 122 107.503 122.4 107.103L125.4 104.103C125.8 103.703 125.8 103.103 125.4 102.703C125 102.303 124.4 102.303 124 102.703L121 105.703C120.6 106.103 120.6 106.703 121 107.103Z" fill="#205CAA"/>
<path d="M116.9 126.503C119.4 129.003 122.5 130.503 125.9 131.003C129.2 131.503 132.7 130.903 135.7 129.303C136.2 129.003 136.4 128.403 136.1 128.003C135.8 127.503 135.2 127.303 134.8 127.603C132.2 129.003 129.2 129.503 126.2 129.103C123.2 128.703 120.4 127.303 118.3 125.103C116.1 122.903 114.8 120.203 114.3 117.203C113.9 114.303 114.4 111.203 115.8 108.603C116.1 108.103 115.9 107.503 115.4 107.303C114.9 107.003 114.3 107.203 114.1 107.703C112.5 110.703 111.9 114.103 112.4 117.503C112.8 120.903 114.4 124.003 116.9 126.503Z" fill="#205CAA"/>
<path d="M143 79.7034C137.7 85.0034 137.7 93.6034 143 98.9034L154.3 110.203C158.3 114.203 164.7 114.203 168.6 110.203C172.6 106.203 172.6 99.8034 168.6 95.9034L158.5 85.8034C155.8 83.1034 154.4 79.5034 154.4 75.9034C150.4 75.3034 146.1 76.5034 143 79.7034Z" fill="#205CAA"/>
<path d="M144.9 136.203C146.1 137.403 148.1 137.403 149.3 136.203L154.1 131.403C155.3 130.203 155.3 128.203 154.1 127.003C153.7 126.603 153.1 126.603 152.7 127.003C152.3 127.403 152.3 128.003 152.7 128.403C153.2 128.903 153.2 129.603 152.7 130.003L147.9 134.803C147.4 135.303 146.7 135.303 146.3 134.803C145.9 134.403 145.3 134.403 144.9 134.803C144.5 135.203 144.6 135.803 144.9 136.203Z" fill="#205CAA"/>
<path d="M202.3 178.003L185.9 194.403L191.8 200.303C195.4 203.903 201.2 203.903 204.8 200.303C207.5 197.603 208.2 193.703 206.9 190.403C208 191.503 209.7 191.503 210.8 190.403C211.9 189.303 211.9 187.603 210.8 186.503L202.3 178.003Z" fill="#FCD3C1"/>
<path d="M56.4 64.8034C65 56.2034 78.9 56.2034 87.4 64.8034L71.1 81.2034L56.4 66.5034C56 66.1034 56 65.3034 56.4 64.8034Z" fill="#FCD3C1"/>
<path d="M74.1 74.3034C75.1 75.3034 75.1 77.0034 74.1 78.1034L69.2 83.0034C68.2 84.0034 66.5 84.0034 65.4 83.0034C64.4 82.0034 64.4 80.3034 65.4 79.2034L70.3 74.3034C71.4 73.3034 73.1 73.3034 74.1 74.3034Z" fill="#FCD3C1"/>
<path d="M67.3216 77.5391L48.442 58.6595L29.5624 77.5391L48.442 96.4187L67.3216 77.5391Z" fill="#205CAA"/>
<path d="M53.2 155.703H26.5V182.403H53.2V155.703Z" fill="#91BDE5"/>
<path d="M61.8 102.403H18.5V129.103H61.8V102.403Z" fill="#91BDE5"/>
<path d="M61.8 181.203H18.5V207.903H61.8V181.203Z" fill="#205CAA"/>
<path d="M48.5 155.703H31.8C24.4 155.703 18.5 149.703 18.5 142.403C18.5 135.003 24.5 129.103 31.8 129.103H48.4C55.8 129.103 61.7 135.103 61.7 142.403C61.8 149.703 55.8 155.703 48.5 155.703Z" fill="#8D9FD1"/>
<path d="M139.518 40.4727C138.596 40.4727 137.905 40.2834 137.444 39.9049C137 39.5098 136.777 38.9831 136.777 38.3248C136.777 37.9133 136.86 37.5512 137.024 37.2385C137.205 36.9257 137.46 36.6624 137.79 36.4484C138.185 36.1851 138.654 35.9793 139.197 35.8312C139.757 35.6831 140.571 35.5267 141.641 35.3621C142.415 35.2304 143.09 35.0905 143.666 34.9424C144.242 34.7778 144.686 34.5638 144.999 34.3005V35.3374C144.999 35.9299 144.867 36.5307 144.604 37.1397C144.34 37.7322 143.962 38.2836 143.468 38.7939C142.991 39.3041 142.415 39.7156 141.74 40.0283C141.065 40.3246 140.324 40.4727 139.518 40.4727ZM145.344 42.0034H147.295V32.276C147.295 30.8276 146.826 29.6754 145.888 28.8195C144.966 27.9472 143.41 27.511 141.221 27.511C139.888 27.511 138.736 27.7332 137.765 28.1776C136.81 28.622 136.061 29.2393 135.518 30.0293C135.255 30.4243 135.041 30.8523 134.876 31.3131C134.728 31.7575 134.638 32.2348 134.605 32.7451H137.049C137.115 31.7575 137.493 30.9592 138.185 30.3503C138.892 29.7248 139.938 29.4121 141.32 29.4121C142.637 29.4121 143.575 29.6425 144.135 30.1034C144.694 30.5478 144.974 31.1485 144.974 31.9057C144.974 32.564 144.637 33.0084 143.962 33.2389C143.304 33.4528 142.357 33.6503 141.123 33.8314C140.184 33.9631 139.403 34.0947 138.777 34.2264C138.152 34.3581 137.625 34.498 137.197 34.6461C136.983 34.7284 136.777 34.8189 136.58 34.9177C136.382 35.0165 136.185 35.1317 135.987 35.2633C135.428 35.609 134.983 36.0699 134.654 36.6459C134.325 37.222 134.16 37.8804 134.16 38.621C134.16 39.7567 134.547 40.6702 135.321 41.3615C136.111 42.0363 137.263 42.3738 138.777 42.3738C140.341 42.3738 141.658 42.0034 142.727 41.2628C143.797 40.5056 144.579 39.5839 145.073 38.4976L145.344 42.0034Z" fill="white"/>
<path d="M169.332 38.3738C170.633 38.3738 171.76 38.0857 172.715 37.5096C173.669 36.9171 174.402 36.0777 174.912 34.9914C175.175 34.4482 175.373 33.8475 175.505 33.1891C175.636 32.5307 175.702 31.823 175.702 31.0658V30.7449C175.702 29.1977 175.431 27.8892 174.887 26.8193C174.361 25.7495 173.628 24.9348 172.69 24.3751C172.229 24.0953 171.727 23.8814 171.184 23.7332C170.641 23.5851 170.065 23.511 169.456 23.511C168.156 23.511 167.061 23.832 166.172 24.4739C165.3 25.0994 164.65 25.9223 164.222 26.9428V19.1164H161.901V38.0034H163.901L164.148 34.8185C164.543 35.8719 165.176 36.7278 166.049 37.3862C166.921 38.0446 168.016 38.3738 169.332 38.3738ZM168.666 36.2258C167.267 36.2258 166.156 35.7403 165.333 34.7692C164.526 33.7816 164.123 32.4813 164.123 30.8683V30.6708C164.123 29.6997 164.312 28.8274 164.691 28.0538C165.086 27.2802 165.629 26.6712 166.32 26.2268C166.666 26.0128 167.045 25.8482 167.456 25.733C167.868 25.6178 168.304 25.5602 168.765 25.5602C170.081 25.5602 171.159 26.0293 171.999 26.9675C172.838 27.8892 173.258 29.1566 173.258 30.7696V31.0411C173.258 32.6871 172.855 33.9627 172.048 34.8679C171.258 35.7732 170.131 36.2258 168.666 36.2258Z" fill="white"/>
<path d="M177.197 66.3738C179.073 66.3738 180.62 65.9047 181.838 64.9665C183.073 64.0283 183.797 62.5634 184.011 60.5719V60.5225H181.517V60.5472C181.303 61.7652 180.834 62.6869 180.11 63.3123C179.402 63.9213 178.439 64.2258 177.221 64.2258C175.789 64.2258 174.662 63.7814 173.839 62.8926C173.033 61.9874 172.629 60.7365 172.629 59.1399V58.8683C172.629 57.173 173.057 55.8727 173.913 54.9675C174.785 54.0458 175.896 53.5849 177.246 53.5849C178.398 53.5849 179.345 53.8894 180.085 54.4984C180.826 55.0909 181.295 56.0126 181.493 57.2635V57.3129H183.986V57.2635C183.772 55.3049 183.056 53.8565 181.838 52.9183C180.62 51.9801 179.081 51.511 177.221 51.511C175.888 51.511 174.687 51.7991 173.617 52.3751C172.547 52.9512 171.708 53.7824 171.099 54.8687C170.786 55.4283 170.547 56.0373 170.383 56.6957C170.234 57.3541 170.16 58.0783 170.16 58.8683V59.1893C170.16 61.4442 170.778 63.2053 172.012 64.4727C173.246 65.7401 174.975 66.3738 177.197 66.3738Z" fill="white"/>
<path d="M54.4782 79.3319C53.3942 80.4159 50.1421 83.7514 50.1421 83.7514C49.6418 84.2517 48.8913 84.752 48.2242 84.752C47.4737 84.752 46.7232 84.3351 46.0561 83.7514C44.3884 82.2504 42.8874 80.8329 41.4699 79.3319C39.552 77.3306 39.4686 74.1619 41.4699 72.1606C43.0542 70.5763 45.4724 70.6597 47.3069 72.1606C47.8073 72.5776 48.2242 72.6609 48.8079 72.1606C50.3922 70.6597 52.8938 70.5763 54.3948 72.1606C56.5629 74.2453 56.4795 77.3306 54.4782 79.3319Z" fill="#F37972"/>
</g>
<defs>
<clipPath id="clip0">
<rect width="239.7" height="240" fill="white" transform="translate(0 0.00341797)"/>
</clipPath>
</defs>
</svg>
