<svg width="1441" height="277" viewBox="0 0 1441 277" fill="none" xmlns="http://www.w3.org/2000/svg">
<path d="M1405.66 201.642C1349.98 201.712 1304.78 156.863 1304.71 101.469C1304.64 46.0748 1349.73 1.11242 1405.41 1.04245C1461.1 0.972488 1506.3 45.8215 1506.37 101.215C1506.44 156.609 1461.35 201.572 1405.66 201.642Z" fill="#91BDE5"/>
<path d="M1269.67 305.516C1226.26 305.57 1191.03 270.61 1190.97 227.429C1190.92 184.249 1226.06 149.2 1269.47 149.146C1312.88 149.091 1348.11 184.052 1348.17 227.232C1348.22 270.412 1313.08 305.461 1269.67 305.516Z" fill="#91BDE5"/>
<path d="M1268 226.788L1271.21 226.784L1271.39 373.559L1268.18 373.563L1268 226.788Z" fill="#8D9FD1"/>
<path d="M1249 266.047L1251.27 263.783L1270.4 282.764L1268.13 285.028L1249 266.047Z" fill="#8D9FD1"/>
<path d="M1287.33 234.87L1289.6 237.128L1270.52 256.158L1268.24 253.899L1287.33 234.87Z" fill="#8D9FD1"/>
<path d="M1385.31 141.179L1387.58 138.915L1406.71 157.896L1404.44 160.161L1385.31 141.179Z" fill="#8D9FD1"/>
<path d="M1423.56 110.02L1425.84 112.279L1406.76 131.308L1404.48 129.05L1423.56 110.02Z" fill="#8D9FD1"/>
<path d="M1403.96 101.345L1407.18 101.341L1407.52 373.389L1404.31 373.393L1403.96 101.345Z" fill="#8D9FD1"/>
<g clip-path="url(#clip0)">
<path d="M197.648 197.139L194.673 194.819C195.755 195.466 196.729 196.275 197.648 197.139Z" fill="#8D9FD1"/>
<path d="M194.674 194.765L-8.44747 195.02C-20.6056 195.035 -30.4524 185.213 -30.4677 173.055L-30.5095 139.769C-30.5248 127.61 -20.7026 117.764 -8.54449 117.748L96.5013 117.616L190.833 191.798L194.674 194.765Z" fill="#8D9FD1"/>
<path d="M142.856 283.395L54.2373 283.507C54.2065 259.028 74.0128 239.172 98.4911 239.141C122.969 239.057 142.825 258.863 142.856 283.395Z" fill="#8D9FD1"/>
<path d="M194.674 194.765L-8.44747 195.02C-20.6056 195.035 -30.4524 185.213 -30.4677 173.055L-30.5095 139.769C-30.5248 127.61 -20.7026 117.764 -8.54449 117.748L96.5013 117.616L190.833 191.798L194.674 194.765Z" fill="#8D9FD1"/>
<path d="M194.674 194.765L-8.44747 195.02C-20.6056 195.035 -30.4524 185.213 -30.4677 173.055L-30.5095 139.769C-30.5248 127.61 -20.7026 117.764 -8.54449 117.748L96.5013 117.616L190.833 191.798L194.674 194.765Z" fill="#E8E7F4"/>
<path d="M197.648 197.139L194.673 194.819C195.755 195.466 196.729 196.275 197.648 197.139Z" fill="#8D9FD1"/>
<path d="M258.408 215.327L258.467 262.554C258.481 273.956 249.253 283.208 237.851 283.222L142.856 283.341C142.825 258.863 122.969 239.057 98.4909 239.087C74.0127 239.118 54.2064 258.974 54.2371 283.453L-74.3143 283.614C-86.4723 283.683 -96.3193 273.807 -96.3345 261.649L-96.5106 121.425C-96.5122 120.182 -96.4056 118.993 -96.1909 117.804C-94.4749 107.373 -85.4068 99.4184 -74.4916 99.4047L65.7316 99.2286C71.6215 99.2212 77.028 101.538 80.9774 105.316L85.8455 109.146L95.0947 116.375L96.5552 117.562L-8.54468 117.694C-20.7028 117.709 -30.525 127.556 -30.5097 139.715L-30.4678 173.055C-30.4526 185.213 -20.6057 195.035 -8.4476 195.02L237.74 194.711C249.142 194.697 258.393 203.925 258.408 215.327Z" fill="#91BDE5"/>
<path d="M240.935 242.853L231.424 242.865C228.452 242.869 226.018 240.44 226.014 237.468L225.99 218.123C225.986 215.151 228.414 212.717 231.386 212.713L240.897 212.701C243.869 212.697 246.303 215.126 246.307 218.098L246.331 237.443C246.335 240.469 243.907 242.849 240.935 242.853Z" fill="white"/>
<path d="M129.927 314.72C147.209 297.394 147.174 269.339 129.849 252.057C112.523 234.775 84.4682 234.81 67.1862 252.136C49.9042 269.461 49.9394 297.516 67.2649 314.799C84.5904 332.081 112.645 332.045 129.927 314.72Z" fill="#FCD3C1"/>
</g>
<defs>
<clipPath id="clip0">
<rect width="354.8" height="228.573" fill="white" transform="translate(-96.5382 99.4324) rotate(-0.0719357)"/>
</clipPath>
</defs>
</svg>
