<svg width="18" height="16" viewBox="0 0 18 16" fill="none" xmlns="http://www.w3.org/2000/svg">
<path d="M11.4202 0.329749C11.05 -0.0801204 10.4176 -0.112304 10.0078 0.257865C9.59791 0.628035 9.56572 1.26038 9.93589 1.67025L11.4202 0.329749ZM17 8L17.7421 8.67025C18.086 8.28956 18.086 7.71044 17.7421 7.32975L17 8ZM9.93589 14.3297C9.56572 14.7396 9.59791 15.372 10.0078 15.7421C10.4176 16.1123 11.05 16.0801 11.4202 15.6703L9.93589 14.3297ZM15.8076 9.03173C16.3599 9.03173 16.8076 8.58402 16.8076 8.03173C16.8076 7.47945 16.3599 7.03173 15.8076 7.03173V9.03173ZM1 7.03173C0.447715 7.03173 0 7.47945 0 8.03173C0 8.58402 0.447715 9.03173 1 9.03173V7.03173ZM9.93589 1.67025L16.2579 8.67025L17.7421 7.32975L11.4202 0.329749L9.93589 1.67025ZM16.2579 7.32975L9.93589 14.3297L11.4202 15.6703L17.7421 8.67025L16.2579 7.32975ZM15.8076 7.03173H1V9.03173H15.8076V7.03173Z" fill="white"/>
</svg>
