<svg width="112" height="72" viewBox="0 0 112 72" fill="none" xmlns="http://www.w3.org/2000/svg">
<g clip-path="url(#clip0)">
<path d="M112 54.8793L93.1918 36.9804L75.8912 53.4087L94.6994 71.3076L112 54.8793Z" fill="#FCD3C1"/>
<path d="M93.8886 60.6959L95.4224 59.2362L90.1998 54.2661C90.5041 54.041 90.859 53.9364 91.2646 53.9525C91.6787 53.9766 92.135 54.0651 92.6336 54.2179C92.8787 54.3064 93.1322 54.3948 93.3942 54.4833C93.6646 54.5798 93.9351 54.6763 94.2055 54.7728C94.721 54.9578 95.2449 55.1267 95.7773 55.2795C96.3097 55.4323 96.8421 55.5368 97.3745 55.5931C97.9069 55.6333 98.4224 55.577 98.921 55.4242C99.4281 55.2795 99.9055 54.994 100.353 54.5677C100.886 54.0611 101.224 53.4901 101.368 52.8547C101.52 52.2114 101.46 51.5358 101.19 50.8281C101.055 50.4742 100.856 50.1164 100.594 49.7545C100.341 49.4006 100.028 49.0468 99.6562 48.6929C98.49 47.5831 97.3238 46.9799 96.1576 46.8834C94.9999 46.7949 93.9097 47.2373 92.8872 48.2104L92.5196 48.5602L94.2182 50.1767L94.5097 49.8992C95.0759 49.3604 95.6717 49.099 96.297 49.1151C96.9393 49.1312 97.5731 49.4368 98.1985 50.0319C98.7647 50.5708 99.0773 51.0935 99.1365 51.6002C99.2041 52.0988 99.0055 52.5692 98.5407 53.0116C98.228 53.3091 97.8435 53.4579 97.3872 53.4579C96.9478 53.4579 96.4576 53.3694 95.9168 53.1925C95.6379 53.104 95.3548 53.0116 95.0675 52.9151C94.797 52.8185 94.5097 52.714 94.2055 52.6014C93.6815 52.4084 93.1449 52.2274 92.5956 52.0586C92.0463 51.8897 91.5012 51.7811 90.9604 51.7329C90.4111 51.6766 89.8829 51.7208 89.3759 51.8655C88.8688 52.0103 88.3914 52.2958 87.9435 52.722L86.7266 53.8801L93.8886 60.6959Z" fill="white"/>
<path d="M70.0113 25H43.3632V48.2435H69.9736V25H70.0113Z" fill="#8D9FD1"/>
<path d="M55.8404 38.4621C55.3026 38.4621 54.8962 38.3598 54.6213 38.155C54.3584 37.9503 54.2269 37.6432 54.2269 37.2338C54.2269 37.0177 54.2747 36.8243 54.3704 36.6537C54.4779 36.4831 54.6333 36.3353 54.8365 36.2102C55.0755 36.0623 55.3504 35.9486 55.6611 35.869C55.9838 35.778 56.4559 35.687 57.0773 35.596C57.5434 35.5278 57.9498 35.4425 58.2964 35.3401C58.6549 35.2377 58.9417 35.1126 59.1569 34.9648V35.4936C59.1569 35.96 59.0194 36.4263 58.7445 36.8926C58.4816 37.3475 58.0992 37.7229 57.5972 38.0186C57.3462 38.1664 57.0714 38.2802 56.7726 38.3598C56.4857 38.428 56.175 38.4621 55.8404 38.4621ZM59.4975 39.9293H61.3977V33.3099C61.3977 32.6048 61.2483 31.9963 60.9495 31.4845C60.6627 30.9727 60.1847 30.5803 59.5154 30.3073C59.1808 30.1595 58.7923 30.0514 58.3501 29.9832C57.9079 29.9149 57.406 29.8808 56.8443 29.8808C55.3743 29.8808 54.221 30.222 53.3844 30.9044C52.5478 31.5755 52.0877 32.4683 52.004 33.5829H54.4241C54.46 32.9574 54.6811 32.474 55.0874 32.1328C55.4938 31.7916 56.1212 31.621 56.9698 31.621C57.7705 31.621 58.3322 31.7404 58.6549 31.9792C58.9776 32.2181 59.1389 32.5422 59.1389 32.9517C59.1389 33.3497 58.9358 33.6341 58.5294 33.8047C58.135 33.9639 57.4777 34.1004 56.5574 34.2141C55.9121 34.3051 55.3802 34.3904 54.9619 34.47C54.5437 34.5496 54.1851 34.6406 53.8863 34.743C53.7429 34.7885 53.5935 34.8454 53.4382 34.9136C53.2947 34.9818 53.1513 35.0615 53.0079 35.1524C52.5896 35.4027 52.261 35.7325 52.0219 36.1419C51.7829 36.54 51.6634 37.012 51.6634 37.5579C51.6634 38.3541 51.9442 38.991 52.506 39.4687C53.0796 39.9464 53.9222 40.1852 55.0337 40.1852C56.0973 40.1852 56.9757 39.9748 57.6689 39.554C58.374 39.1332 58.8999 38.6043 59.2465 37.9674L59.4975 39.9293Z" fill="white"/>
<path d="M75.7028 48.2435H49.0547V71.4869H75.6651V48.2435H75.7028Z" fill="#91BDE5"/>
<path d="M67.6367 57.6772C68.3529 57.6772 69.069 57.0674 69.0313 56.35C68.9937 55.6326 68.4283 55.0228 67.6367 55.0228C66.9206 55.0228 66.2045 55.6326 66.2421 56.35C66.3175 57.1033 66.8829 57.6772 67.6367 57.6772Z" fill="white"/>
<path d="M57.1207 57.6772C57.8368 57.6772 58.553 57.0674 58.5153 56.35C58.4776 55.6326 57.9122 55.0228 57.1207 55.0228C56.4045 55.0228 55.6884 55.6326 55.7261 56.35C55.7638 57.1033 56.3292 57.6772 57.1207 57.6772Z" fill="white"/>
<path d="M62.3975 63.2728C60.4752 63.2728 58.8545 62.0533 58.2891 60.4033C58.2514 60.2956 58.176 60.2239 58.063 60.2239H56.9699C56.8191 60.2239 56.7061 60.3674 56.7438 60.5109C57.3845 62.9141 59.646 64.7076 62.3975 64.7076C65.1113 64.7076 67.4105 62.9141 68.0513 60.5109C68.089 60.3674 67.9759 60.2239 67.8251 60.2239H66.7321C66.619 60.2239 66.5436 60.2956 66.5059 60.4033C65.9406 62.0533 64.3198 63.2728 62.3975 63.2728Z" fill="white"/>
<path d="M26.0802 65.9631C29.3068 60.6447 27.392 53.844 21.8034 50.7735C16.2148 47.7029 9.06874 49.5251 5.84217 54.8435C2.61559 60.1619 4.53039 66.9625 10.119 70.0331C15.7076 73.1037 22.8537 71.2815 26.0802 65.9631Z" fill="#205CAA"/>
<path d="M19.2413 56.9989C19.531 58.0279 20.4517 61.1017 20.4517 61.1017C20.5896 61.5917 20.6196 62.188 20.3746 62.5918C20.1107 63.0267 19.5669 63.3492 18.9628 63.5557C17.4131 64.0297 15.9853 64.4463 14.5298 64.7649C12.5921 65.2328 10.5821 64.1698 10.0252 62.2899C9.61133 60.8199 10.5297 59.3779 12.136 58.8107C12.5855 58.6436 12.8016 58.4309 12.6825 57.9099C12.3012 56.4579 13.192 54.9178 14.699 54.586C16.8288 54.0167 18.717 55.137 19.2413 56.9989Z" fill="#F37972"/>
</g>
<defs>
<clipPath id="clip0">
<rect width="112" height="72" fill="white"/>
</clipPath>
</defs>
</svg>
