<svg width="29" height="29" viewBox="0 0 29 29" fill="none" xmlns="http://www.w3.org/2000/svg">
<path d="M19.2777 3.9735L22.7457 4.35883C23.6754 4.46213 24.3924 5.19949 24.2947 6.1298C24.0507 8.45546 22.9013 13.0412 17.9719 17.9705C13.0426 22.8999 8.45629 24.0499 6.13019 24.2944C5.19972 24.3922 4.46212 23.6752 4.3588 22.7453L3.97351 19.2777C3.88544 18.485 4.27671 17.7158 4.96921 17.3202L7.45331 15.9011C8.23635 15.4538 9.22191 15.5859 9.85959 16.2235L10.4969 16.8608C10.9697 17.3337 11.6511 17.5337 12.2555 17.2475C12.9715 16.9083 14.0065 16.2792 15.1428 15.1428C16.2792 14.0064 16.9083 12.9715 17.2475 12.2555C17.5338 11.6511 17.3337 10.9697 16.8608 10.4969L16.2236 9.85957C15.5859 9.2219 15.4538 8.23634 15.9012 7.45329L17.3202 4.9692C17.7158 4.2767 18.4851 3.88543 19.2777 3.9735Z" stroke="#205CAA" stroke-width="2" stroke-linecap="round" stroke-linejoin="round"/>
</svg>
